<svg id="Layer_1" data-name="Layer 1" xmlns="http://www.w3.org/2000/svg" xmlns:xlink="http://www.w3.org/1999/xlink" viewBox="0 0 700 482">
  <defs>
    <style>
      .cls-1 {
        fill: #ff8585;
      }

      .cls-2 {
        fill: #bed2ea;
      }

      .cls-3 {
        fill: #7298b7;
      }

      .cls-4 {
        isolation: isolate;
      }

      .cls-5 {
        fill: #ff4557;
      }

      .cls-6 {
        fill: #cc2545;
      }

      .cls-7 {
        fill: #ff5f76;
      }

      .cls-8 {
        fill: #fff;
      }

      .cls-9 {
        fill: #c9a200;
      }

      .cls-10 {
        fill: #e5cf00;
      }

      .cls-11 {
        fill: #fffc01;
      }

      .cls-12 {
        fill: #69319b;
      }

      .cls-13 {
        fill: #8542b6;
      }

      .cls-14 {
        fill: url(#radial-gradient);
      }

      .cls-15 {
        fill: #8baccc;
      }

      .cls-16 {
        fill: #eef7ff;
      }

      .cls-17 {
        fill: #0e232d;
      }

      .cls-18 {
        fill: #1a3749;
      }

      .cls-19 {
        fill: #22435b;
      }

      .cls-20 {
        fill: #006293;
      }

      .cls-21 {
        fill: #008fce;
      }

      .cls-22 {
        fill: #00aced;
      }

      .cls-23 {
        fill: #00516d;
      }

      .cls-24 {
        fill: #00638e;
      }

      .cls-25 {
        fill: #0076b6;
      }

      .cls-26 {
        fill: #fcfcfc;
      }

      .cls-27 {
        fill: #d81749;
      }

      .cls-28 {
        fill: #0edbd3;
      }

      .cls-29 {
        fill: #09d8cf;
      }

      .cls-30 {
        fill: #fefdfd;
      }

      .cls-31 {
        fill: #fefdfe;
      }
    </style>
    <radialGradient id="radial-gradient" cx="286.886" cy="372.225" r="169.405" gradientTransform="translate(-30.022 233.166) rotate(-10.315) scale(1 0.52)" gradientUnits="userSpaceOnUse">
      <stop offset="0" stop-color="#fdc666"/>
      <stop offset="0.177" stop-color="#f57431"/>
      <stop offset="0.413" stop-color="#e84656"/>
      <stop offset="0.592" stop-color="#b93395"/>
      <stop offset="0.823" stop-color="#8542b6"/>
      <stop offset="1" stop-color="#5b57c9"/>
    </radialGradient>
  </defs>
  <title>Kaykushal 4 edit</title>
  <g>
    <path class="cls-1" d="M179.339,346.316l-1.5-2.65L307.98,269.915a16.089,16.089,0,0,1,14.789,0l-1.523,2.638a13.165,13.165,0,0,0-11.75,0Z"/>
    <path class="cls-2" d="M242.089,250.841a12.535,12.535,0,0,1-6.157-1.5L177.306,211.75l1.644-2.564,58.565,37.556a10.354,10.354,0,0,0,9.189-.035l132.687-76.821,1.526,2.636-132.685,76.82A12.45,12.45,0,0,1,242.089,250.841Z"/>
    <path class="cls-2" d="M493.016,360.448l-22.072-13.133V329.139L367.9,268.827c-3.267-1.887-5.073-4.492-5.078-7.332s1.784-5.429,5.033-7.318l1.53,2.633c-2.271,1.32-3.52,2.982-3.518,4.68s1.268,3.378,3.563,4.7l104.554,61.2v18.189l20.584,12.248Z"/>
    <rect class="cls-2" x="334.002" y="293.791" width="101.723" height="3.046" transform="translate(-96.475 234.953) rotate(-30.352)"/>
    <path class="cls-2" d="M338.874,326.943c-2.988,0-5.33-1.881-5.33-4.283s2.342-4.283,5.33-4.283,5.33,1.881,5.33,4.283S341.863,326.943,338.874,326.943Zm0-5.52c-1.394,0-2.284.733-2.284,1.237s.89,1.237,2.284,1.237,2.284-.733,2.284-1.237S340.269,321.423,338.874,321.423Z"/>
    <path class="cls-2" d="M510.791,331.5,407,270.743c-3.267-1.887-5.073-4.492-5.077-7.332s1.783-5.429,5.033-7.318l1.53,2.633c-2.27,1.32-3.519,2.982-3.517,4.68s1.268,3.378,3.563,4.7l103.8,60.758Z"/>
    <path class="cls-1" d="M192.972,299.857a12.531,12.531,0,0,1-6.155-1.5l-58.626-37.593,1.644-2.564L188.4,295.759a10.355,10.355,0,0,0,9.19-.035L311.4,229.043l1.539,2.628L199.125,298.355A12.468,12.468,0,0,1,192.972,299.857Z"/>
    <path class="cls-1" d="M339.131,383.518l-72.919-42.1c-3.772-2.178-5.853-5.165-5.857-8.41s2.054-6.213,5.8-8.387l118.141-68.656,1.53,2.633L267.681,327.255c-2.763,1.606-4.283,3.648-4.28,5.75s1.542,4.164,4.334,5.777l72.919,42.1Z"/>
    <path class="cls-1" d="M366.9,261.249,228.244,180.088c-4.2-2.427-6.526-5.75-6.531-9.354s2.292-6.906,6.47-9.333l104.962-61,1.53,2.633-104.962,61c-3.2,1.858-4.957,4.236-4.954,6.7s1.785,4.86,5.016,6.725L368.441,258.62Z"/>
    <path class="cls-1" d="M363.8,220.018l-1.5-2.65,130.142-73.751a16.088,16.088,0,0,1,14.789,0l-1.523,2.637a13.166,13.166,0,0,0-11.75,0Z"/>
    <path class="cls-1" d="M609.749,280.228,500.643,217.236a10.355,10.355,0,0,0-9.24,0L385.848,277.058l-1.5-2.65L489.887,214.6a13.359,13.359,0,0,1,12.28,0l109.105,62.992Z"/>
    <path class="cls-3" d="M495.554,290.843,315.311,186.78a11.858,11.858,0,0,0-10.767.006L252.517,217.02c-2.965,1.723-2.959,4.514.025,6.236l162.081,93.578-6.942,12.24,30.281-.461-.018-.013a11.055,11.055,0,0,0,5.617-1.279l52.027-30.236C498.555,295.362,498.539,292.567,495.554,290.843Z"/>
    <g class="cls-4">
      <path class="cls-5" d="M219.771,220.584l.07-24.827a3.8,3.8,0,0,0,2.244,3.135l-.07,24.827A3.8,3.8,0,0,1,219.771,220.584Z"/>
      <path class="cls-6" d="M467.346,269.621l-.07,24.828a3.784,3.784,0,0,1-2.214,3.1l.07-24.827A3.784,3.784,0,0,0,467.346,269.621Z"/>
      <polygon class="cls-6" points="465.132 272.72 465.062 297.548 413.035 327.783 413.105 302.955 465.132 272.72"/>
      <polygon class="cls-5" points="402.328 302.955 402.258 327.783 222.015 223.719 222.085 198.891 402.328 302.955"/>
      <path class="cls-5" d="M413.1,302.955l-.07,24.827a11.878,11.878,0,0,1-10.777,0l.07-24.827A11.878,11.878,0,0,0,413.1,302.955Z"/>
      <path class="cls-7" d="M465.1,266.478c2.985,1.723,3,4.519.035,6.242L413.1,302.955a11.878,11.878,0,0,1-10.777,0L222.085,198.891c-2.985-1.723-2.991-4.513-.026-6.237l52.027-30.235a11.857,11.857,0,0,1,10.767-.006Z"/>
    </g>
    <g>
      <path class="cls-8" d="M298.284,189.521l-2.375-1.369-5.177-2.989a4.468,4.468,0,0,0-3.949-.049c-2.272,1.3-4.51,2.621-6.765,3.931a1.254,1.254,0,0,0-.747,1.143q.076,4.55.144,9.114a1.435,1.435,0,0,0,.839,1.061,3.159,3.159,0,0,0,1.1.382c1.95.285,3.675-.491,3.659-1.654-.032-2.65-.081-5.3-.1-7.951a.733.733,0,0,1,.378-.535c.945-.579,1.951-1.124,2.905-1.708a.757.757,0,0,1,.941,0q1.9,1.111,3.815,2.215l3.828,2.207c2.125,1.237,2.255,3.3.043,4.643a8.3,8.3,0,0,1-5.045.962c-2.077-.162-3.657.707-3.379,1.9.33,1.364-.384,2.469-2.32,3.308a9.5,9.5,0,0,1-6.422.079c-.671-.29-1.241-.668-1.887-.982-.04-.02-.078-.039-.112-.06a.726.726,0,0,1-.426-.682c0-2.552-.046-5.1-.035-7.652a1.589,1.589,0,0,0-.891-1.375,3.453,3.453,0,0,0-1.381-.416c-1.967-.186-3.42.559-3.4,1.723.006,1.051.071,2.1.085,3.141.019,1.9,0,3.8.058,5.7a1.074,1.074,0,0,0,.4.869,17.116,17.116,0,0,0,1.818,1.211,17.5,17.5,0,0,0,2.755,1.283A18.082,18.082,0,0,0,283.294,208a16.417,16.417,0,0,0,6.694-1.458c2.205-1.045,3.571-2.42,4.01-4.074.05-.177.1-.275.464-.309a13.939,13.939,0,0,0,7.189-2.454c1.738-1.306,2.526-2.758,2.382-4.4-.154-1.732-1.314-3.185-3.38-4.407q-1.179-.7-2.369-1.38"/>
      <path class="cls-8" d="M348.808,218.694a1.481,1.481,0,0,0-.132-.068,4.767,4.767,0,0,0-4.151.147l-7.441,4.324q-7.056,4.1-14.1,8.206c-.7.407-1.224.879-1.084,1.477a1.57,1.57,0,0,0,.8,1.06,4.569,4.569,0,0,0,2.246.457q5.694,0,11.371,0a1.754,1.754,0,0,1,.675.06c.1.057.1.171.108.4q.018,3.3.054,6.587a1.491,1.491,0,0,0,.836,1.31,3.7,3.7,0,0,0,.97.368c1.8.442,3.9-.383,3.872-1.571-.046-2.238-.076-4.476-.122-6.714.008-.123-.1-.245-.155-.363l.22-.108c.246.025.483.074.7.074q5.847.015,11.676.01a3.189,3.189,0,0,0,2.436-.854,1.03,1.03,0,0,0-.068-1.556,2.06,2.06,0,0,0-.484-.382,4.8,4.8,0,0,0-2.342-.467q-9.316-.022-18.641-.039c-1.22,0-2.449,0-3.678-.01-.2,0-.407-.01-.61-.02l-.06-.1.49-.285q8.032-4.668,16.072-9.34a5.943,5.943,0,0,0,.869-.6,1.228,1.228,0,0,0-.329-2"/>
      <path class="cls-8" d="M413.871,256.256a1.776,1.776,0,0,0-.163-.083,4.492,4.492,0,0,0-4.075.162L397.9,263.152,387.835,269c-.9.52-1.154,1.193-.71,1.811a2,2,0,0,0,.644.584,4.143,4.143,0,0,0,2.073.427c1.559.01,3.119.039,4.669.044,2.169.01,4.338,0,6.516,0,.347,0,.7.02,1.068.029.036.363.088.7.09,1.021.02,2.047.014,4.1.034,6.145a1.311,1.311,0,0,0,.767,1.114,4.153,4.153,0,0,0,1.013.393c1.579.422,3.811-.344,3.831-1.34.016-1.713-.011-3.431-.029-5.144,0-.726-.025-1.453-.038-2.2.322-.01.534-.015.754-.015,1.695.02,3.389.039,5.076.044,2.1.01,4.194,0,6.279,0a4.624,4.624,0,0,0,2.327-.535c1.091-.6.929-1.672-.108-2.271a2.818,2.818,0,0,0-.423-.2,7.231,7.231,0,0,0-2.493-.285q-9.888-.015-19.777-.01c-.881,0-1.754-.044-2.627-.069l-.069-.1.532-.309L411.264,260c.861-.5,1.74-1,2.593-1.507a1.241,1.241,0,0,0,.014-2.234"/>
      <path class="cls-8" d="M369.846,230.839a4.433,4.433,0,0,0-4.036.008q-10.895,6.331-21.816,12.658c-1.32.757-1.387,1.831-.012,2.625l.018.01q2.168,1.244,4.329,2.492t4.316,2.5c2.159,1.247,4.318,2.493,6.495,3.74a4.564,4.564,0,0,0,.917.422c1.808.554,4.058-.093,4.136-1.34.015-.314,0-.628-.005-.952q-.035-4.027-.054-8.064a1.516,1.516,0,0,0-.87-1.256,3.769,3.769,0,0,0-1.8-.452c-1.864-.029-3.038.78-3,1.713.01.3.071.589.064.888.024,1.178.014,2.356.02,3.534,0,.128-.016.246-.023.368l-.135.039-.451-.26-7.566-4.368c-.6-.348-.6-.348.013-.707l18.877-10.97c.245-.142.5-.289.734-.447a1.2,1.2,0,0,0-.122-2.165l-.031-.018"/>
      <path class="cls-8" d="M330.693,216.258a10.256,10.256,0,0,0-1.642-.753c-.994-.358-2.063-.643-3.251-1.006l.042-.152a1.378,1.378,0,0,0-.8-1.343,3.139,3.139,0,0,0-.767-.306,4.654,4.654,0,0,0-3.3.373q-7.436,4.351-14.907,8.673a3.04,3.04,0,0,0-.607.451c-.653.668-.366,1.468.421,1.922q.068.039.141.075a4.355,4.355,0,0,0,3.8-.025c3.218-1.87,6.41-3.745,9.645-5.605a7.289,7.289,0,0,1,5.436-.677,6.44,6.44,0,0,1,1.714.647,2.7,2.7,0,0,1,1.331,1.532c.311,1.07-.412,1.953-1.7,2.7-3.15,1.831-6.284,3.662-9.442,5.487a1.184,1.184,0,0,0,.036,2.195c.06.034.123.067.189.1a4.3,4.3,0,0,0,3.974-.133q4.814-2.768,9.569-5.561a8.53,8.53,0,0,0,1.5-1.119c1.576-1.487,1.991-3.1,1.21-4.781a6.144,6.144,0,0,0-2.6-2.692"/>
      <path class="cls-8" d="M390.092,250.574a3.147,3.147,0,0,0-.643-.277,4.346,4.346,0,0,0-3.075.162l-15.54,9.031a1.173,1.173,0,0,0,.074,2.164c.048.028.1.054.15.079a4.3,4.3,0,0,0,3.974-.083c3.252-1.87,6.461-3.755,9.7-5.625a4.8,4.8,0,0,1,.879-.4,7.633,7.633,0,0,1,5.955.425,3.921,3.921,0,0,1,.821.62c1.2,1.2.81,2.493-.9,3.485-3.125,1.816-6.241,3.647-9.392,5.458-1.145.657-1.31,1.723-.134,2.4a3.367,3.367,0,0,0,.488.229,4.54,4.54,0,0,0,3.32-.157q5.08-2.952,10.152-5.9a8.3,8.3,0,0,0,1.089-.79,4.209,4.209,0,0,0,1.658-3.485,5.111,5.111,0,0,0-2.934-4.072,12.9,12.9,0,0,0-2.034-.929c-.883-.324-1.875-.545-2.852-.825l.058-.2c.107-.473-.221-.966-.815-1.309"/>
      <path class="cls-8" d="M312.626,197.8a4.557,4.557,0,0,0-4.1,0l-13.783,8.01a12.19,12.19,0,0,0-2.776,2.086c-1.878,1.978-2.2,4.044-1.118,6.194a7.773,7.773,0,0,0,2.6,2.793c.2.135.4.265.6.384a4.878,4.878,0,0,0,1.749.622,4.286,4.286,0,0,0,2.784-.574c.877-.766.7-1.4.057-1.934-.587-.5-1.3-.937-1.813-1.458-1.619-1.669-1.132-4.02,1.326-5.409,2.314-1.3,4.544-2.631,6.816-3.951,2.171-1.261,4.35-2.518,6.512-3.784.482-.28.937-.584,1.368-.893a1.178,1.178,0,0,0-.155-2.047l-.073-.044"/>
      <path class="cls-8" d="M319.28,209.669a3.522,3.522,0,0,0-1.2-.393,4.2,4.2,0,0,0-2.862.432c-4.992,2.891-9.958,5.8-14.966,8.678-1.074.624-1.316,1.7-.116,2.391a3.4,3.4,0,0,0,.478.225,4.555,4.555,0,0,0,3.338-.147l7.72-4.486c2.55-1.482,5.092-2.969,7.651-4.437.609-.354.86-.8.756-1.247a1.545,1.545,0,0,0-.8-1.015"/>
      <path class="cls-8" d="M384.361,247.262l-.029-.017a4.464,4.464,0,0,0-4.051.02c-2.466,1.482-5.008,2.92-7.508,4.373l-7.643,4.442a2.263,2.263,0,0,0-.4.294c-.678.679-.377,1.5.416,1.962q.082.048.172.09a4.464,4.464,0,0,0,3.863-.088c.752-.427,1.478-.859,2.213-1.286l12.863-7.475c1.13-.657,1.184-1.694.109-2.314"/>
      <path class="cls-8" d="M326.151,205.631a4.282,4.282,0,0,0-3.977.042c-1.191.741-1.042,1.669.064,2.317l.014.008a4.208,4.208,0,0,0,3.892-.042c1.141-.555,1.186-1.625.038-2.307l-.03-.018"/>
      <path class="cls-8" d="M391.157,243.16a4.581,4.581,0,0,0-3.781-.018c-1.149.618-1.312,1.678-.139,2.366a4.4,4.4,0,0,0,3.975.024c1.191-.741,1.109-1.629.021-2.326l-.075-.045"/>
    </g>
    <g>
      <path class="cls-3" d="M683.908,272.791,629.9,241.607a9.5,9.5,0,0,0-8.625,0l-53.66,31.184c-2.376,1.381-2.364,3.615.028,5L604.3,298.952l-8.828,11.515,30.142-.481c.335.011.667,0,1-.016h0a8.415,8.415,0,0,0,3.662-1l53.66-31.184C686.312,276.405,686.3,274.172,683.908,272.791Z"/>
      <g class="cls-4">
        <path class="cls-9" d="M655.253,250.94l-.07,24.828a3.03,3.03,0,0,1-1.774,2.481l.07-24.827A3.03,3.03,0,0,0,655.253,250.94Z"/>
        <path class="cls-10" d="M535.31,275.734l.07-24.827a3.053,3.053,0,0,0,1.8,2.515l-.07,24.827A3.053,3.053,0,0,1,535.31,275.734Z"/>
        <polygon class="cls-9" points="653.479 253.421 653.408 278.248 599.748 309.432 599.819 284.605 653.479 253.421"/>
        <polygon class="cls-10" points="591.194 284.605 591.123 309.432 537.113 278.249 537.183 253.422 591.194 284.605"/>
        <path class="cls-10" d="M599.819,284.6l-.07,24.827a9.5,9.5,0,0,1-8.625,0l.07-24.827A9.5,9.5,0,0,0,599.819,284.6Z"/>
        <path class="cls-11" d="M653.45,248.425c2.392,1.381,2.4,3.615.028,5L599.819,284.6a9.5,9.5,0,0,1-8.625,0l-54.011-31.183c-2.392-1.381-2.4-3.615-.028-5l53.66-31.184a9.5,9.5,0,0,1,8.625,0Z"/>
      </g>
    </g>
    <g>
      <path class="cls-3" d="M433.095,393.789l-54.011-31.184a9.5,9.5,0,0,0-8.625,0L316.8,393.789c-2.376,1.381-2.364,3.615.028,5l36.659,21.165-8.828,11.515,30.142-.481c.335.011.667,0,1-.016h0a8.415,8.415,0,0,0,3.662-1l53.66-31.184C435.5,397.4,435.486,395.17,433.095,393.789Z"/>
      <g class="cls-4">
        <path class="cls-12" d="M404.44,371.938l-.07,24.828a3.03,3.03,0,0,1-1.774,2.481l.07-24.827A3.03,3.03,0,0,0,404.44,371.938Z"/>
        <path class="cls-13" d="M284.5,396.732l.07-24.827a3.053,3.053,0,0,0,1.8,2.515l-.07,24.827A3.053,3.053,0,0,1,284.5,396.732Z"/>
        <polygon class="cls-12" points="402.666 374.419 402.595 399.247 348.935 430.43 349.006 405.603 402.666 374.419"/>
        <polygon class="cls-13" points="340.381 405.603 340.31 430.43 286.3 399.247 286.37 374.42 340.381 405.603"/>
        <path class="cls-13" d="M349.006,405.6l-.07,24.827a9.5,9.5,0,0,1-8.625,0l.07-24.827A9.5,9.5,0,0,0,349.006,405.6Z"/>
        <path class="cls-14" d="M402.637,369.423c2.392,1.381,2.4,3.615.028,5L349.006,405.6a9.5,9.5,0,0,1-8.625,0L286.37,374.42c-2.392-1.381-2.4-3.615-.028-5L340,338.24a9.5,9.5,0,0,1,8.625,0Z"/>
      </g>
    </g>
    <g>
      <path class="cls-3" d="M401.642,107.119,347.631,75.935a9.5,9.5,0,0,0-8.625,0l-53.66,31.184c-2.376,1.381-2.364,3.615.028,5l36.659,21.165L313.206,144.8l30.142-.481c.335.011.667,0,1-.016h0a8.415,8.415,0,0,0,3.662-1l53.66-31.184C404.047,110.733,404.034,108.5,401.642,107.119Z"/>
      <g class="cls-4">
        <path class="cls-15" d="M372.987,85.268l-.07,24.828a3.03,3.03,0,0,1-1.774,2.481l.07-24.827A3.03,3.03,0,0,0,372.987,85.268Z"/>
        <path class="cls-2" d="M253.045,110.062l.07-24.827a3.053,3.053,0,0,0,1.8,2.515l-.07,24.827A3.053,3.053,0,0,1,253.045,110.062Z"/>
        <polygon class="cls-15" points="371.213 87.749 371.143 112.576 317.483 143.76 317.553 118.933 371.213 87.749"/>
        <polygon class="cls-2" points="308.928 118.933 308.858 143.76 254.847 112.577 254.918 87.749 308.928 118.933"/>
        <path class="cls-2" d="M317.553,118.933l-.07,24.827a9.5,9.5,0,0,1-8.625,0l.07-24.827A9.5,9.5,0,0,0,317.553,118.933Z"/>
        <path class="cls-16" d="M371.185,82.753c2.392,1.381,2.4,3.615.028,5l-53.66,31.184a9.5,9.5,0,0,1-8.625,0L254.918,87.749c-2.392-1.381-2.4-3.615-.028-5l53.66-31.184a9.5,9.5,0,0,1,8.625,0Z"/>
      </g>
    </g>
    <g>
      <path class="cls-3" d="M401.642,107.119,347.631,75.935a9.5,9.5,0,0,0-8.625,0l-53.66,31.184c-2.376,1.381-2.364,3.615.028,5l36.659,21.165L313.206,144.8l30.142-.481c.335.011.667,0,1-.016h0a8.415,8.415,0,0,0,3.662-1l53.66-31.184C404.047,110.733,404.034,108.5,401.642,107.119Z"/>
      <g class="cls-4">
        <path class="cls-17" d="M372.987,85.268l-.07,24.828a3.03,3.03,0,0,1-1.774,2.481l.07-24.827A3.03,3.03,0,0,0,372.987,85.268Z"/>
        <path class="cls-18" d="M253.045,110.062l.07-24.827a3.053,3.053,0,0,0,1.8,2.515l-.07,24.827A3.053,3.053,0,0,1,253.045,110.062Z"/>
        <polygon class="cls-17" points="371.213 87.749 371.143 112.576 317.483 143.76 317.553 118.933 371.213 87.749"/>
        <polygon class="cls-18" points="308.928 118.933 308.858 143.76 254.847 112.577 254.918 87.749 308.928 118.933"/>
        <path class="cls-18" d="M317.553,118.933l-.07,24.827a9.5,9.5,0,0,1-8.625,0l.07-24.827A9.5,9.5,0,0,0,317.553,118.933Z"/>
        <path class="cls-19" d="M371.185,82.753c2.392,1.381,2.4,3.615.028,5l-53.66,31.184a9.5,9.5,0,0,1-8.625,0L254.918,87.749c-2.392-1.381-2.4-3.615-.028-5l53.66-31.184a9.5,9.5,0,0,1,8.625,0Z"/>
      </g>
    </g>
    <g>
      <path class="cls-3" d="M182.887,246.928l-54.011-31.184a9.5,9.5,0,0,0-8.625,0l-53.66,31.184c-2.376,1.381-2.364,3.615.028,5l36.659,21.165L94.451,284.6l30.142-.481c.335.011.667,0,1-.016h0a8.415,8.415,0,0,0,3.662-1l53.66-31.184C185.292,250.542,185.279,248.309,182.887,246.928Z"/>
      <g class="cls-4">
        <path class="cls-20" d="M154.233,225.077l-.07,24.828a3.03,3.03,0,0,1-1.774,2.481l.07-24.827A3.03,3.03,0,0,0,154.233,225.077Z"/>
        <path class="cls-21" d="M34.29,249.87l.07-24.827a3.053,3.053,0,0,0,1.8,2.515l-.07,24.827A3.053,3.053,0,0,1,34.29,249.87Z"/>
        <polygon class="cls-20" points="152.459 227.558 152.388 252.385 98.728 283.569 98.799 258.741 152.459 227.558"/>
        <polygon class="cls-21" points="90.174 258.741 90.103 283.569 36.092 252.386 36.163 227.558 90.174 258.741"/>
        <path class="cls-21" d="M98.8,258.741l-.07,24.827a9.5,9.5,0,0,1-8.625,0l.07-24.827A9.5,9.5,0,0,0,98.8,258.741Z"/>
        <path class="cls-22" d="M152.43,222.562c2.392,1.381,2.4,3.615.028,5L98.8,258.741a9.5,9.5,0,0,1-8.625,0L36.163,227.558c-2.392-1.381-2.4-3.615-.028-5l53.66-31.184a9.5,9.5,0,0,1,8.625,0Z"/>
      </g>
    </g>
    <g>
      <path class="cls-3" d="M571.544,145.711l-54.011-31.184a9.5,9.5,0,0,0-8.625,0l-53.66,31.184c-2.376,1.381-2.364,3.615.028,5l36.659,21.165-8.828,11.515,30.142-.481c.335.011.667,0,1-.016h0a8.415,8.415,0,0,0,3.662-1l53.66-31.184C573.948,149.325,573.936,147.091,571.544,145.711Z"/>
      <g class="cls-4">
        <path class="cls-15" d="M542.889,123.86l-.07,24.828a3.03,3.03,0,0,1-1.774,2.481l.07-24.827A3.03,3.03,0,0,0,542.889,123.86Z"/>
        <path class="cls-2" d="M422.947,148.653l.07-24.827a3.053,3.053,0,0,0,1.8,2.515l-.07,24.827A3.053,3.053,0,0,1,422.947,148.653Z"/>
        <polygon class="cls-15" points="541.115 126.341 541.045 151.168 487.385 182.352 487.455 157.524 541.115 126.341"/>
        <polygon class="cls-2" points="478.83 157.524 478.76 182.352 424.749 151.169 424.819 126.341 478.83 157.524"/>
        <path class="cls-2" d="M487.455,157.524l-.07,24.827a9.5,9.5,0,0,1-8.625,0l.07-24.827A9.5,9.5,0,0,0,487.455,157.524Z"/>
        <path class="cls-16" d="M541.087,121.345c2.392,1.381,2.4,3.615.028,5l-53.66,31.184a9.5,9.5,0,0,1-8.625,0l-54.011-31.183c-2.392-1.381-2.4-3.615-.028-5l53.66-31.184a9.5,9.5,0,0,1,8.625,0Z"/>
      </g>
    </g>
    <path class="cls-2" d="M513.655,336.118c-2.988,0-5.33-1.881-5.33-4.283s2.342-4.283,5.33-4.283,5.33,1.881,5.33,4.283S516.643,336.118,513.655,336.118Zm0-5.52c-1.394,0-2.284.733-2.284,1.237s.89,1.237,2.284,1.237,2.284-.733,2.284-1.237S515.049,330.6,513.655,330.6Z"/>
    <path class="cls-2" d="M495.319,364.778c-2.988,0-5.33-1.881-5.33-4.283s2.342-4.283,5.33-4.283,5.33,1.881,5.33,4.283S498.307,364.778,495.319,364.778Zm0-5.52c-1.394,0-2.284.733-2.284,1.237s.89,1.237,2.284,1.237S497.6,361,497.6,360.5,496.713,359.258,495.319,359.258Z"/>
    <path class="cls-2" d="M382.385,173.976c-2.988,0-5.33-1.881-5.33-4.283s2.342-4.283,5.33-4.283,5.33,1.881,5.33,4.283S385.373,173.976,382.385,173.976Zm0-5.52c-1.394,0-2.284.733-2.284,1.237s.89,1.237,2.284,1.237,2.284-.733,2.284-1.237S383.779,168.456,382.385,168.456Z"/>
    <path class="cls-2" d="M175.105,213.063c-2.989,0-5.33-1.881-5.33-4.283s2.341-4.283,5.33-4.283,5.33,1.881,5.33,4.283S178.094,213.063,175.105,213.063Zm0-5.52c-1.395,0-2.284.733-2.284,1.237s.89,1.237,2.284,1.237,2.284-.733,2.284-1.237S176.5,207.543,175.105,207.543Z"/>
    <polygon class="cls-2" points="216.546 236.627 183.554 236.627 167.309 227.386 168.815 224.739 184.36 233.581 216.546 233.581 216.546 236.627"/>
    <path class="cls-2" d="M166.539,228.524c-2.989,0-5.33-1.881-5.33-4.283s2.341-4.283,5.33-4.283,5.33,1.881,5.33,4.283S169.528,228.524,166.539,228.524Zm0-5.52c-1.395,0-2.284.733-2.284,1.237s.89,1.237,2.284,1.237,2.284-.733,2.284-1.237S167.934,223,166.539,223Z"/>
    <g>
      <path class="cls-3" d="M244.7,360.037l-54.011-31.184a9.5,9.5,0,0,0-8.625,0L128.4,360.037c-2.376,1.381-2.364,3.615.028,5L165.087,386.2l-8.828,11.515,30.142-.481c.335.011.667,0,1-.016h0a8.415,8.415,0,0,0,3.662-1l53.66-31.184C247.1,363.651,247.087,361.418,244.7,360.037Z"/>
      <g class="cls-4">
        <path class="cls-23" d="M216.04,338.186l-.07,24.828a3.03,3.03,0,0,1-1.774,2.481l.07-24.827A3.03,3.03,0,0,0,216.04,338.186Z"/>
        <path class="cls-24" d="M96.1,362.979l.07-24.827a3.053,3.053,0,0,0,1.8,2.515l-.07,24.827A3.053,3.053,0,0,1,96.1,362.979Z"/>
        <polygon class="cls-23" points="214.267 340.667 214.196 365.494 160.536 396.678 160.607 371.851 214.267 340.667"/>
        <polygon class="cls-24" points="151.982 371.851 151.911 396.678 97.9 365.495 97.971 340.667 151.982 371.851"/>
        <path class="cls-24" d="M160.607,371.851l-.07,24.827a9.5,9.5,0,0,1-8.625,0l.07-24.827A9.5,9.5,0,0,0,160.607,371.851Z"/>
        <path class="cls-25" d="M214.238,335.671c2.392,1.381,2.4,3.615.028,5l-53.66,31.184a9.5,9.5,0,0,1-8.625,0L97.971,340.667c-2.392-1.381-2.4-3.615-.028-5l53.66-31.184a9.5,9.5,0,0,1,8.625,0Z"/>
      </g>
    </g>
    <g>
      <path class="cls-19" d="M291.012,92.223l.055.032h0l-.055-.032m-.6-.371.092.06-.092-.06m6.561-1.6q.126.081.259.157-.133-.077-.259-.157m1.884.861a8.238,8.238,0,0,1-1.567-.671,8.227,8.227,0,0,0,1.567.671m13.488,1.825c-5.979,2.925-15.414,2.544-21.016-.534,5.6,3.078,15.038,3.458,21.016.534M297.135,82.593c-1.57.928-2.394,2.228-1.917,3.426h0c-.478-1.2.346-2.5,1.917-3.426m11.184.507a2.242,2.242,0,0,0,.321.233,2.242,2.242,0,0,1-.321-.233M308.2,83c.041.033.082.065.121.1-.04-.033-.08-.066-.121-.1m-1.053-.666a10.857,10.857,0,0,0-4.861-1.024,10.858,10.858,0,0,1,4.861,1.024m.34.183.113.067-.113-.067m2.173.781a.969.969,0,0,1-.871.1.969.969,0,0,0,.871-.1m22.3,8.087.058.035-.058-.035m.929.034a.8.8,0,0,1-.763.057.8.8,0,0,0,.763-.057m1.8-7.581c-.007.041.011.081.073.117h0c-.063-.036-.08-.076-.073-.117m-1.624-7.462a1.314,1.314,0,0,0-1.489.079,1.314,1.314,0,0,1,1.489-.079m.055.031h0l.105.064c1.222.775,2.534,1.505,3.8,2.252-1.27-.747-2.582-1.477-3.8-2.252l-.105-.064M297.1,88.516a11.471,11.471,0,0,0,10.606.007q11.879-6.893,23.716-13.8a1.467,1.467,0,0,1,1.755-.092q.081.047.167.1.992.629,2.036,1.23,1.093.631,2.228,1.231.088.047.168.093c.693.4.859.726-.125,1.115a1.9,1.9,0,0,0-.438.3c1.216.8,1.277.828.094,1.655a9.311,9.311,0,0,0-2.542,2.812l0,.009c0,.178,0,.36,0,.541l-.013.016.013-.016c.1.082.167.165.061.264a15.612,15.612,0,0,0,3.272,3.993c.557.475-.527.615-.881.9a6.912,6.912,0,0,1-2.55-4.277c-.025-.2-.155-.426.14-.613-.3.187-.165.414-.14.613a6.912,6.912,0,0,0,2.55,4.277l-.048.112c1.368,1.006,1.368,1.006-.176,1.9-1.262.726-2.536,1.439-3.749,2.186a1.138,1.138,0,0,1-1.447,0l-.12-.071a12.547,12.547,0,0,1-4.95-5.538c-.151-.3-.247-.48-.37-.551-.18-.1-.415.026-.958.341q-5.8,3.363-11.59,6.729c-5.991,3.481-15.231,3.7-21.765.534q-.594-.288-1.126-.6c-2.7-1.561-4.211-3.482-4.613-5.739-.037-.194-.251-.435.206-.579a.689.689,0,0,1-.135-.056c-.134-.077-.1-.17.056-.273l-.116-1.383c-.061-.147-.183-.3.064-.43l0,0a4.28,4.28,0,0,1,1.193-3.656c4.285-5.5,15.572-7.3,24.176-3.862a17.012,17.012,0,0,1,2.2,1.084q.3.174.6.354c.708.436.8.8-.138,1.145a4.626,4.626,0,0,0-.523.248c-5.987-3.352-13.956-3.408-19.528-1.536a18.884,18.884,0,0,0-3.53,1.568,18.884,18.884,0,0,1,3.53-1.568c5.572-1.872,13.541-1.816,19.528,1.536l.006.08a4.718,4.718,0,0,1,.447.2c1.095.66,1.1.709,0,1.348-1.55.9-3.113,1.788-4.627,2.7a.9.9,0,0,1-.989.1,1.356,1.356,0,0,1-.235-.177,5.4,5.4,0,0,0-.986-.72c-3.379-1.951-9.742-1.509-11.863,1.411a.558.558,0,0,1-.4.286l.018.01c.167.1.08.186-.029.276-.106-.1-.143-.19-.006-.282-.137.092-.1.187.006.282,0,.126,0,.248,0,.37l0,.185,0-.185c.076.064.135.125.007.186.62.485.925,1.083,1.66,1.535.067.041.135.082.2.122m68.4-7.451L320.453,55.058a15.55,15.55,0,0,0-14.112,0l-44.746,26c-3.882,2.256-3.861,5.915.046,8.171l45.045,26.007a15.548,15.548,0,0,0,14.106,0l44.746-26c3.888-2.259,3.867-5.919-.04-8.174"/>
      <path class="cls-26" d="M333.122,76.41l-.055-.031a1.314,1.314,0,0,0-1.489.079l-.057.033q-4.353,2.551-8.727,5.089t-8.746,5.079c-1.348.784-2.689,1.571-4.037,2.353q-1.213.7-2.435,1.4a11.645,11.645,0,0,1-8.182.852q-.275-.07-.536-.153a8.227,8.227,0,0,1-1.567-.671l-.058-.033h0q-.133-.077-.259-.157a3.533,3.533,0,0,1-1.919-3.029c.005-.121-.027-.251.137-.348l.03-.016,0-.185c-.007-.122,0-.244,0-.37-.106-.1-.143-.19-.006-.282h0c-.478-1.2.346-2.5,1.917-3.426a9.509,9.509,0,0,1,3.513-1.165,12.771,12.771,0,0,1,1.636-.116,10.857,10.857,0,0,1,4.861,1.024q.174.088.34.183h0l.113.067a5.757,5.757,0,0,1,.6.415c.041.033.082.065.121.1a2.242,2.242,0,0,0,.321.233,1.169,1.169,0,0,0,.146.072.969.969,0,0,0,.871-.1q.066-.034.138-.076l.1-.058c.4-.249.812-.493,1.226-.734.912-.531,1.848-1.048,2.769-1.574l-.006-.08c-5.987-3.352-13.956-3.408-19.528-1.536a18.884,18.884,0,0,0-3.53,1.568,10.006,10.006,0,0,0-3.932,3.883c-.129.246-.1.534-.436.739-.021.013-.044.025-.068.037.22.154.084.288-.075.422l.116,1.383c.1.1.194.209.1.335h0a11.5,11.5,0,0,0,3.3,3.834q.282.211.584.41l.092.06q.247.16.507.311l.055.032q.13.075.264.149c5.6,3.078,15.038,3.458,21.016.534,1.9-.929,3.689-1.924,5.442-2.943,2.157-1.255,4.254-2.546,6.416-3.8q.608-.352,1.224-.7c.083-.046.164-.092.248-.141.186-.108.385-.227.641-.376.517.883,1.022,1.683,1.437,2.493.78,1.508,2.445,2.7,4.145,3.876l.06.04.058.035a1.183,1.183,0,0,0,.108.055.8.8,0,0,0,.763-.057c.043-.023.088-.047.134-.074l.035-.021.509-.3c1.19-.689,2.4-1.366,3.6-2.05l.048-.112a6.912,6.912,0,0,1-2.55-4.277c-.025-.2-.155-.426.14-.613a.409.409,0,0,1-.042-.02h0c-.063-.036-.08-.076-.073-.117a.261.261,0,0,1,.06-.11l.013-.016c0-.182,0-.363,0-.541l0-.009,0,.006c-.444-1.69.6-3.118,2.272-4.445-1.27-.747-2.582-1.477-3.8-2.252l-.105-.064"/>
      <path class="cls-27" d="M337.167,88.981c-1.2.684-2.411,1.361-3.6,2.05l-.509.3-.035.021c-.046.027-.09.052-.134.074a.8.8,0,0,1-.763.057,1.183,1.183,0,0,1-.108-.055l-.058-.035-.06-.04c-1.7-1.177-3.365-2.367-4.145-3.876-.414-.81-.919-1.61-1.437-2.493-.256.149-.456.268-.641.376-.084.049-.166.1-.248.141q-.616.347-1.224.7c-2.162,1.252-4.259,2.544-6.416,3.8-1.752,1.019-3.544,2.014-5.442,2.943-5.979,2.925-15.414,2.545-21.016-.534q-.133-.073-.264-.149h0l-.055-.032q-.259-.151-.507-.311l-.092-.06q-.3-.2-.584-.41a11.5,11.5,0,0,1-3.3-3.834l-.019-.006c-.457.144-.243.385-.206.579.4,2.257,1.909,4.177,4.613,5.739q.532.307,1.126.6c6.534,3.167,15.774,2.947,21.765-.534q5.8-3.368,11.59-6.729c.543-.316.778-.445.958-.341.122.071.219.249.37.551A12.547,12.547,0,0,0,331.674,93l.12.071a1.138,1.138,0,0,0,1.447,0c1.213-.747,2.487-1.46,3.749-2.186,1.544-.9,1.544-.9.176-1.9"/>
      <path class="cls-28" d="M333.176,74.628a1.467,1.467,0,0,0-1.755.092Q319.6,81.645,307.7,88.523a11.471,11.471,0,0,1-10.606-.007c-.069-.04-.137-.08-.2-.122-.736-.452-1.041-1.051-1.66-1.535l-.012.006v-.007l-.03.016c-.164.1-.132.227-.137.348a3.533,3.533,0,0,0,1.919,3.029q.126.081.259.157h0l.058.033a8.238,8.238,0,0,0,1.567.671q.261.083.536.153a11.645,11.645,0,0,0,8.182-.852q1.224-.7,2.435-1.4c1.347-.782,2.688-1.57,4.037-2.353q4.371-2.54,8.746-5.079t8.727-5.089l.057-.033a1.314,1.314,0,0,1,1.489-.079l.055.031h0l.105.064c1.222.775,2.534,1.505,3.8,2.252l.181-.028a1.9,1.9,0,0,1,.438-.3c.984-.389.818-.715.125-1.115q-.079-.046-.168-.093-1.133-.6-2.228-1.231-1.042-.6-2.036-1.23-.086-.056-.167-.1"/>
      <path class="cls-29" d="M313.947,79.031a17.012,17.012,0,0,0-2.2-1.084c-8.6-3.436-19.89-1.641-24.176,3.862a4.28,4.28,0,0,0-1.193,3.656l.007,0c.024-.012.047-.024.068-.037.338-.2.307-.493.436-.739a10.006,10.006,0,0,1,3.932-3.883,18.884,18.884,0,0,1,3.53-1.568c5.572-1.872,13.541-1.816,19.528,1.536a4.626,4.626,0,0,1,.523-.248c.938-.349.846-.709.138-1.145q-.294-.18-.6-.354"/>
      <path class="cls-27" d="M314.336,81.061a4.718,4.718,0,0,0-.447-.2c-.921.526-1.857,1.043-2.769,1.574-.415.241-.825.485-1.226.734l-.1.058q-.071.041-.138.076a.969.969,0,0,1-.871.1,1.169,1.169,0,0,1-.146-.072,2.242,2.242,0,0,1-.321-.233c-.04-.033-.08-.066-.121-.1a5.757,5.757,0,0,0-.6-.415l-.113-.067h0q-.165-.1-.34-.183a10.858,10.858,0,0,0-4.861-1.024,12.771,12.771,0,0,0-1.636.116,9.509,9.509,0,0,0-3.513,1.165c-1.57.928-2.394,2.228-1.917,3.426h0l.01-.007.006,0a.558.558,0,0,0,.4-.286c2.121-2.92,8.483-3.362,11.863-1.411a5.4,5.4,0,0,1,.986.72,1.356,1.356,0,0,0,.235.177.9.9,0,0,0,.989-.1c1.514-.915,3.076-1.8,4.627-2.7,1.1-.639,1.1-.688,0-1.348"/>
      <path class="cls-27" d="M337.212,78.7l-.181.028c-1.668,1.327-2.715,2.755-2.272,4.445l0-.006a9.311,9.311,0,0,1,2.542-2.812c1.183-.828,1.123-.856-.094-1.655"/>
      <path class="cls-29" d="M334.823,83.979l-.005.005-.013-.006c-.3.187-.165.414-.14.613a6.912,6.912,0,0,0,2.55,4.277c.354-.283,1.438-.422.881-.9a15.612,15.612,0,0,1-3.272-3.993"/>
      <path class="cls-29" d="M286.378,85.461c-.246.129-.125.283-.064.43.159-.134.294-.268.075-.422l-.007,0,0,0"/>
      <path class="cls-29" d="M334.763,83.715l-.013.016a.261.261,0,0,0-.06.11c-.007.041.011.081.073.117h0a.409.409,0,0,0,.042.02l.013.006.005-.005c.106-.1.034-.181-.061-.264"/>
      <path class="cls-27" d="M295.255,86.026l-.018-.01-.006,0-.01.007h0c-.137.092-.1.187.006.282.109-.09.2-.18.029-.276"/>
      <path class="cls-27" d="M286.43,87.274c-.159.1-.19.2-.056.273a.689.689,0,0,0,.135.056l.019.006h0c.1-.126,0-.23-.1-.335"/>
      <path class="cls-28" d="M295.228,86.673l0,.185v.007l.012-.006c.128-.061.069-.122-.007-.186"/>
    </g>
    <g>
      <path class="cls-5" d="M485.357,116.747c1.85,3.853,3.7,7.68,5.561,11.564l-19.983-3.183,14.422-8.381m13.375-3.768c-.336-.194-.674-.386-1.018-.576-2.179-1.2-4.333-2.421-6.542-3.6-3.044-1.636-6.092-3.264-9.384-4.733a14.122,14.122,0,0,0-3.993-1.172,14.493,14.493,0,0,0-7.444.944c-2.083.834-4.041,1.763-5.944,2.73-1.923.978-3.816,1.98-5.608,3.039s-3.546,2.118-5.219,3.23a43.128,43.128,0,0,0-5.235,3.87c-2.062,1.887-2.226,3.807-.107,5.726a35.857,35.857,0,0,0,4.508,3.247c4.23,2.734,8.61,5.385,13.1,7.975q1.489.859,2.993,1.71c4.2,2.375,8.452,4.719,12.929,6.924a35.022,35.022,0,0,0,3.971,1.769A13.743,13.743,0,0,0,495.3,144a71.038,71.038,0,0,0,8.577-4.012c2.578-1.354,5.007-2.788,7.345-4.274a63.73,63.73,0,0,0,6.412-4.537c2.326-1.925,2.6-4.228.084-6.263a58.41,58.41,0,0,0-5.092-3.556c-4-2.574-8.17-5.051-12.384-7.507-.5-.291-1-.585-1.506-.876"/>
      <path class="cls-30" d="M485.357,116.747l-14.422,8.381,19.983,3.183c-1.865-3.885-3.711-7.712-5.561-11.564"/>
    </g>
    <g>
      <path class="cls-11" d="M583.6,261.208a13.288,13.288,0,0,1-3-1.139,13.287,13.287,0,0,0,3,1.139m-12.56-14.326a.292.292,0,0,0-.13.322,1.431,1.431,0,0,0,.128.358,6.653,6.653,0,0,0,1.341,1.681,4.707,4.707,0,0,1,.634.747c.206.32.123.6-.229.872-.143.111-.281.233-.424.344-.269.219-.237.431,0,.653a6.358,6.358,0,0,0,.8.566,19.151,19.151,0,0,1,1.794,1.2,5.666,5.666,0,0,1,1.8,2.105c.146.333.3.67.443,1.011a6.317,6.317,0,0,0,2.757,2.963l.2.116h0l-.2-.116a6.317,6.317,0,0,1-2.757-2.963c-.146-.34-.3-.677-.443-1.011a5.666,5.666,0,0,0-1.8-2.105,19.151,19.151,0,0,0-1.794-1.2,6.358,6.358,0,0,1-.8-.566c-.241-.222-.272-.434,0-.653.143-.111.281-.233.424-.344.352-.267.435-.552.229-.872a4.707,4.707,0,0,0-.634-.747,6.653,6.653,0,0,1-1.341-1.681,1.431,1.431,0,0,1-.128-.358.292.292,0,0,1,.13-.322m36.514,7.186.033.02-.033-.02m-17.617-10.185a1.093,1.093,0,0,0,.142.1h0a1.093,1.093,0,0,1-.142-.1m.785.095a.759.759,0,0,1-.286.091.759.759,0,0,0,.286-.091m20.54,11.289.052.031-.052-.031M588,241.831q-.066-.038-.137-.074.071.036.137.074m0,0h0q.051.029.1.06-.048-.031-.1-.06M609.563,241a15.076,15.076,0,0,0-1.691-.6,15.076,15.076,0,0,1,1.691.6m1.752.891q.265.158.519.324-.254-.166-.519-.324m-.178-.1.178.1-.178-.1m-20.237-.446c.062.036.112.01.251-.071.705-.41,1.417-.816,2.176-1.195a18.761,18.761,0,0,1,4.824-1.688,22.932,22.932,0,0,1,7.705-.163,21.085,21.085,0,0,1,5.929,1.719c.487.233.95.472,1.323.674a9.855,9.855,0,0,1,4.33,4.28,4.821,4.821,0,0,1-.756,5.2,9.936,9.936,0,0,1-1.927,1.754,27.9,27.9,0,0,1-2.5,1.581c-.156.09-.213.114-.143.155a1.613,1.613,0,0,0,.18.075,6.768,6.768,0,0,1,.98.455,3.431,3.431,0,0,1,.97.8c.755.914.449,1.99-.734,2.734a6.4,6.4,0,0,1-3.2.841,12.611,12.611,0,0,1-1.992-.1c-.708-.083-1.422-.17-2.124-.257q-.189-.026-.36-.042c-.42-.035-.63.024-.814.243a1.866,1.866,0,0,0-.2.309,4.575,4.575,0,0,0-.339,3.633,7.6,7.6,0,0,0,.8,1.761,2.75,2.75,0,0,1,.3.636c.318,1.049-.745,1.931-2.561,2.116a8.394,8.394,0,0,1-2.249-.087,21.227,21.227,0,0,1-3.009-.733l-.15-.045a2.079,2.079,0,0,0-1.386-.038,5.96,5.96,0,0,1-3.965-.254c-.505-.208-.95-.452-1.4-.691a20.276,20.276,0,0,0-1.858-.886,11.687,11.687,0,0,0-2.769-.705c-1.176-.153-2.341-.32-3.464-.58A16.629,16.629,0,0,1,578.206,261q-.295-.17-.577-.351a7.854,7.854,0,0,1-3.186-3.55c-.109-.264-.237-.525-.34-.792a4.39,4.39,0,0,0-1.642-1.883c-.47-.347-.987-.667-1.5-.987a6.033,6.033,0,0,1-1.126-.865,1.331,1.331,0,0,1-.149-1.935.613.613,0,0,0-.089-.945,6.1,6.1,0,0,1-1.3-1.775,1.682,1.682,0,0,1-.151-1.244c.288-1.066,1.814-1.7,3.644-1.518.558.059,1.092.174,1.639.274a26.592,26.592,0,0,0,6.059.452,18.849,18.849,0,0,0,2.937-.347c.713-.142.832-.26.68-.695-.158-.417-.317-.834-.463-1.251a2.42,2.42,0,0,1-.1-1.615c.383-1.178,2.087-2.049,4.1-2.1a6.447,6.447,0,0,1,2.984.608q.218.1.415.216a4.219,4.219,0,0,1,.759.551.6.6,0,0,0,.1.088m56.456,5.428L602.551,220.9a15.467,15.467,0,0,0-14.033,0L544,246.777c-3.862,2.244-3.841,5.884.046,8.128l44.805,25.868a15.469,15.469,0,0,0,14.039,0l44.52-25.872c3.861-2.244,3.841-5.884-.052-8.132"/>
      <path class="cls-19" d="M611.137,241.791l.178.1q.265.158.519.324a7.245,7.245,0,0,1,2.9,3.144,3.787,3.787,0,0,1-.649,4.1,8.865,8.865,0,0,1-1.874,1.612c-.554.374-1.133.732-1.732,1.078-.77.445-1.572.87-2.392,1.284-.162.082-.324.164-.475.253l-.064.039c-.191.118-.185.219,0,.34l.033.02a1.93,1.93,0,0,0,.489.185c.577.153,1.165.3,1.73.458a6.555,6.555,0,0,1,1.456.535h0l.052.031a1.48,1.48,0,0,1,.271.2c.391.372.288.805-.2,1.081a1.975,1.975,0,0,1-.5.19,4.011,4.011,0,0,1-1.007.1,13.048,13.048,0,0,1-1.386-.115c-1.044-.125-2.071-.26-3.115-.365-.282-.031-.57-.059-.864-.063a1.849,1.849,0,0,0-.924.2q-.055.03-.106.065a3.515,3.515,0,0,0-.829.789,5.43,5.43,0,0,0-1.194,3.071,6.978,6.978,0,0,0,1.072,3.977,1.624,1.624,0,0,1,.2.406.237.237,0,0,1-.1.277.886.886,0,0,1-.461.087,4.381,4.381,0,0,1-.72-.076,16.9,16.9,0,0,1-2.709-.7c-.391-.129-.769-.264-1.183-.365-.108-.028-.222-.052-.336-.076a2.367,2.367,0,0,0-1.481.136l-.562.243a1.516,1.516,0,0,1-1.175,0,8.03,8.03,0,0,1-1.058-.507,20.742,20.742,0,0,0-2.814-1.306,14.485,14.485,0,0,0-2.907-.723c-1-.149-2.017-.271-3-.469q-.148-.03-.294-.063-.174-.039-.344-.082a13.287,13.287,0,0,1-3-1.139q-.228-.12-.447-.247h0l-.2-.116a6.317,6.317,0,0,1-2.757-2.963c-.146-.34-.3-.677-.443-1.011a5.666,5.666,0,0,0-1.8-2.105,19.151,19.151,0,0,0-1.794-1.2,6.358,6.358,0,0,1-.8-.566c-.241-.222-.272-.434,0-.653.143-.111.281-.233.424-.344.352-.267.435-.552.229-.872a4.707,4.707,0,0,0-.634-.747,6.653,6.653,0,0,1-1.341-1.681,1.431,1.431,0,0,1-.128-.358.292.292,0,0,1,.13-.322,1.019,1.019,0,0,1,.617-.049c.15.017.3.049.444.076a32.109,32.109,0,0,0,6.894.636,21.991,21.991,0,0,0,5.735-.8,6.408,6.408,0,0,0,.982-.361q.069-.031.129-.065a.6.6,0,0,0,.377-.592,2.213,2.213,0,0,0-.147-.611c-.213-.608-.439-1.216-.658-1.82a2.218,2.218,0,0,1-.141-.615,1.11,1.11,0,0,1,.087-.5.928.928,0,0,1,.394-.4,2.292,2.292,0,0,1,2.111-.034q.071.036.137.074h0q.051.029.1.06a3.005,3.005,0,0,1,.564.48,13.26,13.26,0,0,1,.918,1.119,2.458,2.458,0,0,0,.356.392,1.093,1.093,0,0,0,.142.1.593.593,0,0,0,.358.087.759.759,0,0,0,.286-.091l.051-.028.052-.032,1.649-1.063.406-.257q.332-.2.671-.4c.679-.392,1.384-.769,2.133-1.121a16.948,16.948,0,0,1,11.551-.851q.325.081.636.172a15.076,15.076,0,0,1,1.691.6,14.6,14.6,0,0,1,1.574.787h0m1.971-1.17c-.373-.2-.836-.441-1.323-.674a21.085,21.085,0,0,0-5.929-1.719,22.932,22.932,0,0,0-7.705.163,18.761,18.761,0,0,0-4.824,1.688c-.76.379-1.471.785-2.176,1.195-.14.081-.189.107-.251.071a.6.6,0,0,1-.1-.088,4.219,4.219,0,0,0-.759-.551q-.2-.114-.415-.216a6.447,6.447,0,0,0-2.984-.608c-2.015.049-3.719.921-4.1,2.1a2.42,2.42,0,0,0,.1,1.615c.146.417.3.834.463,1.251.152.434.033.552-.68.695a18.849,18.849,0,0,1-2.937.347,26.592,26.592,0,0,1-6.059-.452c-.546-.1-1.081-.215-1.639-.274-1.83-.184-3.356.452-3.644,1.518a1.682,1.682,0,0,0,.151,1.244,6.1,6.1,0,0,0,1.3,1.775.613.613,0,0,1,.089.945,1.331,1.331,0,0,0,.149,1.935,6.033,6.033,0,0,0,1.126.865c.517.32,1.035.639,1.5.987a4.39,4.39,0,0,1,1.642,1.883c.1.267.231.528.34.792a7.854,7.854,0,0,0,3.186,3.55q.282.181.577.351a16.629,16.629,0,0,0,4.556,1.768c1.123.26,2.287.427,3.464.58a11.687,11.687,0,0,1,2.769.705,20.276,20.276,0,0,1,1.858.886c.451.24.9.483,1.4.691a5.96,5.96,0,0,0,3.965.254,2.079,2.079,0,0,1,1.386.038l.15.045a21.227,21.227,0,0,0,3.009.733,8.394,8.394,0,0,0,2.249.087c1.816-.184,2.879-1.066,2.561-2.116a2.75,2.75,0,0,0-.3-.636,7.6,7.6,0,0,1-.8-1.761,4.575,4.575,0,0,1,.339-3.633,1.866,1.866,0,0,1,.2-.309c.185-.219.394-.278.814-.243q.171.016.36.042c.7.087,1.416.174,2.124.257a12.611,12.611,0,0,0,1.992.1,6.4,6.4,0,0,0,3.2-.841c1.183-.743,1.489-1.82.734-2.734a3.431,3.431,0,0,0-.97-.8,6.768,6.768,0,0,0-.98-.455,1.613,1.613,0,0,1-.18-.075c-.07-.041-.013-.064.143-.155a27.9,27.9,0,0,0,2.5-1.581,9.936,9.936,0,0,0,1.927-1.754,4.821,4.821,0,0,0,.756-5.2,9.855,9.855,0,0,0-4.33-4.28"/>
      <path class="cls-8" d="M611.137,241.791a14.6,14.6,0,0,0-1.574-.787,15.076,15.076,0,0,0-1.691-.6q-.312-.091-.636-.172a16.948,16.948,0,0,0-11.551.851c-.749.352-1.454.729-2.133,1.121q-.34.2-.671.4l-.406.257-1.649,1.063-.052.032-.051.028a.759.759,0,0,1-.286.091.593.593,0,0,1-.358-.087h0a1.093,1.093,0,0,1-.142-.1,2.458,2.458,0,0,1-.356-.392,13.26,13.26,0,0,0-.918-1.119,3.005,3.005,0,0,0-.564-.48q-.048-.031-.1-.06h0q-.066-.038-.137-.074a2.292,2.292,0,0,0-2.111.034.928.928,0,0,0-.394.4,1.11,1.11,0,0,0-.087.5,2.218,2.218,0,0,0,.141.615c.219.6.444,1.212.658,1.82a2.213,2.213,0,0,1,.147.611.6.6,0,0,1-.377.592q-.06.034-.129.065a6.408,6.408,0,0,1-.982.361,21.991,21.991,0,0,1-5.735.8,32.109,32.109,0,0,1-6.894-.636c-.144-.028-.294-.059-.444-.076a1.019,1.019,0,0,0-.617.049.292.292,0,0,0-.13.322,1.431,1.431,0,0,0,.128.358,6.653,6.653,0,0,0,1.341,1.681,4.707,4.707,0,0,1,.634.747c.206.32.123.6-.229.872-.143.111-.281.233-.424.344-.269.219-.237.431,0,.653a6.358,6.358,0,0,0,.8.566,19.151,19.151,0,0,1,1.794,1.2,5.666,5.666,0,0,1,1.8,2.105c.146.333.3.67.443,1.011a6.317,6.317,0,0,0,2.757,2.963l.2.116h0q.22.127.447.247a13.288,13.288,0,0,0,3,1.139q.17.042.344.082.145.033.294.063c.978.2,1.993.32,3,.469a14.485,14.485,0,0,1,2.907.723,20.742,20.742,0,0,1,2.814,1.306,8.03,8.03,0,0,0,1.058.507,1.516,1.516,0,0,0,1.175,0l.562-.243a2.367,2.367,0,0,1,1.481-.136c.114.024.228.049.336.076.414.1.793.236,1.183.365a16.9,16.9,0,0,0,2.709.7,4.381,4.381,0,0,0,.72.076.886.886,0,0,0,.461-.087.237.237,0,0,0,.1-.277,1.624,1.624,0,0,0-.2-.406,6.978,6.978,0,0,1-1.072-3.977,5.43,5.43,0,0,1,1.194-3.071,3.515,3.515,0,0,1,.829-.789q.051-.035.106-.065a1.849,1.849,0,0,1,.924-.2c.294,0,.582.031.864.063,1.044.1,2.07.24,3.115.365a13.048,13.048,0,0,0,1.386.115,4.011,4.011,0,0,0,1.007-.1,1.975,1.975,0,0,0,.5-.19c.489-.276.592-.709.2-1.081a1.48,1.48,0,0,0-.271-.2l-.052-.031h0a6.555,6.555,0,0,0-1.456-.535c-.565-.16-1.153-.306-1.73-.458a1.93,1.93,0,0,1-.489-.185l-.033-.02c-.187-.122-.193-.222,0-.34l.064-.039c.15-.089.312-.171.475-.253.821-.414,1.622-.839,2.392-1.284.6-.346,1.178-.7,1.732-1.078a8.865,8.865,0,0,0,1.874-1.612,3.787,3.787,0,0,0,.649-4.1,7.245,7.245,0,0,0-2.9-3.144q-.254-.166-.519-.324l-.178-.1h0"/>
    </g>
    <g>
      <path class="cls-22" d="M99.929,221.454c.228-.175.414-.353.63-.513a12.242,12.242,0,0,1,4.966-2.129,17.683,17.683,0,0,1,10.34.771,13.129,13.129,0,0,1,1.635.789c2.066,1.193,3.109,2.715,3.168,4.517a.3.3,0,0,0,.166.26.91.91,0,0,0,.143.064,32.615,32.615,0,0,0,6.337,1.627l.205.042v.035a5.9,5.9,0,0,1-.861.234,18.839,18.839,0,0,1-6.429.325l-.265-.028h-.024a.468.468,0,0,0,.094.065,19.539,19.539,0,0,0,2.516.982c.924.311,1.9.572,2.921.817a1.252,1.252,0,0,1-.331.059,38.154,38.154,0,0,1-7.171.07,1.04,1.04,0,0,0-.7.136,36.613,36.613,0,0,1-9.837,4.105,53.072,53.072,0,0,1-16.3,1.749,46.116,46.116,0,0,1-13.78-2.688,34.671,34.671,0,0,1-4.67-2.077c-.449-.241-.892-.485-1.325-.734-.4-.231-.791-.467-1.166-.711a22.773,22.773,0,0,1-3.8-3.034,15.194,15.194,0,0,1-3.439-5.02.288.288,0,0,1-.049-.2q.818.573,1.7,1.081a30.831,30.831,0,0,0,13.2,3.74c-2.026-1.3-3.071-2.817-3.063-4.566a4.34,4.34,0,0,1,1.225-2.869,9.269,9.269,0,0,0,1.328.925,12.018,12.018,0,0,0,2.292,1.005,4.567,4.567,0,0,1-1.736-4.245c.281-1.529,1.382-2.828,3.28-3.938a5.838,5.838,0,0,0,1.032,1.4,7.2,7.2,0,0,0,1.525,1.187c-.554-2.039.231-3.868,2.531-5.442a13.423,13.423,0,0,1,5.6-2.028,11.309,11.309,0,0,0,1.447,7.607,19.606,19.606,0,0,0,6.673,6.622m46.282-.461-45.033-26a15.544,15.544,0,0,0-14.1,0l-44.74,26c-3.881,2.255-3.86,5.914.046,8.169l45.033,26a15.544,15.544,0,0,0,14.1,0l44.74-26c3.88-2.255,3.86-5.913-.046-8.169"/>
      <path class="cls-8" d="M117.5,220.372a13.129,13.129,0,0,0-1.635-.789,17.683,17.683,0,0,0-10.34-.771,12.242,12.242,0,0,0-4.966,2.129c-.216.161-.4.339-.63.513a19.606,19.606,0,0,1-6.673-6.622,11.309,11.309,0,0,1-1.447-7.607,13.423,13.423,0,0,0-5.6,2.028c-2.3,1.574-3.085,3.4-2.531,5.442a7.2,7.2,0,0,1-1.525-1.187,5.838,5.838,0,0,1-1.032-1.4c-1.9,1.11-3,2.409-3.28,3.938a4.567,4.567,0,0,0,1.736,4.245,12.018,12.018,0,0,1-2.292-1.005,9.269,9.269,0,0,1-1.328-.925,4.34,4.34,0,0,0-1.225,2.869c-.008,1.749,1.037,3.264,3.063,4.566a30.831,30.831,0,0,1-13.2-3.74q-.879-.507-1.7-1.081a.288.288,0,0,0,.049.2,15.194,15.194,0,0,0,3.439,5.02,22.773,22.773,0,0,0,3.8,3.034c.375.243.766.48,1.166.711.432.25.876.493,1.325.734a34.671,34.671,0,0,0,4.67,2.077,46.116,46.116,0,0,0,13.78,2.688,53.072,53.072,0,0,0,16.3-1.749,36.613,36.613,0,0,0,9.837-4.105,1.04,1.04,0,0,1,.7-.136,38.154,38.154,0,0,0,7.171-.07,1.252,1.252,0,0,0,.331-.059c-1.026-.244-2-.506-2.921-.817a19.539,19.539,0,0,1-2.516-.982.468.468,0,0,1-.094-.065h.024l.265.028a18.839,18.839,0,0,0,6.429-.325,5.9,5.9,0,0,0,.861-.234v-.035l-.205-.042a32.615,32.615,0,0,1-6.337-1.627.91.91,0,0,1-.143-.064.3.3,0,0,1-.166-.26c-.059-1.8-1.1-3.324-3.168-4.517"/>
    </g>
    <g>
      <path class="cls-25" d="M129.52,340.992c-1.507-.87-3.021-1.744-4.522-2.618-1.067-.616-1.076-1.135-.016-1.751l21.072-12.246a2.731,2.731,0,0,1,3.071,0l4.618,2.666c1.037.6,1.04,1.121,0,1.723l-10.578,6.147-10.446,6.071a2.728,2.728,0,0,1-3.2,0m34.009-5.041a28.836,28.836,0,0,1,3.732.066,15.72,15.72,0,0,1,4.7,1.277,21.468,21.468,0,0,1,1.995,1.007,11.81,11.81,0,0,1,2.589,1.952,3.774,3.774,0,0,1,.307,5.409,17.5,17.5,0,0,1-5.193,4.17c-3.977,2.353-8,4.671-12.01,7a2.469,2.469,0,0,1-2.656.014q-1.3-.741-2.6-1.488t-2.577-1.5c-.892-.515-.877-1.027.009-1.542q5.652-3.284,11.3-6.569a9.162,9.162,0,0,0,2.483-2c1.035-1.276.282-2.526-1.147-3.352a7.764,7.764,0,0,0-4.286-.951,12.818,12.818,0,0,0-5.412,1.6c-3.708,2.127-7.368,4.275-11.045,6.412a2.606,2.606,0,0,1-2.993.007q-2.387-1.378-4.757-2.753c-.971-.56-.974-1.062,0-1.626L157.286,330.7a2.569,2.569,0,0,1,2.812.014l4.9,2.826c.874.512.871,1.037.009,1.552l-1.474.856M153.449,324.5c-2.716-1.568-2.743-4.095-.052-5.672a10.81,10.81,0,0,1,9.873-.017c2.719,1.57,2.74,4.128.044,5.7a10.85,10.85,0,0,1-9.831.007l-.034-.019m54.239,9.609-44.9-25.926a15.5,15.5,0,0,0-14.062,0l-44.613,25.926c-3.87,2.249-3.849,5.9.046,8.145l44.9,25.926a15.5,15.5,0,0,0,14.062,0l44.613-25.926c3.869-2.249,3.849-5.9-.046-8.145"/>
      <path class="cls-8" d="M173.957,338.3a21.468,21.468,0,0,0-1.995-1.007,15.72,15.72,0,0,0-4.7-1.277,28.836,28.836,0,0,0-3.732-.066L165,335.1c.862-.515.866-1.041-.009-1.552l-4.9-2.826a2.569,2.569,0,0,0-2.812-.014l-21.312,12.385c-.97.564-.968,1.065,0,1.626q2.369,1.378,4.757,2.753a2.606,2.606,0,0,0,2.993-.007c3.678-2.137,7.338-4.285,11.045-6.412a12.818,12.818,0,0,1,5.412-1.6,7.764,7.764,0,0,1,4.286.951c1.429.825,2.182,2.076,1.147,3.352a9.162,9.162,0,0,1-2.483,2q-5.643,3.29-11.3,6.569c-.887.515-.9,1.027-.009,1.542q1.284.752,2.577,1.5t2.6,1.488a2.469,2.469,0,0,0,2.656-.014c4.007-2.329,8.033-4.647,12.01-7a17.5,17.5,0,0,0,5.193-4.17,3.774,3.774,0,0,0-.307-5.409,11.81,11.81,0,0,0-2.589-1.952"/>
      <path class="cls-8" d="M153.743,327.047l-4.618-2.666a2.731,2.731,0,0,0-3.071,0l-21.072,12.246c-1.06.616-1.051,1.135.016,1.751,1.5.874,3.015,1.747,4.522,2.618a2.728,2.728,0,0,0,3.2,0l10.446-6.071,10.578-6.147c1.036-.6,1.033-1.124,0-1.723"/>
      <path class="cls-8" d="M163.27,318.815a10.81,10.81,0,0,0-9.873.017c-2.69,1.577-2.663,4.1.052,5.672l.034.019a10.85,10.85,0,0,0,9.831-.007c2.7-1.573,2.675-4.132-.044-5.7"/>
    </g>
    <path class="cls-31" d="M328.494,391.652l.06.034-.06-.034m45.914-27.607.06.034-.06-.034m-8.539-5.03.765.442q1.148.664,2.292,1.329,1.525.888,3.044,1.782c.82.482,1.67.956,2.438,1.476l.06.034a9.721,9.721,0,0,1,.969.628.535.535,0,0,0,.092.064l.109.061c.067.03.134.069.194.1.373.25.775.491,1.134.74a17.126,17.126,0,0,1,2.366,1.933,6.013,6.013,0,0,1,1.5,2.238,4.382,4.382,0,0,1-1.007,4.558l-.059.043a8.727,8.727,0,0,1-1.412,1.382,30.16,30.16,0,0,1-3.4,2.329c-.859.542-1.74,1.072-2.621,1.61-.082.047-.178.095-.259.142-.689.409-1.37.822-2.066,1.227-2.34,1.36-4.666,2.72-7.006,4.08-.9.525-1.822,1.042-2.726,1.558l-.33.2c-.774.454-1.576.89-2.374,1.324-1.1.607-2.207,1.214-3.378,1.782a23.724,23.724,0,0,1-2.928,1.2c-.712.232-1.454.439-2.226.611a15.1,15.1,0,0,1-1.989.336,16.239,16.239,0,0,1-2.385.125,18.865,18.865,0,0,1-3.4-.3,19.648,19.648,0,0,1-2.85-.727,23.376,23.376,0,0,1-2.688-1.063c-.671-.31-1.319-.633-1.938-.981-.745-.37-1.461-.766-2.184-1.158-1.953-1.067-3.831-2.169-5.747-3.258l-.171-.116-.216-.108q-1.618-.934-3.239-1.866-.809-.467-1.614-.936c-2.028-1.188-4.085-2.359-6.039-3.59a33.544,33.544,0,0,1-3.73-2.548,7.3,7.3,0,0,1-2.471-3.288,3.8,3.8,0,0,1-.121-1.683,4.183,4.183,0,0,1,.82-2.109,10.31,10.31,0,0,1,2.172-2.212,30.166,30.166,0,0,1,2.961-1.971,12.941,12.941,0,0,1,1.125-.714q1.755-1.085,3.577-2.139l.208-.112c.777-.46,1.563-.925,2.348-1.382.541-.314,1.089-.624,1.63-.938q.639-.384,1.292-.764t1.315-.751c.667-.387,1.333-.766,2-1.153q.508-.305,1.025-.6.861-.5,1.738-.984c.474-.258.918-.534,1.415-.77,1.059-.6,2.148-1.179,3.274-1.73a23.755,23.755,0,0,1,4-1.532c.319-.082.646-.177.979-.241a17.541,17.541,0,0,1,3.512-.469,20.14,20.14,0,0,1,7.98,1.261,23.805,23.805,0,0,1,2.972,1.321c.387.207.768.418,1.163.611.8.4,1.572.831,2.348,1.253l.186.108c.782.409,1.513.839,2.266,1.265l2.651,1.521,2.206,1.27.441.254h0m4.286-2.914-.492-.284q-.984-.567-1.972-1.134-1.728-.991-3.467-1.976c-.872-.495-1.759-.981-2.631-1.468l-.171-.082c-.686-.362-1.364-.727-2.057-1.085a34.718,34.718,0,0,0-5.266-2.251,31.067,31.067,0,0,0-13.152-1.313c-.6.065-1.21.125-1.782.241-.727.146-1.462.271-2.152.473l-.1.034a30.357,30.357,0,0,0-3.924,1.287.648.648,0,0,1-.326.1q-.189.11-.4.207c-.489.215-.979.431-1.445.659-1.993.994-3.89,2.044-5.771,3.1-.9.516-1.815,1.037-2.726,1.549-.126.086-.259.168-.4.247s-.281.155-.425.231l-.126.082-5.014,2.914-.148.077q-1.344.794-2.7,1.584c-.955.581-1.933,1.158-2.888,1.739-.674.409-1.333.826-2,1.24a34.659,34.659,0,0,0-3.219,2.294,13.639,13.639,0,0,0-1.368,1.287,12.158,12.158,0,0,0-1.931,2.789c-.08.237-.161.465-.234.7a6.864,6.864,0,0,0-.24,2.324,6.5,6.5,0,0,0,.548,2.264,6.915,6.915,0,0,0,.413.736c.18.215.27.448.427.667a12.606,12.606,0,0,0,1.339,1.571,16.2,16.2,0,0,0,2.128,1.786c.552.379,1.045.783,1.634,1.14.477.293.954.577,1.431.869,1.8,1.132,3.676,2.225,5.547,3.314.6.344,1.193.7,1.782,1.046l.186.108c2.154,1.235,4.294,2.471,6.448,3.706.716.413,1.446.826,2.162,1.24.939.508,1.878,1.016,2.817,1.532l.06.034c.559.288,1.125.572,1.669.878.246.142.529.271.79.4.343.181.738.323,1.1.495a31.391,31.391,0,0,0,4.155,1.515c.558.159,1.131.3,1.7.448,1,.215,1.986.4,3.02.525a30.777,30.777,0,0,0,3.94.215l.089.009a31.5,31.5,0,0,0,4.523-.349,30.2,30.2,0,0,0,6.677-1.842c1.031-.418,2.009-.865,2.95-1.343.318-.168.637-.344.985-.495l.1-.056c.058-.037.118-.074.179-.109a2.669,2.669,0,0,1,.332-.162l.17-.1c1.445-.77,2.859-1.558,4.259-2.363q4.411-2.55,8.8-5.1c.444-.258.889-.508,1.326-.762l.178-.12c1.385-.822,2.785-1.636,4.11-2.483l2.443-1.549.118-.1a21.752,21.752,0,0,0,1.835-1.395,10.946,10.946,0,0,0,3.334-4.356,6.712,6.712,0,0,0,.375-2.109l-.008-.142a6.435,6.435,0,0,0-.474-2.419,9.769,9.769,0,0,0-1.911-2.862,23.9,23.9,0,0,0-4.776-3.7q-2.584-1.633-5.294-3.2l-2.536-1.474-2.119-1.227-.424-.245h0"/>
    <path class="cls-31" d="M375.356,369.446a4.9,4.9,0,0,0-.817-.371q-.179-.063-.368-.116a6.767,6.767,0,0,0-1-.2,7.588,7.588,0,0,0-.874-.056.692.692,0,0,1-.283-.026l-.134.026a6.054,6.054,0,0,0-2.679.705,3.651,3.651,0,0,0-.732.551,2.356,2.356,0,0,0-.325.39,1.713,1.713,0,0,0,.551,2.385,3.72,3.72,0,0,0,.479.326h0l.123.069.129.066c.087.043.179.085.273.125a5.807,5.807,0,0,0,1.748.418,6.619,6.619,0,0,0,3.838-.65l.125-.069a2.55,2.55,0,0,0,1.168-1.278c.021-.151.065-.306.072-.456a1.5,1.5,0,0,0-.016-.251,2.252,2.252,0,0,0-1.127-1.5c-.048-.031-.1-.061-.148-.09"/>
    <path class="cls-31" d="M353.2,366.236h0l0,0q.257.148.505.308c2.125,1.356,3.137,2.97,3.125,4.8a4.616,4.616,0,0,1-1.069,2.823l-.111.125a6.6,6.6,0,0,1-1.456,1.356,11.181,11.181,0,0,1-.94.609,15.33,15.33,0,0,1-5.1,1.754l-.267.034a18.741,18.741,0,0,1-3.127.254,19.656,19.656,0,0,1-5.741-.809l-.224-.077a13.237,13.237,0,0,1-1.265-.451q-.143-.06-.283-.122-.257-.114-.5-.237t-.457-.242l-.148-.084h0l-.154-.09c-2.505-1.5-3.645-3.3-3.508-5.371a3.091,3.091,0,0,1,.254-1.046,5.431,5.431,0,0,1,1.326-2.04,9.068,9.068,0,0,1,1.973-1.487,13.9,13.9,0,0,1,1.492-.734l.1-.035a8.633,8.633,0,0,1,1.327-.478,14.238,14.238,0,0,1,1.67-.417,17.62,17.62,0,0,1,3.468-.383q.334-.006.662,0a17.515,17.515,0,0,1,7.732,1.662q.363.181.711.382h0m4.769-2.624q-.178-.1-.362-.2a21.483,21.483,0,0,0-2.384-1.136,26.582,26.582,0,0,0-6.652-1.67c-.959-.116-1.933-.189-2.914-.232a23.548,23.548,0,0,0-2.645.026c-.936.06-1.864.142-2.777.258l-.26.047a19.746,19.746,0,0,0-2.2.387c-1.046.263-2.07.547-3.042.9a25.288,25.288,0,0,0-2.772,1.214l-.119.069q-.3.161-.585.33a17.422,17.422,0,0,0-1.6,1.069,15.267,15.267,0,0,0-1.464,1.291l-.126.151a8.474,8.474,0,0,0-1.885,3.125,6.923,6.923,0,0,0-.315,2.118l.015.112a7.974,7.974,0,0,0,2.847,5.522,12.91,12.91,0,0,0,1.448,1.205c.268.181.574.349.857.521q.286.175.582.347h0l.236.134c.238.133.482.263.732.388.365.177.752.331,1.132.5.722.28,1.445.551,2.211.788a31.156,31.156,0,0,0,3.594.839l.349.047a32.106,32.106,0,0,0,4.921.37c1.144,0,2.273-.077,3.4-.181,1-.133,2-.271,2.969-.482a25.117,25.117,0,0,0,5.185-1.683c.689-.314,1.319-.663,1.941-1.016.074-.052.141-.108.215-.151a11.788,11.788,0,0,0,3.747-3.542,7.73,7.73,0,0,0,1.056-2.548v-.026a6.4,6.4,0,0,0,.055-2.062,7.251,7.251,0,0,0-1.161-3.021l-.089-.135q-.109-.161-.226-.32a12.472,12.472,0,0,0-3.747-3.242l-.175-.1"/>
  </g>
</svg>
