<svg id="Layer_1" data-name="Layer 1" xmlns="http://www.w3.org/2000/svg" xmlns:xlink="http://www.w3.org/1999/xlink" viewBox="0 0 700 482">
  <defs>
    <style>
      .cls-1 {
        fill: none;
      }

      .cls-2 {
        fill: #ff8585;
      }

      .cls-3 {
        fill: #bed2ea;
      }

      .cls-4 {
        fill: #7298b7;
      }

      .cls-5 {
        isolation: isolate;
      }

      .cls-6 {
        fill: #ff4557;
      }

      .cls-7 {
        fill: #cc2545;
      }

      .cls-8 {
        fill: #ff5f76;
      }

      .cls-9 {
        fill: #fff;
      }

      .cls-10 {
        fill: #c9a200;
      }

      .cls-11 {
        fill: #e5cf00;
      }

      .cls-12 {
        fill: #fffc01;
      }

      .cls-13 {
        fill: #69319b;
      }

      .cls-14 {
        fill: #8542b6;
      }

      .cls-15 {
        fill: #eef7ff;
      }

      .cls-16 {
        fill: #8baccc;
      }

      .cls-17 {
        fill: #0e232d;
      }

      .cls-18 {
        fill: #1a3749;
      }

      .cls-19 {
        fill: #22435b;
      }

      .cls-20 {
        fill: #006293;
      }

      .cls-21 {
        fill: #008fce;
      }

      .cls-22 {
        fill: #00aced;
      }

      .cls-23 {
        fill: #00516d;
      }

      .cls-24 {
        fill: #00638e;
      }

      .cls-25 {
        fill: #0076b6;
      }

      .cls-26 {
        fill: #fcfcfc;
      }

      .cls-27 {
        fill: #d81749;
      }

      .cls-28 {
        fill: #0edbd3;
      }

      .cls-29 {
        fill: #09d8cf;
      }

      .cls-30 {
        fill: #fefdfd;
      }

      .cls-31 {
        clip-path: url(#clip-path);
      }

      .cls-32 {
        fill: #fdc666;
      }

      .cls-33 {
        fill: #5b57c9;
      }

      .cls-34 {
        fill: #a535ae;
      }

      .cls-35 {
        fill: #d92e7d;
      }

      .cls-36 {
        fill: #b93395;
      }

      .cls-37 {
        fill: #c9328a;
      }

      .cls-38 {
        fill: #f57431;
      }

      .cls-39 {
        fill: #fa9838;
      }

      .cls-40 {
        fill: #ed6242;
      }

      .cls-41 {
        fill: #c8486d;
      }

      .cls-42 {
        fill: #f67c41;
      }

      .cls-43 {
        fill: #e84656;
      }

      .cls-44 {
        fill: #000001;
      }

      .cls-45 {
        fill: #fefdfe;
      }

      .cls-46 {
        fill: #df2c72;
      }
    </style>
    <clipPath id="clip-path">
      <path class="cls-1" d="M392.64,369.42c2.39,1.38,2.4,3.62,0,5L339,405.6a9.5,9.5,0,0,1-8.63,0l-54-31.18c-2.39-1.38-2.4-3.62,0-5L330,338.24a9.5,9.5,0,0,1,8.63,0Z"/>
    </clipPath>
  </defs>
  <title>Kaykushal 4</title>
  <g>
    <path class="cls-2" d="M169.34,346.32l-1.5-2.65L298,269.91a16.09,16.09,0,0,1,14.79,0l-1.52,2.64a13.16,13.16,0,0,0-11.75,0Z"/>
    <path class="cls-3" d="M232.09,250.84a12.54,12.54,0,0,1-6.16-1.5l-58.63-37.59,1.64-2.56,58.57,37.56a10.35,10.35,0,0,0,9.19,0l132.69-76.82,1.53,2.64L238.23,249.34A12.45,12.45,0,0,1,232.09,250.84Z"/>
    <path class="cls-3" d="M483,360.45l-22.07-13.13V329.14l-103-60.31c-3.27-1.89-5.07-4.49-5.08-7.33s1.78-5.43,5-7.32l1.53,2.63c-2.27,1.32-3.52,3-3.52,4.68s1.27,3.38,3.56,4.7L464,327.39v18.19l20.58,12.25Z"/>
    <rect class="cls-3" x="324" y="293.79" width="101.72" height="3.05" transform="translate(-97.85 229.9) rotate(-30.35)"/>
    <path class="cls-3" d="M328.87,326.94c-3,0-5.33-1.88-5.33-4.28s2.34-4.28,5.33-4.28,5.33,1.88,5.33,4.28S331.86,326.94,328.87,326.94Zm0-5.52c-1.39,0-2.28.73-2.28,1.24s.89,1.24,2.28,1.24,2.28-.73,2.28-1.24S330.27,321.42,328.87,321.42Z"/>
    <path class="cls-3" d="M500.79,331.5,397,270.74c-3.27-1.89-5.07-4.49-5.08-7.33s1.78-5.43,5-7.32l1.53,2.63c-2.27,1.32-3.52,3-3.52,4.68s1.27,3.38,3.56,4.7l103.8,60.76Z"/>
    <path class="cls-2" d="M183,299.86a12.53,12.53,0,0,1-6.15-1.5l-58.63-37.59,1.64-2.56,58.57,37.56a10.36,10.36,0,0,0,9.19,0L301.4,229l1.54,2.63L189.12,298.36A12.47,12.47,0,0,1,183,299.86Z"/>
    <path class="cls-2" d="M329.13,383.52l-72.92-42.1c-3.77-2.18-5.85-5.16-5.86-8.41s2.05-6.21,5.8-8.39L374.29,256l1.53,2.63L257.68,327.26c-2.76,1.61-4.28,3.65-4.28,5.75s1.54,4.16,4.33,5.78l72.92,42.1Z"/>
    <path class="cls-2" d="M356.9,261.25,218.24,180.09c-4.2-2.43-6.53-5.75-6.53-9.35s2.29-6.91,6.47-9.33l105-61,1.53,2.63-105,61c-3.2,1.86-5,4.24-5,6.7s1.78,4.86,5,6.73l138.67,81.17Z"/>
    <path class="cls-2" d="M353.8,220l-1.5-2.65,130.14-73.75a16.09,16.09,0,0,1,14.79,0l-1.52,2.64a13.17,13.17,0,0,0-11.75,0Z"/>
    <path class="cls-2" d="M599.75,280.23l-109.11-63a10.35,10.35,0,0,0-9.24,0L375.85,277.06l-1.5-2.65L479.89,214.6a13.36,13.36,0,0,1,12.28,0l109.11,63Z"/>
    <path class="cls-4" d="M485.55,290.84,305.31,186.78a11.86,11.86,0,0,0-10.77,0l-52,30.23c-3,1.72-3,4.51,0,6.24l162.08,93.58-6.94,12.24,30.28-.46h0a11.06,11.06,0,0,0,5.62-1.28l52-30.24C488.56,295.36,488.54,292.57,485.55,290.84Z"/>
    <g class="cls-5">
      <path class="cls-6" d="M209.77,220.58l.07-24.83a3.8,3.8,0,0,0,2.24,3.13L212,223.72A3.8,3.8,0,0,1,209.77,220.58Z"/>
      <path class="cls-7" d="M457.35,269.62l-.07,24.83a3.78,3.78,0,0,1-2.21,3.1l.07-24.83A3.78,3.78,0,0,0,457.35,269.62Z"/>
      <polygon class="cls-7" points="455.13 272.72 455.06 297.55 403.04 327.78 403.11 302.95 455.13 272.72"/>
      <polygon class="cls-6" points="392.33 302.95 392.26 327.78 212.01 223.72 212.09 198.89 392.33 302.95"/>
      <path class="cls-6" d="M403.1,303,403,327.78a11.88,11.88,0,0,1-10.78,0l.07-24.83A11.88,11.88,0,0,0,403.1,303Z"/>
      <path class="cls-8" d="M455.1,266.48c3,1.72,3,4.52,0,6.24L403.1,303a11.88,11.88,0,0,1-10.78,0L212.08,198.89c-3-1.72-3-4.51,0-6.24l52-30.24a11.86,11.86,0,0,1,10.77,0Z"/>
    </g>
    <g>
      <path class="cls-9" d="M288.28,189.52l-2.37-1.37-5.18-3a4.47,4.47,0,0,0-3.95,0c-2.27,1.3-4.51,2.62-6.77,3.93a1.25,1.25,0,0,0-.75,1.14q.08,4.55.14,9.11a1.44,1.44,0,0,0,.84,1.06,3.16,3.16,0,0,0,1.1.38c2,.28,3.67-.49,3.66-1.65,0-2.65-.08-5.3-.1-8a.73.73,0,0,1,.38-.53c.95-.58,2-1.12,2.91-1.71a.76.76,0,0,1,.94,0l3.81,2.21,3.83,2.21c2.13,1.24,2.26,3.3,0,4.64a8.3,8.3,0,0,1-5,1c-2.08-.16-3.66.71-3.38,1.9.33,1.36-.38,2.47-2.32,3.31a9.5,9.5,0,0,1-6.42.08c-.67-.29-1.24-.67-1.89-1l-.11-.06a.73.73,0,0,1-.43-.68c0-2.55,0-5.1,0-7.65a1.59,1.59,0,0,0-.89-1.38,3.45,3.45,0,0,0-1.38-.42c-2-.19-3.42.56-3.4,1.72s.07,2.1.09,3.14c0,1.9,0,3.8.06,5.7a1.07,1.07,0,0,0,.4.87,17.12,17.12,0,0,0,1.82,1.21,17.5,17.5,0,0,0,2.75,1.28,18.08,18.08,0,0,0,6.65,1,16.42,16.42,0,0,0,6.69-1.46c2.21-1,3.57-2.42,4-4.07,0-.18.1-.27.46-.31a13.94,13.94,0,0,0,7.19-2.45c1.74-1.31,2.53-2.76,2.38-4.4s-1.31-3.19-3.38-4.41l-2.37-1.38"/>
      <path class="cls-9" d="M338.81,218.69l-.13-.07a4.77,4.77,0,0,0-4.15.15l-7.44,4.32L313,231.3c-.7.41-1.22.88-1.08,1.48a1.57,1.57,0,0,0,.8,1.06,4.57,4.57,0,0,0,2.25.46h11.37a1.75,1.75,0,0,1,.67.06c.1.06.1.17.11.4q0,3.3.05,6.59a1.49,1.49,0,0,0,.84,1.31,3.7,3.7,0,0,0,1,.37c1.8.44,3.9-.38,3.87-1.57,0-2.24-.08-4.48-.12-6.71,0-.12-.1-.25-.15-.36l.22-.11c.25,0,.48.07.7.07h11.68a3.19,3.19,0,0,0,2.44-.85,1,1,0,0,0-.07-1.56,2.06,2.06,0,0,0-.48-.38,4.8,4.8,0,0,0-2.34-.47l-18.64,0h-3.68l-.61,0-.06-.1.49-.28,16.07-9.34a5.94,5.94,0,0,0,.87-.6,1.23,1.23,0,0,0-.33-2"/>
      <path class="cls-9" d="M403.87,256.26l-.16-.08a4.49,4.49,0,0,0-4.07.16l-11.73,6.82L377.83,269c-.9.52-1.15,1.19-.71,1.81a2,2,0,0,0,.64.58,4.14,4.14,0,0,0,2.07.43l4.67,0H391c.35,0,.7,0,1.07,0,0,.36.09.7.09,1,0,2,0,4.1,0,6.15a1.31,1.31,0,0,0,.77,1.11,4.15,4.15,0,0,0,1,.39c1.58.42,3.81-.34,3.83-1.34,0-1.71,0-3.43,0-5.14,0-.73,0-1.45,0-2.2h.75l5.08,0h6.28a4.62,4.62,0,0,0,2.33-.54c1.09-.6.93-1.67-.11-2.27a2.82,2.82,0,0,0-.42-.2,7.23,7.23,0,0,0-2.49-.28H389.4c-.88,0-1.75,0-2.63-.07l-.07-.1.53-.31,14-8.15,2.59-1.51a1.24,1.24,0,0,0,0-2.23"/>
      <path class="cls-9" d="M359.85,230.84a4.43,4.43,0,0,0-4,0q-10.89,6.33-21.82,12.66c-1.32.76-1.39,1.83,0,2.63h0l4.33,2.49,4.32,2.5,6.49,3.74a4.56,4.56,0,0,0,.92.42c1.81.55,4.06-.09,4.14-1.34,0-.31,0-.63,0-1q0-4-.05-8.06a1.52,1.52,0,0,0-.87-1.26,3.77,3.77,0,0,0-1.8-.45c-1.86,0-3,.78-3,1.71,0,.3.07.59.06.89,0,1.18,0,2.36,0,3.53,0,.13,0,.25,0,.37l-.14,0-.45-.26-7.57-4.37c-.6-.35-.6-.35,0-.71l18.88-11c.24-.14.5-.29.73-.45a1.2,1.2,0,0,0-.12-2.16l0,0"/>
      <path class="cls-9" d="M320.69,216.26a10.26,10.26,0,0,0-1.64-.75c-1-.36-2.06-.64-3.25-1l0-.15A1.38,1.38,0,0,0,315,213a3.14,3.14,0,0,0-.77-.31,4.65,4.65,0,0,0-3.3.37q-7.44,4.35-14.91,8.67a3,3,0,0,0-.61.45c-.65.67-.37,1.47.42,1.92l.14.08a4.36,4.36,0,0,0,3.8,0c3.22-1.87,6.41-3.74,9.64-5.61a7.29,7.29,0,0,1,5.44-.68,6.44,6.44,0,0,1,1.71.65,2.7,2.7,0,0,1,1.33,1.53c.31,1.07-.41,2-1.7,2.7l-9.44,5.49a1.18,1.18,0,0,0,0,2.19l.19.1a4.3,4.3,0,0,0,4-.13q4.81-2.77,9.57-5.56a8.53,8.53,0,0,0,1.5-1.12c1.58-1.49,2-3.1,1.21-4.78a6.14,6.14,0,0,0-2.6-2.69"/>
      <path class="cls-9" d="M380.09,250.57a3.15,3.15,0,0,0-.64-.28,4.35,4.35,0,0,0-3.07.16l-15.54,9a1.17,1.17,0,0,0,.07,2.16l.15.08a4.29,4.29,0,0,0,4-.08c3.25-1.87,6.46-3.75,9.7-5.62a4.8,4.8,0,0,1,.88-.4,7.63,7.63,0,0,1,6,.43,3.92,3.92,0,0,1,.82.62c1.2,1.2.81,2.49-.9,3.48-3.13,1.82-6.24,3.65-9.39,5.46-1.15.66-1.31,1.72-.13,2.4a3.37,3.37,0,0,0,.49.23,4.54,4.54,0,0,0,3.32-.16l10.15-5.9a8.3,8.3,0,0,0,1.09-.79,4.21,4.21,0,0,0,1.66-3.48,5.11,5.11,0,0,0-2.93-4.07,12.9,12.9,0,0,0-2-.93c-.88-.32-1.88-.55-2.85-.82l.06-.2c.11-.47-.22-1-.82-1.31"/>
      <path class="cls-9" d="M302.63,197.8a4.56,4.56,0,0,0-4.1,0l-13.78,8A12.19,12.19,0,0,0,282,207.9c-1.88,2-2.2,4-1.12,6.19a7.77,7.77,0,0,0,2.6,2.79c.2.14.4.26.6.38a4.88,4.88,0,0,0,1.75.62,4.29,4.29,0,0,0,2.78-.57c.88-.77.7-1.4.06-1.93s-1.3-.94-1.81-1.46c-1.62-1.67-1.13-4,1.33-5.41s4.54-2.63,6.82-4l6.51-3.78c.48-.28.94-.58,1.37-.89a1.18,1.18,0,0,0-.16-2l-.07,0"/>
      <path class="cls-9" d="M309.28,209.67a3.52,3.52,0,0,0-1.2-.39,4.2,4.2,0,0,0-2.86.43c-5,2.89-10,5.8-15,8.68-1.07.62-1.32,1.7-.12,2.39a3.4,3.4,0,0,0,.48.23,4.55,4.55,0,0,0,3.34-.15l7.72-4.49c2.55-1.48,5.09-3,7.65-4.44.61-.35.86-.8.76-1.25a1.55,1.55,0,0,0-.8-1"/>
      <path class="cls-9" d="M374.36,247.26l0,0a4.46,4.46,0,0,0-4.05,0c-2.47,1.48-5,2.92-7.51,4.37l-7.64,4.44a2.26,2.26,0,0,0-.4.29c-.68.68-.38,1.5.42,2l.17.09a4.46,4.46,0,0,0,3.86-.09l2.21-1.29,12.86-7.48c1.13-.66,1.18-1.69.11-2.31"/>
      <path class="cls-9" d="M316.15,205.63a4.28,4.28,0,0,0-4,0c-1.19.74-1,1.67.06,2.32h0a4.21,4.21,0,0,0,3.89,0c1.14-.55,1.19-1.62,0-2.31l0,0"/>
      <path class="cls-9" d="M381.16,243.16a4.58,4.58,0,0,0-3.78,0c-1.15.62-1.31,1.68-.14,2.37a4.4,4.4,0,0,0,4,0c1.19-.74,1.11-1.63,0-2.33l-.07,0"/>
    </g>
    <g>
      <path class="cls-4" d="M673.91,272.79l-54-31.18a9.5,9.5,0,0,0-8.63,0l-53.66,31.18c-2.38,1.38-2.36,3.62,0,5L594.3,299l-8.83,11.52,30.14-.48c.33,0,.67,0,1,0h0a8.42,8.42,0,0,0,3.66-1l53.66-31.18C676.31,276.41,676.3,274.17,673.91,272.79Z"/>
      <g class="cls-5">
        <path class="cls-10" d="M645.25,250.94l-.07,24.83a3,3,0,0,1-1.77,2.48l.07-24.83A3,3,0,0,0,645.25,250.94Z"/>
        <path class="cls-11" d="M525.31,275.73l.07-24.83a3.05,3.05,0,0,0,1.8,2.52l-.07,24.83A3.05,3.05,0,0,1,525.31,275.73Z"/>
        <polygon class="cls-10" points="643.48 253.42 643.41 278.25 589.75 309.43 589.82 284.61 643.48 253.42"/>
        <polygon class="cls-11" points="581.19 284.61 581.12 309.43 527.11 278.25 527.18 253.42 581.19 284.61"/>
        <path class="cls-11" d="M589.82,284.6l-.07,24.83a9.5,9.5,0,0,1-8.63,0l.07-24.83A9.5,9.5,0,0,0,589.82,284.6Z"/>
        <path class="cls-12" d="M643.45,248.42c2.39,1.38,2.4,3.62,0,5L589.82,284.6a9.5,9.5,0,0,1-8.63,0l-54-31.18c-2.39-1.38-2.4-3.62,0-5l53.66-31.18a9.5,9.5,0,0,1,8.63,0Z"/>
      </g>
    </g>
    <g>
      <path class="cls-4" d="M423.09,393.79l-54-31.18a9.5,9.5,0,0,0-8.63,0L306.8,393.79c-2.38,1.38-2.36,3.62,0,5L343.49,420l-8.83,11.52L364.8,431c.33,0,.67,0,1,0h0a8.42,8.42,0,0,0,3.66-1l53.66-31.18C425.5,397.4,425.49,395.17,423.09,393.79Z"/>
      <g class="cls-5">
        <path class="cls-13" d="M394.44,371.94l-.07,24.83a3,3,0,0,1-1.77,2.48l.07-24.83A3,3,0,0,0,394.44,371.94Z"/>
        <path class="cls-14" d="M274.5,396.73l.07-24.83a3.05,3.05,0,0,0,1.8,2.52l-.07,24.83A3.05,3.05,0,0,1,274.5,396.73Z"/>
        <polygon class="cls-13" points="392.67 374.42 392.6 399.25 338.94 430.43 339.01 405.6 392.67 374.42"/>
        <polygon class="cls-14" points="330.38 405.6 330.31 430.43 276.3 399.25 276.37 374.42 330.38 405.6"/>
        <path class="cls-14" d="M339,405.6l-.07,24.83a9.5,9.5,0,0,1-8.63,0l.07-24.83A9.5,9.5,0,0,0,339,405.6Z"/>
        <path class="cls-15" d="M392.64,369.42c2.39,1.38,2.4,3.62,0,5L339,405.6a9.5,9.5,0,0,1-8.63,0l-54-31.18c-2.39-1.38-2.4-3.62,0-5L330,338.24a9.5,9.5,0,0,1,8.63,0Z"/>
      </g>
    </g>
    <g>
      <path class="cls-4" d="M391.64,107.12l-54-31.18a9.5,9.5,0,0,0-8.63,0l-53.66,31.18c-2.38,1.38-2.36,3.62,0,5L312,133.28l-8.83,11.52,30.14-.48c.33,0,.67,0,1,0h0a8.42,8.42,0,0,0,3.66-1l53.66-31.18C394,110.73,394,108.5,391.64,107.12Z"/>
      <g class="cls-5">
        <path class="cls-16" d="M363,85.27l-.07,24.83a3,3,0,0,1-1.77,2.48l.07-24.83A3,3,0,0,0,363,85.27Z"/>
        <path class="cls-3" d="M243,110.06l.07-24.83a3.05,3.05,0,0,0,1.8,2.52l-.07,24.83A3.05,3.05,0,0,1,243,110.06Z"/>
        <polygon class="cls-16" points="361.21 87.75 361.14 112.58 307.48 143.76 307.55 118.93 361.21 87.75"/>
        <polygon class="cls-3" points="298.93 118.93 298.86 143.76 244.85 112.58 244.92 87.75 298.93 118.93"/>
        <path class="cls-3" d="M307.55,118.93l-.07,24.83a9.5,9.5,0,0,1-8.63,0l.07-24.83A9.5,9.5,0,0,0,307.55,118.93Z"/>
        <path class="cls-15" d="M361.19,82.75c2.39,1.38,2.4,3.62,0,5l-53.66,31.18a9.5,9.5,0,0,1-8.63,0l-54-31.18c-2.39-1.38-2.4-3.62,0-5l53.66-31.18a9.5,9.5,0,0,1,8.63,0Z"/>
      </g>
    </g>
    <g>
      <path class="cls-4" d="M391.64,107.12l-54-31.18a9.5,9.5,0,0,0-8.63,0l-53.66,31.18c-2.38,1.38-2.36,3.62,0,5L312,133.28l-8.83,11.52,30.14-.48c.33,0,.67,0,1,0h0a8.42,8.42,0,0,0,3.66-1l53.66-31.18C394,110.73,394,108.5,391.64,107.12Z"/>
      <g class="cls-5">
        <path class="cls-17" d="M363,85.27l-.07,24.83a3,3,0,0,1-1.77,2.48l.07-24.83A3,3,0,0,0,363,85.27Z"/>
        <path class="cls-18" d="M243,110.06l.07-24.83a3.05,3.05,0,0,0,1.8,2.52l-.07,24.83A3.05,3.05,0,0,1,243,110.06Z"/>
        <polygon class="cls-17" points="361.21 87.75 361.14 112.58 307.48 143.76 307.55 118.93 361.21 87.75"/>
        <polygon class="cls-18" points="298.93 118.93 298.86 143.76 244.85 112.58 244.92 87.75 298.93 118.93"/>
        <path class="cls-18" d="M307.55,118.93l-.07,24.83a9.5,9.5,0,0,1-8.63,0l.07-24.83A9.5,9.5,0,0,0,307.55,118.93Z"/>
        <path class="cls-19" d="M361.19,82.75c2.39,1.38,2.4,3.62,0,5l-53.66,31.18a9.5,9.5,0,0,1-8.63,0l-54-31.18c-2.39-1.38-2.4-3.62,0-5l53.66-31.18a9.5,9.5,0,0,1,8.63,0Z"/>
      </g>
    </g>
    <g>
      <path class="cls-4" d="M172.89,246.93l-54-31.18a9.5,9.5,0,0,0-8.63,0L56.59,246.93c-2.38,1.38-2.36,3.62,0,5l36.66,21.17L84.45,284.6l30.14-.48c.33,0,.67,0,1,0h0a8.42,8.42,0,0,0,3.66-1l53.66-31.18C175.29,250.54,175.28,248.31,172.89,246.93Z"/>
      <g class="cls-5">
        <path class="cls-20" d="M144.23,225.08l-.07,24.83a3,3,0,0,1-1.77,2.48l.07-24.83A3,3,0,0,0,144.23,225.08Z"/>
        <path class="cls-21" d="M24.29,249.87,24.36,225a3.05,3.05,0,0,0,1.8,2.52l-.07,24.83A3.05,3.05,0,0,1,24.29,249.87Z"/>
        <polygon class="cls-20" points="142.46 227.56 142.39 252.38 88.73 283.57 88.8 258.74 142.46 227.56"/>
        <polygon class="cls-21" points="80.17 258.74 80.1 283.57 26.09 252.39 26.16 227.56 80.17 258.74"/>
        <path class="cls-21" d="M88.8,258.74l-.07,24.83a9.5,9.5,0,0,1-8.63,0l.07-24.83A9.5,9.5,0,0,0,88.8,258.74Z"/>
        <path class="cls-22" d="M142.43,222.56c2.39,1.38,2.4,3.62,0,5L88.8,258.74a9.5,9.5,0,0,1-8.63,0l-54-31.18c-2.39-1.38-2.4-3.62,0-5l53.66-31.18a9.5,9.5,0,0,1,8.63,0Z"/>
      </g>
    </g>
    <g>
      <path class="cls-4" d="M561.54,145.71l-54-31.18a9.5,9.5,0,0,0-8.63,0l-53.66,31.18c-2.38,1.38-2.36,3.62,0,5l36.66,21.17-8.83,11.52,30.14-.48c.33,0,.67,0,1,0h0a8.42,8.42,0,0,0,3.66-1l53.66-31.18C563.95,149.33,563.94,147.09,561.54,145.71Z"/>
      <g class="cls-5">
        <path class="cls-16" d="M532.89,123.86l-.07,24.83a3,3,0,0,1-1.77,2.48l.07-24.83A3,3,0,0,0,532.89,123.86Z"/>
        <path class="cls-3" d="M412.95,148.65l.07-24.83a3.05,3.05,0,0,0,1.8,2.52l-.07,24.83A3.05,3.05,0,0,1,412.95,148.65Z"/>
        <polygon class="cls-16" points="531.12 126.34 531.04 151.17 477.38 182.35 477.45 157.52 531.12 126.34"/>
        <polygon class="cls-3" points="468.83 157.52 468.76 182.35 414.75 151.17 414.82 126.34 468.83 157.52"/>
        <path class="cls-3" d="M477.46,157.52l-.07,24.83a9.5,9.5,0,0,1-8.63,0l.07-24.83A9.5,9.5,0,0,0,477.46,157.52Z"/>
        <path class="cls-15" d="M531.09,121.34c2.39,1.38,2.4,3.62,0,5l-53.66,31.18a9.5,9.5,0,0,1-8.63,0l-54-31.18c-2.39-1.38-2.4-3.62,0-5l53.66-31.18a9.5,9.5,0,0,1,8.63,0Z"/>
      </g>
    </g>
    <path class="cls-3" d="M503.65,336.12c-3,0-5.33-1.88-5.33-4.28s2.34-4.28,5.33-4.28,5.33,1.88,5.33,4.28S506.64,336.12,503.65,336.12Zm0-5.52c-1.39,0-2.28.73-2.28,1.24s.89,1.24,2.28,1.24,2.28-.73,2.28-1.24S505,330.6,503.65,330.6Z"/>
    <path class="cls-3" d="M485.32,364.78c-3,0-5.33-1.88-5.33-4.28s2.34-4.28,5.33-4.28,5.33,1.88,5.33,4.28S488.31,364.78,485.32,364.78Zm0-5.52c-1.39,0-2.28.73-2.28,1.24s.89,1.24,2.28,1.24,2.28-.73,2.28-1.24S486.71,359.26,485.32,359.26Z"/>
    <path class="cls-3" d="M372.38,174c-3,0-5.33-1.88-5.33-4.28s2.34-4.28,5.33-4.28,5.33,1.88,5.33,4.28S375.37,174,372.38,174Zm0-5.52c-1.39,0-2.28.73-2.28,1.24s.89,1.24,2.28,1.24,2.28-.73,2.28-1.24S373.78,168.46,372.38,168.46Z"/>
    <path class="cls-3" d="M165.11,213.06c-3,0-5.33-1.88-5.33-4.28s2.34-4.28,5.33-4.28,5.33,1.88,5.33,4.28S168.09,213.06,165.11,213.06Zm0-5.52c-1.39,0-2.28.73-2.28,1.24s.89,1.24,2.28,1.24,2.28-.73,2.28-1.24S166.5,207.54,165.11,207.54Z"/>
    <polygon class="cls-3" points="206.55 236.63 173.55 236.63 157.31 227.39 158.81 224.74 174.36 233.58 206.55 233.58 206.55 236.63"/>
    <path class="cls-3" d="M156.54,228.52c-3,0-5.33-1.88-5.33-4.28s2.34-4.28,5.33-4.28,5.33,1.88,5.33,4.28S159.53,228.52,156.54,228.52Zm0-5.52c-1.39,0-2.28.73-2.28,1.24s.89,1.24,2.28,1.24,2.28-.73,2.28-1.24S157.93,223,156.54,223Z"/>
    <g>
      <path class="cls-4" d="M234.7,360l-54-31.18a9.5,9.5,0,0,0-8.63,0L118.4,360c-2.38,1.38-2.36,3.62,0,5l36.66,21.17-8.83,11.52,30.14-.48c.33,0,.67,0,1,0h0a8.42,8.42,0,0,0,3.66-1L234.72,365C237.1,363.65,237.09,361.42,234.7,360Z"/>
      <g class="cls-5">
        <path class="cls-23" d="M206,338.19,206,363a3,3,0,0,1-1.77,2.48l.07-24.83A3,3,0,0,0,206,338.19Z"/>
        <path class="cls-24" d="M86.1,363l.07-24.83a3.05,3.05,0,0,0,1.8,2.52l-.07,24.83A3.05,3.05,0,0,1,86.1,363Z"/>
        <polygon class="cls-23" points="204.27 340.67 204.2 365.49 150.54 396.68 150.61 371.85 204.27 340.67"/>
        <polygon class="cls-24" points="141.98 371.85 141.91 396.68 87.9 365.5 87.97 340.67 141.98 371.85"/>
        <path class="cls-24" d="M150.61,371.85l-.07,24.83a9.5,9.5,0,0,1-8.63,0l.07-24.83A9.5,9.5,0,0,0,150.61,371.85Z"/>
        <path class="cls-25" d="M204.24,335.67c2.39,1.38,2.4,3.62,0,5l-53.66,31.18a9.5,9.5,0,0,1-8.63,0L88,340.67c-2.39-1.38-2.4-3.62,0-5l53.66-31.18a9.5,9.5,0,0,1,8.63,0Z"/>
      </g>
    </g>
    <g>
      <path class="cls-19" d="M281,92.22l.05,0h0l-.05,0m-.6-.37.09.06-.09-.06m6.56-1.6.26.16-.26-.16m1.88.86a8.24,8.24,0,0,1-1.57-.67,8.23,8.23,0,0,0,1.57.67m13.49,1.83c-6,2.92-15.41,2.54-21-.53,5.6,3.08,15,3.46,21,.53M287.13,82.59c-1.57.93-2.39,2.23-1.92,3.43h0c-.48-1.2.35-2.5,1.92-3.43m11.18.51a2.24,2.24,0,0,0,.32.23,2.24,2.24,0,0,1-.32-.23m-.12-.1.12.1-.12-.1m-1.05-.67a10.86,10.86,0,0,0-4.86-1,10.86,10.86,0,0,1,4.86,1m.34.18.11.07-.11-.07m2.17.78a1,1,0,0,1-.87.1,1,1,0,0,0,.87-.1M322,91.39l.06,0-.06,0m.93,0a.8.8,0,0,1-.76.06.8.8,0,0,0,.76-.06m1.8-7.58s0,.08.07.12h0c-.06,0-.08-.08-.07-.12m-1.62-7.46a1.31,1.31,0,0,0-1.49.08,1.31,1.31,0,0,1,1.49-.08m.06,0h0l.11.06c1.22.78,2.53,1.51,3.8,2.25-1.27-.75-2.58-1.48-3.8-2.25l-.11-.06m-36,12.11a11.47,11.47,0,0,0,10.61,0q11.88-6.89,23.72-13.8a1.47,1.47,0,0,1,1.76-.09l.17.1q1,.63,2,1.23t2.23,1.23l.17.09c.69.4.86.73-.12,1.11a1.9,1.9,0,0,0-.44.3c1.22.8,1.28.83.09,1.66a9.31,9.31,0,0,0-2.54,2.81h0c0,.18,0,.36,0,.54v0c.1.08.17.16.06.26a15.61,15.61,0,0,0,3.27,4c.56.47-.53.61-.88.9a6.91,6.91,0,0,1-2.55-4.28c0-.2-.16-.43.14-.61-.3.19-.17.41-.14.61a6.91,6.91,0,0,0,2.55,4.28l0,.11c1.37,1,1.37,1-.18,1.9-1.26.73-2.54,1.44-3.75,2.19a1.14,1.14,0,0,1-1.45,0l-.12-.07a12.55,12.55,0,0,1-5-5.54c-.15-.3-.25-.48-.37-.55s-.41,0-1,.34L303.81,94c-6,3.48-15.23,3.7-21.76.53q-.59-.29-1.13-.6c-2.7-1.56-4.21-3.48-4.61-5.74,0-.19-.25-.44.21-.58l-.14-.06c-.13-.08-.1-.17.06-.27l-.12-1.38c-.06-.15-.18-.3.06-.43h0a4.28,4.28,0,0,1,1.19-3.66c4.29-5.5,15.57-7.3,24.18-3.86a17,17,0,0,1,2.2,1.08l.6.35c.71.44.8.8-.14,1.15a4.63,4.63,0,0,0-.52.25c-6-3.35-14-3.41-19.53-1.54a18.88,18.88,0,0,0-3.53,1.57,18.88,18.88,0,0,1,3.53-1.57c5.57-1.87,13.54-1.82,19.53,1.54v.08a4.72,4.72,0,0,1,.45.2c1.09.66,1.1.71,0,1.35-1.55.9-3.11,1.79-4.63,2.7a.9.9,0,0,1-1,.1,1.36,1.36,0,0,1-.23-.18,5.4,5.4,0,0,0-1-.72c-3.38-2-9.74-1.51-11.86,1.41a.56.56,0,0,1-.4.29h0c.17.1.08.19,0,.28-.11-.1-.14-.19,0-.28-.14.09-.1.19,0,.28s0,.25,0,.37v0c.08.06.14.13,0,.19.62.48.92,1.08,1.66,1.54l.2.12m68.4-7.45-45-26a15.55,15.55,0,0,0-14.11,0l-44.75,26c-3.88,2.26-3.86,5.92,0,8.17l45,26a15.55,15.55,0,0,0,14.11,0l44.75-26c3.89-2.26,3.87-5.92,0-8.17"/>
      <path class="cls-26" d="M323.12,76.41l-.06,0a1.31,1.31,0,0,0-1.49.08l-.06,0-8.73,5.09L304,86.66,300,89l-2.43,1.4a11.64,11.64,0,0,1-8.18.85l-.54-.15a8.23,8.23,0,0,1-1.57-.67l-.06,0h0l-.26-.16a3.53,3.53,0,0,1-1.92-3c0-.12,0-.25.14-.35l0,0v-.18c0-.12,0-.24,0-.37s-.14-.19,0-.28h0c-.48-1.2.35-2.5,1.92-3.43a9.51,9.51,0,0,1,3.51-1.17,12.77,12.77,0,0,1,1.64-.12,10.86,10.86,0,0,1,4.86,1l.34.18h0l.11.07a5.76,5.76,0,0,1,.6.42l.12.1a2.24,2.24,0,0,0,.32.23l.15.07a1,1,0,0,0,.87-.1l.14-.08.1-.06,1.23-.73c.91-.53,1.85-1,2.77-1.57v-.08c-6-3.35-14-3.41-19.53-1.54a18.88,18.88,0,0,0-3.53,1.57,10,10,0,0,0-3.93,3.88c-.13.25-.1.53-.44.74l-.07,0c.22.15.08.29-.07.42l.12,1.38c.1.1.19.21.1.34h0a11.5,11.5,0,0,0,3.3,3.83l.58.41.09.06.51.31.05,0,.26.15c5.6,3.08,15,3.46,21,.53C304.24,92,306,91,307.79,90c2.16-1.25,4.25-2.55,6.42-3.8l1.22-.7.25-.14.64-.38c.52.88,1,1.68,1.44,2.49.78,1.51,2.44,2.7,4.15,3.88l.06,0,.06,0,.11.06a.8.8,0,0,0,.76-.06l.13-.07,0,0,.51-.3c1.19-.69,2.4-1.37,3.6-2.05l0-.11a6.91,6.91,0,0,1-2.55-4.28c0-.2-.16-.43.14-.61l0,0h0c-.06,0-.08-.08-.07-.12a.26.26,0,0,1,.06-.11v0c0-.18,0-.36,0-.54h0c-.44-1.69.6-3.12,2.27-4.45-1.27-.75-2.58-1.48-3.8-2.25l-.11-.06"/>
      <path class="cls-27" d="M327.17,89c-1.2.68-2.41,1.36-3.6,2.05l-.51.3,0,0-.13.07a.8.8,0,0,1-.76.06l-.11-.06-.06,0-.06,0c-1.7-1.18-3.36-2.37-4.15-3.88-.41-.81-.92-1.61-1.44-2.49l-.64.38-.25.14-1.22.7c-2.16,1.25-4.26,2.54-6.42,3.8-1.75,1-3.54,2-5.44,2.94-6,2.92-15.41,2.54-21-.53l-.26-.15h0l-.05,0-.51-.31-.09-.06-.58-.41a11.5,11.5,0,0,1-3.3-3.83h0c-.46.14-.24.39-.21.58.4,2.26,1.91,4.18,4.61,5.74q.53.31,1.13.6c6.53,3.17,15.77,2.95,21.76-.53l11.59-6.73c.54-.32.78-.44,1-.34s.22.25.37.55a12.55,12.55,0,0,0,5,5.54l.12.07a1.14,1.14,0,0,0,1.45,0c1.21-.75,2.49-1.46,3.75-2.19,1.54-.9,1.54-.9.18-1.9"/>
      <path class="cls-28" d="M323.18,74.63a1.47,1.47,0,0,0-1.76.09q-11.82,6.92-23.72,13.8a11.47,11.47,0,0,1-10.61,0l-.2-.12c-.74-.45-1-1.05-1.66-1.54h0l0,0c-.16.1-.13.23-.14.35a3.53,3.53,0,0,0,1.92,3l.26.16h0l.06,0a8.24,8.24,0,0,0,1.57.67l.54.15a11.64,11.64,0,0,0,8.18-.85L300,89l4-2.35,8.75-5.08,8.73-5.09.06,0a1.31,1.31,0,0,1,1.49-.08l.06,0h0l.11.06c1.22.78,2.53,1.51,3.8,2.25l.18,0a1.9,1.9,0,0,1,.44-.3c1-.39.82-.72.12-1.11l-.17-.09q-1.13-.6-2.23-1.23t-2-1.23l-.17-.1"/>
      <path class="cls-29" d="M303.95,79a17,17,0,0,0-2.2-1.08c-8.6-3.44-19.89-1.64-24.18,3.86a4.28,4.28,0,0,0-1.19,3.66h0l.07,0c.34-.2.31-.49.44-.74a10,10,0,0,1,3.93-3.88,18.88,18.88,0,0,1,3.53-1.57c5.57-1.87,13.54-1.82,19.53,1.54a4.63,4.63,0,0,1,.52-.25c.94-.35.85-.71.14-1.15l-.6-.35"/>
      <path class="cls-27" d="M304.34,81.06a4.72,4.72,0,0,0-.45-.2c-.92.53-1.86,1-2.77,1.57l-1.23.73-.1.06-.14.08a1,1,0,0,1-.87.1l-.15-.07a2.24,2.24,0,0,1-.32-.23l-.12-.1a5.76,5.76,0,0,0-.6-.42l-.11-.07h0l-.34-.18a10.86,10.86,0,0,0-4.86-1,12.77,12.77,0,0,0-1.64.12,9.51,9.51,0,0,0-3.51,1.17c-1.57.93-2.39,2.23-1.92,3.43h0a.56.56,0,0,0,.4-.29c2.12-2.92,8.48-3.36,11.86-1.41a5.4,5.4,0,0,1,1,.72,1.36,1.36,0,0,0,.23.18.9.9,0,0,0,1-.1c1.51-.91,3.08-1.8,4.63-2.7,1.1-.64,1.1-.69,0-1.35"/>
      <path class="cls-27" d="M327.21,78.7l-.18,0c-1.67,1.33-2.72,2.76-2.27,4.45h0a9.31,9.31,0,0,1,2.54-2.81c1.18-.83,1.12-.86-.09-1.66"/>
      <path class="cls-29" d="M324.82,84h0c-.3.19-.17.41-.14.61a6.91,6.91,0,0,0,2.55,4.28c.35-.28,1.44-.42.88-.9a15.61,15.61,0,0,1-3.27-4"/>
      <path class="cls-29" d="M276.38,85.46c-.25.13-.12.28-.06.43.16-.13.29-.27.07-.42h0"/>
      <path class="cls-29" d="M324.76,83.72v0a.26.26,0,0,0-.06.11s0,.08.07.12h0l0,0h0c.11-.1,0-.18-.06-.26"/>
      <path class="cls-27" d="M285.25,86h0c-.14.09-.1.19,0,.28.11-.09.2-.18,0-.28"/>
      <path class="cls-27" d="M276.43,87.27c-.16.1-.19.2-.06.27l.14.06h0c.1-.13,0-.23-.1-.34"/>
      <path class="cls-28" d="M285.23,86.67v.18h0c.13-.06.07-.12,0-.19"/>
    </g>
    <g>
      <path class="cls-6" d="M475.36,116.75l5.56,11.56-20-3.18,14.42-8.38M488.73,113l-1-.58c-2.18-1.2-4.33-2.42-6.54-3.6-3-1.64-6.09-3.26-9.38-4.73a14.12,14.12,0,0,0-4-1.17,14.49,14.49,0,0,0-7.44.94c-2.08.83-4,1.76-5.94,2.73s-3.82,2-5.61,3-3.55,2.12-5.22,3.23a43.13,43.13,0,0,0-5.23,3.87c-2.06,1.89-2.23,3.81-.11,5.73a35.86,35.86,0,0,0,4.51,3.25c4.23,2.73,8.61,5.39,13.1,8l3,1.71c4.2,2.38,8.45,4.72,12.93,6.92a35,35,0,0,0,4,1.77,13.74,13.74,0,0,0,9.56-.05,71,71,0,0,0,8.58-4c2.58-1.35,5-2.79,7.35-4.27a63.73,63.73,0,0,0,6.41-4.54c2.33-1.93,2.6-4.23.08-6.26a58.41,58.41,0,0,0-5.09-3.56c-4-2.57-8.17-5.05-12.38-7.51l-1.51-.88"/>
      <path class="cls-30" d="M475.36,116.75l-14.42,8.38,20,3.18-5.56-11.56"/>
    </g>
    <g>
      <path class="cls-12" d="M573.6,261.21a13.29,13.29,0,0,1-3-1.14,13.29,13.29,0,0,0,3,1.14M561,246.88a.29.29,0,0,0-.13.32,1.43,1.43,0,0,0,.13.36,6.65,6.65,0,0,0,1.34,1.68,4.71,4.71,0,0,1,.63.75c.21.32.12.6-.23.87l-.42.34c-.27.22-.24.43,0,.65a6.36,6.36,0,0,0,.8.57,19.15,19.15,0,0,1,1.79,1.2,5.67,5.67,0,0,1,1.8,2.11l.44,1a6.32,6.32,0,0,0,2.76,3l.2.12h0l-.2-.12a6.32,6.32,0,0,1-2.76-3l-.44-1a5.67,5.67,0,0,0-1.8-2.11,19.15,19.15,0,0,0-1.79-1.2,6.36,6.36,0,0,1-.8-.57c-.24-.22-.27-.43,0-.65l.42-.34c.35-.27.43-.55.23-.87a4.71,4.71,0,0,0-.63-.75,6.65,6.65,0,0,1-1.34-1.68,1.43,1.43,0,0,1-.13-.36.29.29,0,0,1,.13-.32m36.51,7.19,0,0,0,0m-17.62-10.18.14.1h0l-.14-.1m.78.09a.76.76,0,0,1-.29.09.76.76,0,0,0,.29-.09m20.54,11.29.05,0-.05,0M578,241.83l-.14-.07.14.07m0,0h0l.1.06-.1-.06m21.56-.83a15.08,15.08,0,0,0-1.69-.6,15.08,15.08,0,0,1,1.69.6m1.75.89.52.32-.52-.32m-.18-.1.18.1-.18-.1m-20.24-.45c.06,0,.11,0,.25-.07.71-.41,1.42-.82,2.18-1.19a18.76,18.76,0,0,1,4.82-1.69,22.93,22.93,0,0,1,7.71-.16,21.08,21.08,0,0,1,5.93,1.72c.49.23,1,.47,1.32.67a9.86,9.86,0,0,1,4.33,4.28,4.82,4.82,0,0,1-.76,5.2,9.94,9.94,0,0,1-1.93,1.75,27.9,27.9,0,0,1-2.5,1.58c-.16.09-.21.11-.14.15l.18.07a6.77,6.77,0,0,1,1,.46,3.43,3.43,0,0,1,1,.8c.75.91.45,2-.73,2.73a6.4,6.4,0,0,1-3.2.84,12.61,12.61,0,0,1-2-.1l-2.12-.26-.36,0c-.42,0-.63,0-.81.24a1.87,1.87,0,0,0-.2.31,4.58,4.58,0,0,0-.34,3.63,7.6,7.6,0,0,0,.8,1.76,2.75,2.75,0,0,1,.3.64c.32,1-.74,1.93-2.56,2.12a8.39,8.39,0,0,1-2.25-.09,21.23,21.23,0,0,1-3-.73l-.15,0a2.08,2.08,0,0,0-1.39,0,6,6,0,0,1-4-.25c-.51-.21-1-.45-1.4-.69a20.28,20.28,0,0,0-1.86-.89,11.69,11.69,0,0,0-2.77-.71c-1.18-.15-2.34-.32-3.46-.58a16.63,16.63,0,0,1-4.56-1.77l-.58-.35a7.85,7.85,0,0,1-3.19-3.55c-.11-.26-.24-.52-.34-.79a4.39,4.39,0,0,0-1.64-1.88c-.47-.35-1-.67-1.5-1a6,6,0,0,1-1.13-.86,1.33,1.33,0,0,1-.15-1.93.61.61,0,0,0-.09-.94,6.1,6.1,0,0,1-1.3-1.78,1.68,1.68,0,0,1-.15-1.24c.29-1.07,1.81-1.7,3.64-1.52.56.06,1.09.17,1.64.27a26.59,26.59,0,0,0,6.06.45,18.85,18.85,0,0,0,2.94-.35c.71-.14.83-.26.68-.69s-.32-.83-.46-1.25a2.42,2.42,0,0,1-.1-1.62c.38-1.18,2.09-2,4.1-2.1a6.45,6.45,0,0,1,3,.61l.41.22a4.22,4.22,0,0,1,.76.55l.1.09m56.46,5.43L592.55,220.9a15.47,15.47,0,0,0-14,0L534,246.78c-3.86,2.24-3.84,5.88,0,8.13l44.81,25.87a15.47,15.47,0,0,0,14,0l44.52-25.87c3.86-2.24,3.84-5.88-.05-8.13"/>
      <path class="cls-19" d="M601.14,241.79l.18.1.52.32a7.24,7.24,0,0,1,2.9,3.14,3.79,3.79,0,0,1-.65,4.1,8.87,8.87,0,0,1-1.87,1.61c-.55.37-1.13.73-1.73,1.08-.77.44-1.57.87-2.39,1.28l-.47.25-.06,0c-.19.12-.18.22,0,.34l0,0a1.93,1.93,0,0,0,.49.18c.58.15,1.17.3,1.73.46a6.55,6.55,0,0,1,1.46.54h0l.05,0a1.48,1.48,0,0,1,.27.2c.39.37.29.81-.2,1.08a2,2,0,0,1-.5.19,4,4,0,0,1-1,.1,13,13,0,0,1-1.39-.11c-1-.13-2.07-.26-3.11-.36-.28,0-.57-.06-.86-.06a1.85,1.85,0,0,0-.92.2l-.11.07a3.52,3.52,0,0,0-.83.79,5.43,5.43,0,0,0-1.19,3.07,7,7,0,0,0,1.07,4,1.62,1.62,0,0,1,.2.41.24.24,0,0,1-.1.28.89.89,0,0,1-.46.09,4.38,4.38,0,0,1-.72-.08,16.9,16.9,0,0,1-2.71-.7c-.39-.13-.77-.26-1.18-.36l-.34-.08a2.37,2.37,0,0,0-1.48.14l-.56.24a1.52,1.52,0,0,1-1.18,0,8,8,0,0,1-1.06-.51,20.74,20.74,0,0,0-2.81-1.31,14.49,14.49,0,0,0-2.91-.72c-1-.15-2-.27-3-.47l-.29-.06-.34-.08a13.29,13.29,0,0,1-3-1.14l-.45-.25h0l-.2-.12a6.32,6.32,0,0,1-2.76-3l-.44-1a5.67,5.67,0,0,0-1.8-2.11,19.15,19.15,0,0,0-1.79-1.2,6.36,6.36,0,0,1-.8-.57c-.24-.22-.27-.43,0-.65l.42-.34c.35-.27.43-.55.23-.87a4.71,4.71,0,0,0-.63-.75,6.65,6.65,0,0,1-1.34-1.68,1.43,1.43,0,0,1-.13-.36.29.29,0,0,1,.13-.32,1,1,0,0,1,.62,0l.44.08a32.11,32.11,0,0,0,6.89.64,22,22,0,0,0,5.73-.8,6.41,6.41,0,0,0,1-.36l.13-.06a.6.6,0,0,0,.38-.59,2.21,2.21,0,0,0-.15-.61c-.21-.61-.44-1.22-.66-1.82a2.22,2.22,0,0,1-.14-.61,1.11,1.11,0,0,1,.09-.5.93.93,0,0,1,.39-.4,2.29,2.29,0,0,1,2.11,0l.14.07h0l.1.06a3,3,0,0,1,.56.48,13.26,13.26,0,0,1,.92,1.12,2.46,2.46,0,0,0,.36.39l.14.1a.59.59,0,0,0,.36.09.76.76,0,0,0,.29-.09l.05,0,.05,0,1.65-1.06.41-.26.67-.4c.68-.39,1.38-.77,2.13-1.12a17,17,0,0,1,11.55-.85l.64.17a15.08,15.08,0,0,1,1.69.6,14.6,14.6,0,0,1,1.57.79h0m2-1.17c-.37-.2-.84-.44-1.32-.67a21.08,21.08,0,0,0-5.93-1.72,22.93,22.93,0,0,0-7.71.16,18.76,18.76,0,0,0-4.82,1.69c-.76.38-1.47.79-2.18,1.19-.14.08-.19.11-.25.07l-.1-.09a4.22,4.22,0,0,0-.76-.55l-.41-.22a6.45,6.45,0,0,0-3-.61c-2,0-3.72.92-4.1,2.1a2.42,2.42,0,0,0,.1,1.62c.15.42.3.83.46,1.25s0,.55-.68.69a18.85,18.85,0,0,1-2.94.35,26.59,26.59,0,0,1-6.06-.45c-.55-.1-1.08-.22-1.64-.27-1.83-.18-3.36.45-3.64,1.52a1.68,1.68,0,0,0,.15,1.24,6.1,6.1,0,0,0,1.3,1.78.61.61,0,0,1,.09.94,1.33,1.33,0,0,0,.15,1.93,6,6,0,0,0,1.13.86c.52.32,1,.64,1.5,1a4.39,4.39,0,0,1,1.64,1.88c.1.27.23.53.34.79a7.85,7.85,0,0,0,3.19,3.55l.58.35a16.63,16.63,0,0,0,4.56,1.77c1.12.26,2.29.43,3.46.58a11.69,11.69,0,0,1,2.77.71,20.28,20.28,0,0,1,1.86.89c.45.24.9.48,1.4.69a6,6,0,0,0,4,.25,2.08,2.08,0,0,1,1.39,0l.15,0a21.23,21.23,0,0,0,3,.73,8.39,8.39,0,0,0,2.25.09c1.82-.18,2.88-1.07,2.56-2.12a2.75,2.75,0,0,0-.3-.64,7.6,7.6,0,0,1-.8-1.76,4.58,4.58,0,0,1,.34-3.63,1.87,1.87,0,0,1,.2-.31c.18-.22.39-.28.81-.24l.36,0,2.12.26a12.61,12.61,0,0,0,2,.1,6.4,6.4,0,0,0,3.2-.84c1.18-.74,1.49-1.82.73-2.73a3.43,3.43,0,0,0-1-.8,6.77,6.77,0,0,0-1-.46l-.18-.07c-.07,0,0-.06.14-.15a27.9,27.9,0,0,0,2.5-1.58,9.94,9.94,0,0,0,1.93-1.75,4.82,4.82,0,0,0,.76-5.2,9.86,9.86,0,0,0-4.33-4.28"/>
      <path class="cls-9" d="M601.14,241.79a14.6,14.6,0,0,0-1.57-.79,15.08,15.08,0,0,0-1.69-.6l-.64-.17a17,17,0,0,0-11.55.85c-.75.35-1.45.73-2.13,1.12l-.67.4-.41.26-1.65,1.06-.05,0-.05,0a.76.76,0,0,1-.29.09.59.59,0,0,1-.36-.09h0l-.14-.1a2.46,2.46,0,0,1-.36-.39,13.26,13.26,0,0,0-.92-1.12,3,3,0,0,0-.56-.48l-.1-.06h0l-.14-.07a2.29,2.29,0,0,0-2.11,0,.93.93,0,0,0-.39.4,1.11,1.11,0,0,0-.09.5,2.22,2.22,0,0,0,.14.61c.22.6.44,1.21.66,1.82a2.21,2.21,0,0,1,.15.61.6.6,0,0,1-.38.59l-.13.06a6.41,6.41,0,0,1-1,.36,22,22,0,0,1-5.73.8,32.11,32.11,0,0,1-6.89-.64l-.44-.08a1,1,0,0,0-.62,0,.29.29,0,0,0-.13.32,1.43,1.43,0,0,0,.13.36,6.65,6.65,0,0,0,1.34,1.68,4.71,4.71,0,0,1,.63.75c.21.32.12.6-.23.87l-.42.34c-.27.22-.24.43,0,.65a6.36,6.36,0,0,0,.8.57,19.15,19.15,0,0,1,1.79,1.2,5.67,5.67,0,0,1,1.8,2.11l.44,1a6.32,6.32,0,0,0,2.76,3l.2.12h0l.45.25a13.29,13.29,0,0,0,3,1.14l.34.08.29.06c1,.2,2,.32,3,.47a14.49,14.49,0,0,1,2.91.72,20.74,20.74,0,0,1,2.81,1.31,8,8,0,0,0,1.06.51,1.52,1.52,0,0,0,1.18,0l.56-.24a2.37,2.37,0,0,1,1.48-.14l.34.08c.41.1.79.24,1.18.36a16.9,16.9,0,0,0,2.71.7,4.38,4.38,0,0,0,.72.08.89.89,0,0,0,.46-.09.24.24,0,0,0,.1-.28,1.62,1.62,0,0,0-.2-.41,7,7,0,0,1-1.07-4,5.43,5.43,0,0,1,1.19-3.07,3.52,3.52,0,0,1,.83-.79l.11-.07a1.85,1.85,0,0,1,.92-.2c.29,0,.58,0,.86.06,1,.1,2.07.24,3.11.36a13,13,0,0,0,1.39.11,4,4,0,0,0,1-.1,2,2,0,0,0,.5-.19c.49-.28.59-.71.2-1.08a1.48,1.48,0,0,0-.27-.2l-.05,0h0a6.55,6.55,0,0,0-1.46-.54c-.56-.16-1.15-.31-1.73-.46a1.93,1.93,0,0,1-.49-.18l0,0c-.19-.12-.19-.22,0-.34l.06,0,.47-.25c.82-.41,1.62-.84,2.39-1.28.6-.35,1.18-.7,1.73-1.08a8.87,8.87,0,0,0,1.87-1.61,3.79,3.79,0,0,0,.65-4.1,7.24,7.24,0,0,0-2.9-3.14l-.52-.32-.18-.1h0"/>
    </g>
    <g>
      <path class="cls-22" d="M89.93,221.45c.23-.17.41-.35.63-.51a12.24,12.24,0,0,1,5-2.13,17.68,17.68,0,0,1,10.34.77,13.13,13.13,0,0,1,1.64.79c2.07,1.19,3.11,2.72,3.17,4.52a.3.3,0,0,0,.17.26l.14.06a32.62,32.62,0,0,0,6.34,1.63l.21,0v0a5.9,5.9,0,0,1-.86.23,18.84,18.84,0,0,1-6.43.32l-.27,0h0l.09.07a19.54,19.54,0,0,0,2.52,1c.92.31,1.9.57,2.92.82a1.25,1.25,0,0,1-.33.06,38.15,38.15,0,0,1-7.17.07,1,1,0,0,0-.7.14,36.61,36.61,0,0,1-9.84,4.11,53.07,53.07,0,0,1-16.3,1.75,46.12,46.12,0,0,1-13.78-2.69,34.67,34.67,0,0,1-4.67-2.08l-1.32-.73c-.4-.23-.79-.47-1.17-.71a22.77,22.77,0,0,1-3.8-3,15.19,15.19,0,0,1-3.44-5,.29.29,0,0,1,0-.2q.82.57,1.7,1.08a30.83,30.83,0,0,0,13.2,3.74c-2-1.3-3.07-2.82-3.06-4.57A4.34,4.34,0,0,1,66,218.36a9.27,9.27,0,0,0,1.33.93,12,12,0,0,0,2.29,1A4.57,4.57,0,0,1,67.84,216c.28-1.53,1.38-2.83,3.28-3.94a5.84,5.84,0,0,0,1,1.4,7.2,7.2,0,0,0,1.53,1.19c-.55-2,.23-3.87,2.53-5.44a13.42,13.42,0,0,1,5.6-2,11.31,11.31,0,0,0,1.45,7.61,19.61,19.61,0,0,0,6.67,6.62m46.28-.46-45-26a15.54,15.54,0,0,0-14.1,0L32.34,221c-3.88,2.26-3.86,5.91,0,8.17l45,26a15.54,15.54,0,0,0,14.1,0l44.74-26c3.88-2.26,3.86-5.91,0-8.17"/>
      <path class="cls-9" d="M107.5,220.37a13.13,13.13,0,0,0-1.64-.79,17.68,17.68,0,0,0-10.34-.77,12.24,12.24,0,0,0-5,2.13c-.22.16-.4.34-.63.51a19.61,19.61,0,0,1-6.67-6.62,11.31,11.31,0,0,1-1.45-7.61,13.42,13.42,0,0,0-5.6,2c-2.3,1.57-3.08,3.4-2.53,5.44a7.2,7.2,0,0,1-1.53-1.19,5.84,5.84,0,0,1-1-1.4c-1.9,1.11-3,2.41-3.28,3.94a4.57,4.57,0,0,0,1.74,4.24,12,12,0,0,1-2.29-1,9.27,9.27,0,0,1-1.33-.93,4.34,4.34,0,0,0-1.23,2.87c0,1.75,1,3.26,3.06,4.57a30.83,30.83,0,0,1-13.2-3.74q-.88-.51-1.7-1.08a.29.29,0,0,0,0,.2,15.19,15.19,0,0,0,3.44,5,22.77,22.77,0,0,0,3.8,3c.38.24.77.48,1.17.71l1.32.73a34.67,34.67,0,0,0,4.67,2.08,46.12,46.12,0,0,0,13.78,2.69,53.07,53.07,0,0,0,16.3-1.75,36.61,36.61,0,0,0,9.84-4.11,1,1,0,0,1,.7-.14,38.15,38.15,0,0,0,7.17-.07,1.25,1.25,0,0,0,.33-.06c-1-.24-2-.51-2.92-.82a19.54,19.54,0,0,1-2.52-1l-.09-.07h0l.27,0a18.84,18.84,0,0,0,6.43-.32,5.9,5.9,0,0,0,.86-.23v0l-.21,0a32.62,32.62,0,0,1-6.34-1.63l-.14-.06a.3.3,0,0,1-.17-.26c-.06-1.8-1.1-3.32-3.17-4.52"/>
    </g>
    <g>
      <path class="cls-25" d="M119.52,341,115,338.37c-1.07-.62-1.08-1.13,0-1.75l21.07-12.25a2.73,2.73,0,0,1,3.07,0l4.62,2.67c1,.6,1,1.12,0,1.72l-10.58,6.15L122.72,341a2.73,2.73,0,0,1-3.2,0m34-5a28.84,28.84,0,0,1,3.73.07,15.72,15.72,0,0,1,4.7,1.28,21.47,21.47,0,0,1,2,1,11.81,11.81,0,0,1,2.59,2,3.77,3.77,0,0,1,.31,5.41,17.5,17.5,0,0,1-5.19,4.17c-4,2.35-8,4.67-12,7a2.47,2.47,0,0,1-2.66,0l-2.6-1.49-2.58-1.5c-.89-.52-.88-1,0-1.54l11.3-6.57a9.16,9.16,0,0,0,2.48-2c1-1.28.28-2.53-1.15-3.35a7.76,7.76,0,0,0-4.29-1,12.82,12.82,0,0,0-5.41,1.6c-3.71,2.13-7.37,4.27-11,6.41a2.61,2.61,0,0,1-3,0L126,344.71c-1-.56-1-1.06,0-1.63l21.31-12.39a2.57,2.57,0,0,1,2.81,0l4.9,2.83c.87.51.87,1,0,1.55l-1.47.86M143.45,324.5c-2.72-1.57-2.74-4.09-.05-5.67a10.81,10.81,0,0,1,9.87,0c2.72,1.57,2.74,4.13,0,5.7a10.85,10.85,0,0,1-9.83,0l0,0m54.24,9.61-44.9-25.93a15.5,15.5,0,0,0-14.06,0L94.11,334.11c-3.87,2.25-3.85,5.9,0,8.15l44.9,25.93a15.5,15.5,0,0,0,14.06,0l44.61-25.93c3.87-2.25,3.85-5.9,0-8.15"/>
      <path class="cls-9" d="M164,338.3a21.47,21.47,0,0,0-2-1,15.72,15.72,0,0,0-4.7-1.28,28.84,28.84,0,0,0-3.73-.07l1.47-.86c.86-.52.87-1,0-1.55l-4.9-2.83a2.57,2.57,0,0,0-2.81,0L126,343.09c-1,.56-1,1.07,0,1.63l4.76,2.75a2.61,2.61,0,0,0,3,0c3.68-2.14,7.34-4.29,11-6.41a12.82,12.82,0,0,1,5.41-1.6,7.76,7.76,0,0,1,4.29,1c1.43.83,2.18,2.08,1.15,3.35a9.16,9.16,0,0,1-2.48,2l-11.3,6.57c-.89.52-.9,1,0,1.54l2.58,1.5,2.6,1.49a2.47,2.47,0,0,0,2.66,0c4-2.33,8-4.65,12-7a17.5,17.5,0,0,0,5.19-4.17,3.77,3.77,0,0,0-.31-5.41,11.81,11.81,0,0,0-2.59-2"/>
      <path class="cls-9" d="M143.74,327l-4.62-2.67a2.73,2.73,0,0,0-3.07,0L115,336.62c-1.06.62-1.05,1.13,0,1.75l4.52,2.62a2.73,2.73,0,0,0,3.2,0l10.45-6.07,10.58-6.15c1-.6,1-1.12,0-1.72"/>
      <path class="cls-9" d="M153.27,318.81a10.81,10.81,0,0,0-9.87,0c-2.69,1.58-2.66,4.1.05,5.67l0,0a10.85,10.85,0,0,0,9.83,0c2.7-1.57,2.68-4.13,0-5.7"/>
    </g>
    <g class="cls-31">
      <path class="cls-14" d="M388.33,362l-4-2.29a.82.82,0,0,1-.3,0,.92.92,0,0,1-.29-.1h0l-.09-.06-.09-.07-.1-.06a2.4,2.4,0,0,0-.48-.2q-1.16-.35-2.28-.75c-.59-.21-1.12-.48-1.76-.65l-.1,0a1.61,1.61,0,0,1-.29-.13h0l-.11-.07,0,0-.13-.06-.14-.05a.22.22,0,0,0-.16,0,.06.06,0,0,0,0,.05.08.08,0,0,1,0,.06s-.1,0-.17,0a3.25,3.25,0,0,1-.84-.28l-.1-.06h0l-.11-.07a.35.35,0,0,0-.25-.07.66.66,0,0,1-.22,0A.44.44,0,0,1,376,357h0l-.1-.07-.11-.07a.94.94,0,0,0-.63-.18.49.49,0,0,1-.3-.06h0a.54.54,0,0,1-.12-.1l-.09-.07c-.11-.06-.25-.1-.35-.16h-.07a.79.79,0,0,1-.62-.12,7.1,7.1,0,0,0-.75-.22c-.41-.14-.82-.29-1.24-.41s-.78-.37-1.23-.5c-.6-.19-1-.53-1.62-.69s-1.12-.43-1.72-.62-1-.42-1.47-.62a3.37,3.37,0,0,0-.69-.28,1.93,1.93,0,0,1-.52-.19l-.06,0h0l-.08-.05c-.34-.2-.79-.31-1.17-.48-.65-.29-1.31-.56-1.94-.86-.33-.15-.71-.26-1.06-.39-.63-.24-1.38-.34-2-.56a8.12,8.12,0,0,1-.77-.28,4.05,4.05,0,0,0-1.09-.3,2.63,2.63,0,0,1-.69-.24,3.8,3.8,0,0,0-1.07-.28,2.72,2.72,0,0,1-.9-.31c-.16-.07-.33-.14-.48-.22a2.2,2.2,0,0,0-.81-.17H352l-.11,0h0l0,0,0,0,0,0a.77.77,0,0,0-.34-.08,3.32,3.32,0,0,1-1.26-.36,7.16,7.16,0,0,0-1.35-.46,9.08,9.08,0,0,1-1-.26l-.07-.05a.11.11,0,0,0-.06-.13.49.49,0,0,0-.15,0h-.1a3.07,3.07,0,0,1-.75-.16,1.89,1.89,0,0,1-.29-.14h0l-.06,0,0,0a2,2,0,0,0-.36-.15l-.2-.06-.32-.11-.12-.05a9.3,9.3,0,0,0-1.36-.55c-.63-.22-1.17-.53-1.81-.74s-1.48-.58-2.19-.9c-.31-.14-.65-.25-1-.39s-.6-.34-1-.48a2.11,2.11,0,0,0-.34-.13,19.19,19.19,0,0,1-2.38-.81c-.47-.16-.85-.4-1.34-.54-.19-.06-.43-.07-.61-.13l-.19-.06a2.9,2.9,0,0,1-.54-.22h0l-.06,0,0,0a4.08,4.08,0,0,0-.67-.3l-.24-.08a.84.84,0,0,0-.32,0,2,2,0,0,1-.71-.19,10.77,10.77,0,0,1-1.59-.62,3.16,3.16,0,0,0-.54-.19l-.19-.07-.27-.14h0c-.18-.1-.33-.22-.5-.32a4.7,4.7,0,0,0-.92-.35c-.58-.19-1.21-.28-1.82-.42-.16,0-.34-.06-.51-.09a1.15,1.15,0,0,1-.39-.12c-.76.25-1.46.54-2.17.84s-1.54.7-2.28,1.07c-.53.27-1.06.55-1.58.83-.05,0-.1.1-.23.06l-9.58,5.57h0a.84.84,0,0,0,.43.08c.6,0,1.2.06,1.81,0a4.1,4.1,0,0,1,.69,0,7.13,7.13,0,0,0,1.29,0,3.71,3.71,0,0,1,.48,0,10.35,10.35,0,0,0,1.41.05,8,8,0,0,1,1.38.1h.12a17.92,17.92,0,0,1,2,.08,11.06,11.06,0,0,0,1.52.08c.67,0,1.28.13,1.93.14s1,.18,1.61.21h.29a1.7,1.7,0,0,1,.77.07,2,2,0,0,0,.56.07,7.6,7.6,0,0,1,.9.12,3.89,3.89,0,0,0,.59,0,6.17,6.17,0,0,0,1,.06.84.84,0,0,1,.47.08h0c.69-.2,1.42-.33,2.15-.47.57-.12,1.18-.18,1.78-.24a31.07,31.07,0,0,1,13.15,1.31,34.72,34.72,0,0,1,5.27,2.25l2.06,1.08.17.08a.64.64,0,0,1,.5.1h0l.06,0c.27.15.63.23.92.37.13.07.29.11.41.18h0l0,0,.19.08a9.59,9.59,0,0,1,2,.8,3.6,3.6,0,0,0,1.05.39,1.67,1.67,0,0,1,.35.12,11.89,11.89,0,0,0,1.14.36,2.46,2.46,0,0,1,.55.25c.57.27,1.15.54,1.77.79s1,.4,1.43.62c.2.09.46.09.65.18.38.16.82.26,1.17.44l.21.07c.61.19,1.1.49,1.66.71a8.39,8.39,0,0,1,.78.32,7.25,7.25,0,0,0,1.68.57,1.48,1.48,0,0,1,.36.15h0l.18.11.06,0,.06,0a14.37,14.37,0,0,0,1.89.74,3,3,0,0,1,.44.21h0l.07,0,.07,0,0,0a9.82,9.82,0,0,0,.94.34c.43.2,1,.29,1.43.46a1.7,1.7,0,0,1,.27.1h0l0,0,.25.17h0a4.74,4.74,0,0,0,.9.38c.85.26,1.59.62,2.43.87.22.07.35.2.58.28s.6.25.94.34l.09,0a7.07,7.07,0,0,0,1.24.46l.1.05a1,1,0,0,0,.23.17,4.4,4.4,0,0,0,.75.3,4.07,4.07,0,0,1,.81.36h0l.08,0a6.3,6.3,0,0,1,.53.36l0,0a.32.32,0,0,0,.21,0,.63.63,0,0,1,.37.07h0l0,0,0,0a5.92,5.92,0,0,0,.5.37l.19.11a4.16,4.16,0,0,0,.53.26l.15.07h0l.11.07,0,0,.13.12.07.08a.65.65,0,0,0,.15.13l.06,0,.19.09.25.13a1,1,0,0,1,.32.26,1.42,1.42,0,0,0,.41.4l.08,0a2.26,2.26,0,0,0,.54.22,1.14,1.14,0,0,1,.25.09h0l0,0a.15.15,0,0,1,0,.1l.06,0a.32.32,0,0,1,.19,0h0a.33.33,0,0,1,.09.08l0,0a5.37,5.37,0,0,1,.65.68.64.64,0,0,0,.13.14l.1.07a1.31,1.31,0,0,0,.26.11l.14.06h0a.32.32,0,0,1,.14.14,1.36,1.36,0,0,0,.38.47l.08.07.08.07.13.1,0,0a1,1,0,0,0,.28.11l.09,0,.13.1c.1.14.22.28.34.42l.16.1a1,1,0,0,1,.22.09h0l.12.08a2.26,2.26,0,0,1,.26.3,3.71,3.71,0,0,0,.37.41,1.39,1.39,0,0,0,.22.16l.25.11.15.12a1.31,1.31,0,0,0,.35.46.6.6,0,0,0,.15.12h0c.14.08.32.14.47.21s.3.16.45.24l.08.12.07.16c.3.17.29.43.54.63l.1.1.07.06.08,0,.08,0h0a.42.42,0,0,1,.16.15l0,.06,0,.08a.32.32,0,0,0,.12.12h0a6.2,6.2,0,0,0,.32-2,7.6,7.6,0,0,0-1.29-4.24,14,14,0,0,0-3.47-3.57,37.08,37.08,0,0,0-3.08-2.07c-.11-.07-.11-.07-.12-.14"/>
      <path class="cls-32" d="M292.94,375.37h-.19l-2.62-1a4.17,4.17,0,0,1-.42-.16.43.43,0,0,0-.33,0l.34.15.09.09h-.16a5.64,5.64,0,0,1-.78-.28l0,0a2.75,2.75,0,0,1-.29-.11h0a.17.17,0,0,1-.08-.1l0,0a9.78,9.78,0,0,1-1.34-.54,6,6,0,0,0-.74-.18,14.7,14.7,0,0,1-2.37-.59,9.71,9.71,0,0,0-1.88-.38c-.38,0-.73-.16-1.11-.21s-.83-.06-1.23-.11a6,6,0,0,1-1.32-.31,4.06,4.06,0,0,0-.91-.13,13.51,13.51,0,0,1-1.52-.19,1.36,1.36,0,0,0-.35,0,3.57,3.57,0,0,1-1,0,4.42,4.42,0,0,0-.85-.16,5.89,5.89,0,0,0,0,1.7,7.57,7.57,0,0,0,1.16,3.21,12.21,12.21,0,0,0,2.47,2.83,31.36,31.36,0,0,0,4,2.81c.11.07.12.07.1.13l1,.6h0v0l.1.06h0v0L309.53,398c.14-.16.35-.31.19-.51v-.09c.24-.22.07-.46.16-.69s0-.75.23-1.11v-.12c-.15-.26,0-.5.14-.74l0-.1c-.25-.14,0-.3-.05-.45a.49.49,0,0,1,0-.46c.08-.12,0-.24,0-.35a2.25,2.25,0,0,0-.09-1,4.75,4.75,0,0,0-.32-1.21c-.16-.27-.28-.54-.45-.8l-.05-.1a10.79,10.79,0,0,0-.44-1.27,3.08,3.08,0,0,0-.41-.74,8.71,8.71,0,0,1-.76-1.29l-.07-.07h-.14l0,0h0c-.08,0,0-.13,0-.18s-.12-.34-.26-.5l-.13-.17c0-.05,0-.09,0-.12l.14,0-1.78-1c-1.87-1.09-3.75-2.18-5.55-3.31l-1.43-.87c-.59-.36-1.08-.76-1.63-1.14a16.2,16.2,0,0,1-2.13-1.79,12.61,12.61,0,0,1-1.34-1.57c-.16-.22-.25-.45-.43-.67"/>
      <path class="cls-33" d="M384.35,359.71,352,341a.17.17,0,0,1-.14,0l-.08-.06-1.53-.8c-.44-.22-.87-.44-1.34-.65l-1.06-.46c-.36-.17-.75-.31-1.13-.47s-.93-.34-1.41-.5c-.87-.29-1.78-.55-2.73-.76a34.69,34.69,0,0,0-5.76-.81,35.17,35.17,0,0,0-7.29.34,30.09,30.09,0,0,0-5.42,1.31l-.16.06a1.15,1.15,0,0,0,.39.12c.16,0,.34.05.51.09.61.14,1.24.23,1.82.42a4.7,4.7,0,0,1,.92.35c.17.1.33.22.5.32h0l.27.14.19.07a3.16,3.16,0,0,1,.54.19,10.77,10.77,0,0,0,1.59.62,2,2,0,0,0,.71.19.84.84,0,0,1,.32,0l.24.08a4.08,4.08,0,0,1,.67.3h0l0,0,.06,0a2.9,2.9,0,0,0,.54.22l.19.06c.18.06.42.07.61.13.49.14.87.38,1.34.54a19.19,19.19,0,0,0,2.38.81,2.11,2.11,0,0,1,.34.13c.36.14.62.33,1,.48s.64.25,1,.39c.71.31,1.42.63,2.19.9s1.18.53,1.81.74a9.3,9.3,0,0,1,1.36.55l.12.05.32.11.2.06a2,2,0,0,1,.36.15h0l0,0,.06,0h0a1.89,1.89,0,0,0,.29.14,3.07,3.07,0,0,0,.75.16h.1a.49.49,0,0,1,.15,0h0a.11.11,0,0,1,.06.13l.07.05a9.08,9.08,0,0,0,1,.26,7.16,7.16,0,0,1,1.35.46,3.32,3.32,0,0,0,1.26.36.77.77,0,0,1,.34.08l0,0,0,0,0,0h0l.11,0h.19a2.2,2.2,0,0,1,.81.17c.15.08.32.14.48.22a2.72,2.72,0,0,0,.9.31,3.8,3.8,0,0,1,1.07.28,2.63,2.63,0,0,0,.69.24,4.05,4.05,0,0,1,1.09.3,8.12,8.12,0,0,0,.77.28c.65.22,1.4.32,2,.56.35.13.74.24,1.06.39.63.3,1.3.57,1.94.86.38.17.83.28,1.17.48l.08.05.06,0a1.93,1.93,0,0,0,.52.19,3.37,3.37,0,0,1,.69.28c.5.2,1,.45,1.47.62s1.1.46,1.72.62,1,.51,1.62.69c.45.14.76.38,1.23.5s.83.27,1.24.41a7.1,7.1,0,0,1,.75.22.79.79,0,0,0,.62.12h.07c.11.06.25.1.35.16l.09.07a.54.54,0,0,0,.12.1h0a.49.49,0,0,0,.3.06.94.94,0,0,1,.63.18l.11.07.1.07a.44.44,0,0,0,.19.06.66.66,0,0,0,.22,0,.35.35,0,0,1,.25.07l.11.07h0l.1.06a3.25,3.25,0,0,0,.84.28c.07,0,.13,0,.17,0a.08.08,0,0,0,0-.06.06.06,0,0,1,0-.05.22.22,0,0,1,.16,0l.14.05.13.06h0l0,0,.11.07a1.61,1.61,0,0,0,.29.13l.1,0c.65.17,1.18.44,1.76.65q1.12.4,2.28.75a2.4,2.4,0,0,1,.48.2h0l.1.06.09.07.09.06a.92.92,0,0,0,.29.1.82.82,0,0,0,.3,0"/>
      <path class="cls-34" d="M383.93,364.62a.63.63,0,0,0-.37-.07.32.32,0,0,1-.21,0h0l0,0a6.3,6.3,0,0,0-.53-.36l-.08,0a4.07,4.07,0,0,0-.81-.36,4.4,4.4,0,0,1-.75-.3h0a1,1,0,0,1-.23-.17l-.1-.05a7.07,7.07,0,0,1-1.24-.46l-.09,0c-.34-.1-.62-.25-.94-.34s-.36-.21-.58-.28c-.85-.26-1.59-.62-2.43-.87a4.74,4.74,0,0,1-.9-.38h0l-.25-.17,0,0a1.7,1.7,0,0,0-.27-.1c-.46-.16-1-.26-1.43-.46a9.82,9.82,0,0,1-.94-.34h0l0,0-.07,0-.07,0a3,3,0,0,0-.44-.21,14.37,14.37,0,0,1-1.89-.74l-.06,0-.06,0-.18-.11a1.48,1.48,0,0,0-.36-.15,7.25,7.25,0,0,1-1.68-.57,8.39,8.39,0,0,0-.78-.32c-.57-.22-1.05-.52-1.66-.71l-.21-.07c-.35-.19-.79-.28-1.17-.44-.19-.09-.45-.09-.65-.18q-.69-.32-1.43-.62c-.61-.25-1.19-.52-1.77-.79a2.46,2.46,0,0,0-.55-.25,11.89,11.89,0,0,1-1.14-.36,1.67,1.67,0,0,0-.35-.12,3.6,3.6,0,0,1-1.05-.39,9.59,9.59,0,0,0-2-.8l-.19-.08,0,0h0c-.12-.07-.28-.12-.41-.18-.28-.14-.65-.21-.92-.37l-.06,0h0a.64.64,0,0,0-.5-.1l2.63,1.47,3.47,2,2,1.13.49.28h0l.42.25,2.12,1.23,2.54,1.47q2.71,1.58,5.29,3.2a23.9,23.9,0,0,1,4.78,3.7,9.77,9.77,0,0,1,1.91,2.86,6.43,6.43,0,0,1,.47,2.42v.14l.16.12a.91.91,0,0,0,.23.24l.1.07.27.12.13.06h0l.08.05a.61.61,0,0,1,.17.18c.08.12.26.24.25.39l.16.12.16,0s0-.07,0-.08.09,0,.13,0h0l.11.06h0l0,0a.15.15,0,0,1,.07.19c0,.12.15.23.25.34l.16,0a.34.34,0,0,1,.26,0h0a1,1,0,0,1,.14.11c.23.18.25.4.38.6a1.14,1.14,0,0,0,.32.33l.15.09.06,0,.09,0h0l.09.06a.34.34,0,0,1,.15.2l0,.06a1.4,1.4,0,0,1,.44.62.2.2,0,0,0,.06.08l0,0,.12,0,.22.1.18.11.07,0,.08,0a1,1,0,0,0,.29.11l.07,0h0l0,0a.12.12,0,0,1,0,.14l-.21.11-.1,0s0,0,0,.07l.09.07.1.06.11.06a.35.35,0,0,1,.18.17H384a.25.25,0,0,1-.1,0s-.08,0-.12,0h0s0,.06,0,.09l0,0,.06,0,.16.07h0l0,0a.81.81,0,0,1,.29.52,1.13,1.13,0,0,0,.18.34c.16.19.06.42.27.6l0,.09a.43.43,0,0,0,.24.36,1,1,0,0,1,.22.15l.06.14c-.1.06-.14,0-.25,0l.1.13,0,0h0a1,1,0,0,1,.24.23l0,.1c-.1.27.16.48.32.7s.32.28.45.43.07.25.11.38a3,3,0,0,1,.12.71.48.48,0,0,0,.19.29l.48-.28.21-.12.17-.1v0h0l1-.6c-.07-.06,0-.08.07-.11.95-.59,1.85-1.19,2.7-1.82a11.79,11.79,0,0,0,4.51-5.6l0-.17h0a.32.32,0,0,1-.12-.12l0-.08,0-.06a.42.42,0,0,0-.16-.15l-.08,0-.08,0h0l-.07-.06-.1-.1c-.25-.19-.24-.46-.54-.63l-.07-.16-.08-.12c-.15-.08-.28-.16-.45-.24s-.33-.13-.47-.21h0a.6.6,0,0,1-.15-.12,1.31,1.31,0,0,1-.35-.46l-.15-.12-.25-.11h0a1.39,1.39,0,0,1-.22-.16,3.71,3.71,0,0,1-.37-.41,2.26,2.26,0,0,0-.26-.3l-.12-.08h0a1,1,0,0,0-.22-.09l-.16-.1c-.13-.14-.24-.28-.34-.42l-.13-.1-.09,0a1,1,0,0,1-.28-.11h0l0,0-.13-.1-.08-.07-.08-.07a1.36,1.36,0,0,1-.38-.47.32.32,0,0,0-.14-.14h0l-.14-.06a1.31,1.31,0,0,1-.26-.11l-.1-.07a.64.64,0,0,1-.13-.14,5.37,5.37,0,0,0-.65-.68l0,0a.33.33,0,0,0-.09-.08h0a.32.32,0,0,0-.19,0l-.06,0a.15.15,0,0,0,0-.1l0,0h0a1.14,1.14,0,0,0-.25-.09,2.26,2.26,0,0,1-.54-.22h0l-.08,0a1.42,1.42,0,0,1-.41-.4,1,1,0,0,0-.32-.26l-.25-.13-.19-.09-.06,0a.65.65,0,0,1-.15-.13l-.07-.08-.13-.12,0,0-.11-.07-.15-.07a4.16,4.16,0,0,1-.53-.26h0l-.19-.11a5.92,5.92,0,0,1-.5-.37l0,0,0,0h0"/>
      <path class="cls-35" d="M364.92,394c0-.09-.06-.18.09-.28a.2.2,0,0,1-.09.28m.76-9.78h0l-1.33.76-8.8,5.1c-1.4.8-2.81,1.59-4.26,2.36l-.17.1v.09l-.06,0a.91.91,0,0,0-.43.58c-.1.28-.27.56-.4.83a8.21,8.21,0,0,1-.71,1.23c-.41.59-.74,1.19-1.21,1.77s-.92,1.15-1.43,1.71a9.56,9.56,0,0,1-.92,1l-.09.06a.63.63,0,0,1-.35.07.45.45,0,0,0-.21,0,.17.17,0,0,0-.07.06,5.09,5.09,0,0,1-.66.62c-.11.11-.29.19-.42.3-.3.23-.61.46-.88.7-.59.49-1.29.93-1.93,1.39-.41.3-.83.59-1.28.87a1.31,1.31,0,0,0-.19.16l-.1.08a.8.8,0,0,1-.27.09.2.2,0,0,1,.13-.2l0,0,.17-.08a4.58,4.58,0,0,0,.4-.29,5.51,5.51,0,0,1,.62-.48L341,403l.09,0c.16-.09.27-.21.43-.3l.09,0h0c.11-.06.17-.2.32-.28v-.1l-.14,0-.34.19-.19.12-1.24.89c-.43.3-.91.58-1.38.87l-.07,0c-.37.22-.81.38-1.21.56l-.24.12-.36.23-.09.06c-.22.13-.48.25-.71.38l-.1.06a2.22,2.22,0,0,1-.88.3.5.5,0,0,0-.2.07l-.08,0-.09,0a12.47,12.47,0,0,0-1.14.52c-.28.15-.66.21-.92.36l-.05,0c-.09.06-.27,0-.37.1h0a34,34,0,0,0,15.41-2.16c.72-.29,1.42-.59,2.08-.91l1.13-.57c.46-.24.94-.48,1.38-.73h.11l.14-.08a.07.07,0,0,1,0-.1.29.29,0,0,1,.18,0l.61-.36a.5.5,0,0,1,.16-.15.92.92,0,0,1,.25-.09l.21-.12v0h0l.76-.44.15-.13,2.93-1.7.22-.08.1-.06.09-.09,1.5-.87.16-.05,1.44-.84.14-.08.55-.32.13-.08.52-.3a.31.31,0,0,1,.12-.11.57.57,0,0,1,.19-.06l.07,0,.16-.13,1.07-.62c-.1-.13,0-.24.07-.35.18-.47.38-.94.57-1.41v-.05l.13-.08.05.1a3.82,3.82,0,0,1-.19.62l0,.06.09-.06q.26-.7.46-1.41c.12-.42.21-.85.32-1.27q.33-1.39.54-2.8a3.74,3.74,0,0,0,0-1,3.83,3.83,0,0,1,0-.71c0-.53,0-1.06,0-1.6l-.05-.07-.1.06v.1a2.37,2.37,0,0,0,0,.32c0,.46-.09.91-.06,1.36a.14.14,0,0,1-.09.14c-.14-.15-.08-.3-.06-.44,0-.43,0-.86.05-1.29a2.2,2.2,0,0,0,0-.85,3,3,0,0,1-.15-.92.2.2,0,0,0-.12-.17"/>
      <path class="cls-36" d="M383,376.68a.56.56,0,0,1,.2.06.61.61,0,0,1,.14.12.52.52,0,0,1-.24-.05.22.22,0,0,1-.1-.13m-5-4.61a6.71,6.71,0,0,1-.37,2.11,11,11,0,0,1-3.33,4.36,21.75,21.75,0,0,1-1.83,1.39l-.12.1c.1.11.2.2.17.34a.14.14,0,0,0,0,.11.34.34,0,0,0,.11.09l.1,0,.11,0h0a.36.36,0,0,1,.19.27v0a.36.36,0,0,0,.06.22,2.29,2.29,0,0,1,.32.83.62.62,0,0,0,.31.37c.22.14.38.3.61.43l.08,0,.06.09c-.06.12.07.24,0,.34a1.18,1.18,0,0,0,.08.5,3.3,3.3,0,0,1,.07.66.61.61,0,0,0,.09.27.39.39,0,0,0,.12.11l0,0,.18.09h0l.17.11.15.13a.66.66,0,0,1,.2.3,4.1,4.1,0,0,1,.07,1,.55.55,0,0,0,.2.49c.16.16.11.36.1.53s.08.37,0,.56l.08.06.07-.06h0c-.11-.4.19-.79.1-1.2l.07-.1.1.09a.79.79,0,0,1,0,.66.54.54,0,0,0,0,.34c0,.22,0,.45.06.67l.13.13,10.05-5.84a.48.48,0,0,1-.19-.29,3,3,0,0,0-.12-.71c0-.12,0-.27-.11-.38s-.33-.28-.45-.43-.43-.43-.32-.7l0-.1a1,1,0,0,0-.24-.23l0,0-.1-.13c.1,0,.15.09.25,0l-.06-.14a1,1,0,0,0-.22-.15.43.43,0,0,1-.24-.36l0-.09c-.21-.18-.11-.41-.27-.6a1.13,1.13,0,0,1-.18-.34.81.81,0,0,0-.29-.52l0,0-.16-.07-.06,0h0l0,0s-.06-.07,0-.09h0s.08,0,.12,0a.25.25,0,0,0,.1,0h.06a.35.35,0,0,0-.18-.17l-.11-.06h0l-.1-.06-.09-.07s0-.06,0-.07l.1,0,.21-.11a.12.12,0,0,0,0-.14l0,0-.07,0a1,1,0,0,1-.29-.11h0l-.08,0-.07,0-.18-.11-.22-.1-.12,0h0l0,0a.2.2,0,0,1-.06-.08,1.4,1.4,0,0,0-.44-.62l0-.06a.34.34,0,0,0-.15-.2l-.09-.06h0l-.09,0-.06,0h0l-.15-.09a1.14,1.14,0,0,1-.32-.33c-.13-.2-.15-.42-.38-.6a1,1,0,0,0-.14-.11h0a.34.34,0,0,0-.26,0l-.16,0c-.1-.11-.29-.22-.25-.34a.15.15,0,0,0-.07-.19l0,0h0l-.11-.06h0s-.1-.05-.13,0,0,0,0,.08l-.16,0-.16-.12c0-.15-.17-.26-.25-.39a.61.61,0,0,0-.17-.18l-.08-.05-.13-.06-.27-.12h0l-.1-.07a.91.91,0,0,1-.23-.24l-.16-.12"/>
      <path class="cls-37" d="M372.39,380l-2.44,1.55c-1.33.85-2.73,1.66-4.11,2.48l-.18.12h0a.2.2,0,0,1,.12.17,3,3,0,0,0,.15.92,2.2,2.2,0,0,1,0,.85c-.06.43,0,.86-.05,1.29,0,.14-.08.29.06.44a.14.14,0,0,0,.09-.14c0-.46.11-.91.06-1.36a2.37,2.37,0,0,1,0-.32V386l.1-.06.05.07c0,.53,0,1.06,0,1.6a3.83,3.83,0,0,0,0,.71,3.74,3.74,0,0,1,0,1q-.22,1.41-.54,2.8c-.11.43-.2.85-.32,1.27s-.28.94-.46,1.41l-.09.06,0-.06a3.82,3.82,0,0,0,.19-.62l-.05-.1-.13.08v.05c-.19.47-.39.94-.57,1.41,0,.11-.18.22-.07.35l0,0,.41-.24a.55.55,0,0,1,.16-.14,1,1,0,0,1,.24-.1l.41-.24.17-.1.24-.14.1-.06,1.07-.62.1-.06.52-.3.2-.12.41-.24a.37.37,0,0,1,.13-.12.71.71,0,0,1,.21-.08l.14-.08a.55.55,0,0,1,.16-.14,1,1,0,0,1,.24-.1l.83-.48.13-.08,4.16-2.41.1-.06.48-.28.07,0,1.82-1.06-.13-.13c0-.22,0-.45-.06-.67a.54.54,0,0,1,0-.34.79.79,0,0,0,0-.66l-.1-.09-.07.1c.09.4-.21.8-.1,1.2h0l-.07.06-.08-.06c.08-.19,0-.37,0-.56s.06-.37-.1-.53a.55.55,0,0,1-.2-.49,4.1,4.1,0,0,0-.07-1,.66.66,0,0,0-.2-.3l-.15-.13-.17-.11-.18-.09,0,0h0a.39.39,0,0,1-.12-.11.61.61,0,0,1-.09-.27,3.3,3.3,0,0,0-.07-.66,1.18,1.18,0,0,1-.08-.5c0-.11-.11-.22,0-.34l-.06-.09-.08,0h0c-.23-.13-.39-.29-.61-.43a.62.62,0,0,1-.31-.37,2.29,2.29,0,0,0-.32-.83.36.36,0,0,1-.06-.22v0a.36.36,0,0,0-.19-.27l-.11,0-.1,0h0a.34.34,0,0,1-.11-.09.14.14,0,0,1,0-.11c0-.14-.08-.23-.17-.34"/>
      <path class="cls-36" d="M323,349.35l-.2-.08c-.41,0-.77-.13-1.17-.16a3.42,3.42,0,0,1-.67-.1,3.81,3.81,0,0,0-1,0h-.28a5.43,5.43,0,0,0-1.24-.09,4.86,4.86,0,0,1-1-.09,10.67,10.67,0,0,0-1.29-.12l-.3,0a2.48,2.48,0,0,0-.67,0,8,8,0,0,1-1.37-.08,2,2,0,0,0-.62,0,2.17,2.17,0,0,1-.8,0,4.33,4.33,0,0,0-1.11,0,3.75,3.75,0,0,1-.73,0c-.57-.06-1.15-.12-1.72-.15a13.36,13.36,0,0,0-1.44,0,6.38,6.38,0,0,1-.91-.06c-.35,0-.68,0-1,0l-.23-.07-6.11,3.55.24.07c.8.15,1.63.25,2.44.36a21.09,21.09,0,0,1,2.66.43,13.34,13.34,0,0,1,1.41.44l.08,0a6.76,6.76,0,0,1,1.35.37c.44.1.91.15,1.37.23a10.57,10.57,0,0,1,2.15.51,2,2,0,0,0,.59.15,1.55,1.55,0,0,1,.41.15,7.16,7.16,0,0,0,.9.3l2.73-1.55c1.88-1.06,3.78-2.11,5.77-3.1.47-.23,1-.44,1.45-.66l.4-.21"/>
      <path class="cls-38" d="M279.77,363.26l.07-.06-.07.06M299,363a1.6,1.6,0,0,0-.31-.1,10.27,10.27,0,0,1-1.41-.36c-.59-.16-1.2-.26-1.81-.37a4.4,4.4,0,0,1-.54-.12,6.3,6.3,0,0,0-1-.15,8.84,8.84,0,0,1-.9-.26,4.31,4.31,0,0,0-.94-.12,2.92,2.92,0,0,1-1.09-.21l-.25-.05a13.7,13.7,0,0,0-1.88-.18c-.63,0-1.23-.11-1.87-.11a10.62,10.62,0,0,1-1.09-.11,11.1,11.1,0,0,0-1.69-.1h-.07a.43.43,0,0,1-.19-.05h0l-.72.42a.78.78,0,0,1-.21.17,1.29,1.29,0,0,1-.3.12l-1.1.64c.08.07-.06.09-.1.13l-1.47.94-.13.09-.07.06-.18.11.08.06a.14.14,0,0,0,0,.07l0,0a.86.86,0,0,0,.34,0,11,11,0,0,1,3,.46,7.85,7.85,0,0,0,1.43.28c.6.06,1.19.17,1.78.25a11.34,11.34,0,0,1,1.58.28c.7.18,1.4.35,2.07.57.37.12.8.2,1.21.29.62.13,1.21.31,1.82.46l.09,0h0l0,0s0,.05,0,.09l0,0a.31.31,0,0,1-.2,0c-.68-.13-1.31-.34-2-.53l-.61-.17a.75.75,0,0,0-.4,0,1.8,1.8,0,0,1-.88,0,.4.4,0,0,0-.3,0l-.07.05,0,0a1.4,1.4,0,0,1-.56,0,8.51,8.51,0,0,1-1-.17l-.4-.05h-.16a.19.19,0,0,1-.07.07c-.13.07-.34,0-.5.08h0a.38.38,0,0,0,.19,0,.44.44,0,0,1,.22,0,1.57,1.57,0,0,1-.69.06,6.62,6.62,0,0,0-1.19-.19c-.32,0-.63-.06-1-.07l-.16,0,0,0c-.11.07-.26,0-.41,0a11.23,11.23,0,0,0-1.14-.08.59.59,0,0,0-.22,0,.12.12,0,0,0-.06.07l-.18,0a2.19,2.19,0,0,1-.54-.08,1.4,1.4,0,0,0-.89,0c.35.08.73.06,1.09.15.11,0,.24,0,.35.08a2.38,2.38,0,0,0,.52.12l.19,0a.86.86,0,0,1,.29.09h0l0,0,0,0,.31.07a3.74,3.74,0,0,1,1.21.3,3.75,3.75,0,0,0,.87.21,4.49,4.49,0,0,1,1.18.39,15.69,15.69,0,0,0,1.79.59c.85.24,1.73.44,2.56.71.19.06.32.16.53.21l0,.07s-.06,0-.06.06h0a0,0,0,0,0,0,0l0,0,.13,0c.27.08.53.15.8.21a2.48,2.48,0,0,1,.66.25h0l.05,0a12.16,12.16,0,0,1,1.93-2.79,13.64,13.64,0,0,1,1.37-1.29A34.66,34.66,0,0,1,299,363"/>
      <path class="cls-39" d="M316,390.82l-2.16-1.24-6.45-3.71-.19-.11-.14,0s0,.07,0,.12l.13.17c.13.15.33.3.26.5s-.07.14,0,.18l0,0h.14l.07.07a8.71,8.71,0,0,0,.76,1.29,3.08,3.08,0,0,1,.41.74,10.79,10.79,0,0,1,.44,1.27l.05.1c.17.26.29.53.45.8a4.75,4.75,0,0,1,.32,1.21,2.25,2.25,0,0,1,.09,1c0,.12.08.24,0,.35a.49.49,0,0,0,0,.46c0,.15-.19.31.05.45l0,.1c-.1.24-.29.49-.14.74v.12c-.19.36-.08.74-.23,1.11s.08.47-.16.69v.09c.16.2-.05.35-.19.51l4.18,2.41c.18-.19.16-.4.21-.6s0-.15.08-.22a.86.86,0,0,0,.23-.56.78.78,0,0,1,.12-.37c.08-.17.24-.32.12-.51s.1-.15.18-.22a.57.57,0,0,0,.26-.51.6.6,0,0,1,.2-.36.4.4,0,0,0,.13-.36.36.36,0,0,1,.19-.39l.14-.06.07,0a.21.21,0,0,0,.1-.33c0-.07-.08-.15,0-.2a.27.27,0,0,0,.14-.25c0-.26.34-.5.24-.76s0-.66.09-1a8.64,8.64,0,0,0,0-1.16.7.7,0,0,0-.11-.4.53.53,0,0,1,0-.32A1.46,1.46,0,0,0,316,391c0-.06-.06-.11,0-.15"/>
      <path class="cls-40" d="M303.86,360c-.49-.18-1.06-.29-1.53-.48a7.81,7.81,0,0,0-1-.22,1.3,1.3,0,0,1-.34-.15,3.5,3.5,0,0,0-1-.3c-.59-.12-1.2-.15-1.76-.32-.13,0-.26,0-.41,0a10,10,0,0,1-1.61-.34A4.67,4.67,0,0,0,295,358a7.22,7.22,0,0,1-1.41-.25c-.43-.11-.92-.11-1.36-.19-.64-.11-1.29-.17-1.94-.25h0a.76.76,0,0,1-.28-.09h0l0,0-6,3.51h0a.43.43,0,0,0,.19.05h.07a11.1,11.1,0,0,1,1.69.1,10.62,10.62,0,0,0,1.09.11c.64,0,1.24.12,1.87.11a13.7,13.7,0,0,1,1.88.18l.25.05a2.92,2.92,0,0,0,1.09.21,4.31,4.31,0,0,1,.94.12,8.84,8.84,0,0,0,.9.26,6.3,6.3,0,0,1,1,.15,4.4,4.4,0,0,0,.54.12c.61.1,1.22.21,1.81.37a10.27,10.27,0,0,0,1.41.36,1.6,1.6,0,0,1,.31.1l2-1.24,2.89-1.74"/>
      <path class="cls-41" d="M311.82,355.33a1,1,0,0,0-.3-.1l-.42-.08c-.51-.13-1-.28-1.56-.39-.86-.17-1.67-.4-2.54-.54-1-.17-2.05-.36-3-.58-.48-.11-1-.21-1.46-.29s-.86-.09-1.28-.18c-1-.22-2-.21-3-.36l-.34-.06a.67.67,0,0,1-.18-.07h0l-4.91,2.85.09,0a11,11,0,0,0,1.38.29c.61,0,1.2.15,1.8.21a11.36,11.36,0,0,1,1.49.19,6.61,6.61,0,0,0,1.06.19c.28,0,.56.06.83.09a1.85,1.85,0,0,1,.54.15,7.21,7.21,0,0,0,1.52.4c1,.23,2,.48,3,.74.71.19,1.44.36,2.11.59l.15-.08,5-2.91.13-.08,0,0"/>
      <path class="cls-42" d="M316.2,401.8l0,0,0,0m1.6.87,0,0,0,0m4.66-8.51c-.36-.17-.75-.31-1.1-.49s-.54-.26-.79-.4c-.54-.31-1.11-.59-1.67-.88l-.06,0L316,390.82c-.09,0-.06.09,0,.15a1.46,1.46,0,0,1,.12.81.53.53,0,0,0,0,.32.7.7,0,0,1,.11.4,8.64,8.64,0,0,1,0,1.16c0,.33-.23.64-.09,1s-.21.5-.24.76a.27.27,0,0,1-.14.25c-.08.06-.05.13,0,.2a.21.21,0,0,1-.1.33l-.07,0-.14.06a.36.36,0,0,0-.19.39.4.4,0,0,1-.13.36.6.6,0,0,0-.2.36.57.57,0,0,1-.26.51c-.08.06-.21.17-.18.22s0,.34-.12.51a.78.78,0,0,0-.12.37.86.86,0,0,1-.23.56c-.07.07-.06.15-.08.22s0,.41-.21.6l2.48,1.43,0,0,.59.34a.82.82,0,0,1,.24.09h0l0,0a.32.32,0,0,1,.09.11l.17.1a.3.3,0,0,1,.2,0h0l.06.05.05.06.11.06,0,0,0,0,.24.14a.36.36,0,0,1,.18,0s0,.05,0,.1l.13.08.08,0a2.89,2.89,0,0,0,.35-.67c.12-.3.2-.6.32-.9,0-.1.21-.18.2-.3a2.59,2.59,0,0,1,.16-.7l.08-.12c.07,0,.05-.09,0-.13l0,0,0,0h0a.45.45,0,0,1-.23-.25.26.26,0,0,1,0-.23.51.51,0,0,1,.11-.11.66.66,0,0,0,.21-.21s0-.08,0-.11a.28.28,0,0,0-.13,0l0-.08a1,1,0,0,0,.4-.64c.1-.3.1-.63.52-.87l.07-.12c0-.18.27-.29.34-.46l.07,0a.72.72,0,0,0,.28-.09c.19-.11.13-.3.18-.45a3.18,3.18,0,0,1,.39-.93,1.72,1.72,0,0,0,.2-.37c.12-.28.41-.53.42-.83a.23.23,0,0,1,.14-.19"/>
      <path class="cls-34" d="M327.34,347.91a.84.84,0,0,0-.47-.08,6.17,6.17,0,0,1-1-.06,3.89,3.89,0,0,1-.59,0,7.6,7.6,0,0,0-.9-.12,2,2,0,0,1-.56-.07,1.7,1.7,0,0,0-.77-.07h-.29c-.56,0-1-.2-1.61-.21s-1.26-.17-1.93-.14a11.06,11.06,0,0,1-1.52-.08,17.92,17.92,0,0,0-2-.08h-.12a8,8,0,0,0-1.38-.1,10.35,10.35,0,0,1-1.41-.05,3.71,3.71,0,0,0-.48,0,7.13,7.13,0,0,1-1.29,0,4.1,4.1,0,0,0-.69,0c-.61,0-1.21,0-1.81,0a.84.84,0,0,1-.43-.08h0l-2.92,1.7.23.07c.35,0,.68,0,1,0a6.38,6.38,0,0,0,.91.06,13.36,13.36,0,0,1,1.44,0c.58,0,1.15.08,1.72.15a3.75,3.75,0,0,0,.73,0,4.33,4.33,0,0,1,1.11,0,2.17,2.17,0,0,0,.8,0,2,2,0,0,1,.62,0,8,8,0,0,0,1.37.08,2.48,2.48,0,0,1,.67,0l.3,0a10.67,10.67,0,0,1,1.29.12,4.86,4.86,0,0,0,1,.09,5.43,5.43,0,0,1,1.24.09H320a3.81,3.81,0,0,1,1,0,3.42,3.42,0,0,0,.67.1c.4,0,.77.15,1.17.16l.2.08a.65.65,0,0,0,.33-.1,30.36,30.36,0,0,1,3.92-1.29l.1,0h0"/>
      <path class="cls-43" d="M306.56,358.42c-.67-.23-1.4-.4-2.11-.59-1-.26-2-.51-3-.74a7.21,7.21,0,0,1-1.52-.4,1.85,1.85,0,0,0-.54-.15c-.28,0-.55-.08-.83-.09a6.61,6.61,0,0,1-1.06-.19,11.36,11.36,0,0,0-1.49-.19c-.6-.06-1.19-.2-1.8-.21a11,11,0,0,1-1.38-.29l-.09,0-2.81,1.64,0,0a.76.76,0,0,0,.28.09h0c.65.08,1.3.14,1.94.25.44.08.93.08,1.36.19A7.22,7.22,0,0,0,295,358a4.67,4.67,0,0,1,1.2.21,10,10,0,0,0,1.61.34c.15,0,.27,0,.41,0,.55.16,1.17.2,1.76.32a3.5,3.5,0,0,1,1,.3,1.3,1.3,0,0,0,.34.15,7.81,7.81,0,0,1,1,.22c.48.19,1,.3,1.53.48l2.7-1.58"/>
      <path class="cls-37" d="M312.67,354.87a7.16,7.16,0,0,1-.9-.3,1.55,1.55,0,0,0-.41-.15,2,2,0,0,1-.59-.15,10.57,10.57,0,0,0-2.15-.51c-.46-.08-.93-.13-1.37-.23a6.76,6.76,0,0,0-1.35-.37l-.08,0a13.34,13.34,0,0,0-1.41-.44,21.09,21.09,0,0,0-2.66-.43c-.81-.12-1.64-.22-2.44-.36l-.24-.07-1.44.83h0a.67.67,0,0,0,.18.07l.34.06c1,.15,2.06.14,3,.36.42.09.86.11,1.28.18s1,.19,1.46.29c1,.22,2,.41,3,.58.87.14,1.69.37,2.54.54.54.1,1,.25,1.56.39l.42.08a1,1,0,0,1,.3.1l0,0,.43-.23.4-.25"/>
      <path class="cls-36" d="M357.86,399.65l-.22.08-2.93,1.7-.15.13,3.3-1.92"/>
      <path class="cls-36" d="M359.71,398.57l-.16.05-1.5.87-.09.09,1.75-1"/>
      <path class="cls-36" d="M364.14,396l0,0-1.07.62-.16.13,1.27-.74"/>
      <path class="cls-41" d="M318.65,403.12l-.09,0-.06,0,0,0-.08,0,.25.14.07,0,0,0"/>
      <path class="cls-41" d="M317.57,402.51a.3.3,0,0,0-.2,0l.28.16,0,0h0l-.05-.06-.06-.05h0"/>
      <path class="cls-41" d="M283.16,361.09l-.51.3a1.29,1.29,0,0,0,.3-.12.78.78,0,0,0,.21-.17"/>
      <path class="cls-36" d="M353.57,402.14a.92.92,0,0,0-.25.09.5.5,0,0,0-.16.15l.41-.24"/>
      <path class="cls-44" d="M352.54,402.74a.29.29,0,0,0-.18,0,.07.07,0,0,0,0,.1l.21-.12"/>
      <path class="cls-36" d="M365,395.52a1,1,0,0,0-.24.1.55.55,0,0,0-.16.14l.41-.24"/>
      <path class="cls-36" d="M369.08,393.13a1,1,0,0,0-.24.1.55.55,0,0,0-.16.14l.41-.24"/>
      <path class="cls-41" d="M318.22,402.87a.36.36,0,0,0-.18,0l.21.12c0-.05,0-.08,0-.1"/>
      <path class="cls-41" d="M317.07,402.25a.82.82,0,0,0-.24-.09l.38.22a.32.32,0,0,0-.09-.11l0,0h0"/>
      <path class="cls-36" d="M368.53,393.44a.71.71,0,0,0-.21.08.37.37,0,0,0-.13.12l.34-.2"/>
      <path class="cls-36" d="M362.8,396.78a.57.57,0,0,0-.19.06.31.31,0,0,0-.12.11l.3-.18"/>
      <polyline class="cls-36" points="367.77 393.88 367.57 394 367.77 393.88"/>
      <polyline class="cls-14" points="387.41 382.47 387.2 382.59 387.41 382.47"/>
      <polyline class="cls-36" points="365.55 395.18 365.38 395.28 365.55 395.18"/>
      <polyline class="cls-36" points="361.98 397.25 361.84 397.33 361.98 397.25"/>
      <polyline class="cls-36" points="361.29 397.65 361.15 397.73 361.29 397.65"/>
      <polyline class="cls-44" points="317.84 402.69 317.8 402.67 317.69 402.62 317.68 402.62 317.65 402.64 317.79 402.72 317.84 402.69"/>
      <polyline class="cls-36" points="370.04 392.57 369.91 392.64 370.04 392.57"/>
      <polyline class="cls-36" points="365.89 394.98 365.79 395.04 365.89 394.98"/>
      <polyline class="cls-36" points="367.06 394.3 366.95 394.36 367.06 394.3"/>
      <polyline class="cls-36" points="374.3 390.09 374.2 390.15 374.3 390.09"/>
      <polyline class="cls-36" points="374.85 389.77 374.78 389.81 374.85 389.77"/>
      <polyline class="cls-14" points="387.62 382.35 387.59 382.35 387.58 382.37 387.62 382.35"/>
      <polyline class="cls-36" points="353.81 402 353.78 402 353.78 402.02 353.81 402"/>
      <polyline class="cls-41" points="282.55 382.34 282.52 382.35 282.56 382.38 282.55 382.34"/>
      <polyline class="cls-41" points="282.69 382.43 282.66 382.44 282.69 382.45 282.69 382.43"/>
      <polyline class="cls-41" points="316.24 401.82 316.2 401.8 316.24 401.82"/>
      <path class="cls-45" d="M318.84,392.35l.06,0-.06,0m45.91-27.61.06,0-.06,0m-8.54-5,.76.44,2.29,1.33,3,1.78c.82.48,1.67,1,2.44,1.48l.06,0a9.72,9.72,0,0,1,1,.63l.09.06.11.06.19.1c.37.25.78.49,1.13.74a17.13,17.13,0,0,1,2.37,1.93,6,6,0,0,1,1.5,2.24,4.38,4.38,0,0,1-1,4.56l-.06,0a8.73,8.73,0,0,1-1.41,1.38,30.16,30.16,0,0,1-3.4,2.33c-.86.54-1.74,1.07-2.62,1.61l-.26.14-2.07,1.23-7,4.08-2.73,1.56-.33.2c-.77.45-1.58.89-2.37,1.32-1.1.61-2.21,1.21-3.38,1.78a23.72,23.72,0,0,1-2.93,1.2c-.71.23-1.45.44-2.23.61a15.1,15.1,0,0,1-2,.34A16.24,16.24,0,0,1,335,393a18.86,18.86,0,0,1-3.4-.3,19.65,19.65,0,0,1-2.85-.73,23.38,23.38,0,0,1-2.69-1.06c-.67-.31-1.32-.63-1.94-1s-1.46-.77-2.18-1.16c-2-1.07-3.83-2.17-5.75-3.26l-.17-.12-.22-.11-3.24-1.87-1.61-.94c-2-1.19-4.09-2.36-6-3.59a33.54,33.54,0,0,1-3.73-2.55,7.3,7.3,0,0,1-2.47-3.29,3.8,3.8,0,0,1-.12-1.68,4.18,4.18,0,0,1,.82-2.11,10.31,10.31,0,0,1,2.17-2.21,30.17,30.17,0,0,1,3-2,12.94,12.94,0,0,1,1.13-.71q1.76-1.08,3.58-2.14l.21-.11,2.35-1.38,1.63-.94,1.29-.76,1.31-.75,2-1.15,1-.6,1.74-1c.47-.26.92-.53,1.41-.77,1.06-.6,2.15-1.18,3.27-1.73a23.75,23.75,0,0,1,4-1.53c.32-.08.65-.18,1-.24a17.54,17.54,0,0,1,3.51-.47,20.14,20.14,0,0,1,8,1.26,23.81,23.81,0,0,1,3,1.32c.39.21.77.42,1.16.61.8.4,1.57.83,2.35,1.25l.19.11c.78.41,1.51.84,2.27,1.27l2.65,1.52,2.21,1.27.44.25h0m4.29-2.91-.49-.28-2-1.13-3.47-2-2.63-1.47-.17-.08-2.06-1.08a34.72,34.72,0,0,0-5.27-2.25,31.07,31.07,0,0,0-13.15-1.31c-.6.06-1.21.12-1.78.24-.73.15-1.46.27-2.15.47l-.1,0a30.36,30.36,0,0,0-3.92,1.29.65.65,0,0,1-.33.1l-.4.21c-.49.22-1,.43-1.45.66-2,1-3.89,2-5.77,3.1l-2.73,1.55-.4.25-.43.23-.13.08-5,2.91-.15.08-2.7,1.58L301,361.74,299,363a34.66,34.66,0,0,0-3.22,2.29,13.64,13.64,0,0,0-1.37,1.29,12.16,12.16,0,0,0-1.93,2.79c-.08.24-.16.46-.23.7a6.86,6.86,0,0,0-.24,2.32,6.5,6.5,0,0,0,.55,2.26,6.92,6.92,0,0,0,.41.74c.18.22.27.45.43.67a12.61,12.61,0,0,0,1.34,1.57,16.2,16.2,0,0,0,2.13,1.79c.55.38,1,.78,1.63,1.14l1.43.87c1.8,1.13,3.68,2.23,5.55,3.31l1.78,1,.19.11,6.45,3.71,2.16,1.24,2.82,1.53.06,0c.56.29,1.13.57,1.67.88.25.14.53.27.79.4s.74.32,1.1.49a31.39,31.39,0,0,0,4.15,1.52c.56.16,1.13.3,1.7.45,1,.22,2,.4,3,.53a30.78,30.78,0,0,0,3.94.22h.09a31.5,31.5,0,0,0,4.52-.35,30.2,30.2,0,0,0,6.68-1.84c1-.42,2-.87,2.95-1.34.32-.17.64-.34,1-.49l.1-.06.18-.11a2.67,2.67,0,0,1,.33-.16l.17-.1c1.44-.77,2.86-1.56,4.26-2.36l8.8-5.1,1.33-.76.18-.12c1.38-.82,2.78-1.64,4.11-2.48l2.44-1.55.12-.1a21.75,21.75,0,0,0,1.83-1.39,11,11,0,0,0,3.33-4.36,6.71,6.71,0,0,0,.37-2.11v-.14a6.43,6.43,0,0,0-.47-2.42,9.77,9.77,0,0,0-1.91-2.86,23.9,23.9,0,0,0-4.78-3.7q-2.58-1.63-5.29-3.2L363,358.27,360.93,357l-.42-.25h0"/>
      <path class="cls-39" d="M292.4,369.32a2.48,2.48,0,0,0-.66-.25c-.27-.06-.53-.13-.8-.21l-.13,0,0,0a0,0,0,0,1,0,0h0s0,0,.06-.06l0-.07c-.21-.05-.34-.15-.53-.21-.83-.27-1.71-.47-2.56-.71a15.69,15.69,0,0,1-1.79-.59,4.49,4.49,0,0,0-1.18-.39,3.75,3.75,0,0,1-.87-.21,3.74,3.74,0,0,0-1.21-.3l-.31-.07,0,0,0,0h0A.86.86,0,0,0,282,366l-.19,0a2.38,2.38,0,0,1-.52-.12c-.11,0-.24-.05-.35-.08-.36-.09-.74-.06-1.09-.15a7.38,7.38,0,0,1-1.38-.1,7.38,7.38,0,0,0-1.39-.17l-.1.08a10.79,10.79,0,0,0-2.6,3.49,6.86,6.86,0,0,0-.58,2.16,4.42,4.42,0,0,1,.85.16,3.57,3.57,0,0,0,1,0,1.36,1.36,0,0,1,.35,0,13.51,13.51,0,0,0,1.52.19,4.06,4.06,0,0,1,.91.13,6,6,0,0,0,1.32.31c.4.05.83,0,1.23.11s.73.16,1.11.21a9.71,9.71,0,0,1,1.88.38,14.7,14.7,0,0,0,2.37.59,6,6,0,0,1,.74.18,9.78,9.78,0,0,0,1.34.54l0,0a.17.17,0,0,0,.08.1,2.75,2.75,0,0,0,.29.11l0,0a5.64,5.64,0,0,0,.78.28h.16l-.09-.09-.34-.15a.43.43,0,0,1,.33,0,4.17,4.17,0,0,0,.42.16l2.62,1h.19a6.92,6.92,0,0,1-.41-.74,6.5,6.5,0,0,1-.55-2.26,6.86,6.86,0,0,1,.24-2.32c.07-.23.15-.46.23-.7l-.05,0h0"/>
      <path class="cls-46" d="M331.86,407.27l.18,0-.18,0M342.15,402l.17,0,0,.09-.16,0h0s0,0,0,0h0l0,0m8.35-9.16.1-.06-.1.06m.61-.33a2.67,2.67,0,0,0-.33.16l-.18.11-.1.06c-.35.15-.67.33-1,.49-.94.48-1.92.93-2.95,1.34a30.2,30.2,0,0,1-6.68,1.84,31.5,31.5,0,0,1-4.52.35c0,.13-.13.22-.24.33a6.12,6.12,0,0,0-.61.83v0c.08.43-.4.75-.61,1.13a2.59,2.59,0,0,1-.66.81l-.05.09c.08.27-.22.46-.41.67s-.49.63-.77.94a1.49,1.49,0,0,0-.3.41,1.11,1.11,0,0,1-.48.51l-.11.06-.14.08c-.28.16-.49.35-.77.5l-.14.08h0c-.13.07-.18.19-.31.27l0,.09.07,0h0c.07,0,0,.08,0,.11l-.07.07a1.28,1.28,0,0,1-.36.32,1.22,1.22,0,0,1-.25.11l-.11,0a2.75,2.75,0,0,0-.24.2,5.39,5.39,0,0,0-.67.62v.05c.1.21-.05.35-.26.47l-.26.14-.26.15a1.9,1.9,0,0,0-.49.37,31.17,31.17,0,0,0,5.11.87l.18,0h.07c.1-.06.28,0,.37-.1l.05,0c.26-.15.64-.21.92-.36a12.47,12.47,0,0,1,1.14-.52l.09,0,.08,0a.5.5,0,0,1,.2-.07,2.22,2.22,0,0,0,.88-.3l.1-.06c.23-.13.48-.25.71-.38l.09-.06.36-.23.24-.12c.4-.19.84-.34,1.21-.56l.07,0c.47-.28,1-.56,1.38-.87l1.24-.89.19-.12.34-.19.14,0v.1c-.15.08-.21.22-.32.28h0l-.09,0c-.16.1-.27.21-.43.3l-.09,0-.11.06a5.51,5.51,0,0,0-.62.48,4.58,4.58,0,0,1-.4.29l-.17.08,0,0a.2.2,0,0,0-.13.2.8.8,0,0,0,.27-.09l.1-.08a1.31,1.31,0,0,1,.19-.16c.45-.28.87-.57,1.28-.87.64-.46,1.34-.9,1.93-1.39.27-.24.58-.47.88-.7.13-.1.31-.19.42-.3a5.09,5.09,0,0,0,.66-.62.17.17,0,0,1,.07-.06.45.45,0,0,1,.21,0,.63.63,0,0,0,.35-.07l.09-.06a9.56,9.56,0,0,0,.92-1c.52-.56,1-1.14,1.43-1.71s.8-1.18,1.21-1.77a8.21,8.21,0,0,0,.71-1.23c.12-.27.29-.54.4-.83a.91.91,0,0,1,.43-.58l.06,0v-.09"/>
      <path class="cls-37" d="M365,393.7c-.15.1-.09.2-.09.28a.2.2,0,0,0,.09-.28"/>
      <path class="cls-34" d="M383.21,376.74a.56.56,0,0,0-.2-.06.22.22,0,0,0,.1.13.52.52,0,0,0,.24.05.61.61,0,0,0-.14-.12"/>
      <path class="cls-42" d="M293.12,366.2l-.09,0c-.62-.15-1.21-.33-1.82-.46-.41-.09-.84-.17-1.21-.29-.67-.22-1.37-.39-2.07-.57a11.34,11.34,0,0,0-1.58-.28c-.59-.08-1.18-.19-1.78-.25a7.85,7.85,0,0,1-1.43-.28,11,11,0,0,0-3-.46.86.86,0,0,1-.34,0h0l0,0a.14.14,0,0,1,0-.07l-.08-.06-.07,0v0h0a13,13,0,0,0-1.11.79,13.23,13.23,0,0,0-1.32,1.12,7.38,7.38,0,0,1,1.39.17,7.38,7.38,0,0,0,1.38.1,1.4,1.4,0,0,1,.89,0,2.19,2.19,0,0,0,.54.08l.18,0a.12.12,0,0,1,.06-.07.59.59,0,0,1,.22,0,11.23,11.23,0,0,1,1.14.08c.14,0,.29.05.41,0l0,0,.16,0c.32,0,.63.06,1,.07a6.62,6.62,0,0,1,1.19.19,1.57,1.57,0,0,0,.69-.06.44.44,0,0,0-.22,0,.38.38,0,0,1-.19,0h0c.16,0,.37,0,.5-.08a.19.19,0,0,0,.07-.07h.16l.4.05a8.51,8.51,0,0,0,1,.17,1.4,1.4,0,0,0,.56,0l0,0,.07-.05a.4.4,0,0,1,.3,0,1.8,1.8,0,0,0,.88,0,.75.75,0,0,1,.4,0l.61.17c.65.19,1.27.4,2,.53a.31.31,0,0,0,.2,0l0,0s0-.07,0-.09l0,0"/>
      <polyline class="cls-42" points="279.84 363.19 279.77 363.26 279.84 363.19"/>
      <polyline class="cls-38" points="279.53 363.41 279.51 363.43 279.51 363.42 279.53 363.41"/>
      <path class="cls-43" d="M335.36,396.87h-.09a30.78,30.78,0,0,1-3.94-.22c-1-.12-2-.31-3-.53,0,.17-.17.3-.27.44a3.49,3.49,0,0,1-.69.69,3.72,3.72,0,0,0-.58.72,16.27,16.27,0,0,1-1.09,1.25,10.78,10.78,0,0,1-.92.91,5.19,5.19,0,0,0-.91.91l-.05,0a.67.67,0,0,0-.2.07.69.69,0,0,0-.26.32,1.51,1.51,0,0,1-.53.54l-.12.06,0,0a.53.53,0,0,0-.25.3,2.14,2.14,0,0,1-.68.65,9.32,9.32,0,0,0-.88.77,1.67,1.67,0,0,1-.32.28c.82.41,1.7.79,2.59,1.14a28.37,28.37,0,0,0,3.64,1.17,1.9,1.9,0,0,1,.49-.37l.26-.15.26-.14c.21-.12.37-.26.26-.47v-.05a5.39,5.39,0,0,1,.67-.62,2.75,2.75,0,0,1,.24-.2l.11,0a1.22,1.22,0,0,0,.25-.11,1.28,1.28,0,0,0,.36-.32l.07-.07s.06-.08,0-.11h0l-.07,0,0-.09c.13-.08.18-.19.31-.27h0l.14-.08c.28-.16.49-.35.77-.5l.14-.08.11-.06a1.11,1.11,0,0,0,.48-.51,1.49,1.49,0,0,1,.3-.41c.28-.31.49-.63.77-.94s.5-.4.41-.67l.05-.09a2.59,2.59,0,0,0,.66-.81c.21-.38.69-.7.61-1.13v0a6.12,6.12,0,0,1,.61-.83c.1-.1.25-.2.24-.33"/>
      <path class="cls-40" d="M318.8,403.21l.21.11-.21-.11m.41.21.1.05-.1-.05m9.1-7.3c-.57-.15-1.14-.29-1.7-.45a31.39,31.39,0,0,1-4.15-1.52.23.23,0,0,0-.14.19c0,.3-.3.55-.42.83a1.72,1.72,0,0,1-.2.37,3.18,3.18,0,0,0-.39.93c0,.15,0,.33-.18.45a.72.72,0,0,1-.28.09l-.07,0c-.07.16-.33.28-.34.46l-.07.12c-.41.24-.41.57-.52.87a1,1,0,0,1-.4.64l0,.08a.28.28,0,0,1,.13,0h0s0,.07,0,.11a.66.66,0,0,1-.21.21.51.51,0,0,0-.11.11.26.26,0,0,0,0,.23.45.45,0,0,0,.23.25l0,0,0,0h0c.07,0,.09.08,0,.13l-.08.12a2.59,2.59,0,0,0-.16.7c0,.12-.16.2-.2.3-.12.3-.2.61-.32.9a2.89,2.89,0,0,1-.35.67l0,0,.06,0,.09,0h0l0,0,.1.06.21.11.2.1.1.05c.38.22.8.42,1.21.61a1.67,1.67,0,0,0,.32-.28,9.32,9.32,0,0,1,.88-.77,2.14,2.14,0,0,0,.68-.65.53.53,0,0,1,.25-.3l0,0,.12-.06a1.51,1.51,0,0,0,.53-.54.69.69,0,0,1,.26-.32.67.67,0,0,1,.2-.07l.05,0a5.19,5.19,0,0,1,.91-.91,10.78,10.78,0,0,0,.92-.91,16.27,16.27,0,0,0,1.09-1.25,3.72,3.72,0,0,1,.58-.72,3.49,3.49,0,0,0,.69-.69c.1-.15.29-.27.27-.44"/>
      <polyline class="cls-41" points="319.01 403.33 318.8 403.21 319.01 403.33"/>
      <polyline class="cls-35" points="332.04 407.29 331.86 407.27 332.04 407.29"/>
      <polyline class="cls-41" points="319.31 403.48 319.21 403.43 319.31 403.48"/>
      <polyline class="cls-32" points="318.9 392.39 318.84 392.35 318.9 392.39"/>
      <polyline class="cls-41" points="317.84 402.69 317.8 402.67 317.84 402.69"/>
      <path class="cls-36" d="M356.22,359.71l-.44-.25-2.21-1.27-2.65-1.52c-.75-.43-1.48-.86-2.27-1.27l0,0-.08,0a.27.27,0,0,1-.2,0h0l0,0-.1-.07a1.19,1.19,0,0,0-.29-.11l-.41-.1-.31-.08L347,355h0l-.1-.08,0,0h0a2,2,0,0,0-.51-.1c-.43-.07-.86-.16-1.3-.22l-.22-.05-.2-.09h0l0,0a1.64,1.64,0,0,0-.28-.11,6.49,6.49,0,0,1-.69-.22.88.88,0,0,0-.48-.06.58.58,0,0,1-.29-.06,2.14,2.14,0,0,0-.9-.18,1.31,1.31,0,0,1-.57-.15,3.58,3.58,0,0,0-1.23-.23.77.77,0,0,1-.35-.09h0l-.11,0a2.31,2.31,0,0,0-.54-.05,1.82,1.82,0,0,1-.6-.15,2,2,0,0,0-1-.2,1.31,1.31,0,0,1-.51-.09l-.09-.07s0-.07,0-.08l-.08,0h-.06a5.09,5.09,0,0,0-1.06-.1.94.94,0,0,1-.45-.07,4.79,4.79,0,0,0-.76-.21c-.16,0-.22-.11-.36-.13-.48-.08-.9-.25-1.37-.34a3.37,3.37,0,0,0-.52,0,3.52,3.52,0,0,1-.81-.15,3.52,3.52,0,0,0-.81-.12l-.22-.06c-.33.06-.66.16-1,.24a23.75,23.75,0,0,0-4,1.53c-1.13.55-2.22,1.13-3.27,1.73a2.2,2.2,0,0,0,.62.16c.75.1,1.44.29,2.19.4l.66.09a2.15,2.15,0,0,0,.49,0,2.25,2.25,0,0,1,.92.13c.59.16,1.16.34,1.75.51l.66.24a9.45,9.45,0,0,0,1.38.32,3.12,3.12,0,0,1,.79.22,6.58,6.58,0,0,0,.7.22c.68.19,1.31.44,2,.66.28.09.49.22.75.32a.44.44,0,0,0,.29,0,.52.52,0,0,1,.44,0,3,3,0,0,0,.83.21,1.23,1.23,0,0,1,.45.16,2.66,2.66,0,0,0,.78.26,8.22,8.22,0,0,1,.86.21,1.36,1.36,0,0,1,.29.1h0l.07.05,0,0,.07,0a11.14,11.14,0,0,1,1.19.5,2.67,2.67,0,0,1,.53.25h0l.13.08.25.12a1,1,0,0,0,.45.1.56.56,0,0,1,.32.06h0l0,0,0,0,0,0,.07,0a.77.77,0,0,0,.28.08.66.66,0,0,1,.25.06h0l0,0,0,0,.06,0a4.44,4.44,0,0,0,.55.19h.16l0-.09s0-.06,0-.08l.12,0H344a.58.58,0,0,1,.22.07h0l0,0,0,0,.18.12a2.09,2.09,0,0,0,1.06.25,1.94,1.94,0,0,1,1,.25h0l.05,0a2.44,2.44,0,0,1,.33.25l0,0,.12.08.14.07a1.12,1.12,0,0,0,.28.06h.24l.15,0a.65.65,0,0,1,.2.07h0l.05,0,.05,0a1,1,0,0,0,.49.14,1,1,0,0,1,.45.12h0l.05,0,0,0,0,0a.8.8,0,0,0,.41.1.85.85,0,0,1,.37.08h0l0,0,0,0H350l-.13,0,.1.05.28,0a.79.79,0,0,1,.25.09h0l.06,0,.05,0a1.64,1.64,0,0,0,.25.18,2.32,2.32,0,0,0,.93.28.74.74,0,0,1,.28.07h0l.07.06,0,.05v0a.13.13,0,0,0,.05.05.55.55,0,0,0,.33,0,.67.67,0,0,1,.5.06h0l.06,0,.15.11,0,0a.47.47,0,0,0,.32.07h.23a.55.55,0,0,1,.21.07h0l0,0,.14.1,0,0,.1.07.1,0,.18,0v-.1s-.07-.07,0-.13a1.24,1.24,0,0,0,.22.16l.27.13.24.07a1.65,1.65,0,0,1,.57.16h0l0,0a.46.46,0,0,1,.13.13l0,0,.12.07.13,0v-.09l-.05,0,0-.1h.2l.17.09h0a1.1,1.1,0,0,1,.22.15l0,0,.08.08a1.76,1.76,0,0,0,.3.21l.36.19.17.1,0,0h0s0,0,.09,0l0,0,.08,0a1.33,1.33,0,0,1,.27.28,3.4,3.4,0,0,0,.61.59,5,5,0,0,1,1.05.87l0,0,.09.07a.68.68,0,0,0,.29.08l.13,0c0,.18.3.23.35.38s.21.2.28.31a6.39,6.39,0,0,1,.59.77.16.16,0,0,0,.06.07l0,0a1.05,1.05,0,0,0,.26.09.68.68,0,0,1,.18.06h0l0,0a.11.11,0,0,1,0,.07.69.69,0,0,0,.28,0,7.59,7.59,0,0,1,.87.06,6.77,6.77,0,0,1,1,.2l.37.12a4.9,4.9,0,0,1,.82.37h0l.15.09a2.25,2.25,0,0,1,1.13,1.5,1.5,1.5,0,0,1,0,.25c0,.15-.05.31-.07.46a.65.65,0,0,1,.33.06h0l.08.07a.35.35,0,0,1,.05.1,1.22,1.22,0,0,0,.45.53.68.68,0,0,1,.19.21,2,2,0,0,0,.45.6l.27.22a2.32,2.32,0,0,0,.3.21,1.54,1.54,0,0,0,.41.16l.16.12a.47.47,0,0,0,.08.14.68.68,0,0,0,.13.12l.11.07.09,0,.09,0,.06,0a4.38,4.38,0,0,0,1-4.56,6,6,0,0,0-1.5-2.24,17.13,17.13,0,0,0-2.37-1.93c-.36-.25-.76-.49-1.13-.74l-.19-.1-.11-.06-.09-.06a9.72,9.72,0,0,0-1-.63l-.06,0c-.77-.52-1.62-1-2.44-1.48l-3-1.78L357,360.16l-.76-.44h0"/>
      <path class="cls-38" d="M312.17,369l-1-.59-.52-.29-.5-.29a15.87,15.87,0,0,0-1.65-.83c-.31-.14-.59-.31-.89-.46h0c-.08,0-.09-.11-.15-.16l-.24-.16-.33-.17-.19-.08-.37-.15-.19-.06a3.84,3.84,0,0,0-1.12-.37l-.1,0a.1.1,0,0,0-.05-.1.44.44,0,0,0-.16,0h-.11a30.17,30.17,0,0,0-3,2,10.31,10.31,0,0,0-2.17,2.21,4.18,4.18,0,0,0-.82,2.11,1.8,1.8,0,0,1,.68.18,8.69,8.69,0,0,1,.94.43h0l.08.05.08.05.1.06.29.18.63.35.28.18.21.14.21.11.2.1h0l.12.08a.83.83,0,0,1,.16.15.21.21,0,0,0,.09.08l.06,0,.1.06.21.13.22.12.22.13.41.26h0l.09.07.06,0,.13.05.16,0,.13,0,0,0,0,0,.24.12.28.14h0l.14.1a7.52,7.52,0,0,0,.65.47l.1.06a3.36,3.36,0,0,0,.43.21l.16.08h0a2.31,2.31,0,0,1,.36.28,2.79,2.79,0,0,0,.28.22c.37.25.67.53,1,.78.18.14.26.3.42.44a4.75,4.75,0,0,0,.81.64l0,0h0a2.56,2.56,0,0,1,.75.7l0,.05a4.78,4.78,0,0,0,.88.77,2.56,2.56,0,0,1,.44.45,7.51,7.51,0,0,0,1.29,1.18.91.91,0,0,1,.31.43,1.47,1.47,0,0,0,.44.49,6.15,6.15,0,0,1,.7.88c.17.21.21.45.41.65,0,0,0,.05.06.07a.16.16,0,0,0,.12,0l.14,0a1,1,0,0,1,.28.3,10.34,10.34,0,0,1,.67,1.13c0,.07,0,.13,0,.18l.17.12c1.92,1.09,3.79,2.19,5.75,3.26.72.39,1.44.79,2.18,1.16a.63.63,0,0,0,.23-.45,13.83,13.83,0,0,0,.38-2.32c0-.57.15-1.13.18-1.7a4.57,4.57,0,0,0-.08-.9c-.08-.51-.13-1-.25-1.52a9.06,9.06,0,0,0-.21-1.07c-.12-.38-.24-.76-.37-1.13l0-.12c-.38-.17-.77-.32-1.13-.5l-.73-.39-.24-.13h0l-.58-.35c-.28-.17-.59-.34-.86-.52a12.91,12.91,0,0,1-1.45-1.21,8,8,0,0,1-2.85-5.52l0-.11-.08,0h0a2.39,2.39,0,0,1-.46-.41,7.69,7.69,0,0,0-1.32-1,3.26,3.26,0,0,1-.43-.34,12.63,12.63,0,0,0-1.77-1.26"/>
      <path class="cls-37" d="M360.57,378h.11l0,0h-.1l0,0m6.66-5.23h0v0h0v0m-13.36-8.52h0v0h0v0m2.81.54-.17-.09h-.2l0,.1.05,0v.09l-.13,0-.12-.07,0,0a.46.46,0,0,0-.13-.13l0,0a1.65,1.65,0,0,0-.57-.16l-.24-.07-.27-.13a1.24,1.24,0,0,1-.22-.16c-.07.06,0,.09,0,.13v.1l-.18,0-.1,0-.1-.07,0,0-.14-.1,0,0a.55.55,0,0,0-.21-.07h-.23a.47.47,0,0,1-.32-.07h0l0,0-.15-.11-.06,0a.67.67,0,0,0-.5-.06.55.55,0,0,1-.33,0h0a.13.13,0,0,1-.05-.05v0l0-.05-.07-.06h0a.74.74,0,0,0-.28-.07,2.32,2.32,0,0,1-.93-.28h0a1.64,1.64,0,0,1-.25-.18l-.05,0-.06,0h0a.79.79,0,0,0-.25-.09l-.28,0-.1-.05.13,0h.11l0,0,0,0h0a.85.85,0,0,0-.37-.08.8.8,0,0,1-.41-.1l0,0,0,0-.05,0h0a1,1,0,0,0-.45-.12,1,1,0,0,1-.49-.14h0l-.05,0-.05,0a.65.65,0,0,0-.2-.07l-.15,0h-.24a1.12,1.12,0,0,1-.28-.06l-.14-.07-.12-.08,0,0a2.44,2.44,0,0,0-.33-.25l-.05,0h0a1.94,1.94,0,0,0-1-.25,2.09,2.09,0,0,1-1.06-.25l-.18-.12,0,0,0,0h0a.58.58,0,0,0-.22-.07h-.25l-.12,0s0,0,0,.08l0,.09h-.16a4.44,4.44,0,0,1-.55-.19h0l-.06,0,0,0,0,0a.66.66,0,0,0-.25-.06.77.77,0,0,1-.28-.08l-.07,0,0,0,0,0,0,0a.56.56,0,0,0-.32-.06,1,1,0,0,1-.45-.1l-.25-.12h0l-.13-.08h0a2.67,2.67,0,0,0-.53-.25,11.14,11.14,0,0,0-1.19-.5l-.07,0,0,0-.07-.05h0a1.36,1.36,0,0,0-.29-.1,8.22,8.22,0,0,0-.86-.21,2.66,2.66,0,0,1-.78-.26,1.23,1.23,0,0,0-.45-.16,3,3,0,0,1-.83-.21.52.52,0,0,0-.44,0,.44.44,0,0,1-.29,0c-.26-.1-.48-.23-.75-.32-.66-.22-1.29-.47-2-.66a6.58,6.58,0,0,1-.7-.22,3.12,3.12,0,0,0-.79-.22,9.45,9.45,0,0,1-1.38-.32l-.66-.24c-.59-.17-1.16-.35-1.75-.51a2.25,2.25,0,0,0-.92-.13,2.15,2.15,0,0,1-.49,0l-.66-.09c-.75-.11-1.44-.3-2.19-.4a2.2,2.2,0,0,1-.62-.16c-.5.24-.94.51-1.41.77l-1.74,1-1,.6c.37.15.76.28,1.12.44s1,.31,1.49.47a10.43,10.43,0,0,1,1.74.68c.19.1.39.2.6.29a1,1,0,0,0,.39,0,1.48,1.48,0,0,1,.79.18l.09.05a1.48,1.48,0,0,0,.85.25l.08,0,.08.06.24.12.25.13h0l.05,0a.63.63,0,0,1,.13.11l0,0,0,0a.49.49,0,0,0,.34,0c.11,0,.18,0,.21,0h0a0,0,0,0,1,0,0,.27.27,0,0,1,0,.08l.1.08a4.17,4.17,0,0,1,1.87.44,2.62,2.62,0,0,0,1,.22.84.84,0,0,1,.41.09h0l0,0,.07,0,.21.1.27.13c.91-.12,1.84-.2,2.78-.26a23.55,23.55,0,0,1,2.65,0c1,0,2,.12,2.91.23a26.58,26.58,0,0,1,6.65,1.67,21.48,21.48,0,0,1,2.38,1.14l.36.2h0l.18.1a12.47,12.47,0,0,1,3.75,3.24l.23.32.09.13a7.25,7.25,0,0,1,1.16,3,6.4,6.4,0,0,1-.06,2.06v0l.23,0,.19.05a.42.42,0,0,1,.31,0h0a.51.51,0,0,1,.11.09l0,0,0,0,.1.07a.52.52,0,0,0,.36.05.39.39,0,0,1,.24,0h0l.06,0,0,.05c.11.15.2.31.31.46l.1.11.13,0,0-.09a1.4,1.4,0,0,0-.3-.47l-.08-.08s-.09-.09,0-.13l.06,0,.22.09a3.67,3.67,0,0,1,.26.4,1.54,1.54,0,0,0,.24.27l.2.06a.36.36,0,0,1,.22,0h0a.47.47,0,0,1,.11.09l0,0c.23.21.31.47.5.68a1,1,0,0,0,.25.2l.23.1,0,0h0a.58.58,0,0,1,.2.28l0,0a.48.48,0,0,0,.1.13l.09.06a1,1,0,0,0,.36.11c.23,0,.39.15.63.21l0,0h0l0,0s0,.08-.07.11l0,0c-.07,0-.09.07-.06.1h0l.11,0,.16.05.05,0h0l.07.05a.22.22,0,0,1,.07.21v0c.22.23.23.52.54.73.06,0,.12.08.08.15a.21.21,0,0,0,0,.08.21.21,0,0,0,0,.05.26.26,0,0,0,0,.12.49.49,0,0,0,.17.15.78.78,0,0,0,.29.09.57.57,0,0,1,.2.05h0l0,0a.15.15,0,0,1,0,.1.37.37,0,0,0,.15.28c.18.15.21.35.4.5l.09.06.09,0,0,0h0l.05,0a.34.34,0,0,1,.08.21.62.62,0,0,0,.19.35.3.3,0,0,1,.1.2.22.22,0,0,0,.08.15l.06,0,.05,0,.26-.14c.88-.54,1.76-1.07,2.62-1.61a30.16,30.16,0,0,0,3.4-2.33,8.73,8.73,0,0,0,1.41-1.38l-.09,0-.09,0h0l-.11-.07a.68.68,0,0,1-.13-.12.47.47,0,0,1-.08-.14l-.16-.12a1.54,1.54,0,0,1-.41-.16,2.32,2.32,0,0,1-.3-.21l-.27-.22a2,2,0,0,1-.45-.6.68.68,0,0,0-.19-.21,1.22,1.22,0,0,1-.45-.53.35.35,0,0,0-.05-.1l-.08-.07a.65.65,0,0,0-.33-.06,2.55,2.55,0,0,1-1.17,1.28l-.12.07a6.62,6.62,0,0,1-3.84.65A5.81,5.81,0,0,1,360,374l-.27-.13-.13-.07-.12-.07h0a3.72,3.72,0,0,1-.48-.33,1.71,1.71,0,0,1-.55-2.38,2.36,2.36,0,0,1,.33-.39,3.65,3.65,0,0,1,.73-.55,6.05,6.05,0,0,1,2.68-.71l.13,0a.11.11,0,0,0,0-.07l0,0a.68.68,0,0,0-.18-.06,1.05,1.05,0,0,1-.26-.09h0l0,0a.16.16,0,0,1-.06-.07,6.39,6.39,0,0,0-.59-.77c-.07-.11-.23-.19-.28-.31s-.39-.21-.35-.38l-.13,0a.68.68,0,0,1-.29-.08h0l-.09-.07,0,0a5,5,0,0,0-1.05-.87,3.4,3.4,0,0,1-.61-.59,1.33,1.33,0,0,0-.27-.28l-.08,0,0,0s-.07,0-.09,0h0l0,0-.17-.1-.36-.19a1.77,1.77,0,0,1-.3-.21l-.08-.08,0,0a1.1,1.1,0,0,0-.22-.15"/>
      <path class="cls-46" d="M348.65,379.46c-.62.35-1.25.7-1.94,1a25.12,25.12,0,0,1-5.18,1.68c-1,.21-2,.35-3,.48-.08.14,0,.28,0,.42.08.55.13,1.1.17,1.65a9.12,9.12,0,0,1,0,1.49c0,.69-.08,1.38-.17,2.06a15.5,15.5,0,0,1-.73,2.89c-.18.55-.31,1.11-.55,1.66l.07.11a15.1,15.1,0,0,0,2-.34c.77-.17,1.51-.38,2.23-.61a23.72,23.72,0,0,0,2.93-1.2c1.17-.57,2.27-1.18,3.38-1.78.8-.43,1.6-.87,2.37-1.32l.33-.2a.2.2,0,0,1-.12-.19c0-.23,0-.46,0-.68,0-.4.15-.82-.1-1.23l0-.18a7.54,7.54,0,0,0-.23-1.81c-.09-.34-.13-.69-.21-1s-.21-.66-.32-1l-.14-.09a.38.38,0,0,1-.15,0h0a.27.27,0,0,1-.11-.15,6.42,6.42,0,0,0-.54-1.34c-.05-.09,0-.19-.08-.27"/>
      <path class="cls-35" d="M355.82,373.67l-.22-.09-.06,0s0,.09,0,.13l.08.08a1.4,1.4,0,0,1,.3.47l0,.09-.13,0-.1-.11c-.11-.15-.21-.3-.31-.46l0-.05-.06,0h0a.39.39,0,0,0-.24,0,.52.52,0,0,1-.36-.05l-.1-.07,0,0,0,0a.51.51,0,0,0-.11-.09.42.42,0,0,0-.31,0l-.19-.05-.23,0a7.73,7.73,0,0,1-1.06,2.55,11.79,11.79,0,0,1-3.75,3.54l-.21.15c.11.08,0,.18.08.27a6.42,6.42,0,0,1,.54,1.34.27.27,0,0,0,.11.15.38.38,0,0,0,.15,0l.14.09c.11.33.23.66.32,1s.12.7.21,1a7.54,7.54,0,0,1,.23,1.81l0,.18c.25.4.1.82.1,1.23,0,.22,0,.45,0,.68a.2.2,0,0,0,.12.19l2.73-1.56,7-4.08,2.07-1.23-.05,0-.06,0a.22.22,0,0,1-.08-.15.3.3,0,0,0-.1-.2.62.62,0,0,1-.19-.35.34.34,0,0,0-.08-.21l-.05,0h0l0,0-.09,0h0l-.09-.06c-.19-.15-.22-.35-.4-.5a.37.37,0,0,1-.15-.28.15.15,0,0,0,0-.1l0,0a.57.57,0,0,0-.2-.05.78.78,0,0,1-.29-.09h0a.49.49,0,0,1-.17-.15.26.26,0,0,1,0-.12.21.21,0,0,1,0-.05.21.21,0,0,1,0-.08c0-.07,0-.1-.08-.15-.31-.22-.31-.5-.54-.73v0a.22.22,0,0,0-.07-.21l-.07-.05h0l-.05,0-.16-.05-.11,0h0s0-.06.06-.1l0,0c.08,0,.09-.08.07-.11l0,0,0,0c-.24-.05-.39-.17-.63-.21a1,1,0,0,1-.36-.11h0l-.09-.06a.48.48,0,0,1-.1-.13l0,0a.58.58,0,0,0-.2-.28h0l0,0-.23-.1h0a1,1,0,0,1-.25-.2c-.2-.22-.27-.48-.5-.68l0,0a.47.47,0,0,0-.11-.09.36.36,0,0,0-.22,0l-.2-.06a1.54,1.54,0,0,1-.24-.27,3.67,3.67,0,0,0-.26-.4"/>
      <path class="cls-43" d="M338.55,382.64c-1.13.1-2.26.18-3.4.18a32.11,32.11,0,0,1-4.92-.37l-.35,0a1.72,1.72,0,0,0,.09.67,10.42,10.42,0,0,1,.19,1.16,8.47,8.47,0,0,1,.11,1.62c0,.59-.08,1.18-.16,1.78s-.16,1-.27,1.54a6,6,0,0,1-.25.93,7.88,7.88,0,0,1-.42,1.19c-.13.25-.27.5-.41.74a19.65,19.65,0,0,0,2.85.73,18.86,18.86,0,0,0,3.4.3,16.24,16.24,0,0,0,2.38-.12l-.07-.11c.24-.55.37-1.11.55-1.66a15.5,15.5,0,0,0,.73-2.89c.09-.68.15-1.37.17-2.06a9.12,9.12,0,0,0,0-1.49c0-.55-.09-1.11-.17-1.65,0-.14-.11-.28,0-.42"/>
      <path class="cls-40" d="M317,365.59a3.42,3.42,0,0,0-.53-.25l-.17-.08h0l-.1-.06-.17-.11a13,13,0,0,0-1.77-.87l-.19-.1a2.35,2.35,0,0,0-.77-.29,2.36,2.36,0,0,1-.42-.11l-.22-.1h0l-.14-.1-.15-.1-.26-.13-.29-.11-.24-.09a6.29,6.29,0,0,1-1-.43h0l-.19-.12,0,0-.17-.08a4.38,4.38,0,0,1-.42-.15l-.25-.12-.21.11q-1.82,1.06-3.58,2.14a12.94,12.94,0,0,0-1.13.71h.11a.44.44,0,0,1,.16,0h0a.1.1,0,0,1,.05.1l.1,0a3.84,3.84,0,0,1,1.12.37l.19.06.37.15.19.08.33.17h0l.24.16c.06.05.07.12.15.16h0c.3.15.57.32.89.46a15.87,15.87,0,0,1,1.65.83l.5.29.52.29,1,.59a12.63,12.63,0,0,1,1.77,1.26,3.26,3.26,0,0,0,.43.34,7.69,7.69,0,0,1,1.32,1,2.39,2.39,0,0,0,.46.41l.08,0a6.92,6.92,0,0,1,.31-2.12,8.47,8.47,0,0,1,1.88-3.12l.13-.15c-.4-.26-.82-.51-1.18-.78a3.66,3.66,0,0,0-.41-.28"/>
      <path class="cls-39" d="M305.12,374.82l-.28-.14-.24-.12h0l0,0,0,0-.13,0-.16,0-.13-.05h0l-.06,0-.09-.07h0l-.41-.26-.22-.13-.22-.12-.21-.13-.1-.06-.06,0a.21.21,0,0,1-.09-.08.83.83,0,0,0-.16-.15l-.12-.08-.2-.1-.21-.11h0l-.22-.14-.27-.17-.63-.35h0l-.29-.18-.1-.06-.08-.05-.08-.05h0a8.69,8.69,0,0,0-.94-.43,1.8,1.8,0,0,0-.68-.18,3.8,3.8,0,0,0,.12,1.68,7.3,7.3,0,0,0,2.47,3.29,33.54,33.54,0,0,0,3.73,2.55c2,1.23,4,2.4,6,3.59l1.61.94,3.24,1.87.22.11c.08-.06.07-.12,0-.18a10.34,10.34,0,0,0-.67-1.13,1,1,0,0,0-.28-.3l-.14,0a.16.16,0,0,1-.12,0s0,0-.06-.07c-.2-.2-.24-.44-.41-.65a6.15,6.15,0,0,0-.7-.88,1.47,1.47,0,0,1-.44-.49.91.91,0,0,0-.31-.43,7.51,7.51,0,0,1-1.29-1.18,2.56,2.56,0,0,0-.44-.45,4.78,4.78,0,0,1-.88-.77l0-.05a2.56,2.56,0,0,0-.75-.7h0l0,0a4.75,4.75,0,0,1-.81-.64c-.16-.14-.24-.3-.42-.44-.36-.26-.66-.53-1-.78A2.79,2.79,0,0,1,307,376a2.31,2.31,0,0,0-.36-.28l-.16-.08a3.36,3.36,0,0,1-.43-.21l-.1-.06a7.52,7.52,0,0,1-.65-.47l-.14-.1h0"/>
      <path class="cls-40" d="M329.88,382.4a31.16,31.16,0,0,1-3.59-.84c-.77-.24-1.49-.51-2.21-.79l0,.12c.13.37.25.75.37,1.13a9.06,9.06,0,0,1,.21,1.07c.11.5.17,1,.25,1.52a4.57,4.57,0,0,1,.08.9c0,.56-.14,1.13-.18,1.7a13.83,13.83,0,0,1-.38,2.32.63.63,0,0,1-.23.45c.62.35,1.27.67,1.94,1a23.38,23.38,0,0,0,2.69,1.06c.14-.25.28-.49.41-.74a7.88,7.88,0,0,0,.42-1.19,6,6,0,0,0,.25-.93c.11-.51.19-1,.27-1.54s.13-1.18.16-1.78a8.47,8.47,0,0,0-.11-1.62,10.42,10.42,0,0,0-.19-1.16,1.72,1.72,0,0,1-.09-.67"/>
      <path class="cls-43" d="M321.24,363.25l-.05,0a2.59,2.59,0,0,0-.46-.16,1,1,0,0,1-.22-.08.15.15,0,0,1-.09-.14l-.07-.07a.67.67,0,0,1-.19-.06l0,0h0a1.74,1.74,0,0,1-.21-.16l-.06,0-.1,0a3,3,0,0,0-.34-.1,4.77,4.77,0,0,1-.82-.37l-2-.88c-.37-.17-.8-.28-1.18-.44s-.72-.32-1.08-.48-.59-.21-.89-.31l-1.63.94-2.35,1.38.25.12a4.38,4.38,0,0,0,.42.15l.17.08,0,0,.19.12h0a6.29,6.29,0,0,0,1,.43l.24.09.29.11.26.13.15.1.14.1h0l.22.1a2.36,2.36,0,0,0,.42.11,2.35,2.35,0,0,1,.77.29l.19.1a13,13,0,0,1,1.77.87l.17.11.1.06.17.08a3.42,3.42,0,0,1,.53.25h0a3.66,3.66,0,0,1,.41.28c.36.28.78.53,1.18.78a15.27,15.27,0,0,1,1.46-1.29,17.42,17.42,0,0,1,1.6-1.07l.59-.33.12-.07-.45-.25-.15-.08h0a4.17,4.17,0,0,1-.41-.27l-.07,0"/>
      <path class="cls-35" d="M330.59,361.35l-.27-.13-.21-.1h0l-.07,0,0,0a.84.84,0,0,0-.41-.09,2.62,2.62,0,0,1-1-.22,4.17,4.17,0,0,0-1.87-.44l-.1-.08a.27.27,0,0,0,0-.08,0,0,0,0,0,0,0h0s-.09,0-.21,0a.49.49,0,0,1-.34,0h0l0,0,0,0a.63.63,0,0,0-.13-.11l-.05,0-.25-.13-.24-.12h0l-.08-.05-.08,0a1.48,1.48,0,0,1-.85-.25l-.09-.05a1.48,1.48,0,0,0-.79-.18,1,1,0,0,1-.39,0c-.22-.09-.41-.18-.6-.29a10.43,10.43,0,0,0-1.74-.68c-.5-.16-1-.28-1.49-.47s-.74-.29-1.12-.44l-2,1.15a2.87,2.87,0,0,0,.39.17c.5.15.88.4,1.36.57s1.08.34,1.6.53l.89.32.19.09h0l.13.09c-.1,0-.13,0-.21,0v0a.87.87,0,0,0,.17.15l.07,0a1.62,1.62,0,0,0,.4.16,6.89,6.89,0,0,1,1.3.55l.63.34h0l.21.12.61.38.78.52.27.17.23.13c1-.35,2-.63,3-.9a19.75,19.75,0,0,1,2.2-.39l.26,0"/>
      <path class="cls-41" d="M323,361.37l-.63-.34a6.89,6.89,0,0,0-1.3-.55,1.62,1.62,0,0,1-.4-.16h0l-.07,0a.87.87,0,0,1-.17-.15v0c.07,0,.1.05.21,0l-.13-.09h0l-.19-.09-.89-.32c-.52-.19-1.08-.34-1.6-.53s-.86-.42-1.36-.57a2.87,2.87,0,0,1-.39-.17l-1.31.75-1.29.76c.3.1.61.19.89.31s.72.33,1.08.48.8.27,1.18.44l2,.88a4.77,4.77,0,0,0,.82.37,3,3,0,0,1,.34.1l.1,0h0l.06,0a1.74,1.74,0,0,0,.21.16h0l0,0a.67.67,0,0,0,.19.06l.07.07a.15.15,0,0,0,.09.14,1,1,0,0,0,.22.08,2.59,2.59,0,0,1,.46.16l.05,0h0l.07,0a4.17,4.17,0,0,0,.41.27l.15.08.45.25a25.29,25.29,0,0,1,2.77-1.21l-.23-.13-.27-.17-.78-.52-.61-.38-.21-.12h0"/>
      <path class="cls-34" d="M348.65,355.4l-.19-.11c-.78-.42-1.54-.85-2.35-1.25-.4-.19-.78-.4-1.16-.61a23.81,23.81,0,0,0-3-1.32,20.14,20.14,0,0,0-8-1.26,17.54,17.54,0,0,0-3.51.47l.22.06a3.52,3.52,0,0,1,.81.12,3.52,3.52,0,0,0,.81.15,3.37,3.37,0,0,1,.52,0c.47.1.89.27,1.37.34.15,0,.21.1.36.13a4.79,4.79,0,0,1,.76.21.94.94,0,0,0,.45.07,5.09,5.09,0,0,1,1.06.1h.06l.08,0s0,0,0,.08l.09.07a1.31,1.31,0,0,0,.51.09,2,2,0,0,1,1,.2,1.82,1.82,0,0,0,.6.15,2.31,2.31,0,0,1,.54.05l.11,0h0a.77.77,0,0,0,.35.09,3.58,3.58,0,0,1,1.23.23,1.31,1.31,0,0,0,.57.15,2.14,2.14,0,0,1,.9.18.58.58,0,0,0,.29.06.88.88,0,0,1,.48.06,6.49,6.49,0,0,0,.69.22,1.64,1.64,0,0,1,.28.11l0,0h0l.2.09.22.05c.45.06.87.15,1.3.22a2,2,0,0,1,.51.1h0l0,0,.1.08h0l.16.07.31.08.41.1a1.19,1.19,0,0,1,.29.11l.1.07,0,0a.27.27,0,0,0,.2,0l.08,0,0,0"/>
      <polyline class="cls-37" points="350.59 392.79 350.49 392.85 350.59 392.79"/>
      <polyline class="cls-34" points="364.82 364.78 364.76 364.75 364.82 364.78"/>
      <path class="cls-35" d="M342.32,402l-.17,0,0,0h0s0,0,0,0h0l.16,0,0-.09"/>
      <path class="cls-45" d="M365.71,370.15a4.9,4.9,0,0,0-.82-.37l-.37-.12a6.77,6.77,0,0,0-1-.2,7.59,7.59,0,0,0-.87-.06.69.69,0,0,1-.28,0l-.13,0a6.05,6.05,0,0,0-2.68.71,3.65,3.65,0,0,0-.73.55,2.36,2.36,0,0,0-.33.39,1.71,1.71,0,0,0,.55,2.38,3.72,3.72,0,0,0,.48.33h0l.12.07.13.07.27.13a5.81,5.81,0,0,0,1.75.42,6.62,6.62,0,0,0,3.84-.65l.12-.07a2.55,2.55,0,0,0,1.17-1.28c0-.15.07-.31.07-.46a1.5,1.5,0,0,0,0-.25,2.25,2.25,0,0,0-1.13-1.5l-.15-.09"/>
      <path class="cls-45" d="M343.55,366.94h0l.51.31c2.13,1.36,3.14,3,3.13,4.8a4.62,4.62,0,0,1-1.07,2.82L346,375a6.6,6.6,0,0,1-1.46,1.36,11.18,11.18,0,0,1-.94.61,15.33,15.33,0,0,1-5.1,1.75l-.27,0a18.74,18.74,0,0,1-3.13.25,19.66,19.66,0,0,1-5.74-.81l-.22-.08a13.24,13.24,0,0,1-1.26-.45l-.28-.12-.5-.24-.46-.24-.15-.08h0l-.15-.09c-2.51-1.5-3.64-3.3-3.51-5.37a3.09,3.09,0,0,1,.25-1,5.43,5.43,0,0,1,1.33-2,9.07,9.07,0,0,1,2-1.49,13.9,13.9,0,0,1,1.49-.73l.1,0a8.63,8.63,0,0,1,1.33-.48,14.24,14.24,0,0,1,1.67-.42,17.62,17.62,0,0,1,3.47-.38h.66a17.51,17.51,0,0,1,7.73,1.66l.71.38h0m4.77-2.62-.36-.2a21.48,21.48,0,0,0-2.38-1.14,26.58,26.58,0,0,0-6.65-1.67c-1-.12-1.93-.19-2.91-.23a23.55,23.55,0,0,0-2.65,0c-.94.06-1.86.14-2.78.26l-.26,0a19.75,19.75,0,0,0-2.2.39c-1,.26-2.07.55-3,.9a25.29,25.29,0,0,0-2.77,1.21l-.12.07-.59.33a17.42,17.42,0,0,0-1.6,1.07,15.27,15.27,0,0,0-1.46,1.29l-.13.15a8.47,8.47,0,0,0-1.88,3.12,6.92,6.92,0,0,0-.31,2.12l0,.11a8,8,0,0,0,2.85,5.52,12.91,12.91,0,0,0,1.45,1.21c.27.18.57.35.86.52l.58.35h0l.24.13.73.39c.36.18.75.33,1.13.5.72.28,1.44.55,2.21.79a31.16,31.16,0,0,0,3.59.84l.35,0a32.11,32.11,0,0,0,4.92.37c1.14,0,2.27-.08,3.4-.18s2-.27,3-.48a25.12,25.12,0,0,0,5.18-1.68c.69-.31,1.32-.66,1.94-1l.21-.15a11.79,11.79,0,0,0,3.75-3.54,7.73,7.73,0,0,0,1.06-2.55v0a6.4,6.4,0,0,0,.06-2.06,7.25,7.25,0,0,0-1.16-3l-.09-.13-.23-.32a12.47,12.47,0,0,0-3.75-3.24l-.18-.1"/>
      <polyline class="cls-35" points="360.69 378 360.57 378.01 360.6 378.04 360.71 378.03 360.69 378"/>
      <polyline class="cls-36" points="353.91 364.26 353.87 364.25 353.87 364.28 353.91 364.29 353.91 364.26"/>
      <polyline class="cls-36" points="367.25 372.77 367.23 372.77 367.23 372.79 367.25 372.79 367.25 372.77"/>
      <path class="cls-43" d="M328,366.17l-.1,0a13.9,13.9,0,0,0-1.49.73,9.07,9.07,0,0,0-2,1.49,5.43,5.43,0,0,0-1.33,2l0,0h0a1.43,1.43,0,0,1,.32.25l0,0a3,3,0,0,0,.63.53c.19.12.26.29.4.43.29.31.66.6,1,.91a1.69,1.69,0,0,1,.37.45,2.54,2.54,0,0,0,.59.82,7.33,7.33,0,0,1,1,1.36c.31.56.82,1.06,1.09,1.62a7.23,7.23,0,0,0,.64,1.08v.12l.22.08a19.66,19.66,0,0,0,5.74.81,18.74,18.74,0,0,0,3.13-.25c.1-.14-.1-.24-.14-.36-.2-.59-.57-1.14-.83-1.72-.16-.35-.38-.69-.53-1a1.68,1.68,0,0,0-.35-.62,1.47,1.47,0,0,1-.27-.43,6.93,6.93,0,0,0-1-1.11c-.31-.37-.7-.72-1-1.11a10.53,10.53,0,0,0-1.5-1.78,1.81,1.81,0,0,1-.58-.71c0-.09-.18-.14-.25-.22-.25-.28-.52-.56-.73-.85a3.34,3.34,0,0,0-.66-.58c-.12-.09-.22-.2-.34-.3a4.73,4.73,0,0,0-.62-.41,1.11,1.11,0,0,1-.36-.31,3.3,3.3,0,0,0-1.16-1"/>
      <path class="cls-46" d="M331.82,365.73l-.05,0a1.85,1.85,0,0,0-.43-.17l-.13,0h0a1.75,1.75,0,0,1-.23-.21,14.24,14.24,0,0,0-1.67.42,8.63,8.63,0,0,0-1.33.48,3.3,3.3,0,0,1,1.16,1,1.11,1.11,0,0,0,.36.31,4.73,4.73,0,0,1,.62.41c.12.09.22.2.34.3a3.34,3.34,0,0,1,.66.58c.21.29.48.57.73.85.07.08.22.13.25.22a1.81,1.81,0,0,0,.58.71,10.53,10.53,0,0,1,1.5,1.78c.28.39.67.74,1,1.11a6.93,6.93,0,0,1,1,1.11,1.47,1.47,0,0,0,.27.43,1.68,1.68,0,0,1,.35.62c.16.35.38.69.53,1,.26.58.63,1.14.83,1.72,0,.12.24.22.14.36l.27,0a15.33,15.33,0,0,0,5.1-1.75,11.18,11.18,0,0,0,.94-.61A6.6,6.6,0,0,0,346,375l-.07,0h0a1.47,1.47,0,0,1-.39-.42,9.32,9.32,0,0,0-.78-.84c-.16-.15-.22-.32-.4-.46l-.07-.07a3.7,3.7,0,0,0-1.1-.4l-.13-.05.05-.06a.58.58,0,0,0,.16,0,0,0,0,0,0,0-.05.64.64,0,0,0-.16-.17l-.09,0h-.08a.92.92,0,0,1-.31,0l-.08,0h0a.38.38,0,0,1-.11-.1l-.1,0a.79.79,0,0,1-.43-.09h0a2.23,2.23,0,0,1-.34-.31,6.57,6.57,0,0,0-1.1-.87l-.12-.12-.13-.09a.68.68,0,0,0-.25-.09h-.11a.65.65,0,0,1-.29-.07l0,0h0a2.9,2.9,0,0,1-.26-.2c-.15-.11-.29-.23-.46-.33l-.14-.07a1.44,1.44,0,0,0-.29-.09l-.22-.08c-.25-.25-.63-.43-.92-.67l-.1-.07-.08,0-.09,0-.09,0-.08,0h0a.76.76,0,0,1-.16-.12l-.08-.06,0,0a.73.73,0,0,0-.27-.06h-.16s0,0,0-.09,0,0,0-.05H336l-.13,0a.15.15,0,0,1-.07-.09.23.23,0,0,0-.12-.12l-.21-.1-.07,0-.18-.07-.1,0h0a.36.36,0,0,1-.1-.08l-.13-.06a1.23,1.23,0,0,1-.4-.12l0,0h0a3.43,3.43,0,0,1-.42-.32c-.2-.17-.37-.34-.56-.52l-.13-.1-.07,0-.07,0-.11,0-.1,0-.17-.08h0c-.18-.1-.32-.23-.49-.34s-.35-.25-.54-.37"/>
      <path class="cls-35" d="M343.55,366.94l-.71-.38a17.52,17.52,0,0,0-7.73-1.66h-.66a17.62,17.62,0,0,0-3.47.38,1.75,1.75,0,0,0,.23.21h0l.13,0a1.85,1.85,0,0,1,.43.17l.05,0h0c.2.11.36.25.54.37s.31.24.49.34l.17.08.1,0,.11,0,.07,0,.07,0h0l.13.1c.19.18.36.35.56.52a3.43,3.43,0,0,0,.42.32l0,0a1.23,1.23,0,0,0,.4.12l.13.06a.36.36,0,0,0,.1.08l.1,0,.18.07.07,0,.21.1a.23.23,0,0,1,.12.12.15.15,0,0,0,.07.09l.13,0h.14s0,0,0,.05-.05.08,0,.09h.16a.73.73,0,0,1,.27.06l0,0,.08.06a.76.76,0,0,0,.16.12h0l.08,0,.09,0,.09,0,.08,0,.1.07c.28.23.66.42.92.67l.22.08a1.44,1.44,0,0,1,.29.09l.14.07h0c.17.1.3.22.46.33a2.9,2.9,0,0,0,.26.2h0l0,0a.65.65,0,0,0,.29.07H340a.68.68,0,0,1,.25.09l.13.09.12.12a6.57,6.57,0,0,1,1.1.87,2.23,2.23,0,0,0,.34.31h0a.79.79,0,0,0,.43.09l.1,0a.39.39,0,0,0,.11.1h0l.08,0a.92.92,0,0,0,.31,0H343l.09,0h0a.64.64,0,0,1,.16.17,0,0,0,0,1,0,.05.58.58,0,0,1-.16,0l-.05.06.13.05a3.7,3.7,0,0,1,1.1.4l.07.07c.19.14.24.32.4.46a9.32,9.32,0,0,1,.78.84,1.47,1.47,0,0,0,.39.42h0l.07,0,.11-.12a4.62,4.62,0,0,0,1.07-2.82c0-1.83-1-3.44-3.13-4.8l-.51-.31h0"/>
      <path class="cls-40" d="M323.13,370.49l0,0a3.09,3.09,0,0,0-.25,1c-.14,2.07,1,3.87,3.51,5.37l.15.09.15.08.46.24.5.24.28.12a13.24,13.24,0,0,0,1.26.45V378a7.23,7.23,0,0,1-.64-1.08c-.26-.56-.78-1.07-1.09-1.62a7.33,7.33,0,0,0-1-1.36,2.54,2.54,0,0,1-.59-.82,1.69,1.69,0,0,0-.37-.45c-.29-.31-.66-.6-1-.91-.14-.14-.22-.31-.4-.43a3,3,0,0,1-.63-.53l0,0a1.43,1.43,0,0,0-.32-.25"/>
    </g>
  </g>
</svg>
