<svg id="Layer_1" data-name="Layer 1" xmlns="http://www.w3.org/2000/svg" xmlns:xlink="http://www.w3.org/1999/xlink" viewBox="0 0 451 451">
  <defs>
    <style>
      .cls-1 {
        fill: #d4f0ff;
      }

      .cls-2 {
        fill: #e6f0fc;
      }

      .cls-3 {
        fill: #69c1f9;
      }

      .cls-4 {
        fill: #b9d4ea;
      }

      .cls-5 {
        fill: #128fdb;
      }

      .cls-6 {
        fill: #22435b;
      }

      .cls-7 {
        fill: #fcb9a9;
      }

      .cls-8 {
        fill: #273f63;
      }

      .cls-9 {
        fill: #2b4f6f;
      }

      .cls-10 {
        fill: #417296;
      }

      .cls-11 {
        fill: #843843;
      }

      .cls-12 {
        fill: #682733;
      }

      .cls-13 {
        fill: #efa89a;
      }

      .cls-14, .cls-27 {
        fill: #fff;
      }

      .cls-15 {
        fill: #c46a58;
      }

      .cls-16 {
        isolation: isolate;
      }

      .cls-17 {
        fill: #2eb4ff;
      }

      .cls-18 {
        fill: #38698e;
      }

      .cls-19 {
        fill: #bed2ea;
      }

      .cls-20 {
        fill: #0070c0;
      }

      .cls-21 {
        fill: #5fcaff;
      }

      .cls-22 {
        fill: #f0f8ff;
      }

      .cls-23 {
        fill: #20d382;
      }

      .cls-24 {
        fill: #29abe2;
        opacity: 0.47;
      }

      .cls-25 {
        opacity: 0.53;
        fill: url(#linear-gradient);
      }

      .cls-26 {
        fill: #52789d;
      }

      .cls-27 {
        font-size: 25.52px;
        font-family: Montserrat-Bold, Montserrat;
        font-weight: 700;
      }

      .cls-28 {
        fill: #541a27;
      }
    </style>
    <linearGradient id="linear-gradient" x1="-3394.03" y1="-1393.36" x2="-3349.9" y2="-1428.5" gradientTransform="matrix(0.69, -0.72, 0.72, 0.69, 3485.87, -1113.67)" gradientUnits="userSpaceOnUse">
      <stop offset="0" stop-color="#fff" stop-opacity="0"/>
      <stop offset="1" stop-color="#fff"/>
    </linearGradient>
  </defs>
  <title>Kaykushal</title>
  <g>
    <g>
      <path class="cls-1" d="M369.69,407.66c-7.47-8-4.67-21.59,2.44-29.94s17.34-13.24,26.32-19.52c22.86-16,38.15-42.51,40-70.34s-10.07-56.34-31.48-74.22c-14.11-11.79-31.82-19-44.83-32-13.83-13.8-21-32.76-32-48.89-27.75-40.6-82.24-60.8-129.75-48.1s-84.66,57.38-88.46,106.41c-1,12.35-.15,25.45-6.06,36.35-6.68,12.32-20.28,18.83-31.41,27.35-25,19.15-38.87,51.9-35.22,83.18s24.69,60,53.43,72.83Z"/>
      <g>
        <g>
          <path class="cls-2" d="M32.35,129.53a4.79,4.79,0,0,0-6.11-.51L11.56,139v13.58a3.35,3.35,0,0,0,3.35,3.35H38V135.73Z"/>
          <path class="cls-3" d="M32.35,129.53l5.66,6.2v-6.54a8.77,8.77,0,0,1,1.52-4.95,7,7,0,1,1,8.17-3.87h27V101.05a3.35,3.35,0,0,0-3.35-3.35H14.9a3.35,3.35,0,0,0-3.35,3.35V139l14.69-10A4.79,4.79,0,0,1,32.35,129.53Z"/>
          <path class="cls-2" d="M46.83,120.37h.87a7,7,0,1,0-8.17,3.87A8.82,8.82,0,0,1,46.83,120.37Z"/>
          <path class="cls-4" d="M74.71,152.55v-12.4L61.35,128a4.79,4.79,0,0,0-6.07-.2L40.46,138.41,38,135.73v20.17H71.36A3.35,3.35,0,0,0,74.71,152.55Z"/>
          <path class="cls-5" d="M41.33,124.48a7,7,0,0,1-1.8-.24A8.77,8.77,0,0,0,38,129.19v6.54l2.45,2.68,14.83-10.62a4.79,4.79,0,0,1,6.07.2l13.36,12.16V120.37h-27A7,7,0,0,1,41.33,124.48Z"/>
          <path class="cls-4" d="M47.71,120.37h-.87a8.82,8.82,0,0,0-7.3,3.87,7,7,0,0,0,8.17-3.87Z"/>
        </g>
        <g>
          <path class="cls-6" d="M88.12,400.09s-5.32,2.89-6,4.49,2.09,1.79,4.26,1.79a53.88,53.88,0,0,0,7-.49c1.67-.27,4.49-3.27,6.73-4.11a15,15,0,0,1,2.51-.84l-.53,5.44h2.09a24.88,24.88,0,0,0,1.82-6c.23-2.39.2-7.34,0-7.26Z"/>
          <polygon class="cls-7" points="100.44 378.88 97.09 390.85 88.12 400.09 105.91 393.13 105.91 389.83 110.25 381.05 100.44 378.88"/>
          <polygon class="cls-8" points="132.04 301.34 142.52 263.7 134.08 254.58 131.31 259.75 132.04 301.34"/>
          <rect class="cls-8" x="121.04" y="229.72" width="40.83" height="4.94"/>
          <path class="cls-9" d="M121,234.66s-8.59,45.31-11.78,64.47-12.16,82.11-12.16,82.11,5.78,2.58,9.12,2.89a35.78,35.78,0,0,0,6.23,0s21.9-89.1,23.42-102a60.8,60.8,0,0,0-1.22-22.2s5.32,7.15,7.3,12.16S145.29,379,145.29,379l14,.46s6.54-105.07,6.23-121.49-3.65-23.26-3.65-23.26Z"/>
          <path class="cls-10" d="M137.68,235.12h-5.14a1.69,1.69,0,0,1-1.68-1.68V231.6a1.69,1.69,0,0,1,1.68-1.68h5.14a1.69,1.69,0,0,1,1.68,1.68v1.83A1.69,1.69,0,0,1,137.68,235.12Zm-5.14-4.29a.77.77,0,0,0-.77.77v1.83a.77.77,0,0,0,.77.77h5.14a.77.77,0,0,0,.77-.77V231.6a.77.77,0,0,0-.77-.77Z"/>
          <g>
            <path class="cls-11" d="M129.91,134.5a19,19,0,0,0,16.8-8.93,17.92,17.92,0,0,0,5.1,11,13.33,13.33,0,0,0,9.29,3.76c.31-8.59-.14-20.94-17.7-21.88-11-.59-17.16,5.6-17.79,16.36,2.22-.74,4.52-1.29,6.71-2.11Z"/>
            <path class="cls-12" d="M161.1,140.3a13.33,13.33,0,0,1-9.29-3.76,17.92,17.92,0,0,1-5.1-11,19,19,0,0,1-16.8,8.93l2.41-1.83c-2.19.82-4.49,1.37-6.71,2.11v.06c-.61,10.8-1.06,14.14-1.82,18.55s1.44,10,1.44,10a76.46,76.46,0,0,1,13.94-3c7.33-.83,12.59-.6,16.32.31s5,2,5,2,1.29-9.5.53-16.19A49.58,49.58,0,0,1,161.1,140.3Z"/>
          </g>
          <path class="cls-4" d="M126.18,166.69s-.5.08-4.69,3.73-7.6,10.34-12.32,15.74a82.47,82.47,0,0,1-6.92,7.3l1.93,14.23s3.54.85,7.19-2.58,12-12.18,12-12.18Z"/>
          <path class="cls-13" d="M90.25,171s3.88,10.72,8.67,17,7.52,8.32,7.68,13.06-.83,7.17-4.48,6.86-8-2.06-10.11-7.95-8.13-20.71-8.13-20.71Z"/>
          <g>
            <polygon class="cls-4" points="168 211.47 168 217.58 176.79 223.26 178.71 222.24 179.47 217.37 172.79 212.04 168 211.47"/>
            <path class="cls-14" d="M123.63,213s.08,7.31-1.37,10.27-1.9,6.08-1.22,6.46,27.67,1.37,27.67,1.37l9.66-3.57-2.43-12.7-13-3.35Z"/>
            <path class="cls-4" d="M120.28,200.41a66.5,66.5,0,0,1,2.81,8.63,26,26,0,0,1,.53,4s17.94,1.29,22.73,3.19,7,5.26,7.15,7.08.68,4.63-2.05,6.23l-2.74,1.6h13.91s2-1.37,1-3.35a33.25,33.25,0,0,1-2.81-12.54c0-5,.46-8.74,1.6-11.4s2.36-5.4,2.36-5.4l-2.89-12.24-36.42,11Z"/>
            <path class="cls-14" d="M151.05,161.09s16.55,6.14,18.95,9.67,8.32,34.33,9.92,40.6a15.7,15.7,0,0,1-1.37,11.18s.8-3-2.05-6.16-8.55-.46-8.55-.46a4.68,4.68,0,0,1-.23-1.6c0-1-6.84-24.52-6.84-24.52s-.8,6.5-2.85,10.26-13,3.31-18.86,2.51-18.88-2.17-18.88-2.17a8.06,8.06,0,0,1-1.48-7.18c1-4.56,3.19-9.81,3.88-15.05s.8-8.21,2.28-10.38S136,162.06,136,162.06Z"/>
            <path class="cls-4" d="M137.84,160.84a12.76,12.76,0,0,0-4,3.42,21.6,21.6,0,0,0-3.08,9.31,13.77,13.77,0,0,0,.76,4.49l5.47-4.22,6,5.7s6.23-6.35,7.83-10.57,1.37-6.27,1-7.07a3.53,3.53,0,0,0-1.67-1.29Z"/>
            <path class="cls-13" d="M137.84,161.37s-1.31.72-1.43,1.49S137,173,137,173s12.66-8.55,13.17-9.32,0-1.13,0-1.13l-.68-2.95L143,158.9,139.55,160Z"/>
            <path class="cls-15" d="M137.84,155.59v5.78a18.35,18.35,0,0,1,7.22-2,4.8,4.8,0,0,1,5.09,3.19V150.16Z"/>
            <g>
              <path class="cls-7" d="M145.47,153.3a16.83,16.83,0,0,0,2.26-5.58c.64-4.09-1.46-8.05-2.3-12.11a20.11,20.11,0,0,1,0-7.78c-1.15,1.84-3.72,5.64-6.22,7.13-3.36,2-8.67,2.34-8.67,2.34s.17,6.1.29,8.55.86,6.44,2.39,8.21,3.76,4,6.27,4.22a5.39,5.39,0,0,0,1.74-.24,7.2,7.2,0,0,0,1.11-.68A12.66,12.66,0,0,0,145.47,153.3Z"/>
              <path class="cls-13" d="M152.78,140.31c-.91.51-4.9-1.43-5.82-6.1a48.32,48.32,0,0,1-1-7.41s-.23.4-.62,1a20.11,20.11,0,0,0,0,7.78c.84,4.06,2.94,8,2.3,12.11a16.83,16.83,0,0,1-2.26,5.58,12.66,12.66,0,0,1-3.17,4.06,7.2,7.2,0,0,1-1.11.68,16.32,16.32,0,0,0,8.07-5.58,20.12,20.12,0,0,0,2.62-5.47s4.33-.86,4.16-4.45S153.69,139.8,152.78,140.31Z"/>
            </g>
            <g>
              <g class="cls-16">
                <path class="cls-8" d="M106.55,197.66l-.91,1.18a1.2,1.2,0,0,1,1-.4l.91-1.18A1.2,1.2,0,0,0,106.55,197.66Z"/>
                <path class="cls-3" d="M111,200.62l.91-1.18a2,2,0,0,1-1.48-.93l-.91,1.18A2,2,0,0,0,111,200.62Z"/>
                <polygon class="cls-3" points="109.51 199.69 110.42 198.51 109.63 197.25 108.72 198.43 109.51 199.69"/>
                <polygon class="cls-8" points="108.72 198.43 109.63 197.25 107.55 197.25 106.64 198.43 108.72 198.43"/>
                <path class="cls-17" d="M144.86,219.46l.91-1.18c.32-.41.26-1.1-.22-1.87l-.91,1.18C145.12,218.36,145.18,219,144.86,219.46Z"/>
                <polygon class="cls-3" points="128.9 200.62 129.8 199.44 111.9 199.44 110.99 200.62 128.9 200.62"/>
                <path class="cls-3" d="M129.3,200.46l.91-1.18a.49.49,0,0,1-.41.17l-.91,1.18A.49.49,0,0,0,129.3,200.46Z"/>
                <path class="cls-3" d="M129.3,200.46l.91-1.18c.13-.17.11-.45-.09-.77l-.91,1.18C129.41,200,129.43,200.29,129.3,200.46Z"/>
                <path class="cls-18" d="M108.72,198.43l.79,1.26a2,2,0,0,0,1.48.93h17.91c.5,0,.64-.42.32-.93l-.79-1.26Z"/>
                <polygon class="cls-3" points="129.21 199.69 130.12 198.51 129.33 197.25 128.42 198.43 129.21 199.69"/>
                <path class="cls-3" d="M132.2,199.86a.7.7,0,0,1-.13-.58l-.11.14-.11.15-.12.15-.12.15-.12.15-.12.15-.11.15-.11.14a.7.7,0,0,0,.13.58,1.78,1.78,0,0,0,1.3.82l.91-1.18A1.78,1.78,0,0,1,132.2,199.86Z"/>
                <path class="cls-3" d="M133.86,200.53a.43.43,0,0,1-.36.14l-.91,1.18a.43.43,0,0,0,.36-.14Z"/>
                <path class="cls-3" d="M132.07,199.28a.33.33,0,0,1,.05-.09l-.91,1.18a.33.33,0,0,0-.05.09l.45-.59.12-.15.06-.08.06-.08.06-.07.11-.14Z"/>
                <path class="cls-3" d="M132.12,199.19l-.91,1.18a.43.43,0,0,1,.36-.15l.91-1.18A.43.43,0,0,0,132.12,199.19Z"/>
                <path class="cls-3" d="M133,201.71l.91-1.18c.11-.15.09-.39-.08-.67a1.78,1.78,0,0,0-1.3-.82l-.91,1.18a1.78,1.78,0,0,1,1.3.82C133.05,201.31,133.07,201.56,133,201.71Z"/>
                <path class="cls-18" d="M131.58,200.22c-.44,0-.56.37-.28.82a1.78,1.78,0,0,0,1.3.82c.44,0,.56-.37.28-.82A1.78,1.78,0,0,0,131.58,200.22Z"/>
                <path class="cls-9" d="M108.72,198.43l.79,1.26a2,2,0,0,0,1.48.93h17.91c.5,0,.64-.42.32-.93l-.79-1.26h2a5,5,0,0,1,3.63,2.28l10.55,16.88c.79,1.26.44,2.28-.78,2.28H120a5,5,0,0,1-3.63-2.28l-10.55-16.88c-.79-1.26-.44-2.28.78-2.28Zm23.88,3.42c.44,0,.56-.37.28-.82a1.78,1.78,0,0,0-1.3-.82c-.44,0-.56.37-.28.82a1.78,1.78,0,0,0,1.3.82"/>
                <polygon class="cls-8" points="128.42 198.43 129.33 197.25 109.63 197.25 108.72 198.43 128.42 198.43"/>
                <polygon class="cls-8" points="130.45 198.43 131.36 197.25 129.33 197.25 128.42 198.43 130.45 198.43"/>
                <polygon class="cls-8" points="144.64 217.58 145.54 216.4 134.99 199.53 134.08 200.71 144.64 217.58"/>
                <path class="cls-8" d="M134.08,200.71l.91-1.18a5,5,0,0,0-3.63-2.28l-.91,1.18A5,5,0,0,1,134.08,200.71Z"/>
              </g>
              <path class="cls-7" d="M152.68,212.94a23.65,23.65,0,0,1-3.11-1,40.83,40.83,0,0,0-4.51-5.53c-.7-.61-6.58-1.28-6.58-1.28l1.81,2.9-5.16,3.18L131,212.3a1.19,1.19,0,0,0-.61,1.89h0a1.19,1.19,0,0,0,1.13.42l3.88-.69,2.54-1-2.71,1.25h0a.64.64,0,0,0-.19,1.1c1.72,1.35,5.35,4.15,6.55,4.57,1.59.55,6-.8,6-.8l3.48.8Z"/>
            </g>
            <path class="cls-7" d="M152.68,212.94s16.58,1.61,19.66,2.64,6.36,4.38,6.37,6.67-1.3,4.17-5.75,4.45-21.91-6.84-21.91-6.84Z"/>
          </g>
        </g>
        <g>
          <g>
            <path class="cls-19" d="M402,211.84c-.17,1.5-.5,3-.75,4.46l2.69.49c.25-1.52.59-3,.76-4.56l-2.71-.39"/>
            <path class="cls-19" d="M402.88,203.8c-.11,1.5-.21,3-.44,4.49l2.72.32c.23-1.53.33-3.06.44-4.6l-2.73-.21"/>
            <polyline class="cls-19" points="403.26 195.73 403.15 200.25 405.88 200.39 406 195.77 403.26 195.73"/>
            <polyline class="cls-19" points="396.16 235.42 395.8 236.48 395.38 237.53 394.55 239.64 397.1 240.65 397.94 238.5 398.37 237.43 398.74 236.34 396.16 235.42"/>
            <path class="cls-19" d="M398.61,227.7c-.43,1.45-.79,2.91-1.31,4.33l2.61.84c.53-1.45.89-2.94,1.32-4.42l-2.63-.75"/>
            <polyline class="cls-19" points="400.56 219.87 399.54 224.27 402.2 224.94 403.24 220.44 400.56 219.87"/>
            <path class="cls-19" d="M385.81,257.39c-.74,1.31-1.61,2.55-2.41,3.82l2.3,1.49c.81-1.31,1.7-2.57,2.45-3.91l-2.35-1.4"/>
            <path class="cls-19" d="M389.71,250.29c-.69,1.34-1.35,2.69-2.12,4l2.38,1.34c.8-1.32,1.47-2.7,2.18-4.07l-2.44-1.25"/>
            <polyline class="cls-19" points="393.17 243 391.31 247.12 393.79 248.3 395.68 244.09 393.17 243"/>
            <path class="cls-19" d="M371.36,276.91c-1,1.12-2.07,2.19-3.1,3.28l2,1.9c1.05-1.12,2.13-2.22,3.17-3.35l-2-1.84"/>
            <path class="cls-19" d="M376.58,270.71l-1.4,1.78c-.48.58-1,1.14-1.47,1.72L375.8,276c.5-.58,1-1.16,1.5-1.76l1.42-1.81-2.14-1.7"/>
            <polyline class="cls-19" points="381.39 264.24 378.77 267.91 380.96 269.56 383.64 265.8 381.39 264.24"/>
            <polyline class="cls-19" points="353.41 293.27 349.73 295.89 351.28 298.14 355.04 295.47 353.41 293.27"/>
            <path class="cls-19" d="M359.72,288.2c-.57.48-1.13,1-1.72,1.47l-1.77,1.39,1.69,2.15,1.81-1.43c.6-.48,1.17-1,1.76-1.5l-1.77-2.08"/>
            <path class="cls-19" d="M365.69,282.77c-1.1,1-2.17,2.09-3.28,3.1l1.84,2c1.13-1,2.23-2.12,3.35-3.18l-1.9-2"/>
            <polyline class="cls-19" points="332.6 305.81 328.49 307.67 329.57 310.18 333.77 308.28 332.6 305.81"/>
            <path class="cls-19" d="M339.78,302.08c-1.29.78-2.64,1.43-4,2.12l1.25,2.44c1.36-.71,2.75-1.37,4.07-2.17l-1.34-2.39"/>
            <path class="cls-19" d="M346.7,297.91c-1.28.79-2.51,1.66-3.83,2.4l1.4,2.35c1.34-.76,2.6-1.64,3.91-2.45l-1.49-2.29"/>
            <polyline class="cls-19" points="309.75 314.03 305.35 315.04 305.92 317.72 310.42 316.69 309.75 314.03"/>
            <path class="cls-19" d="M317.53,311.78c-1.41.52-2.87.87-4.32,1.3l.75,2.64c1.47-.44,3-.8,4.42-1.32l-.85-2.61"/>
            <path class="cls-19" d="M325.12,309c-1.41.53-2.78,1.16-4.22,1.6l.91,2.59c1.47-.46,2.88-1.1,4.32-1.64l-1-2.55"/>
            <polyline class="cls-19" points="285.73 317.63 281.22 317.74 281.25 320.48 285.87 320.36 285.73 317.63"/>
            <path class="cls-19" d="M293.8,316.93c-1.49.22-3,.31-4.49.43l.21,2.73c1.54-.11,3.07-.21,4.59-.43l-.31-2.72"/>
            <path class="cls-19" d="M301.78,315.73c-1.49.25-3,.58-4.45.75l.39,2.71c1.53-.17,3-.52,4.55-.76l-.49-2.69"/>
            <path class="cls-19" d="M257,315.72l-.49,2.69c1.52.25,3,.59,4.55.76l.39-2.71c-1.49-.17-3-.5-4.45-.75"/>
            <path class="cls-19" d="M265,316.92l-.31,2.72c1.52.23,3.05.33,4.59.44l.21-2.73c-1.5-.11-3-.21-4.49-.44"/>
            <polyline class="cls-19" points="273.06 317.62 272.92 320.36 277.53 320.48 277.57 317.74 273.06 317.62"/>
            <polyline class="cls-19" points="233.67 309.02 232.66 311.57 234.81 312.42 235.88 312.84 236.98 313.21 237.89 310.63 236.82 310.27 235.77 309.85 233.67 309.02"/>
            <path class="cls-19" d="M241.29,311.78l-.85,2.6c1.45.53,2.95.89,4.42,1.32l.75-2.63c-1.45-.43-2.91-.79-4.32-1.3"/>
            <polyline class="cls-19" points="249.04 314.02 248.37 316.68 252.87 317.71 253.44 315.04 249.04 314.02"/>
            <path class="cls-19" d="M212.1,297.88l-1.49,2.29c1.31.81,2.56,1.7,3.91,2.45l1.4-2.35c-1.31-.74-2.55-1.61-3.83-2.4"/>
            <path class="cls-19" d="M219,302.07l-1.34,2.38c1.32.8,2.71,1.47,4.07,2.18l1.25-2.44c-1.34-.69-2.69-1.35-4-2.12"/>
            <polyline class="cls-19" points="226.19 305.79 225.02 308.26 229.22 310.16 230.3 307.64 226.19 305.79"/>
            <path class="cls-19" d="M193.11,282.73l-1.9,2c1.12,1.05,2.22,2.13,3.35,3.17l1.84-2c-1.12-1-2.18-2.07-3.28-3.1"/>
            <path class="cls-19" d="M199.1,288.19l-1.77,2.09c.58.5,1.15,1,1.75,1.5l1.81,1.42,1.7-2.14-1.77-1.4c-.59-.48-1.15-1-1.72-1.47"/>
            <polyline class="cls-19" points="205.39 293.24 203.76 295.44 207.52 298.11 209.07 295.86 205.39 293.24"/>
            <polyline class="cls-19" points="177.42 264.2 175.17 265.75 177.84 269.51 180.04 267.88 177.42 264.2"/>
            <path class="cls-19" d="M182.25,270.7l-2.14,1.7,1.42,1.81c.48.6,1,1.17,1.5,1.76l2.09-1.77c-.49-.57-1-1.13-1.47-1.72l-1.4-1.77"/>
            <path class="cls-19" d="M187.44,276.88l-2,1.84c1,1.14,2.11,2.23,3.17,3.35l2-1.9c-1-1.1-2.09-2.17-3.1-3.28"/>
            <polyline class="cls-19" points="165.64 242.96 163.13 244.04 165.03 248.25 167.5 247.07 165.64 242.96"/>
            <path class="cls-19" d="M169.11,250.28l-2.44,1.25c.71,1.36,1.38,2.75,2.18,4.07l2.39-1.34c-.78-1.29-1.44-2.64-2.13-4"/>
            <path class="cls-19" d="M173,257.35l-2.36,1.4c.76,1.34,1.64,2.6,2.46,3.91l2.3-1.49c-.8-1.28-1.67-2.51-2.4-3.83"/>
            <polyline class="cls-19" points="207.55 89.64 203.79 92.32 205.43 94.51 209.11 91.89 207.55 89.64"/>
            <path class="cls-19" d="M200.91,94.58,199.09,96c-.6.48-1.17,1-1.76,1.5l1.78,2.09c.57-.49,1.12-1,1.71-1.47l1.78-1.4-1.7-2.14"/>
            <polyline class="cls-19" points="229.26 77.61 225.06 79.5 226.23 81.97 230.34 80.12 229.26 77.61"/>
            <path class="cls-19" d="M221.78,81.14c-1.36.71-2.75,1.38-4.07,2.18L219,85.71c1.29-.78,2.65-1.43,4-2.13l-1.25-2.44"/>
            <path class="cls-19" d="M214.56,85.13c-1.35.76-2.61,1.64-3.91,2.46l1.49,2.3c1.27-.8,2.51-1.67,3.83-2.4l-1.4-2.36"/>
            <polyline class="cls-19" points="252.92 70.06 248.42 71.09 249.08 73.75 253.48 72.74 252.92 70.06"/>
            <path class="cls-19" d="M244.89,72.06c-1.48.44-3,.8-4.43,1.33l.85,2.6c1.41-.52,2.88-.87,4.32-1.3l-.74-2.64"/>
            <path class="cls-19" d="M237,74.56c-1.47.46-2.87,1.09-4.32,1.63l1,2.55c1.4-.53,2.78-1.16,4.22-1.6L237,74.56"/>
            <polyline class="cls-19" points="277.58 67.31 272.97 67.42 273.11 70.16 277.62 70.04 277.58 67.31"/>
            <path class="cls-19" d="M269.31,67.7c-1.53.11-3.07.21-4.59.44l.31,2.72c1.49-.22,3-.32,4.5-.43l-.22-2.73"/>
            <path class="cls-19" d="M261.12,68.6c-1.54.17-3,.51-4.55.76l.48,2.69c1.49-.24,3-.57,4.46-.75l-.39-2.7"/>
            <path class="cls-19" d="M297.76,68.6l-.39,2.71c1.5.17,3,.51,4.46.75l.48-2.69c-1.51-.25-3-.58-4.55-.76"/>
            <path class="cls-19" d="M289.54,67.7l-.21,2.73c1.5.11,3,.21,4.49.43l.32-2.72c-1.53-.22-3.06-.33-4.6-.44"/>
            <polyline class="cls-19" points="281.3 67.31 281.26 70.04 285.77 70.16 285.91 67.42 281.3 67.31"/>
            <polyline class="cls-19" points="321.86 74.58 320.94 77.15 322.01 77.52 323.06 77.93 325.16 78.75 326.17 76.21 324.03 75.36 322.95 74.95 321.86 74.58"/>
            <path class="cls-19" d="M314,72.07l-.75,2.64c1.45.43,2.91.78,4.33,1.3l.84-2.6c-1.45-.53-2.94-.89-4.42-1.33"/>
            <polyline class="cls-19" points="305.96 70.07 305.4 72.75 309.8 73.76 310.46 71.11 305.96 70.07"/>
            <path class="cls-19" d="M344.32,85.15l-1.4,2.35c1.31.75,2.55,1.61,3.82,2.41l1.49-2.3c-1.31-.81-2.57-1.69-3.91-2.45"/>
            <path class="cls-19" d="M337.07,81.16l-1.25,2.43c1.34.69,2.69,1.35,4,2.13l1.34-2.39c-1.31-.8-2.7-1.46-4.07-2.17"/>
            <polyline class="cls-19" points="329.61 77.62 328.53 80.14 332.64 82 333.82 79.53 329.61 77.62"/>
            <path class="cls-19" d="M357.94,94.59l-1.7,2.14,1.78,1.4c.58.48,1.14,1,1.72,1.47l1.77-2.08c-.59-.5-1.16-1-1.76-1.5l-1.81-1.43"/>
            <path class="cls-19" d="M375.81,111.81l-2.08,1.78c.48.57,1,1.12,1.47,1.71l1.39,1.78,2.15-1.7-1.43-1.81c-.48-.6-1-1.17-1.5-1.76"/>
            <polyline class="cls-19" points="393.8 139.53 391.33 140.71 393.19 144.82 395.71 143.74 393.8 139.53"/>
            <path class="cls-19" d="M390,132.18l-2.39,1.34c.78,1.29,1.43,2.65,2.12,4l2.44-1.25c-.71-1.36-1.37-2.75-2.17-4.07"/>
            <path class="cls-19" d="M385.72,125.13l-2.3,1.49c.8,1.27,1.67,2.51,2.41,3.83l2.35-1.4c-.76-1.35-1.64-2.6-2.45-3.91"/>
            <polyline class="cls-19" points="402.21 162.89 399.56 163.56 400.57 167.96 403.25 167.39 402.21 162.89"/>
            <path class="cls-19" d="M399.91,154.93l-2.6.85c.52,1.41.87,2.88,1.3,4.32l2.64-.74c-.44-1.48-.8-3-1.33-4.43"/>
            <path class="cls-19" d="M397.11,147.18l-2.55,1c.53,1.4,1.16,2.78,1.6,4.22l2.58-.92c-.45-1.47-1.09-2.87-1.63-4.31"/>
            <polyline class="cls-19" points="405.88 187.44 403.15 187.58 403.26 192.1 406 192.06 405.88 187.44"/>
            <path class="cls-19" d="M405.17,179.2l-2.72.31c.22,1.49.31,3,.43,4.5l2.73-.22c-.11-1.53-.21-3.06-.44-4.59"/>
            <path class="cls-19" d="M404,171l-2.69.48c.25,1.49.58,3,.75,4.46l2.71-.39c-.17-1.53-.52-3-.76-4.55"/>
          </g>
          <g>
            <g>
              <g>
                <g>
                  <path class="cls-5" d="M361.39,261.67a4.14,4.14,0,0,0,4.14,4.14h69.79a4.14,4.14,0,0,0,4.14-4.14V208H361.39Z"/>
                  <path class="cls-20" d="M435.31,193.89H365.52a4.14,4.14,0,0,0-4.14,4.14v10h78.06V198A4.14,4.14,0,0,0,435.31,193.89Z"/>
                </g>
                <g>
                  <rect class="cls-21" x="417.89" y="198.13" width="6.17" height="6.17" rx="3.08" ry="3.08"/>
                  <rect class="cls-21" x="425.66" y="198.13" width="6.17" height="6.17" rx="3.08" ry="3.08"/>
                  <rect class="cls-21" x="410.11" y="198.13" width="6.17" height="6.17" rx="3.08" ry="3.08"/>
                </g>
              </g>
              <rect class="cls-20" x="367.73" y="215.79" width="64.73" height="5.4" rx="2.7" ry="2.7"/>
              <rect class="cls-20" x="367.73" y="224.92" width="64.73" height="5.4" rx="2.7" ry="2.7"/>
              <rect class="cls-20" x="367.73" y="243.16" width="64.73" height="5.4" rx="2.7" ry="2.7"/>
              <rect class="cls-20" x="367.73" y="252.29" width="55.78" height="5.4" rx="2.7" ry="2.7"/>
            </g>
            <path class="cls-20" d="M408.45,212.14H361.39v40.41c0,2.28,1.93,4.14,4.3,13.26H415.6V219A7,7,0,0,0,408.45,212.14Z"/>
            <rect class="cls-20" x="367.73" y="234.04" width="64.73" height="5.4" rx="2.7" ry="2.7"/>
          </g>
          <path class="cls-20" d="M182.56,396.23l75.26.84,63.4-12.82,4.56-90.2s-8.09-52.75-28.22-57.22-125.5,33.62-125.5,33.62l-34.21,92.83v11.63Z"/>
          <path class="cls-5" d="M206.18,224.74s-25.67,9-36.62,11.48-16,8-18,20.07-23.95,113.13-23.95,120.2,3.42,14.35,12.54,18.35,42.42,1.39,42.42,1.39h13s5.47-7.43,3.42-14.5-11.18-10-11.18-10-10.49-4.79-17.79-6.39-16.42-1.37-21.67,3l-5.25,4.33a20.29,20.29,0,0,1,6.84-10.26c5.47-4.33,7.07-2.74,12.09-5.7a33.94,33.94,0,0,0,10-8.56c2.51-3.07,4.56-12.88,4.56-12.88s2.28-34.67,2.51-42.88,0-15.05,0-15.05,6.54,36.72,7.15,57.47S197.55,374,202.6,381.27s18.85,14.82,18.85,14.82l73.33-.91,14.14-87.58V280.47s.46-26.3-2.05-33-10-11.71-15.28-14-22.3-7.79-22.3-7.79Z"/>
          <g>
            <path class="cls-9" d="M265.12,121.84c-3.42-3-10-6.16-23.26-5.82s-27.14,5.36-31.25,10-11.4,10.83-11.4,18c0,.27,0,.57,0,.88A69.37,69.37,0,0,0,223,138.55c4.78-2.34,9.21-5.34,13.86-7.94s9.63-4.82,14.92-5.4,11,.65,14.91,4.24a33.32,33.32,0,0,1,4.88,6.26C269.75,130.06,267.15,123.6,265.12,121.84Z"/>
            <path class="cls-6" d="M266.66,129.45c-3.93-3.6-9.61-4.83-14.91-4.24s-10.27,2.81-14.92,5.4-9.08,5.59-13.86,7.94A69.37,69.37,0,0,1,199.24,145c.48,8,6.81,29.45,6.81,29.45l6.27,13h30l24.18-9.24s7.3-30.45,7.18-33.76a46.38,46.38,0,0,0-2.13-8.71A33.32,33.32,0,0,0,266.66,129.45Z"/>
          </g>
          <path class="cls-20" d="M221.26,215.92c-1,.4-7.2,3.83-12.17,6.61a13.33,13.33,0,0,0-6.8,11.06l-2.16,51,10.57,3.65-7.37,16.88,27,54.48H269l18.93-63.83-7.07-8,7.07-5.69s-11-45.39-15.06-51.77h0a31.65,31.65,0,0,0-10.64-10.22l-4.63-2.71Z"/>
          <path class="cls-22" d="M221.86,218.35l-4.32,2.22a9.29,9.29,0,0,0-4.81,10.37c2.64,11.35,7.78,34.19,10.61,51.8,3.92,24.4,5.63,55.54,6.32,64.55S231,379.7,231,379.7L271.74,294s-4.68-53.7-6.16-60.54c-.74-3.42-1.63-6.5-2.32-8.72a9.09,9.09,0,0,0-4.41-5.29l-2.09-1.11Z"/>
          <path class="cls-4" d="M215.67,244.77a74.84,74.84,0,0,0,5.59,8.89,55.47,55.47,0,0,0,8.06,9.12l14.25-13.11,17.56,10.38a43.87,43.87,0,0,0,4.22-12.58,81.56,81.56,0,0,0,.43-12.86l-2.43-8.74a11.38,11.38,0,0,0-5.62-7l-1-.52H221.86l-3.49,1.79a10.66,10.66,0,0,0-5.54,11.78Z"/>
          <path class="cls-13" d="M221.86,218.35v7.07s12.54,19.77,21.74,22c0,0,14.14-15.05,14.82-21.36s0-7.75,0-7.75L258.36,202l-32.77,12.24C225.36,214.32,221.86,218.35,221.86,218.35Z"/>
          <path class="cls-15" d="M221.26,204.29l.61,14.06s4-1.36,11.63,2.29,17.79-2.74,20.07-6.39a28,28,0,0,0,3.19-7.91Z"/>
          <g>
            <path class="cls-13" d="M223.75,191.94c-.77-3.14-2.17-6.09-3.12-9.18-2.73-8.88-1.71-18.5-2.5-27.74-.17.28-.33.56-.52.85A26.23,26.23,0,0,0,213,167.72l.3,11.94H211.6s-1.82-5.17-5-7.3-4.71,2.36-3.65,8.13,4.11,9.66,6.77,10.26,3.8,0,3.8,0,3.19,12.47,12,19.84c1.16,1,2.23,1.8,3.23,2.51a22.92,22.92,0,0,1-2.94-6.76C224.61,201.64,224.91,196.66,223.75,191.94Z"/>
            <path class="cls-7" d="M271.2,168c-1.52,0-3.57.3-4.33,3.57s-1.82,3.35-1.82,3.35l-.23-19s-.38-2.13-1.06-4.94-1.14-5.85-1.14-5.85-6-3.27-8.51-4-34.36,4.33-34.36,4.33,1.93,3.61-1.6,9.49c.79,9.25-.23,18.86,2.5,27.74,1,3.09,2.35,6,3.12,9.18,1.16,4.72.86,9.7,2,14.41a22.92,22.92,0,0,0,2.94,6.76c6.57,4.72,9.8,4.31,13,4.18,3.65-.15,7.45.61,13.08-7.75s8.59-18.93,9.12-21.36l.53-2.43s8.13-.53,8.36-8S272.72,168,271.2,168Z"/>
          </g>
          <path class="cls-22" d="M193.05,374.35l-1.68-.53a12.55,12.55,0,0,0-12.5,2.74,10.05,10.05,0,0,0-2.94,5.11c-1.6,7.29,4.49,14.37,4.49,14.37h13.46l3-1.94Z"/>
          <path class="cls-15" d="M194.48,393.36s1.39,1.22,7,.76a34.76,34.76,0,0,0,9.5-2.05s6.54.71,9.73,1.08,10.42-.47,10.42-.47,1.37-3.8-.3-4.41-6.16-2.51-6.16-2.51l3.57-9.58L225,369.11,213.58,372Z"/>
          <path class="cls-7" d="M193.8,394.65a9.45,9.45,0,0,1-11-9.83q0-.4.09-.81a12.58,12.58,0,0,1,6.77-9.12,43.93,43.93,0,0,0,11.71-3.12c5.7-2.51,19.3-7.6,21.93-7.75s7.49,6,7.49,6l-2.58,6.16-3.35-4.33-.46-1.14-.3,1.44,3.5,5.63,1.06,2.43-3.8,8.89-6.64-11.25v-2.2l-2,2.05,7.45,11s2.13,5.25,1.14,6.46-3.5,1-4.71.15-8.74-11.94-8.74-11.94l-1,1,.61.38s4.41,5.78,4.56,7a6.83,6.83,0,0,1-.3,3.35c-.38.91-2.13,1.06-4.49.23s-8.29-6.39-8.29-6.39-.76,1.82-4.26,4.18A11.38,11.38,0,0,1,193.8,394.65Z"/>
          <g>
            <g>
              <g>
                <path class="cls-9" d="M226.81,396.1h-5.36a5.13,5.13,0,0,0,0,10.26h133a5.13,5.13,0,0,0,5-6.16H226.81Z"/>
                <path class="cls-6" d="M354.41,396.1H226.81v4.11H359.44A5.13,5.13,0,0,0,354.41,396.1Z"/>
              </g>
              <g>
                <g>
                  <path class="cls-8" d="M258.74,301.92l-34.88,84.9a5.59,5.59,0,0,0,.09,4.88,5.74,5.74,0,0,0,1.09,1.5l2.19,3,2.57-1.39h105.7L259.18,301Q258.94,301.48,258.74,301.92Z"/>
                  <path class="cls-6" d="M401,296.83a5.72,5.72,0,0,0-.78-1h0a5.58,5.58,0,0,0-4.09-1.76H270.74l82,100.8h1.31a13.54,13.54,0,0,0,12.31-7.9L401.26,302c.05-.11.09-.23.13-.34l2.31-1.26Z"/>
                  <path class="cls-8" d="M259.18,301l76.31,93.78h17.27l-82-100.8A13.54,13.54,0,0,0,259.18,301Z"/>
                </g>
                <path class="cls-9" d="M398.86,297.67H273.79a13.54,13.54,0,0,0-12.31,7.9l-34.88,84.9a5.65,5.65,0,0,0,5.14,8H356.81a13.54,13.54,0,0,0,12.31-7.9L404,305.68A5.65,5.65,0,0,0,398.86,297.67Z"/>
                <ellipse class="cls-6" cx="320.32" cy="346.48" rx="10.95" ry="6.96" transform="translate(-121.43 180.6) rotate(-26.67)"/>
              </g>
              <rect class="cls-6" x="155.19" y="396.1" width="75.95" height="10.26" rx="5.13" ry="5.13"/>
              <rect class="cls-9" x="203.31" y="399.44" width="11.4" height="3.95" rx="0.85" ry="0.85"/>
              <path class="cls-9" d="M196.72,400.2h-.06l-1.06-.76h-2.43l-.93.76h0a.78.78,0,0,0-.78.78v1.63a.78.78,0,0,0,.78.78h4.49a.78.78,0,0,0,.78-.78V401A.78.78,0,0,0,196.72,400.2Z"/>
              <circle class="cls-9" cx="185.18" cy="401.31" r="1.1"/>
            </g>
            <path class="cls-6" d="M398.86,297.67H386.41a57,57,0,0,1-5.76,35.08c-8.13,15.82-22.38,27.77-37.87,36.51-24.82,14-53.24,20.61-81.63,23-11.66,1-23.34,1.26-35,1.15a5.65,5.65,0,0,0,5.62,5.08H356.81a13.54,13.54,0,0,0,12.31-7.9L404,305.68A5.65,5.65,0,0,0,398.86,297.67Z"/>
            <path class="cls-9" d="M398.86,297.67H397a5.65,5.65,0,0,1,5.14,8l-34.88,84.9a13.54,13.54,0,0,1-12.31,7.9h1.82a13.54,13.54,0,0,0,12.31-7.9L404,305.68A5.65,5.65,0,0,0,398.86,297.67Z"/>
          </g>
          <rect class="cls-19" x="103.83" y="343.4" width="24.39" height="4.06" rx="2.03" ry="2.03"/>
          <path class="cls-20" d="M164.31,350.07V280.31l-14.12-15.54c-5.54,26.79-13.81,64.4-19.14,91.64H158A6.34,6.34,0,0,0,164.31,350.07Z"/>
          <g>
            <g>
              <path class="cls-14" d="M136.15,258.67H89a6.14,6.14,0,0,0-6.14,6.14v83.37A6.14,6.14,0,0,0,89,354.33h60.91a6.14,6.14,0,0,0,6.14-6.14v-67.6Z"/>
              <path class="cls-19" d="M136.15,258.67v16.56a5.36,5.36,0,0,0,5.36,5.36h14.56Z"/>
              <rect class="cls-23" x="93.6" y="290.75" width="7.66" height="7.66"/>
              <rect class="cls-23" x="104.44" y="280.59" width="7.66" height="17.82"/>
              <rect class="cls-23" x="115.27" y="266.32" width="7.66" height="32.09"/>
              <rect class="cls-23" x="136.94" y="283.89" width="7.66" height="14.52"/>
              <rect class="cls-19" x="89.54" y="302.19" width="60.65" height="1.19"/>
              <rect class="cls-19" x="92.34" y="307.54" width="52.27" height="4.7" rx="2.23" ry="2.23"/>
              <rect class="cls-19" x="92.34" y="318.11" width="52.27" height="4.7" rx="2.23" ry="2.23"/>
              <rect class="cls-19" x="92.34" y="328.68" width="52.27" height="4.7" rx="2.23" ry="2.23"/>
              <g>
                <g>
                  <g>
                    <path class="cls-24" d="M121.8,317a16.74,16.74,0,1,0,23.66-.48A16.76,16.76,0,0,0,121.8,317Z"/>
                    <path class="cls-6" d="M118.75,314.06a21,21,0,1,0,29.64-.6A21,21,0,0,0,118.75,314.06Zm27.19,26.11a16.74,16.74,0,1,1-.48-23.66A16.76,16.76,0,0,1,145.94,340.17Z"/>
                  </g>
                  <path class="cls-25" d="M142.37,317.08a14.16,14.16,0,0,0-17.53.56q-.42.36-.81.74a5.69,5.69,0,0,0,3.76,9.68l12.32.7a5.7,5.7,0,0,0,4.8-9.23A14.31,14.31,0,0,0,142.37,317.08Z"/>
                </g>
                <g>
                  <rect class="cls-26" x="153.81" y="340.08" width="7.09" height="22.1" transform="translate(-204.89 221.4) rotate(-46.16)"/>
                  <rect class="cls-6" x="144.07" y="340.69" width="10.62" height="5.57" transform="translate(-201.82 213.3) rotate(-46.16)"/>
                  <path class="cls-6" d="M160.15,343.52h7.93a1.34,1.34,0,0,1,1.34,1.34v23a3.81,3.81,0,0,1-3.81,3.81h-3a3.81,3.81,0,0,1-3.81-3.81v-23A1.34,1.34,0,0,1,160.15,343.52Z" transform="translate(-207.5 228.27) rotate(-46.16)"/>
                </g>
              </g>
              <path class="cls-20" d="M139.61,335.62a7,7,0,0,1-4.16,1.74v2.69h-2.4v-2.62a13.07,13.07,0,0,1-3.39-.62,8.51,8.51,0,0,1-2.59-1.3l1.32-2.93a8.69,8.69,0,0,0,2.14,1.13,9.77,9.77,0,0,0,2.52.58v-4a18.09,18.09,0,0,1-2.88-.91,5.08,5.08,0,0,1-2-1.48,4,4,0,0,1-.79-2.58,4.63,4.63,0,0,1,1.45-3.42,6.91,6.91,0,0,1,4.19-1.74v-2.67h2.4v2.62a10.56,10.56,0,0,1,4.88,1.47l-1.2,3a9.56,9.56,0,0,0-3.68-1.25v4.08a17.35,17.35,0,0,1,2.85.88,5,5,0,0,1,2,1.47,3.92,3.92,0,0,1,.79,2.56A4.55,4.55,0,0,1,139.61,335.62Zm-7.88-9.53a3.75,3.75,0,0,0,1.32.65v-3.41a2.6,2.6,0,0,0-1.35.68,1.56,1.56,0,0,0-.43,1.09A1.23,1.23,0,0,0,131.73,326.09Zm5,7.47a1.41,1.41,0,0,0,.43-1,1.24,1.24,0,0,0-.44-1,3.91,3.91,0,0,0-1.29-.67v3.32A2.59,2.59,0,0,0,136.76,333.57Z"/>
            </g>
            <rect class="cls-23" x="126.11" y="273.19" width="7.66" height="25.22"/>
          </g>
          <g>
            <g>
              <path class="cls-14" d="M332.74,273.54a4.14,4.14,0,0,0,4.14,4.14h69.79a4.14,4.14,0,0,0,4.14-4.14V229H332.74Z"/>
              <path class="cls-21" d="M406.66,214.88H336.87a4.14,4.14,0,0,0-4.14,4.14v10H410.8V219A4.14,4.14,0,0,0,406.66,214.88Z"/>
            </g>
            <g>
              <rect class="cls-22" x="389.24" y="219.12" width="6.17" height="6.17" rx="3.08" ry="3.08"/>
              <rect class="cls-22" x="397.01" y="219.12" width="6.17" height="6.17" rx="3.08" ry="3.08"/>
              <rect class="cls-22" x="381.46" y="219.12" width="6.17" height="6.17" rx="3.08" ry="3.08"/>
            </g>
          </g>
          <g>
            <path class="cls-20" d="M356.23,260c.13-.57.21-1.15.39-1.7a7,7,0,0,1,1.8-2.9c2.15-2.15,4.29-4.31,6.45-6.45a7.2,7.2,0,0,1,9-1.11,4.34,4.34,0,0,1,1.7,1.56,2,2,0,0,1-.43,2.46,2.1,2.1,0,0,1-2.63.09l-.33-.27a3.11,3.11,0,0,0-4.12,0c-.18.16-.35.33-.52.51l-6.15,6.15a3.1,3.1,0,1,0,4.37,4.41c1.22-1.21,2.43-2.43,3.64-3.64l.19-.19a.54.54,0,0,1,.61-.13,9.39,9.39,0,0,0,3.46.63.51.51,0,0,1,.51.32.5.5,0,0,1-.13.58l-.88.88c-1.6,1.59-3.18,3.2-4.8,4.76a6.8,6.8,0,0,1-3.91,1.82l-.29.06H362.9l-.33-.06a7.08,7.08,0,0,1-5.86-4.65,14.59,14.59,0,0,1-.48-2Q356.23,260.56,356.23,260Z"/>
            <path class="cls-20" d="M373.07,257.83a6.8,6.8,0,0,1-4.88-2.28,2,2,0,0,1,.1-2.71,2.09,2.09,0,0,1,2.72-.2,4.36,4.36,0,0,0,1.54.93,3,3,0,0,0,3-.68c.68-.63,1.33-1.3,2-2q2.33-2.32,4.65-4.65a3.1,3.1,0,1,0-4.36-4.41q-1.85,1.82-3.66,3.67a.81.81,0,0,1-1,.22,8.45,8.45,0,0,0-3.17-.57.55.55,0,0,1-.57-.32.52.52,0,0,1,.16-.63c1.89-1.88,3.74-3.8,5.69-5.63a7.23,7.23,0,0,1,10.45,9.92,6.6,6.6,0,0,1-.53.59c-2.21,2.21-4.4,4.43-6.63,6.62A7.17,7.17,0,0,1,373.07,257.83Z"/>
          </g>
          <path class="cls-21" d="M427.59,245.68l-10.46-8a1.33,1.33,0,0,0-2.14,1.05V242H401.14a2.45,2.45,0,0,0-2.45,2.45v4.25a2.45,2.45,0,0,0,2.45,2.45H415v3.66a1.33,1.33,0,0,0,2.14,1.05l10.46-8A1.33,1.33,0,0,0,427.59,245.68Z"/>
          <g>
            <path class="cls-20" d="M370.09,127.41h-5.35a1.56,1.56,0,0,1-1-1.24c-.32-1.37-.67-2.72-1-4.09a.63.63,0,0,0-.45-.5c-.67-.26-1.32-.53-2-.83a.58.58,0,0,0-.63,0c-1,.62-2,1.21-3,1.82a1.31,1.31,0,0,1-1.88-.23l-3.06-3.06a1.32,1.32,0,0,1-.24-1.91c.61-1,1.23-2,1.82-3.06a.66.66,0,0,0,0-.5c-.27-.7-.59-1.39-.86-2.09a.57.57,0,0,0-.44-.4c-1.38-.33-2.75-.68-4.12-1a1.56,1.56,0,0,1-1.24-1V104a1.56,1.56,0,0,1,1.24-1c1.37-.32,2.72-.67,4.09-1a.59.59,0,0,0,.48-.41c.21-.58.44-1.16.7-1.72a.55.55,0,0,0,0-.59c-.7-1.14-1.38-2.29-2.07-3.44a1.33,1.33,0,0,1,.24-1.92l3-3a1.32,1.32,0,0,1,1.95-.23c1.09.65,2.18,1.3,3.26,2a.62.62,0,0,0,.67,0c.68-.32,1.38-.61,2.08-.89a.6.6,0,0,0,.42-.47c.33-1.4.68-2.8,1-4.21a1.28,1.28,0,0,1,1.43-1.14h4.46a1.28,1.28,0,0,1,1.42,1.1c.35,1.4.7,2.8,1,4.21a.62.62,0,0,0,.43.51c.65.25,1.3.52,1.94.81a.59.59,0,0,0,.63,0c1.06-.65,2.13-1.28,3.19-1.92a1.28,1.28,0,0,1,1.85.23l3.1,3.1a1.3,1.3,0,0,1,.23,1.88c-.63,1.05-1.25,2.11-1.9,3.16a.62.62,0,0,0,0,.67q.44,1,.81,1.94a.6.6,0,0,0,.48.42c1.42.34,2.83.69,4.24,1a1.27,1.27,0,0,1,1.09,1.39q0,2.25,0,4.5a1.27,1.27,0,0,1-1.11,1.41c-1.41.35-2.83.71-4.24,1a.56.56,0,0,0-.45.39q-.38,1-.81,1.94a.55.55,0,0,0,0,.59c.64,1,1.27,2.1,1.9,3.16a1.28,1.28,0,0,1-.22,1.85l-3.09,3.1a1.32,1.32,0,0,1-1.89.23c-1-.62-2.08-1.26-3.13-1.87a.66.66,0,0,0-.5,0q-1.09.43-2.16.92a.72.72,0,0,0-.36.41c-.36,1.37-.7,2.74-1,4.12A1.56,1.56,0,0,1,370.09,127.41Zm5.84-20.77a8.51,8.51,0,1,0-8.5,8.53A8.54,8.54,0,0,0,375.93,106.64Z"/>
            <path class="cls-23" d="M364.7,152.33c-2.13-1.43-4.26-2.85-6.41-4.26a1.05,1.05,0,0,1-.54-1q0-1.85-.19-3.69a1.1,1.1,0,0,1,.44-1.09c1.69-1.34,3.36-2.72,5-4.1a2.28,2.28,0,0,0,.74-3.25q-1.64-3.49-3.28-7a2.25,2.25,0,0,0-2.92-1.48c-2.15.42-4.29.83-6.43,1.27a1,1,0,0,1-1.07-.32c-.88-.86-1.79-1.7-2.73-2.5a1.1,1.1,0,0,1-.42-1.1c.29-2.52.54-5.05.79-7.58a2.25,2.25,0,0,0-1.7-2.67L338.63,111a2.26,2.26,0,0,0-3.05,1c-1.41,2.11-2.83,4.22-4.22,6.35a1.06,1.06,0,0,1-1,.53c-1.33,0-2.65.11-4,.23a1.09,1.09,0,0,1-1.09-.45c-1.39-1.75-2.81-3.47-4.23-5.2-1.06-1.29-1.86-1.48-3.36-.77l-6.84,3.22a2.34,2.34,0,0,0-1.53,3c.45,2.31.9,4.62,1.37,6.92a1,1,0,0,1-.29,1c-.76.78-1.49,1.6-2.19,2.43a1,1,0,0,1-1,.4c-2.45-.27-4.92-.49-7.37-.78a2.74,2.74,0,0,0-2.66,1L294,138.72a2.74,2.74,0,0,0,1.45,2.43c2.09,1.35,4.15,2.76,6.23,4.12a1,1,0,0,1,.5.92c0,1.33.15,2.65.18,4a1.16,1.16,0,0,1-.35.81c-1.6,1.35-3.22,2.66-4.84,4a2.32,2.32,0,0,0-.74,3.31l3.25,6.9a2.31,2.31,0,0,0,3,1.51c2-.39,4.06-.79,6.08-1.21a1,1,0,0,1,1.06.31c.9.88,1.82,1.73,2.77,2.55a1.1,1.1,0,0,1,.44,1.09c-.29,2.45-.5,4.91-.79,7.36a2.74,2.74,0,0,0,.95,2.66l8.86,3.19a2.74,2.74,0,0,0,2.43-1.45c1.35-2.1,2.74-4.17,4.15-6.23a1.27,1.27,0,0,1,.84-.47c1.37-.12,2.74-.2,4.12-.24a1.16,1.16,0,0,1,.81.36c1.38,1.63,2.72,3.3,4.08,5a2.32,2.32,0,0,0,3.26.74l7-3.29a2.26,2.26,0,0,0,1.47-2.93c-.41-2.12-.82-4.25-1.27-6.36a1,1,0,0,1,.31-1q1.29-1.33,2.5-2.73a1,1,0,0,1,1-.39c2.55.28,5.1.54,7.65.8a2.24,2.24,0,0,0,2.68-1.68q1.35-3.72,2.68-7.45A2.23,2.23,0,0,0,364.7,152.33Zm-15.41,1.25a20.54,20.54,0,1,1-12.42-26.25A20.6,20.6,0,0,1,349.29,153.58Z"/>
            <path class="cls-23" d="M325.79,160.33A12.41,12.41,0,0,0,341,154.22a12.33,12.33,0,0,0-22.1,0A12.29,12.29,0,0,0,325.79,160.33Z"/>
            <circle class="cls-23" cx="329.94" cy="139.03" r="6.71"/>
          </g>
          <g>
            <g>
              <path class="cls-3" d="M182.66,97.26a4.14,4.14,0,0,0,4.14,4.14H284a4.14,4.14,0,0,0,4.14-4.14V52.75H182.66Z"/>
              <path class="cls-20" d="M284,38.6H186.8a4.14,4.14,0,0,0-4.14,4.14v10H288.09v-10A4.14,4.14,0,0,0,284,38.6Z"/>
            </g>
            <g>
              <rect class="cls-21" x="266.53" y="42.84" width="6.17" height="6.17" rx="3.08" ry="3.08"/>
              <rect class="cls-21" x="274.3" y="42.84" width="6.17" height="6.17" rx="3.08" ry="3.08"/>
              <rect class="cls-21" x="258.76" y="42.84" width="6.17" height="6.17" rx="3.08" ry="3.08"/>
            </g>
          </g>
          <polygon class="cls-3" points="288.09 87.77 288.09 117.42 271.54 97.65 288.09 87.77"/>
          <text class="cls-27" transform="translate(214.72 83.67)">AD</text>
        </g>
        <path class="cls-20" d="M103.29,125.84H46.83a3.35,3.35,0,0,0-3.35,3.35v51.49A3.35,3.35,0,0,0,46.83,184h56.46a3.35,3.35,0,0,0,3.35-3.35V129.19A3.35,3.35,0,0,0,103.29,125.84Z"/>
        <path class="cls-14" d="M66.53,143.21v23.62a1.68,1.68,0,0,0,2.66,1.36l16.46-11.81a1.68,1.68,0,0,0,0-2.73L69.18,141.84A1.68,1.68,0,0,0,66.53,143.21Z"/>
      </g>
      <rect class="cls-3" x="37.35" y="404.4" width="356.77" height="8" rx="4" ry="4"/>
      <rect class="cls-3" x="398.97" y="404.4" width="21.16" height="8" rx="4" ry="4"/>
    </g>
    <polygon class="cls-28" points="149.46 139.66 148.22 139.59 148.22 140.52 151.69 140.5 152.82 140.15 149.46 139.66"/>
    <g>
      <path class="cls-28" d="M144.32,138.92a7.48,7.48,0,0,0-5.07,1.58c-.19.21-.27.19-.27.19l-.8,0v.68a2.17,2.17,0,0,1,.45.09c.31.09.38.57.38.57.32.88.68,4.2,4.42,3.9s4.11-4.51,4.21-4.83.59-.55.59-.55v-.93A9.84,9.84,0,0,0,144.32,138.92Zm1.57,5.46a4.07,4.07,0,0,1-5.21.32,4.62,4.62,0,0,1-1.15-3.39c.06-.55.78-1,.78-1a7,7,0,0,1,3.67-1c2.45-.08,2.86.76,2.95,1.17A4.72,4.72,0,0,1,145.88,144.39Z"/>
      <path class="cls-28" d="M138.17,140.67l-.8,0s-.08,0-.27-.19a7.48,7.48,0,0,0-5.07-1.58,9.84,9.84,0,0,0-3.9.66v.93s.48.24.59.55.46,4.53,4.21,4.83,4.11-3,4.42-3.9c0,0,.08-.47.38-.57a2.17,2.17,0,0,1,.45-.09h0v-.68Zm-2.5,4a4.07,4.07,0,0,1-5.21-.32,4.72,4.72,0,0,1-1-3.88c.09-.41.5-1.25,2.95-1.17a7,7,0,0,1,3.67,1s.71.46.78,1A4.62,4.62,0,0,1,135.67,144.7Z"/>
    </g>
  </g>
</svg>
