<svg id="Layer_1" data-name="Layer 1" xmlns="http://www.w3.org/2000/svg" xmlns:xlink="http://www.w3.org/1999/xlink" viewBox="0 0 649 512">
  <defs>
    <style>
      .cls-1 {
        fill: none;
      }

      .cls-2 {
        fill: #ffe9ed;
      }

      .cls-3 {
        fill: #ff926c;
      }

      .cls-4 {
        fill: #ffdc8d;
      }

      .cls-5 {
        fill: #ffbf69;
      }

      .cls-6 {
        fill: #f48f4a;
      }

      .cls-7 {
        isolation: isolate;
      }

      .cls-8 {
        fill: #2b4f6f;
      }

      .cls-9 {
        fill: #fff;
      }

      .cls-10 {
        fill: #ff4557;
      }

      .cls-11 {
        fill: #22435b;
      }

      .cls-12 {
        fill: #128fdb;
      }

      .cls-13 {
        fill: #69c1f9;
      }

      .cls-14 {
        fill: #8adcf9;
      }

      .cls-15 {
        fill: #5fcaff;
      }

      .cls-16 {
        fill: #e6f0fc;
      }

      .cls-17 {
        fill: #bed2ea;
      }

      .cls-18 {
        fill: #20d382;
      }

      .cls-19 {
        fill: #0070c0;
      }

      .cls-20 {
        clip-path: url(#clip-path);
      }

      .cls-21 {
        fill: #fa5d5b;
      }

      .cls-22 {
        fill: #c46a58;
      }

      .cls-23 {
        fill: #fcb9a9;
      }

      .cls-24 {
        fill: #efa89a;
      }

      .cls-25 {
        fill: url(#linear-gradient);
      }

      .cls-26 {
        fill: #ff8585;
      }

      .cls-27 {
        fill: url(#linear-gradient-2);
      }

      .cls-28 {
        fill: url(#linear-gradient-3);
      }

      .cls-29 {
        fill: #f0f8ff;
      }

      .cls-30 {
        clip-path: url(#clip-path-2);
      }

      .cls-31 {
        fill: #8adeff;
      }

      .cls-32 {
        fill: #003854;
        opacity: 0.3;
      }

      .cls-33 {
        fill: #664057;
      }

      .cls-34 {
        fill: #ebeef0;
      }

      .cls-35 {
        fill: url(#linear-gradient-4);
      }

      .cls-36 {
        fill: url(#linear-gradient-5);
      }

      .cls-37 {
        fill: #4f2e43;
      }

      .cls-38 {
        fill: #424142;
        opacity: 0.83;
      }

      .cls-39, .cls-40 {
        opacity: 0.4;
      }

      .cls-40 {
        fill: #1e1e1e;
      }

      .cls-41 {
        opacity: 0.53;
        fill: url(#linear-gradient-6);
      }

      .cls-42 {
        opacity: 0.29;
        fill: url(#linear-gradient-7);
      }
    </style>
    <clipPath id="clip-path">
      <path class="cls-1" d="M461.13,103.59H437.46a15.55,15.55,0,0,1-15.55,15.55H365.61a15.55,15.55,0,0,1-15.55-15.55H326.77a20.17,20.17,0,0,0-20.17,20.17v126.8H279.41v44.64H306.6v91.19H481.3V123.76A20.17,20.17,0,0,0,461.13,103.59Z"/>
    </clipPath>
    <linearGradient id="linear-gradient" x1="386" y1="255.59" x2="406.68" y2="255.59" gradientUnits="userSpaceOnUse">
      <stop offset="0" stop-color="#664057"/>
      <stop offset="1" stop-color="#ff5c80"/>
    </linearGradient>
    <linearGradient id="linear-gradient-2" x1="381.14" y1="143.25" x2="415.05" y2="220.19" xlink:href="#linear-gradient"/>
    <linearGradient id="linear-gradient-3" x1="388.24" y1="121.5" x2="422.15" y2="198.44" xlink:href="#linear-gradient"/>
    <clipPath id="clip-path-2">
      <path class="cls-1" d="M330.56,314.11V167.41a17,17,0,0,0-17-17H260.16V108.82h-80.8v41.61H168.14v82a7.75,7.75,0,0,1-7.75,7.75H104.08V299.8a57.18,57.18,0,0,1,50.77,77.09H313.57a17,17,0,0,0,17-17v-12.5l26.71-18.35Z"/>
    </clipPath>
    <linearGradient id="linear-gradient-4" x1="375.21" y1="244.45" x2="385.04" y2="244.45" gradientUnits="userSpaceOnUse">
      <stop offset="0" stop-color="#fff"/>
      <stop offset="1" stop-color="#f2f2f2" stop-opacity="0"/>
    </linearGradient>
    <linearGradient id="linear-gradient-5" x1="386.42" y1="256.73" x2="394.03" y2="256.73" xlink:href="#linear-gradient-4"/>
    <linearGradient id="linear-gradient-6" x1="385.12" y1="153.53" x2="414.28" y2="156.77" xlink:href="#linear-gradient"/>
    <linearGradient id="linear-gradient-7" x1="378.53" y1="154.02" x2="382.09" y2="154.02" xlink:href="#linear-gradient"/>
  </defs>
  <title>Kaykushal 3</title>
  <g>
    <path class="cls-2" d="M535.41,325.12c-17.33-9.42-37.64-11-57-14.67S438.59,300.08,427,284.1c-13.69-18.91-11-44.55-14.59-67.62-7.52-48.45-47.7-89.85-95.74-99.7-53.11-10.89-111.81,18-135.62,66.69-10.7,21.89-14.68,46.42-16.89,70.68-3.17,34.9-2.62,71.53,12.77,103,10.25,21,27.28,41.23,24.25,64.38C198,446,174,461.41,152.43,473.4L495.21,466c33-1,64.67-24.17,74.19-55.82S564.45,340.91,535.41,325.12Z"/>
    <path class="cls-3" d="M548.94,260A822.74,822.74,0,0,1,165.59,467.24h88.24C384.35,434.29,506.4,361.83,603,260Z"/>
    <polygon class="cls-3" points="524.75 234.1 590.65 325.34 610.29 231.96 524.75 234.1"/>
    <g>
      <g>
        <g>
          <ellipse class="cls-4" cx="493.67" cy="403.04" rx="42.97" ry="7.46"/>
          <g>
            <path class="cls-5" d="M450.7,403v13.22c0,1.55,2.72,3,7.37,4.18V407.21C453.42,406,450.7,404.58,450.7,403Z"/>
            <path class="cls-5" d="M493.67,410.5a200,200,0,0,1-27.22-1.69V422a200,200,0,0,0,27.22,1.69c4.06,0,8-.1,11.69-.28V410.22C501.65,410.4,497.73,410.5,493.67,410.5Z"/>
            <path class="cls-4" d="M458.07,407.21v13.22a79.74,79.74,0,0,0,8.39,1.59V408.81A79.66,79.66,0,0,1,458.07,407.21Z"/>
            <path class="cls-6" d="M536.64,416.25V403c0,3.42-13.23,6.3-31.28,7.18v13.22C523.41,422.55,536.64,419.67,536.64,416.25Z"/>
          </g>
          <ellipse class="cls-5" cx="492.67" cy="402.34" rx="34.84" ry="4.88"/>
        </g>
        <g class="cls-7">
          <path class="cls-4" d="M494.86,401.95c4.22.17,8.87.42,8.87,1.35,0,.69-2.91,1.28-8.87,1.41v.74h-3.79v-.72a86.49,86.49,0,0,1-9.47-.53l2.08-.8a72.72,72.72,0,0,0,7.39.47v-1.1c-4.22-.18-8.93-.43-8.93-1.37,0-.7,2.91-1.3,8.93-1.42v-.73h3.79V400c2.85,0,5.62.17,7.73.4l-1.91.81c-1.94-.19-3.91-.3-5.82-.34Zm-3.79-.16v-.94c-2,.08-2.82.27-2.82.49s1.14.36,2.82.45m3.79,2c1.91-.07,2.74-.24,2.74-.46s-1.11-.36-2.74-.46v.91"/>
        </g>
      </g>
      <g>
        <g>
          <ellipse class="cls-4" cx="493.67" cy="388.04" rx="42.97" ry="7.46"/>
          <g>
            <path class="cls-5" d="M450.7,388v13.22c0,1.55,2.72,3,7.37,4.18V392.21C453.42,391,450.7,389.58,450.7,388Z"/>
            <path class="cls-5" d="M493.67,395.5a200,200,0,0,1-27.22-1.69V407a200,200,0,0,0,27.22,1.69c4.06,0,8-.1,11.69-.28V395.22C501.65,395.4,497.73,395.5,493.67,395.5Z"/>
            <path class="cls-4" d="M458.07,392.21v13.22a79.74,79.74,0,0,0,8.39,1.59V393.81A79.66,79.66,0,0,1,458.07,392.21Z"/>
            <path class="cls-6" d="M536.64,401.25V388c0,3.42-13.23,6.3-31.28,7.18v13.22C523.41,407.55,536.64,404.67,536.64,401.25Z"/>
          </g>
          <ellipse class="cls-5" cx="492.67" cy="387.34" rx="34.84" ry="4.88"/>
        </g>
        <g class="cls-7">
          <path class="cls-4" d="M494.86,386.95c4.22.17,8.87.42,8.87,1.35,0,.69-2.91,1.28-8.87,1.41v.74h-3.79v-.72a86.49,86.49,0,0,1-9.47-.53l2.08-.8a72.72,72.72,0,0,0,7.39.47v-1.1c-4.22-.18-8.93-.43-8.93-1.37,0-.7,2.91-1.3,8.93-1.42v-.73h3.79V385c2.85,0,5.62.17,7.73.4l-1.91.81c-1.94-.19-3.91-.3-5.82-.34Zm-3.79-.16v-.94c-2,.08-2.82.27-2.82.49s1.14.36,2.82.45m3.79,2c1.91-.07,2.74-.24,2.74-.46s-1.11-.36-2.74-.46v.91"/>
        </g>
      </g>
    </g>
    <g>
      <g>
        <g>
          <ellipse class="cls-4" cx="497.67" cy="373.04" rx="42.97" ry="7.46"/>
          <g>
            <path class="cls-5" d="M454.7,373v13.22c0,1.55,2.72,3,7.37,4.18V377.21C457.42,376,454.7,374.58,454.7,373Z"/>
            <path class="cls-5" d="M497.67,380.5a200,200,0,0,1-27.22-1.69V392a200,200,0,0,0,27.22,1.69c4.06,0,8-.1,11.69-.28V380.22C505.65,380.4,501.73,380.5,497.67,380.5Z"/>
            <path class="cls-4" d="M462.07,377.21v13.22a79.74,79.74,0,0,0,8.39,1.59V378.81A79.66,79.66,0,0,1,462.07,377.21Z"/>
            <path class="cls-6" d="M540.64,386.25V373c0,3.42-13.23,6.3-31.28,7.18v13.22C527.41,392.55,540.64,389.67,540.64,386.25Z"/>
          </g>
          <ellipse class="cls-5" cx="496.67" cy="372.34" rx="34.84" ry="4.88"/>
        </g>
        <g class="cls-7">
          <path class="cls-4" d="M498.86,371.95c4.22.17,8.87.42,8.87,1.35,0,.69-2.91,1.28-8.87,1.41v.74h-3.79v-.72a86.49,86.49,0,0,1-9.47-.53l2.08-.8a72.72,72.72,0,0,0,7.39.47v-1.1c-4.22-.18-8.93-.43-8.93-1.37,0-.7,2.91-1.3,8.93-1.42v-.73h3.79V370c2.85,0,5.62.17,7.73.4l-1.91.81c-1.94-.19-3.91-.3-5.82-.34Zm-3.79-.16v-.94c-2,.08-2.82.27-2.82.49s1.14.36,2.82.45m3.79,2c1.91-.07,2.74-.24,2.74-.46s-1.11-.36-2.74-.46v.91"/>
        </g>
      </g>
      <g>
        <g>
          <ellipse class="cls-4" cx="497.67" cy="358.04" rx="42.97" ry="7.46"/>
          <g>
            <path class="cls-5" d="M454.7,358v13.22c0,1.55,2.72,3,7.37,4.18V362.21C457.42,361,454.7,359.58,454.7,358Z"/>
            <path class="cls-5" d="M497.67,365.5a200,200,0,0,1-27.22-1.69V377a200,200,0,0,0,27.22,1.69c4.06,0,8-.1,11.69-.28V365.22C505.65,365.4,501.73,365.5,497.67,365.5Z"/>
            <path class="cls-4" d="M462.07,362.21v13.22a79.74,79.74,0,0,0,8.39,1.59V363.81A79.66,79.66,0,0,1,462.07,362.21Z"/>
            <path class="cls-6" d="M540.64,371.25V358c0,3.42-13.23,6.3-31.28,7.18v13.22C527.41,377.55,540.64,374.67,540.64,371.25Z"/>
          </g>
          <ellipse class="cls-5" cx="496.67" cy="357.34" rx="34.84" ry="4.88"/>
        </g>
        <g class="cls-7">
          <path class="cls-4" d="M498.86,356.95c4.22.17,8.87.42,8.87,1.35,0,.69-2.91,1.28-8.87,1.41v.74h-3.79v-.72a86.49,86.49,0,0,1-9.47-.53l2.08-.8a72.72,72.72,0,0,0,7.39.47v-1.1c-4.22-.18-8.93-.43-8.93-1.37,0-.7,2.91-1.3,8.93-1.42v-.73h3.79V355c2.85,0,5.62.17,7.73.4l-1.91.81c-1.94-.19-3.91-.3-5.82-.34Zm-3.79-.16v-.94c-2,.08-2.82.27-2.82.49s1.14.36,2.82.45m3.79,2c1.91-.07,2.74-.24,2.74-.46s-1.11-.36-2.74-.46v.91"/>
        </g>
      </g>
    </g>
    <g>
      <g>
        <g>
          <ellipse class="cls-4" cx="493.67" cy="343.04" rx="42.97" ry="7.46"/>
          <g>
            <path class="cls-5" d="M450.7,343v13.22c0,1.55,2.72,3,7.37,4.18V347.21C453.42,346,450.7,344.58,450.7,343Z"/>
            <path class="cls-5" d="M493.67,350.5a200,200,0,0,1-27.22-1.69V362a200,200,0,0,0,27.22,1.69c4.06,0,8-.1,11.69-.28V350.22C501.65,350.4,497.73,350.5,493.67,350.5Z"/>
            <path class="cls-4" d="M458.07,347.21v13.22a79.74,79.74,0,0,0,8.39,1.59V348.81A79.66,79.66,0,0,1,458.07,347.21Z"/>
            <path class="cls-6" d="M536.64,356.25V343c0,3.42-13.23,6.3-31.28,7.18v13.22C523.41,362.55,536.64,359.67,536.64,356.25Z"/>
          </g>
          <ellipse class="cls-5" cx="492.67" cy="342.34" rx="34.84" ry="4.88"/>
        </g>
        <g class="cls-7">
          <path class="cls-4" d="M494.86,341.95c4.22.17,8.87.42,8.87,1.35,0,.69-2.91,1.28-8.87,1.41v.74h-3.79v-.72a86.49,86.49,0,0,1-9.47-.53l2.08-.8a72.72,72.72,0,0,0,7.39.47v-1.1c-4.22-.18-8.93-.43-8.93-1.37,0-.7,2.91-1.3,8.93-1.42v-.73h3.79V340c2.85,0,5.62.17,7.73.4l-1.91.81c-1.94-.19-3.91-.3-5.82-.34Zm-3.79-.16v-.94c-2,.08-2.82.27-2.82.49s1.14.36,2.82.45m3.79,2c1.91-.07,2.74-.24,2.74-.46s-1.11-.36-2.74-.46v.91"/>
        </g>
      </g>
      <g>
        <g>
          <ellipse class="cls-4" cx="493.67" cy="328.04" rx="42.97" ry="7.46"/>
          <g>
            <path class="cls-5" d="M450.7,328v13.22c0,1.55,2.72,3,7.37,4.18V332.21C453.42,331,450.7,329.58,450.7,328Z"/>
            <path class="cls-5" d="M493.67,335.5a200,200,0,0,1-27.22-1.69V347a200,200,0,0,0,27.22,1.69c4.06,0,8-.1,11.69-.28V335.22C501.65,335.4,497.73,335.5,493.67,335.5Z"/>
            <path class="cls-4" d="M458.07,332.21v13.22a79.74,79.74,0,0,0,8.39,1.59V333.81A79.66,79.66,0,0,1,458.07,332.21Z"/>
            <path class="cls-6" d="M536.64,341.25V328c0,3.42-13.23,6.3-31.28,7.18v13.22C523.41,347.55,536.64,344.67,536.64,341.25Z"/>
          </g>
          <ellipse class="cls-5" cx="492.67" cy="327.34" rx="34.84" ry="4.88"/>
        </g>
        <g class="cls-7">
          <path class="cls-4" d="M494.86,326.95c4.22.17,8.87.42,8.87,1.35,0,.69-2.91,1.28-8.87,1.41v.74h-3.79v-.72a86.49,86.49,0,0,1-9.47-.53l2.08-.8a72.72,72.72,0,0,0,7.39.47v-1.1c-4.22-.18-8.93-.43-8.93-1.37,0-.7,2.91-1.3,8.93-1.42v-.73h3.79V325c2.85,0,5.62.17,7.73.4l-1.91.81c-1.94-.19-3.91-.3-5.82-.34Zm-3.79-.16v-.94c-2,.08-2.82.27-2.82.49s1.14.36,2.82.45m3.79,2c1.91-.07,2.74-.24,2.74-.46s-1.11-.36-2.74-.46v.91"/>
        </g>
      </g>
    </g>
    <path class="cls-2" d="M471.93,255.44c7.51,10.44,15.81,21.19,27.69,26.12,6.27,2.6,14.09,3.15,19.33-1.16,4.17-3.43,5.73-9.11,6.38-14.47a66.11,66.11,0,0,0-17.25-52.52c-10.41-11.06-37.3-28.53-51.74-14.85C440.51,213.56,462.87,242.82,471.93,255.44Z"/>
    <g>
      <path class="cls-8" d="M461.13,96H326.77C309.4,96,299,106.38,299,123.76V434.71c0,17.38,10.36,31.51,27.73,31.51H461.13c17.38,0,27.73-14.14,27.73-31.51V123.76C488.87,106.38,478.51,96,461.13,96Z"/>
      <path class="cls-9" d="M461.13,103.59H437.46a15.55,15.55,0,0,1-15.55,15.55H365.61a15.55,15.55,0,0,1-15.55-15.55H326.77a20.17,20.17,0,0,0-20.17,20.17V386.38H481.3V123.76A20.17,20.17,0,0,0,461.13,103.59Z"/>
      <path class="cls-10" d="M326.77,454.88H461.13a20.17,20.17,0,0,0,20.17-20.17V386.38H306.6v48.32A20.17,20.17,0,0,0,326.77,454.88Z"/>
      <rect class="cls-11" x="373.24" y="106.53" width="34.66" height="4.57" rx="1.81" ry="1.81"/>
      <circle class="cls-11" cx="364.7" cy="108.82" r="3.64"/>
    </g>
    <path class="cls-12" d="M168.14,232.43v-82H121.07a17,17,0,0,0-17,17v72.77H160.4A7.75,7.75,0,0,0,168.14,232.43Z"/>
    <rect class="cls-13" x="123.48" y="464.82" width="475.3" height="10.08" rx="4" ry="4"/>
    <rect class="cls-13" x="604.54" y="464.82" width="26.67" height="10.08" rx="4" ry="4"/>
    <g>
      <path class="cls-9" d="M351.55,411.22c1.16,0,2.32,0,3.48,0a5.89,5.89,0,0,1,4,1.56,5.79,5.79,0,0,1,1.91,3.68,5.72,5.72,0,0,1-1.09,4.21c-.11.16-.07.24,0,.37a5.86,5.86,0,0,1-.44,7.46,5.91,5.91,0,0,1-3.09,1.8,9.14,9.14,0,0,1-3.26.09,1.38,1.38,0,0,1-.7-.41c-1.22-1.19-2.42-2.41-3.63-3.61-.67-.66-1.35-1.31-2-2a1.47,1.47,0,0,1,.16-2.35,1.49,1.49,0,0,1,2,.31c1.61,1.63,3.24,3.24,4.86,4.86a.78.78,0,0,0,.67.28c.44,0,.88,0,1.31-.07a3,3,0,0,0,2.31-2.41,3,3,0,0,0-1.24-3,1.49,1.49,0,0,1,0-2.45,2.91,2.91,0,0,0,1.25-2.47,3,3,0,0,0-3-2.94h-5.61c-.27,0-.36.06-.35.34,0,.72,0,1.44,0,2.16a.76.76,0,0,0,.2.48c1.68,1.68,3.38,3.36,5.07,5a1.49,1.49,0,0,1-.3,2.4,1.45,1.45,0,0,1-1.63-.2l-5.82-5.76a1.36,1.36,0,0,1-.45-1c0-1.66,0-3.33,0-5a1.48,1.48,0,0,1,1.49-1.42Z"/>
      <path class="cls-9" d="M391.88,425.35l.24-.21,1.36-1.34,6.88-6.84a1.5,1.5,0,0,1,1.58-.5,1.41,1.41,0,0,1,1,1,1.36,1.36,0,0,1-.36,1.44q-2.14,2.15-4.3,4.29a2.06,2.06,0,0,1-.31.21l0,.15a1.43,1.43,0,0,1,.29.17l4.29,4.24a1.48,1.48,0,1,1-2.16,2l-4.19-4.18c-.29-.29-.29-.29-.58,0l-4.19,4.18a1.43,1.43,0,0,1-2.08.16,1.59,1.59,0,0,1-.54-1.34q0-5.21,0-10.42,0-2.74,0-5.49a1.48,1.48,0,0,1,2.91-.47,4.23,4.23,0,0,1,.06.7q0,5.93,0,11.87v.36Z"/>
      <path class="cls-9" d="M439.55,425.35c.34-.31.69-.6,1-.92l7.29-7.27a2.26,2.26,0,0,1,1.1-.73,1.47,1.47,0,0,1,1.75,1.37,1.63,1.63,0,0,1-.51,1.2c-.78.76-1.54,1.54-2.31,2.31l-1.9,1.84-.27.28,1.41,1.39c1.09,1.09,2.19,2.17,3.27,3.27a1.48,1.48,0,0,1-.56,2.26,1.42,1.42,0,0,1-1.61-.31l-3.9-3.9c-.21-.21-.44-.4-.68-.62-.14.13-.29.24-.41.37l-2.4,2.4c-.58.57-1.17,1.12-1.74,1.69a1.38,1.38,0,0,1-1.64.35,1.46,1.46,0,0,1-.88-1.42q0-3.71,0-7.43,0-4.33,0-8.66a1.51,1.51,0,0,1,1.4-1.6,1.53,1.53,0,0,1,1.52,1.42c0,.64,0,1.27,0,1.91q0,5.18,0,10.36v.39Z"/>
      <path class="cls-9" d="M413.57,427.42l-.23-.24-2.24-2.25c-.19-.19-.4-.35-.59-.54a1.48,1.48,0,1,1,2.08-2.09l5.12,5.12c.2.2.41.4.6.61a1.44,1.44,0,0,1-.67,2.37,2.09,2.09,0,0,1-.6.07h-11.1a1.59,1.59,0,0,1-1.67-1.68c0-5.36,0-10.73,0-16.09a1.48,1.48,0,0,1,1.5-1.49,1.51,1.51,0,0,1,1.41,1.33c0,.18,0,.37,0,.55q0,7,0,13.93c0,.46,0,.46.45.46h5.88Z"/>
      <path class="cls-9" d="M379.22,417c.67-.21,1.24-.42,1.83-.56a5,5,0,0,1,3.74.64,5.29,5.29,0,0,1,2.58,3.49,5.73,5.73,0,0,1,.15,1.27q0,3.53,0,7.06a1.46,1.46,0,1,1-2.92.17c0-2.32,0-4.64,0-7a2.7,2.7,0,0,0-1.09-2.34,2.58,2.58,0,0,0-4.07,2.16c0,2.37,0,4.75,0,7.12a1.45,1.45,0,0,1-2.85.35,2,2,0,0,1-.06-.51c0-3.67,0-7.34,0-11a1.54,1.54,0,0,1,1-1.45,1.45,1.45,0,0,1,1.62.47A.8.8,0,0,1,379.22,417Z"/>
      <path class="cls-9" d="M426.94,417a15.52,15.52,0,0,1,1.57-.53,5.49,5.49,0,0,1,6.59,4.19,4.71,4.71,0,0,1,.1.91c0,2.5,0,5,0,7.49a1.47,1.47,0,0,1-1.12,1.33,1.5,1.5,0,0,1-1.8-1.55c0-2.31,0-4.62,0-6.93a2.48,2.48,0,0,0-1.88-2.55,2.53,2.53,0,0,0-3.16,1.83,2.4,2.4,0,0,0-.07.57c0,2.38,0,4.77,0,7.15a1.46,1.46,0,0,1-2.91.17q0-5.73,0-11.47a1.4,1.4,0,0,1,1-1.23,1.44,1.44,0,0,1,1.54.47Z"/>
      <path class="cls-9" d="M365.28,418.35c0,1.67,0,3.35,0,5a4.15,4.15,0,0,0,2.94,3.93c.51.14,1.06.16,1.59.26a1.42,1.42,0,0,1,1.2,1.25,1.54,1.54,0,0,1-.66,1.39,2.42,2.42,0,0,1-1.5.22,6.85,6.85,0,0,1-2.73-.82,7,7,0,0,1-3.51-4.35,8.42,8.42,0,0,1-.3-2.35q0-5.09,0-10.17a1.46,1.46,0,0,1,2.91-.26c0,.35.06.71.06,1.07C365.28,415.14,365.28,416.75,365.28,418.35Z"/>
      <path class="cls-9" d="M375.21,423.4q0,2.85,0,5.7a1.46,1.46,0,0,1-1.13,1.32,1.5,1.5,0,0,1-1.79-1.53c0-3.68,0-7.36,0-11a1.43,1.43,0,0,1,.78-1.33,1.4,1.4,0,0,1,1.63.16,1.31,1.31,0,0,1,.51,1.07C375.2,419.64,375.21,421.52,375.21,423.4Z"/>
      <path class="cls-9" d="M420,423.4c0-1.85,0-3.7,0-5.55a1.49,1.49,0,0,1,1.48-1.51,1.47,1.47,0,0,1,1.45,1.52q0,4.75,0,9.49c0,.54,0,1.09,0,1.63a1.47,1.47,0,0,1-2.88.39,1.31,1.31,0,0,1,0-.33q0-2.82,0-5.64Z"/>
      <path class="cls-9" d="M375.21,412.72a1.41,1.41,0,0,1-1.42,1.46,1.47,1.47,0,1,1,1.42-1.46Z"/>
      <path class="cls-9" d="M422.93,412.73a1.47,1.47,0,1,1-2.93-.11,1.49,1.49,0,0,1,1.46-1.38A1.45,1.45,0,0,1,422.93,412.73Z"/>
    </g>
    <path class="cls-14" d="M225.93,47.62a1.71,1.71,0,0,0-1.35-1.49l-41.51-9a1.34,1.34,0,0,0-1.37,2.07L187.16,47l-4.77,8.28a1.25,1.25,0,0,0,1.33,1.87l6.06-.5,1.36,6.87a1.55,1.55,0,0,0,2.19,1.09L225,49.38A1.71,1.71,0,0,0,225.93,47.62Zm-8.69-.9L189,45.85l-4.37-6.2Zm-27.17,4.59a1.27,1.27,0,0,0-.53.23l0-.07-3.69,2.09L189,48l18.42.57Zm-1.74,3.27.93-.53.09.44Zm4.74,7.73-1.79-9,27.41-4.36,1-.17-.1-1.53L223,48Z"/>
    <g>
      <g>
        <path class="cls-15" d="M224.39,270.71c14.82-19.65,32.29-37.72,53.54-50.14,16-9.33,34.25-15.27,52.63-15.8V167.41a17,17,0,0,0-17-17H168.14v82a7.75,7.75,0,0,1-7.75,7.75H104.08V299.8a57.2,57.2,0,0,1,52,40.58A109.27,109.27,0,0,0,179.2,325.9C197.61,310.74,210,289.75,224.39,270.71Z"/>
        <path class="cls-15" d="M330.56,314.11V204.77c-18.38.53-36.67,6.47-52.63,15.8-21.25,12.42-38.71,30.5-53.54,50.14-14.36,19-26.79,40-45.2,55.19A109.27,109.27,0,0,1,156,340.39a57.39,57.39,0,0,1-1.18,36.51H313.57a17,17,0,0,0,17-17v-12.5l26.71-18.35Z"/>
      </g>
      <path class="cls-12" d="M104.08,299.8v60.11a17,17,0,0,0,17,17h33.78a57.18,57.18,0,0,0-50.77-77.09Z"/>
    </g>
    <g>
      <polyline class="cls-14" points="156.44 55.18 151.37 57.42 152.75 60.31 157.66 58.14 156.44 55.18"/>
      <path class="cls-14" d="M165.78,51.84c-1.81.45-3.49,1.19-5.24,1.78l1.1,3c1.7-.57,3.33-1.3,5.09-1.73l-.94-3.06"/>
      <path class="cls-14" d="M175.35,49.38c-1.81.42-3.63.71-5.39,1.27l.82,3.08c1.71-.55,3.49-.81,5.23-1.21l-.66-3.14"/>
      <polyline class="cls-14" points="130.87 70.34 126.64 73.91 128.8 76.28 132.88 72.82 130.87 70.34"/>
      <path class="cls-14" d="M138.88,64.44c-1.56,1-3,2.14-4.53,3.2l1.91,2.58c1.47-1,2.86-2.14,4.38-3.09l-1.76-2.69"/>
      <path class="cls-14" d="M147.4,59.45c-1.62.86-3.27,1.69-4.82,2.7l1.64,2.73a52.7,52.7,0,0,1,4.68-2.61l-1.5-2.83"/>
      <path class="cls-14" d="M110.93,92.37c-1,1.55-2,3.07-3,4.66l2.75,1.64c.9-1.54,1.93-3,2.88-4.52l-2.65-1.78"/>
      <path class="cls-14" d="M116.78,84.37c-1.14,1.45-2.23,2.93-3.35,4.41L116,90.65l3.24-4.27-2.47-2"/>
      <polyline class="cls-14" points="123.45 77.04 121.48 78.98 119.65 81.08 122.05 83.2 123.8 81.18 125.71 79.31 123.45 77.04"/>
      <path class="cls-14" d="M101.14,120.12l-3-1c-.51,1.79-1.17,3.51-1.58,5.31l3.09.82c.41-1.76,1-3.43,1.54-5.16"/>
      <polyline class="cls-14" points="104.44 111.08 101.5 109.84 99.5 115 102.5 116.1 104.44 111.08"/>
      <path class="cls-14" d="M108.61,102.45,105.8,101a52.65,52.65,0,0,0-2.47,4.93l2.89,1.37a50,50,0,0,1,2.4-4.8"/>
      <path class="cls-14" d="M96.2,148.53,93,148.42c0,1.84-.18,3.68-.06,5.52l3.19-.05c-.11-1.79,0-3.57.08-5.35"/>
      <polyline class="cls-14" points="96.94 138.93 93.76 138.53 93.2 144.03 96.41 144.27 96.94 138.93"/>
      <path class="cls-14" d="M98.61,129.49l-3.13-.68c-.49,1.78-.71,3.6-1,5.42l3.15.52c.31-1.75.54-3.54,1-5.26"/>
      <path class="cls-14" d="M99.35,177.13l-3.11.83a49.88,49.88,0,0,0,1.57,5.3l3-1a47.18,47.18,0,0,1-1.5-5.15"/>
      <polyline class="cls-14" points="97.32 167.73 94.18 168.24 95.17 173.69 98.3 173.01 97.32 167.73"/>
      <path class="cls-14" d="M96.3,158.21l-3.21.2c0,1.83.35,3.67.51,5.52l3.18-.37c-.15-1.79-.47-3.54-.48-5.34"/>
      <polyline class="cls-14" points="110.83 203.5 108.12 205.2 109.57 207.56 111.18 209.81 113.79 207.96 112.23 205.78 110.83 203.5"/>
      <polyline class="cls-14" points="106.13 195.12 103.25 196.55 105.82 201.45 108.6 199.88 106.13 195.12"/>
      <path class="cls-14" d="M102.25,186.35l-3,1.14c.65,1.72,1.44,3.39,2.16,5.11l2.91-1.3c-.69-1.66-1.45-3.26-2.08-5"/>
      <path class="cls-14" d="M129.35,225.57l-2.14,2.38c1.32,1.29,2.76,2.44,4.2,3.6l2-2.47c-1.39-1.13-2.79-2.24-4.07-3.51"/>
      <path class="cls-14" d="M122.52,218.8,120.17,221c1.28,1.33,2.49,2.71,3.82,4l2.24-2.28c-1.29-1.22-2.46-2.58-3.71-3.87"/>
      <polyline class="cls-14" points="116.3 211.5 113.77 213.44 117.27 217.72 119.7 215.64 116.3 211.5"/>
      <path class="cls-14" d="M158,244.07c-1.62-.73-3.31-1.36-4.87-2.24l-1.42,2.86c1.61.9,3.33,1.56,5,2.31l1.26-2.93"/>
      <path class="cls-14" d="M144.75,237.14l-1.69,2.73c1.15.68,2.26,1.42,3.42,2.08.44.25.89.49,1.35.71l1.53-2.79c-.4-.19-.78-.4-1.17-.62-1.17-.67-2.28-1.43-3.44-2.11"/>
      <polyline class="cls-14" points="136.8 231.78 134.88 234.33 139.4 237.52 141.19 234.87 136.8 231.78"/>
      <path class="cls-14" d="M185.83,251.52c-1.78-.22-3.56-.42-5.31-.77l-.52,3.15c1.81.35,3.66.57,5.48.79l.36-3.18"/>
      <path class="cls-14" d="M176.34,249.94a52.48,52.48,0,0,1-5.2-1.27l-.84,3.08c1.79.47,3.54,1,5.37,1.33l.67-3.14"/>
      <polyline class="cls-14" points="167.08 247.51 162.03 245.72 160.88 248.72 166.09 250.55 167.08 247.51"/>
      <path class="cls-14" d="M214.94,255.11c-1.79-.43-3.58-.77-5.41-1.06l-.51,3.16c1.76.28,3.48.6,5.2,1l.72-3.11"/>
      <path class="cls-14" d="M205.24,253.44c-1.8-.21-3.61-.41-5.42-.58l-.3,3.19c1.78.18,3.56.36,5.33.58l.39-3.19"/>
      <polyline class="cls-14" points="195.55 252.47 190.16 251.99 189.84 255.17 195.26 255.67 195.55 252.47"/>
      <path class="cls-14" d="M236.63,265.56l-2,2.46a50.66,50.66,0,0,1,3.82,3.53l2.29-2.23a52.42,52.42,0,0,0-4.08-3.77"/>
      <path class="cls-14" d="M228.4,260l-1.5,2.81c1.48.89,3,1.73,4.41,2.73l1.82-2.63c-1.51-1.07-3.14-2-4.73-2.91"/>
      <polyline class="cls-14" points="224.47 258.11 221.88 257.09 219.24 256.22 218.32 259.3 220.79 260.12 223.22 261.06 224.47 258.11"/>
      <path class="cls-14" d="M253.85,289.49l-3,1.25c.74,1.6,1.28,3.28,1.89,4.93l3-1c-.62-1.73-1.2-3.47-2-5.15"/>
      <path class="cls-14" d="M249.39,280.68l-2.74,1.66a46.74,46.74,0,0,1,2.52,4.61l2.87-1.41a49.06,49.06,0,0,0-2.64-4.85"/>
      <path class="cls-14" d="M243.69,272.63l-2.44,2.05,1.65,2c.54.68,1,1.43,1.51,2.15L247,277c-.53-.74-1-1.52-1.59-2.24l-1.75-2.15"/>
      <polyline class="cls-14" points="260.14 318.3 256.94 318.41 256.95 323.7 260.16 323.79 260.14 318.3"/>
      <path class="cls-14" d="M259.21,308.49,256,309c.31,1.75.43,3.5.67,5.25l3.19-.28c-.24-1.82-.39-3.65-.68-5.46"/>
      <path class="cls-14" d="M257.13,298.87l-3.08.87c.54,1.68.83,3.42,1.27,5.13l3.13-.64c-.44-1.78-.77-3.6-1.31-5.35"/>
      <polyline class="cls-14" points="256.35 347.51 253.28 346.62 251.63 351.65 254.63 352.75 256.35 347.51"/>
      <path class="cls-14" d="M258.62,338l-3.16-.59c-.35,1.73-.6,3.48-1.11,5.18l3.1.76c.52-1.76.79-3.58,1.16-5.35"/>
      <path class="cls-14" d="M259.88,328.21l-3.18-.25c-.08,1.77-.35,3.51-.56,5.27l3.16.44c.24-1.81.51-3.63.58-5.46"/>
      <path class="cls-14" d="M240.89,372.18c-1.09,1.39-2.1,2.85-3.2,4.2l2.46,2c1.16-1.41,2.23-2.93,3.34-4.37l-2.6-1.87"/>
      <path class="cls-14" d="M248.72,365.69l-2.81-1.54c-.85,1.53-1.7,3.08-2.69,4.54l2.69,1.72c1-1.51,1.92-3.12,2.81-4.72"/>
      <path class="cls-14" d="M253,356.85,250,355.63c-.6,1.67-1.46,3.21-2.18,4.81l2.86,1.42c.76-1.67,1.66-3.28,2.27-5"/>
      <path class="cls-14" d="M220.47,391.69c-1.53.85-2.94,1.92-4.54,2.64l1.48,2.82a51.14,51.14,0,0,0,4.77-2.76l-1.7-2.7"/>
      <path class="cls-14" d="M228.07,386.1c-.68.56-1.33,1.16-2,1.7l-2.14,1.54,1.87,2.6,2.23-1.62c.72-.56,1.4-1.17,2.09-1.76l-2-2.45"/>
      <path class="cls-14" d="M234.89,379.6c-1.18,1.32-2.49,2.49-3.72,3.75l2.21,2.33c1.29-1.32,2.66-2.55,3.86-3.92l-2.35-2.16"/>
      <path class="cls-14" d="M194,401.07a46.85,46.85,0,0,1-5.24.45l.14,3.2a49,49,0,0,0,5.5-.48l-.4-3.17"/>
      <path class="cls-14" d="M203.25,399.27a45.06,45.06,0,0,1-5.11,1.16l.59,3.15a49.42,49.42,0,0,0,5.37-1.22l-.84-3.09"/>
      <polyline class="cls-14" points="212.13 396.21 207.22 398.09 208.26 401.12 213.42 399.14 212.13 396.21"/>
      <path class="cls-14" d="M166,398.72l-2.5-.77c-.83-.3-1.62-.64-2.46-1l-1.17,3c.87.34,1.71.69,2.57,1l2.65.81.91-3.06"/>
      <path class="cls-14" d="M175.15,400.82c-1.75-.19-3.43-.68-5.17-1l-.73,3.12c1.8.33,3.57.87,5.42,1l.48-3.15"/>
      <polyline class="cls-14" points="184.52 401.61 179.27 401.35 178.97 404.54 184.48 404.82 184.52 401.61"/>
      <path class="cls-14" d="M138.37,380.75l-2.49,2a36.8,36.8,0,0,0,3.73,4.11l2.25-2.27a32.43,32.43,0,0,1-3.5-3.86"/>
      <path class="cls-14" d="M144.89,387.45l-2.08,2.44c1.46,1.12,2.89,2.3,4.39,3.38l1.82-2.63c-1.41-1-2.74-2.12-4.13-3.18"/>
      <path class="cls-14" d="M157.13,395.32c-1.26-.68-2.57-1.27-3.81-2-.28-.16-.55-.32-.82-.5l-1.64,2.75.8.49c1.33.76,2.74,1.38,4.08,2.11l1.38-2.88"/>
    </g>
    <g>
      <path class="cls-16" d="M135,109.59H75.61a7.75,7.75,0,0,0-7.75,7.75v105.1a7.75,7.75,0,0,0,7.75,7.75H152.4a7.75,7.75,0,0,0,7.75-7.75V137.21Z"/>
      <path class="cls-17" d="M135,109.59v20.87a6.76,6.76,0,0,0,6.76,6.76h18.35Z"/>
      <circle class="cls-18" cx="72.01" cy="224.33" r="20.96"/>
      <g>
        <circle class="cls-12" cx="89.67" cy="130.92" r="14.61" transform="translate(-0.88 0.61) rotate(-0.39)"/>
        <path class="cls-9" d="M89.75,143.48a12.56,12.56,0,0,0,10.41-5.67,12.55,12.55,0,0,0-20.89.14A12.56,12.56,0,0,0,89.75,143.48Z"/>
        <circle class="cls-9" cx="89.63" cy="125.22" r="5.15" transform="translate(-0.84 0.61) rotate(-0.39)"/>
      </g>
      <rect class="cls-15" x="107.62" y="117.23" width="24.17" height="4.5"/>
      <rect class="cls-17" x="107.62" y="126.07" width="24.17" height="2.67" rx="1.33" ry="1.33"/>
      <rect class="cls-17" x="107.62" y="133.07" width="24.17" height="2.67" rx="1.33" ry="1.33"/>
      <rect class="cls-17" x="107.62" y="140.07" width="18.83" height="2.67" rx="1.33" ry="1.33"/>
      <rect class="cls-15" x="75.06" y="157.07" width="77.37" height="4.58"/>
      <rect class="cls-17" x="75.06" y="169.88" width="45.85" height="3.98" rx="1.99" ry="1.99"/>
      <rect class="cls-17" x="75.06" y="180.34" width="45.85" height="3.98" rx="1.99" ry="1.99"/>
      <rect class="cls-17" x="75.06" y="190.79" width="35.73" height="3.98" rx="1.99" ry="1.99"/>
      <rect class="cls-17" x="135.06" y="169.88" width="17.37" height="3.98" rx="1.99" ry="1.99"/>
      <rect class="cls-17" x="135.06" y="180.34" width="17.37" height="3.98" rx="1.99" ry="1.99"/>
      <rect class="cls-17" x="135.06" y="190.79" width="17.37" height="3.98" rx="1.99" ry="1.99"/>
      <path class="cls-9" d="M78,216.34l-8,6.61-1.9-2.11c-3.89-4.31-10.24,2.07-6.36,6.36l4.63,5.13c1.74,1.92,4.57,1.49,6.36,0l11.63-9.62C88.85,219,82.46,212.67,78,216.34Z"/>
    </g>
    <path class="cls-19" d="M93.29,291.73A57,57,0,0,0,50.5,311l42.79,37.9v57.17a57.17,57.17,0,0,0,0-114.33Z"/>
    <g>
      <path class="cls-18" d="M35.9,300.7a71.89,71.89,0,0,0-16.83,61.23l70.72-13.5Z"/>
      <path class="cls-3" d="M35.14,361.62a57.17,57.17,0,0,0,56.15,46.44V350.9Z"/>
    </g>
    <g class="cls-20">
      <g>
        <path class="cls-21" d="M321,255.59l7.3,22S365.79,261.9,371,258s10.2-21.4,10.2-21.4l.59-49.52s-8.16,6.34-13.33,19-12.67,33.15-14.09,35S321,255.59,321,255.59Z"/>
        <path class="cls-22" d="M316.87,273.51s-3.75.76-4.16.2-10.8-12.62-10.8-12.62l4.56-1.62,7.1,2.84Z"/>
        <path class="cls-23" d="M304.12,256.78s1.78-1.42,2.86-1.37,12,4.41,12,4.41l3.4-1.17,3.8,12.3-5.12,1-5.12,4s-2.64-9.73-3.75-11.45-7.45-2.69-7.45-2.69l-2.08,4.87-6.79,5-2.18-4s.56-5,.51-5.22a24.61,24.61,0,0,1,1.57-2.84Z"/>
        <path class="cls-22" d="M311.42,275.89a21.59,21.59,0,0,1,1.52,2.89c.08.49-.48.91-.48.91l-4.09-.94a14.79,14.79,0,0,1,1.11,2.5c0,.49-.63,1-.63,1L305,281.18s1.89,2.07.53,3.13-4.21-3-4.21-3-.3-6.54-.3-6.65,5.36-6.84,5.36-6.84l4.45,3.65Z"/>
        <path class="cls-24" d="M285.6,262.31l3.24-.51a53.52,53.52,0,0,1,6.18-3c2-.66,9.1-2,9.1-2s-5.65,3-6,3.45a51,51,0,0,0-1.62,7.5c.05.35,1.06,1.17,2.58,0s2.84-4.56,2.84-4.56l2.79-1.42,5.37,3.4s6.34,9.12,6.34,10.34-.86,2.84-1.67,2.84-2.43-1.32-2.43-1.32L309,272.8l.2,1.93,3.29,5s-.91,1.17-1.88,1.06-4.71-5.12-4.71-5.12v1.57L309,282a2,2,0,0,1-1.37,1.06,2.13,2.13,0,0,1-1.62-.71l-2.58-3-.05,1.47,2.13,3.45a2.94,2.94,0,0,1-2.69.71,98.23,98.23,0,0,1-11.91-7.35c-2.08-1.72-4.92-4.56-4.92-4.56Z"/>
        <path class="cls-23" d="M287.07,276.81l.6.52a1.14,1.14,0,0,0,1.51,0l1.86-1.66a1.14,1.14,0,0,0,0-1.71l-.73-.64a1.14,1.14,0,0,0-1.58.06L287,275.15A1.14,1.14,0,0,0,287.07,276.81Z"/>
        <path class="cls-23" d="M290.82,279.56l.82.53a1.14,1.14,0,0,0,1.56-.33l1.29-1.92a1.14,1.14,0,0,0-.32-1.59l-.6-.4a1.14,1.14,0,0,0-1.5.22l-1.5,1.79A1.14,1.14,0,0,0,290.82,279.56Z"/>
        <path class="cls-23" d="M294.14,280.22a1.14,1.14,0,0,0,.45,1.55l1.46.8.92-.43v1l.56.36a1.14,1.14,0,0,0,1.66-.5l.72-1.62a1.14,1.14,0,0,0-.52-1.48h0a1.14,1.14,0,0,0-1.41.3l-.43.53.25-.76a1.14,1.14,0,0,0-.52-1.34l-.69-.4a1.14,1.14,0,0,0-1.57.44Z"/>
        <g>
          <g>
            <path class="cls-5" d="M369.22,337.65q.76,43.42-1.18,86.84l9.32.26q-.47-42.52-3.52-85A23.46,23.46,0,0,0,369.22,337.65Z"/>
            <path class="cls-3" d="M381.29,346.56a28.55,28.55,0,0,0-4.06-4.39,23.86,23.86,0,0,0-3.4-2.39q3.07,42.42,3.52,85l9.85.28C388.65,398.9,385,372.76,381.29,346.56Z"/>
            <path class="cls-3" d="M369.22,337.65a21.65,21.65,0,0,0-3.65-.9c-1.18,22.59-2.63,87.59-2.63,87.59l5.1.14Q370,381.1,369.22,337.65Z"/>
            <path class="cls-5" d="M390.91,378.14c-.77-6.53-1.55-13.1-3.51-19.37a39.85,39.85,0,0,0-6.1-12.2c3.69,26.19,7.36,52.34,5.91,78.47l2,.06C389.35,409.57,392.66,393,390.91,378.14Z"/>
            <path class="cls-3" d="M373.84,339.78q-1.42-19.65-3.41-39.25c-.59,3.5-1.25,7.53-1.89,11.61q.45,12.75.68,25.51A23.46,23.46,0,0,1,373.84,339.78Z"/>
            <path class="cls-21" d="M377.23,342.17a28.55,28.55,0,0,1,4.06,4.39c-2.81-20-5.61-40-6.15-60l-2.9,3.36s-.79,4.47-1.81,10.6q2,19.6,3.41,39.25A23.86,23.86,0,0,1,377.23,342.17Z"/>
            <path class="cls-21" d="M402.1,320.75l-16-46.83-4.92,5.7c2.11,26.34,9.16,52.09,12.63,78.31,3,22.31,3.27,44.87,3.3,67.39l9,.25Z"/>
            <path class="cls-3" d="M381.15,279.61l-6,7c.54,20,3.34,40,6.15,60a39.85,39.85,0,0,1,6.1,12.2c2,6.27,2.74,12.84,3.51,19.37,1.76,14.91-1.55,31.43-1.71,47l7.89.22c0-22.52-.34-45.08-3.3-67.39C390.31,331.7,383.26,306,381.15,279.61Z"/>
            <path class="cls-21" d="M368.54,312.14c-1.08,6.88-2.1,13.85-2.56,18.43-.13,1.3-.27,3.45-.41,6.18a21.65,21.65,0,0,1,3.65.9Q369,324.9,368.54,312.14Z"/>
          </g>
          <g>
            <path class="cls-21" d="M404.66,340.31c-3.35-14.46-7.75-28.67-10.56-43.24-2.48-12.85-3.69-26.14-1.81-39L384,259.16s1.52,34.42,3.35,41.31,7.91,25.65,9,30.41c.19.84.53,4.08,1,8.8a26.36,26.36,0,0,0,8.42,5.6C405.37,343.62,405,342,404.66,340.31Z"/>
            <path class="cls-3" d="M394.1,297.06c2.81,14.57,7.21,28.79,10.56,43.24.38,1.65.71,3.32,1.06,5,.31.13.62.29.93.41A39.43,39.43,0,0,0,417,347.92c-2.63-9.74-5.51-19.43-8.13-29.16-5.44-20.21-9.74-41.1-8-61.94L392.29,258C390.41,270.93,391.62,284.21,394.1,297.06Z"/>
            <path class="cls-21" d="M408.9,318.76c2.62,9.74,5.5,19.42,8.13,29.16a94.11,94.11,0,0,0,13.68,0q-1.16-4.29-2.35-8.56c-7.75-27.59-16.42-55.35-17.86-83.91l-9.64,1.34C399.16,277.66,403.46,298.55,408.9,318.76Z"/>
            <path class="cls-21" d="M447.12,347.58l-3.44-26.43L424.3,253.56l-1.33.19c3.83,31.83,13.32,62.69,21.61,93.76C445.42,347.52,446.27,347.53,447.12,347.58Z"/>
            <path class="cls-3" d="M430.71,347.94h.09c4.58-.26,9.2-.55,13.78-.44-8.29-31.07-17.78-61.93-21.61-93.76l-12.47,1.74c1.44,28.56,10.11,56.32,17.86,83.91Q429.56,343.65,430.71,347.94Z"/>
            <path class="cls-3" d="M449.79,368.07l-2.67-20.49c-.84-.05-1.69-.06-2.54-.08C446.4,354.34,448.16,361.19,449.79,368.07Z"/>
            <path class="cls-3" d="M397.31,339.68c2,22,6.06,76.86,6.06,76.86h11.47c-1.64-23.93-4.09-47.84-9.11-71.26A26.36,26.36,0,0,1,397.31,339.68Z"/>
            <path class="cls-5" d="M449.79,368.07c-1.63-6.87-3.38-13.73-5.21-20.57-4.58-.1-9.2.19-13.78.44h-.09c6.07,22.49,11,45.53,10.53,68.6H456.1Z"/>
            <path class="cls-5" d="M417,347.92a39.43,39.43,0,0,1-10.37-2.23c-.32-.12-.62-.28-.93-.41,5,23.42,7.47,47.33,9.11,71.26h11.49a289.78,289.78,0,0,0-2.18-35.47A266.7,266.7,0,0,0,417,347.92Z"/>
            <path class="cls-3" d="M430.71,347.94a94.11,94.11,0,0,1-13.68,0,266.7,266.7,0,0,1,7.12,33.15,289.78,289.78,0,0,1,2.18,35.47h14.91C441.75,393.47,436.78,370.44,430.71,347.94Z"/>
          </g>
          <g>
            <path class="cls-1" d="M405.41,173.26c-.38.95-.74,1.92-1.1,2.91l4.46-2.67C407.4,173,406,171.8,405.41,173.26Z"/>
            <path class="cls-5" d="M389.42,237.92c-.75-15.37,2.53-40.28,6.65-56.82l-12,7.2,1.75,56.24,4.68-.31A21.22,21.22,0,0,1,389.42,237.92Z"/>
            <path class="cls-3" d="M419.76,177.21c-.46-.46-9.21-4.77-9.21-4.77l-1.77,1.06a1.74,1.74,0,0,0,2-.23c-3.84,10.26-5.23,21-6.66,31.89L401,228.82a22.27,22.27,0,0,0-.06,8.19,25,25,0,0,0,3,6.35l.69,0-.15,1,.1.18c1.21,2.22,2.18,4.74,1.87,7.21h4.35S420.22,177.66,419.76,177.21Z"/>
            <path class="cls-5" d="M404.58,244.49l-.1-.18-1.11,7.39h3.08C406.76,249.23,405.79,246.71,404.58,244.49Z"/>
            <path class="cls-5" d="M394.87,241.4a19.65,19.65,0,0,0,1.21,2.48l7.86-.51a25,25,0,0,1-3-6.35,22.27,22.27,0,0,1,.06-8.19l3.13-23.67c1.43-10.86,2.82-21.63,6.66-31.89a1.74,1.74,0,0,1-2,.23l-4.46,2.67c-5.95,16.38-9.28,37.81-10.38,54.7C393.7,234.42,393.59,238.08,394.87,241.4Z"/>
            <path class="cls-3" d="M389.42,237.92a21.22,21.22,0,0,0,1,6.32l5.62-.37a19.65,19.65,0,0,1-1.21-2.48c-1.28-3.31-1.17-7-.94-10.52,1.11-16.9,4.44-38.33,10.38-54.7l-8.25,4.94C391.95,197.65,388.67,222.56,389.42,237.92Z"/>
            <path class="cls-5" d="M399.29,253.81c-1.54,0-3.39-.37-4.93-.36a4,4,0,0,0,.06-1.78l-8.42,0-.22-7.1-2.58.17-1.12,10,20.73.66.56-3.72h-4A6.8,6.8,0,0,1,399.29,253.81Z"/>
            <path class="cls-5" d="M394.36,253.45c1.54,0,3.39.37,4.93.36a6.8,6.8,0,0,0,.09-2.13h-5A4,4,0,0,1,394.36,253.45Z"/>
            <path class="cls-3" d="M394.42,251.67a6.91,6.91,0,0,0-.91-2.42c-.76-1.26-1.76-2.36-2.47-3.65a10.08,10.08,0,0,1-.58-1.36l-4.68.31.22,7.1Z"/>
            <path class="cls-5" d="M404.62,243.32l-.69,0,.54.95Z"/>
            <path class="cls-3" d="M403.94,243.36l-7.86.51c.65,1.16,1.34,2.29,1.95,3.46a12,12,0,0,1,1.36,4.35h4l1.11-7.39Z"/>
            <path class="cls-21" d="M391,245.6c.71,1.29,1.71,2.39,2.47,3.65a6.91,6.91,0,0,1,.91,2.42h5a12,12,0,0,0-1.36-4.35c-.6-1.18-1.3-2.31-1.95-3.46l-5.62.37A10.08,10.08,0,0,0,391,245.6Z"/>
          </g>
          <rect class="cls-25" x="386" y="251.71" width="20.68" height="7.75" rx="1" ry="1"/>
          <g>
            <path class="cls-26" d="M359.7,324.7s.76,4.56,2.28,5,9.58,1.67,13.38,0,3-5.78,3-5.78,3.46-22.28,6.38-41.51c-3.82,1-9.6,2.68-13.83,3.91C365.62,305,359.7,324.7,359.7,324.7Z"/>
            <path class="cls-26" d="M385.7,243.65c.15-1.67-5.83-34.52-5.83-34.52l3.3-2.13-3.3-3,6.59-17.49,6.75-.48,1.81-4s-11.33,2.94-13.27,5.07-5.63,26.46-6.08,34.52c-.31,5.49,1.92,15.22,3.08,23.32C381.46,244.94,385.6,244.78,385.7,243.65Z"/>
            <path class="cls-21" d="M388.74,214.61a153.25,153.25,0,0,1,2.89-25.11l1.58-3.49-6.75.48L379.87,204l3.3,3-3.3,2.13s6,32.84,5.83,34.52c-.1,1.12-4.24,1.29-7,1.27a41.18,41.18,0,0,1,.57,9.68c-.4,3.39-4.2,17.24-8.36,31.74,4.23-1.23,10-2.9,13.83-3.91,2-13,3.71-24.64,4-27C389.35,249.53,388.13,229.67,388.74,214.61Z"/>
          </g>
          <g>
            <path class="cls-26" d="M402.1,279.37c3.57,20.33,8.84,47.82,8.84,47.82s1.52,3.9,4.56,4.81c2,.59,12,.48,20,.08-1.88-10.41-9.19-50.11-12.1-53.15C421,276.44,408.92,278.17,402.1,279.37Z"/>
            <path class="cls-26" d="M441.81,187.09a12.31,12.31,0,0,0-5-3s-8.87-7.2-9.33-7.2c-.26,0-3.69-.85-6.64-1.59l1.36,1.66-.19,24.1-7,5.17,3.8,6.08-15.13,21.9s-1.44,7.91-.68,9,24.78-3.8,27.37-5.63,2.28-23.72,2.28-23.72l4.16,27.22s4.2,2.43,5.27,5.32a9.27,9.27,0,0,1,.61,4.87s-4.87-6.84-7.15-7.3-15.51,3.65-15.51,3.65l4.56,17.18,13.53-.3S452,262.66,454.43,254,443.78,189.22,441.81,187.09Z"/>
            <path class="cls-1" d="M445.3,331.24a88,88,0,0,1-9.8.84c.29,1.58.45,2.5.45,2.5s10.42,1.06,10.87,1.06,5-4.26,5-4.26l-13.68-66.9,11.56,65.84Z"/>
          </g>
          <g>
            <path class="cls-27" d="M414.56,158.65c-.6-4-2.82-8.28-6.75-9.27-1.6,3.36-5.11,7.06-8.82,7.33-3.9.29-7.19-2.77-9.69-5.78a79.12,79.12,0,0,1-7.86-11.37,13.84,13.84,0,0,0-1.18,17c1.6,2.21,3.85,3.9,5.36,6.18A14.41,14.41,0,0,1,386.93,175a18.27,18.27,0,0,1-.72,1.72c-.45,4.34-2.61,8.32-4.38,12.33-1.86,4.2-3.32,9-1.86,13.32l6.35-1.14a25.31,25.31,0,0,1,0-6.08,17.25,17.25,0,0,1,1.77-6.79s-.61,5.07-.61,7.8a19.63,19.63,0,0,0,.61,4.87,77.33,77.33,0,0,1,3.55-11.53c2.06-4.77,9.1-10.37,9.1-10.37l15.88-4.89h0a18.11,18.11,0,0,1-1.17-3.48C414.63,166.8,415.15,162.67,414.56,158.65Z"/>
            <path class="cls-28" d="M431.26,165.65c-5.88-6.49-6.28-29.6-13.18-36.39s-19.32-9.15-32.92-1.94a21.76,21.76,0,0,0-10.63,14.24A22.42,22.42,0,0,0,377.81,159c2.11,3.09,5,5.64,6.74,9a15.43,15.43,0,0,1,1.74,8.13c0,.21-.05.41-.07.61a18.27,18.27,0,0,0,.72-1.72,14.41,14.41,0,0,0-1.32-12.24c-1.51-2.27-3.76-4-5.36-6.18a13.84,13.84,0,0,1,1.18-17,79.12,79.12,0,0,0,7.86,11.37c2.5,3,5.79,6.08,9.69,5.78,3.71-.28,7.22-4,8.82-7.33,3.93,1,6.16,5.26,6.75,9.27s.07,8.15.92,12.12a18.11,18.11,0,0,0,1.17,3.48l20.2,9.85S437.15,172.14,431.26,165.65Z"/>
          </g>
          <path class="cls-24" d="M396.24,172.72l.15,1.52a13.67,13.67,0,0,1,.61,3.14c0,1.22-4.87,9.88-5.37,12.11s-.46,9.83-.46,9.83a132.46,132.46,0,0,1,11.61-14.8,90.86,90.86,0,0,1,10.54-9.38l3.29-.91L412.87,170l-5.63-2.18Z"/>
          <path class="cls-22" d="M394.57,170.64a13.32,13.32,0,0,1,1.37,2.43l.46,1.17s5.68-3.55,8.87-4.21a26.49,26.49,0,0,1,7.6,0s-4.94-5.39-5.87-8.6l-.92-3.21Z"/>
          <g>
            <path class="cls-24" d="M410.05,150.65c-2-4.26-5.09-.3-6.08,1.6s-2.58-.61-6.84-4l-4.26-3.42,3.57,6.16s-2.75-1.57-5.53-3.44c1.34,1.56,2.74,3.05,4.22,4.47a21.63,21.63,0,0,1,3.53,3.86,11.4,11.4,0,0,1,.69,10,18.3,18.3,0,0,1-4.57,6.62c4.2-1.72,9.27-5,10.4-6.51,1.82-2.51,2.28-7.22,2.28-7.22S412,154.91,410.05,150.65Z"/>
            <path class="cls-23" d="M399.36,165.81a11.4,11.4,0,0,0-.69-10,21.63,21.63,0,0,0-3.53-3.86c-1.48-1.42-2.88-2.91-4.22-4.47a25.22,25.22,0,0,1-5.27-4.32,20.48,20.48,0,0,1-3-6.16l-1.72,3.14v8.49a47.69,47.69,0,0,0,1,6.72s-2,4.76-2,5.22,2.13,1.27,2.13,1.27,5.09,9.07,7.15,11.28c.78.84,3,.35,5.64-.72A18.3,18.3,0,0,0,399.36,165.81Z"/>
          </g>
          <path class="cls-21" d="M420.06,247.61s13.23-4.11,15.51-3.65,7.15,7.3,7.15,7.3a9.27,9.27,0,0,0-.61-4.87c-1.06-2.89-5.27-5.32-5.27-5.32l-4.16-27.22s.3,21.9-2.28,23.72-26.61,6.69-27.37,5.63.68-9,.68-9l15.13-21.9-3.8-6.08,7-5.17.19-24.1-8.3-5.75s-4.77,21.8-8.51,42.17-6.26,40.14-6.52,44.86c-.09,1.63,1.32,10.38,3.21,21.12,6.82-1.2,18.93-2.93,21.31-.44,2.9,3,10.22,42.74,12.1,53.15a88,88,0,0,0,9.8-.84l4.41-.91-11.56-65.84-13.53.3Z"/>
        </g>
        <circle class="cls-26" cx="330.61" cy="270.19" r="1.72" transform="translate(-85.93 176.38) rotate(-26.57)"/>
        <circle class="cls-21" cx="429.12" cy="259.6" r="1.59"/>
      </g>
    </g>
    <g>
      <path class="cls-29" d="M280,259.16l5.7.91s2.05,6.17,2.05,9.36A8.83,8.83,0,0,1,285.5,275h-6.08Z"/>
      <g class="cls-30">
        <g>
          <path class="cls-12" d="M228.32,330.88l3.35,7.5-10.85,74.2H184.94l-4.46-37.71s-2-24.94-2.23-25.54,2.84-11.15,2.84-11.15Z"/>
          <path class="cls-19" d="M234,323.18l-2.33,15.21s-32.74,1.62-41.46,1.82-9.53,9.33-9.53,9.33l4.26,63.05-20.07-1.22s8.72-47.44,9.53-56.36,1-33.86,1-33.86Z"/>
          <g>
            <path class="cls-12" d="M197.71,298.85c-8.69,7.37-13.36,20-15.56,27.88,7.84,2,18.38,4.23,27.93,4.76,18,1,24.13,0,27.57-4.05,2-2.39,3.72-21.74,4.75-37.18C236.61,289.88,209.62,288.74,197.71,298.85Z"/>
            <path class="cls-19" d="M242.74,252.26l-3-16.81L226.1,206.2l-19.16-5.88-27.57,9.28,3.35,60.06-12.37,53.73s4.84,1.57,11.81,3.34c2.21-7.92,6.88-20.5,15.56-27.88,11.91-10.11,38.9-9,44.69-8.6.72-10.7,1.13-19.53,1.13-19.53Z"/>
          </g>
          <path class="cls-12" d="M200.5,167l-2,.2a80,80,0,0,0-13.94,16.52c-5.47,9.12-5.17,23-5.17,25.85s34.52,56.11,39.53,60.21,16.42,4.56,24.63,5.17,37.86.91,37.86.91,3.35-3.35,2.43-9.58-2.74-8.06-2.74-8.06-34.06-6.08-36.8-6.08-4.89.46-6.78,4.11l-1.89,3.65a47,47,0,0,1,1.89-8.51l1.15-2.89s-19.46-32.84-20.38-38.32,5.09,6.39,9.47,13.38,12,11.86,12,11.86l-12.47-37.81-5.39-11.91S207.65,172.54,207,171.3,200.5,167,200.5,167Z"/>
          <path class="cls-29" d="M224.17,179l.56,3.55s1.22,5,1.77,8.92.76,6.13.76,6.13S215.4,180,208.2,174.57s-9.73-7.35-9.73-7.35l2.33-3.5,1,.51,13,5.93Z"/>
          <path class="cls-24" d="M204.71,160l-2.15,2.13-.73,2.08s13.48,9.73,17.44,13a36.94,36.94,0,0,1,5.47,5.32l2.53-10-2.65-6.38Z"/>
          <path class="cls-22" d="M203.29,159l-.74,3.19s7.91.3,13.23,2.05,11.48,8.36,11.48,8.36l3.27-4.33s-12.7-18.63-13.08-18.78S206,149,206,149Z"/>
          <g>
            <path class="cls-24" d="M238.15,171.06c-3.15-3-3.5-7.88-5.27-11.88-1-2.3-2.55-4.37-3.41-6.74-1.14-3.12-1-6.55-.79-9.87s.67-6.67.11-9.95a14.06,14.06,0,0,0-1-3.39l-13.72.3-8.29,6.6-.61,10,3.19,2.89s2,3.88,4.64,5,3.8.68,3.8.68a44.09,44.09,0,0,0,.46,5.93c.38,1.6,14.29,10,17.71,11.18a4,4,0,0,0,3.66-.39C238.45,171.3,238.29,171.2,238.15,171.06Z"/>
            <path class="cls-23" d="M228.68,142.58c-.26,3.32-.35,6.74.79,9.87.86,2.37,2.39,4.44,3.41,6.74,1.77,4,2.12,8.84,5.27,11.88.14.13.3.24.44.36a5,5,0,0,0,2-3.11c.38-2,3.12-10.49,3.12-10.49s3.35-2,3.57-3.35-4-7.07-4-7.07l.53-12.37,1.14-6.18-17.22.38a14.06,14.06,0,0,1,1,3.39C229.35,135.91,228.94,139.26,228.68,142.58Z"/>
          </g>
          <g>
            <path class="cls-8" d="M229.62,128.42c4.58-.87,9.15-2.44,12.73-5.44a16.63,16.63,0,0,0,3.81-4.62c-1.3-1.81-2.69-1.76-6.88-1.68-5.17.1-16.62-2.84-23.72-1.93s-17.84,9.12-18.25,16.12a27.25,27.25,0,0,0,.41,5.26,51.48,51.48,0,0,1,18-5.94C220.36,129.53,225,129.3,229.62,128.42Z"/>
            <path class="cls-11" d="M247.08,119.93a11.46,11.46,0,0,0-.92-1.56,16.63,16.63,0,0,1-3.81,4.62c-3.58,3-8.15,4.56-12.73,5.44s-9.26,1.11-13.88,1.77a51.48,51.48,0,0,0-18,5.94c1.37,9,5.57,22.82,5.57,22.82s5-5.37,5.88-7.5-4.05-9.53,2.43-10.64,6.49,10.14,8.31,10.64,2.23-1.42,2.79-3.35,1.06-2.43,3.09-5,1.62-2.94,2-5.37,1.93-5.07,3.24-5.88,12.27-.71,12.67-.71.1,3.85.1,3.85a10.87,10.87,0,0,0,3.24-4.05C248.09,128.55,248.8,123.38,247.08,119.93Z"/>
          </g>
          <path class="cls-19" d="M205.14,292h24a0,0,0,0,1,0,0v6.72a1.79,1.79,0,0,1-1.79,1.79H206.93a1.79,1.79,0,0,1-1.79-1.79V292A0,0,0,0,1,205.14,292Z"/>
        </g>
      </g>
    </g>
    <g>
      <rect class="cls-31" x="248.69" y="203.76" width="12.25" height="19.85"/>
      <rect class="cls-31" x="265.09" y="180.49" width="12.25" height="43.13"/>
      <rect class="cls-31" x="281.49" y="163.47" width="12.25" height="60.14"/>
      <rect class="cls-31" x="297.89" y="179.28" width="12.25" height="44.33"/>
    </g>
    <rect class="cls-31" x="265.12" y="304.87" width="6.67" height="6.67" rx="3.25" ry="3.25"/>
    <rect class="cls-31" x="277.12" y="304.87" width="38.33" height="6.49" rx="3.25" ry="3.25"/>
    <rect class="cls-31" x="265.12" y="317.87" width="6.67" height="6.67" rx="3.25" ry="3.25"/>
    <rect class="cls-31" x="277.12" y="317.87" width="38.33" height="6.49" rx="3.25" ry="3.25"/>
    <rect class="cls-31" x="265.12" y="330.87" width="6.67" height="6.67" rx="3.25" ry="3.25"/>
    <rect class="cls-31" x="277.12" y="330.87" width="38.33" height="6.49" rx="3.25" ry="3.25"/>
    <rect class="cls-31" x="265.12" y="343.87" width="6.67" height="6.67" rx="3.25" ry="3.25"/>
    <rect class="cls-31" x="277.12" y="343.87" width="38.33" height="6.49" rx="3.25" ry="3.25"/>
    <path class="cls-32" d="M456.58,128.09a6.56,6.56,0,0,0-6.56,6.56v41.82a6.56,6.56,0,0,0,6.56,6.56h18.88l8.94,17,4.47-8.49V128.09Z"/>
    <path class="cls-10" d="M519.22,121.09H463.58a6.56,6.56,0,0,0-6.56,6.56v41.82a6.56,6.56,0,0,0,6.56,6.56h18.88l8.94,17,8.94-17h18.88a6.56,6.56,0,0,0,6.56-6.56V127.65A6.56,6.56,0,0,0,519.22,121.09Z"/>
    <g>
      <g>
        <path class="cls-9" d="M497.36,160.7h-7a8.69,8.69,0,0,1-4.22-1,.45.45,0,0,1-.28-.46q0-6.54,0-13.07a.39.39,0,0,1,.29-.45,2.77,2.77,0,0,0,1.69-1.74c1.38-3.1,2.82-6.16,4.25-9.24a2.49,2.49,0,0,0,.24-1.09c0-1.5,0-3,0-4.51a.42.42,0,0,1,.29-.45,2.09,2.09,0,0,1,2.54.35,5.92,5.92,0,0,1,2,3.76,11.41,11.41,0,0,1-.31,3,25.44,25.44,0,0,1-1.14,4.23c-.31.88,0,1.34,1,1.34h10.87a2.37,2.37,0,0,1,2.48,1.9,2.31,2.31,0,0,1-.81,2.38l-.24.19a.8.8,0,0,0,0,1.41,2.25,2.25,0,0,1,1,1.22,2,2,0,0,1-1.5,2.54,2.18,2.18,0,0,0-.44.12.8.8,0,0,0-.21,1.31,2.16,2.16,0,0,1,.62,1.38,2,2,0,0,1-1.61,2l-.29.07a.78.78,0,0,0-.42,1.24,4,4,0,0,1,.57.84,2,2,0,0,1-2,2.76Z"/>
        <path class="cls-33" d="M485.83,153.4c0,2.82,0,5.63,0,8.45,0,.35-.07.47-.45.47q-4.41,0-8.82,0c-.35,0-.44-.1-.44-.44q0-8.45,0-16.89c0-.39.13-.49.5-.48q4.39,0,8.79,0c.33,0,.43.08.43.42C485.82,147.74,485.83,150.57,485.83,153.4Z"/>
      </g>
      <circle class="cls-34" cx="480.98" cy="158.53" r="1.59"/>
    </g>
    <g>
      <g>
        <g>
          <ellipse class="cls-4" cx="553.05" cy="447.84" rx="42.97" ry="7.46"/>
          <g>
            <path class="cls-5" d="M510.08,447.84v13.22c0,1.55,2.72,3,7.37,4.18V452C512.8,450.83,510.08,449.39,510.08,447.84Z"/>
            <path class="cls-5" d="M553.06,455.3a200,200,0,0,1-27.22-1.69v13.22a200,200,0,0,0,27.22,1.69c4.06,0,8-.1,11.69-.28V455C561,455.2,557.11,455.3,553.06,455.3Z"/>
            <path class="cls-4" d="M517.45,452v13.22a79.74,79.74,0,0,0,8.39,1.59V453.62A79.66,79.66,0,0,1,517.45,452Z"/>
            <path class="cls-6" d="M596,461.06V447.84c0,3.42-13.23,6.3-31.28,7.18v13.22C582.8,467.35,596,464.47,596,461.06Z"/>
          </g>
          <ellipse class="cls-5" cx="552.05" cy="447.14" rx="34.84" ry="4.88"/>
        </g>
        <g class="cls-7">
          <path class="cls-4" d="M554.24,446.75c4.22.17,8.87.42,8.87,1.35,0,.69-2.91,1.28-8.87,1.41v.74h-3.79v-.72A86.49,86.49,0,0,1,541,449l2.08-.8a72.72,72.72,0,0,0,7.39.47v-1.1c-4.22-.18-8.93-.43-8.93-1.37,0-.7,2.91-1.3,8.93-1.42V444h3.79v.72c2.85,0,5.62.17,7.73.4l-1.91.81c-1.94-.19-3.91-.3-5.82-.34Zm-3.79-.16v-.94c-2,.08-2.82.27-2.82.49s1.14.36,2.82.45m3.79,2c1.91-.07,2.74-.24,2.74-.46s-1.11-.36-2.74-.46v.91"/>
        </g>
      </g>
      <g>
        <g>
          <ellipse class="cls-4" cx="553.05" cy="432.84" rx="42.97" ry="7.46"/>
          <g>
            <path class="cls-5" d="M510.08,432.84v13.22c0,1.55,2.72,3,7.37,4.18V437C512.8,435.83,510.08,434.39,510.08,432.84Z"/>
            <path class="cls-5" d="M553.06,440.3a200,200,0,0,1-27.22-1.69v13.22a200,200,0,0,0,27.22,1.69c4.06,0,8-.1,11.69-.28V440C561,440.2,557.11,440.3,553.06,440.3Z"/>
            <path class="cls-4" d="M517.45,437v13.22a79.74,79.74,0,0,0,8.39,1.59V438.62A79.66,79.66,0,0,1,517.45,437Z"/>
            <path class="cls-6" d="M596,446.06V432.84c0,3.42-13.23,6.3-31.28,7.18v13.22C582.8,452.35,596,449.47,596,446.06Z"/>
          </g>
          <ellipse class="cls-5" cx="552.05" cy="432.14" rx="34.84" ry="4.88"/>
        </g>
        <g class="cls-7">
          <path class="cls-4" d="M554.24,431.75c4.22.17,8.87.42,8.87,1.35,0,.69-2.91,1.28-8.87,1.41v.74h-3.79v-.72A86.49,86.49,0,0,1,541,434l2.08-.8a72.72,72.72,0,0,0,7.39.47v-1.1c-4.22-.18-8.93-.43-8.93-1.37,0-.7,2.91-1.3,8.93-1.42V429h3.79v.72c2.85,0,5.62.17,7.73.4l-1.91.81c-1.94-.19-3.91-.3-5.82-.34Zm-3.79-.16v-.94c-2,.08-2.82.27-2.82.49s1.14.36,2.82.45m3.79,2c1.91-.07,2.74-.24,2.74-.46s-1.11-.36-2.74-.46v.91"/>
        </g>
      </g>
    </g>
    <g>
      <g>
        <g>
          <ellipse class="cls-4" cx="557.05" cy="417.84" rx="42.97" ry="7.46"/>
          <g>
            <path class="cls-5" d="M514.08,417.84v13.22c0,1.55,2.72,3,7.37,4.18V422C516.8,420.83,514.08,419.39,514.08,417.84Z"/>
            <path class="cls-5" d="M557.06,425.3a200,200,0,0,1-27.22-1.69v13.22a200,200,0,0,0,27.22,1.69c4.06,0,8-.1,11.69-.28V425C565,425.2,561.11,425.3,557.06,425.3Z"/>
            <path class="cls-4" d="M521.45,422v13.22a79.74,79.74,0,0,0,8.39,1.59V423.62A79.66,79.66,0,0,1,521.45,422Z"/>
            <path class="cls-6" d="M600,431.06V417.84c0,3.42-13.23,6.3-31.28,7.18v13.22C586.8,437.35,600,434.47,600,431.06Z"/>
          </g>
          <ellipse class="cls-5" cx="556.05" cy="417.14" rx="34.84" ry="4.88"/>
        </g>
        <g class="cls-7">
          <path class="cls-4" d="M558.24,416.75c4.22.17,8.87.42,8.87,1.35,0,.69-2.91,1.28-8.87,1.41v.74h-3.79v-.72A86.49,86.49,0,0,1,545,419l2.08-.8a72.72,72.72,0,0,0,7.39.47v-1.1c-4.22-.18-8.93-.43-8.93-1.37,0-.7,2.91-1.3,8.93-1.42V414h3.79v.72c2.85,0,5.62.17,7.73.4l-1.91.81c-1.94-.19-3.91-.3-5.82-.34Zm-3.79-.16v-.94c-2,.08-2.82.27-2.82.49s1.14.36,2.82.45m3.79,2c1.91-.07,2.74-.24,2.74-.46s-1.11-.36-2.74-.46v.91"/>
        </g>
      </g>
      <g>
        <g>
          <ellipse class="cls-4" cx="557.05" cy="402.84" rx="42.97" ry="7.46"/>
          <g>
            <path class="cls-5" d="M514.08,402.84v13.22c0,1.55,2.72,3,7.37,4.18V407C516.8,405.83,514.08,404.39,514.08,402.84Z"/>
            <path class="cls-5" d="M557.06,410.3a200,200,0,0,1-27.22-1.69v13.22a200,200,0,0,0,27.22,1.69c4.06,0,8-.1,11.69-.28V410C565,410.2,561.11,410.3,557.06,410.3Z"/>
            <path class="cls-4" d="M521.45,407v13.22a79.74,79.74,0,0,0,8.39,1.59V408.62A79.66,79.66,0,0,1,521.45,407Z"/>
            <path class="cls-6" d="M600,416.06V402.84c0,3.42-13.23,6.3-31.28,7.18v13.22C586.8,422.35,600,419.47,600,416.06Z"/>
          </g>
          <ellipse class="cls-5" cx="556.05" cy="402.14" rx="34.84" ry="4.88"/>
        </g>
        <g class="cls-7">
          <path class="cls-4" d="M558.24,401.75c4.22.17,8.87.42,8.87,1.35,0,.69-2.91,1.28-8.87,1.41v.74h-3.79v-.72A86.49,86.49,0,0,1,545,404l2.08-.8a72.72,72.72,0,0,0,7.39.47v-1.1c-4.22-.18-8.93-.43-8.93-1.37,0-.7,2.91-1.3,8.93-1.42V399h3.79v.72c2.85,0,5.62.17,7.73.4l-1.91.81c-1.94-.19-3.91-.3-5.82-.34Zm-3.79-.16v-.94c-2,.08-2.82.27-2.82.49s1.14.36,2.82.45m3.79,2c1.91-.07,2.74-.24,2.74-.46s-1.11-.36-2.74-.46v.91"/>
        </g>
      </g>
    </g>
    <g>
      <g>
        <g>
          <ellipse class="cls-4" cx="553.05" cy="387.84" rx="42.97" ry="7.46"/>
          <g>
            <path class="cls-5" d="M510.08,387.84v13.22c0,1.55,2.72,3,7.37,4.18V392C512.8,390.83,510.08,389.39,510.08,387.84Z"/>
            <path class="cls-5" d="M553.06,395.3a200,200,0,0,1-27.22-1.69v13.22a200,200,0,0,0,27.22,1.69c4.06,0,8-.1,11.69-.28V395C561,395.2,557.11,395.3,553.06,395.3Z"/>
            <path class="cls-4" d="M517.45,392v13.22a79.74,79.74,0,0,0,8.39,1.59V393.62A79.66,79.66,0,0,1,517.45,392Z"/>
            <path class="cls-6" d="M596,401.06V387.84c0,3.42-13.23,6.3-31.28,7.18v13.22C582.8,407.35,596,404.47,596,401.06Z"/>
          </g>
          <ellipse class="cls-5" cx="552.05" cy="387.14" rx="34.84" ry="4.88"/>
        </g>
        <g class="cls-7">
          <path class="cls-4" d="M554.24,386.75c4.22.17,8.87.42,8.87,1.35,0,.69-2.91,1.28-8.87,1.41v.74h-3.79v-.72A86.49,86.49,0,0,1,541,389l2.08-.8a72.72,72.72,0,0,0,7.39.47v-1.1c-4.22-.18-8.93-.43-8.93-1.37,0-.7,2.91-1.3,8.93-1.42V384h3.79v.72c2.85,0,5.62.17,7.73.4l-1.91.81c-1.94-.19-3.91-.3-5.82-.34Zm-3.79-.16v-.94c-2,.08-2.82.27-2.82.49s1.14.36,2.82.45m3.79,2c1.91-.07,2.74-.24,2.74-.46s-1.11-.36-2.74-.46v.91"/>
        </g>
      </g>
      <g>
        <g>
          <ellipse class="cls-4" cx="553.05" cy="372.84" rx="42.97" ry="7.46"/>
          <g>
            <path class="cls-5" d="M510.08,372.84v13.22c0,1.55,2.72,3,7.37,4.18V377C512.8,375.83,510.08,374.39,510.08,372.84Z"/>
            <path class="cls-5" d="M553.06,380.3a200,200,0,0,1-27.22-1.69v13.22a200,200,0,0,0,27.22,1.69c4.06,0,8-.1,11.69-.28V380C561,380.2,557.11,380.3,553.06,380.3Z"/>
            <path class="cls-4" d="M517.45,377v13.22a79.74,79.74,0,0,0,8.39,1.59V378.62A79.66,79.66,0,0,1,517.45,377Z"/>
            <path class="cls-6" d="M596,386.06V372.84c0,3.42-13.23,6.3-31.28,7.18v13.22C582.8,392.35,596,389.47,596,386.06Z"/>
          </g>
          <ellipse class="cls-5" cx="552.05" cy="372.14" rx="34.84" ry="4.88"/>
        </g>
        <g class="cls-7">
          <path class="cls-4" d="M554.24,371.75c4.22.17,8.87.42,8.87,1.35,0,.69-2.91,1.28-8.87,1.41v.74h-3.79v-.72A86.49,86.49,0,0,1,541,374l2.08-.8a72.72,72.72,0,0,0,7.39.47v-1.1c-4.22-.18-8.93-.43-8.93-1.37,0-.7,2.91-1.3,8.93-1.42V369h3.79v.72c2.85,0,5.62.17,7.73.4l-1.91.81c-1.94-.19-3.91-.3-5.82-.34Zm-3.79-.16v-.94c-2,.08-2.82.27-2.82.49s1.14.36,2.82.45m3.79,2c1.91-.07,2.74-.24,2.74-.46s-1.11-.36-2.74-.46v.91"/>
        </g>
      </g>
    </g>
    <g>
      <g>
        <g>
          <ellipse class="cls-4" cx="508.61" cy="449.63" rx="42.97" ry="7.46"/>
          <g>
            <path class="cls-5" d="M465.63,449.63v13.22c0,1.55,2.72,3,7.37,4.18V453.81C468.35,452.61,465.63,451.17,465.63,449.63Z"/>
            <path class="cls-5" d="M508.61,457.09a200,200,0,0,1-27.22-1.69v13.22a200,200,0,0,0,27.22,1.69c4.06,0,8-.1,11.69-.28V456.81C516.58,457,512.66,457.09,508.61,457.09Z"/>
            <path class="cls-4" d="M473,453.81V467a79.74,79.74,0,0,0,8.39,1.59V455.4A79.66,79.66,0,0,1,473,453.81Z"/>
            <path class="cls-6" d="M551.58,462.84V449.63c0,3.42-13.23,6.3-31.28,7.18V470C538.35,469.14,551.58,466.26,551.58,462.84Z"/>
          </g>
          <ellipse class="cls-5" cx="507.6" cy="448.93" rx="34.84" ry="4.88"/>
        </g>
        <g class="cls-7">
          <path class="cls-4" d="M509.8,448.54c4.22.17,8.87.42,8.87,1.35,0,.69-2.91,1.28-8.87,1.41V452H506v-.72a86.49,86.49,0,0,1-9.47-.53l2.08-.8a72.72,72.72,0,0,0,7.39.47v-1.1c-4.22-.18-8.93-.43-8.93-1.37,0-.7,2.91-1.3,8.93-1.42v-.73h3.79v.72c2.85,0,5.62.17,7.73.4l-1.91.81c-1.94-.19-3.91-.3-5.82-.34Zm-3.79-.16v-.94c-2,.08-2.82.27-2.82.49s1.14.36,2.82.45m3.79,2c1.91-.07,2.74-.24,2.74-.46s-1.11-.36-2.74-.46v.91"/>
        </g>
      </g>
      <g>
        <g>
          <ellipse class="cls-4" cx="508.61" cy="434.63" rx="42.97" ry="7.46"/>
          <g>
            <path class="cls-5" d="M465.63,434.63v13.22c0,1.55,2.72,3,7.37,4.18V438.81C468.35,437.61,465.63,436.17,465.63,434.63Z"/>
            <path class="cls-5" d="M508.61,442.09a200,200,0,0,1-27.22-1.69v13.22a200,200,0,0,0,27.22,1.69c4.06,0,8-.1,11.69-.28V441.81C516.58,442,512.66,442.09,508.61,442.09Z"/>
            <path class="cls-4" d="M473,438.81V452a79.74,79.74,0,0,0,8.39,1.59V440.4A79.66,79.66,0,0,1,473,438.81Z"/>
            <path class="cls-6" d="M551.58,447.84V434.63c0,3.42-13.23,6.3-31.28,7.18V455C538.35,454.14,551.58,451.26,551.58,447.84Z"/>
          </g>
          <ellipse class="cls-5" cx="507.6" cy="433.93" rx="34.84" ry="4.88"/>
        </g>
        <g class="cls-7">
          <path class="cls-4" d="M509.8,433.54c4.22.17,8.87.42,8.87,1.35,0,.69-2.91,1.28-8.87,1.41V437H506v-.72a86.49,86.49,0,0,1-9.47-.53l2.08-.8a72.72,72.72,0,0,0,7.39.47v-1.1c-4.22-.18-8.93-.43-8.93-1.37,0-.7,2.91-1.3,8.93-1.42v-.73h3.79v.72c2.85,0,5.62.17,7.73.4l-1.91.81c-1.94-.19-3.91-.3-5.82-.34Zm-3.79-.16v-.94c-2,.08-2.82.27-2.82.49s1.14.36,2.82.45m3.79,2c1.91-.07,2.74-.24,2.74-.46s-1.11-.36-2.74-.46v.91"/>
        </g>
      </g>
    </g>
    <g>
      <g>
        <g>
          <ellipse class="cls-4" cx="504.61" cy="419.63" rx="42.97" ry="7.46"/>
          <g>
            <path class="cls-5" d="M461.63,419.63v13.22c0,1.55,2.72,3,7.37,4.18V423.81C464.35,422.61,461.63,421.17,461.63,419.63Z"/>
            <path class="cls-5" d="M504.61,427.09a200,200,0,0,1-27.22-1.69v13.22a200,200,0,0,0,27.22,1.69c4.06,0,8-.1,11.69-.28V426.81C512.58,427,508.66,427.09,504.61,427.09Z"/>
            <path class="cls-4" d="M469,423.81V437a79.74,79.74,0,0,0,8.39,1.59V425.4A79.66,79.66,0,0,1,469,423.81Z"/>
            <path class="cls-6" d="M547.58,432.84V419.63c0,3.42-13.23,6.3-31.28,7.18V440C534.35,439.14,547.58,436.26,547.58,432.84Z"/>
          </g>
          <ellipse class="cls-5" cx="503.6" cy="418.93" rx="34.84" ry="4.88"/>
        </g>
        <g class="cls-7">
          <path class="cls-4" d="M505.8,418.54c4.22.17,8.87.42,8.87,1.35,0,.69-2.91,1.28-8.87,1.41V422H502v-.72a86.49,86.49,0,0,1-9.47-.53l2.08-.8a72.72,72.72,0,0,0,7.39.47v-1.1c-4.22-.18-8.93-.43-8.93-1.37,0-.7,2.91-1.3,8.93-1.42v-.73h3.79v.72c2.85,0,5.62.17,7.73.4l-1.91.81c-1.94-.19-3.91-.3-5.82-.34Zm-3.79-.16v-.94c-2,.08-2.82.27-2.82.49s1.14.36,2.82.45m3.79,2c1.91-.07,2.74-.24,2.74-.46s-1.11-.36-2.74-.46v.91"/>
        </g>
      </g>
      <g>
        <g>
          <ellipse class="cls-4" cx="504.61" cy="404.63" rx="42.97" ry="7.46"/>
          <g>
            <path class="cls-5" d="M461.63,404.63v13.22c0,1.55,2.72,3,7.37,4.18V408.81C464.35,407.61,461.63,406.17,461.63,404.63Z"/>
            <path class="cls-5" d="M504.61,412.09a200,200,0,0,1-27.22-1.69v13.22a200,200,0,0,0,27.22,1.69c4.06,0,8-.1,11.69-.28V411.81C512.58,412,508.66,412.09,504.61,412.09Z"/>
            <path class="cls-4" d="M469,408.81V422a79.74,79.74,0,0,0,8.39,1.59V410.4A79.66,79.66,0,0,1,469,408.81Z"/>
            <path class="cls-6" d="M547.58,417.84V404.63c0,3.42-13.23,6.3-31.28,7.18V425C534.35,424.14,547.58,421.26,547.58,417.84Z"/>
          </g>
          <ellipse class="cls-5" cx="503.6" cy="403.93" rx="34.84" ry="4.88"/>
        </g>
        <g class="cls-7">
          <path class="cls-4" d="M505.8,403.54c4.22.17,8.87.42,8.87,1.35,0,.69-2.91,1.28-8.87,1.41V407H502v-.72a86.49,86.49,0,0,1-9.47-.53l2.08-.8a72.72,72.72,0,0,0,7.39.47v-1.1c-4.22-.18-8.93-.43-8.93-1.37,0-.7,2.91-1.3,8.93-1.42v-.73h3.79v.72c2.85,0,5.62.17,7.73.4l-1.91.81c-1.94-.19-3.91-.3-5.82-.34Zm-3.79-.16v-.94c-2,.08-2.82.27-2.82.49s1.14.36,2.82.45m3.79,2c1.91-.07,2.74-.24,2.74-.46s-1.11-.36-2.74-.46v.91"/>
        </g>
      </g>
    </g>
    <g>
      <path class="cls-15" d="M265.11,417.09a6.81,6.81,0,0,1,3.75,2.42,5.65,5.65,0,0,1,1.26,3.37c0,2.49,0,5,0,7.46,0,5.13-.07,10.26,0,15.39a6.46,6.46,0,0,1-5.26,6.55s-.08.07-.13.1H232.45c-.22-.22-.54-.2-.81-.28a6.23,6.23,0,0,1-4.41-5.77c0-5.92,0-11.84,0-17.76,0-1.8,0-3.59,0-5.39a6.25,6.25,0,0,1,4.75-6,2.4,2.4,0,0,0,.27-.11c1-.09,2-.11,3.05-.1,1.51,0,3,0,4.53,0l.77,0h16l.95,0C260.06,417.06,262.59,416.87,265.11,417.09ZM248.67,444.8c.79,0,1.58,0,2.37,0a1.31,1.31,0,0,0,1.42-1.6c-.27-2-.56-4-.87-6a.77.77,0,0,1,.41-.95,6.29,6.29,0,0,0,2.79-7,6.31,6.31,0,0,0-12.14-.25,6.28,6.28,0,0,0,2.76,7.23.75.75,0,0,1,.41.9q-.47,3-.89,6.08a1.31,1.31,0,0,0,1.39,1.57C247.09,444.8,247.88,444.8,248.67,444.8Z"/>
      <path class="cls-19" d="M239.82,417c-1.51,0-3,0-4.53,0-1,0-2,0-3.05.1,0-3.27-.09-6.55.06-9.82a15.81,15.81,0,0,1,3.7-9.53,16,16,0,0,1,9.61-5.7,16.44,16.44,0,0,1,18.75,11.28,17.45,17.45,0,0,1,.74,5c0,2.92,0,5.84,0,8.76-2.52-.22-5.05,0-7.58-.13,0-2.84,0-5.68,0-8.53a10.93,10.93,0,0,0-.19-2.06,8.82,8.82,0,0,0-17.44,1.06C239.7,410.6,239.86,413.78,239.82,417Z"/>
      <path class="cls-19" d="M248.67,444.8c-.79,0-1.58,0-2.37,0a1.31,1.31,0,0,1-1.39-1.57q.42-3,.89-6.08a.75.75,0,0,0-.41-.9,6.28,6.28,0,0,1-2.76-7.23,6.31,6.31,0,0,1,12.14.25,6.29,6.29,0,0,1-2.79,7,.77.77,0,0,0-.41.95c.32,2,.6,4,.87,6a1.31,1.31,0,0,1-1.42,1.6C250.25,444.81,249.46,444.8,248.67,444.8Z"/>
    </g>
  </g>
  <g class="cls-7">
    <path class="cls-8" d="M378.32,243.44l1-.94a2.66,2.66,0,0,0,2,1.52l-1,.94A2.66,2.66,0,0,1,378.32,243.44Z"/>
    <polygon class="cls-8" points="376.85 240.52 377.89 239.57 379.36 242.5 378.32 243.44 376.85 240.52"/>
    <path class="cls-12" d="M381,243.32a.4.4,0,0,0,.28-.1l-1,.94a.4.4,0,0,1-.28.1C380.23,244,380.57,243.47,381,243.32Z"/>
    <path class="cls-12" d="M381,243.32l-1,.94a1.6,1.6,0,0,1-1.19-.91l1-.94-1,.94c-.18-.35-.17-.66,0-.81l1-.94c-.16.15-.17.46,0,.81A1.6,1.6,0,0,0,381,243.32Z"/>
    <path class="cls-8" d="M378.73,242.54l1-.94a.41.41,0,0,1,.28-.1l-1,.94A.41.41,0,0,0,378.73,242.54Z"/>
    <path class="cls-8" d="M377.74,238.43a1.42,1.42,0,0,0,.15,1.14l-1,.94a1.42,1.42,0,0,1-.15-1.15l.25-.23.13-.12.14-.12.14-.12.13-.12.13-.12Z"/>
    <path class="cls-8" d="M377.74,238.43h0l-1,.94h0Z"/>
    <path class="cls-8" d="M377.27,238.85l-.57.52h0l.12-.11.13-.12.13-.12.14-.12.52-.47h0Z"/>
    <path class="cls-8" d="M377.74,238.42h0l-1,.94h0Z"/>
    <path class="cls-8" d="M381.24,243.22l-1,.94c.16-.15.18-.46,0-.82a1.6,1.6,0,0,0-1.19-.91l1-.94a1.6,1.6,0,0,1,1.19.91C381.41,242.76,381.4,243.07,381.24,243.22Z"/>
    <path class="cls-12" d="M378.25,239.38a1.59,1.59,0,0,0,1.19.91l-.92.83-.12.11a1.59,1.59,0,0,1-1.19-.91h0l1-.94-1,.94c-.18-.36-.17-.66,0-.81l1-.94C378.08,238.72,378.07,239,378.25,239.38Z"/>
    <path class="cls-12" d="M379.44,240.29a.4.4,0,0,0,.28-.1l-1,.94a.4.4,0,0,1-.28.1C378.71,240.95,379,240.44,379.44,240.29Z"/>
    <polygon class="cls-8" points="380.3 244.96 381.34 244.01 383.48 244.01 382.44 244.96 380.3 244.96"/>
    <path class="cls-8" d="M383.95,243.85l-1,.94a.68.68,0,0,1-.47.16l1-.94A.68.68,0,0,0,383.95,243.85Z"/>
    <path class="cls-8" d="M379.72,240.19l-1,.94c.16-.15.18-.46,0-.81a1.59,1.59,0,0,0-1.19-.91l1-.94a1.59,1.59,0,0,1,1.19.91C379.9,239.73,379.89,240,379.72,240.19Z"/>
    <path class="cls-12" d="M381.21,240.89a1.59,1.59,0,0,0,1.19.91l-.92.83-.12.11a1.59,1.59,0,0,1-1.19-.91h0l1-.94-1,.94c-.18-.35-.17-.66,0-.81l1-.94C381,240.23,381,240.54,381.21,240.89Z"/>
    <path class="cls-12" d="M382.4,241.8a.41.41,0,0,0,.28-.1l-1,.94a.41.41,0,0,1-.28.1C381.67,242.46,382,242,382.4,241.8Z"/>
    <path class="cls-8" d="M380.17,241l1-.94a.4.4,0,0,1,.28-.1l-1,.94A.4.4,0,0,0,380.17,241Z"/>
    <path class="cls-8" d="M382.68,241.7l-1,.94c.16-.15.17-.45,0-.81a1.59,1.59,0,0,0-1.19-.91l1-.94a1.59,1.59,0,0,1,1.19.91C382.85,241.25,382.84,241.56,382.68,241.7Z"/>
    <path class="cls-8" d="M380.45,240.93a1.59,1.59,0,0,1,1.19.91c.25.5.13.91-.28.91a1.59,1.59,0,0,1-1.19-.91C379.92,241.34,380,240.93,380.45,240.93Z"/>
    <path class="cls-12" d="M379.45,239a2.67,2.67,0,0,1,2,1.52l1.47,2.92c.42.84.21,1.52-.46,1.52H380.3a2.66,2.66,0,0,1-2-1.52l-1.47-2.92c-.42-.84-.21-1.52.46-1.52Zm.47,5.26c.4,0,.53-.41.28-.91a1.6,1.6,0,0,0-1.19-.91c-.41,0-.53.41-.28.91a1.6,1.6,0,0,0,1.19.91m1.44-1.52c.41,0,.53-.4.28-.91a1.59,1.59,0,0,0-1.19-.91c-.4,0-.53.41-.28.91a1.59,1.59,0,0,0,1.19.91m-3-1.51c.4,0,.53-.41.28-.91a1.59,1.59,0,0,0-1.19-.91c-.41,0-.53.4-.28.91a1.59,1.59,0,0,0,1.19.91"/>
    <path class="cls-8" d="M379,242.44c-.41,0-.53.41-.28.91a1.6,1.6,0,0,0,1.19.91c.4,0,.53-.41.28-.91A1.6,1.6,0,0,0,379,242.44Z"/>
    <path class="cls-8" d="M377.73,238.43l-.45.41-.58.52a.59.59,0,0,1,.14-.2l1-.94a.59.59,0,0,0-.14.2Z"/>
    <path class="cls-19" d="M402.7,267.41l-1,.94c.46-.41.37-1.34-.16-2.41l1-.94C403.08,266.07,403.16,267,402.7,267.41Z"/>
    <path class="cls-8" d="M377.21,239.51l1-.94a.41.41,0,0,1,.28-.1l-1,.94A.41.41,0,0,0,377.21,239.51Z"/>
    <path class="cls-12" d="M377.88,238.22a.68.68,0,0,1,.47-.16l-1,.94a.68.68,0,0,0-.47.16Z"/>
    <path class="cls-12" d="M375.48,237.84l1-.94a1.23,1.23,0,0,1,.85-.26l-1,.94A1.23,1.23,0,0,0,375.48,237.84Z"/>
    <path class="cls-8" d="M377.49,239.42a1.59,1.59,0,0,1,1.19.91c.25.5.13.91-.28.91a1.59,1.59,0,0,1-1.19-.91C377,239.82,377.08,239.42,377.49,239.42Z"/>
    <path class="cls-12" d="M383.95,243.85l-1,.94c.27-.25.29-.76,0-1.36l1-.94C384.24,243.09,384.22,243.6,383.95,243.85Z"/>
    <polygon class="cls-12" points="377.31 239 378.36 238.06 380.49 238.06 379.45 239 377.31 239"/>
    <polygon class="cls-12" points="381.43 240.52 382.47 239.57 383.94 242.5 382.9 243.44 381.43 240.52"/>
    <path class="cls-12" d="M379.45,239l1-.94a2.67,2.67,0,0,1,2,1.52l-1,.94A2.67,2.67,0,0,0,379.45,239Z"/>
    <polygon class="cls-12" points="376.32 237.58 377.37 236.64 386.45 236.64 385.41 237.58 376.32 237.58"/>
    <polygon class="cls-19" points="388.44 239.91 389.49 238.96 402.54 265 401.5 265.95 388.44 239.91"/>
    <path class="cls-15" d="M385.41,237.58a3.65,3.65,0,0,1,3,2.32l13.05,26c.73,1.45.62,2.64-.55,2.64h-9.08c-1.18,0-2.47-1.19-3.2-2.64l-13.05-26c-.73-1.46-.47-2.32.71-2.32Zm-2.51,5.86-1.47-2.92a2.67,2.67,0,0,0-2-1.52h-2.13c-.68,0-.89.68-.46,1.52l1.47,2.92a2.66,2.66,0,0,0,2,1.52h2.13c.67,0,.89-.68.46-1.52"/>
    <path class="cls-12" d="M385.41,237.58l1-.94a3.65,3.65,0,0,1,3,2.32l-1,.94A3.65,3.65,0,0,0,385.41,237.58Z"/>
  </g>
  <g>
    <path class="cls-1" d="M382.9,243.44l-1.47-2.92a2.67,2.67,0,0,0-2-1.52h-2.13c-.68,0-.89.68-.46,1.52l1.47,2.92a2.66,2.66,0,0,0,2,1.52h2.13C383.11,245,383.32,244.28,382.9,243.44Z"/>
    <path class="cls-35" d="M376.33,237.58c-1.18,0-1.44.87-.71,2.32l5.72,11.42,3.7-13.74Zm6.11,7.38H380.3a2.66,2.66,0,0,1-2-1.52l-1.47-2.92c-.42-.84-.21-1.52.46-1.52h2.13a2.67,2.67,0,0,1,2,1.52l1.47,2.92C383.32,244.28,383.11,245,382.44,245Z"/>
  </g>
  <path class="cls-36" d="M391.36,245.71l-4.94,15.75,2.25,4.48a6.07,6.07,0,0,0,1.35,1.79L394,251Z"/>
  <path class="cls-23" d="M420.69,250s-11.81,3-11.92,2.76c-.59-1.36-6.46-3.3-7-3.79-.89-.77-8.36-1.62-8.36-1.62l2.3,3.68-6.55,4-5.27,1.42a1.5,1.5,0,0,0-.78,2.4h0a1.5,1.5,0,0,0,1.43.54l4.92-.87,3.22-1.25-3.43,1.59h0a.81.81,0,0,0-.24,1.4c2.18,1.72,6.8,5.27,8.32,5.8,2,.7,13.9-2.9,13.9-2.9l13.1-.41Z"/>
  <g>
    <path class="cls-9" d="M385,250.5l.09,0a.25.25,0,0,1,.09.11l.29.58.29.58c0,.06,0,.12,0,.13h0a.28.28,0,0,1-.2-.16l-.56-1.12c0-.06,0-.1,0-.13Z"/>
    <path class="cls-9" d="M383.94,250a.26.26,0,0,1,.19.14l0,.07.51,1a.83.83,0,0,0,.32.34.48.48,0,0,0,.23.08.24.24,0,0,1,.19.12c.06.08.06.16,0,.17h-.12a.84.84,0,0,1-.32-.13,1.45,1.45,0,0,1-.48-.48c0-.07-.09-.15-.12-.23l-.21-.42-.27-.54c0-.1,0-.15,0-.16Z"/>
    <path class="cls-9" d="M383.12,250h.1a.74.74,0,0,1,.41.16,1.26,1.26,0,0,1,.35.38.71.71,0,0,1,.12.43l0,0a1.19,1.19,0,0,1,.3.41.55.55,0,0,1,0,.34.24.24,0,0,1-.22.19H384l-.08,0-.49-.37-.26-.2c-.1-.07-.14-.18-.11-.24a.06.06,0,0,1,.05,0,.23.23,0,0,1,.13.06l.64.49.07,0h.11c.09,0,.11-.14.07-.25a.61.61,0,0,0-.25-.3c-.11-.07-.16-.19-.12-.25a.27.27,0,0,0,0-.25.53.53,0,0,0-.39-.3h-.46v0l.11.22,0,.05.67.51c.1.08.14.19.1.24l0,0a.17.17,0,0,1-.1,0l-.78-.59a.28.28,0,0,1-.08-.1l-.26-.51c0-.08,0-.14,0-.14h.5Z"/>
    <path class="cls-9" d="M386.12,250a.28.28,0,0,1,.17.12l0,.07.6,1.2,0,.05v0l0-.14.22-.7a.07.07,0,0,1,.07-.06h0a.27.27,0,0,1,.13.1.17.17,0,0,1,0,.15l-.14.44v0h0l.3.24.32.25a.22.22,0,0,1,.09.19.06.06,0,0,1-.06,0l-.09,0,0,0-.54-.41h0l-.13.43a.07.07,0,0,1-.07.05.25.25,0,0,1-.16-.1l0-.07-.82-1.63c0-.09,0-.15,0-.16Z"/>
    <path class="cls-9" d="M389.62,250.49a.56.56,0,0,1,.26.08,1.08,1.08,0,0,1,.36.31l.09.15.38.76c0,.08,0,.14,0,.14l-.06,0a.31.31,0,0,1-.14-.15l-.35-.7a.49.49,0,0,0-.28-.26h-.06c-.09,0-.14.08-.11.2l0,.06.36.73c0,.1,0,.15,0,.16h0a.27.27,0,0,1-.19-.14l-.5-1-.07-.15c0-.07,0-.12,0-.14h0a.2.2,0,0,1,.13.06h0l.12-.06Z"/>
    <path class="cls-9" d="M390,250a.25.25,0,0,1,.19.15l.42.84.2.41,0,0h0a1,1,0,0,0,0-.11l.22-.71s0-.08.08-.08h0a.28.28,0,0,1,.18.14.16.16,0,0,1,0,.13l-.07.23-.06.19,0,0,.19.15.44.33c.09.07.13.2.07.23h0a.18.18,0,0,1-.1,0l-.49-.38-.11-.08v0l-.08.26-.06.17a.05.05,0,0,1-.05,0H391a.28.28,0,0,1-.14-.14l-.22-.43-.61-1.22c0-.09,0-.15,0-.16Z"/>
    <path class="cls-9" d="M388.93,250.49a.27.27,0,0,1,.19.15l.47.93.1.2c0,.08,0,.14,0,.15h0a.26.26,0,0,1-.17-.11l0,0-.29-.57-.28-.57C388.84,250.56,388.87,250.5,388.93,250.49Z"/>
    <path class="cls-9" d="M388.67,250h0a.25.25,0,0,1,.2.15c0,.08,0,.15,0,.15h0a.26.26,0,0,1-.19-.15C388.58,250,388.61,250,388.67,250Z"/>
    <path class="cls-9" d="M387.38,250a.26.26,0,0,1,.19.13l0,.06.71,1.42s0,0,.06,0h.48l0,0-.3-.23-.08-.05a.23.23,0,0,1-.11-.22.06.06,0,0,1,.06,0,.21.21,0,0,1,.12,0l.68.52.08.06c.1.08.13.21.07.24h-1a.28.28,0,0,1-.22-.17l-.82-1.64C387.3,250,387.31,250,387.38,250Z"/>
    <path class="cls-9" d="M385.7,250.49a.56.56,0,0,1,.26.08,1.1,1.1,0,0,1,.39.36l.07.12.37.73c0,.09,0,.14,0,.15h0a.26.26,0,0,1-.19-.14l-.36-.72a.58.58,0,0,0-.12-.16.36.36,0,0,0-.23-.12.11.11,0,0,0-.1.06.23.23,0,0,0,0,.2l.36.73c0,.08,0,.15,0,.15a.26.26,0,0,1-.2-.15l-.57-1.14c0-.06,0-.12,0-.14h0a.2.2,0,0,1,.12.05h0l.12-.06Z"/>
    <path class="cls-9" d="M384.75,250a.25.25,0,0,1,.2.15c0,.07,0,.15,0,.15a.26.26,0,0,1-.2-.15C384.67,250,384.68,250,384.75,250Z"/>
  </g>
  <g>
    <path class="cls-37" d="M394.73,148a11.16,11.16,0,0,0-2.67-.15,8.91,8.91,0,0,0-3.26.51,17.35,17.35,0,0,0-5.08,2.85l-1.24.06h0v2.28a.78.78,0,0,1,.75.42,18.33,18.33,0,0,0,1.43,3.49,4.6,4.6,0,0,0,3.82,2.25,4.43,4.43,0,0,0,3.44-2.06,17,17,0,0,0,1.84-3.88c.37-1.16,1.1-4.05,1.21-4.7S394.94,148.17,394.73,148Zm-3,8.8c-.7,1.19-2.5,2.84-4.52,2s-2.49-2.54-3-3.9a3.67,3.67,0,0,1,0-2.47c.38-1,1.88-2,3.23-2.71a7.33,7.33,0,0,1,4.67-.45c1,.37,1,1.55,1,2.86A13,13,0,0,1,391.68,156.79Z"/>
    <path class="cls-38" d="M392.07,149.23a7.33,7.33,0,0,0-4.67.45c-1.34.69-2.85,1.71-3.23,2.71a3.67,3.67,0,0,0,0,2.47c.48,1.37.94,3,3,3.9s3.86-.72,4.56-1.91a13.43,13.43,0,0,0,1.34-4.76C393.15,150.66,393.09,149.6,392.07,149.23Z"/>
    <path class="cls-37" d="M377.85,149.08c0,.65.32,3.54.47,4.7a34,34,0,0,0,.71,3.88c.27,1,.76,2.06,1.33,2.06s1.15-.87,1.47-2.25.49-3.14.55-3.49.22-.45.29-.42v-2.29h0l-.48-.06a9.86,9.86,0,0,0-2-2.85c-.86-.61-1-.51-1.26-.51s-.95,0-1,.15A2.18,2.18,0,0,0,377.85,149.08Zm.74,3c0-1.31,0-2.49.37-2.86a1.32,1.32,0,0,1,1.8.45,6.45,6.45,0,0,1,1.24,2.71,9.24,9.24,0,0,1,0,2.47c-.18,1.37-.36,3-1.14,3.9s-1.47-.78-1.74-2A30.17,30.17,0,0,1,378.59,152.09Z"/>
    <path class="cls-38" d="M379,149.23a1.32,1.32,0,0,1,1.8.45,6.45,6.45,0,0,1,1.24,2.71,8.21,8.21,0,0,1,0,2.37c-.18,1.37-.37,3.13-1.15,4s-1.47-.73-1.74-1.92a31.41,31.41,0,0,1-.58-4.77C378.49,150.64,378.57,149.6,379,149.23Z"/>
    <path class="cls-33" d="M378.08,148.25a1.67,1.67,0,0,1,1.23-.24c.83.1,2,1.79,2,1.79s-2-1.81-2.57-.3a11,11,0,0,0-.14,3.1c0,1.21.3,3.1.3,3.1-.15.39-.59-4.9-.63-5.33S378.19,149.5,378.08,148.25Z"/>
    <path class="cls-33" d="M394.39,148.25a10,10,0,0,0-3.2-.24,14.83,14.83,0,0,0-5.13,1.79s5.16-1.81,6.66-.3c.5.5.5,1.77.37,3.1a21.16,21.16,0,0,1-1,3.63c.66-.9,1.77-5.43,1.87-5.85S394.11,149.5,394.39,148.25Z"/>
    <path class="cls-39" d="M385.4,157.47a4.08,4.08,0,0,0,1.85,1.48c2,.76,3.73-.83,4.43-2a12.72,12.72,0,0,0,1.28-4,13.91,13.91,0,0,1-1.22,3.79,4.76,4.76,0,0,1-2.47,2.16C387.41,159.55,385.95,158.06,385.4,157.47Z"/>
    <path class="cls-40" d="M383.78,151.42v1a9.63,9.63,0,0,1,1.93-2.42C386.32,149.51,383.78,151.16,383.78,151.42Z"/>
    <path class="cls-40" d="M382.09,151.48v1a14,14,0,0,0-.74-2.42A5.55,5.55,0,0,1,382.09,151.48Z"/>
    <path class="cls-33" d="M382.85,153.67a.54.54,0,0,0-.37-.1.56.56,0,0,0-.39.12l.13-2.41h.47Z"/>
    <path class="cls-41" d="M392.07,149.23a7.33,7.33,0,0,0-4.67.45c-1.34.69-2.85,1.71-3.23,2.71a3.67,3.67,0,0,0,0,2.47c.48,1.37.94,3,3,3.9s3.86-.72,4.56-1.91a13.43,13.43,0,0,0,1.34-4.76C393.15,150.66,393.09,149.6,392.07,149.23Z"/>
    <path class="cls-42" d="M379,149.23a1.32,1.32,0,0,1,1.8.45,6.45,6.45,0,0,1,1.24,2.71,8.21,8.21,0,0,1,0,2.37c-.18,1.37-.37,3.13-1.15,4s-1.47-.73-1.74-1.92a31.41,31.41,0,0,1-.58-4.77C378.49,150.64,378.57,149.6,379,149.23Z"/>
  </g>
  <polygon class="cls-37" points="394 150 405.29 150.32 404.27 151.71 394 152 394 150"/>
</svg>
