<svg id="Layer_1" data-name="Layer 1" xmlns="http://www.w3.org/2000/svg" xmlns:xlink="http://www.w3.org/1999/xlink" viewBox="0 0 753 738">
  <defs>
    <style>
      .cls-1, .cls-6 {
        fill: #3a273b;
      }

      .cls-1 {
        opacity: 0.25;
      }

      .cls-2 {
        isolation: isolate;
      }

      .cls-3 {
        fill: #a6c8e2;
      }

      .cls-4 {
        fill: #e6f4ff;
      }

      .cls-5 {
        fill: #fff;
      }

      .cls-7 {
        fill: #25aef2;
      }

      .cls-8 {
        fill: #64d3ff;
      }

      .cls-9 {
        fill: #128fdb;
      }

      .cls-10, .cls-11 {
        fill: #0070c0;
      }

      .cls-11 {
        opacity: 0.4;
      }

      .cls-12 {
        fill: #2b4f6f;
      }

      .cls-13 {
        fill: url(#linear-gradient);
      }

      .cls-14 {
        fill: #d4f3ff;
      }

      .cls-15 {
        fill: url(#linear-gradient-2);
      }

      .cls-16 {
        fill: #aee4ff;
      }

      .cls-17 {
        fill: url(#linear-gradient-3);
      }

      .cls-18 {
        fill: url(#linear-gradient-4);
      }

      .cls-19 {
        fill: #ffdb56;
      }

      .cls-20 {
        fill: url(#linear-gradient-5);
      }

      .cls-21 {
        fill: #2b6793;
      }

      .cls-22 {
        fill: #22435b;
      }

      .cls-23 {
        fill: #387ca5;
      }

      .cls-24 {
        fill: #a6eaff;
      }

      .cls-25 {
        fill: #c46a58;
      }

      .cls-26 {
        fill: #fcb9a9;
      }

      .cls-27 {
        fill: #e5f1fe;
      }

      .cls-28 {
        fill: #f0f8ff;
      }
    </style>
    <linearGradient id="linear-gradient" x1="-108.88" y1="332.06" x2="1198.35" y2="332.06" gradientUnits="userSpaceOnUse">
      <stop offset="0" stop-color="#96ea8b"/>
      <stop offset="1" stop-color="#1cb1c8"/>
    </linearGradient>
    <linearGradient id="linear-gradient-2" x1="-108.88" y1="351.48" x2="1198.35" y2="351.48" xlink:href="#linear-gradient"/>
    <linearGradient id="linear-gradient-3" x1="-108.88" y1="370.91" x2="1198.35" y2="370.91" xlink:href="#linear-gradient"/>
    <linearGradient id="linear-gradient-4" x1="-108.88" y1="390.33" x2="1198.35" y2="390.33" xlink:href="#linear-gradient"/>
    <linearGradient id="linear-gradient-5" x1="345.03" y1="521.84" x2="1029.24" y2="460.65" xlink:href="#linear-gradient"/>
  </defs>
  <title>Kaykushal 5</title>
  <g>
    <g>
      <path class="cls-1" d="M468.11,581.06l-106.18-61.3c-10.12-5.85-26.5-5.85-36.56,0l-25.31,14.71c-10.07,5.85-10,15.33.12,21.18l106.17,61.3.34.19-20.53,19.11,24.22-.39,32.52-18.9,5.43-3.16,19.88-11.55C478.29,596.4,478.24,586.91,468.11,581.06Z"/>
      <path class="cls-1" d="M277.67,359.26l-40.61,53.47h42.75l41.87,54h44.05L408,520.66h49.24l36.82,53.07h49.35l55.12-32a4.87,4.87,0,0,0,0-8.43Z"/>
      <g>
        <g class="cls-2">
          <polygon class="cls-3" points="299.61 295.44 299.44 376.48 237.06 412.73 237.22 331.69 299.61 295.44"/>
          <polygon class="cls-4" points="237.22 331.69 237.06 412.73 174.27 376.48 174.43 295.44 237.22 331.69"/>
          <polygon class="cls-5" points="299.61 295.44 237.22 331.69 174.43 295.44 236.81 259.19 299.61 295.44"/>
        </g>
        <g class="cls-2">
          <polygon class="cls-3" points="384.56 233.99 384.07 430.49 321.69 466.74 322.18 270.24 384.56 233.99"/>
          <polygon class="cls-4" points="322.18 270.24 321.69 466.74 258.9 430.49 259.38 233.99 322.18 270.24"/>
          <polygon class="cls-5" points="384.56 233.99 322.18 270.24 259.38 233.99 321.77 197.73 384.56 233.99"/>
        </g>
        <g class="cls-2">
          <polygon class="cls-3" points="470.76 345.34 470.43 484.4 408.05 520.66 408.37 381.6 470.76 345.34"/>
          <polygon class="cls-4" points="408.37 381.6 408.05 520.66 345.26 484.4 345.58 345.35 408.37 381.6"/>
          <polygon class="cls-5" points="470.76 345.34 408.37 381.6 345.58 345.35 407.97 309.09 470.76 345.34"/>
        </g>
        <g class="cls-2">
          <polygon class="cls-3" points="557.3 226.08 556.49 537.48 494.1 573.73 494.92 262.33 557.3 226.08"/>
          <polygon class="cls-4" points="494.92 262.33 494.1 573.73 431.31 537.48 432.12 226.08 494.92 262.33"/>
          <polygon class="cls-5" points="557.3 226.08 494.92 262.33 432.12 226.08 494.51 189.83 557.3 226.08"/>
        </g>
        <g>
          <g class="cls-2">
            <path class="cls-6" d="M422.64,82.9c-.13,45.59,31.92,101.11,71.6,124l-18.56,10.78C436,194.8,404,139.28,404.08,93.69c.06-22.65,8.06-38.59,21-46.08L443.6,36.82C430.7,44.31,422.7,60.25,422.64,82.9Z"/>
            <path class="cls-5" d="M452.07,138.31c9.83,20,25.08,38.08,42.23,48l-18.56,10.78c-17.15-9.9-32.41-27.93-42.23-48Z"/>
            <path class="cls-5" d="M494.3,186.29q2.79,1.61,5.5,2.86l-18.56,10.78q-2.71-1.25-5.5-2.86Z"/>
            <path class="cls-5" d="M499.8,189.15q2.45,1.13,4.83,2L486.07,201.9q-2.38-.84-4.83-2Z"/>
            <path class="cls-6" d="M483.17,157.15a59.28,59.28,0,0,0,11.19,8.51L475.8,176.44a59.28,59.28,0,0,1-11.19-8.51Z"/>
            <path class="cls-6" d="M506.46,170.24,487.91,181a36.4,36.4,0,0,1-12.11-4.59l18.56-10.78A36.39,36.39,0,0,0,506.46,170.24Z"/>
            <path class="cls-5" d="M452.07,138.31,433.51,149.1c-7.22-14.73-11.51-30.56-11.47-45,0-17,6-28.94,15.73-34.56l18.56-10.78c-9.68,5.62-15.68,17.57-15.73,34.56C440.55,107.75,444.84,123.58,452.07,138.31Z"/>
            <path class="cls-6" d="M483.17,157.15l-18.56,10.78c-14.34-13.69-24.67-35.2-24.62-53.51,0-11.33,4-19.29,10.49-23L469,80.6c-6.45,3.74-10.45,11.71-10.49,23C458.5,121.95,468.83,143.45,483.17,157.15Z"/>
            <path class="cls-5" d="M476.51,114c0,11.4,8,25.28,17.9,31L475.86,155.8c-9.92-5.73-17.93-19.61-17.9-31h0L476.51,114Z"/>
            <path class="cls-5" d="M494.42,145c3.72,2.15,7.18,2.84,10,2.27l-18.56,10.78c-2.87.57-6.33-.13-10-2.27Z"/>
            <path class="cls-5" d="M481.43,102.69c-3,1.94-4.9,5.84-4.92,11.31L458,124.78c0-5.47,1.89-9.37,4.92-11.31Z"/>
            <path class="cls-6" d="M494.24,206.92c20,11.52,38,12.6,51.1,5l-18.56,10.78c-13.06,7.58-31.15,6.51-51.1-5Z"/>
            <path class="cls-5" d="M504.63,191.12c10.83,3.83,20.51,3.28,28-1.07l-18.56,10.78c-7.48,4.35-17.17,4.9-28,1.07Z"/>
            <path class="cls-6" d="M506.46,170.24a19.83,19.83,0,0,0,13.44-2.08l-18.56,10.78A19.83,19.83,0,0,1,487.91,181l13.22-7.68,2.67-1.55,1-.61,1-.58A2.38,2.38,0,0,1,506.46,170.24Z"/>
            <path class="cls-5" d="M481.43,102.69c-.49.3-1,.57-1.48.86l-1.47.86-15.6,9.07.32-.19,18.56-10.78Z"/>
            <path class="cls-5" d="M504.46,147.29a8.82,8.82,0,0,0,2.73-1l-18.56,10.78a8.82,8.82,0,0,1-2.73,1l9.28-5.39,2.43-1.41,2.39-1.39,3.4-2A8.33,8.33,0,0,1,504.46,147.29Z"/>
            <path class="cls-6" d="M463.19,113.28l18.56-10.78c3.27-1.9,7.79-1.63,12.78,1.25L476,114.53C471,111.65,466.46,111.38,463.19,113.28Z"/>
            <path class="cls-6" d="M507.2,146.27,488.64,157c3.22-1.87,5.22-5.86,5.24-11.52,0-11.4-8-25.27-17.9-31l18.56-10.78c9.92,5.73,17.93,19.6,17.9,31C512.42,140.41,510.42,144.39,507.2,146.27Z"/>
            <path class="cls-5" d="M476,93.89c19.84,11.45,35.86,39.21,35.8,62s-16.2,32-36,20.54-35.87-39.22-35.8-62S456.2,82.44,476,93.89Zm-.18,61.91c9.92,5.73,18,1.13,18-10.27s-8-25.27-17.9-31-18-1.14-18,10.26,8,25.28,17.9,31"/>
            <path class="cls-5" d="M450.47,91.39,469,80.6c6.53-3.8,15.58-3.26,25.56,2.5L476,93.89C466.05,88.13,457,87.59,450.47,91.39Z"/>
            <path class="cls-5" d="M519.91,168.16l-18.56,10.78c6.45-3.75,10.45-11.72,10.48-23,.06-22.79-16-50.55-35.8-62l18.56-10.78c19.84,11.45,35.86,39.21,35.8,62C530.36,156.44,526.36,164.41,519.91,168.16Z"/>
            <path class="cls-6" d="M532.63,190l-18.56,10.78c9.67-5.62,15.67-17.57,15.72-34.56.1-34.19-23.95-75.83-53.7-93l18.56-10.78c29.75,17.18,53.8,58.82,53.7,93C548.3,172.47,542.3,184.42,532.63,190Z"/>
            <path class="cls-6" d="M437.75,69.5l18.56-10.78c9.8-5.69,23.37-4.89,38.34,3.76L476.09,73.25C461.12,64.61,447.55,63.8,437.75,69.5Z"/>
            <path class="cls-5" d="M476.15,52.61c39.67,22.9,71.73,78.44,71.6,124s-32.4,64-72.07,41.07-71.73-78.43-71.6-124S436.47,29.71,476.15,52.61Zm-.41,144.46c29.75,17.18,54,3.39,54.05-30.81s-23.95-75.83-53.7-93-54-3.39-54.06,30.8,23.95,75.84,53.71,93"/>
            <path class="cls-7" d="M476.09,73.25c29.75,17.18,53.8,58.82,53.7,93s-24.3,48-54.05,30.81-53.8-58.83-53.71-93S446.33,56.07,476.09,73.25Zm-.29,103.18c19.84,11.45,36,2.26,36-20.54s-16-50.55-35.8-62-36-2.26-36,20.53,16,50.56,35.8,62"/>
            <path class="cls-7" d="M476,114.53c9.92,5.73,17.93,19.6,17.9,31s-8.1,16-18,10.27-17.93-19.61-17.9-31S466.06,108.8,476,114.53Z"/>
            <path class="cls-5" d="M425,47.61l18.56-10.78c13.06-7.59,31.15-6.52,51.11,5L476.15,52.61C456.19,41.09,438.1,40,425,47.61Z"/>
            <path class="cls-8" d="M412.32,25.72l18.56-10.78c16.33-9.49,38.94-8.15,63.89,6.26L476.21,32C451.25,17.57,428.64,16.23,412.32,25.72Z"/>
            <path class="cls-5" d="M545.36,211.93,526.8,222.71c12.89-7.49,20.89-23.43,21-46.08.13-45.59-31.93-101.12-71.6-124l18.56-10.78c39.67,22.9,71.73,78.44,71.6,124C566.25,188.5,558.25,204.43,545.36,211.93Z"/>
            <path class="cls-9" d="M476.21,32c49.59,28.63,89.67,98,89.5,155s-40.5,80-90.09,51.34-89.67-98-89.5-155S426.62,3.34,476.21,32Zm-.53,185.73c39.67,22.9,71.94,4.52,72.07-41.07s-31.93-101.12-71.6-124-71.94-4.51-72.07,41.07,31.92,101.11,71.6,124"/>
          </g>
          <g>
            <path class="cls-7" d="M494.77,21.19,476.21,32c37.77,21.81,70,67.27,83.17,112.89l18.09-12.36C564,87.42,532.1,42.75,494.77,21.19Z"/>
            <path class="cls-10" d="M559.38,144.86A151.76,151.76,0,0,1,565.72,187c-.08,28.31-10.08,48.23-26.19,57.6l18.56-10.78c16.12-9.37,26.11-29.29,26.19-57.6a152.88,152.88,0,0,0-6.79-43.72Z"/>
          </g>
          <path class="cls-8" d="M565.72,187c.16-57-39.92-126.4-89.5-155-30.5-17.61-57.49-15.69-73.79,1.65,16.46-15.43,42.5-16.52,71.77.38,49.59,28.63,89.67,98,89.5,155-.06,21.94-6.09,38.84-16.29,49.69C558.83,228,565.65,210.36,565.72,187Z"/>
        </g>
        <g>
          <path class="cls-7" d="M400.44,177.92h0m-6.27-6.46-25.83,14.91,6.27,6.45h0l25.82-14.9-6.27-6.45"/>
          <polyline class="cls-7" points="400.45 177.91 400.44 177.91 374.62 192.82 374.62 192.83 368.4 206.49 394.23 191.58 400.44 177.93 400.44 177.92 400.45 177.91"/>
        </g>
        <g>
          <line class="cls-11" x1="476.08" y1="134.76" x2="372.22" y2="194.56"/>
          <path class="cls-12" d="M475.4,133.6l-91.11,52.46-12.75,7.34a1.34,1.34,0,0,0,1.36,2.32L464,143.26l12.75-7.34a1.34,1.34,0,0,0-1.36-2.32Z"/>
        </g>
        <polygon class="cls-11" points="476.75 135.92 441.65 211.1 437.81 206.92 473.2 136.19 476.75 135.92"/>
      </g>
      <g>
        <path class="cls-9" d="M573.08,249.8c-3.5-2-6.35-.4-6.36,3.62a14.1,14.1,0,0,0,5.3,10.25c0,6.07-.84,281.56-.7,284.93,0,.14,0,.28,0,.41a2.09,2.09,0,0,0,1,1.71c.51.29,1,.21,1-.54,0-8.46.71-284.29.73-285.33,3,1.16,5.3-.51,5.31-4.12a13.92,13.92,0,0,0-6.31-10.94"/>
        <path class="cls-9" d="M664.46,330.64a2.59,2.59,0,0,1-1.08-1.6,1.56,1.56,0,0,1,0-.31v-5c0-1.66,0-3.31,0-5,0-.76.55-1,1.15-.65h0a2.51,2.51,0,0,1,1.1,2q0,4.09,0,8.19c0,.59,0,1.17,0,1.76s-.43,1-1.06.71l-.1-.05m3.28,1.89a2.51,2.51,0,0,1-1.09-1.88q0-4.37,0-8.76c0-.43,0-.85,0-1.29,0-.62.33-.86.81-.76a1.14,1.14,0,0,1,.34.13,2.33,2.33,0,0,1,.89,1.08l0,.05c.5.11,1,.18,1.43.33a4.38,4.38,0,0,1,.84.38,7.49,7.49,0,0,1,2.07,1.89,9.63,9.63,0,0,1,1.89,3.82,6.54,6.54,0,0,1,.18,1.39c0,2.22,0,4.43,0,6.65,0,.7-.56.91-1.14.58a1.82,1.82,0,0,1-.48-.42,2.52,2.52,0,0,1-.64-1.67q0-3.09,0-6.18a4.21,4.21,0,0,0-1.46-3.11,3.27,3.27,0,0,0-.53-.38c-.88-.51-1.69-.31-1.91.62a2.24,2.24,0,0,0-.05.49c0,2.12,0,4.25,0,6.37,0,.82-.5,1-1.13.69l0,0m-40.26-23.25a2.59,2.59,0,0,1-1.14-2.07c0-3.26,0-6.54,0-9.8,0-.53.2-.81.6-.84a1,1,0,0,1,.54.14,2.36,2.36,0,0,1,.72.73,2.12,2.12,0,0,1,.4,1.18c0,1.68,0,3.37,0,5.05v5.06a.65.65,0,0,1-.87.68,1.44,1.44,0,0,1-.25-.12m4.29-9.53c.5.11.94.18,1.4.32a4.17,4.17,0,0,1,.84.37,7.61,7.61,0,0,1,2.05,1.86,9.47,9.47,0,0,1,2,4.27,6.36,6.36,0,0,1,.12,1.14q0,3.22,0,6.4c0,.8-.47,1-1.09.7l-.08,0a2.51,2.51,0,0,1-1.09-1.86q0-3.13,0-6.26a4.33,4.33,0,0,0-2-3.61,1.51,1.51,0,0,0-1.26-.22,1.26,1.26,0,0,0-.74,1.33c0,2.12,0,4.24,0,6.37a.7.7,0,0,1-1.13.66h0a2.45,2.45,0,0,1-1.12-1.94q0-5,0-10c0-.5.32-.82.75-.75a1.06,1.06,0,0,1,.36.13,2.46,2.46,0,0,1,.87,1l.12.2m45.56,38.33a2.14,2.14,0,0,1-.5-.42,2.36,2.36,0,0,1-.67-1.58c0-1.26,0-2.51,0-3.76l0-10.69c0-.76.43-1.08,1.11-.72l.05,0a2.35,2.35,0,0,1,1.1,1.94c0,2.46,0,4.91,0,7.36,0,1.19,0,2.38,0,3.58,0,.1,0,.21,0,.37a.64.64,0,0,0,.17,0c.3-.15.61-.29.9-.46L685,330.6a1,1,0,0,1,1.1-.05l.09.06a2.59,2.59,0,0,1,1,1.81.89.89,0,0,1-.41.88c-.6.33-1.19.68-1.79,1s-1,.53-1.47.79a1.06,1.06,0,0,1-.26,0l1.1,1.89c.85,1.47,1.7,2.93,2.54,4.4.5.87.26,1.9-.41,1.8a1.35,1.35,0,0,1-.49-.17,2.17,2.17,0,0,1-.76-.82l-2.87-5c-.21-.37-.43-.73-.67-1.12a3,3,0,0,0-.32.14l-2,1.12c-.45.25-.9.5-1.36.72a.71.71,0,0,1-.69-.07M627.57,294.8h0a2.44,2.44,0,0,1-1.15-2c0-.72.48-1,1.12-.67h0a2.41,2.41,0,0,1,1.12,2c.06.66-.46,1-1.09.66m36.94,21.32a2.43,2.43,0,0,1-1.11-2,.68.68,0,0,1,1.08-.68l0,0a2.43,2.43,0,0,1,1.15,2c0,.72-.49,1-1.13.65h0m-24.2.57a2.55,2.55,0,0,1-1-1.49,2.36,2.36,0,0,1-.09-.66q0-7.13,0-14.25c0-.81.48-1,1.13-.74l.07,0a2.76,2.76,0,0,1,1.05,1.63,4.89,4.89,0,0,1,0,.65l0,10.55v.43a1.82,1.82,0,0,0,.23-.07l1.09-.61,5.35-3a.83.83,0,0,1,.88,0,1.82,1.82,0,0,1,.32.25,2.55,2.55,0,0,1,.79,1.32c.13.56,0,.94-.28,1.12-1.11.64-2.23,1.27-3.34,1.9a.78.78,0,0,1-.24.06l.11.08c.57,1,1.13,2.06,1.71,3.08s1.25,2.13,1.83,3.22c.37.69.28,1.43-.12,1.64a.81.81,0,0,1-.78-.09,2.22,2.22,0,0,1-.7-.68c-.1-.15-.2-.3-.29-.45-1.06-1.83-2.12-3.65-3.17-5.48a.71.71,0,0,0-.21-.27.2.2,0,0,0-.22,0c-1.09.63-2.18,1.25-3.27,1.87a.86.86,0,0,1-.88-.06m12.14,7a2.67,2.67,0,0,1-1.29-2.24c0-4.77,0-9.55,0-14.33,0-.73.52-1,1.15-.66h0a2.61,2.61,0,0,1,1.09,1.82c0,.17,0,.33,0,.5l0,12.44c0,.38,0,.38.32.56l4.33,2.5.26.15,0-.06-.17-.32-1.73-3c-.15-.25-.31-.49-.46-.74-.47-.79-.53-1.67,0-1.95a.77.77,0,0,1,.73.09,2.53,2.53,0,0,1,.86.93l4,6.86c.16.27.32.54.47.81.59,1.08.26,2-.53,1.81a1.8,1.8,0,0,1-.47-.21l-3.23-1.86-5.38-3.1h0M624,307.24a6.31,6.31,0,0,1-.59-.39,11.2,11.2,0,0,1-2.39-2.49,11.91,11.91,0,0,1-2.26-5.51,18.71,18.71,0,0,1-.09-2c0-1.23,0-2.44,0-3.65,0-1.57,0-3.15,0-4.72,0-.86.5-1,1.09-.78l.08,0a2.53,2.53,0,0,1,1.1,1.85c0,.22,0,.46,0,.67,0,3,0,6,0,9a6.58,6.58,0,0,0,1.39,3.8,6.06,6.06,0,0,0,1.79,1.7,2.51,2.51,0,0,1,1.2,1.73c.14.78-.21,1.29-.82,1.07a3.53,3.53,0,0,1-.54-.26m-12.16-12.1a2.11,2.11,0,0,1-.73-.73l-4.53-7.79a2.06,2.06,0,0,1-.32-1c0-1.49,0-3,0-4.48,0-.68.55-.95,1.14-.6l3,1.71,1.62.93,1.08.63a9.16,9.16,0,0,1,3.12,3.2,9.72,9.72,0,0,1,1.47,4.13,3.9,3.9,0,0,1-.84,3.25c-.09.09-.07.17,0,.35a8.07,8.07,0,0,1,.84,4.12,2.9,2.9,0,0,1-1.21,2.32,2.86,2.86,0,0,1-3,0c-.28-.14-.56-.29-.85-.46s-.7-.42-1-.65a2.38,2.38,0,0,1-.58-.7c-1-1.62-1.88-3.25-2.82-4.87-.51-.88-1-1.75-1.54-2.63s-.52-1.87.14-2a.85.85,0,0,1,.6.13,2.71,2.71,0,0,1,.93,1l3.74,6.48a1.38,1.38,0,0,0,.49.55l.07,0c.32.15.65.37,1,.5a1.29,1.29,0,0,0,1.82-1.11,4.5,4.5,0,0,0-.94-3.17c-.68-1-.66-2,0-2.19s1-.71,1-1.65a5.11,5.11,0,0,0-2.29-3.94l-1.74-1-2.61-1.51c-.21-.12-.27-.09-.27.16,0,.65,0,1.29,0,1.92a1,1,0,0,0,.16.52l3.91,6.72c.58,1,.49,1.93-.21,2a.87.87,0,0,1-.53-.15m81.58,24.12-96-55.4c-3.25-1.88-5.9-.37-5.91,3.37l-.07,25.38a12.94,12.94,0,0,0,5.87,10.17l96,55.4c3.25,1.88,5.9.37,5.91-3.37l.07-25.38a13,13,0,0,0-5.87-10.17"/>
        <path class="cls-5" d="M611.94,283.13l-1.62-.93-3-1.71c-.59-.34-1.13-.07-1.14.6,0,1.49,0,3,0,4.48a2.06,2.06,0,0,0,.32,1l4.53,7.79a2.11,2.11,0,0,0,.73.73.87.87,0,0,0,.53.15c.69-.09.79-1,.21-2l-3.91-6.72a1,1,0,0,1-.16-.52c0-.64,0-1.27,0-1.92,0-.24.06-.28.27-.16l2.61,1.51,1.74,1a5.11,5.11,0,0,1,2.29,3.94c0,.93-.34,1.46-1,1.65s-.7,1.21,0,2.19a4.5,4.5,0,0,1,.94,3.17,1.29,1.29,0,0,1-1.82,1.11c-.32-.13-.65-.34-1-.5l-.07,0a1.38,1.38,0,0,1-.49-.55l-3.74-6.48a2.71,2.71,0,0,0-.93-1,.85.85,0,0,0-.6-.13c-.66.16-.71,1-.14,2s1,1.75,1.54,2.63c.94,1.62,1.87,3.25,2.82,4.87a2.38,2.38,0,0,0,.58.7c.35.23.7.44,1,.65s.57.32.85.46a2.86,2.86,0,0,0,3,0,2.9,2.9,0,0,0,1.21-2.32,8.07,8.07,0,0,0-.84-4.12c-.08-.18-.1-.26,0-.35a3.9,3.9,0,0,0,.84-3.25,9.72,9.72,0,0,0-1.47-4.13,9.16,9.16,0,0,0-3.12-3.2l-1.08-.63"/>
        <path class="cls-5" d="M640.41,299.58l-.07,0c-.65-.3-1.13-.07-1.13.74q0,7.12,0,14.25a2.36,2.36,0,0,0,.09.66,2.55,2.55,0,0,0,1,1.49.86.86,0,0,0,.88.06c1.09-.62,2.19-1.24,3.27-1.87a.2.2,0,0,1,.22,0,.71.71,0,0,1,.21.27c1,1.83,2.11,3.66,3.17,5.48.09.15.19.3.29.45a2.22,2.22,0,0,0,.7.68.81.81,0,0,0,.78.09c.4-.21.49-.94.12-1.64-.58-1.09-1.22-2.14-1.83-3.22s-1.14-2.06-1.71-3.08l-.11-.08a.78.78,0,0,0,.24-.06c1.12-.63,2.23-1.26,3.34-1.9.31-.18.41-.56.28-1.12a2.55,2.55,0,0,0-.79-1.32,1.82,1.82,0,0,0-.32-.25.83.83,0,0,0-.88,0l-5.35,3-1.09.61a1.82,1.82,0,0,1-.23.07v-.43l0-10.55a4.89,4.89,0,0,0,0-.65,2.76,2.76,0,0,0-1.05-1.63"/>
        <path class="cls-5" d="M677.38,320.94l-.05,0c-.68-.36-1.11,0-1.11.72l0,10.69c0,1.26,0,2.5,0,3.76a2.36,2.36,0,0,0,.67,1.58,2.14,2.14,0,0,0,.5.42.71.71,0,0,0,.69.07c.46-.22.91-.47,1.36-.72l2-1.12a3,3,0,0,1,.32-.14c.24.4.46.76.67,1.12l2.87,5a2.17,2.17,0,0,0,.76.82,1.35,1.35,0,0,0,.49.17c.67.1.91-.93.41-1.8-.84-1.47-1.7-2.94-2.54-4.4l-1.1-1.89a1.06,1.06,0,0,0,.26,0c.49-.26,1-.52,1.47-.79s1.18-.68,1.79-1a.89.89,0,0,0,.41-.88,2.59,2.59,0,0,0-1-1.81l-.09-.06a1,1,0,0,0-1.1.05l-5.43,3.08c-.29.16-.6.31-.9.46a.64.64,0,0,1-.17,0c0-.15,0-.26,0-.37,0-1.19,0-2.38,0-3.58,0-2.45,0-4.9,0-7.36a2.35,2.35,0,0,0-1.1-1.94"/>
        <path class="cls-5" d="M652.36,306.47c-.63-.37-1.15-.07-1.15.66,0,4.78,0,9.57,0,14.33a2.67,2.67,0,0,0,1.29,2.24h0l5.38,3.1,3.23,1.86a1.8,1.8,0,0,0,.47.21c.79.18,1.11-.74.53-1.81-.15-.27-.31-.54-.47-.81l-4-6.86a2.53,2.53,0,0,0-.86-.93.77.77,0,0,0-.73-.09c-.55.28-.49,1.16,0,1.95.15.25.31.49.46.74l1.73,3,.17.32,0,.06-.26-.15-4.33-2.5c-.32-.18-.32-.18-.32-.56l0-12.44c0-.16,0-.33,0-.5a2.61,2.61,0,0,0-1.09-1.82h0"/>
        <path class="cls-5" d="M634,300.45a4.17,4.17,0,0,0-.84-.37c-.46-.14-.9-.21-1.4-.32l-.12-.2a2.46,2.46,0,0,0-.87-1,1.06,1.06,0,0,0-.36-.13c-.43-.06-.75.25-.75.75q0,5,0,10a2.45,2.45,0,0,0,1.12,1.94h0a.7.7,0,0,0,1.13-.66c0-2.14,0-4.26,0-6.37a1.26,1.26,0,0,1,.74-1.33,1.51,1.51,0,0,1,1.26.22,4.33,4.33,0,0,1,2,3.61q0,3.14,0,6.26a2.51,2.51,0,0,0,1.09,1.86l.08,0c.62.3,1.08.1,1.09-.7q0-3.19,0-6.4a6.36,6.36,0,0,0-.12-1.14,9.47,9.47,0,0,0-2-4.27,7.61,7.61,0,0,0-2.05-1.86"/>
        <path class="cls-5" d="M667.84,320a1.14,1.14,0,0,0-.34-.13c-.48-.1-.83.13-.81.76,0,.44,0,.86,0,1.29q0,4.38,0,8.76a2.51,2.51,0,0,0,1.09,1.88l0,0c.63.33,1.12.13,1.13-.69,0-2.12,0-4.25,0-6.37A2.24,2.24,0,0,1,669,325c.22-.93,1-1.13,1.91-.62a3.27,3.27,0,0,1,.53.38,4.21,4.21,0,0,1,1.46,3.11q0,3.09,0,6.18a2.52,2.52,0,0,0,.64,1.67,1.82,1.82,0,0,0,.48.42c.57.33,1.13.12,1.14-.58,0-2.22,0-4.43,0-6.65a6.54,6.54,0,0,0-.18-1.39,9.63,9.63,0,0,0-1.89-3.82,7.49,7.49,0,0,0-2.07-1.89,4.38,4.38,0,0,0-.84-.38c-.47-.15-.93-.22-1.43-.33l0-.05a2.33,2.33,0,0,0-.89-1.08"/>
        <path class="cls-5" d="M619.81,287.68l-.08,0c-.58-.26-1.08-.08-1.09.78,0,1.57,0,3.15,0,4.72,0,1.22,0,2.43,0,3.65a18.71,18.71,0,0,0,.09,2,11.91,11.91,0,0,0,2.26,5.51,11.2,11.2,0,0,0,2.39,2.49,6.31,6.31,0,0,0,.59.39,3.53,3.53,0,0,0,.54.26c.61.22,1-.29.82-1.07a2.51,2.51,0,0,0-1.2-1.73,6.06,6.06,0,0,1-1.79-1.7,6.58,6.58,0,0,1-1.39-3.8c0-3,0-6,0-9,0-.22,0-.45,0-.67a2.53,2.53,0,0,0-1.1-1.85"/>
        <path class="cls-5" d="M627.53,296.7a1,1,0,0,0-.54-.14c-.4,0-.6.31-.6.84,0,3.27,0,6.54,0,9.8a2.59,2.59,0,0,0,1.14,2.07,1.44,1.44,0,0,0,.25.12.65.65,0,0,0,.87-.68v-5.06c0-1.69,0-3.37,0-5.05a2.12,2.12,0,0,0-.4-1.18,2.36,2.36,0,0,0-.72-.73"/>
        <path class="cls-5" d="M664.54,318.08h0c-.59-.34-1.15-.1-1.15.65,0,1.67,0,3.32,0,5v5a1.56,1.56,0,0,0,0,.31,2.59,2.59,0,0,0,1.08,1.6l.1.05c.63.29,1.05,0,1.06-.71s0-1.17,0-1.76q0-4.09,0-8.19a2.51,2.51,0,0,0-1.1-2"/>
        <path class="cls-5" d="M627.53,292.15h0c-.64-.36-1.14-.05-1.12.67a2.44,2.44,0,0,0,1.15,2h0c.63.36,1.14,0,1.09-.66a2.41,2.41,0,0,0-1.12-2"/>
        <path class="cls-5" d="M664.48,313.48a.68.68,0,0,0-1.08.68,2.43,2.43,0,0,0,1.11,2h0c.64.36,1.14.06,1.13-.65a2.43,2.43,0,0,0-1.15-2l0,0"/>
        <path class="cls-13" d="M598.67,327.43l-4.39-2.54c-1.62-.93-2.93-.18-2.94,1.68v5a6.44,6.44,0,0,0,2.92,5.06l4.39,2.54c1.62.93,2.93.18,2.94-1.68v-5a6.44,6.44,0,0,0-2.92-5.06"/>
        <path class="cls-14" d="M676.43,372.33l-58.32-33.67c-2.83-1.64-5.13-.32-5.14,2.93a11.26,11.26,0,0,0,5.11,8.85l58.32,33.67c2.83,1.64,5.13.32,5.14-2.93a11.26,11.26,0,0,0-5.11-8.85"/>
        <path class="cls-15" d="M598.62,346.86l-4.39-2.54c-1.62-.93-2.93-.18-2.94,1.68V351a6.44,6.44,0,0,0,2.92,5.06l4.39,2.54c1.62.93,2.93.18,2.94-1.68v-5.05a6.44,6.44,0,0,0-2.92-5.06"/>
        <path class="cls-16" d="M665.61,385.54l-47.55-27.46c-2.83-1.64-5.13-.32-5.14,2.93a11.27,11.27,0,0,0,5.11,8.86l47.55,27.46c2.83,1.64,5.14.32,5.15-2.93a11.27,11.27,0,0,0-5.11-8.85"/>
        <path class="cls-17" d="M598.56,366.28l-4.39-2.54c-1.62-.93-2.93-.18-2.94,1.68v5a6.44,6.44,0,0,0,2.92,5.06l4.39,2.54c1.62.93,2.93.18,2.94-1.68v-5a6.44,6.44,0,0,0-2.92-5.06"/>
        <path class="cls-14" d="M676.32,411.18,618,377.51c-2.83-1.64-5.13-.32-5.14,2.93a11.26,11.26,0,0,0,5.11,8.85L676.29,423c2.83,1.64,5.13.32,5.14-2.93a11.26,11.26,0,0,0-5.11-8.85"/>
        <path class="cls-18" d="M598.51,385.71l-4.39-2.54c-1.62-.93-2.93-.18-2.94,1.68v5.05a6.44,6.44,0,0,0,2.92,5.06l4.39,2.54c1.62.93,2.93.18,2.94-1.68v-5.05a6.44,6.44,0,0,0-2.92-5.06"/>
        <path class="cls-16" d="M653.45,417.43l-35.5-20.5c-2.83-1.64-5.13-.32-5.14,2.94a11.27,11.27,0,0,0,5.11,8.85l35.5,20.5c2.83,1.63,5.14.32,5.14-2.93a11.27,11.27,0,0,0-5.11-8.86"/>
        <path class="cls-19" d="M627.11,440.07c-7.88-4.55-15.13-5.64-20.9-3.79l8.76,18c3.34-1.07,7.53-.45,12.09,2.18,5.7,3.29,10.82,9,14.39,15.57L652,467c-6.17-11.28-15-21.22-24.87-26.91"/>
        <path class="cls-20" d="M652,467,641.45,472c3.22,5.88,5.17,12.38,5.16,18.28,0,8.77-4.4,13.84-10.77,13.89l6.43,18.37c11-.1,18.57-8.87,18.62-24,0-10.19-3.35-21.43-8.91-31.59"/>
        <path class="cls-9" d="M606.21,436.28c-7.94,2.55-13.06,10.71-13.1,23.16-.06,21.5,15.06,47.7,33.78,58.5,5.53,3.19,10.76,4.68,15.38,4.65l-6.43-18.37a17.76,17.76,0,0,1-8.9-2.68c-10.83-6.25-19.58-21.41-19.55-33.86,0-7.21,3-11.92,7.58-13.4l-8.76-18"/>
      </g>
      <g>
        <path class="cls-1" d="M290,469.28c-18.78-11.46-49.13-11.46-67.79,0s-18.56,30,.22,41.51a49.8,49.8,0,0,0,5.27,2.78v5.79h27c12.82.27,25.76-2.58,35.51-8.57C308.9,499.33,308.8,480.75,290,469.28Z"/>
        <g class="cls-2">
          <path class="cls-6" d="M256.56,475.07a22.85,22.85,0,0,0-11.68-3q0-8.68,0-17.35a22.85,22.85,0,0,1,11.68,3Z"/>
          <path class="cls-6" d="M261.42,482.26c0-2.6-1.61-5.21-4.86-7.19l0-17.35c3.25,2,4.87,4.59,4.86,7.19Z"/>
          <path class="cls-6" d="M233.22,475.07c-3.19,2-4.78,4.53-4.79,7.1l0-17.35c0-2.57,1.6-5.14,4.79-7.1a22.68,22.68,0,0,1,11.65-3q0,8.68,0,17.35A22.68,22.68,0,0,0,233.22,475.07Z"/>
          <path class="cls-6" d="M193.56,489.25q0,.4,0,.79l0-17.35q0-.4,0-.79a3,3,0,0,1,2.28-2.4q0,8.68,0,17.35A3,3,0,0,0,193.56,489.25Z"/>
          <path class="cls-5" d="M261.47,464.91l0,17.35c0,2.57-1.6,5.14-4.79,7.09-6.41,3.94-16.89,3.94-23.34,0-3.25-2-4.87-4.59-4.86-7.19l0-17.35c0,2.6,1.61,5.21,4.86,7.19,6.45,3.94,16.93,3.94,23.34,0C259.87,470,261.46,467.48,261.47,464.91Z"/>
          <path class="cls-6" d="M196.45,486.65a6.08,6.08,0,0,0-.61.19q0-8.68,0-17.35a6.08,6.08,0,0,1,.61-.19c11.43-2.9,25.13-1.51,34.45,4.18,6.21,3.79,9.31,8.78,9.3,13.76l0,17.35c0-5-3.09-10-9.3-13.76C221.58,485.14,207.88,483.75,196.45,486.65Z"/>
          <path class="cls-5" d="M240.24,487.23l0,17.35a13.14,13.14,0,0,1-2.36,7.32,5.3,5.3,0,0,1-4.22,1.78c-10.34.24-20.82-2-28.73-6.87-7.58-4.62-11.35-10.71-11.34-16.78l0-17.35c0,6.07,3.76,12.15,11.34,16.78,7.9,4.82,18.39,7.11,28.73,6.87a5.3,5.3,0,0,0,4.22-1.78A13.14,13.14,0,0,0,240.24,487.23Z"/>
          <path class="cls-21" d="M265.85,452c18.78,11.46,18.88,30,.22,41.51s-49,11.46-67.79,0-18.88-30-.22-41.51S247.07,440.57,265.85,452Zm-32.19,44.3a5.3,5.3,0,0,0,4.22-1.78c4.7-7,2.38-15.39-6.94-21.08s-23-7.08-34.45-4.18c-1.71.43-2.83,1.46-2.89,2.59-.36,6.33,3.41,12.74,11.32,17.57s18.39,7.11,28.73,6.87m22.95-38.62c-6.45-3.94-16.92-3.94-23.33,0s-6.38,10.35.07,14.29,16.93,3.94,23.34,0,6.38-10.35-.08-14.29"/>
          <path class="cls-5" d="M256.6,457.71c6.45,3.94,6.49,10.35.08,14.29s-16.89,3.94-23.34,0-6.48-10.35-.07-14.29S250.15,453.77,256.6,457.71Z"/>
          <path class="cls-5" d="M230.94,473.48c9.32,5.69,11.63,14.07,6.94,21.08a5.3,5.3,0,0,1-4.22,1.78c-10.34.24-20.82-2-28.73-6.87s-11.68-11.24-11.32-17.57c.06-1.13,1.18-2.16,2.89-2.59C207.93,466.4,221.63,467.79,230.94,473.48Z"/>
        </g>
        <g>
          <path class="cls-22" d="M266.07,493.54c-8.2,5-18.65,7.86-29.39,8.47v17.35c10.72-.62,21.16-3.44,29.34-8.47,9.27-5.7,13.91-13.15,13.93-20.61l0-17.35C280,480.4,275.34,487.85,266.07,493.54Z"/>
          <path class="cls-12" d="M198.28,493.55c-9.45-5.77-14.17-13.34-14.15-20.9l0,17.35c0,7.56,4.7,15.13,14.15,20.9,10.54,6.43,24.73,9.25,38.45,8.47V502C223,502.79,208.81,500,198.28,493.55Z"/>
        </g>
        <path class="cls-23" d="M277.7,463.9c4,9.68-.1,20.37-12.43,27.94-18.66,11.46-49,11.46-67.79,0-5.64-3.44-9.58-7.53-11.85-11.86,2.07,5,6.28,9.68,12.65,13.57,18.78,11.46,49.14,11.46,67.79,0C279.13,485.52,283,474,277.7,463.9Z"/>
      </g>
      <g class="cls-2">
        <path class="cls-6" d="M318.26,512.72q0,7.8,0,15.59,0-7.79,0-15.59Z"/>
        <path class="cls-6" d="M318.2,533.25a3.25,3.25,0,0,0-1.9,2.66l.06-20.53a3.25,3.25,0,0,1,1.9-2.66q0,10.26-.06,20.53,0-10.26.06-20.53a10.2,10.2,0,0,1,9.26,0l-.06,20.53A10.2,10.2,0,0,0,318.2,533.25Z"/>
        <path class="cls-5" d="M316.3,535.91l.06-20.53a3.28,3.28,0,0,0,1.93,2.7l-.06,20.53A3.28,3.28,0,0,1,316.3,535.91Z"/>
        <path class="cls-6" d="M303.28,541.92a3.25,3.25,0,0,0-1.9,2.66l.06-20.53a3.25,3.25,0,0,1,1.9-2.66q0,10.26-.06,20.53,0-10.26.06-20.53a10.21,10.21,0,0,1,9.26,0l-.06,20.53A10.21,10.21,0,0,0,303.28,541.92Z"/>
        <path class="cls-5" d="M301.38,544.58l.06-20.53a3.27,3.27,0,0,0,1.93,2.7l-.06,20.53A3.27,3.27,0,0,1,301.38,544.58Z"/>
        <path class="cls-9" d="M268.34,545.38l.06-20.53c0,3.86,2.54,7.72,7.63,10.66L276,556C270.87,553.1,268.32,549.24,268.34,545.38Z"/>
        <polygon class="cls-6" points="421.38 566.91 421.32 587.44 327.46 533.25 327.52 512.72 421.38 566.91"/>
        <polygon class="cls-5" points="412.15 572.27 412.09 592.8 318.23 538.61 318.29 518.08 412.15 572.27"/>
        <polygon class="cls-6" points="369.14 554.02 369.08 574.55 312.55 541.91 312.61 521.38 369.14 554.02"/>
        <path class="cls-6" d="M371,577.25a3.27,3.27,0,0,0-1.93-2.7l.06-20.53a3.27,3.27,0,0,1,1.93,2.7Z"/>
        <polygon class="cls-5" points="359.91 559.39 359.85 579.92 303.31 547.28 303.37 526.75 359.91 559.39"/>
        <path class="cls-5" d="M371.07,556.72,371,577.25a3.26,3.26,0,0,1-1.91,2.67,10.21,10.21,0,0,1-9.26,0l.06-20.53a10.21,10.21,0,0,0,9.26,0A3.26,3.26,0,0,0,371.07,556.72Z"/>
        <path class="cls-5" d="M369.14,554c2.57,1.48,2.57,3.88,0,5.37a10.21,10.21,0,0,1-9.26,0l-56.54-32.64c-2.57-1.48-2.57-3.88,0-5.36a10.21,10.21,0,0,1,9.26,0Z"/>
        <path class="cls-6" d="M423.32,569.62l-.06,20.53a3.28,3.28,0,0,0-1.94-2.71l.06-20.53A3.28,3.28,0,0,1,423.32,569.62Z"/>
        <path class="cls-5" d="M423.32,569.62l-.06,20.53a3.25,3.25,0,0,1-1.9,2.66,10.21,10.21,0,0,1-9.26,0l.06-20.53a10.21,10.21,0,0,0,9.26,0A3.25,3.25,0,0,0,423.32,569.62Z"/>
        <path class="cls-10" d="M451.58,571.59l-.06,20.53c0,3.81-2.51,7.61-7.51,10.51l.06-20.53C449.06,579.2,451.57,575.4,451.58,571.59Z"/>
        <path class="cls-7" d="M443.95,560.93c10.13,5.85,10.18,15.33.12,21.18l-19.88,11.55-5.43,3.16-32.52,18.9-3.17-18.43-.87-.47L276,535.51c-10.12-5.85-10.18-15.33-.12-21.18l25.31-14.71c10.06-5.85,26.43-5.85,36.56,0Zm-31.8,11.35a10.21,10.21,0,0,0,9.26,0c2.55-1.48,2.53-3.88,0-5.37l-93.86-54.19a10.2,10.2,0,0,0-9.26,0c-2.55,1.48-2.54,3.88,0,5.36l93.86,54.19m-52.24-12.88a10.21,10.21,0,0,0,9.26,0c2.55-1.48,2.54-3.88,0-5.37l-56.54-32.64a10.21,10.21,0,0,0-9.26,0c-2.54,1.48-2.54,3.88,0,5.36l56.54,32.64"/>
        <path class="cls-5" d="M421.38,566.91c2.57,1.48,2.59,3.88,0,5.37a10.21,10.21,0,0,1-9.26,0l-93.86-54.19c-2.57-1.48-2.58-3.88,0-5.36a10.2,10.2,0,0,1,9.26,0Z"/>
        <polygon class="cls-10" points="444.07 582.1 444.01 602.63 424.13 614.18 424.19 593.65 444.07 582.1"/>
        <polygon class="cls-10" points="424.19 593.65 424.13 614.18 418.7 617.34 418.76 596.81 424.19 593.65"/>
        <polygon class="cls-9" points="382.2 596.81 382.14 617.34 275.97 556.04 276.02 535.51 382.2 596.81"/>
        <path class="cls-9" d="M383.07,597.28,383,617.81l-.87-.47.06-20.53Z"/>
        <polygon class="cls-9" points="386.24 615.71 386.18 636.24 383.01 617.81 383.07 597.28 386.24 615.71"/>
        <polygon class="cls-10" points="418.76 596.81 418.7 617.34 386.18 636.24 386.24 615.71 418.76 596.81"/>
      </g>
      <path class="cls-24" d="M443.95,560.93l-106.18-61.3c-.74-.43-1.53-.82-2.33-1.18.24.13.49.24.72.38l106.18,61.3c10.13,5.85,10.18,15.33.12,21.18l-19.88,11.55L417.15,596,386,614.13l.27,1.58,32.52-18.9,5.43-3.16,19.88-11.55C454.12,576.26,454.08,566.78,443.95,560.93Z"/>
    </g>
    <g>
      <path class="cls-1" d="M108.1,729.08a25,25,0,0,0,19.37-7.69c8.67-9.21,9-23.23,13.29-35.12,4.72-13.05,14.63-23.9,26.54-31s25.72-10.7,39.56-11.73c13.42-1,28.65-.33,38.13-9.88,4.41-4.45,6.83-11.42,4.28-17.14-2.62-5.88-9.32-8.61-15.47-10.51q-10-3.1-20.27-5.28c-7.56-1.6-15.44-2.81-23-1.06-12.33,2.87-21.37,13-30.67,21.57a163.39,163.39,0,0,1-54,33.12c-12.8,4.74-42.24,14.16-31.3,32.95,4.73,8.12,7.54,15.61,11.1,24.29C89.63,721.13,97.38,728.45,108.1,729.08Z"/>
      <g>
        <path class="cls-25" d="M284.5,239.47s10.75-.45,13.92-2.12,7.65-7.38,7.65-7.38L300.48,220l-8.31,2.23-7,10.39Z"/>
        <path class="cls-26" d="M305.54,214.56s10.81-5.7,12.26-5.7,1.12,2.12,0,3.46-9.95,6-9.95,6Z"/>
        <g class="cls-2">
          <path class="cls-10" d="M290.38,291.4c1.72-1.44,3.84-5.93,5.52-9.11l1.09.63c-1.68,3.18-3.8,7.67-5.52,9.11Z"/>
          <path class="cls-22" d="M276.06,337.38a306,306,0,0,0,14.32-46l1.09.63a306,306,0,0,1-14.32,46c-13.73,33.24-41.68,69.68-42.66,80-1,10.66,2.22,15.61,4.13,16.72l-1.09-.63c-1.91-1.11-5.14-6.06-4.13-16.72C234.38,407.06,262.34,370.62,276.06,337.38Z"/>
          <path class="cls-22" d="M297,282.92a316.48,316.48,0,0,1-17.37,55.77c-13.3,32.34-40.88,69.12-42.48,78.1-2.34,13.19,2.77,15.29,2.78,17.57a.58.58,0,0,1-.26.55c-1.23.71-6.42-3.75-5.18-16.89,1-10.33,28.94-46.76,42.66-80a306,306,0,0,0,14.32-46C293.2,290.59,295.31,286.1,297,282.92Z"/>
          <path class="cls-10" d="M294.36,160.74l-.52-.32,1.09.63.52.32Z"/>
          <path class="cls-10" d="M293.84,160.42l1.09.63c-1.61-.93-4.06-2-5.66-1.66a2.1,2.1,0,0,0-.66.24l-1.09-.63a2.1,2.1,0,0,1,.66-.24C289.77,158.46,292.23,159.49,293.84,160.42Z"/>
          <path class="cls-9" d="M288.61,159.64a2.1,2.1,0,0,1,.66-.24c1.77-.34,4.63,1,6.18,2a3.91,3.91,0,0,1,1.06.86c.5.85,12.23,52.21,12.38,54.69.35,6.05-4.23,18.72-6.11,31.47-1.11,7.51-3,29.69-5,33.11-.25.43-.5.9-.78,1.41-1.68,3.18-3.8,7.67-5.52,9.11a2.72,2.72,0,0,1-.38.27,1.64,1.64,0,0,1-.28.13c-1.24.43.74-9.09,1.75-20.35.64-7.23.75-11.66.9-21.46.05-3.65-2.85-4-2.63-8.45.17-3.48,6.62-12.16,6.65-15.81,0-2.83-4.14-3.57-4.24-6.4-.1-3.17.73-7.17.72-10.39-.07-21.92-6.62-48.12-6-49.3A1.61,1.61,0,0,1,288.61,159.64Z"/>
          <path class="cls-10" d="M290.65,292.42l-1.09-.63c-.88-.51,1-9.64,1.91-20.34.64-7.23.75-11.66.9-21.46.05-3.65-2.85-4-2.63-8.45.17-3.48,6.62-12.16,6.65-15.81,0-2.83-4.14-3.57-4.24-6.4-.1-3.17.73-7.17.72-10.39-.07-21.92-6.62-48.12-6-49.3a1.61,1.61,0,0,1,.62-.64l1.09.63a1.61,1.61,0,0,0-.62.64c-.64,1.17,5.91,27.37,6,49.3,0,3.22-.82,7.22-.72,10.39.09,2.83,4.26,3.57,4.24,6.4,0,3.65-6.48,12.33-6.65,15.81-.22,4.43,2.68,4.8,2.63,8.45-.15,9.8-.26,14.23-.9,21.46C291.61,282.79,289.77,291.91,290.65,292.42Z"/>
          <path class="cls-10" d="M273.69,128.64c-5.39-6.56-13.1-11.61-20.4-15.86l1.09.63c7.31,4.25,15,9.29,20.4,15.86,7.17,8.74,11.78,20.92,14.49,30.13l-1.09-.63C285.48,149.56,280.86,137.38,273.69,128.64Z"/>
          <path class="cls-22" d="M241.4,101.63c4.83,2.81,11.79,5.9,18.64,9.88l1.09.63c-6.85-4-13.81-7.07-18.64-9.88Z"/>
          <path class="cls-22" d="M237.59,73.45a.15.15,0,0,1,.15,0l1.09.63a.15.15,0,0,0-.15,0Z"/>
          <path class="cls-22" d="M238.68,74.09c.14-.08.22,0,.22.2,0,2.29-5.54,12.73-2.67,22.31,2.11,7,28.86,13.1,41.5,28.87,10.18,12.7,15.32,27.08,17.71,35.9-1.55-1-4.4-2.31-6.18-2-2.71-9.21-7.32-21.39-14.49-30.13-12.88-15.7-39.07-22.74-41.2-30.84C230.8,87.84,237.37,74.85,238.68,74.09Z"/>
          <path class="cls-22" d="M232.49,97.8c-2.78-10.6,3.78-23.59,5.1-24.35l1.09.63c-1.31.76-7.88,13.75-5.1,24.35.8,3,5,5.93,10.59,9.19l-1.09-.63C237.48,103.74,233.29,100.84,232.49,97.8Z"/>
        </g>
        <path class="cls-26" d="M281.93,226.19s7.62-10.89,10-13,6-2.39,9.55-4.51,5.1-.8,3.24,1.86a30.42,30.42,0,0,1-6,5.57s-1.49,9.82-5.52,13.67a20.25,20.25,0,0,1-9.16,4.82Z"/>
        <path class="cls-22" d="M80.68,669.36s-.74,13.71,0,15.64,1.79,2.09,3.13,8,4.77,20.41,15,24.88,19.67,2.68,20.86-2.83-1.49-15.94-7.6-25-6.41-13.26-6.41-13.26Z"/>
        <path class="cls-22" d="M176.55,612.15l1.56,14.08a35,35,0,0,0,12.52,2.68c6.48,0,4-1.56,11.62,0s11.85,5.59,23.24,3.8,18-9.31,14.15-13.33-31.59-11-34-12.82l-2.46-1.79Z"/>
        <path class="cls-9" d="M154.2,470.23S144.15,544.88,136.32,565s-12.74,30.84-17.66,45.82-8.27,65.71-8.27,65.71-11.62,8.72-20.78,3.58l-6.93-29.72,3.8-53.19,15.42-56.32,11.25-91.63,58.26-8.72,3.35,17.88Z"/>
        <path class="cls-10" d="M102.8,444.53s-2.46,32-2.91,45.59-7.15,66.38-7.15,66.38-6,19.89-9.61,36.88-3.8,77.1-3.8,77.1,6.7,7.38,8.49,8.49l1.79,1.12s-1.79-78.67,5.59-93.2,19-61.46,21.46-79.56,4.47-45.59,4.47-45.59A92.75,92.75,0,0,0,150.4,456c14.3-5.63,18.55-8.76,18.55-8.76l-14.75,23s8.94,38.89,9.83,53.64-2,25.25-.67,35.31,11.17,57.21,11.17,57.21,13,3.8,21-.22,10.06-9.61,10.06-9.61-7.82-46.49-6.93-63.7,1.56-60.79-.45-79.79-7.38-50.29-7.38-50.29Z"/>
        <path class="cls-27" d="M273.33,228.26l7.15-4.25a16.3,16.3,0,0,1,5.36,9.24,27.43,27.43,0,0,1,0,9.54s-5.26,2.38-6.06,2.38S273.33,228.26,273.33,228.26Z"/>
        <path class="cls-28" d="M145,434s16.09.67,28.16-6.26l12.07-6.93L181,325.28l-12.73-48.72L143,268.42l-23.45,5.33-6.41,6.43v8.18Z"/>
        <path class="cls-10" d="M237.27,272s-37.55,17.52-43.21,22.62-6.71,18.72-6.71,18.72l-7.3-38.7,17.88-13.36,33.67-1.79Z"/>
        <path class="cls-9" d="M177.32,355.26l3.33,85.24s10.73-8.49,13.11-11.92l2.38-3.43s-8.64-76.21-8.49-94.95-1.84-40.34-.92-44.07,7.93-7.71,14.33-9.59,36.2-4.56,36.2-4.56l46.49-25s.06-10.47-2.09-14.6c-3-5.74-7.67-6.85-7.67-6.85L230.6,247s-51,8.19-56.73,9.61-16.17,10.65-16.17,10.65l1.28,9.33,12.42,19.87,2.69,14,2.69,19.81Z"/>
        <path class="cls-9" d="M77.25,317.29S48.49,334.42,54.6,350.36s34.57,6,39.26,4.54,34.08-6.47,34.08-6.47l14.34-15.88s-1.26-18.25-1.56-18.7-10-10.28-10-10.28l-16.09-2.2Z"/>
        <path class="cls-9" d="M134.76,332.56v-2.35l4-2.35.21-1.68,7.83-.91s4.51,29.63,5.39,51.31S150,453.47,150,453.47l-27.49,2.46-2.91-64.37V349.32l11.75-14.88Z"/>
        <polygon class="cls-10" points="134.76 323.1 150.87 357.98 146.83 324.44 134.76 323.1"/>
        <path class="cls-10" d="M152.21,273.93a71,71,0,0,1,15.62,20.68c6.11,12.54,9.54,61.41,9.54,61.41l1.34-54.64-4-2.72,2.83-4.92s-7-10.58-14.9-17.19-12.37-5.91-12.37-5.91Z"/>
        <path class="cls-10" d="M131.93,309.09l-4-1-2.42-2L77.25,317.29s14.75-14.9,17.43-20,5.36-7.6,9.91-9.83a113.09,113.09,0,0,0,10.36-6.11s19.5,21.12,21.15,24.12l1.65,3Z"/>
        <path class="cls-25" d="M123.14,266.52s.78,6.26,0,7.71l-.78,1.45s12,10.28,19.92,13A39.87,39.87,0,0,0,156,291s.11-11.77.45-14.43,7.24-1.12,7.24-1.12L149.4,258.25l-12.85,2.23Z"/>
        <g>
          <path class="cls-12" d="M135.51,244.47a64.18,64.18,0,0,0,11.21-9.27c3.37-3.33,6.67-6.83,10.71-9.3,2.94-1.79,6.31-3.09,8.52-5.72a10.11,10.11,0,0,0,2.23-7.91,9.81,9.81,0,0,0-.78-2.58,6.82,6.82,0,0,0-.68-.5c-4.25-2.68-25.25-1.12-32.18-1.12s-24.14,9.83-24.81,21.9c-.25,4.51,1.34,11,3.43,17.38a23,23,0,0,0,8.64,1.55A27.69,27.69,0,0,0,135.51,244.47Z"/>
          <path class="cls-22" d="M167.4,209.69a9.81,9.81,0,0,1,.78,2.58,10.11,10.11,0,0,1-2.23,7.91c-2.21,2.63-5.58,3.92-8.52,5.72-4,2.47-7.34,6-10.71,9.3a64.18,64.18,0,0,1-11.21,9.27,27.69,27.69,0,0,1-13.72,4.43,23,23,0,0,1-8.64-1.55,205.79,205.79,0,0,0,8.42,21.06h9.27c3.35,0,15.31-8.72,15.31-8.72l8.49,3.13,8.94-5.81,4.25-22.57,2.46-7.21C172.61,220.43,171.15,212.78,167.4,209.69Z"/>
        </g>
        <path class="cls-26" d="M170.07,225.51s-6,5.81-7.38,9.16-.67,8.72-2.23,12.07S159.34,256.8,158,257a10.68,10.68,0,0,0-2.91,1.12s-6.7-8.27-9.61-3.8-1.34,8.27,2,10.28l5.59,3.35s3.8,5.14,7.15,6.26,8.94,3.58,9.83,1.56,3.8-19.22,3.8-19.22,3.13-4.15,2.91-5.54-4-4.52-4-4.52Z"/>
        <path class="cls-10" d="M93.86,354.91l40.9-22.35a32.09,32.09,0,0,0-6.82,23.91c1.9,14.08,3.69,27.25,3.46,37.09s-8.94,62.36-8.94,62.36-11,.45-19-1.56a89.44,89.44,0,0,1-10.73-3.13s11.85-49.19,11.62-57.67S93.86,354.91,93.86,354.91Z"/>
        <path class="cls-10" d="M114.94,281.38l3.43-4.82,4.77-2.33.34-2.23s-6.45,2.53-8.54,4.69-12,11.66-12,11.66l9.45-2.65Z"/>
        <path class="cls-26" d="M307.3,220.14s-5.81,12.18-4.69,13.86,6.37,1.12,7.93-1.45,5.76-13.83,3.69-15.2S307.3,220.14,307.3,220.14Z"/>
        <g>
          <line class="cls-12" x1="160.38" y1="298.03" x2="327.19" y2="207.62"/>
          <path class="cls-12" d="M160.88,298.9l56.39-30.56,89.85-48.7,20.57-11.15c1.14-.62.12-2.35-1-1.74l-56.39,30.56L180.44,286l-20.57,11.15c-1.14.62-.12,2.35,1,1.74Z"/>
        </g>
        <polygon class="cls-12" points="234.21 426.56 163.19 296.28 163.25 296.09 233.16 98.29 234 98.58 164.16 296.2 235 426.13 234.21 426.56"/>
        <path class="cls-5" d="M127.94,308.09a40.79,40.79,0,0,1,5.36,10.17c1.56,5,1.45,12,1.45,12l4-2.35.21-1.68.68-14.75-6.37-3.24L132,307Z"/>
        <path class="cls-25" d="M152,294.68l5.92,1.56c1.68.45,1.23,2.53,0,3.28a22.86,22.86,0,0,1-4.69,1.86c-.34,0-6.37-1.23-6.37-1.23V298l1.45-1.45Z"/>
        <g>
          <path class="cls-7" d="M183.11,284.63h0m-6.3-6.48-25.94,15,6.3,6.48h0l25.93-15-6.29-6.48"/>
          <polyline class="cls-7" points="183.11 284.62 183.1 284.62 157.17 299.59 157.17 299.6 150.92 313.33 176.87 298.35 183.1 284.64 183.11 284.63 183.11 284.62"/>
        </g>
        <path class="cls-26" d="M133.31,308.2s11.17-11.06,14.3-12.52,4.36-1,4.36-1-3.8,2.35-3.8,3.8,20.45.78,22,1.79.89,3.8,0,4.81l-.89,1s-3.69,11.06-7,14.75S139,326.19,139,326.19s-.66-7.38-2-11.51A17.46,17.46,0,0,0,133.31,308.2Z"/>
        <polygon class="cls-12" points="321.6 206.62 333.33 204.39 324.95 212.6 324.45 208.77 321.6 206.62"/>
      </g>
    </g>
  </g>
</svg>
