<svg id="Layer_1" data-name="Layer 1" xmlns="http://www.w3.org/2000/svg" xmlns:xlink="http://www.w3.org/1999/xlink" viewBox="0 0 753 738">
  <defs>
    <style>
      .cls-1 {
        fill: none;
      }

      .cls-2 {
        fill: #77dff7;
      }

      .cls-3, .cls-5 {
        fill: #3a273b;
      }

      .cls-3, .cls-4 {
        opacity: 0.25;
      }

      .cls-6 {
        isolation: isolate;
      }

      .cls-7 {
        fill: #bdd4e5;
      }

      .cls-8 {
        fill: #3ab3ef;
      }

      .cls-9 {
        fill: #e5f1fe;
      }

      .cls-10 {
        fill: #fff;
      }

      .cls-11 {
        fill: #a9ebff;
      }

      .cls-12 {
        fill: #73d7ff;
      }

      .cls-13 {
        fill: #128fdb;
      }

      .cls-14 {
        opacity: 0.61;
      }

      .cls-15 {
        opacity: 0.84;
      }

      .cls-16 {
        fill: url(#linear-gradient);
      }

      .cls-17 {
        opacity: 0.85;
      }

      .cls-18 {
        fill: #ffcfd6;
      }

      .cls-19 {
        clip-path: url(#clip-path);
      }

      .cls-20 {
        fill: #cc2545;
      }

      .cls-21 {
        fill: #ff4557;
      }

      .cls-22 {
        fill: #fcb9a9;
      }

      .cls-23 {
        fill: #3b4a51;
      }

      .cls-24 {
        fill: #d1e2f2;
      }

      .cls-25 {
        clip-path: url(#clip-path-2);
      }

      .cls-26 {
        fill: #f0b851;
      }

      .cls-27 {
        fill: #843843;
      }

      .cls-28 {
        fill: url(#linear-gradient-2);
      }

      .cls-29 {
        clip-path: url(#clip-path-3);
      }

      .cls-30 {
        clip-path: url(#clip-path-4);
      }

      .cls-31 {
        fill: #ff5c80;
      }

      .cls-32 {
        fill: #682733;
      }

      .cls-33 {
        fill: #2b4f6f;
      }

      .cls-34 {
        clip-path: url(#clip-path-5);
      }

      .cls-35 {
        opacity: 0.4;
      }

      .cls-36 {
        fill: #0070c0;
      }

      .cls-37 {
        fill: #527a99;
      }

      .cls-38 {
        opacity: 0.71;
      }

      .cls-39 {
        fill: url(#linear-gradient-3);
      }

      .cls-40 {
        opacity: 0.65;
        fill: url(#linear-gradient-4);
      }

      .cls-41 {
        fill: #3f6383;
      }

      .cls-42 {
        fill: url(#linear-gradient-5);
      }

      .cls-43 {
        fill: #6e9bba;
      }

      .cls-44 {
        fill: #22435b;
      }

      .cls-45 {
        fill: #c46a58;
      }

      .cls-46 {
        fill: #138ad3;
      }

      .cls-47 {
        fill: #64d3ff;
      }

      .cls-48 {
        fill: url(#linear-gradient-6);
      }

      .cls-49 {
        fill: #febc5a;
      }

      .cls-50 {
        fill: url(#linear-gradient-7);
      }

      .cls-51 {
        fill: url(#linear-gradient-8);
      }

      .cls-52 {
        fill: url(#linear-gradient-9);
      }

      .cls-53 {
        fill: #fb9e3e;
      }

      .cls-54 {
        fill: #ffdb56;
      }

      .cls-55 {
        fill: #f1faff;
      }
    </style>
    <linearGradient id="linear-gradient" x1="18.35" y1="448.51" x2="679.32" y2="98.46" gradientUnits="userSpaceOnUse">
      <stop offset="0" stop-color="#1c6cf1"/>
      <stop offset="1" stop-color="#53fef5"/>
    </linearGradient>
    <clipPath id="clip-path">
      <path class="cls-1" d="M442.1,297.06l-116-67a7.17,7.17,0,0,1-3.25-5.63l.35-122.69c0-2.07,1.47-2.9,3.27-1.86l116,67a7.17,7.17,0,0,1,3.25,5.63l-.35,122.69c0,2.07-1.47,2.9-3.27,1.86"/>
    </clipPath>
    <clipPath id="clip-path-2">
      <path class="cls-1" d="M442.11,297.74,326.32,230.9a7.15,7.15,0,0,1-3.24-5.62l.35-122.43c0-2.07,1.47-2.9,3.26-1.87l115.78,66.85a7.15,7.15,0,0,1,3.24,5.62l-.35,122.43c0,2.07-1.47,2.9-3.26,1.87"/>
    </clipPath>
    <linearGradient id="linear-gradient-2" x1="218.94" y1="562.7" x2="878.09" y2="213.62" xlink:href="#linear-gradient"/>
    <clipPath id="clip-path-3">
      <path class="cls-1" d="M641.51,411.67l-115.7-66.8a7.15,7.15,0,0,1-3.24-5.61l.35-122.35c0-2.06,1.47-2.89,3.27-1.85l115.7,66.8a7.15,7.15,0,0,1,3.24,5.61l-.35,122.35c0,2.06-1.47,2.89-3.27,1.85"/>
    </clipPath>
    <clipPath id="clip-path-4">
      <path class="cls-1" d="M641.51,412.79,525.81,346a7.15,7.15,0,0,1-3.24-5.62L522.92,218c0-2.07,1.47-2.9,3.26-1.86L641.88,283a7.15,7.15,0,0,1,3.24,5.62l-.35,122.35c0,2.07-1.47,2.9-3.27,1.86"/>
    </clipPath>
    <clipPath id="clip-path-5">
      <path class="cls-1" d="M515.15,376.51,382.39,299.86a8.2,8.2,0,0,1-3.72-6.44l.4-140.41c0-2.36,1.68-3.32,3.75-2.13l132.77,76.65A8.2,8.2,0,0,1,519.3,234l-.4,140.41c0,2.36-1.68,3.32-3.75,2.13"/>
    </clipPath>
    <linearGradient id="linear-gradient-3" x1="363.65" y1="292.37" x2="470.75" y2="534.42" xlink:href="#linear-gradient"/>
    <linearGradient id="linear-gradient-4" x1="349.09" y1="255.74" x2="456.19" y2="497.78" xlink:href="#linear-gradient"/>
    <linearGradient id="linear-gradient-5" x1="347.78" y1="405.39" x2="631.58" y2="378.46" gradientUnits="userSpaceOnUse">
      <stop offset="0" stop-color="#96ea8b"/>
      <stop offset="1" stop-color="#1cb1c8"/>
    </linearGradient>
    <linearGradient id="linear-gradient-6" x1="207.5" y1="646.09" x2="268.95" y2="646.09" xlink:href="#linear-gradient-5"/>
    <linearGradient id="linear-gradient-7" x1="207.5" y1="685.74" x2="268.95" y2="685.74" xlink:href="#linear-gradient-5"/>
    <linearGradient id="linear-gradient-8" x1="277.85" y1="669.41" x2="431.03" y2="679.02" xlink:href="#linear-gradient-5"/>
    <linearGradient id="linear-gradient-9" x1="256.73" y1="631.18" x2="1050.78" y2="724.04" xlink:href="#linear-gradient-5"/>
  </defs>
  <title>Kaykushal 5</title>
  <g>
    <g>
      <g>
        <path class="cls-2" d="M168.91,501.48a4.81,4.81,0,0,0-4.37,0l-49.28,28.64a1.34,1.34,0,0,0,0,2.53,4.81,4.81,0,0,0,4.37,0L168.93,504a1.34,1.34,0,0,0,0-2.53"/>
        <path class="cls-2" d="M177.74,506.57a4.81,4.81,0,0,0-4.37,0l-49.28,28.64a1.34,1.34,0,0,0,0,2.53,4.82,4.82,0,0,0,4.37,0l49.28-28.64a1.34,1.34,0,0,0,0-2.53"/>
        <path class="cls-2" d="M186.55,511.66a4.81,4.81,0,0,0-4.37,0L132.9,540.3a1.34,1.34,0,0,0,0,2.53,4.82,4.82,0,0,0,4.37,0l49.28-28.64a1.34,1.34,0,0,0,0-2.53"/>
        <path class="cls-2" d="M169.67,531.69a4.82,4.82,0,0,0-4.37,0l-23.58,13.71a1.34,1.34,0,0,0,0,2.53,4.81,4.81,0,0,0,4.37,0l23.58-13.71a1.34,1.34,0,0,0,0-2.53"/>
      </g>
      <g>
        <path class="cls-2" d="M47.62,577.38c-4-2.3-4-6,0-8.33L94.63,541.7a15.86,15.86,0,0,1,14.38,0l47.37,27.35c4,2.29,4,6,0,8.32l-47.06,27.35a15.87,15.87,0,0,1-14.37,0L47.62,577.38m111.67-10L111.92,540c-5.59-3.23-14.67-3.23-20.22,0L44.63,567.36c-5.56,3.23-5.52,8.48.07,11.71l47.37,27.35c5.59,3.23,14.66,3.23,20.22,0l47.06-27.35c5.56-3.23,5.53-8.48-.07-11.71"/>
        <g>
          <path class="cls-2" d="M114.42,593.09l-13.77-8a6.09,6.09,0,0,0-5.52,0l-9.72,5.65c-1.52.88-1.5,2.32,0,3.2l13.77,8a6.09,6.09,0,0,0,5.52,0l9.72-5.65C116,595.41,115.95,594,114.42,593.09Z"/>
          <path class="cls-2" d="M132.88,582.37l-29.09-16.8a6.09,6.09,0,0,0-5.52,0l-9.71,5.64c-1.52.88-1.51,2.32,0,3.2l29.09,16.8a6.09,6.09,0,0,0,5.52,0l9.71-5.64C134.41,584.68,134.41,583.25,132.88,582.37Z"/>
          <path class="cls-2" d="M151.34,571.64l-39.93-23.05a6.09,6.09,0,0,0-5.52,0l-9.71,5.64c-1.52.88-1.51,2.32,0,3.2l39.93,23.05a6.09,6.09,0,0,0,5.52,0l9.71-5.64C152.87,574,152.86,572.52,151.34,571.64Z"/>
        </g>
      </g>
    </g>
    <g>
      <path class="cls-3" d="M151.08,659.11c4.14,8.12,14,11.85,23.14,11.8s17.92-3.08,26.81-5.09,18.6-2.9,26.81,1.06c9.74,4.7,15.51,15.33,25.1,20.31,7.62,4,16.68,3.85,25.22,3a158.16,158.16,0,0,0,57.29-17.48c5.73-3,11.76-7.06,13.32-13.36,1.69-6.88-2.92-14.08-9.08-17.57s-13.51-4.05-20.59-4.27c-23.19-.7-46.5,1.52-69.54-1.12-8.63-1-18-3.17-23.17-10.17-3.46-4.72-4.41-10.94-8-15.61-5.54-7.29-16-8.9-25-7.72A58.66,58.66,0,0,0,158,621.49C149.74,630.57,145.12,647.42,151.08,659.11Z"/>
      <g>
        <g>
          <g class="cls-4">
            <path class="cls-5" d="M351.73,466.33l-17.07,9.92a4.58,4.58,0,0,0,0,7.93l226.16,130a12.53,12.53,0,0,0,12.66-.1l16.78-10a4.58,4.58,0,0,0-.06-7.9L364.27,466.3A12.53,12.53,0,0,0,351.73,466.33Z"/>
          </g>
          <g>
            <path class="cls-3" d="M707.32,523.76,396.91,345.3a43.14,43.14,0,0,0-44.82,1.11l-38,24.39a10.36,10.36,0,0,0,.44,17.69L520.25,506.74l-17.09,24.88,56.76-2.08L625,566.95a43.14,43.14,0,0,0,44.82-1.11l38-24.39A10.36,10.36,0,0,0,707.32,523.76Z"/>
            <g>
              <g class="cls-6">
                <path class="cls-7" d="M575.31,459.45l0,9.29c0,2.8-1.34,5.62-4.11,8.11l0-9.29C574,465.07,575.32,462.25,575.31,459.45Z"/>
                <path class="cls-8" d="M390,471l0-9.29c0,3.75,2.45,7.53,7.48,10.45l0,9.29C392.41,478.57,390,474.8,390,471Z"/>
                <polygon class="cls-8" points="571.2 467.56 571.23 476.86 517.23 525.42 517.2 516.13 571.2 467.56"/>
                <polygon class="cls-8" points="477.32 518.63 477.34 527.92 397.44 481.49 397.42 472.2 477.32 518.63"/>
                <path class="cls-8" d="M517.2,516.13l0,9.29a20.84,20.84,0,0,1-3.52,2.53c-9.82,5.67-26.14,5.92-36.37,0l0-9.29c10.23,5.94,26.55,5.69,36.37,0A20.84,20.84,0,0,0,517.2,516.13Z"/>
                <path class="cls-9" d="M397.49,451.13a28.65,28.65,0,0,1,4.38-2l84-31.12c10.2-3.78,23.54-2.94,32.07,2l49.88,29c8.52,5,9.92,12.68,3.37,18.58l-54,48.56a20.84,20.84,0,0,1-3.52,2.53c-9.82,5.67-26.14,5.92-36.37,0l-79.9-46.43C387.19,466.25,387.68,456.8,397.49,451.13Z"/>
              </g>
              <path class="cls-10" d="M571.2,464.31l-54,48.56a20.85,20.85,0,0,1-3.52,2.53c-9.82,5.67-26.14,5.92-36.37,0l-79.9-46.43c-4.33-2.52-6.72-5.66-7.31-8.89-.83,4.29,1.52,8.78,7.31,12.14l79.9,46.43c10.23,5.95,26.55,5.69,36.37,0a20.85,20.85,0,0,0,3.52-2.53l54-48.56c3.31-3,4.59-6.43,3.94-9.76A11.71,11.71,0,0,1,571.2,464.31Z"/>
            </g>
            <g>
              <g>
                <g>
                  <g class="cls-6">
                    <path class="cls-11" d="M301.34,22.77l7.15-4.15c2.62-1.52,6.24-1.31,10.24,1l-7.15,4.15C307.58,21.46,304,21.25,301.34,22.77Z"/>
                    <path class="cls-8" d="M675.91,561.55l-7.15,4.15c2.58-1.5,4.18-4.69,4.2-9.23l7.15-4.15C680.09,556.85,678.49,560,675.91,561.55Z"/>
                    <polygon class="cls-8" points="673.83 248.63 680.98 244.48 680.1 552.32 672.96 556.47 673.83 248.63"/>
                    <polygon class="cls-11" points="311.58 23.77 318.73 19.62 666.64 219.65 659.49 223.8 311.58 23.77"/>
                    <path class="cls-12" d="M659.49,223.8l7.15-4.15c7.95,4.59,14.36,15.71,14.34,24.83l-7.15,4.15C673.85,239.51,667.44,228.39,659.49,223.8Z"/>
                    <path class="cls-13" d="M659.49,223.8c7.95,4.59,14.36,15.71,14.34,24.83L673,556.47c0,9.13-6.48,12.81-14.43,8.22l-347.91-200c-7.95-4.59-14.37-15.71-14.34-24.84L297.14,32c0-9.13,6.49-12.81,14.44-8.22Z"/>
                  </g>
                  <g class="cls-14">
                    <path class="cls-11" d="M659.49,223.8l-347.91-200c-5-2.89-9.41-2.5-12,.46,2.46-.83,5.57-.39,9,1.57l347.91,200c7.95,4.59,14.36,15.7,14.34,24.83l-.87,307.84c0,3.39-.91,6-2.44,7.76,3.32-1.12,5.46-4.55,5.48-9.79l.87-307.84C673.85,239.51,667.44,228.39,659.49,223.8Z"/>
                  </g>
                </g>
                <g>
                  <path class="cls-10" d="M610.55,213.74c-3.77-2.17-6.81-.42-6.83,3.89a14.94,14.94,0,0,0,6.78,11.76c3.75,2.17,6.81.42,6.83-3.91a15,15,0,0,0-6.78-11.75"/>
                  <path class="cls-10" d="M630.82,225.45c-3.75-2.17-6.81-.42-6.83,3.89a15,15,0,0,0,6.78,11.76c3.77,2.18,6.83.43,6.84-3.9a15,15,0,0,0-6.8-11.76"/>
                  <path class="cls-10" d="M651.1,237.16c-3.75-2.17-6.81-.42-6.83,3.89a15,15,0,0,0,6.78,11.76c3.77,2.18,6.83.43,6.84-3.9a15,15,0,0,0-6.8-11.76"/>
                </g>
                <g>
                  <path class="cls-10" d="M318.36,42.79l-2-1.13-2.3-1.33-1.15-.66c-.69-.4-1.31-.09-1.32.7,0,1.73,0,3.47,0,5.21a2.43,2.43,0,0,0,.38,1.2l5.28,9.07a2.46,2.46,0,0,0,.85.85,1,1,0,0,0,.62.17c.81-.11.92-1.18.24-2.35l-4.55-7.82a1.11,1.11,0,0,1-.18-.61c0-.74,0-1.48,0-2.24,0-.28.06-.32.3-.18h0l2.3,1.34,2.76,1.59a6,6,0,0,1,2.66,4.59c0,1.09-.4,1.7-1.13,1.91s-.82,1.41,0,2.55a5.23,5.23,0,0,1,1.09,3.68,1.5,1.5,0,0,1-2.11,1.29c-.37-.15-.75-.4-1.13-.58l-.08,0a1.63,1.63,0,0,1-.58-.64c-1.44-2.52-2.9-5-4.35-7.54a3.15,3.15,0,0,0-1.08-1.2,1,1,0,0,0-.7-.15c-.76.18-.83,1.21-.16,2.35s1.2,2,1.8,3.06c1.1,1.89,2.18,3.78,3.28,5.66a2.71,2.71,0,0,0,.68.82c.4.26.81.52,1.22.75s.66.37,1,.53a3.33,3.33,0,0,0,3.48,0,3.39,3.39,0,0,0,1.4-2.7,9.39,9.39,0,0,0-1-4.79c-.1-.21-.12-.31,0-.41a4.51,4.51,0,0,0,1-3.78,11.31,11.31,0,0,0-1.71-4.81,10.69,10.69,0,0,0-3.63-3.73l-1.18-.69"/>
                  <path class="cls-10" d="M351.41,61.88l-.08,0c-.76-.35-1.31-.08-1.31.86Q350,71,350,79.29a2.7,2.7,0,0,0,.1.77,3,3,0,0,0,1.22,1.73,1,1,0,0,0,1,.07c1.27-.72,2.54-1.44,3.81-2.17a.24.24,0,0,1,.26,0,.83.83,0,0,1,.25.31q1.83,3.2,3.69,6.38c.11.18.22.35.33.53a2.58,2.58,0,0,0,.81.79.94.94,0,0,0,.9.1c.47-.24.58-1.1.14-1.91-.68-1.26-1.42-2.49-2.13-3.74s-1.33-2.39-2-3.59l-.13-.09a1.06,1.06,0,0,0,.28-.06c1.3-.73,2.6-1.46,3.89-2.21.36-.21.47-.65.32-1.31a3,3,0,0,0-.91-1.53,2.15,2.15,0,0,0-.38-.29,1,1,0,0,0-1,0l-6.23,3.5-1.27.71a1.73,1.73,0,0,1-.27.09v-.5q0-6.14,0-12.27a5.62,5.62,0,0,0-.05-.76,3.22,3.22,0,0,0-1.23-1.9"/>
                  <path class="cls-10" d="M394.42,86.73l-.06,0c-.79-.42-1.29,0-1.29.84L393,100c0,1.46,0,2.91,0,4.38a2.74,2.74,0,0,0,.77,1.83,2.5,2.5,0,0,0,.58.49.84.84,0,0,0,.81.08c.54-.26,1.06-.55,1.58-.84l2.29-1.3c.12-.06.24-.11.38-.17.28.46.54.88.78,1.31l3.33,5.77a2.52,2.52,0,0,0,.89,1,1.59,1.59,0,0,0,.57.2c.78.11,1.06-1.08.48-2.1q-1.47-2.57-3-5.12l-1.28-2.21a1.12,1.12,0,0,0,.3-.05c.58-.3,1.15-.61,1.72-.92s1.37-.8,2.08-1.17a1,1,0,0,0,.48-1,3,3,0,0,0-1.2-2.1l-.11-.07a1.12,1.12,0,0,0-1.27.06l-6.32,3.59c-.34.19-.7.36-1,.53a.87.87,0,0,1-.19,0c0-.18,0-.31,0-.43q0-2.08,0-4.15c0-2.85,0-5.7,0-8.57a2.74,2.74,0,0,0-1.27-2.25"/>
                  <path class="cls-10" d="M365.31,69.91c-.74-.43-1.34-.09-1.34.77,0,5.56,0,11.13-.06,16.68a3.11,3.11,0,0,0,1.5,2.61h0l6.26,3.61,3.75,2.17A2.06,2.06,0,0,0,376,96c.91.2,1.3-.86.61-2.11-.18-.32-.36-.63-.54-.94l-4.61-8a3,3,0,0,0-1-1.08.9.9,0,0,0-.85-.1c-.64.33-.57,1.35,0,2.27.17.29.36.57.53.86l2,3.5.2.37,0,.07-.3-.17-5-2.91c-.37-.21-.37-.22-.37-.66l0-14.48c0-.19,0-.38,0-.58a3.05,3.05,0,0,0-1.27-2.12h0"/>
                  <path class="cls-10" d="M344,62.89a4.87,4.87,0,0,0-1-.44c-.53-.17-1.05-.24-1.63-.37l-.13-.24a2.86,2.86,0,0,0-1-1.1,1.23,1.23,0,0,0-.42-.16c-.5-.08-.88.29-.88.87,0,3.89,0,7.77,0,11.67a2.84,2.84,0,0,0,1.3,2.26h0a.81.81,0,0,0,1.31-.77c0-2.49,0-5,0-7.42a1.48,1.48,0,0,1,.86-1.55,1.76,1.76,0,0,1,1.46.26,5,5,0,0,1,2.33,4.2q0,3.65,0,7.29a2.92,2.92,0,0,0,1.27,2.17l.09,0c.73.35,1.26.12,1.27-.81,0-2.47,0-5,0-7.45a7.6,7.6,0,0,0-.13-1.33,11,11,0,0,0-2.32-5A8.88,8.88,0,0,0,344,62.89"/>
                  <path class="cls-10" d="M387,87.75a5.05,5.05,0,0,0-1-.44c-.55-.18-1.08-.25-1.66-.39l0-.06a2.72,2.72,0,0,0-1-1.25,1.32,1.32,0,0,0-.39-.15c-.56-.12-1,.15-.95.88,0,.51,0,1,0,1.51q0,5.1,0,10.19a2.92,2.92,0,0,0,1.26,2.18l0,0c.73.39,1.31.15,1.31-.8,0-2.46,0-4.94,0-7.41a2.41,2.41,0,0,1,.06-.56c.26-1.08,1.2-1.32,2.23-.72a3.81,3.81,0,0,1,.61.45,4.91,4.91,0,0,1,1.7,3.62q0,3.59,0,7.19a2.94,2.94,0,0,0,.75,1.94,2.11,2.11,0,0,0,.56.48c.67.38,1.32.14,1.32-.68,0-2.58,0-5.15,0-7.74a7.47,7.47,0,0,0-.21-1.61A11.2,11.2,0,0,0,389.43,90a8.77,8.77,0,0,0-2.41-2.2"/>
                  <path class="cls-10" d="M327.45,48l-.09,0c-.68-.31-1.26-.09-1.27.9q0,2.75,0,5.5c0,1.42,0,2.83,0,4.25a22.76,22.76,0,0,0,.11,2.37,13.83,13.83,0,0,0,2.63,6.42,12.88,12.88,0,0,0,2.78,2.9,7,7,0,0,0,.69.46,4,4,0,0,0,.62.3c.71.26,1.12-.34,1-1.24a2.92,2.92,0,0,0-1.4-2,7.06,7.06,0,0,1-2.09-2,7.64,7.64,0,0,1-1.62-4.42q0-5.23,0-10.45c0-.25,0-.53,0-.78A2.94,2.94,0,0,0,327.45,48"/>
                  <path class="cls-10" d="M336.42,58.53a1.1,1.1,0,0,0-.63-.16c-.47,0-.7.37-.7,1,0,3.8,0,7.61,0,11.41a3,3,0,0,0,1.33,2.41,1.68,1.68,0,0,0,.29.13.76.76,0,0,0,1-.79l0-5.88q0-2.94,0-5.88a2.45,2.45,0,0,0-.46-1.37,2.76,2.76,0,0,0-.84-.85"/>
                  <path class="cls-10" d="M379.49,83.41h0c-.69-.39-1.34-.12-1.34.76,0,1.94,0,3.86,0,5.79h0q0,2.92,0,5.85a1.82,1.82,0,0,0,0,.36A3,3,0,0,0,379.4,98l.11.06c.73.33,1.23,0,1.23-.82s0-1.36,0-2q0-4.76,0-9.52a2.93,2.93,0,0,0-1.28-2.28"/>
                  <path class="cls-10" d="M336.42,53.24h0c-.74-.42-1.32-.06-1.3.78a2.83,2.83,0,0,0,1.33,2.29h0c.74.42,1.33,0,1.27-.77a2.79,2.79,0,0,0-1.31-2.31"/>
                  <path class="cls-10" d="M379.41,78.06a.79.79,0,0,0-1.26.79,2.83,2.83,0,0,0,1.29,2.28h0c.75.42,1.33.07,1.31-.76a2.82,2.82,0,0,0-1.33-2.3l0,0"/>
                </g>
              </g>
              <g class="cls-15">
                <path class="cls-16" d="M453.2,152.06,315.84,72.76c-6.47-3.73-11.73-.74-11.75,6.7l-.73,257.86c0,7.43,5.21,16.49,11.68,20.22l137.36,79.3c6.47,3.73,11.73.74,11.75-6.7l.73-257.86C464.89,164.85,459.67,155.8,453.2,152.06Z"/>
                <g class="cls-17">
                  <g>
                    <path class="cls-10" d="M327.76,342.94a11.55,11.55,0,0,1-5.24-9.08c0-3.34,2.37-4.68,5.27-3l56.45,32.59a11.55,11.55,0,0,1,5.23,9.07c0,3.34-2.37,4.68-5.27,3l-56.45-32.59m.06-22.65a11.55,11.55,0,0,1-5.24-9.08c0-3.34,2.37-4.67,5.27-3l112,64.68a11.54,11.54,0,0,1,5.24,9.07c0,3.34-2.37,4.68-5.27,3l-112-64.68m.06-22.65a11.55,11.55,0,0,1-5.24-9.08c0-3.34,2.37-4.68,5.27-3l112,64.68a11.55,11.55,0,0,1,5.24,9.08c0,3.34-2.37,4.68-5.27,3l-112-64.68m-.28-25.12a10.76,10.76,0,0,1-4.89-8.46l0-15.92c0-3.11,2.21-4.37,4.92-2.8l112.74,65.09a10.77,10.77,0,0,1,4.89,8.46l0,15.92c0,3.11-2.21,4.36-4.92,2.8L327.6,272.52m-1.52-42.44a7.17,7.17,0,0,1-3.25-5.63l.35-122.69c0-2.07,1.47-2.9,3.27-1.86l116,67a7.17,7.17,0,0,1,3.25,5.63l-.35,122.69c0,2.07-1.47,2.9-3.27,1.86l-116-67m127.12-78L315.84,72.76c-6.47-3.73-11.73-.74-11.75,6.7l-.73,257.86c0,7.43,5.21,16.49,11.68,20.22l137.36,79.3c6.47,3.73,11.73.74,11.75-6.7l.73-257.86c0-7.43-5.21-16.49-11.68-20.22"/>
                    <path class="cls-18" d="M377.84,138.47a23.89,23.89,0,0,1,11.78,3.22,23.41,23.41,0,0,1,8.49,8.48c7.28,12.26,13.37,23.16,13.36,28.29s-2.13,14.38-2.13,14.38,2.38,1.72,1.32,7.09a10.07,10.07,0,0,1-5.39,7.2s-1.21,5.65-3.16,8.46a10.5,10.5,0,0,1-.86,1.07h0l0,7.79a83.29,83.29,0,0,1,6.66,5.79c1.94,2.15,6.22,14.66,6.22,14.66l.59,3,4.47,4.12s16.22,16.91,19.49,22.75c1.7,3,3.75,13.43,5.32,22.68a2.64,2.64,0,0,1-1.87-.4l-116-67a6.11,6.11,0,0,1-1.74-1.58c2.11-7.56,5.13-16.59,7.77-17.8,4.63-2.13,21.78,2.12,21.78,2.12l1.2-2.23s1.51-7.35,2.85-7.62c1.11-.21,9.92,1.24,13,1.75l0-7.61-2.66-9.77a1.18,1.18,0,0,1-.31-.14,11,11,0,0,1-2.67-2.61c-2.08-2.58-3.11-7.8-3.84-14.57-.69-6.42,1.55-5.28,1.78-5.14h0s-1.16-12-1.15-14.9.48-14.3,5.41-14.88c3.29-.39,6.76,1.24,8.72,2.37a18.49,18.49,0,0,1,1.57,1m64.63,28.4-116-67c-1.8-1-3.27-.21-3.27,1.86l-.35,122.69a7.17,7.17,0,0,0,3.25,5.63l116,67c1.8,1,3.27.21,3.27-1.86l.35-122.69a7.17,7.17,0,0,0-3.25-5.63"/>
                    <g class="cls-19">
                      <polyline class="cls-20" points="355.1 210.59 353.89 212.81 385.95 246.07 419.16 252.03 414.69 247.91 414.1 244.91 385.96 244.36 355.1 210.59"/>
                      <path class="cls-21" d="M370.93,204.72c-3.06-.51-11.87-2-13-1.75-1.34.26-2.85,7.62-2.85,7.62L386,244.36l28.14.55s-4.29-12.51-6.22-14.66a83.29,83.29,0,0,0-6.66-5.79l0,7.09,2.49,4.87-17.78,6.54-20.67-27.88,5.68-2.38,0-8"/>
                      <path class="cls-21" d="M353.89,212.81s-17.15-4.25-21.78-2.12c-2.64,1.21-5.66,10.23-7.77,17.8a6.11,6.11,0,0,0,1.74,1.58l116,67a2.64,2.64,0,0,0,1.87.4c-1.57-9.25-3.61-19.64-5.32-22.68-3.27-5.84-19.49-22.75-19.49-22.75l-33.2-6-32.06-33.26"/>
                      <path class="cls-22" d="M401.24,216.67c-2.46,2.7-7.8,6.23-13.81,2.77a13.82,13.82,0,0,1-1.46-1,35.75,35.75,0,0,1-10.56-13.13s1.63,5.4,7.06,12.48,21.21,18.6,21.21,18.6l-2.49-4.87,0-7.09,0-7.79h0"/>
                      <path class="cls-10" d="M373.21,150.29c-2.05-1.18-5.27,5.29-5.27,5.29l-.2,16.52a4.34,4.34,0,0,1-1.18-2.05c-.45-1.46-3.27-5.15-3.27-5.15h0c-.23-.13-2.47-1.28-1.78,5.14.73,6.77,1.75,12,3.84,14.57A11,11,0,0,0,368,187.2a1.18,1.18,0,0,0,.31.14l2.66,9.77,0,7.61,0,8-5.68,2.38,20.67,27.88,17.78-6.54s-15.78-11.51-21.21-18.6-7.06-12.48-7.06-12.48A35.75,35.75,0,0,0,386,218.46a13.82,13.82,0,0,0,1.46,1c6,3.47,11.35-.07,13.81-2.77a10.5,10.5,0,0,0,.86-1.07c2-2.81,3.16-8.46,3.16-8.46a10.07,10.07,0,0,0,5.39-7.2c1.06-5.37-1.32-7.09-1.32-7.09l-.16-.11c-1.73-1-3.3,3.45-3.88,3.95a.17.17,0,0,1-.21,0c-.51-.29-1-2.94-1-2.94s-.74-1.63-6.1-8.84a164.37,164.37,0,0,1-11-18l1.22,3.28c1.22,3.28,6.95,13.1,6.95,13.1a58.44,58.44,0,0,1-10.42-12.37c-5-7.88-10.84-19.8-10.84-19.8a2,2,0,0,0-.72-.85"/>
                      <path class="cls-23" d="M389.62,141.69a23.89,23.89,0,0,0-11.78-3.22,18.49,18.49,0,0,0-1.57-1c-2-1.13-5.43-2.75-8.72-2.37-4.93.58-5.41,12-5.41,14.88s1.15,14.9,1.15,14.9,2.83,3.69,3.27,5.15a4.34,4.34,0,0,0,1.18,2.05l.2-16.52s3.22-6.47,5.27-5.29a2,2,0,0,1,.72.85s5.79,11.92,10.84,19.8a58.44,58.44,0,0,0,10.42,12.37s-5.72-9.82-6.95-13.1L387,166.92a164.37,164.37,0,0,0,11,18c5.36,7.21,6.1,8.84,6.1,8.84s.46,2.65,1,2.94a.17.17,0,0,0,.21,0c.58-.5,2.15-4.95,3.88-3.95l.16.11s2.12-9.25,2.13-14.38-6.08-16-13.36-28.29a23.41,23.41,0,0,0-8.49-8.48"/>
                    </g>
                    <path class="cls-18" d="M440.42,310.43,327.68,245.34c-2.71-1.56-4.91-.31-4.92,2.8l0,15.92a10.76,10.76,0,0,0,4.89,8.46l112.74,65.09c2.71,1.56,4.91.31,4.92-2.8l0-15.92a10.77,10.77,0,0,0-4.89-8.46"/>
                    <path class="cls-24" d="M439.95,350.24l-112-64.68c-2.9-1.68-5.26-.33-5.27,3a11.55,11.55,0,0,0,5.24,9.08l112,64.68c2.9,1.68,5.26.33,5.27-3a11.55,11.55,0,0,0-5.24-9.08"/>
                    <path class="cls-24" d="M439.88,372.89l-112-64.68c-2.9-1.68-5.26-.34-5.27,3a11.55,11.55,0,0,0,5.24,9.08l112,64.68c2.9,1.68,5.26.33,5.27-3a11.54,11.54,0,0,0-5.24-9.07"/>
                    <path class="cls-24" d="M384.24,363.45l-56.45-32.59c-2.9-1.68-5.26-.33-5.27,3a11.55,11.55,0,0,0,5.24,9.08l56.45,32.59c2.9,1.67,5.26.33,5.27-3a11.55,11.55,0,0,0-5.23-9.07"/>
                  </g>
                  <g>
                    <path class="cls-18" d="M362.56,151a27.54,27.54,0,0,1-2.34-15.69c1.05-7.58,10-5.43,16.6-1.6a31.07,31.07,0,0,1,3.59,2.41c6.39,5,12.87,11.11,17.21,14.75l4.35,3.64-2.38-.34s-2-.25,5.71,7.91c10.88,11.49,6.62,20.24,5.74,21.81a.72.72,0,0,1-.24.26,21.51,21.51,0,0,1,0,6.56,78.35,78.35,0,0,0-1.49,8.73l.12.47s2.38,1.71,1.32,7.07a10.05,10.05,0,0,1-5.38,7.18s-1.21,5.64-3.16,8.45a10.38,10.38,0,0,1-.86,1.07l0,14.84s34.12,37.32,37.38,43.15c1.32,2.36,2.85,9.15,4.2,16.39a3.64,3.64,0,0,1-.74-.33L326.32,230.9l-.33-.21c1.93-6.15,4.25-12,6.33-13,4.62-2.13,38.72,2,38.72,2l0-15.55-2.65-9.75a1.18,1.18,0,0,1-.31-.14,10.89,10.89,0,0,1-2.66-2.6c-2.08-2.57-3.11-7.79-3.84-14.54-.69-6.41,1.56-5.26,1.79-5.13h0s-.67-6.94-1.48-10.89.6-10.13.6-10.13m79.92,16.83L326.69,101c-1.79-1-3.26-.2-3.26,1.87l-.35,122.43a7.15,7.15,0,0,0,3.24,5.62l115.78,66.85c1.79,1,3.26.2,3.26-1.87l.35-122.43a7.15,7.15,0,0,0-3.24-5.62"/>
                    <g class="cls-25">
                      <path class="cls-26" d="M371,219.72s-34.1-4.11-38.72-2c-2.09,1-4.41,6.81-6.33,13l.33.21,115.78,66.85a3.64,3.64,0,0,0,.74.33c-1.35-7.25-2.88-14-4.2-16.39-3.26-5.82-37.38-43.15-37.38-43.15l4.45,6.75c-5.35,4-12.8,3.22-20.24-1.08s-14.78-12-20.09-22.09v0l5.66-2.38"/>
                      <path class="cls-22" d="M401.31,223.69c-2.45,2.7-7.79,6.22-13.78,2.76a13.79,13.79,0,0,1-1.45-1,35.72,35.72,0,0,1-10.54-13.11s1.62,5.39,7,12.46,23.14,20.45,23.14,20.45l-4.45-6.75,0-14.84"/>
                      <path class="cls-9" d="M375.32,156.55a6.2,6.2,0,0,0-.78-.39c-.17-.06-.33-.11-.5-.16-2.1-.41-3.07.88-3.43,3h0c-.39,2.71-1.15,6.2-1.85,6.94-1.16,1.22-1.68,12.52-1.68,12.52a5.09,5.09,0,0,1-1.39-2.78,8.54,8.54,0,0,0-2.25-3.71h0c-.23-.13-2.48-1.28-1.79,5.13.73,6.76,1.76,12,3.84,14.54a10.89,10.89,0,0,0,2.66,2.6,1.18,1.18,0,0,0,.31.14l2.65,9.75,0,15.55-5.66,2.38v0c5.31,10.06,12.7,17.82,20.09,22.09s14.89,5.06,20.24,1.08c0,0-17.71-13.38-23.14-20.45s-7-12.46-7-12.46a35.72,35.72,0,0,0,10.54,13.11,13.79,13.79,0,0,0,1.45,1c6,3.46,11.33-.06,13.78-2.76a10.38,10.38,0,0,0,.86-1.07c1.95-2.81,3.16-8.45,3.16-8.45a10.05,10.05,0,0,0,5.38-7.18c1.06-5.36-1.32-7.07-1.32-7.07l-.12-.47,0,.42s-1.77-.4-2.27,1.11-1.4,1.17-1.4,1.17-.46-11.87-1.6-14.41a38.2,38.2,0,0,1-1.63-7.66c-.82-.84-1.84-2-3.14-3.49-4-4.66-6.1-7.37-8.36-9.68a29.91,29.91,0,0,0,3.29,4.49l2.86,3.54a102.71,102.71,0,0,1-10.71-8.88c-4.12-4-8.41-8-10.93-9.5"/>
                      <path class="cls-27" d="M362.56,151s-1.41,6.17-.6,10.13S363.44,172,363.44,172a8.54,8.54,0,0,1,2.25,3.71,5.09,5.09,0,0,0,1.39,2.78s.52-11.3,1.68-12.52c.7-.74,1.47-4.23,1.85-6.94,0,.29-.16.37-.31.28-.5-.29-1.46-2.34-2.28-4.27l-.32-.18a35.64,35.64,0,0,1-5.14-3.89"/>
                      <path class="cls-27" d="M410.79,184.16c-.7.45-2.25-.24-3.5-1-1-.6-1.89-1.22-1.89-1.22s.18.73-.66.25a13.29,13.29,0,0,1-2.43-2.15,38.2,38.2,0,0,0,1.63,7.66c1.14,2.55,1.6,14.41,1.6,14.41s.9.33,1.4-1.17,2.27-1.11,2.27-1.11l0-.42a78.35,78.35,0,0,1,1.49-8.73,21.51,21.51,0,0,0,0-6.56"/>
                      <path class="cls-27" d="M376.82,133.72c-6.63-3.83-15.55-6-16.6,1.6A27.54,27.54,0,0,0,362.56,151a35.64,35.64,0,0,0,5.14,3.89l.32.18c.82,1.93,1.78,4,2.28,4.27.15.09.26,0,.31-.28h0c.36-2.17,1.33-3.45,3.43-3,.17,0,.32.09.5.16a6.2,6.2,0,0,1,.78.39c2.52,1.46,6.82,5.5,10.93,9.5A102.71,102.71,0,0,0,397,174.93l-2.86-3.54a29.91,29.91,0,0,1-3.29-4.49c2.26,2.31,4.37,5,8.36,9.68,1.3,1.51,2.32,2.65,3.14,3.49a13.29,13.29,0,0,0,2.43,2.15c.84.48.66-.25.66-.25s.84.62,1.89,1.22c1.26.73,2.8,1.42,3.5,1a.72.72,0,0,0,.24-.26c.88-1.57,5.15-10.31-5.74-21.81-7.73-8.16-5.71-7.91-5.71-7.91l2.38.34-4.35-3.64c-4.34-3.63-10.82-9.74-17.21-14.75a31.07,31.07,0,0,0-3.59-2.41"/>
                    </g>
                  </g>
                </g>
              </g>
              <g class="cls-15">
                <path class="cls-28" d="M652.58,267.08,515.61,188c-6.45-3.72-11.7-.73-11.72,6.68l-.73,257.15c0,7.41,5.19,16.44,11.64,20.17l137,79.08c6.45,3.72,11.7.73,11.72-6.68l.73-257.15C664.25,279.83,659,270.8,652.58,267.08Z"/>
                <g class="cls-17">
                  <g>
                    <path class="cls-10" d="M527.49,457.42a11.52,11.52,0,0,1-5.23-9.05c0-3.33,2.36-4.67,5.26-3l56.3,32.5a11.51,11.51,0,0,1,5.22,9c0,3.33-2.36,4.67-5.25,3l-56.3-32.5m.06-22.59a11.52,11.52,0,0,1-5.23-9.05c0-3.33,2.36-4.66,5.26-3l111.72,64.5a11.5,11.5,0,0,1,5.23,9c0,3.33-2.36,4.67-5.26,3l-111.72-64.5m.06-22.58a11.52,11.52,0,0,1-5.23-9.05c0-3.33,2.36-4.67,5.26-3l111.72,64.5a11.52,11.52,0,0,1,5.23,9.05c0,3.33-2.36,4.67-5.26,3l-111.72-64.5m-.28-25.05a10.73,10.73,0,0,1-4.87-8.43l0-15.88c0-3.1,2.2-4.35,4.9-2.79L639.84,425a10.74,10.74,0,0,1,4.87,8.44l0,15.88c0,3.1-2.2,4.35-4.9,2.79L527.33,387.2m-1.52-42.32a7.15,7.15,0,0,1-3.24-5.61l.35-122.35c0-2.06,1.47-2.89,3.27-1.85l115.7,66.8a7.15,7.15,0,0,1,3.24,5.61l-.35,122.35c0,2.06-1.47,2.89-3.27,1.85l-115.7-66.8m126.77-77.79L515.61,188c-6.45-3.72-11.7-.73-11.72,6.68l-.73,257.15c0,7.41,5.19,16.44,11.64,20.17l137,79.08c6.45,3.72,11.7.73,11.72-6.68l.73-257.15c0-7.41-5.19-16.44-11.64-20.17"/>
                    <path class="cls-18" d="M577.43,253.52a23.82,23.82,0,0,1,11.75,3.21,23.34,23.34,0,0,1,8.46,8.46C604.9,277.42,611,288.28,611,293.41s-2.13,14.34-2.13,14.34,2.38,1.71,1.32,7.07a10,10,0,0,1-5.38,7.18s-1.21,5.63-3.15,8.44a10.47,10.47,0,0,1-.86,1.07h0l0,7.77a83.06,83.06,0,0,1,6.65,5.78c1.93,2.15,6.21,14.62,6.21,14.62l.59,3,4.45,4.11s16.18,16.87,19.44,22.69c1.7,3,3.74,13.39,5.3,22.62a2.63,2.63,0,0,1-1.87-.4l-115.7-66.8a6.09,6.09,0,0,1-1.73-1.58c2.11-7.54,5.12-16.54,7.75-17.75,4.62-2.12,21.72,2.11,21.72,2.11l1.2-2.22s1.51-7.33,2.84-7.59c1.11-.21,9.9,1.23,12.95,1.74l0-7.59-2.65-9.74a1.18,1.18,0,0,1-.31-.14,10.92,10.92,0,0,1-2.66-2.6c-2.08-2.57-3.1-7.78-3.83-14.53-.69-6.4,1.55-5.26,1.78-5.13h0s-1.15-12-1.15-14.86.48-14.26,5.4-14.84c3.28-.39,6.75,1.23,8.69,2.36a18.44,18.44,0,0,1,1.57,1m64.45,28.32-115.7-66.8c-1.8-1-3.26-.21-3.27,1.85l-.35,122.35a7.15,7.15,0,0,0,3.24,5.61l115.7,66.8c1.8,1,3.26.21,3.27-1.85l.35-122.35a7.15,7.15,0,0,0-3.24-5.61"/>
                    <g class="cls-29">
                      <polyline class="cls-20" points="554.75 325.44 553.55 327.66 585.53 360.82 618.64 366.77 614.19 362.66 613.6 359.67 585.53 359.12 554.75 325.44"/>
                      <path class="cls-21" d="M570.55,319.59c-3.05-.51-11.84-2-12.95-1.74-1.34.26-2.84,7.59-2.84,7.59l30.78,33.68,28.07.55s-4.28-12.47-6.21-14.62a83.06,83.06,0,0,0-6.65-5.78l0,7.07,2.48,4.85-17.73,6.52-20.61-27.8,5.67-2.38,0-7.94"/>
                      <path class="cls-21" d="M553.55,327.66s-17.1-4.24-21.72-2.11c-2.63,1.21-5.64,10.21-7.75,17.75a6.09,6.09,0,0,0,1.73,1.58l115.7,66.8a2.63,2.63,0,0,0,1.87.4c-1.56-9.23-3.6-19.59-5.3-22.62-3.26-5.82-19.44-22.69-19.44-22.69l-33.11-5.94-32-33.17"/>
                      <path class="cls-22" d="M600.77,331.51c-2.45,2.69-7.78,6.22-13.77,2.76a13.78,13.78,0,0,1-1.46-1A35.65,35.65,0,0,1,575,320.2s1.62,5.38,7,12.45,21.15,18.54,21.15,18.54l-2.48-4.85,0-7.07,0-7.77h0"/>
                      <path class="cls-10" d="M572.81,265.3c-2-1.18-5.25,5.27-5.25,5.27l-.2,16.47a4.33,4.33,0,0,1-1.18-2c-.44-1.46-3.26-5.14-3.26-5.14h0c-.23-.13-2.47-1.27-1.78,5.13.73,6.75,1.75,12,3.83,14.53a10.92,10.92,0,0,0,2.66,2.6,1.18,1.18,0,0,0,.31.14l2.65,9.74,0,7.59,0,7.94-5.67,2.38,20.61,27.8,17.73-6.52s-15.73-11.48-21.15-18.54-7-12.45-7-12.45a35.65,35.65,0,0,0,10.53,13.09,13.78,13.78,0,0,0,1.46,1c6,3.46,11.32-.07,13.77-2.76a10.47,10.47,0,0,0,.86-1.07c1.95-2.81,3.15-8.44,3.15-8.44a10,10,0,0,0,5.38-7.18c1.05-5.36-1.32-7.07-1.32-7.07l-.16-.11c-1.72-1-3.29,3.44-3.87,3.94a.17.17,0,0,1-.21,0c-.51-.29-1-2.94-1-2.94s-.74-1.62-6.08-8.81a163.92,163.92,0,0,1-11-18l1.22,3.27c1.22,3.27,6.93,13.07,6.93,13.07a58.28,58.28,0,0,1-10.39-12.33c-5-7.86-10.81-19.74-10.81-19.74a1.94,1.94,0,0,0-.72-.85"/>
                      <path class="cls-23" d="M589.18,256.73a23.82,23.82,0,0,0-11.75-3.21,18.44,18.44,0,0,0-1.57-1c-1.95-1.12-5.42-2.75-8.69-2.36-4.92.58-5.39,11.94-5.4,14.84s1.15,14.86,1.15,14.86,2.82,3.68,3.26,5.14a4.33,4.33,0,0,0,1.18,2l.2-16.47s3.21-6.45,5.25-5.27a1.94,1.94,0,0,1,.72.85S579.3,278,584.33,285.9a58.28,58.28,0,0,0,10.39,12.33s-5.71-9.8-6.93-13.07l-1.22-3.27a163.92,163.92,0,0,0,11,18c5.34,7.19,6.08,8.81,6.08,8.81s.46,2.64,1,2.94a.17.17,0,0,0,.21,0c.57-.5,2.14-4.93,3.87-3.94l.16.11s2.11-9.22,2.13-14.34-6.06-16-13.32-28.22a23.34,23.34,0,0,0-8.46-8.46"/>
                    </g>
                    <path class="cls-18" d="M639.84,425,527.41,360.09c-2.7-1.56-4.9-.31-4.9,2.79l0,15.88a10.73,10.73,0,0,0,4.87,8.43l112.43,64.91c2.7,1.56,4.9.31,4.9-2.79l0-15.88a10.74,10.74,0,0,0-4.87-8.44"/>
                    <path class="cls-24" d="M639.37,464.7,527.65,400.2c-2.9-1.67-5.25-.33-5.26,3a11.52,11.52,0,0,0,5.23,9.05l111.72,64.5c2.9,1.67,5.25.33,5.26-3a11.52,11.52,0,0,0-5.23-9.05"/>
                    <path class="cls-24" d="M639.31,487.29l-111.72-64.5c-2.9-1.67-5.25-.34-5.26,3a11.52,11.52,0,0,0,5.23,9.05l111.72,64.5c2.9,1.67,5.25.33,5.26-3a11.5,11.5,0,0,0-5.23-9"/>
                    <path class="cls-24" d="M583.82,477.88l-56.3-32.5c-2.9-1.67-5.25-.33-5.26,3a11.52,11.52,0,0,0,5.23,9.05l56.3,32.5c2.89,1.67,5.24.33,5.25-3a11.51,11.51,0,0,0-5.22-9"/>
                  </g>
                  <g>
                    <path class="cls-18" d="M566,329.73s-6.53-8.6-7.51-11.68-1.54-35.58-1.08-44.36,7.19-28.78,28.05-17l.45.26c20.5,11.83,26.59,32.27,27.86,42.74s-.33,38.27.75,44.42-5.5,9.78-7.46,9.9l-2,.12.09-8.64c-1.75-1.43-4.14-3.24-7.32-5.37l0,7,.59.82c6.32,6.77,27.84,30.16,30.47,37.09,1.54,4.05,2.09,13.45,2.26,21.85l-94.74-54.7c.21-5.19.46-10.11.74-11.95.67-4.51,2.49-11,9.55-11.08s24.93,2.08,24.93,2.08l.12-5.53c-2.67-1.27-4.9-2.28-6.43-3,.29,3.89.62,7,.62,7M641.88,283l-115.7-66.8c-1.79-1-3.25-.2-3.26,1.86l-.35,122.35a7.15,7.15,0,0,0,3.24,5.62l115.7,66.8c1.8,1,3.26.21,3.27-1.86l.35-122.35a7.15,7.15,0,0,0-3.24-5.62"/>
                    <g class="cls-30">
                      <path class="cls-31" d="M571.69,331.2s-17.88-2.15-24.93-2.08-8.88,6.56-9.55,11.08c-.27,1.84-.53,6.76-.74,11.95l94.74,54.7c-.16-8.4-.71-17.8-2.26-21.85-2.64-6.93-24.16-30.32-30.47-37.09l5.62,7.77c-1.07,9-18.33,19.35-18.33,19.35s-3-4.58-8.91-16.08-13.06-26.43-13.06-26.43v0l7.89-1.3"/>
                      <path class="cls-9" d="M604.11,355.67c-5.35,4-12.79,3.22-20.22-1.07s-14.77-12-20.07-22.08c0,0,7.18,14.93,13.06,26.43S585.78,375,585.78,375s17.26-10.31,18.33-19.35"/>
                      <path class="cls-32" d="M565.37,303.76c-.24,3.37-.4,6.89-.41,9.4,0,2.87.2,6.45.42,9.55,1.53.68,3.76,1.7,6.43,3l.13-5.89-5.09-14.94a1.18,1.18,0,0,1-.31-.14,6.26,6.26,0,0,1-1.17-.94m40.06,19.75a8.16,8.16,0,0,1-1.71,1.08s-1.21,5.63-3.15,8.44a13,13,0,0,1-2.72,2.77l0,4.33c3.18,2.14,5.57,3.94,7.32,5.37l.23-22h0"/>
                      <path class="cls-22" d="M597.85,335.79c-2.81,2.15-7.16,3.81-11.92,1.06a13.76,13.76,0,0,1-1.45-1,35.7,35.7,0,0,1-10.53-13.1s1.62,5.39,7,12.45,23.12,20.43,23.12,20.43l-5.62-7.77-.59-.82,0-7,0-4.33"/>
                      <path class="cls-9" d="M591.74,280.44s-6.81,11-12,13.46-12-.41-12.9-.41c-.54,0-1.13,4.95-1.51,10.28a6.26,6.26,0,0,0,1.17.94,1.18,1.18,0,0,0,.31.14l5.09,14.94-.13,5.89-.12,5.53-7.89,1.3v0c5.31,10.06,12.69,17.81,20.07,22.08s14.88,5.05,20.22,1.07c0,0-17.7-13.37-23.12-20.43s-7-12.45-7-12.45a35.7,35.7,0,0,0,10.53,13.1,13.76,13.76,0,0,0,1.45,1c4.76,2.75,9.1,1.09,11.92-1.06a13,13,0,0,0,2.72-2.77c1.94-2.81,3.15-8.44,3.15-8.44a8.16,8.16,0,0,0,1.71-1.08c.24-.28,6.12-7.39,2.35-13.17,0,0-8.32-7.73-11.25-16.21s-4.77-13.69-4.77-13.69"/>
                      <path class="cls-27" d="M585.92,257l-.45-.26c-20.86-11.79-27.59,8.2-28.05,17s.1,41.28,1.08,44.36S566,329.73,566,329.73s-.33-3.13-.62-7c-.23-3.1-.43-6.68-.42-9.55,0-2.51.16-6,.41-9.4.38-5.33,1-10.28,1.51-10.28.87,0,7.75,2.84,12.9.41s12-13.46,12-13.46,1.85,5.21,4.77,13.69,11.25,16.21,11.25,16.21c3.77,5.78-2.11,12.89-2.35,13.17h0l-.23,22-.09,8.64,2-.12c2-.12,8.54-3.74,7.46-9.9s.53-33.88-.75-44.42-7.37-30.9-27.86-42.74"/>
                    </g>
                  </g>
                </g>
              </g>
              <path class="cls-33" d="M541.49,203,384.3,112.28c-7.4-4.27-13.42-.84-13.45,7.66l-.79,278.75,184,105.79.79-278.31C554.87,217.67,548.89,207.31,541.49,203Z"/>
              <g>
                <path class="cls-10" d="M384.31,429a13.21,13.21,0,0,1-6-10.39c0-3.82,2.71-5.36,6-3.44l64.6,37.3a13.21,13.21,0,0,1,6,10.38c0,3.82-2.71,5.36-6,3.44L384.31,429m.07-25.92a13.21,13.21,0,0,1-6-10.39c0-3.82,2.71-5.35,6-3.43l128.21,74a13.2,13.2,0,0,1,6,10.38c0,3.82-2.71,5.36-6,3.44l-128.21-74m.07-25.92a13.21,13.21,0,0,1-6-10.39c0-3.82,2.71-5.36,6-3.44l128.21,74a13.21,13.21,0,0,1,6,10.39c0,3.82-2.71,5.36-6,3.44l-128.21-74m-.33-28.75a12.32,12.32,0,0,1-5.59-9.68l.05-18.22c0-3.56,2.53-5,5.63-3.21l129,74.49a12.32,12.32,0,0,1,5.59,9.68l-.05,18.22c0,3.55-2.53,5-5.63,3.2l-129-74.49m-1.74-48.57a8.2,8.2,0,0,1-3.72-6.44l.4-140.41c0-2.36,1.68-3.32,3.75-2.13l132.77,76.65A8.2,8.2,0,0,1,519.3,234l-.4,140.41c0,2.36-1.68,3.32-3.75,2.13L382.39,299.86m145.47-89.27L370.67,119.83c-7.4-4.27-13.42-.84-13.45,7.66l-.84,295.09c0,8.51,6,18.87,13.36,23.14l157.19,90.75c7.4,4.27,13.42.84,13.45-7.66l.84-295.09c0-8.51-6-18.87-13.36-23.14"/>
                <path class="cls-18" d="M441.62,195a27.33,27.33,0,0,1,13.48,3.68,26.79,26.79,0,0,1,9.71,9.71c8.33,14,15.3,26.5,15.29,32.38s-2.44,16.46-2.44,16.46,2.73,2,1.52,8.11a11.53,11.53,0,0,1-6.17,8.24s-1.39,6.47-3.62,9.69a12,12,0,0,1-1,1.23h0l0,8.91a95.32,95.32,0,0,1,7.63,6.63c2.22,2.46,7.12,16.78,7.12,16.78l.67,3.43,5.11,4.71s18.56,19.36,22.31,26c1.95,3.48,4.29,15.36,6.08,26a3,3,0,0,1-2.14-.46L382.39,299.86a7,7,0,0,1-2-1.81c2.42-8.65,5.87-19,8.89-20.37,5.3-2.44,24.93,2.42,24.93,2.42l1.38-2.55s1.73-8.42,3.26-8.72c1.27-.24,11.36,1.41,14.86,2l0-8.71-3-11.18a1.35,1.35,0,0,1-.35-.16,12.53,12.53,0,0,1-3.06-3c-2.38-2.95-3.56-8.92-4.39-16.67-.79-7.35,1.78-6,2-5.89h0s-1.32-13.72-1.31-17.05.55-16.36,6.2-17c3.76-.45,7.74,1.42,10,2.71a21.16,21.16,0,0,1,1.8,1.15m74,32.5L382.81,150.89c-2.06-1.19-3.74-.24-3.75,2.13l-.4,140.41a8.2,8.2,0,0,0,3.72,6.44l132.77,76.65c2.06,1.19,3.74.24,3.75-2.13L519.3,234a8.2,8.2,0,0,0-3.72-6.44"/>
                <g class="cls-34">
                  <polyline class="cls-20" points="415.6 277.56 414.22 280.11 450.91 318.17 488.91 324.99 483.8 320.28 483.12 316.84 450.91 316.21 415.6 277.56"/>
                  <path class="cls-21" d="M433.72,270.84c-3.5-.59-13.59-2.24-14.86-2-1.53.3-3.26,8.72-3.26,8.72l35.32,38.65,32.21.63s-4.91-14.31-7.12-16.78a95.32,95.32,0,0,0-7.63-6.63l0,8.11,2.84,5.57-20.35,7.48-23.65-31.9,6.5-2.73,0-9.12"/>
                  <path class="cls-21" d="M414.22,280.11s-19.63-4.86-24.93-2.42c-3,1.38-6.47,11.71-8.89,20.37a7,7,0,0,0,2,1.81l132.77,76.65a3,3,0,0,0,2.14.46c-1.8-10.59-4.14-22.48-6.08-26-3.74-6.68-22.31-26-22.31-26l-38-6.82-36.69-38.06"/>
                  <path class="cls-22" d="M468.39,284.52c-2.81,3.09-8.93,7.13-15.8,3.17a15.81,15.81,0,0,1-1.67-1.12,40.91,40.91,0,0,1-12.08-15s1.86,6.18,8.08,14.28,24.27,21.28,24.27,21.28l-2.84-5.57,0-8.11,0-8.91h0"/>
                  <path class="cls-10" d="M436.32,208.55c-2.35-1.35-6,6.05-6,6.05l-.23,18.9a5,5,0,0,1-1.36-2.35c-.51-1.67-3.75-5.89-3.75-5.89h0c-.26-.15-2.83-1.46-2,5.89.83,7.75,2,13.72,4.39,16.67a12.53,12.53,0,0,0,3.06,3,1.35,1.35,0,0,0,.35.16l3,11.18,0,8.71,0,9.12-6.5,2.73,23.65,31.9,20.35-7.48s-18.05-13.17-24.27-21.28-8.08-14.28-8.08-14.28a40.91,40.91,0,0,0,12.08,15,15.81,15.81,0,0,0,1.67,1.12c6.87,4,13-.08,15.8-3.17a12,12,0,0,0,1-1.23c2.23-3.22,3.62-9.69,3.62-9.69a11.53,11.53,0,0,0,6.17-8.24c1.21-6.15-1.52-8.11-1.52-8.11l-.18-.12c-2-1.14-3.78,3.95-4.44,4.52a.19.19,0,0,1-.25,0c-.58-.34-1.11-3.37-1.11-3.37s-.85-1.86-7-10.11-12.58-20.61-12.58-20.61l1.4,3.75c1.4,3.75,7.95,15,7.95,15a66.88,66.88,0,0,1-11.92-14.15c-5.78-9-12.4-22.66-12.4-22.66a2.23,2.23,0,0,0-.82-1"/>
                  <path class="cls-23" d="M455.1,198.72A27.33,27.33,0,0,0,441.62,195a21.16,21.16,0,0,0-1.8-1.15c-2.24-1.29-6.22-3.15-10-2.71-5.64.67-6.19,13.7-6.2,17S425,225.26,425,225.26s3.23,4.22,3.75,5.89a5,5,0,0,0,1.36,2.35l.23-18.9s3.68-7.4,6-6.05a2.23,2.23,0,0,1,.82,1s6.62,13.64,12.4,22.66a66.88,66.88,0,0,0,11.92,14.15s-6.55-11.24-7.95-15l-1.4-3.75S458.57,240,464.7,248.2s7,10.11,7,10.11.53,3,1.11,3.37a.19.19,0,0,0,.25,0c.66-.57,2.46-5.66,4.44-4.52l.18.12s2.42-10.58,2.44-16.46-7-18.35-15.29-32.38a26.79,26.79,0,0,0-9.71-9.71"/>
                </g>
                <path class="cls-18" d="M513.23,391.81l-129-74.49c-3.1-1.79-5.62-.35-5.63,3.21l-.05,18.22a12.32,12.32,0,0,0,5.59,9.68l129,74.49c3.1,1.79,5.62.35,5.63-3.2l.05-18.22a12.32,12.32,0,0,0-5.59-9.68"/>
                <path class="cls-24" d="M512.7,437.37l-128.21-74c-3.32-1.92-6-.38-6,3.44a13.21,13.21,0,0,0,6,10.39l128.21,74c3.32,1.92,6,.38,6-3.44a13.21,13.21,0,0,0-6-10.39"/>
                <path class="cls-24" d="M512.62,463.29l-128.21-74c-3.32-1.92-6-.39-6,3.43a13.21,13.21,0,0,0,6,10.39l128.21,74c3.32,1.92,6,.38,6-3.44a13.2,13.2,0,0,0-6-10.38"/>
                <path class="cls-24" d="M448.95,452.49l-64.6-37.3c-3.32-1.92-6-.38-6,3.44a13.21,13.21,0,0,0,6,10.39l64.6,37.3c3.32,1.91,6,.37,6-3.44a13.21,13.21,0,0,0-6-10.38"/>
              </g>
            </g>
          </g>
          <g class="cls-35">
            <path class="cls-36" d="M509,466.7c6-10,9.17-23.13,9.21-38.09.15-51.43-36.15-114.3-80.91-140.14-22.41-12.94-43.69-14.91-59.92-5.57S352.33,311.38,352.26,337c-.15,51.43,36.15,114.3,80.91,140.14,21.88,12.63,43.22,14.72,59.2,5.95l46.81,64.09v-37Zm-11.79-46c-.05,18.69-6.25,32.53-17.46,39s-26.53,4.86-42.92-4.6c-35.18-20.31-63.7-69.71-63.59-110.12.05-18.69,6.25-32.53,17.46-39A30.42,30.42,0,0,1,406.09,302c8.37,0,17.76,2.86,27.55,8.51C468.81,330.84,497.33,380.24,497.22,420.66Z"/>
          </g>
          <g>
            <g>
              <g>
                <path class="cls-33" d="M356.72,350.28c.06-20.65,7.38-35.2,19.16-42l-20.47,11.9c-11.79,6.85-19.1,21.4-19.16,42a112.64,112.64,0,0,0,5.46,33.49l20.15-12.91A111.89,111.89,0,0,1,356.72,350.28Z"/>
                <path class="cls-37" d="M361.86,382.76l-20.15,12.91c10.1,32.4,33.14,64.31,59.94,79.78l20.47-11.9C395,447.92,371.79,415.51,361.86,382.76Z"/>
              </g>
              <g class="cls-6">
                <path class="cls-37" d="M468.79,468.09,448.31,480c-11.94,6.94-28.46,6-46.66-4.53l20.47-11.9C440.33,474.07,456.85,475,468.79,468.09Z"/>
                <path class="cls-37" d="M345.69,303.4l20.47-11.9c14.44-8.39,34.42-7.23,56.44,5.49l-20.47,11.9C380.1,296.17,360.12,295,345.69,303.4Z"/>
              </g>
              <g>
                <path class="cls-37" d="M422.59,297l-20.47,11.9c34.65,20,64.1,62.72,74.78,104.6l20.21-13C486.21,359,457,316.83,422.59,297Z"/>
                <path class="cls-33" d="M476.91,413.48a130.4,130.4,0,0,1,4.31,32.39c-.07,25-8.92,42.56-23.17,50.85l20.47-11.9c14.25-8.28,23.1-25.87,23.17-50.85a131.14,131.14,0,0,0-4.57-33.45Z"/>
              </g>
              <g class="cls-38">
                <path class="cls-39" d="M417.9,332.68c14.51,8.38,27.92,21.58,38.77,37.07C444.81,349,428.3,330.82,410,320.28c-36.18-20.89-65.71-4.06-65.83,37.52-.07,24.89,10.43,53.09,26.62,76.2-11.64-20.36-18.81-43.21-18.76-63.79C352.19,328.62,381.72,311.79,417.9,332.68Z"/>
                <path class="cls-40" d="M409.61,471.07c36.18,20.89,65.71,4.06,65.82-37.51.06-20.59-7.11-43.44-18.76-63.81-10.85-15.48-24.26-28.69-38.77-37.07-36.18-20.89-65.71-4.06-65.83,37.52-.06,20.58,7.11,43.43,18.76,63.79C381.68,449.48,395.09,462.68,409.61,471.07Z"/>
              </g>
              <path class="cls-41" d="M402.12,308.88c43.75,25.26,79.23,86.71,79.09,137s-35.86,70.62-79.61,45.37-79.23-86.72-79.09-137S358.36,283.62,402.12,308.88Zm-.47,166.57c36.18,20.89,65.71,4.06,65.82-37.51s-29.22-92.39-65.4-113.28-65.71-4.06-65.83,37.52,29.23,92.39,65.4,113.27"/>
              <path class="cls-42" d="M404.1,358.5c-19.94-11.51-36.22-2.24-36.28,20.68s16.1,50.92,36,62.44,36.22,2.24,36.28-20.68S424,370,404.1,358.5Z"/>
              <path class="cls-10" d="M417,394.95a3.43,3.43,0,0,0-3.22-.36c-4.64,2.15-9.27,4.32-13.91,6.48q-2.75-5.35-5.48-10.7a8.72,8.72,0,0,0-3.17-3.69c-3.49-2-6.72,1.69-3.71,7.59q4.23,8.26,8.45,16.47a8.28,8.28,0,0,0,3.17,3.44,4.13,4.13,0,0,0,3.67.51q8.89-4.14,17.79-8.29c3.61-1.68.25-9.23-3.59-11.45"/>
            </g>
            <g>
              <g class="cls-6">
                <path class="cls-41" d="M486.47,476.41l40.45,50.42c-.43-.54-2-.13-4.53,1.31l-40.45-50.42C484.43,476.28,486,475.87,486.47,476.41Z"/>
                <path class="cls-9" d="M522.38,528.14c4.13-2.38,5.83-2,3.79,1s-7,7.22-11.17,9.6-5.83,2-3.79-1S518.25,530.52,522.38,528.14Z"/>
              </g>
              <g>
                <path class="cls-33" d="M470.76,487.32c-.81,1.16-1,1.92-.75,2.28L510.46,540c-.28-.35-.06-1.12.75-2.28a28.32,28.32,0,0,1,4.22-4.49l-41.11-49.81A26.17,26.17,0,0,0,470.76,487.32Z"/>
                <path class="cls-41" d="M481.94,477.72a45.47,45.47,0,0,0-7.62,5.72l41.11,49.81a44.85,44.85,0,0,1,7-5.11Z"/>
              </g>
              <g>
                <path class="cls-13" d="M564.65,599.24c-.38,0-54.42-67.19-65.4-80.83a36,36,0,0,0-4.26,4.84c-1.24,1.78-1.59,3-1.15,3.5,0,0,62.62,77.87,63,77.9a16.12,16.12,0,0,0,22.95-1.32,17.22,17.22,0,0,1-15.15-4.09Z"/>
                <path class="cls-8" d="M581.46,584.21a.76.76,0,0,0-.1-.16l-.05-.09.05,0-62.22-77.56c-.67-.83-3.14-.19-7,2a70.49,70.49,0,0,0-12.93,9.94c11,13.65,65,80.8,65.4,80.83a17.22,17.22,0,0,0,15.15,4.09,16.09,16.09,0,0,0,1.67-19.11Z"/>
              </g>
            </g>
          </g>
        </g>
        <path class="cls-43" d="M481.21,445.87c.14-50.28-35.34-111.73-79.09-137-21.51-12.42-41.06-13.79-55.41-6,14.09-6.37,32.67-4.49,53,7.24,43.75,25.26,79.23,86.71,79.09,137-.07,25.56-9.35,43.37-24.2,51.4C470.85,491.13,481.14,472.8,481.21,445.87Z"/>
      </g>
      <g>
        <g>
          <g class="cls-6">
            <path class="cls-33" d="M347.76,265.84c1.59.92,2.23,3.31,1.44,5.35l-14.79,38c-.79,2-2.72,2.95-4.31,2L282.84,284c-1.59-.92-2.23-3.31-1.44-5.35l14.79-38c.79-2,2.72-2.95,4.31-2Z"/>
          </g>
          <g>
            <path class="cls-10" d="M286.83,279.78l.52-1.34,1.61.93-.52,1.34-1.61-.93m3.55,1.81.45-1.15,2.61,1.5L293,283.1l-2.61-1.5m3.47,2,1.3-3.34,2.6,1.5-1.3,3.34-2.6-1.5m-6-6.5.52-1.33,1.61.93-.52,1.33-1.61-.93m9.45,8.5,2.14-5.5,2.61,1.5-2.14,5.5-2.61-1.5m6.94,4,2.14-5.5,2.61,1.5-2.14,5.5-2.61-1.5m-15.35-15.18.52-1.34L291,274l-.52,1.34-1.61-.93m11.88,13.18,2.92-7.5,2.6,1.5-2.92,7.5-2.6-1.5m6.94,4,3.44-8.83,2.6,1.5-3.44,8.83-2.6-1.5m-17.79-19.86.52-1.34,1.61.93-.52,1.34-1.61-.93M317,297a1.27,1.27,0,0,1-.41-1.54l3.68-9.45a.88.88,0,0,1,1.24-.58l12.1,7a1.27,1.27,0,0,1,.41,1.54l-3.68,9.45a.88.88,0,0,1-1.24.58L317,297m-26-27.9.52-1.33,1.61.93L292.6,270l-1.61-.93m20.21,24.54,4.61-11.84,2.61,1.5-4.61,11.84-2.61-1.5m.27-17.14a1.57,1.57,0,0,1-.52-1.9,1.09,1.09,0,0,1,1.54-.72L335.27,287a1.58,1.58,0,0,1,.51,1.91,1.09,1.09,0,0,1-1.53.72l-22.78-13.15m2.08-5.35a1.57,1.57,0,0,1-.52-1.9,1.09,1.09,0,0,1,1.53-.72l22.78,13.15a1.57,1.57,0,0,1,.52,1.9,1.09,1.09,0,0,1-1.53.72l-22.78-13.15m2.08-5.35a1.57,1.57,0,0,1-.52-1.9,1.09,1.09,0,0,1,1.53-.72l22.78,13.15a1.57,1.57,0,0,1,.52,1.9,1.09,1.09,0,0,1-1.53.72l-22.78-13.15m-23.31-.14,7.72-19.84,15.45,8.92-7.72,19.84-15.45-8.92m24.3-5.62,1.48-3.79,24.83,14.33-1.48,3.79L316.63,260m29.92,9-47.25-27.28a.47.47,0,0,0-.67.31l-14.79,38a.69.69,0,0,0,.22.83l47.25,27.28a.47.47,0,0,0,.67-.31l14.79-38a.68.68,0,0,0-.22-.83"/>
            <path class="cls-18" d="M294.91,265.3l.25-.64c1.29-3.32,4.44-4.8,7-3.31l2.08,1.2c2.59,1.49,3.64,5.4,2.35,8.72l-.25.64-11.45-6.61m8.5-3.82c-2-1.16-2.83-4.2-1.83-6.77S305,251,307,252.15s2.83,4.19,1.82,6.77-3.45,3.73-5.45,2.57m12.1-6.78-15.45-8.92-7.72,19.84,15.45,8.92,7.72-19.84"/>
            <polyline class="cls-18" points="342.93 270.54 318.11 256.21 316.63 260 341.46 274.34 342.93 270.54"/>
            <path class="cls-24" d="M339.44,276.31l-22.78-13.15a1.09,1.09,0,0,0-1.53.72,1.57,1.57,0,0,0,.52,1.9l22.78,13.15a1.09,1.09,0,0,0,1.53-.72,1.57,1.57,0,0,0-.52-1.9"/>
            <path class="cls-24" d="M337.35,281.66l-22.78-13.15a1.09,1.09,0,0,0-1.53.72,1.57,1.57,0,0,0,.52,1.9l22.78,13.15a1.09,1.09,0,0,0,1.53-.72,1.57,1.57,0,0,0-.52-1.9"/>
            <path class="cls-24" d="M335.27,287,312.5,273.85a1.09,1.09,0,0,0-1.54.72,1.57,1.57,0,0,0,.52,1.9l22.78,13.15a1.09,1.09,0,0,0,1.53-.72,1.58,1.58,0,0,0-.51-1.91"/>
            <path class="cls-10" d="M307,252.15c-2-1.16-4.45,0-5.46,2.57s-.19,5.61,1.83,6.77,4.45,0,5.45-2.57.19-5.61-1.82-6.77"/>
            <path class="cls-10" d="M304.27,262.55l-2.08-1.2c-2.59-1.49-5.74,0-7,3.31l-.25.64,11.45,6.61.25-.64c1.29-3.32.24-7.23-2.35-8.72"/>
            <polyline class="cls-8" points="293.43 281.95 290.82 280.44 290.38 281.59 292.98 283.1 293.43 281.95"/>
            <polyline class="cls-8" points="297.75 281.76 295.15 280.26 293.85 283.6 296.45 285.1 297.75 281.76"/>
            <polyline class="cls-8" points="302.06 281.61 299.46 280.1 297.32 285.6 299.92 287.1 302.06 281.61"/>
            <polyline class="cls-8" points="306.31 281.61 303.71 280.11 300.79 287.61 303.39 289.11 306.31 281.61"/>
            <polyline class="cls-8" points="309 285.62 306.4 284.11 304.26 289.61 306.87 291.11 309 285.62"/>
            <polyline class="cls-8" points="313.77 284.28 311.17 282.78 307.74 291.61 310.33 293.12 313.77 284.28"/>
            <polyline class="cls-8" points="318.42 283.28 315.81 281.77 311.2 293.62 313.81 295.12 318.42 283.28"/>
            <polyline class="cls-24" points="293.12 268.67 291.51 267.74 290.99 269.08 292.6 270 293.12 268.67"/>
            <polyline class="cls-24" points="292.07 271.34 290.47 270.42 289.95 271.76 291.55 272.68 292.07 271.34"/>
            <polyline class="cls-24" points="291.04 274.01 289.43 273.09 288.91 274.43 290.51 275.35 291.04 274.01"/>
            <polyline class="cls-24" points="289.99 276.69 288.39 275.77 287.87 277.1 289.48 278.03 289.99 276.69"/>
            <polyline class="cls-24" points="288.95 279.37 287.35 278.44 286.83 279.78 288.43 280.7 288.95 279.37"/>
            <path class="cls-24" d="M333.63,292.39l-12.1-7a.88.88,0,0,0-1.24.58l-3.68,9.45A1.27,1.27,0,0,0,317,297l12.1,7a.88.88,0,0,0,1.24-.58l3.68-9.45a1.27,1.27,0,0,0-.41-1.54"/>
          </g>
        </g>
        <path class="cls-36" d="M168.12,244s-9.19,1.62-12.45,18.85-7.92,71.53-4.16,77,37.84,16.93,37.84,16.93l2.22-41.57Z"/>
        <g>
          <path class="cls-44" d="M157.53,623.83V653a14.7,14.7,0,0,0,13.56,10c10.78.44,14.26-9,18.09-17s18.43-15,18.43-26.08-2.12-14.61-6.43-17.39-16.85,4.46-16.85,4.46Z"/>
          <path class="cls-44" d="M254.22,660.69s-2.49,16.69.32,20.17,7.68,5.56,17.77,4.17A33,33,0,0,0,289,677.39s31.3-1.39,37.91-11.82a17.54,17.54,0,0,0,2.74-12.29,8.94,8.94,0,0,0-8.6-7.54c-10.57-.31-32-.54-34.54-1.21l-3.42-.88Z"/>
          <path class="cls-36" d="M175.44,646.08s11.3-7,13-10.43l1.74-3.48s6.61-48,12.52-73.73,14.64-51.78,19.49-69.71,9-50.27,9-50.27l-26.43-22.61L171.09,588l3.48,56.34Z"/>
          <g>
            <path class="cls-36" d="M292.47,468.23c-2.43-31.78-9-84.73-9-84.73l-98.08.7-1,11.64c10.56,11.37,32.48,18.73,46.93,20,16.07,1.42,26.89-2.47,37.26,9.88,8.24,9.81,9.26,23.62,9.6,36.43.91,34.42-.37,68.85-1.65,103.25L273.82,637c-.42,11.26-.9,22.56-3,33.62,11.14-3.43,14.89-11.84,14.89-11.84S294.91,500,292.47,468.23Z"/>
            <path class="cls-13" d="M276.48,565.42c1.28-34.4,2.55-68.84,1.65-103.25-.34-12.81-1.36-26.62-9.6-36.43-10.38-12.35-21.19-8.46-37.26-9.88-14.45-1.28-36.37-8.64-46.93-20l0,.19c-1,11.82-5.56,102.25-5.56,102.25s-6.24,19.17-10.09,32-13,93.34-13,93.34l3.25,10.65c3.25,10.65,16.52,11.82,16.52,11.82s.92.21.18-4.17c-1.3-7.67,5.91-48.69,7-61.56s23-104,22.26-113.38,0-51.12,0-51.12l6.26,7.3c6.26,7.3,22.55,20.88,22.55,20.88l13.27,75.81s-4.5,31.65-3.83,59.82S249,663.82,249,663.82s7.65,8.69,19.57,7.27a12.81,12.81,0,0,0,2.24-.49c2.1-11.06,2.59-22.36,3-33.62Z"/>
          </g>
          <g>
            <path class="cls-36" d="M273.85,400.14c11.81-5.31,16.89-17.8,11.47-28.59-2-3.94-3.77-7.68-4.76-10.16-3.12-7.82-7.46-79.88-11.09-84a11.9,11.9,0,0,0-.9-.89,32,32,0,0,0-22.6-2.35c-8.69,2.41-15.75,8.85-18.21,16.58s-.49,16.06,1.5,24l18,71.44a19,19,0,0,1-.46,11.61,29.4,29.4,0,0,1-9.11,12.22c.63,0,1.24.07,1.83.08C249.07,410.15,262.59,405.21,273.85,400.14Z"/>
            <path class="cls-13" d="M246.78,397.71a19,19,0,0,0,.46-11.61l-18-71.44c-2-7.91-4-16.21-1.5-24s9.53-14.17,18.21-16.58a32,32,0,0,1,22.6,2.35c-6-5.41-30.64-21.87-30.64-21.87s-31-11.14-41.27-13.9-34.11-.21-39,14.31,23.19,78.45,23.62,84.31-2.37,40-.81,46.65c1.51,6.43,36.93,22.54,57.16,24A29.4,29.4,0,0,0,246.78,397.71Z"/>
          </g>
          <path class="cls-45" d="M195.57,233.12l-.69,10.22s18.49,1.19,27.2,3.63l8.72,2.45s3.45-10.22,4.7-11.61,8.22-2.49,8.22-2.49L218.5,221.52Z"/>
          <path class="cls-22" d="M247.93,183.34s2.66,6.77,2.62,11.17-.68,11.67.42,13,3.26,4.24,2.86,5.8-3.28,3.13-3.28,3.13-.41,16.76-1.51,19-18.42,0-20-1.57l-1.57-1.57s-5.16.28-6.45-2.76-1-9.95-1-9.95Z"/>
          <g>
            <path class="cls-33" d="M205.65,213.7l30.9-26.06c2.75-2.32,5.62-4.81,6.72-8.23,1.19-3.69-.13-7.5-2.65-10.5a6.66,6.66,0,0,0-1.17-.5c-4.14-1.08-33.16-2.76-41.63,5.34a75.44,75.44,0,0,0-12.72,15.68s-6.28,12.85-4.59,21.17a16.6,16.6,0,0,0,1.46,7.74,12.87,12.87,0,0,0,8.3,3.17C196.15,221.48,201.16,217.49,205.65,213.7Z"/>
            <path class="cls-44" d="M240.63,168.92c2.52,3,3.83,6.81,2.65,10.5-1.1,3.42-4,5.92-6.72,8.23l-30.9,26.06c-4.49,3.79-9.5,7.78-15.38,7.82a12.87,12.87,0,0,1-8.3-3.17,18.28,18.28,0,0,0,3.89,5.7c6.26,6.26,11.05,15.84,18.79,16.21a36.54,36.54,0,0,0,10.74-1.56,8.58,8.58,0,0,0,6.14-9.68c-.5-3.09-.56-6.24,1-7.18,3.32-2,5.34-4.42,7.74-1.47s3.32,5.18,4.05,5.08,5.16-15.58,6.08-19.08,1.11-12,1.11-12,9.76-8.66,9-12.89C249.84,177.64,244.68,170.92,240.63,168.92Z"/>
          </g>
          <path class="cls-9" d="M194.05,237.68l36.75,11.74,7.13,5.17s-35.45.36-42.08-3.37-6.49-9.12-6.49-9.12Z"/>
        </g>
        <path class="cls-22" d="M326.67,317.93s-.55-9.42,0-14.51,2.49-8.12,5-12.42,2-8.05,3.56-7.93,3,3.74,2.78,6.58-1,8.49-1,8.49l1.36.94L343,286.63s5.47,12.42,5.47,16.79-7.12,17.5-7.12,17.5l-8.85,10.94Z"/>
        <path class="cls-13" d="M245.08,278.7c19.71-17.42,27.92,4.36,27.92,4.36l15.4,52L323,311.93s9.75,3.29,11,8.4a42.62,42.62,0,0,1,.8,11.51s-38.42,44.11-53,41.39-37.76-47.41-42.65-61.3S238.72,284.33,245.08,278.7Z"/>
        <polygon class="cls-36" points="196.9 373.35 197.15 401.13 202.29 404.8 208.4 398.2 196.9 373.35"/>
        <path class="cls-36" d="M239.56,411.49a35.05,35.05,0,0,1,2.85,2.61s15.58.65,29.93-4.89a28.84,28.84,0,0,0,17.54-18.11l-3.43-16.85-40.12,14.83Z"/>
        <path class="cls-13" d="M181.32,339.31,179,389.14s10.77,7.1,14.44,9.54l3.67,2.45,4-17.63,1.11,21.3s13.66,6.36,24.32,7.83a131.22,131.22,0,0,0,15.81,1.47s6.82-14.68,5.49-23.61L245,377.18Z"/>
      </g>
    </g>
    <g>
      <path class="cls-3" d="M546.76,627.38l-.16.1c-34.57-21.08-90.41-21.1-124.81-.09l-.31-.19c-34.42,21.23-34.25,55.77.41,77l1.1.65.15-.1a106.71,106.71,0,0,0,29.93,11.63l-3,4,30.12-.49c4.56.14,9.13.07,13.67-.22h0a131.42,131.42,0,0,0,32.7-6.17l.26.29a97.85,97.85,0,0,0,20.38-9.37C581.6,683.15,581.41,648.61,546.76,627.38ZM516.7,685.72a50.25,50.25,0,0,1-10.25,4.73l-.25-.28c-17,5.68-38.81,4.19-53.47-4.49l-.15.1-.41-.24c-17.75-10.88-17.94-28.53-.51-39.48l.3.18c17.74-10.94,46.69-10.94,64.54,0l.15-.09C534.33,657.09,534.38,674.81,516.7,685.72Z"/>
      <g class="cls-6">
        <polygon class="cls-36" points="512.66 588.73 512.56 627.43 482.29 646.1 482.39 607.4 512.66 588.73"/>
        <path class="cls-46" d="M482.39,607.4l-.1,38.7c-17.85-10.94-46.8-10.94-64.54,0l.1-38.7C435.59,596.46,464.54,596.46,482.39,607.4Z"/>
        <path class="cls-47" d="M512.66,588.73,482.39,607.4c-17.85-10.94-46.8-10.94-64.54,0l-30.47-18.67C421.81,567.5,478,567.5,512.66,588.73Z"/>
        <polygon class="cls-8" points="417.85 607.4 417.75 646.1 387.28 627.43 387.38 588.73 417.85 607.4"/>
        <path class="cls-48" d="M404.51,665.79l.1-19.71c0-7.14,4.43-14.26,13.24-19.69l-.1,19.71C408.94,651.53,404.53,658.65,404.51,665.79Z"/>
        <path class="cls-49" d="M495.84,636.86l-.1,29.21c0-7.23-4.47-14.47-13.45-20l.1-29.21C491.37,622.39,495.86,629.63,495.84,636.86Z"/>
        <polygon class="cls-50" points="418.63 666.39 418.53 686.1 388.78 705.09 388.89 685.38 418.63 666.39"/>
        <path class="cls-51" d="M361.58,665.66l.1-19.71c0,14,8.67,28.09,26.11,38.77l1.1.65-.1,19.71-1.1-.65C370.25,693.75,361.54,679.7,361.58,665.66Z"/>
        <path class="cls-52" d="M417.85,626.39c-17.73,10.93-17.64,28.73.22,39.67l.57.33-29.74,19-1.1-.65c-34.66-21.23-34.83-55.77-.41-77Z"/>
        <path class="cls-53" d="M538.77,627.5l-.1,38.7c0,13.85-8.6,27.68-25.7,38.23a97.84,97.84,0,0,1-20.38,9.37l.1-38.7a97.84,97.84,0,0,0,20.38-9.37C530.17,655.19,538.74,641.35,538.77,627.5Z"/>
        <path class="cls-54" d="M512.66,598.23c34.65,21.23,34.84,55.77.41,77a97.84,97.84,0,0,1-20.38,9.37L472.1,661.38a50.43,50.43,0,0,0,10.5-4.82c17.74-10.94,17.64-28.73-.2-39.67Z"/>
        <polygon class="cls-49" points="492.69 684.6 492.59 713.8 472 690.59 472.1 661.38 492.69 684.6"/>
        <path class="cls-55" d="M472.1,680.37l20.59,23.22c-33.1,11-75.38,8.13-103.81-8.72l29.74-19C433.28,684.56,455.05,686.05,472.1,680.37Z"/>
        <path class="cls-24" d="M492.69,703.59l-.1,10.22c-33.1,11-75.38,8.13-103.81-8.72l.1-10.22C417.32,711.72,459.6,714.62,492.69,703.59Z"/>
      </g>
    </g>
  </g>
</svg>
