<svg id="Layer_1" data-name="Layer 1" xmlns="http://www.w3.org/2000/svg" viewBox="0 0 451 451">
  <defs>
    <style>
      .cls-1 {
        fill: #d4f0ff;
      }

      .cls-2 {
        fill: #22435b;
      }

      .cls-3 {
        fill: #fcb9a9;
      }

      .cls-4 {
        fill: #b9d4ea;
      }

      .cls-5 {
        fill: #333;
      }

      .cls-6 {
        fill: #128fdb;
      }

      .cls-7 {
        fill: #0070c0;
      }

      .cls-8 {
        fill: #004772;
      }

      .cls-9 {
        fill: #f0f8ff;
      }

      .cls-10 {
        fill: #2b4f6f;
      }

      .cls-11 {
        fill: #efa89a;
      }

      .cls-12 {
        fill: #c46a58;
      }

      .cls-13 {
        fill: #273f63;
      }

      .cls-14 {
        fill: #417296;
      }

      .cls-15 {
        fill: #843843;
      }

      .cls-16 {
        fill: #682733;
      }

      .cls-17 {
        fill: #e6f0fc;
      }

      .cls-18 {
        fill: #541a27;
      }

      .cls-19 {
        fill: #dd968a;
      }

      .cls-20 {
        fill: #8adcf9;
      }

      .cls-21 {
        fill: #69c1f9;
      }
    </style>
  </defs>
  <title>Kaykushal</title>
  <g>
    <path class="cls-1" d="M375,157.49c-10.54-21.79-36.95-35.86-60.13-28.9-21.67,6.51-36,28.27-57.48,35.34-23.86,7.84-49.35-4.27-74.45-5.07-17.62-.56-35.69,4.88-48.91,16.54s-17.83,29.25-18.56,46.86c-.27,6.39,3.57,12.25,8,16.84s9.71,8.45,13.49,13.61c6.8,9.27,8,21.88,4.89,32.95s-10.05,20.73-18.21,28.83c-7.86,7.81-17,14.51-23.2,23.71-10.57,15.74-10.61,37.05-3,54.41a71.15,71.15,0,0,0,25,30.11l223.14-3.78c4.18-14.15-5.37-28.7-16.27-38.65s-24-18.32-30.63-31.52c-7.44-14.92-4.71-33.33,3.14-48s20.2-26.44,32.55-37.64,25.1-22.35,34.1-36.39C381.56,206.3,385.49,179.28,375,157.49Z"/>
    <path class="cls-2" d="M180.22,394.83s-2.5,13.85-2.68,16.35a12.1,12.1,0,0,0,.24,3.12,2.67,2.67,0,0,0,2.6,2.14l12,.16a2.67,2.67,0,0,0,2.44-1.48,10,10,0,0,0,1-4.38c0-3.49-4.94-15.91-4.94-15.91Z"/>
    <path class="cls-3" d="M179.43,384.91l.79,9.92-.59,9.11a3,3,0,0,0,2.94,3.14h6.68a3,3,0,0,0,2.92-3.36l-1.32-9.38,1-9.43Z"/>
    <path class="cls-4" d="M152.45,102a32.17,32.17,0,0,0-7.44,7.9c-2.68,4.42-24.6,45.93-24.6,45.93s-3.7,5.19-1.08,9.48,9.06,4.68,13.08,3.54,10.82-9.23,10.82-9.23L156.94,143Z"/>
    <g>
      <path class="cls-5" d="M228.52,409.93l-.18,6.39s18.9.67,20,0,1.19-4.93,0-6.39a12.09,12.09,0,0,1-1.79-4.11l-7.78-3.57-5.71,2-4.21,2Z"/>
      <path class="cls-5" d="M294.61,406.8l.8,8.67h14.3l2.86-1.25s1.25,1.52,4.47,1.79,15.46.54,17.07,0,.54-5.18-2.32-6.08-16.62-6.52-17.78-7.86l-1.16-1.34Z"/>
      <path class="cls-6" d="M301.58,220.92s4.47,46.2,6.08,71.76,5.9,101.88,7,104.2-1.61,4.83-1.61,4.83l-15.37,4.11L293.54,399l-7-35.75L284.06,310l-5.54-50.22s-5.72-3.22-6.26-3.22-7.15,5.36-7.15,5.36-7.33,55-8.4,62.73-1.07,36.82-4.11,53.44-2.5,30-4.29,30.56-7.74-5.57-13-3.93-6.75,5.18-6.75,5.18l-.18-7.33.18-9.12,3.53-101.88,2.86-66,32.59-10.33Z"/>
      <path class="cls-7" d="M300.77,210.73l.8,10.19s-42.63,1.61-50.27,4.56S239,238.61,237.1,253.36s-5.9,145.71-5.9,145.71,9.92-1.21,9.12,0-6.17,4.42-9.12,6.3a5.15,5.15,0,0,0-2.68,4.56s-2.28-4.29-1.34-6.7-.23-35.39-.23-35.39-1.43-23.19,0-34.85,1.84-16.76,1.84-21.85,0-64.61-.27-76.27a184.37,184.37,0,0,1,.67-20.78l3.75-9.34,20.11-7.28,48.53,1.74Z"/>
      <path class="cls-7" d="M283.68,244.6s-11.77,4.83-15.17,11.08l-3.4,6.26s4.2-3.22,5.68-1.07,9.16,36.82,9.87,48.44.71,33.24,2.14,42.36,8.58,42.9,8.4,46.29,0,7.15.89,8.22a17.48,17.48,0,0,0,3.22,2.5l17.69-7s-12.87.71-14.48.71,6.61-5.36,6.61-5.36-8,1.43-9.12.36-8.22-31.28-8.94-49,3.4-38.61,3.57-52.37S283.68,244.6,283.68,244.6Z"/>
      <rect class="cls-8" x="237.29" y="205.36" width="56.78" height="6.62"/>
      <rect class="cls-4" x="266.44" y="204.92" width="12.28" height="7.5" rx="2.43" ry="2.43"/>
      <path class="cls-6" d="M220.61,99.07,243,88h40.79s12,4.35,14.29,6.46,7,39.65,7,39.65L300.69,159l1.56,15.55,5.67,41.82s-1.07,1.61-4.56,1.61h-9.47s-2.06.27-2.77-1.25-2.41-12-2.41-12H257.88s-.71,11.65-1.52,13.24-5.36,1.72-5.36,1.72H236.57l-3.35-35,11.8-23.5Z"/>
      <path class="cls-7" d="M235.22,107.51s5.87,18.88,9.38,21.31,5.9,1.34,5.9,1.34,42.56-2.21,45.11-3.82,4-12.52,4-12.52L310,136.2l-8.59,26.34.82,12-13.54-4.16-30.67,2s-14,7.1-17.19,10.32-4.29,37-4.29,37-10.72-.13-11.53-.94,7.1-46.25,7.1-53.49-3.35-52-3.35-52Z"/>
      <path class="cls-7" d="M253.54,79.13,243,88v26.27L249.3,119l-4.2,5,12.81,30.92h29.6l5.85-33.78L288.71,117l3.75-3.77s-4.76-22-8.72-25.2a39.82,39.82,0,0,0-7-4.66Z"/>
      <path class="cls-4" d="M263.11,201.35a43,43,0,0,1-5.2.88c0,1.61,0,2.52,0,2.52h30.83s-1-71.76-3.66-88.56A202.85,202.85,0,0,0,278.66,88l-1.79.53c1.15,5.57,5.26,27.41,6.75,61.85C285.36,190.62,268.31,200.14,263.11,201.35Z"/>
      <path class="cls-9" d="M276.86,88.56l-24.61,7.29s3.76,23.89,5,41l25.06-7.13A355.85,355.85,0,0,0,276.86,88.56Z"/>
      <path class="cls-9" d="M257.91,202.23a43,43,0,0,0,5.2-.88c4.79-1.11,19.63-9.3,20.58-42L258,172.4C258.07,185.1,258,197.16,257.91,202.23Z"/>
      <path class="cls-4" d="M283.62,150.41c-.33-7.51-.78-14.42-1.29-20.7l-25.06,7.13c0,.38.06.77.08,1.15.51,7.53.68,21.32.7,34.41l25.64-13.09C283.76,156.52,283.75,153.57,283.62,150.41Z"/>
      <path class="cls-6" d="M226.24,164.75a13.49,13.49,0,0,0,9,6.3c6.43,1.34,12.47-2.28,17-4,3.29-1.26,28.4-12.32,42.1-18.38l8.87-3.92-15,17.56s17.65,3.4,24.89.71,7-22.52,4.69-31.37-6.43-23.86-11.8-30.3S296.75,94,296.75,94l6.47,50.76-10.5,4.62s-4.52-3.94-6.07-7.77c-1.35-3.32-5.23-6.19-5.23-6.19l-36.16,11s-4.83,2.28-6.3,3.75l-1.47,1.47a18.34,18.34,0,0,1,1.61-6.22,10.58,10.58,0,0,1,3.08-4.23s-5-26.81-7-33.65-12.33-9.92-14.61-8.45-4.83,10.46-2.95,23.19S226.24,164.75,226.24,164.75Z"/>
      <polygon class="cls-7" points="288.21 162.29 270.01 159.31 288.71 150.97 288.21 162.29"/>
      <path class="cls-4" d="M253.4,79.89l-4.1,5.64,2.95,10.32,9.38,6.84,4.83-6.3,8.16,6.3s4-8.18,4-11.4V87.14l-3.16-6.3Z"/>
      <g>
        <path class="cls-10" d="M280.24,29.45c-1.81-1.57-5.3-3.25-12.28-3.07s-14.33,2.83-16.5,5.3-6,5.72-6,9.51c0,.14,0,.3,0,.47A36.63,36.63,0,0,0,258,38.28c2.53-1.24,4.86-2.82,7.32-4.19a21.23,21.23,0,0,1,7.88-2.85,10.06,10.06,0,0,1,7.87,2.24,17.59,17.59,0,0,1,2.58,3.31C282.68,33.79,281.31,30.38,280.24,29.45Z"/>
        <path class="cls-2" d="M281.05,33.47a10.06,10.06,0,0,0-7.87-2.24,21.23,21.23,0,0,0-7.88,2.85c-2.46,1.37-4.8,3-7.32,4.19a36.63,36.63,0,0,1-12.53,3.39c.25,4.23,3.6,15.55,3.6,15.55l3.31,6.86h15.84L281,59.2s3.85-16.08,3.79-17.82a24.49,24.49,0,0,0-1.13-4.6A17.59,17.59,0,0,0,281.05,33.47Z"/>
      </g>
      <path class="cls-11" d="M253.54,79.13l-.14,4.6s6.95,9.8,12.39,11.45c0,0,8.89-6.23,9.43-10.32s.16-5,.16-5l.29-10.63-19.81,7.34C255.71,76.58,253.54,79.13,253.54,79.13Z"/>
      <path class="cls-12" d="M253.42,64.08l.12,15.05s2.39-.81,6.9,1.7,10.68-1.45,12.11-3.78A19.2,19.2,0,0,0,274.62,72Z"/>
      <g>
        <path class="cls-11" d="M258.39,66.47c-.41-1.66-1.14-3.22-1.65-4.85-1.44-4.69-.9-9.77-1.32-14.65-.09.15-.18.29-.28.45a13.85,13.85,0,0,0-2.41,6.26l.16,6.3H252a9,9,0,0,0-2.65-3.85c-1.69-1.12-2.49,1.24-1.93,4.3s2.17,5.1,3.57,5.42a3.13,3.13,0,0,0,2,0s1.69,6.58,6.34,10.48c.61.51,1.18.95,1.7,1.33a12.1,12.1,0,0,1-1.55-3.57C258.85,71.59,259,69,258.39,66.47Z"/>
        <path class="cls-3" d="M283.45,53.84a2.09,2.09,0,0,0-2.29,1.89c-.4,1.73-1,1.77-1,1.77l-.12-10s-.2-1.12-.56-2.61-.6-3.09-.6-3.09a34.15,34.15,0,0,0-4.5-2.09c-1.32-.36-18.15,2.29-18.15,2.29s1,1.91-.85,5c.42,4.88-.12,10,1.32,14.65.5,1.63,1.24,3.19,1.65,4.85.61,2.49.45,5.12,1.08,7.61A12.1,12.1,0,0,0,261,77.65c3.47,2.49,5.17,2.28,6.85,2.21,1.93-.08,3.93.32,6.91-4.09a38.25,38.25,0,0,0,4.82-11.28l.28-1.28s4.3-.28,4.42-4.22S284.25,53.84,283.45,53.84Z"/>
      </g>
      <g>
        <path class="cls-11" d="M249.12,145.22a12.57,12.57,0,0,1,2.56-3.7l-7.14-12-4.69-2.32s-6.09.41-6,1.07a2.89,2.89,0,0,0,1.09,2,25.8,25.8,0,0,0,4,.37l3.25,2.6-4.25-1.11s-5.47.6-5.78,1.12a1.3,1.3,0,0,0,.62,1.75c.72.34,4.92.3,4.92.3l3.64,1.53-3.94-.91s-4.19.09-4.81.46-.91,1.86,1.2,2.44a50.35,50.35,0,0,0,5.3,1l1.72,1.26s-5.54-1-6.47-.71-.79,1.31.49,2.2,5.67,2.27,6.36,2.76a14,14,0,0,1,1.54,2.36c1.37-.74,2.55-1.3,2.55-1.3Z"/>
        <path class="cls-9" d="M257.05,142.24l-4.53-1.5a10.83,10.83,0,0,0-.84.78,12.57,12.57,0,0,0-2.56,3.7l7.16-2.18A11,11,0,0,1,257.05,142.24Z"/>
      </g>
      <path class="cls-11" d="M292.75,148.26a13.35,13.35,0,0,0,4.07-1.47,17,17,0,0,0,3.49-3.25l2.82.36-1.3-10.18-2-1.07,1.89.34-.34-2.7a38.1,38.1,0,0,0-5.21-1c-1.63-.07-7.12,7.4-7.12,7.4Z"/>
      <path class="cls-9" d="M291.93,141.24a11.94,11.94,0,0,0-2.87-4.53,10.83,10.83,0,0,0-.84-.78l-4.53,1.5a13.74,13.74,0,0,1,2.09,2.56,12.64,12.64,0,0,1,1.93,4.93c.39,2.62.58,4.3.66,5.25.06.68.07,1,.07,1l4.29-1.81s0-.23,0-.6A27.32,27.32,0,0,0,291.93,141.24Z"/>
    </g>
    <g>
      <path class="cls-13" d="M153.07,303.44s16.87-60.89,19.24-60.71l2.36.18s19.2,147,19.3,145.2S207.38,230,205.64,214.75a122.61,122.61,0,0,0-7.46-29.1l-41.12,17.21Z"/>
      <g>
        <path class="cls-2" d="M101.17,408.2s-7,3.78-7.9,5.87,2.73,2.34,5.57,2.34a70.46,70.46,0,0,0,9.1-.65c2.19-.35,5.87-4.28,8.8-5.37A19.61,19.61,0,0,1,120,409.3l-.7,7.11H122a32.53,32.53,0,0,0,2.39-7.8c.3-3.13.26-9.6,0-9.5Z"/>
        <polygon class="cls-3" points="117.28 380.46 112.9 396.12 101.17 408.2 124.43 399.11 124.43 394.78 130.1 383.3 117.28 380.46"/>
        <polygon class="cls-13" points="145.63 184.63 144.22 191.85 197.61 191.85 197.61 185.39 145.63 184.63"/>
        <path class="cls-10" d="M144.22,191.85S133,251.11,128.81,276.17,112.9,383.55,112.9,383.55s7.56,3.38,11.93,3.78a46.79,46.79,0,0,0,8.15,0S161.62,270.8,163.61,253.9s-1.59-29-1.59-29,7,9.35,9.54,15.91,4.12,146.73,4.12,146.73l1.67.51a26.58,26.58,0,0,0,12,.83l4.63-.74s8.81-144.34,8.41-165.82-4.77-30.42-4.77-30.42Z"/>
        <path class="cls-14" d="M166,192.45h-6.72a2.2,2.2,0,0,1-2.2-2.2v-2.39a2.2,2.2,0,0,1,2.2-2.2H166a2.2,2.2,0,0,1,2.2,2.2v2.39A2.2,2.2,0,0,1,166,192.45Zm-6.72-5.6a1,1,0,0,0-1,1v2.39a1,1,0,0,0,1,1H166a1,1,0,0,0,1-1v-2.39a1,1,0,0,0-1-1Z"/>
        <g>
          <path class="cls-15" d="M155.81,60.87a24.83,24.83,0,0,0,22-11.67,23.44,23.44,0,0,0,6.67,14.34,17.43,17.43,0,0,0,12.15,4.92c.4-11.23-.19-27.38-23.15-28.62-14.38-.77-22.44,7.33-23.26,21.4,2.91-1,5.9-1.68,8.77-2.76Z"/>
          <path class="cls-16" d="M196.61,68.45a17.43,17.43,0,0,1-12.15-4.92,23.44,23.44,0,0,1-6.67-14.34,24.83,24.83,0,0,1-22,11.67L159,58.47c-2.87,1.08-5.87,1.8-8.77,2.76,0,0,0,.05,0,.08-.8,14.12-1.39,18.49-2.39,24.26s1.89,13,1.89,13a100,100,0,0,1,18.23-4c9.59-1.08,16.47-.79,21.34.41s6.56,2.58,6.56,2.58,1.69-12.43.7-21.18A64.84,64.84,0,0,1,196.61,68.45Z"/>
        </g>
        <polygon class="cls-4" points="205.64 161.53 205.64 169.52 209.64 174.44 217.01 174.36 220.63 169.24 211.9 162.28 205.64 161.53"/>
        <path class="cls-17" d="M147.6,163.52s.1,9.56-1.79,13.43-2.49,7.95-1.59,8.44,36.19,1.79,36.19,1.79L193,182.51l-3.18-16.6-17-4.37Z"/>
        <path class="cls-4" d="M143.22,147.06s3,7.51,3.68,11.28a34,34,0,0,1,.7,5.17s23.46,1.69,29.73,4.18,9.15,6.88,9.35,9.25.89,6.06-2.68,8.15l-3.58,2.09H198.6s2.59-1.79,1.29-4.37a43.49,43.49,0,0,1-3.68-16.41c0-6.56.6-11.43,2.09-14.91s3.08-7.06,3.08-7.06l-3.78-16L150,142.84Z"/>
        <path class="cls-17" d="M183.47,95.64s21.65,8,24.78,12.65,10.73,44.93,13,53.09c2.74,10-4.34,13-4.34,13s1-3.88-2.68-8.05-8.63,1-8.63,1a6.12,6.12,0,0,1-.3-2.09c0-1.34-8.95-32.06-8.95-32.06s-1,8.5-3.73,13.42-17,4.32-24.67,3.28-24.7-2.83-24.7-2.83-3.28-3.43-1.94-9.4,4.18-12.83,5.07-19.69,1-10.74,3-13.57,14.46-7.51,14.46-7.51Z"/>
        <path class="cls-4" d="M166.19,95.31A16.69,16.69,0,0,0,161,99.79a28.25,28.25,0,0,0-4,12.18,18,18,0,0,0,1,5.87l7.16-5.52,7.85,7.46s8.15-8.3,10.24-13.82,1.79-8.2,1.29-9.25A4.61,4.61,0,0,0,182.3,95Z"/>
        <path class="cls-11" d="M166.19,96s-1.72.94-1.86,2,.75,13.31.75,13.31,16.55-11.19,17.23-12.19,0-1.48,0-1.48l-.89-3.85-8.46-1-4.51,1.42Z"/>
        <path class="cls-12" d="M166.19,88.45V96a24,24,0,0,1,9.45-2.59,6.27,6.27,0,0,1,6.66,4.18V81.34Z"/>
        <g>
          <path class="cls-3" d="M176.16,85.46a22,22,0,0,0,2.95-7.3c.84-5.35-1.91-10.53-3-15.84A26.3,26.3,0,0,1,176,52.14c-1.5,2.4-4.86,7.37-8.14,9.32-4.4,2.61-11.33,3.06-11.33,3.06s.22,8,.37,11.19,1.12,8.43,3.13,10.74,4.92,5.29,8.2,5.52a7,7,0,0,0,2.28-.31,9.42,9.42,0,0,0,1.46-.88A16.55,16.55,0,0,0,176.16,85.46Z"/>
          <path class="cls-11" d="M185.73,68.47c-1.19.67-6.41-1.86-7.61-8a63.19,63.19,0,0,1-1.27-9.69s-.3.52-.81,1.34a26.3,26.3,0,0,0,.06,10.18c1.09,5.31,3.84,10.49,3,15.84a22,22,0,0,1-2.95,7.3A16.55,16.55,0,0,1,172,90.77a9.42,9.42,0,0,1-1.46.88c3.54-1,8.45-4.11,10.55-7.3a26.31,26.31,0,0,0,3.43-7.16s5.67-1.12,5.44-5.82S186.92,67.8,185.73,68.47Z"/>
        </g>
        <path class="cls-3" d="M188.64,150.22s20.41,7.62,24,10,6.57,7.68,5.81,10.57-3,4.83-8.76,3.69-25.38-16-25.38-16Z"/>
      </g>
      <polygon class="cls-18" points="182.01 67.71 180.96 67.43 180.96 68.68 184.93 68.81 186.41 68.35 182.01 67.71"/>
      <g>
        <path class="cls-18" d="M175.74,66.55a10,10,0,0,0-6.79,2.11c-.26.27-.36.25-.36.25l-1.07,0v.91a2.91,2.91,0,0,1,.6.12c.41.13.51.76.51.76.43,1.18.9,5.62,5.92,5.22s5.49-6,5.63-6.46.78-.74.78-.74V67.43S179.7,66.72,175.74,66.55Zm2.1,7.31c-1.81,2-5.51,1.86-7,.42a6.19,6.19,0,0,1-1.54-4.54c.09-.74,1-1.35,1-1.35a9.39,9.39,0,0,1,4.91-1.29c3.28-.11,3.82,1,3.94,1.56A6.31,6.31,0,0,1,177.84,73.85Z"/>
        <path class="cls-18" d="M167.52,68.88l-1.07,0s-.1,0-.36-.25a10,10,0,0,0-6.79-2.11c-4,.17-5.22.89-5.22.89v1.25s.65.32.78.74.61,6.06,5.63,6.46,5.49-4,5.92-5.22c0,0,.1-.63.51-.76a2.91,2.91,0,0,1,.6-.12h0v-.91Zm-3.34,5.4c-1.47,1.44-5.17,1.54-7-.42a6.31,6.31,0,0,1-1.38-5.2c.12-.55.67-1.67,3.94-1.56a9.39,9.39,0,0,1,4.91,1.29s1,.61,1,1.35A6.19,6.19,0,0,1,164.17,74.28Z"/>
      </g>
    </g>
    <path class="cls-19" d="M119.33,165.34c4.11,6.62,10.69,3.43,14,1.69s2.24-8.89,2.24-8.89l-6.27-6.93-1.6-4.16-4.7,1.47-.4,2.68-.5,3.67S116.7,161.1,119.33,165.34Z"/>
    <g>
      <rect class="cls-10" x="165.45" y="131.57" width="2.12" height="23.97" transform="translate(73.65 -55.72) rotate(24.25)"/>
      <rect class="cls-10" x="167.86" y="131.02" width="1.42" height="15.97" transform="translate(71.97 -56.97) rotate(24.25)"/>
      <rect class="cls-6" x="170.02" y="132.56" width="2.12" height="1.73" transform="translate(69.89 -58.49) rotate(24.25)"/>
      <polygon class="cls-6" points="170.36 139.12 169.87 138.9 172.02 134.24 171.41 133.83 171.7 133.38 172.7 134.05 170.36 139.12"/>
    </g>
    <path class="cls-3" d="M188.64,150.22s-12.66-9.73-14-10.13-9.79,2.73-10.86,3.8-1.79,1.39-1.47,2.37,1.39.76,2.06.8a33,33,0,0,0,4.29-1s-3.13,1.21-3.17,2,3.13,6.79,4.51,8.45,14.27,1.89,14.27,1.89Z"/>
    <g>
      <path class="cls-6" d="M167.68,164.31,151.56,125a5.93,5.93,0,0,0-4.34-2.72H118.77c-1.46,0-1.87,1.22-.93,2.72l16.12,39.27a5.93,5.93,0,0,0,4.34,2.72h28.46C168.2,167,168.62,165.81,167.68,164.31Z"/>
      <path class="cls-20" d="M141.78,127.93l-1.8-4.25a4.3,4.3,0,0,0-3.15-2H125.61c-1.06,0-1.36.88-.68,2l1.8,4.25a4.3,4.3,0,0,0,3.15,2h11.22C142.16,129.91,142.47,129,141.78,127.93Z"/>
    </g>
    <path class="cls-3" d="M131.74,147.92h0a1.57,1.57,0,0,1-1.53,1.41l-7,.14,6.06.74a4.74,4.74,0,0,1,3.59,2.44l2.48,4.56a1.84,1.84,0,0,1,.22.93h0a2.64,2.64,0,0,1-1.74,2.41l-4.77,1.72a3.82,3.82,0,0,1-4.84-2.16L121,152.22a2.2,2.2,0,0,1,.62-2.5h0l-.59-.29a2.2,2.2,0,0,1-1.22-2h0a2.2,2.2,0,0,1,2.45-2.16l8,.93A1.57,1.57,0,0,1,131.74,147.92Z"/>
    <rect class="cls-21" x="97.88" y="416.06" width="275.36" height="8.57" rx="4.29" ry="4.29"/>
    <rect class="cls-21" x="70" y="416.06" width="22.69" height="8.57" rx="4" ry="4" transform="translate(162.69 840.69) rotate(-180)"/>
    <path class="cls-1" d="M336.07,300.76c-7.52,3.31-13.92,13.74-15.36,20.45-1.29,6,.4,13,5.49,16.46,8.75,5.91,19.75-2,24-10,4.66-8.78,4.21-26.7-8.57-27.9A11.11,11.11,0,0,0,336.07,300.76Z"/>
  </g>
</svg>
