<svg id="Layer_1" data-name="Layer 1" xmlns="http://www.w3.org/2000/svg" viewBox="0 0 684 512">
  <defs>
    <style>
      .cls-1 {
        fill: #ff8585;
      }

      .cls-2 {
        fill: #bed2ea;
      }

      .cls-3 {
        fill: #7298b7;
      }

      .cls-4 {
        isolation: isolate;
      }

      .cls-5 {
        fill: #128fdb;
      }

      .cls-6 {
        fill: #0070c0;
      }

      .cls-7 {
        fill: #5fcaff;
      }

      .cls-8 {
        fill: #fff;
      }

      .cls-9 {
        fill: #8baccc;
      }

      .cls-10 {
        fill: #eef7ff;
      }

      .cls-11 {
        fill: #ff4557;
      }
    </style>
  </defs>
  <title>Kaykushal 3</title>
  <g>
    <path class="cls-1" d="M161.34,361.32l-1.5-2.65L290,284.91a16.09,16.09,0,0,1,14.79,0l-1.52,2.64a13.16,13.16,0,0,0-11.75,0Z"/>
    <path class="cls-2" d="M224.09,265.84a12.54,12.54,0,0,1-6.16-1.5l-58.63-37.59,1.64-2.56,58.57,37.56a10.35,10.35,0,0,0,9.19,0l132.69-76.82,1.53,2.64L230.23,264.34A12.45,12.45,0,0,1,224.09,265.84Z"/>
    <path class="cls-2" d="M475,375.45l-22.07-13.13V344.14l-103-60.31c-3.27-1.89-5.07-4.49-5.08-7.33s1.78-5.43,5-7.32l1.53,2.63c-2.27,1.32-3.52,3-3.52,4.68s1.27,3.38,3.56,4.7L456,342.39v18.19l20.58,12.25Z"/>
    <rect class="cls-2" x="316" y="308.79" width="101.72" height="3.05" transform="translate(-106.52 227.91) rotate(-30.35)"/>
    <path class="cls-2" d="M320.87,341.94c-3,0-5.33-1.88-5.33-4.28s2.34-4.28,5.33-4.28,5.33,1.88,5.33,4.28S323.86,341.94,320.87,341.94Zm0-5.52c-1.39,0-2.28.73-2.28,1.24s.89,1.24,2.28,1.24,2.28-.73,2.28-1.24S322.27,336.42,320.87,336.42Z"/>
    <path class="cls-2" d="M492.79,346.5,389,285.74c-3.27-1.89-5.07-4.49-5.08-7.33s1.78-5.43,5-7.32l1.53,2.63c-2.27,1.32-3.52,3-3.52,4.68s1.27,3.38,3.56,4.7l103.8,60.76Z"/>
    <path class="cls-1" d="M175,314.86a12.53,12.53,0,0,1-6.15-1.5l-58.63-37.59,1.64-2.56,58.57,37.56a10.36,10.36,0,0,0,9.19,0L293.4,244l1.54,2.63L181.12,313.36A12.47,12.47,0,0,1,175,314.86Z"/>
    <path class="cls-1" d="M321.13,398.52l-72.92-42.1c-3.77-2.18-5.85-5.16-5.86-8.41s2.05-6.21,5.8-8.39L366.29,271l1.53,2.63L249.68,342.26c-2.76,1.61-4.28,3.65-4.28,5.75s1.54,4.16,4.33,5.78l72.92,42.1Z"/>
    <path class="cls-1" d="M348.9,276.25,210.24,195.09c-4.2-2.43-6.53-5.75-6.53-9.35s2.29-6.91,6.47-9.33l105-61,1.53,2.63-105,61c-3.2,1.86-5,4.24-5,6.7s1.78,4.86,5,6.73l138.67,81.17Z"/>
    <path class="cls-1" d="M345.8,235l-1.5-2.65,130.14-73.75a16.09,16.09,0,0,1,14.79,0l-1.52,2.64a13.17,13.17,0,0,0-11.75,0Z"/>
    <path class="cls-1" d="M591.75,295.23l-109.11-63a10.35,10.35,0,0,0-9.24,0L367.85,292.06l-1.5-2.65L471.89,229.6a13.36,13.36,0,0,1,12.28,0l109.11,63Z"/>
    <path class="cls-3" d="M477.55,305.84,297.31,201.78a11.86,11.86,0,0,0-10.77,0l-52,30.23c-3,1.72-3,4.51,0,6.24l162.08,93.58-6.94,12.24,30.28-.46h0a11.06,11.06,0,0,0,5.62-1.28l52-30.24C480.56,310.36,480.54,307.57,477.55,305.84Z"/>
    <g class="cls-4">
      <path class="cls-5" d="M201.77,235.58l.07-24.83a3.8,3.8,0,0,0,2.24,3.13L204,238.72A3.8,3.8,0,0,1,201.77,235.58Z"/>
      <path class="cls-6" d="M449.35,284.62l-.07,24.83a3.78,3.78,0,0,1-2.21,3.1l.07-24.83A3.78,3.78,0,0,0,449.35,284.62Z"/>
      <polygon class="cls-6" points="447.13 287.72 447.06 312.55 395.04 342.78 395.11 317.95 447.13 287.72"/>
      <polygon class="cls-5" points="384.33 317.95 384.26 342.78 204.01 238.72 204.09 213.89 384.33 317.95"/>
      <path class="cls-5" d="M395.1,318,395,342.78a11.88,11.88,0,0,1-10.78,0l.07-24.83A11.88,11.88,0,0,0,395.1,318Z"/>
      <path class="cls-7" d="M447.1,281.48c3,1.72,3,4.52,0,6.24L395.1,318a11.88,11.88,0,0,1-10.78,0L204.08,213.89c-3-1.72-3-4.51,0-6.24l52-30.24a11.86,11.86,0,0,1,10.77,0Z"/>
    </g>
    <g>
      <path class="cls-8" d="M280.28,204.52l-2.37-1.37-5.18-3a4.47,4.47,0,0,0-3.95,0c-2.27,1.3-4.51,2.62-6.77,3.93a1.25,1.25,0,0,0-.75,1.14q.08,4.55.14,9.11a1.44,1.44,0,0,0,.84,1.06,3.16,3.16,0,0,0,1.1.38c2,.28,3.67-.49,3.66-1.65,0-2.65-.08-5.3-.1-8a.73.73,0,0,1,.38-.53c.95-.58,2-1.12,2.91-1.71a.76.76,0,0,1,.94,0l3.81,2.21,3.83,2.21c2.13,1.24,2.26,3.3,0,4.64a8.3,8.3,0,0,1-5,1c-2.08-.16-3.66.71-3.38,1.9.33,1.36-.38,2.47-2.32,3.31a9.5,9.5,0,0,1-6.42.08c-.67-.29-1.24-.67-1.89-1l-.11-.06a.73.73,0,0,1-.43-.68c0-2.55,0-5.1,0-7.65a1.59,1.59,0,0,0-.89-1.38,3.45,3.45,0,0,0-1.38-.42c-2-.19-3.42.56-3.4,1.72s.07,2.1.09,3.14c0,1.9,0,3.8.06,5.7a1.07,1.07,0,0,0,.4.87,17.12,17.12,0,0,0,1.82,1.21,17.5,17.5,0,0,0,2.75,1.28,18.08,18.08,0,0,0,6.65,1,16.42,16.42,0,0,0,6.69-1.46c2.21-1,3.57-2.42,4-4.07,0-.18.1-.27.46-.31a13.94,13.94,0,0,0,7.19-2.45c1.74-1.31,2.53-2.76,2.38-4.4s-1.31-3.19-3.38-4.41l-2.37-1.38"/>
      <path class="cls-8" d="M330.81,233.69l-.13-.07a4.77,4.77,0,0,0-4.15.15l-7.44,4.32L305,246.3c-.7.41-1.22.88-1.08,1.48a1.57,1.57,0,0,0,.8,1.06,4.57,4.57,0,0,0,2.25.46h11.37a1.75,1.75,0,0,1,.67.06c.1.06.1.17.11.4q0,3.3.05,6.59a1.49,1.49,0,0,0,.84,1.31,3.7,3.7,0,0,0,1,.37c1.8.44,3.9-.38,3.87-1.57,0-2.24-.08-4.48-.12-6.71,0-.12-.1-.25-.15-.36l.22-.11c.25,0,.48.07.7.07h11.68a3.19,3.19,0,0,0,2.44-.85,1,1,0,0,0-.07-1.56,2.06,2.06,0,0,0-.48-.38,4.8,4.8,0,0,0-2.34-.47l-18.64,0h-3.68l-.61,0-.06-.1.49-.28,16.07-9.34a5.94,5.94,0,0,0,.87-.6,1.23,1.23,0,0,0-.33-2"/>
      <path class="cls-8" d="M395.87,271.26l-.16-.08a4.49,4.49,0,0,0-4.07.16l-11.73,6.82L369.83,284c-.9.52-1.15,1.19-.71,1.81a2,2,0,0,0,.64.58,4.14,4.14,0,0,0,2.07.43l4.67,0H383c.35,0,.7,0,1.07,0,0,.36.09.7.09,1,0,2,0,4.1,0,6.15a1.31,1.31,0,0,0,.77,1.11,4.15,4.15,0,0,0,1,.39c1.58.42,3.81-.34,3.83-1.34,0-1.71,0-3.43,0-5.14,0-.73,0-1.45,0-2.2h.75l5.08,0h6.28a4.62,4.62,0,0,0,2.33-.54c1.09-.6.93-1.67-.11-2.27a2.82,2.82,0,0,0-.42-.2,7.23,7.23,0,0,0-2.49-.28H381.4c-.88,0-1.75,0-2.63-.07l-.07-.1.53-.31,14-8.15,2.59-1.51a1.24,1.24,0,0,0,0-2.23"/>
      <path class="cls-8" d="M351.85,245.84a4.43,4.43,0,0,0-4,0q-10.89,6.33-21.82,12.66c-1.32.76-1.39,1.83,0,2.63h0l4.33,2.49,4.32,2.5,6.49,3.74a4.56,4.56,0,0,0,.92.42c1.81.55,4.06-.09,4.14-1.34,0-.31,0-.63,0-1q0-4-.05-8.06a1.52,1.52,0,0,0-.87-1.26,3.77,3.77,0,0,0-1.8-.45c-1.86,0-3,.78-3,1.71,0,.3.07.59.06.89,0,1.18,0,2.36,0,3.53,0,.13,0,.25,0,.37l-.14,0-.45-.26-7.57-4.37c-.6-.35-.6-.35,0-.71l18.88-11c.24-.14.5-.29.73-.45a1.2,1.2,0,0,0-.12-2.16l0,0"/>
      <path class="cls-8" d="M312.69,231.26a10.26,10.26,0,0,0-1.64-.75c-1-.36-2.06-.64-3.25-1l0-.15A1.38,1.38,0,0,0,307,228a3.14,3.14,0,0,0-.77-.31,4.65,4.65,0,0,0-3.3.37q-7.44,4.35-14.91,8.67a3,3,0,0,0-.61.45c-.65.67-.37,1.47.42,1.92l.14.08a4.36,4.36,0,0,0,3.8,0c3.22-1.87,6.41-3.74,9.64-5.61a7.29,7.29,0,0,1,5.44-.68,6.44,6.44,0,0,1,1.71.65,2.7,2.7,0,0,1,1.33,1.53c.31,1.07-.41,2-1.7,2.7l-9.44,5.49a1.18,1.18,0,0,0,0,2.19l.19.1a4.3,4.3,0,0,0,4-.13q4.81-2.77,9.57-5.56a8.53,8.53,0,0,0,1.5-1.12c1.58-1.49,2-3.1,1.21-4.78a6.14,6.14,0,0,0-2.6-2.69"/>
      <path class="cls-8" d="M372.09,265.57a3.15,3.15,0,0,0-.64-.28,4.35,4.35,0,0,0-3.07.16l-15.54,9a1.17,1.17,0,0,0,.07,2.16l.15.08a4.29,4.29,0,0,0,4-.08c3.25-1.87,6.46-3.75,9.7-5.62a4.8,4.8,0,0,1,.88-.4,7.63,7.63,0,0,1,6,.43,3.92,3.92,0,0,1,.82.62c1.2,1.2.81,2.49-.9,3.48-3.13,1.82-6.24,3.65-9.39,5.46-1.15.66-1.31,1.72-.13,2.4a3.37,3.37,0,0,0,.49.23,4.54,4.54,0,0,0,3.32-.16l10.15-5.9a8.3,8.3,0,0,0,1.09-.79,4.21,4.21,0,0,0,1.66-3.48,5.11,5.11,0,0,0-2.93-4.07,12.9,12.9,0,0,0-2-.93c-.88-.32-1.88-.55-2.85-.82l.06-.2c.11-.47-.22-1-.82-1.31"/>
      <path class="cls-8" d="M294.63,212.8a4.56,4.56,0,0,0-4.1,0l-13.78,8A12.19,12.19,0,0,0,274,222.9c-1.88,2-2.2,4-1.12,6.19a7.77,7.77,0,0,0,2.6,2.79c.2.14.4.26.6.38a4.88,4.88,0,0,0,1.75.62,4.29,4.29,0,0,0,2.78-.57c.88-.77.7-1.4.06-1.93s-1.3-.94-1.81-1.46c-1.62-1.67-1.13-4,1.33-5.41s4.54-2.63,6.82-4l6.51-3.78c.48-.28.94-.58,1.37-.89a1.18,1.18,0,0,0-.16-2l-.07,0"/>
      <path class="cls-8" d="M301.28,224.67a3.52,3.52,0,0,0-1.2-.39,4.2,4.2,0,0,0-2.86.43c-5,2.89-10,5.8-15,8.68-1.07.62-1.32,1.7-.12,2.39a3.4,3.4,0,0,0,.48.23,4.55,4.55,0,0,0,3.34-.15l7.72-4.49c2.55-1.48,5.09-3,7.65-4.44.61-.35.86-.8.76-1.25a1.55,1.55,0,0,0-.8-1"/>
      <path class="cls-8" d="M366.36,262.26l0,0a4.46,4.46,0,0,0-4.05,0c-2.47,1.48-5,2.92-7.51,4.37l-7.64,4.44a2.26,2.26,0,0,0-.4.29c-.68.68-.38,1.5.42,2l.17.09a4.46,4.46,0,0,0,3.86-.09l2.21-1.29,12.86-7.48c1.13-.66,1.18-1.69.11-2.31"/>
      <path class="cls-8" d="M308.15,220.63a4.28,4.28,0,0,0-4,0c-1.19.74-1,1.67.06,2.32h0a4.21,4.21,0,0,0,3.89,0c1.14-.55,1.19-1.62,0-2.31l0,0"/>
      <path class="cls-8" d="M373.16,258.16a4.58,4.58,0,0,0-3.78,0c-1.15.62-1.31,1.68-.14,2.37a4.4,4.4,0,0,0,4,0c1.19-.74,1.11-1.63,0-2.33l-.07,0"/>
    </g>
    <g>
      <path class="cls-3" d="M665.91,287.79l-54-31.18a9.5,9.5,0,0,0-8.63,0l-53.66,31.18c-2.38,1.38-2.36,3.62,0,5L586.3,314l-8.83,11.52,30.14-.48c.33,0,.67,0,1,0h0a8.42,8.42,0,0,0,3.66-1l53.66-31.18C668.31,291.41,668.3,289.17,665.91,287.79Z"/>
      <g class="cls-4">
        <path class="cls-9" d="M637.25,265.94l-.07,24.83a3,3,0,0,1-1.77,2.48l.07-24.83A3,3,0,0,0,637.25,265.94Z"/>
        <path class="cls-2" d="M517.31,290.73l.07-24.83a3.05,3.05,0,0,0,1.8,2.52l-.07,24.83A3.05,3.05,0,0,1,517.31,290.73Z"/>
        <polygon class="cls-9" points="635.48 268.42 635.41 293.25 581.75 324.43 581.82 299.61 635.48 268.42"/>
        <polygon class="cls-2" points="573.19 299.61 573.12 324.43 519.11 293.25 519.18 268.42 573.19 299.61"/>
        <path class="cls-2" d="M581.82,299.6l-.07,24.83a9.5,9.5,0,0,1-8.63,0l.07-24.83A9.5,9.5,0,0,0,581.82,299.6Z"/>
        <path class="cls-10" d="M635.45,263.42c2.39,1.38,2.4,3.62,0,5L581.82,299.6a9.5,9.5,0,0,1-8.63,0l-54-31.18c-2.39-1.38-2.4-3.62,0-5l53.66-31.18a9.5,9.5,0,0,1,8.63,0Z"/>
      </g>
    </g>
    <g>
      <path class="cls-3" d="M415.09,408.79l-54-31.18a9.5,9.5,0,0,0-8.63,0L298.8,408.79c-2.38,1.38-2.36,3.62,0,5L335.49,435l-8.83,11.52L356.8,446c.33,0,.67,0,1,0h0a8.42,8.42,0,0,0,3.66-1l53.66-31.18C417.5,412.4,417.49,410.17,415.09,408.79Z"/>
      <g class="cls-4">
        <path class="cls-9" d="M386.44,386.94l-.07,24.83a3,3,0,0,1-1.77,2.48l.07-24.83A3,3,0,0,0,386.44,386.94Z"/>
        <path class="cls-2" d="M266.5,411.73l.07-24.83a3.05,3.05,0,0,0,1.8,2.52l-.07,24.83A3.05,3.05,0,0,1,266.5,411.73Z"/>
        <polygon class="cls-9" points="384.67 389.42 384.6 414.25 330.94 445.43 331.01 420.6 384.67 389.42"/>
        <polygon class="cls-2" points="322.38 420.6 322.31 445.43 268.3 414.25 268.37 389.42 322.38 420.6"/>
        <path class="cls-2" d="M331,420.6l-.07,24.83a9.5,9.5,0,0,1-8.63,0l.07-24.83A9.5,9.5,0,0,0,331,420.6Z"/>
        <path class="cls-10" d="M384.64,384.42c2.39,1.38,2.4,3.62,0,5L331,420.6a9.5,9.5,0,0,1-8.63,0l-54-31.18c-2.39-1.38-2.4-3.62,0-5L322,353.24a9.5,9.5,0,0,1,8.63,0Z"/>
      </g>
    </g>
    <g>
      <path class="cls-3" d="M383.64,122.12l-54-31.18a9.5,9.5,0,0,0-8.63,0l-53.66,31.18c-2.38,1.38-2.36,3.62,0,5L304,148.28l-8.83,11.52,30.14-.48c.33,0,.67,0,1,0h0a8.42,8.42,0,0,0,3.66-1l53.66-31.18C386,125.73,386,123.5,383.64,122.12Z"/>
      <g class="cls-4">
        <path class="cls-9" d="M355,100.27l-.07,24.83a3,3,0,0,1-1.77,2.48l.07-24.83A3,3,0,0,0,355,100.27Z"/>
        <path class="cls-2" d="M235,125.06l.07-24.83a3.05,3.05,0,0,0,1.8,2.52l-.07,24.83A3.05,3.05,0,0,1,235,125.06Z"/>
        <polygon class="cls-9" points="353.21 102.75 353.14 127.58 299.48 158.76 299.55 133.93 353.21 102.75"/>
        <polygon class="cls-2" points="290.93 133.93 290.86 158.76 236.85 127.58 236.92 102.75 290.93 133.93"/>
        <path class="cls-2" d="M299.55,133.93l-.07,24.83a9.5,9.5,0,0,1-8.63,0l.07-24.83A9.5,9.5,0,0,0,299.55,133.93Z"/>
        <path class="cls-10" d="M353.19,97.75c2.39,1.38,2.4,3.62,0,5l-53.66,31.18a9.5,9.5,0,0,1-8.63,0l-54-31.18c-2.39-1.38-2.4-3.62,0-5l53.66-31.18a9.5,9.5,0,0,1,8.63,0Z"/>
      </g>
    </g>
    <g>
      <path class="cls-3" d="M383.64,122.12l-54-31.18a9.5,9.5,0,0,0-8.63,0l-53.66,31.18c-2.38,1.38-2.36,3.62,0,5L304,148.28l-8.83,11.52,30.14-.48c.33,0,.67,0,1,0h0a8.42,8.42,0,0,0,3.66-1l53.66-31.18C386,125.73,386,123.5,383.64,122.12Z"/>
      <g class="cls-4">
        <path class="cls-9" d="M355,100.27l-.07,24.83a3,3,0,0,1-1.77,2.48l.07-24.83A3,3,0,0,0,355,100.27Z"/>
        <path class="cls-2" d="M235,125.06l.07-24.83a3.05,3.05,0,0,0,1.8,2.52l-.07,24.83A3.05,3.05,0,0,1,235,125.06Z"/>
        <polygon class="cls-9" points="353.21 102.75 353.14 127.58 299.48 158.76 299.55 133.93 353.21 102.75"/>
        <polygon class="cls-2" points="290.93 133.93 290.86 158.76 236.85 127.58 236.92 102.75 290.93 133.93"/>
        <path class="cls-2" d="M299.55,133.93l-.07,24.83a9.5,9.5,0,0,1-8.63,0l.07-24.83A9.5,9.5,0,0,0,299.55,133.93Z"/>
        <path class="cls-10" d="M353.19,97.75c2.39,1.38,2.4,3.62,0,5l-53.66,31.18a9.5,9.5,0,0,1-8.63,0l-54-31.18c-2.39-1.38-2.4-3.62,0-5l53.66-31.18a9.5,9.5,0,0,1,8.63,0Z"/>
      </g>
    </g>
    <g>
      <path class="cls-3" d="M164.89,261.93l-54-31.18a9.5,9.5,0,0,0-8.63,0L48.59,261.93c-2.38,1.38-2.36,3.62,0,5l36.66,21.17L76.45,299.6l30.14-.48c.33,0,.67,0,1,0h0a8.42,8.42,0,0,0,3.66-1l53.66-31.18C167.29,265.54,167.28,263.31,164.89,261.93Z"/>
      <g class="cls-4">
        <path class="cls-9" d="M136.23,240.08l-.07,24.83a3,3,0,0,1-1.77,2.48l.07-24.83A3,3,0,0,0,136.23,240.08Z"/>
        <path class="cls-2" d="M16.29,264.87,16.36,240a3.05,3.05,0,0,0,1.8,2.52l-.07,24.83A3.05,3.05,0,0,1,16.29,264.87Z"/>
        <polygon class="cls-9" points="134.46 242.56 134.39 267.38 80.73 298.57 80.8 273.74 134.46 242.56"/>
        <polygon class="cls-2" points="72.17 273.74 72.1 298.57 18.09 267.39 18.16 242.56 72.17 273.74"/>
        <path class="cls-2" d="M80.8,273.74l-.07,24.83a9.5,9.5,0,0,1-8.63,0l.07-24.83A9.5,9.5,0,0,0,80.8,273.74Z"/>
        <path class="cls-10" d="M134.43,237.56c2.39,1.38,2.4,3.62,0,5L80.8,273.74a9.5,9.5,0,0,1-8.63,0l-54-31.18c-2.39-1.38-2.4-3.62,0-5l53.66-31.18a9.5,9.5,0,0,1,8.63,0Z"/>
      </g>
    </g>
    <g>
      <path class="cls-3" d="M553.54,160.71l-54-31.18a9.5,9.5,0,0,0-8.63,0l-53.66,31.18c-2.38,1.38-2.36,3.62,0,5l36.66,21.17-8.83,11.52,30.14-.48c.33,0,.67,0,1,0h0a8.42,8.42,0,0,0,3.66-1l53.66-31.18C555.95,164.33,555.94,162.09,553.54,160.71Z"/>
      <g class="cls-4">
        <path class="cls-9" d="M524.89,138.86l-.07,24.83a3,3,0,0,1-1.77,2.48l.07-24.83A3,3,0,0,0,524.89,138.86Z"/>
        <path class="cls-2" d="M404.95,163.65l.07-24.83a3.05,3.05,0,0,0,1.8,2.52l-.07,24.83A3.05,3.05,0,0,1,404.95,163.65Z"/>
        <polygon class="cls-9" points="523.12 141.34 523.04 166.17 469.38 197.35 469.45 172.52 523.12 141.34"/>
        <polygon class="cls-2" points="460.83 172.52 460.76 197.35 406.75 166.17 406.82 141.34 460.83 172.52"/>
        <path class="cls-2" d="M469.46,172.52l-.07,24.83a9.5,9.5,0,0,1-8.63,0l.07-24.83A9.5,9.5,0,0,0,469.46,172.52Z"/>
        <path class="cls-10" d="M523.09,136.34c2.39,1.38,2.4,3.62,0,5l-53.66,31.18a9.5,9.5,0,0,1-8.63,0l-54-31.18c-2.39-1.38-2.4-3.62,0-5l53.66-31.18a9.5,9.5,0,0,1,8.63,0Z"/>
      </g>
    </g>
    <path class="cls-2" d="M495.65,351.12c-3,0-5.33-1.88-5.33-4.28s2.34-4.28,5.33-4.28,5.33,1.88,5.33,4.28S498.64,351.12,495.65,351.12Zm0-5.52c-1.39,0-2.28.73-2.28,1.24s.89,1.24,2.28,1.24,2.28-.73,2.28-1.24S497,345.6,495.65,345.6Z"/>
    <path class="cls-2" d="M477.32,379.78c-3,0-5.33-1.88-5.33-4.28s2.34-4.28,5.33-4.28,5.33,1.88,5.33,4.28S480.31,379.78,477.32,379.78Zm0-5.52c-1.39,0-2.28.73-2.28,1.24s.89,1.24,2.28,1.24,2.28-.73,2.28-1.24S478.71,374.26,477.32,374.26Z"/>
    <path class="cls-2" d="M364.38,189c-3,0-5.33-1.88-5.33-4.28s2.34-4.28,5.33-4.28,5.33,1.88,5.33,4.28S367.37,189,364.38,189Zm0-5.52c-1.39,0-2.28.73-2.28,1.24s.89,1.24,2.28,1.24,2.28-.73,2.28-1.24S365.78,183.46,364.38,183.46Z"/>
    <path class="cls-2" d="M157.11,228.06c-3,0-5.33-1.88-5.33-4.28s2.34-4.28,5.33-4.28,5.33,1.88,5.33,4.28S160.09,228.06,157.11,228.06Zm0-5.52c-1.39,0-2.28.73-2.28,1.24s.89,1.24,2.28,1.24,2.28-.73,2.28-1.24S158.5,222.54,157.11,222.54Z"/>
    <polygon class="cls-2" points="198.55 251.63 165.55 251.63 149.31 242.39 150.81 239.74 166.36 248.58 198.55 248.58 198.55 251.63"/>
    <path class="cls-2" d="M148.54,243.52c-3,0-5.33-1.88-5.33-4.28s2.34-4.28,5.33-4.28,5.33,1.88,5.33,4.28S151.53,243.52,148.54,243.52Zm0-5.52c-1.39,0-2.28.73-2.28,1.24s.89,1.24,2.28,1.24,2.28-.73,2.28-1.24S149.93,238,148.54,238Z"/>
    <g>
      <path class="cls-3" d="M226.7,375l-54-31.18a9.5,9.5,0,0,0-8.63,0L110.4,375c-2.38,1.38-2.36,3.62,0,5l36.66,21.17-8.83,11.52,30.14-.48c.33,0,.67,0,1,0h0a8.42,8.42,0,0,0,3.66-1L226.72,380C229.1,378.65,229.09,376.42,226.7,375Z"/>
      <g class="cls-4">
        <path class="cls-9" d="M198,353.19,198,378a3,3,0,0,1-1.77,2.48l.07-24.83A3,3,0,0,0,198,353.19Z"/>
        <path class="cls-2" d="M78.1,378l.07-24.83a3.05,3.05,0,0,0,1.8,2.52l-.07,24.83A3.05,3.05,0,0,1,78.1,378Z"/>
        <polygon class="cls-9" points="196.27 355.67 196.2 380.49 142.54 411.68 142.61 386.85 196.27 355.67"/>
        <polygon class="cls-2" points="133.98 386.85 133.91 411.68 79.9 380.5 79.97 355.67 133.98 386.85"/>
        <path class="cls-2" d="M142.61,386.85l-.07,24.83a9.5,9.5,0,0,1-8.63,0l.07-24.83A9.5,9.5,0,0,0,142.61,386.85Z"/>
        <path class="cls-10" d="M196.24,350.67c2.39,1.38,2.4,3.62,0,5l-53.66,31.18a9.5,9.5,0,0,1-8.63,0L80,355.67c-2.39-1.38-2.4-3.62,0-5l53.66-31.18a9.5,9.5,0,0,1,8.63,0Z"/>
      </g>
    </g>
    <g>
      <path class="cls-11" d="M306,102.11l-.12-.07-1.1.64.12.07,1.1-.64m6.35-6.26-15.46-8.93-.78.45-1.57-.91.78-.45-6-3.45a8.06,8.06,0,0,0-7.31,0L262.8,93.72c-2,1.17-2,3.07,0,4.24l23,13.29a8.07,8.07,0,0,0,7.31,0l.48-.28-.78-.45,1.56-.9.78.45,1.28-.74a1.79,1.79,0,0,1-.48-.18,1,1,0,0,1-.36-.33c-.18-.31-.05-.65.35-.88l1.24-.72-.12-.07-5.51,3.2a4.6,4.6,0,0,1-4.18,0L264.39,97a1.28,1.28,0,0,1,0-2.42l14.27-8.29-.78-.45,1.56-.9.78.45,3.37-2a4.6,4.6,0,0,1,4.18,0l23,13.29a1.28,1.28,0,0,1,0,2.42l-3.37,2,.79.46-.45.26a1.78,1.78,0,0,1,.45.18,1,1,0,0,1,.32.28l3.84-2.23c2-1.17,2-3.06,0-4.23"/>
      <path class="cls-11" d="M308.2,101.59l-.79-.46L280.2,85.43l-.78-.45-1.56.9.78.45L305.85,102l.12.07.13-.08a2.28,2.28,0,0,1,1.52-.2l.12,0,.45-.26"/>
      <path class="cls-11" d="M304.46,94.92a2.52,2.52,0,0,0-2.28,0,.7.7,0,0,0,0,1.32,2.5,2.5,0,0,0,2.28,0,.7.7,0,0,0,0-1.32"/>
      <path class="cls-11" d="M307.6,96.73a2.51,2.51,0,0,0-2.28,0c-.63.37-.63,1,0,1.32a2.51,2.51,0,0,0,2.28,0,.7.7,0,0,0,0-1.32"/>
      <path class="cls-11" d="M301.32,93.11a2.51,2.51,0,0,0-2.28,0c-.63.37-.63,1,0,1.32a2.51,2.51,0,0,0,2.28,0,.7.7,0,0,0,0-1.32"/>
      <path class="cls-11" d="M308,109.48h0m-9.41-1.26,1.75-1-8.15-4.75,4.54-2.6,8.15,4.71,1.75-1,1.25,5.37-9.28-.7m9.6-6.19a1.78,1.78,0,0,0-.45-.18l-.12,0a2.28,2.28,0,0,0-1.52.2l-.13.08-1.1.64-.12-.07L298.3,99a3.53,3.53,0,0,0-3.19,0l-4.48,2.6a1,1,0,0,0,0,1.85l6.46,3.73.12.07-1.24.72c-.4.23-.53.57-.35.88a1,1,0,0,0,.36.33,1.79,1.79,0,0,0,.48.18,2.37,2.37,0,0,0,.37.06l11.72.89a2.17,2.17,0,0,0,1.23-.24.68.68,0,0,0,.42-.72l-1.59-6.79a.6.6,0,0,0-.1-.21,1,1,0,0,0-.32-.28"/>
      <path class="cls-11" d="M328,97.93,305,84.64a8.31,8.31,0,0,0-7.53.13L295.29,86l-.78.45,1.57.91.78-.45L299,85.67a4.87,4.87,0,0,1,4.4-.13l23,13.29c1.16.67,1.06,1.81-.21,2.55l-20.67,12a4.86,4.86,0,0,1-4.4.13l-6-3.45-.78-.45-1.56.9.78.45,6,3.45a8.31,8.31,0,0,0,7.53-.12l20.67-12c2.13-1.24,2.22-3.19.19-4.36"/>
      <path class="cls-11" d="M320.95,97.32a2.51,2.51,0,0,0-2.28,0c-.63.37-.63,1,0,1.32a2.51,2.51,0,0,0,2.28,0,.7.7,0,0,0,0-1.32"/>
      <path class="cls-11" d="M324.08,99.12a2.52,2.52,0,0,0-2.28,0,.7.7,0,0,0,0,1.32,2.5,2.5,0,0,0,2.28,0,.7.7,0,0,0,0-1.32"/>
      <path class="cls-11" d="M317.81,95.5a2.52,2.52,0,0,0-2.28,0,.7.7,0,0,0,0,1.32,2.5,2.5,0,0,0,2.28,0,.7.7,0,0,0,0-1.32"/>
      <path class="cls-11" d="M291.51,96.36a5.53,5.53,0,0,0-2.64-.63c-1.44,0-2.86,0-4.29,0l-.23,0c-.18.08-.17.21,0,.31a3.22,3.22,0,0,1,1,.84.37.37,0,0,0,.12.1.67.67,0,0,0,.35.07h2.89a2.22,2.22,0,0,1,1.11.25l.11.07c.44.31.54.65.25,1a1.83,1.83,0,0,1-1.5.55h-5.3a2.21,2.21,0,0,1-.87-.26.83.83,0,0,1-.47-.64.67.67,0,0,0-.38-.51,1.68,1.68,0,0,0-.85-.2c-.66,0-1.16.33-1.14.74a2,2,0,0,0,1.13,1.55,5.38,5.38,0,0,0,.9.41,5.74,5.74,0,0,0,1.92.31h5.18a5.63,5.63,0,0,0,2.79-.69l.25-.17.15-.11a1.51,1.51,0,0,0,.34-2.35,3.07,3.07,0,0,0-.82-.68"/>
      <path class="cls-11" d="M283.89,96.4a5.79,5.79,0,0,0-2.83-.68H276a5,5,0,0,0-3.18.93c-.95.75-1.07,1.58-.35,2.41a3,3,0,0,0,.79.65,5.71,5.71,0,0,0,2.75.64h4.15c.23,0,.41-.08.38-.2a.26.26,0,0,0-.13-.17,3.29,3.29,0,0,1-1-.86.34.34,0,0,0-.1-.09.61.61,0,0,0-.32-.06H276a2.4,2.4,0,0,1-1.16-.28.81.81,0,0,1-.47-.66c0-.53.71-.95,1.63-.95h5a3.58,3.58,0,0,1,.47,0,2,2,0,0,1,.7.23.84.84,0,0,1,.48.66.65.65,0,0,0,.37.49,1.82,1.82,0,0,0,1.42.11c.39-.13.58-.34.58-.6a2,2,0,0,0-1.18-1.63"/>
    </g>
    <g>
      <path class="cls-11" d="M158.34,346.29l-22.09-12.75a6.56,6.56,0,0,0-6,0l-18.47,10.74c-1.64,1-1.63,2.5,0,3.45l12,6.91,1.64-1-12-6.91a.82.82,0,0,1,0-1.54l3.75-2.18-.57,0,.33-1.33,2.29.19,12.67-7.37a3,3,0,0,1,2.67,0l22.09,12.75a.81.81,0,0,1,0,1.54l-6.21,3.61,1.65,1,6.21-3.61c1.64-1,1.63-2.5,0-3.45"/>
      <path class="cls-11" d="M160.63,358.24l-8.48-4.9-1.65-1L142,347.5a6.66,6.66,0,0,0-5.39-.27l1.08.09-.33,1.33.34-.2a2.93,2.93,0,0,1,2.66,0L159,359.2a.82.82,0,0,1,0,1.54l-18.47,10.74a2.93,2.93,0,0,1-2.65,0l-18.6-10.74a.81.81,0,0,1,0-1.54l18.14-10.54-2.88-.24-9.05,5.26-1.64,1-6.21,3.61c-1.64,1-1.63,2.5,0,3.45l18.6,10.74a6.56,6.56,0,0,0,5.95,0l18.47-10.74c1.64-1,1.63-2.5,0-3.45"/>
      <path class="cls-11" d="M130.73,360.86l9.84-5.72,2,6.8-11.87-1.08m11.48-6.71a2.89,2.89,0,0,0-.92-.32,3.49,3.49,0,0,0-2.3.32l-9.91,5.76c-.61.35-.82.86-.55,1.33a1.5,1.5,0,0,0,.56.53,3,3,0,0,0,1.25.37l11.9,1.13a3.4,3.4,0,0,0,2-.36,1,1,0,0,0,.63-1.15l-2-6.89a1.31,1.31,0,0,0-.64-.72"/>
      <path class="cls-11" d="M137.71,347.32l-1.08-.09-7.07-.58-.27-2.5a1.65,1.65,0,0,0-.92-1.17,4.24,4.24,0,0,0-1.75-.51l-7.35-.61-2.29-.19-.33,1.33.57,0,9.07.75a1.06,1.06,0,0,1,.44.13.44.44,0,0,1,.24.3l.39,3.6,7.14.59,2.88.24.33-1.33"/>
      <path class="cls-11" d="M136.15,344.13a1.17,1.17,0,0,1,0-2.22,4.23,4.23,0,0,1,3.84,0,1.17,1.17,0,0,1,0,2.22,4.23,4.23,0,0,1-3.84,0m5.46-3.18a7.87,7.87,0,0,0-7.13,0c-2,1.14-2,3,0,4.14a7.86,7.86,0,0,0,7.13,0c2-1.14,2-3,0-4.13"/>
    </g>
    <path class="cls-11" d="M74,238.76l.08,0A33.31,33.31,0,0,1,77.56,241c2.18,1.91,1.61,4.44-1.16,6.07-.88.51-1.73,1-2.64,1.55a1.55,1.55,0,0,1-.81.11A34,34,0,0,1,63,245.16a17.78,17.78,0,0,1-6.23-5.74c-.08-.11-.08-.32.05-.39A37.52,37.52,0,0,1,61,236.8a13.42,13.42,0,0,1,10.64.56l.81.46,1.62.94m14.73,5c-1.9-1.1-1.91-2.93,0-4a7.78,7.78,0,0,1,7,0c1.93,1.11,1.93,3,0,4.07a7.73,7.73,0,0,1-7,0m-23.55-13.6c-1.9-1.1-1.89-2.93,0-4a7.78,7.78,0,0,1,7,0h0c1.92,1.12,1.91,3,0,4.07a7.72,7.72,0,0,1-7-.05m10.36,7.66c-2.68-1.55-2.69-4.17,0-5.72a11.07,11.07,0,0,1,9.87,0h0c2.7,1.56,2.72,4.18,0,5.74a11.09,11.09,0,0,1-9.88,0M87,231.24a13,13,0,0,0-5.87-1.53,13.62,13.62,0,0,0-6.5,1.18c-2.52,1.23-3.46,2.85-3.21,4.75l-2-.57a3.36,3.36,0,0,0-1-2.71c5.27-.06,7.57-2.39,7.43-4.3a3.68,3.68,0,0,0-2.09-2.78,10.16,10.16,0,0,0-4.63-1.2c-3.3-.12-7.53,1.21-7.58,4.31l-.38-.09a13.09,13.09,0,0,0-8.71.55,32.37,32.37,0,0,0-3.47,2c-.2.12-.17.39-.17.59s.15.28.23.41a12.56,12.56,0,0,0,3,3.32l.22.15a1.59,1.59,0,0,0,1.36.12c.62-.23.63-.6.18-1-.89-.89-1.7-1.8-2.55-2.71-.19-.2-.15-.36.16-.52.65-.35,1.25-.73,1.9-1.09a9.67,9.67,0,0,1,8.39,0q1.08.59,2.13,1.2l1.71,1a2.87,2.87,0,0,1,1.63,2.5h-.4a16,16,0,0,0-8.34,1.54c-1.35.7-2.62,1.47-3.91,2.21a.5.5,0,0,0-.23.77,19.11,19.11,0,0,0,7.12,6.8,38,38,0,0,0,11.73,4.09,2,2,0,0,0,1.53-.23c.94-.57,1.91-1.13,2.88-1.69,2.43-1.38,3.61-3,3.42-5,0-.17,0-.33-.06-.53a8.22,8.22,0,0,1,3.81.71c.93.49,1.86,1,2.74,1.49.65.37,1.28.76,1.88,1.16,1.82,1.21,1.87,3,.24,4.26-.66.52-1.52.94-2.26,1.43a1.17,1.17,0,0,1-1.11.15c-1.54-.49-3.07-1-4.62-1.45a3.07,3.07,0,0,0-1.26-.11c-.29.06-.63.36-.6.54a1,1,0,0,0,.5.54l.18.09a30.13,30.13,0,0,0,6.27,1.84,1.75,1.75,0,0,0,1.31-.17c.82-.49,1.67-1,2.5-1.46,1.67-1,2.55-2.19,2.38-3.58a10.34,10.34,0,0,0-.75-2.17c4.71,0,7.23-2.14,7.24-4.11a3.57,3.57,0,0,0-2.08-3A9.93,9.93,0,0,0,93,237.69a10.9,10.9,0,0,0-5.09.81c-2,.87-2.79,2.06-2.78,3.5a14.2,14.2,0,0,0-4.43-.58.88.88,0,0,1-.37-.09l0,0c-.3-.32-.56-.66-.83-1,6.35.28,10.21-2.49,10.2-5.29,0-1.47-1-2.8-2.67-3.76"/>
    <g>
      <path class="cls-11" d="M562.85,263.72c-3.14-1.81-3.16-4.77,0-6.59l7.95-4.62a12.56,12.56,0,0,1,11.38,0l15.59,9c3.15,1.82,3.16,4.77,0,6.59l-7.95,4.62a10.68,10.68,0,0,1-4.2,1.28,6.25,6.25,0,0,1-1,0l-17-.65,5.95-3.46-10.74-6.2m36.57-3.19-15.59-9a16.3,16.3,0,0,0-14.76,0l-7.95,4.62c-4.06,2.36-4,6.19,0,8.55l9.05,5.23-5,2.93c-.53.31-.7.75-.43,1.16a1.26,1.26,0,0,0,.44.39,2.63,2.63,0,0,0,1.21.31l18.09.7a11.93,11.93,0,0,0,1.58,0,13.94,13.94,0,0,0,5.45-1.66l7.95-4.62c4.05-2.36,4-6.19,0-8.55"/>
      <path class="cls-11" d="M581.17,261.3a4.12,4.12,0,0,0-3.74,0,1.14,1.14,0,0,0,0,2.17,4.12,4.12,0,0,0,3.74,0,1.14,1.14,0,0,0,0-2.17"/>
      <path class="cls-11" d="M588,265.25a4.13,4.13,0,0,0-3.74,0,1.15,1.15,0,0,0,0,2.17,4.13,4.13,0,0,0,3.75,0c1-.6,1-1.57,0-2.17"/>
      <path class="cls-11" d="M574.33,257.35a4.12,4.12,0,0,0-3.74,0,1.14,1.14,0,0,0,0,2.17,4.12,4.12,0,0,0,3.74,0,1.14,1.14,0,0,0,0-2.17"/>
    </g>
    <g>
      <path class="cls-11" d="M320.22,374.15,324,372a4.93,4.93,0,0,1,4.46,0l24.9,14.37a1.37,1.37,0,0,1,0,2.58l-3.77,2.19.88.51-1.74,1-.88-.51-18.48,10.74-2-6.1-20.87-12a1.37,1.37,0,0,1,0-2.58l12-7-.87-.5,1.74-1,.87.5m34.86,11.18L330.18,371a8.76,8.76,0,0,0-7.95,0l-17.49,10.16c-2.18,1.27-2.17,3.34,0,4.61l20.33,11.74,2.73,8.32,27.27-15.85c2.18-1.27,2.17-3.33,0-4.6"/>
      <polyline class="cls-11" points="350.47 391.62 349.59 391.11 320.22 374.15 319.35 373.64 317.61 374.65 318.48 375.16 347.85 392.12 348.73 392.63 350.47 391.62"/>
      <path class="cls-11" d="M347,384.68a2.79,2.79,0,0,0-2.54,0,.78.78,0,0,0,0,1.47,2.79,2.79,0,0,0,2.54,0c.7-.41.7-1.06,0-1.47"/>
      <path class="cls-11" d="M350.52,386.69a2.79,2.79,0,0,0-2.54,0,.78.78,0,0,0,0,1.47,2.79,2.79,0,0,0,2.54,0c.7-.41.7-1.06,0-1.47"/>
      <path class="cls-11" d="M343.55,382.66a2.78,2.78,0,0,0-2.54,0,.78.78,0,0,0,0,1.47,2.81,2.81,0,0,0,2.54,0,.78.78,0,0,0,0-1.47"/>
      <path class="cls-11" d="M320.58,384.46l3.95-.95-1.62,2.29-2.32-1.34M327,383l-1.67-1-10.55,2.34,1.74,1,2.21-.53,3.4,2-.91,1.28,1.78,1,4-6.12"/>
      <path class="cls-11" d="M327.58,390.35c-.82-.47-.86-1.17.11-1.74a3.08,3.08,0,0,1,3-.06c.81.47.86,1.17-.11,1.73a3.1,3.1,0,0,1-3,.07m9.51-2-1.63-.94L332.73,389c.05-.5-.32-1-1-1.37a5.94,5.94,0,0,0-5.69.05c-1.76,1-1.66,2.39-.08,3.3a4.42,4.42,0,0,0,2.49.59l-.65.38,1.56.9,7.72-4.48"/>
    </g>
    <g>
      <polyline class="cls-11" points="469.51 124.85 467.92 123.93 442.45 138.74 468.4 153.72 469.99 152.8 468.52 151.95 466.93 152.87 461.46 149.71 463.04 148.79 460.88 147.54 459.29 148.46 453.81 145.29 455.39 144.38 453.23 143.13 451.65 144.04 446.17 140.88 447.75 139.97 445.63 138.74 469.51 124.85"/>
      <path class="cls-11" d="M489.74,138.91l-13.41-1.39-.17-.11-.06-2.35a1.25,1.25,0,0,0-.72-1,3.35,3.35,0,0,0-1.37-.4l-13.45-1.16-.33,1.29L473.7,135l.16.11.07,2.35a1.24,1.24,0,0,0,.72,1,3.31,3.31,0,0,0,1.3.39l13.87,1.45.86-.5-.93-.83"/>
      <path class="cls-11" d="M490.76,137.17c-1-.56-2.83.12-2,.86l1,.87.93.83-.86.5-1.58.92c-.57.33-.41.76,0,1a1.83,1.83,0,0,0,1.75,0l3.16-1.84c.37-.22.5-.61.21-.88l-2.45-2.17a1.14,1.14,0,0,0-.19-.14"/>
      <path class="cls-11" d="M449.35,140.88l5.38-3.13,2.29,1.32-5.38,3.13-2.29-1.32m10.84-1.81-5.47-3.16-7,4-1.58.92,5.47,3.16,1.58-.92,7-4"/>
      <path class="cls-11" d="M457,145.3l10.48-6.09,2.29,1.32-10.48,6.09L457,145.3m16-4.77-5.48-3.16-12.07,7-1.58.92,5.48,3.16,1.58-.92,12.07-7"/>
      <path class="cls-11" d="M464.63,149.71l14.28-8.3,2.29,1.32L466.92,151l-2.29-1.32m19.75-7-5.47-3.16L463,148.79l-1.58.92,5.47,3.16,1.58-.92,15.86-9.22"/>
    </g>
  </g>
</svg>
