<svg id="Layer_1" data-name="Layer 1" xmlns="http://www.w3.org/2000/svg" xmlns:xlink="http://www.w3.org/1999/xlink" viewBox="0 0 753 738">
  <defs>
    <style>
      .cls-1 {
        fill: none;
      }

      .cls-2 {
        fill: #c46a58;
      }

      .cls-3 {
        fill: #efa89a;
      }

      .cls-4 {
        fill: #fcb9a9;
      }

      .cls-5 {
        fill: #f0f8ff;
      }

      .cls-6 {
        fill: #3a273b;
        opacity: 0.25;
      }

      .cls-7 {
        fill: #1b9ee0;
      }

      .cls-8 {
        fill: #138ad3;
      }

      .cls-9 {
        isolation: isolate;
      }

      .cls-10 {
        fill: #a6c8e2;
      }

      .cls-11 {
        fill: #d1e2f2;
      }

      .cls-12 {
        fill: #00f131;
      }

      .cls-13 {
        fill: #1800bb;
      }

      .cls-14 {
        fill: #ec0027;
      }

      .cls-15 {
        fill: #cc2545;
      }

      .cls-16 {
        fill: #3ab3ef;
      }

      .cls-17 {
        fill: #f1faff;
      }

      .cls-18 {
        fill: #00c05d;
      }

      .cls-19 {
        fill: #e6f4ff;
      }

      .cls-20 {
        fill: #fff;
      }

      .cls-21 {
        fill: #ff6e8a;
      }

      .cls-22 {
        fill: #64d3ff;
      }

      .cls-23 {
        fill: #ff4557;
      }

      .cls-24 {
        fill: #0070c0;
      }

      .cls-25 {
        fill: #22435b;
      }

      .cls-26 {
        fill: #128fdb;
      }

      .cls-27 {
        fill: #b9d4ea;
      }

      .cls-28 {
        fill: #2b4f6f;
      }

      .cls-29 {
        fill: #fa5d5b;
      }

      .cls-30 {
        fill: #ff926c;
      }

      .cls-31 {
        fill: #ffbf69;
      }

      .cls-32 {
        fill: #ff8585;
      }

      .cls-33 {
        fill: url(#linear-gradient);
      }

      .cls-34 {
        fill: url(#linear-gradient-2);
      }

      .cls-35 {
        fill: url(#linear-gradient-3);
      }

      .cls-36 {
        fill: url(#linear-gradient-4);
      }

      .cls-37 {
        opacity: 0.53;
        fill: url(#linear-gradient-5);
      }

      .cls-38 {
        fill: #4f2e43;
      }

      .cls-39 {
        opacity: 0.78;
        fill: url(#linear-gradient-6);
      }

      .cls-40 {
        opacity: 0.73;
      }

      .cls-41 {
        fill: #ff5a72;
      }

      .cls-42 {
        clip-path: url(#clip-path);
      }

      .cls-43 {
        fill: #825667;
      }

      .cls-44 {
        fill: #ffded7;
      }

      .cls-45 {
        fill: #a5848c;
      }

      .cls-46 {
        fill: #ffabab;
      }

      .cls-47 {
        fill: url(#linear-gradient-7);
      }

      .cls-48 {
        fill: #ffcfcf;
      }

      .cls-49 {
        fill: url(#linear-gradient-8);
      }

      .cls-50 {
        fill: url(#linear-gradient-9);
      }

      .cls-51 {
        fill: url(#linear-gradient-10);
      }

      .cls-52 {
        fill: url(#linear-gradient-11);
      }

      .cls-53 {
        fill: #aee4ff;
      }

      .cls-54 {
        fill: url(#linear-gradient-12);
      }

      .cls-55 {
        fill: #d4f3ff;
      }

      .cls-56 {
        fill: url(#linear-gradient-13);
      }

      .cls-57 {
        fill: url(#linear-gradient-14);
      }

      .cls-58 {
        fill: url(#linear-gradient-15);
      }

      .cls-59 {
        fill: #ffdb56;
      }
    </style>
    <linearGradient id="linear-gradient" x1="434.49" y1="266.87" x2="453.67" y2="266.87" gradientUnits="userSpaceOnUse">
      <stop offset="0" stop-color="#664057"/>
      <stop offset="1" stop-color="#ff5c80"/>
    </linearGradient>
    <linearGradient id="linear-gradient-2" x1="466.81" y1="24.16" x2="500.15" y2="209.7" xlink:href="#linear-gradient"/>
    <linearGradient id="linear-gradient-3" x1="456.3" y1="26.05" x2="489.65" y2="211.58" xlink:href="#linear-gradient"/>
    <linearGradient id="linear-gradient-4" x1="464.99" y1="74.41" x2="497.54" y2="255.51" xlink:href="#linear-gradient"/>
    <linearGradient id="linear-gradient-5" x1="448.6" y1="108.58" x2="454.46" y2="108.58" xlink:href="#linear-gradient"/>
    <linearGradient id="linear-gradient-6" x1="457.26" y1="112.92" x2="469.35" y2="112.92" xlink:href="#linear-gradient"/>
    <clipPath id="clip-path">
      <path class="cls-1" d="M614.59,173.59c0,10.56-7.51,14.83-16.71,9.52s-16.63-18.18-16.6-28.75,7.51-14.83,16.71-9.52,16.63,18.18,16.6,28.75"/>
    </clipPath>
    <linearGradient id="linear-gradient-7" x1="680.08" y1="203.1" x2="1171.98" y2="200.49" gradientUnits="userSpaceOnUse">
      <stop offset="0" stop-color="#96ea8b"/>
      <stop offset="1" stop-color="#1cb1c8"/>
    </linearGradient>
    <linearGradient id="linear-gradient-8" x1="680.19" y1="224.43" x2="1172.1" y2="221.82" xlink:href="#linear-gradient-7"/>
    <linearGradient id="linear-gradient-9" x1="680.3" y1="245.76" x2="1172.21" y2="243.14" xlink:href="#linear-gradient-7"/>
    <linearGradient id="linear-gradient-10" x1="680.42" y1="267.09" x2="1172.33" y2="264.47" xlink:href="#linear-gradient-7"/>
    <linearGradient id="linear-gradient-11" x1="-203.96" y1="449.28" x2="536.52" y2="183.7" xlink:href="#linear-gradient-7"/>
    <linearGradient id="linear-gradient-12" x1="-197.17" y1="468.2" x2="543.31" y2="202.62" xlink:href="#linear-gradient-7"/>
    <linearGradient id="linear-gradient-13" x1="-190.39" y1="487.11" x2="550.09" y2="221.54" xlink:href="#linear-gradient-7"/>
    <linearGradient id="linear-gradient-14" x1="-183.6" y1="506.03" x2="556.88" y2="240.45" xlink:href="#linear-gradient-7"/>
    <linearGradient id="linear-gradient-15" x1="-736.29" y1="310.12" x2="310.32" y2="197.61" xlink:href="#linear-gradient-7"/>
  </defs>
  <title>Kaykushal 5</title>
  <g>
    <g>
      <g>
        <path class="cls-2" d="M355.25,252l.6-1.8,4.5-.3a6.63,6.63,0,0,0,0-2.48l-.3-.69,4.69-2.06-1-2.44,7.36-.9-1.57-2.2L356,222.67l-13.36,4-3.77,10,14.6,14.43Z"/>
        <path class="cls-3" d="M322.32,236.16l-.51,2.57,10.41,2.06,3.34,5.18,10.88,5.44,2.6.94s2.88,1.37,4.43,1,1.8-1.33,1.8-1.33l-1.58-1.76a5.84,5.84,0,0,0,3,1.33,4.23,4.23,0,0,0,3.64-1.67c.26-.47-3-3.34-3-3.34s3.21,2.44,4.45,2.7,3.38-.64,3.64-1.84a3.28,3.28,0,0,0-1.46-3.51c-1.46-1.16-3.3-2.48-3.3-2.48s5.87,3.55,7,3.85,3.13-.13,3.43-2,.3-2-1.07-3.13l-12.63-10.62s-9.56,8-11.1,8.48a6.29,6.29,0,0,1-3.64-.48,5.27,5.27,0,0,0,4.12-2.39c1.71-2.44,3.08-6.47,3.94-7.19a3.73,3.73,0,0,1,4-.86c1.71.77,3.17,2.36,4.92,3.68s9.89,8.34,9.89,8.34l13.92-4.27v-4l-31.22-13.28s-5.4,1-5.52,1-6.78,5.22-6.78,5.22Z"/>
        <path class="cls-4" d="M329.81,219.67s6.55.73,7.62.73,4.75-1.5,7.67-2,7.24-.77,7.11-.77-5.91,1.07-7.49,3.51-5.57,13.49-5.31,14.39,1.84,2.1,3.94,2.1a6,6,0,0,0,5.18-2.61c1.33-1.84,2.58-5.48,3.69-6.3a3.08,3.08,0,0,1,3.51-.21c1.33.64,6,4.37,6.34,5.91a3.62,3.62,0,0,1-1.93,3.85c-1.5.9-.6,3.38-1.5,5.1s-3.6,1.88-4.28,2.36-.13,2.48-2.36,3.38-3.3,0-3.3,0a3.23,3.23,0,0,0-2.23-2.66,29.12,29.12,0,0,0-3.38-.56,2.88,2.88,0,0,0-2.36-2.1,14.8,14.8,0,0,1-3.6-.94c0-.13-.69-3.21-2.06-3.73a10,10,0,0,0-3.3-.43l-9.46-2.53,4.11-17.34Z"/>
        <path class="cls-4" d="M340.09,235.22c.56.81,1.8,1.07,4,0s4.88-8.61,5.57-9.08a6.92,6.92,0,0,1,3.9-.64c1,.26,4.67,5,9,6.17a20.56,20.56,0,0,0,7.49.77s.47,1.58,1.24,1.8,12.12-3.34,12.12-3.34l-6.3-14.09s-7.71,3.73-9.08,3.73S360.47,217.1,357,217s-4.75.6-4.75.6-4.45.86-6.55,3.9S340.09,235.22,340.09,235.22Z"/>
        <path class="cls-4" d="M331,243.18a2.84,2.84,0,0,0,2.87,1.54,5.18,5.18,0,0,0,.64,3,4.33,4.33,0,0,0,2.48,1.58s1.71,1.2,4.67,3,5.82,1.54,7,.69-.9-2.61-.9-2.61a2.9,2.9,0,0,0-1.63-2.61,3.62,3.62,0,0,0-3.68,0c-1.24.6-2.36,1.16-2.36,1.16s3-1.11,2.44-2.36-3.17-2.36-4.75-2.18a18.93,18.93,0,0,1-2.91.09s2.31-.26.94-2.57-2.36-3-4-2.57S331,243.18,331,243.18Z"/>
      </g>
      <path class="cls-5" d="M323.62,217.69l6.08,1.14s2.57,6,1.77,11.27a51.82,51.82,0,0,1-2.81,10.27l-7.43-.61Z"/>
      <g>
        <path class="cls-6" d="M676.14,541.81l-39.79-23c-3.23-1.87-8.78-.91-9.61,1.69-1.43,4.44-5.42,8.66-12,11.85-12.61,6.09-31.34,6.21-44.22.25q-1.58-.73-3-1.54c-13.75-7.94-13.83-20.81-.16-28.75a46.8,46.8,0,0,1,18.25-5.59c4.46-.48,6-3.71,2.82-5.57l-45.2-26.1L498,439c-3.23-1.87-1.59-5.09,2.89-5.58,7.67-.84,14.93-3.17,20.42-7,10.47-7.32,10.61-18.17.29-25.61a31.75,31.75,0,0,0-2.67-1.72c-13.75-7.94-36-7.94-49.64,0-5.17,3-8.36,6.71-9.59,10.59-.82,2.58-6.42,3.5-9.63,1.65l-39.79-23a11.87,11.87,0,0,0-10.76,0L360,411.3c-2.37,1.38-2.08,3.49,0,4.7a7.47,7.47,0,0,0,2.91.88,47.14,47.14,0,0,1,18.27,5.58q1.16.67,2.23,1.41c10.56,7.33,10.83,18.18.58,25.61-13.27,9.63-37.6,10.2-52.28,1.73-5.2-3-8.44-6.72-9.72-10.59a3.15,3.15,0,0,0-1.51-1.66,9,9,0,0,0-8.13,0l-44.9,26.09-44.91,26.1a8.94,8.94,0,0,1-8.1,0,3.2,3.2,0,0,1-1.53-1.69c-1.29-3.87-4.52-7.56-9.69-10.55q-1.17-.67-2.46-1.3c-12.68-6.1-31.41-6.22-44.21-.26-16.59,7.71-17.5,21.82-2.82,30.3a47.18,47.18,0,0,0,18.34,5.59,7.31,7.31,0,0,1,2.87.87c2.09,1.21,2.37,3.33,0,4.7l-29.07,16.89-12.69-.48-5.36,36.85,47-1.3.39.22c2.67,1.54,6.89,1.16,8.77-.48l33.14-.91,32.75,13.56a26.49,26.49,0,0,1-5.67,4.33A46.68,46.68,0,0,1,226,593.12c-4.45.48-6,3.72-2.8,5.57l45.19,26.09,4.31,2.49-10.34,69.63L311,696.4h0c11,1.2,22.81-.67,31.3-5.6a27.17,27.17,0,0,0,5-3.71l6.12,15.74h53a11,11,0,0,0,5.57-1.28l132.06-76.74,27.51-16,7,8.26,51.44-.26h0c11.21.58,22.78-2,30.55-7.59,10.25-7.44,10-18.29-.58-25.61q-1.07-.75-2.24-1.42a47.09,47.09,0,0,0-18.26-5.58,7.53,7.53,0,0,1-2.92-.89c-2.1-1.21-2.38-3.31,0-4.69l39.56-23C679.16,546.32,679.14,543.53,676.14,541.81Z"/>
        <g>
          <g>
            <g>
              <g>
                <path class="cls-7" d="M122.93,523.05l-.14,48.13c2.75,1.59,7.16,1.13,8.94-.64v-48C129.88,524.2,125.62,524.6,122.93,523.05Z"/>
                <path class="cls-8" d="M191.76,510.8q-1.4-.81-3-1.54c-12.87-6-31.61-5.83-44.21.26-6.6,3.19-10.6,7.4-12,11.84a2.72,2.72,0,0,1-.81,1.18v48a2.63,2.63,0,0,0,.68-1c1.42-4.44,5.42-8.66,12-11.84,12.6-6.09,31.34-6.22,44.21-.26q1.58.73,3,1.54c6.92,4,10.38,9.24,10.36,14.48l.14-48.13C202.13,520,198.68,514.8,191.76,510.8Z"/>
              </g>
              <g class="cls-9">
                <path class="cls-10" d="M476.94,365.55l-.14,48.13c0,4.59-2.67,9.18-7.94,12.87-5.49,3.83-12.75,6.16-20.42,7-2.87.31-4.58,1.75-4.58,3.23l.14-48.13c0-1.48,1.71-2.92,4.58-3.23,7.67-.84,14.93-3.17,20.42-7C474.28,374.73,476.93,370.14,476.94,365.55Z"/>
                <path class="cls-11" d="M339.2,389l-.14,48.13c0-4.66-2.7-9.33-8.1-13.08q-1.07-.75-2.23-1.41A47.14,47.14,0,0,0,310.47,417a7.46,7.46,0,0,1-2.91-.88,2.9,2.9,0,0,1-1.69-2.38l.14-48.13A2.9,2.9,0,0,0,307.7,368a7.46,7.46,0,0,0,2.91.88,47.14,47.14,0,0,1,18.27,5.58q1.16.67,2.23,1.41C336.51,379.65,339.22,384.32,339.2,389Z"/>
                <polygon class="cls-12" points="490.89 417.09 490.75 465.23 445.86 491.32 446 443.19 490.89 417.09"/>
                <polygon class="cls-12" points="260.34 443.19 260.21 491.32 215.02 465.23 215.15 417.1 260.34 443.19"/>
                <path class="cls-12" d="M279.56,430.95l-.14,48.13c-5.17,3-8.37,6.71-9.6,10.6a3.12,3.12,0,0,1-1.53,1.68,9,9,0,0,1-8.09,0l.14-48.13a9,9,0,0,0,8.09,0,3.12,3.12,0,0,0,1.53-1.68C271.18,437.66,274.39,434,279.56,430.95Z"/>
                <path class="cls-12" d="M444.19,493.63l.14-48.13a2.39,2.39,0,0,1,.9-1.77,4.65,4.65,0,0,1,.77-.55l-.14,48.13a4.65,4.65,0,0,0-.77.55A2.39,2.39,0,0,0,444.19,493.63Z"/>
                <path class="cls-12" d="M339.52,445.41l-.14,48.13c0-4.52-2.53-9-7.66-12.74a31.65,31.65,0,0,0-2.68-1.73l-.65-.37c-13.79-7.57-35.53-7.44-49,.37l.14-48.13c13.44-7.81,35.18-7.94,49-.37l.65.37a31.65,31.65,0,0,1,2.68,1.73C337,436.36,339.53,440.89,339.52,445.41Z"/>
                <path class="cls-13" d="M444.77,495.11a2.31,2.31,0,0,1-.58-1.48l.14-48.13a2.31,2.31,0,0,0,.58,1.48Q444.84,471,444.77,495.11Z"/>
                <path class="cls-13" d="M445.92,496a4.23,4.23,0,0,1-1.15-.93q.07-24.07.14-48.13a4.24,4.24,0,0,0,1.15.93Q446,472,445.92,496Z"/>
                <path class="cls-13" d="M445.92,496q.07-24.07.14-48.13l.11.07L446,496.1Z"/>
                <path class="cls-13" d="M446.34,496.25l-.3-.15.14-48.13.3.15Q446.4,472.19,446.34,496.25Z"/>
                <path class="cls-13" d="M446.34,496.25q.07-24.07.14-48.13a13.12,13.12,0,0,0,3.86.82l-.14,48.13A13.12,13.12,0,0,1,446.34,496.25Z"/>
                <path class="cls-13" d="M451.21,497.22l-1-.14.14-48.13,1,.14Q451.28,473.15,451.21,497.22Z"/>
                <path class="cls-13" d="M451.21,497.22q.07-24.07.14-48.13a47,47,0,0,1,16.09,5.4q-.07,24-.14,48,.07-24,.14-48l0,0-.14,48.13A47,47,0,0,0,451.21,497.22Z"/>
                <path class="cls-13" d="M467.91,503l-.57-.34.14-48.13.57.34q.71.44,1.38.9-.07,24.07-.14,48.13Q468.62,503.43,467.91,503Z"/>
                <path class="cls-14" d="M339.38,493.54c0,4.59-2.67,9.18-8,12.88q.07-24.07.14-48.13c5.28-3.69,7.94-8.28,8-12.88C339.48,459.85,339.42,479.1,339.38,493.54Z"/>
                <path class="cls-14" d="M331.43,506.42q-1,.72-2.14,1.36.07-24.07.14-48.13,1.11-.65,2.14-1.36Q331.5,482.35,331.43,506.42Z"/>
                <path class="cls-14" d="M329.3,507.78A46.75,46.75,0,0,1,311,513.41q.07-24.07.14-48.13a46.75,46.75,0,0,0,18.29-5.63Q329.36,483.72,329.3,507.78Z"/>
                <polygon class="cls-12" points="353.47 496.95 353.33 545.09 308.13 518.99 308.27 470.86 353.47 496.95"/>
                <path class="cls-14" d="M311,513.41a7.39,7.39,0,0,0-2.93.89q.07-24.07.14-48.13a7.39,7.39,0,0,1,2.93-.89Q311.08,489.35,311,513.41Z"/>
                <path class="cls-15" d="M537.79,445.56l-.14,48.13c0,1.47-1.67,2.9-4.51,3.2a46.8,46.8,0,0,0-18.25,5.59c-6.79,3.95-10.19,9.11-10.2,14.28l.14-48.13c0-5.17,3.41-10.33,10.2-14.28a46.8,46.8,0,0,1,18.25-5.59C536.12,448.45,537.79,447,537.79,445.56Z"/>
                <path class="cls-13" d="M477.39,517c0-4.66-2.7-9.33-8.1-13.08q.07-24.07.14-48.13c5.4,3.75,8.11,8.42,8.1,13.08Z"/>
                <path class="cls-14" d="M308.08,514.3a2.87,2.87,0,0,0-1.65,2.34l.14-48.13a2.87,2.87,0,0,1,1.65-2.34Q308.15,490.24,308.08,514.3Z"/>
                <path class="cls-16" d="M124.31,468.53l-.14,48.13a2.89,2.89,0,0,0-1.68-2.38,7.31,7.31,0,0,0-2.87-.87,47.18,47.18,0,0,1-18.34-5.59c-6.92-4-10.37-9.24-10.35-14.47l.14-48.13c0,5.24,3.44,10.48,10.35,14.47a47.18,47.18,0,0,0,18.34,5.59,7.31,7.31,0,0,1,2.87.87A2.89,2.89,0,0,1,124.31,468.53Z"/>
                <path class="cls-12" d="M406.64,470.93l-.14,48.13a6.31,6.31,0,0,0-.77-.39,9.12,9.12,0,0,0-7.51.32l.14-48.13a9.12,9.12,0,0,1,7.51-.32A6.31,6.31,0,0,1,406.64,470.93Z"/>
                <path class="cls-12" d="M306.44,516.64l.14-48.13a2.84,2.84,0,0,0,1.69,2.35L308.13,519A2.84,2.84,0,0,1,306.44,516.64Z"/>
                <path class="cls-12" d="M408,472.51l-.14,48.13a2.35,2.35,0,0,0-.23-.48,3.44,3.44,0,0,0-1.15-1.1l.14-48.13a3.44,3.44,0,0,1,1.15,1.1A2.35,2.35,0,0,1,408,472.51Z"/>
                <path class="cls-12" d="M477.52,468.84,477.39,517c0,4.45-2.51,8.9-7.52,12.53q-1.24.9-2.61,1.7c-13.65,8-35.91,8-49.67,0-5.2-3-8.43-6.71-9.71-10.59l.14-48.13c1.28,3.88,4.5,7.58,9.71,10.59,13.76,7.94,36,7.94,49.67,0q1.37-.8,2.61-1.7C475,477.74,477.51,473.29,477.52,468.84Z"/>
                <path class="cls-17" d="M466.62,351.08a31.76,31.76,0,0,1,2.67,1.72c10.32,7.44,10.18,18.29-.29,25.61-5.49,3.83-12.75,6.16-20.42,7-4.48.49-6.12,3.71-2.89,5.58l45.2,26.1L446,443.18a4.65,4.65,0,0,0-.77.55,2.18,2.18,0,0,0-.32,3.25,4.1,4.1,0,0,0,1.11.91,7.78,7.78,0,0,0,2.91.89c7.36,1,13,2.67,17.76,5.29l1.35.79q.71.44,1.38.9c10.56,7.33,10.83,18.18.58,25.61q-1.24.9-2.61,1.7c-13.65,8-35.91,8-49.67,0-5.2-3-8.43-6.71-9.71-10.59a2.35,2.35,0,0,0-.23-.48,3.44,3.44,0,0,0-1.15-1.1,6.31,6.31,0,0,0-.77-.39,9.12,9.12,0,0,0-7.51.32L353.47,497l-45.2-26.1c-2.38-1.37-2.12-3.47,0-4.69a7.39,7.39,0,0,1,2.93-.89,46.75,46.75,0,0,0,18.29-5.63q1.11-.65,2.14-1.36c10.48-7.33,10.63-18.18.29-25.61a31.65,31.65,0,0,0-2.68-1.73l-.65-.37c-13.79-7.57-35.53-7.44-49,.37-5.17,3-8.37,6.71-9.6,10.6a3.12,3.12,0,0,1-1.53,1.68,9,9,0,0,1-8.09,0l-45.19-26.09L260,391a9,9,0,0,1,8.13,0,3.15,3.15,0,0,1,1.51,1.66c1.28,3.88,4.52,7.59,9.72,10.6,14.68,8.47,39,7.9,52.28-1.73,10.25-7.44,10-18.28-.58-25.61q-1.07-.75-2.23-1.41a47.14,47.14,0,0,0-18.27-5.58,7.46,7.46,0,0,1-2.91-.88c-2.1-1.21-2.39-3.32,0-4.7l39.53-23a11.87,11.87,0,0,1,10.76,0l39.79,23c3.21,1.85,8.81.93,9.63-1.65,1.23-3.88,4.42-7.58,9.59-10.59C430.65,343.14,452.87,343.14,466.62,351.08Z"/>
                <polygon class="cls-12" points="398.37 470.86 398.23 519 353.33 545.09 353.47 496.95 398.37 470.86"/>
                <path class="cls-16" d="M80.74,545.06l.14-48.13a3.82,3.82,0,0,0,2.25,3.14L83,548.2A3.82,3.82,0,0,1,80.74,545.06Z"/>
                <polygon class="cls-13" points="398.67 523.05 398.54 571.18 353.33 545.09 353.47 496.95 398.67 523.05"/>
                <polygon class="cls-14" points="353.47 496.95 353.33 545.09 308.43 571.18 308.56 523.05 353.47 496.95"/>
                <path class="cls-14" d="M300.47,523.06l-.14,48.13a3.29,3.29,0,0,1-1.54-1.69c-.2-.56-.27-.75-.35-.94a16.49,16.49,0,0,0-.76-1.56,21.71,21.71,0,0,0-7.62-7.47l-.95-.57c-.88-.5-1.65-.91-2.47-1.3l.14-48.13c.81.39,1.58.8,2.47,1.3l.95.57a21.71,21.71,0,0,1,7.62,7.47,16.49,16.49,0,0,1,.76,1.56c.08.19.16.39.35.94A3.29,3.29,0,0,0,300.47,523.06Z"/>
                <polygon class="cls-16" points="122.93 523.05 122.8 571.18 83 548.21 83.13 500.07 122.93 523.05"/>
                <path class="cls-14" d="M308.56,523.05l-.14,48.13a9.2,9.2,0,0,1-7.47.32,5.84,5.84,0,0,1-.63-.31l.14-48.13a5.84,5.84,0,0,0,.63.31A9.2,9.2,0,0,0,308.56,523.05Z"/>
                <path class="cls-15" d="M626.07,497l-.14,48.13a3.76,3.76,0,0,1-2.2,3.08l-39.56,23a2.81,2.81,0,0,0-1.67,2.31l.14-48.13a2.81,2.81,0,0,1,1.67-2.31l39.56-23A3.76,3.76,0,0,0,626.07,497Z"/>
                <path class="cls-13" d="M400.37,525.4l-.14,48.13a2.84,2.84,0,0,0-1.69-2.35l.14-48.13A2.84,2.84,0,0,1,400.37,525.4Z"/>
                <path class="cls-14" d="M229.26,573.22l.14-48.13c0-5.18,3.43-10.36,10.25-14.31q1.37-.79,2.92-1.52c12.8-6,31.54-5.83,44.21.26l-.14,48.13c-12.67-6.09-31.41-6.22-44.21-.26q-1.55.72-2.92,1.52C232.69,562.86,229.27,568,229.26,573.22Z"/>
                <path class="cls-18" d="M400.23,573.53a2.87,2.87,0,0,1-1.65,2.34q.07-24.07.14-48.13a2.87,2.87,0,0,0,1.65-2.34C400.33,539.84,400.27,559.09,400.23,573.53Z"/>
                <path class="cls-18" d="M398.58,575.87a7.39,7.39,0,0,1-2.93.89q.07-24.07.14-48.13a7.39,7.39,0,0,0,2.93-.89Q398.65,551.8,398.58,575.87Z"/>
                <path class="cls-18" d="M395.66,576.76a46.74,46.74,0,0,0-18.27,5.63q.07-24.07.14-48.13a46.74,46.74,0,0,1,18.27-5.63Q395.73,552.69,395.66,576.76Z"/>
                <path class="cls-18" d="M377.39,582.39q-1.11.65-2.14,1.37.07-24.07.14-48.13,1-.72,2.14-1.37Q377.46,558.33,377.39,582.39Z"/>
                <path class="cls-18" d="M239.62,587.7c-6.92-4-10.38-9.24-10.36-14.48l.14-48.13c0,5.24,3.44,10.48,10.36,14.48Q239.69,563.63,239.62,587.7Z"/>
                <path class="cls-18" d="M257.94,593.28a47.17,47.17,0,0,1-18.32-5.58q0-12,.07-24.07t.07-24.06a47.17,47.17,0,0,0,18.32,5.58Q258,569.21,257.94,593.28Z"/>
                <path class="cls-18" d="M260.77,594.12a7.59,7.59,0,0,0-2.82-.84q.07-24.07.14-48.13a7.59,7.59,0,0,1,2.82.84Q260.84,570.06,260.77,594.12Z"/>
                <path class="cls-18" d="M260.77,594.12v-.79q.07-23.67.13-47.35l0,0-.14,48.13Z"/>
                <path class="cls-18" d="M261.51,594.64a4.48,4.48,0,0,0-.7-.49l.14-48.13a4.48,4.48,0,0,1,.7.49Q261.58,570.57,261.51,594.64Z"/>
                <path class="cls-18" d="M262,595.2a3.33,3.33,0,0,0-.52-.56q.07-24.07.14-48.13a3.33,3.33,0,0,1,.52.56Q262.09,571.13,262,595.2Z"/>
                <path class="cls-18" d="M262.35,595.81a2.51,2.51,0,0,0-.33-.61q.07-24.07.14-48.13a2.51,2.51,0,0,1,.33.61Q262.42,571.74,262.35,595.81Z"/>
                <path class="cls-18" d="M375.25,583.76c-5.29,3.69-7.94,8.28-8,12.87l.14-48.13c0-4.59,2.67-9.18,8-12.87Q375.32,559.69,375.25,583.76Z"/>
                <path class="cls-18" d="M262.48,596.52a2,2,0,0,0-.13-.72q.07-24.07.14-48.13a2,2,0,0,1,.13.72C262.58,562.83,262.52,582.08,262.48,596.52Z"/>
                <path class="cls-14" d="M262.62,548.39l-.14,48.13a2.51,2.51,0,0,1-1.08,1.93,4.86,4.86,0,0,1-.59.4l.14-48.13a4.86,4.86,0,0,0,.59-.4A2.51,2.51,0,0,0,262.62,548.39Z"/>
                <path class="cls-16" d="M169,596.49l.14-48.13a2.85,2.85,0,0,0,1.7,2.37l-.14,48.13A2.85,2.85,0,0,1,169,596.49Z"/>
                <path class="cls-13" d="M446.6,550.72l-.14,48.13a9,9,0,0,0-8.08,0,3.1,3.1,0,0,0-1.52,1.69c-1.24,3.88-4.43,7.59-9.6,10.6L427.4,563c5.17-3,8.36-6.72,9.6-10.6a3.1,3.1,0,0,1,1.52-1.69A9,9,0,0,1,446.6,550.72Z"/>
                <path class="cls-13" d="M367.29,596.63l.14-48.13c0,4.52,2.53,9,7.65,12.73.83.6,1.7,1.16,2.67,1.72l.65.37c13.58,7.45,34.86,7.46,48.34,0l.65-.37-.14,48.13-.65.37c-13.49,7.45-34.77,7.44-48.34,0l-.65-.37c-1-.57-1.85-1.13-2.67-1.72C369.83,605.68,367.28,601.15,367.29,596.63Z"/>
                <polygon class="cls-13" points="491.8 576.82 491.67 624.95 446.46 598.85 446.6 550.72 491.8 576.82"/>
                <polygon class="cls-14" points="260.95 550.72 260.81 598.86 215.91 624.95 216.05 576.81 260.95 550.72"/>
                <path class="cls-19" d="M261.25,602.91l-45.2-26.1-.14,48.13,45.2,26.1a2.84,2.84,0,0,1,1.69,2.35l.14-48.13A2.84,2.84,0,0,0,261.25,602.91Z"/>
                <path class="cls-20" d="M491.8,576.82,359.75,653.56a11.87,11.87,0,0,1-10.78,0l-39.79-23c-3.21-1.85-8.81-.93-9.62,1.66-1.24,3.88-4.42,7.58-9.59,10.59-13.66,7.94-35.89,7.94-49.65,0a31.76,31.76,0,0,1-2.67-1.72c-10.31-7.44-10.18-18.29.3-25.61,5.48-3.83,12.75-6.16,20.41-7,4.48-.49,6.12-3.71,2.89-5.58l-45.2-26.1,44.9-26.09a4.86,4.86,0,0,0,.59-.4,2.29,2.29,0,0,0,.95-2.64,2.51,2.51,0,0,0-.33-.61,3.33,3.33,0,0,0-.52-.56,4.48,4.48,0,0,0-.7-.49,7.58,7.58,0,0,0-2.86-.87,47.17,47.17,0,0,1-18.32-5.58c-13.77-8-13.82-20.85-.11-28.78q1.37-.79,2.92-1.52c12.8-6,31.54-5.83,44.21.26q1.22.58,2.32,1.21l1.1.65a21.71,21.71,0,0,1,7.62,7.47q.33.59.6,1.18c.25.58.32.77.39,1a3.4,3.4,0,0,0,1.52,2,6.33,6.33,0,0,0,.77.4,9.12,9.12,0,0,0,7.24-.2L353.47,497l45.2,26.1c2.38,1.37,2.12,3.47,0,4.69a7.39,7.39,0,0,1-2.93.89,46.74,46.74,0,0,0-18.27,5.63q-1.11.65-2.14,1.37c-10.49,7.32-10.63,18.18-.3,25.61q1.24.89,2.6,1.68l.72.41c13.58,7.45,34.86,7.46,48.34,0l.65-.37c5.17-3,8.36-6.72,9.6-10.6a3.1,3.1,0,0,1,1.52-1.69,9,9,0,0,1,8.08,0Z"/>
                <path class="cls-21" d="M623.81,493.83c3,1.73,3,4.51.06,6.23l-39.56,23c-2.37,1.37-2.08,3.48,0,4.69a7.53,7.53,0,0,0,2.92.89,47.1,47.1,0,0,1,18.26,5.58q1.16.67,2.24,1.42c10.55,7.32,10.83,18.18.58,25.61-13.27,9.63-37.6,10.2-52.29,1.72-5.19-3-8.43-6.71-9.71-10.59a3.15,3.15,0,0,0-1.51-1.66,9,9,0,0,0-8.13,0l-44.9,26.09-45.2-26.1a9,9,0,0,0-8.08,0,3.1,3.1,0,0,0-1.52,1.69c-1.24,3.88-4.43,7.59-9.6,10.6l-.65.37c-13.49,7.45-34.77,7.44-48.34,0l-.65-.37c-1-.57-1.85-1.13-2.67-1.72-10.32-7.43-10.19-18.28.3-25.61q1-.72,2.14-1.37a46.74,46.74,0,0,1,18.27-5.63,7.39,7.39,0,0,0,2.93-.89c2.07-1.21,2.33-3.31,0-4.69L353.47,497l44.9-26.09a9.12,9.12,0,0,1,7.51-.32,5.73,5.73,0,0,1,.63.31,3.67,3.67,0,0,1,1.28,1.18,2.35,2.35,0,0,1,.23.48c1.28,3.88,4.5,7.58,9.71,10.59,13.76,7.94,36,7.94,49.67,0q1.37-.8,2.61-1.7c10.25-7.44,10-18.28-.58-25.61q-.67-.47-1.38-.9l-.57-.34a47.39,47.39,0,0,0-17.15-5.57,11.24,11.24,0,0,1-4.16-1,4.41,4.41,0,0,1-1.26-1,2.18,2.18,0,0,1,.32-3.25,4.65,4.65,0,0,1,.77-.55l44.9-26.09,45.2,26.1c3.21,1.85,1.64,5.09-2.82,5.57A46.8,46.8,0,0,0,515,454.35c-13.67,7.94-13.6,20.81.16,28.75q1.4.81,3,1.54c12.88,6,31.61,5.83,44.22-.25,6.6-3.19,10.59-7.41,12-11.84.83-2.6,6.38-3.55,9.61-1.69Z"/>
                <polygon class="cls-15" points="536.7 550.73 536.56 598.86 491.67 624.95 491.8 576.82 536.7 550.73"/>
                <path class="cls-22" d="M329.17,430.94a31.67,31.67,0,0,1,2.69,1.73c10.33,7.44,10.19,18.28-.29,25.61q-1,.72-2.14,1.36a46.75,46.75,0,0,1-18.29,5.63,7.39,7.39,0,0,0-2.93.89c-2.07,1.21-2.33,3.31,0,4.69l45.2,26.1-44.91,26.1a9.2,9.2,0,0,1-7.47.32,5.84,5.84,0,0,1-.63-.31,3.29,3.29,0,0,1-1.54-1.69c-.2-.56-.27-.75-.35-.94a16.49,16.49,0,0,0-.76-1.56,21.71,21.71,0,0,0-7.62-7.47l-.95-.57c-.88-.5-1.65-.91-2.47-1.3-12.67-6.09-31.41-6.22-44.21-.26q-1.55.72-2.92,1.52c-13.71,7.94-13.66,20.83.11,28.78a47.17,47.17,0,0,0,18.32,5.58,7.48,7.48,0,0,1,2.72.79,4.93,4.93,0,0,1,.84.57,3.31,3.31,0,0,1,.52.56,2.51,2.51,0,0,1,.33.61,2.29,2.29,0,0,1-.95,2.64,4.86,4.86,0,0,1-.59.4l-44.9,26.09-45.19-26.09c-3.21-1.85-1.64-5.09,2.81-5.57a46.68,46.68,0,0,0,18.25-5.59c13.67-7.94,13.6-20.81-.16-28.75q-1.4-.81-3-1.54c-12.87-6-31.61-5.83-44.21.26-6.6,3.19-10.6,7.4-12,11.84-.83,2.6-6.38,3.55-9.62,1.69l-39.8-23c-3-1.72-3-4.51,0-6.23l39.56-23c2.36-1.37,2.08-3.49,0-4.7a7.31,7.31,0,0,0-2.87-.87,47.18,47.18,0,0,1-18.34-5.59c-14.68-8.47-13.76-22.59,2.82-30.3,12.8-6,31.53-5.84,44.21.26q1.3.62,2.46,1.3c5.18,3,8.4,6.68,9.69,10.55a3.2,3.2,0,0,0,1.53,1.69,8.94,8.94,0,0,0,8.1,0l44.91-26.1,45.19,26.09a9,9,0,0,0,8.09,0,3.12,3.12,0,0,0,1.53-1.68c1.23-3.88,4.43-7.59,9.6-10.6,13.44-7.81,35.18-7.94,49-.37Z"/>
                <polygon class="cls-16" points="216.05 576.81 215.91 624.95 170.72 598.86 170.86 550.72 216.05 576.81"/>
                <polygon class="cls-10" points="491.8 576.82 491.67 624.95 359.61 701.69 359.75 653.56 491.8 576.82"/>
                <polygon class="cls-19" points="348.97 653.55 348.83 701.69 309.04 678.71 309.18 630.58 348.97 653.55"/>
                <path class="cls-11" d="M359.75,653.56l-.14,48.13a11.87,11.87,0,0,1-10.78,0l.14-48.13A11.87,11.87,0,0,0,359.75,653.56Z"/>
              </g>
              <g>
                <path class="cls-19" d="M240.32,642.82a31.75,31.75,0,0,1-2.67-1.72c-5.11-3.69-7.66-8.22-7.64-12.74l-.14,48.13c0,4.52,2.53,9.05,7.64,12.74a31.71,31.71,0,0,0,2.67,1.72c10.13,5.85,24.84,7.38,37.35,4.63v-48.1C265.06,650.2,250.42,648.65,240.32,642.82Z"/>
                <path class="cls-10" d="M299.56,632.24c-1.24,3.88-4.42,7.58-9.59,10.59a43.09,43.09,0,0,1-12.44,4.65v48.1a43,43,0,0,0,12.3-4.62c5.17-3,8.35-6.71,9.59-10.59.81-2.58,6.4-3.51,9.62-1.66l.14-48.13C306,628.73,300.38,629.65,299.56,632.24Z"/>
              </g>
            </g>
            <g>
              <path class="cls-23" d="M556,563c-5.19-3-8.43-6.71-9.71-10.59a3.15,3.15,0,0,0-1.51-1.66,9,9,0,0,0-8.13,0l-.14,48.13a9,9,0,0,1,8.13,0,3.15,3.15,0,0,1,1.51,1.66c1.28,3.88,4.52,7.59,9.71,10.59a48.43,48.43,0,0,0,20.3,5.78V568.73A48.35,48.35,0,0,1,556,563Z"/>
              <path class="cls-15" d="M608.34,561.24c-8.14,5.91-20.44,8.4-32.13,7.49v48.14c11.65.88,23.89-1.62,32-7.5,5-3.63,7.5-8.08,7.51-12.53l.14-48.13C615.84,553.16,613.34,557.61,608.34,561.24Z"/>
            </g>
          </g>
          <g>
            <path class="cls-8" d="M376,657.34l-2.47,1.43-2.89,1.67-1.44.84a3.73,3.73,0,0,0-1.65,2.8c0,2.19,0,4.37,0,6.55a1,1,0,0,0,.48,1l6.68,3.72a1.17,1.17,0,0,0,1.07-.17,2.71,2.71,0,0,0,.77-.68c1-1.31,1.14-2.82.28-3.3l-5.75-3.21a.48.48,0,0,1-.24-.49c0-.94,0-1.89,0-2.81a.63.63,0,0,1,.38-.67h0l3.54-2,2.83-1.63c1.77-1,3.31-.27,3.37,1.88a6.93,6.93,0,0,1-1.4,4c-1,1.45-1,2.94,0,3.24s1.59,1.31,1.4,3a7.84,7.84,0,0,1-2.64,4.68c-.46.35-.95.59-1.42.91l-.1.06a.66.66,0,0,1-.73,0c-1.83-1.06-3.67-2.09-5.5-3.14a1.31,1.31,0,0,0-1.36.06,2.88,2.88,0,0,0-.87.81c-1,1.34-1,2.71-.19,3.18s1.52.81,2.28,1.23c1.39.78,2.75,1.58,4.15,2.34a.93.93,0,0,0,.86,0c.51-.26,1-.53,1.54-.83s.82-.49,1.23-.76a13.82,13.82,0,0,0,4.35-5,13.47,13.47,0,0,0,1.74-5.42,5.59,5.59,0,0,0-1.26-4.59c-.12-.12-.15-.21,0-.5a11.6,11.6,0,0,0,1.21-6.16A4.09,4.09,0,0,0,382,655.9c-1.3-.61-2.83-.39-4.58.59l-1.48.85"/>
            <path class="cls-8" d="M417.53,633.36l-.09.06a3.75,3.75,0,0,0-1.64,3q0,10.44.06,20.85a2.14,2.14,0,0,0,.13.82,1,1,0,0,0,1.54.4,3.76,3.76,0,0,0,1.28-1.39q2.38-4.12,4.75-8.24a1.12,1.12,0,0,1,.33-.41.29.29,0,0,1,.31,0c1.55.9,3.11,1.77,4.67,2.65a1.91,1.91,0,0,0,.42.18,1.29,1.29,0,0,0,1-.18,3.33,3.33,0,0,0,1.13-1.18c.58-1,.71-2.21.16-2.59-.86-.6-1.8-1.06-2.69-1.61s-1.68-1.07-2.52-1.6l-.16.07a5.54,5.54,0,0,0,.34-.48q2.44-4.2,4.86-8.41a2.64,2.64,0,0,0,.39-2.11.85.85,0,0,0-1.15-.59,1.72,1.72,0,0,0-.48.19,3.86,3.86,0,0,0-1.28,1.45l-7.78,13.41-1.58,2.73c-.08.14-.18.27-.34.51v-.63q0-7.71,0-15.42a5.48,5.48,0,0,0-.07-.87,1,1,0,0,0-1.56-.6"/>
            <path class="cls-8" d="M471.6,602.17l-.07,0a3.57,3.57,0,0,0-1.61,2.93q0,7.81,0,15.62c0,1.84,0,3.68,0,5.5,0,.79.34,1.21,1,1.18a1.62,1.62,0,0,0,.73-.22,3,3,0,0,0,1-1.07c.67-1.11,1.33-2.22,2-3.34l2.86-4.95c.14-.25.3-.49.47-.76.35.18.68.33,1,.5l4.22,2.4a1.08,1.08,0,0,0,1.12-.09,3.48,3.48,0,0,0,.71-.57c1-1,1.32-2.9.59-3.33-1.24-.72-2.5-1.42-3.75-2.13l-1.62-.91a6.3,6.3,0,0,0,.38-.51q1.08-1.82,2.15-3.64c.87-1.49,1.72-3,2.59-4.48a3.74,3.74,0,0,0,.59-2,1,1,0,0,0-1.51-.9l-.13.07a5,5,0,0,0-1.59,1.92l-7.89,13.65c-.43.74-.87,1.46-1.31,2.19-.05.09-.12.17-.24.33,0-.21,0-.36,0-.51V613.9c0-3.59,0-7.18,0-10.76,0-1.24-.81-1.44-1.61-1"/>
            <path class="cls-8" d="M435,623.27a3.68,3.68,0,0,0-1.67,2.91c0,7,.05,14,0,21,0,1.27.75,1.76,1.9,1.1h0l8.39-4.85,2.8-1.61,1.4-.81a3.93,3.93,0,0,0,.68-.49c1.15-1.07,1.62-3,.75-3.53-.22-.15-.46-.26-.69-.4l-5.83-3.31a1.26,1.26,0,0,0-1.27.1,3.12,3.12,0,0,0-1.07,1.1c-.8,1.33-.7,2.51,0,2.88.22.12.46.19.67.32l2.55,1.46.26.17,0,.12-.37.22-6.33,3.65c-.47.27-.47.27-.47-.28l-.05-18.2c0-.24,0-.48,0-.72a1,1,0,0,0-1.61-.81h0"/>
            <path class="cls-8" d="M408.22,645.4a8.56,8.56,0,0,0-1.23.87c-.67.57-1.32,1.22-2,1.9l-.17-.1a1.18,1.18,0,0,0-1.27.08,2.54,2.54,0,0,0-.53.41,3.77,3.77,0,0,0-1.1,2.37q0,7.34,0,14.66c0,1.13.79,1.44,1.65.95h0a3.75,3.75,0,0,0,1.64-2.88c0-3.08,0-6.2,0-9.32a5.89,5.89,0,0,1,1.06-3.18,5.61,5.61,0,0,1,1.84-1.8c.94-.54,1.9-.6,2.45.09a2.86,2.86,0,0,1,.5,1.8q0,4.57,0,9.16a1,1,0,0,0,1.6.88l.11-.07a3.54,3.54,0,0,0,1.59-2.86c0-3.13,0-6.25,0-9.36a6.74,6.74,0,0,0-.18-1.47,3.24,3.24,0,0,0-2.95-2.85,5.08,5.08,0,0,0-3,.75"/>
            <path class="cls-8" d="M462.34,614.17a8.8,8.8,0,0,0-1.22.86c-.69.58-1.36,1.25-2.08,1.92h0l0,0a1,1,0,0,0-1.3-.07,2.64,2.64,0,0,0-.49.38,3.44,3.44,0,0,0-1.18,2.47c0,.61,0,1.26,0,1.89q0,6.41,0,12.82a1,1,0,0,0,1.6.9l.06,0a3.58,3.58,0,0,0,1.64-2.92c0-3.11,0-6.21,0-9.32a4.27,4.27,0,0,1,.07-.79,6.34,6.34,0,0,1,2.78-4.13,3.26,3.26,0,0,1,.77-.33c1.37-.37,2.15.43,2.16,2.06q0,4.52,0,9c0,.83.28,1.32,1,1.35a1.33,1.33,0,0,0,.7-.2,3.63,3.63,0,0,0,1.65-2.76c0-3.24,0-6.49,0-9.72a5.91,5.91,0,0,0-.27-1.72,3.13,3.13,0,0,0-2.78-2.39,4.94,4.94,0,0,0-3,.73"/>
            <path class="cls-8" d="M387.41,650.75l-.12.07a3.73,3.73,0,0,0-1.58,3q0,3.45,0,6.91c0,1.78,0,3.57,0,5.34a23.6,23.6,0,0,0,.15,2.82c.33,2.41,1.49,3.77,3.34,4.23a5.6,5.6,0,0,0,3.5-.4,7,7,0,0,0,.87-.42,6.53,6.53,0,0,0,.78-.53,3.28,3.28,0,0,0,1.19-2.94c-.2-.87-.85-1-1.77-.49a3.68,3.68,0,0,1-2.63.54c-1.31-.32-2-1.33-2.06-3.2,0-4.37,0-8.76,0-13.13,0-.32-.05-.6-.06-.91,0-1.11-1-1.23-1.61-.85"/>
            <path class="cls-8" d="M398.73,650.89a3,3,0,0,0-.79.71,3.51,3.51,0,0,0-.87,2.25c0,4.78,0,9.55,0,14.35,0,1.06.68,1.67,1.68,1.1a2.84,2.84,0,0,0,.37-.26,3.78,3.78,0,0,0,1.27-2.46l0-7.39c0-2.46,0-4.93,0-7.39,0-.58-.22-.94-.59-1.05a1.31,1.31,0,0,0-1.06.16"/>
            <path class="cls-8" d="M452.87,619.64h0a3.7,3.7,0,0,0-1.67,2.89c0,2.41,0,4.84,0,7.27l0,7.35a1.75,1.75,0,0,0,0,.41c.21.77.93.89,1.59.51L453,638a3.69,3.69,0,0,0,1.54-2.81c0-.86,0-1.72,0-2.57q0-6,0-12c0-1.05-.74-1.51-1.63-1"/>
            <path class="cls-8" d="M398.69,644.25h0a3.57,3.57,0,0,0-1.63,2.87c0,1.15.74,1.47,1.69.94l0,0a3.51,3.51,0,0,0,1.58-2.8c.08-1.11-.72-1.53-1.66-1"/>
            <path class="cls-8" d="M452.74,613a3.61,3.61,0,0,0-1.57,2.81c0,1,.68,1.54,1.64,1l0,0a3.59,3.59,0,0,0,1.64-2.86c0-1.18-.74-1.45-1.69-.94l0,0"/>
          </g>
        </g>
      </g>
      <g>
        <path class="cls-6" d="M212.82,521.2c2.1,4.19,4.24,8.44,7.37,11.94s7.42,6.21,12.1,6.42c7.78.35,14.3-6.15,17.65-13.18s4.61-14.92,8-21.91a34.32,34.32,0,0,1,18.36-17.17c9.35-3.48,20.08-2.22,29.14-6.4,3.29-1.52,6.55-4.25,6.63-7.88a7.88,7.88,0,0,0-3.31-6.15,19.18,19.18,0,0,0-6.58-2.93c-12-3.39-24.59-3.63-37-3.84-3.87-.06-8.08,0-11.11,2.39s-4,6.61-6.08,9.95c-3.2,5.22-9,8.29-14.8,10.22s-11.92,3-17.52,5.45c-5,2.19-12.52,7-12,13.37.25,2.81,2,5.5,3.21,8Q209.89,515.31,212.82,521.2Z"/>
        <g>
          <path class="cls-3" d="M301.19,277.21s3.6,15.92,4,18.43-5.34,13.3-7.41,14.17-5.12,0-5.12,0l-2-21.59,3.76-11Z"/>
          <path class="cls-2" d="M299.7,293.7c2.11.3-1.25,9.53-1.71,10.47l-2.44.51-.43-2.26s1.09-.22,2-2A64.81,64.81,0,0,0,299.7,293.7Z"/>
          <path class="cls-5" d="M302.28,266.52l1.53,11.23a10.11,10.11,0,0,1-4.69,5.89l-3.82,2.18-.82-12Z"/>
          <path class="cls-24" d="M266.63,108.72s5.14-1.33,14.45,10.31,11.86,40.55,12.11,51.28,2.44,47.07,2.44,47.07l9.59,50.67s-3.51,6.51-6.88,7.83L295,277.21,268.59,148.77Z"/>
          <path class="cls-25" d="M207.43,488.07v11.34s1.31,4.47,2.29,5.34,4.25,18.1,11,23.44,12.1,5.45,17.66,4.58,6.11-4.25,5.12-10S232.18,496.5,231.41,494a31.17,31.17,0,0,1-1-6Z"/>
          <path class="cls-25" d="M252.6,456.23v18s.59,3.63,7.8,4.22,11.58-.58,15.95.87,15,5.38,24,2.18,7.92-10.41,6.73-12-6.38-4.25-14.41-6.14-11-3.2-13.11-4.65-3-6-3-6Z"/>
          <path class="cls-26" d="M212.33,492.21s7.56,1.82,12.79,1.82a15.25,15.25,0,0,0,9-3.2s-1.74-61.06,2.33-77.34a162.38,162.38,0,0,1,9.78-28.13l28.89-40.19L261,294.39l-44.86,9.21-5.52,81.34-4.07,26.43-2.91,16.38Z"/>
          <path class="cls-24" d="M206.23,284s1.09,43.17,1.09,60,.65,29.44,0,39.9-5.45,23.33-5.67,36.42,3.92,67.6,3.92,67.6-.22.87,3.27,2.62l3.49,1.74s-6.32-56-1.31-76.76,7.63-34.23,9.38-58.44,2.42-48,2.42-48a86.51,86.51,0,0,0,21.57,4.63c13.08,1.26,21.37-1.36,21.37-1.36s-7.41,36.2-12.21,50.37-7.3,22.68-7.3,22.68-1,16.57,0,28.57,4,45.14,4,45.14a31.16,31.16,0,0,0,10.7,3.49c6.31.87,17.43-2.4,18.74-3.27l1.31-.87s-3.49-36.63,0-58,13.52-74.79,14.39-92.24a268.21,268.21,0,0,0-1.09-36l-4.58-16.79Z"/>
          <g>
            <path class="cls-26" d="M222.73,159.55c5.74,3,37.75,25.42,48.46,30,6,2.57,14.08,4,20,4.84-.4-13.77-.78-27.77-.78-34.83,0-15.17-6.32-34.11-11.77-42.18s-17.22-8.65-17.22-8.65l-44.92,18s-26.42,23-26.32,37.6a19.34,19.34,0,0,1,4.59-8.26C202.3,148.77,217,156.6,222.73,159.55Z"/>
            <path class="cls-24" d="M291.18,194.39c-5.92-.8-14-2.27-20-4.84-10.71-4.58-42.72-27-48.46-30s-20.42-10.78-28-3.47a19.34,19.34,0,0,0-4.59,8.26,10.8,10.8,0,0,0,.15,1.85c2.62,14.37,12.21,27.28,14.39,50s-2,70.65-2,70.65a132,132,0,0,0,20.08,13.63c.16-12,.53-32.83,1.29-39.36,1.09-9.38,8.72-15.48,13.88-17.88,4.12-1.92,40.67-2,55.2-2-.63-5-1.05-9.06-1.05-11.09C292.14,225.68,291.64,210.18,291.18,194.39Z"/>
            <path class="cls-26" d="M238,243.19c-5.16,2.4-12.79,8.5-13.88,17.88-.76,6.53-1.13,27.32-1.29,39.36a64.47,64.47,0,0,0,9.57,4.25c14.17,4.8,34.67-1.31,34.67-1.31l-1.38-22,16.57-13.52,2.25,25.73s3.05,0,7.85-4.14a26.78,26.78,0,0,0,6.76-8.79s-4-24.07-5.92-39.43C278.66,241.17,242.11,241.28,238,243.19Z"/>
          </g>
          <path class="cls-24" d="M221,117.51s-4,7.93-4.47,9.24,1.6,14.58,6.25,27a130.65,130.65,0,0,0,8.58,19.06l12,.8L238,182.55s15,21.69,21.05,37l6.06,15.33,14.61-18.73,2.55-58h-5.81l4.58-4.45s-7.63-22.69-15-29.76-20.72-6.64-20.72-6.64Z"/>
          <g>
            <path class="cls-5" d="M265.68,281.35l16.57-13.52s-.4-11.09-1.17-26.61c-6.07,0-13,.1-19.42.25C264,262.5,265.68,281.35,265.68,281.35Z"/>
            <path class="cls-5" d="M278,191.85c-1.59-20.38-3.6-38.55-6-45C265.68,129.59,260.6,123,260.6,123l-27,23.86a197.43,197.43,0,0,1,15.94,29.94c8.62,5.55,17.05,10.75,21.62,12.71A51.58,51.58,0,0,0,278,191.85Z"/>
            <path class="cls-27" d="M271.19,189.55c-4.56-2-13-7.15-21.62-12.71a101.87,101.87,0,0,1,4.63,13.6c2.52,9.91,5.29,31.42,7.47,51,6.46-.15,13.34-.22,19.42-.25-.71-14.4-1.74-32.63-3-49.37A51.58,51.58,0,0,1,271.19,189.55Z"/>
          </g>
          <path class="cls-26" d="M191.18,160c-12.7,19.83,16.67,43.94,23.34,49.18s20.35,17.31,30.09,19.88,77.71,11.52,77.71,11.52,5.23-7.68,4.07-13.72a45.6,45.6,0,0,0-2.91-9.78l-66.76-17.9S207.75,134.1,191.18,160Z"/>
          <path class="cls-27" d="M222.73,117.51a30.77,30.77,0,0,0,2.47,16.43c8.43,19.1,23,24.28,23,24.28l5.39-13.81h15s-5.08-13.08-7.19-18-10.19-8.87-10.19-8.87Z"/>
          <g>
            <g>
              <path class="cls-25" d="M265.69,72.32c-5.08,1.69-10.44,2.77-15.1,5.41-4.2,2.38-7.61,5.91-11.39,8.92a44.72,44.72,0,0,1-23.09,9.88,35.15,35.15,0,0,1-6.25.06c4.19,12.92,12.88,25.52,12.88,25.52s20.79-10.18,21-10.18,9.52-6,9.52-6L268,79.81s3.92-7.61,3.16-10.4A14.31,14.31,0,0,1,265.69,72.32Z"/>
              <path class="cls-28" d="M237.34,58.15c-16.14.8-22.39,10-22.39,10s-9.3,6.25-6.91,21.22a48.78,48.78,0,0,0,1.8,7.26,35.15,35.15,0,0,0,6.25-.06,44.72,44.72,0,0,0,23.09-9.88c3.78-3,7.19-6.54,11.39-8.92,4.66-2.64,10-3.71,15.1-5.41a14.31,14.31,0,0,0,5.5-2.91c0-.07,0-.15-.05-.21C270.12,66.59,253.47,57.35,237.34,58.15Z"/>
            </g>
            <path class="cls-3" d="M230.21,120.81l-7.49,1.31s9.45,11.34,16.79,16a31.7,31.7,0,0,0,13.74,5s.84-7.36,0-9.81S230.21,120.81,230.21,120.81Z"/>
            <path class="cls-2" d="M228.61,113a62.12,62.12,0,0,1-2.91,6.32,11.83,11.83,0,0,1-3,2.76,122.49,122.49,0,0,0,11.77,8.36c5.09,3,18.75,2.54,18.75,2.54l-3.85-10Z"/>
            <g>
              <path class="cls-3" d="M255.53,117.12c-.1-2.12.29-4.28-.15-6.36-.53-2.49-2.18-4.57-3.11-6.93-2-5-.53-10.81-.79-16.18A7.76,7.76,0,0,0,250.06,92c-.22,2.83,0,6.11-1.89,8.14s-3.92,3-5.23,5.16-.36,5.31-2.07,5.52-5.05-4.58-9.63-5.52-6.76,3.92-5.81,6.76,7.49,5.45,9.3,5.74,7.63,6,10.76,8c2.57,1.62,11.9,2.93,15.92,2.42A16,16,0,0,1,255.53,117.12Z"/>
              <path class="cls-4" d="M269.1,110.71s3.63-3.05,3.63-4.36-5.67-6.54-5.67-7.56,1-6.25,1-10.32-.07-10-.07-10-8,4.43-12.5,6.32a9.51,9.51,0,0,0-4,2.81c.26,5.37-1.18,11.15.79,16.18.93,2.36,2.58,4.45,3.11,6.93.44,2.08,0,4.23.15,6.36a16,16,0,0,0,5.87,11.12,3,3,0,0,0,1.74-.6C264.59,126,269.1,110.71,269.1,110.71Z"/>
            </g>
          </g>
        </g>
      </g>
      <g>
        <path class="cls-29" d="M370,217.92l8.59,24.42a5.57,5.57,0,0,0,7.22,3.36c11.07-4.2,40.75-13.86,44.58-17.78,5-5.08,15.2-89.24,15.2-89.24s-10.95,10-15.2,20.9-11.42,38-11.42,38Z"/>
        <g>
          <g>
            <path class="cls-6" d="M387.09,511.4c5.93,1.73,12.26,1,18.42.53a174.77,174.77,0,0,1,26.3.11c3.25.26,6.75.72,9.1,3,2,2,2.79,4.93,3,7.76.61,8-2.18,16.31.73,23.74,2.52,6.46,9.21,10.81,16.12,11.4s13.85-2.25,19.06-6.83,8.81-10.77,11.19-17.28c2.51-6.83,3.75-14.05,5-21.23.69-4,1.33-8.33-.53-11.94-1.72-3.34-5.28-5.35-8.89-6.38-7.16-2-14.91-.86-22.09-2.79-9.11-2.45-16.26-9.56-25.08-12.93s-18.44-2.77-27.37-.23-17.2,6.94-25.39,11.31c-3.65,1.95-11.1,5.89-10.9,10.82C376,505.79,382.58,510.08,387.09,511.4Z"/>
            <path class="cls-25" d="M465.25,520.14s-7.11,10.92-9,17.33-1.93,15,4.5,16.67,20.64-8.15,23-15.51,4.34-22.32,4.34-22.32a6.07,6.07,0,0,0,1.92-4.52c0-3-.34-11.95-3.16-16s-13.17,12.4-13.17,12.4Z"/>
            <path class="cls-4" d="M468.11,495.78s1.83,14.11-2.86,23.31-6.45,14.53-1.83,18.38,13.09-2.35,17.62-11.33,4.39-17.1,5.29-26.93,0-13.47,0-13.47l-17,9.63Z"/>
            <path class="cls-25" d="M397.43,480s-10.07,6.84-13.81,11.54-7.16,12.33-.53,13.86,16-.07,22.76-3.7,18.7-19.45,18.7-19.45l-.43,9.84a2.72,2.72,0,0,0,2.67.91c1.5-.49,4.83-18.33,5.09-22.82s-1.79-10.47-1.79-10.47Z"/>
            <path class="cls-2" d="M410.87,488c.41-.54,7.37-8.57,11.85-13.81A35,35,0,0,0,429.57,463c1.18-2.84,0-9.79,0-9.79l-9.62,6.52Z"/>
            <path class="cls-4" d="M408.05,456s-5.84,17.53-8.83,21.66-10.26,11-6,15.39,11.26,1.71,14.82-1.85,7.79-9.83,10.95-17,3.73-16.3,3.73-16.3Z"/>
            <g>
              <path class="cls-1" d="M442.54,262s-.26.73-.72,2l1.92,0Z"/>
              <g>
                <path class="cls-29" d="M413.76,370.37c.34-34.4,4.31-74.47,18.11-106.09l-6.44.18-4.56,12.31s-9.69,29.35-11.4,47-1.14,71-2.28,94-4,41.32-4,41.32a26.4,26.4,0,0,0,7.67,3.87C414.8,432.44,413.45,401.29,413.76,370.37Z"/>
                <path class="cls-30" d="M431.88,264.28C418.07,295.9,414.11,336,413.76,370.37c-.31,30.92,1,62.07-2.89,92.67a22.17,22.17,0,0,0,4.88,1,9.54,9.54,0,0,0,3.25-.33c1.2-14.23,3.2-40.33,4.16-66.65,1.43-39,.57-51,3.14-74.1C428.5,303,439,272.21,441.82,264.07,438.23,264.13,434.72,264.21,431.88,264.28Z"/>
              </g>
              <path class="cls-30" d="M444.08,353.43c2.54-12.73,14.55-56.71,18.25-70.2-.43-9.75-.91-18.32-1.27-18.78s-8.79-.54-17.32-.42l7,11.6s-11.7,45.59-14.79,67c-2.86,19.81-5.52,92.95-7,115.37a15.18,15.18,0,0,1,5.58-2.79c1.09-.18,2.17-.4,3.18-.63.79-10.16,1.59-22.87,1.73-34.14C439.69,397,441.06,368.54,444.08,353.43Z"/>
              <path class="cls-29" d="M462.33,283.23c-3.71,13.49-15.71,57.47-18.25,70.2-3,15.1-4.39,43.6-4.68,67-.14,11.27-.94,24-1.73,34.14a66.5,66.5,0,0,0,6.79-1.93s4.52-48.16,3.15-63,15.81-77.52,15.81-77.52S462.92,296.57,462.33,283.23Z"/>
              <path class="cls-29" d="M450.72,275.64l-7-11.6-1.92,0c-2.85,8.14-13.32,39-15.53,58.87C423.73,346,424.58,358,423.16,397c-1,26.32-3,52.42-4.16,66.65,3.53-.95,6.86-3.6,9.91-5.71,1.51-22.42,4.16-95.56,7-115.37C439,321.23,450.72,275.64,450.72,275.64Z"/>
            </g>
            <g>
              <path class="cls-29" d="M451.67,270.42l-10.42-2.7,2.82,48.95a2.94,2.94,0,0,1,.39.29c1.64,1.21,8.22,5.9,14.68,8C458.37,319.16,451.67,270.42,451.67,270.42Z"/>
              <path class="cls-30" d="M461.63,325.65a62,62,0,0,0,11.21.76c-.09-8-.37-15.6-1-22.18-1.22-12.72-2.49-22.64-3.46-29.47l-16.7-4.33s6.69,48.74,7.47,54.55A24,24,0,0,0,461.63,325.65Z"/>
              <path class="cls-29" d="M472.84,326.41c5.07,0,10.42-.24,14.1-.45.41-15.07-1.15-33.72-2.58-47.06l-16-4.14c1,6.83,2.23,16.75,3.46,29.47C472.46,310.8,472.75,318.43,472.84,326.41Z"/>
              <path class="cls-30" d="M498,427.82c-3.85-26.72-5.13-47-5.13-53.44s11.76-61.79,9.19-78.67c-.62-4-1.44-8.47-2.34-12.84l-15.34-4c1.43,13.33,3,32,2.58,47.06,2.79-.16,4.62-.3,4.62-.3s-8.55,53-7.69,60.9,8.55,65.21,7.69,81.88c-.35,6.73-1.46,16.73-2.66,26.26a7.76,7.76,0,0,1,1.16-.4,24.62,24.62,0,0,0,5.67-2.24C497.61,477.53,500.8,447.47,498,427.82Z"/>
              <path class="cls-29" d="M500.11,373.74c2.56-13.68,10.47-56.22,10.47-66s-5.84-23.51-5.84-23.51l-5-1.31c.9,4.38,1.72,8.8,2.34,12.84,2.56,16.88-9.19,72.25-9.19,78.67s1.28,26.72,5.13,53.44c2.83,19.65-.35,49.71-2.23,64.23a26,26,0,0,0,4.59-3.1s4.7-53.22,2.14-72.25S497.54,387.42,500.11,373.74Z"/>
              <path class="cls-31" d="M491.56,468.43c.85-16.67-6.84-74-7.69-81.88s7.69-60.9,7.69-60.9-1.83.14-4.62.3c-.08,3.06-.25,6-.51,8.67-2.56,26.08-6.41,47-5.13,59s7.05,51.09,6.84,69.47c-.12,10.54-.74,23.52-1.24,32.7a13.65,13.65,0,0,1,2-1.09C490.1,485.16,491.21,475.16,491.56,468.43Z"/>
              <path class="cls-30" d="M481.3,393.62c-1.28-12,2.56-32.92,5.13-59,.26-2.69.43-5.61.51-8.67-3.68.21-9,.46-14.1.45.25,23.59-1.28,50.26-1,62.08.37,15.82,3.91,38,5,67.12.69,17.53-.54,36.6-1.62,49,3.67-1.81,7.81-6.35,11.64-8.81.5-9.17,1.12-22.16,1.24-32.7C488.35,444.71,482.58,405.59,481.3,393.62Z"/>
              <path class="cls-31" d="M476.88,455.61c-1.14-29.07-4.68-51.3-5-67.12-.28-11.82,1.26-38.49,1-62.08a62,62,0,0,1-11.21-.76,24,24,0,0,1-2.49-.68h0c.78,5.81,2.65,57.11,4.28,78.48s4.62,56,4.62,68.4c0,6.62-1.32,20-2.54,31.14,1.85.8,3.88,1.61,5.75,2.21a5.36,5.36,0,0,0,4-.6C476.34,492.21,477.56,473.13,476.88,455.61Z"/>
              <path class="cls-30" d="M463.42,403.45c-1.63-21.37-3.5-72.67-4.28-78.48h0c-6.45-2.11-13-6.8-14.68-8,.77.65,2.74,2.62,6.26,8,4.71,7.27,5,72.25,5,72.25s2.45,22,4,34.2.43,56.64,0,62.63l-.43,6s2.8,1.44,6.22,2.92c1.23-11.09,2.54-24.52,2.54-31.14C468,459.45,465.05,424.83,463.42,403.45Z"/>
            </g>
            <path class="cls-1" d="M444.47,317a2.94,2.94,0,0,0-.39-.29Z"/>
            <path class="cls-32" d="M435.55,269.79S437,290.38,435,294s-8,.64-11.61-1.5a35.6,35.6,0,0,1-4.12-3,9.55,9.55,0,0,1-3.11-10.11c2.64-8.94,7.49-26.16,9.07-36.8,2.21-14.88-4-44.64-1.85-54.67S435.91,158.28,440,149.3s2.62-11.31,14.37-13.88a85.76,85.76,0,0,1,22.5-1.71Z"/>
            <path class="cls-29" d="M515.21,247.42l3.27-4.78v-20l-11.09-4.07s-9.64,26.47-9.64,33.23,15,48.22,15,48.22-2.58,8-10.06,9.55-34.2-27.48-34.2-27.48L455.76,228.8l16.08-20.5,33-35.91L525.11,204l12.18,42.45V257L523,260.45Z"/>
            <path class="cls-32" d="M498.82,262.26s5.56,15.34,7.69,19.81l0,.08a3.85,3.85,0,0,0,5.9,1.33c9.31-7.58,32.62-27.18,34.67-34.92,2.56-9.69-22.8-75.81-27.07-80.37a84.32,84.32,0,0,1-8.19-10.76L501.3,145.5s-37.39,39-39.67,38.93-10.91,39.9-10.91,39.9l2.93,52.44s2.56,26.22,3.42,29.07,3.5,6.27,9.59,6.27,36-2.56,36-2.56,0-16.53-5.41-21.66a111.06,111.06,0,0,0-13.18-10.2l-6.7-10.81,4.86-5.26,1.36-16.87L455.76,228.8s18.41,3.22,25.54,1.51,20-41,20-41l1.94,20.15,15.24,33.12s7.27-.82,11,3.83l3.7,4.65s-11.41-3.13-14.68-3.42l-3.27-.28Z"/>
            <path class="cls-29" d="M486.85,129.28l11.54,7.13,2.9,9.09s-13.83,24-17.7,33.66l-3.87,9.69H471l4.65,4.7s-14.6,15.27-17.91,22.37A55.26,55.26,0,0,0,453.51,229l-21-6.41s-2.09-18.1-2.09-28.79a74.85,74.85,0,0,1,1.88-17.67h5.36l-2.68-5A176.63,176.63,0,0,1,450.72,148a52.79,52.79,0,0,1,21.11-15.67Z"/>
            <g>
              <path class="cls-31" d="M440,242.64h0l7.61,2.11s-.3-27.9,3.76-43.71c3.91-15.22,39.28-63.68,41.94-67.32l-5-4.43-12.59,4c-10.31,18.78-30.33,55.85-31.61,62.81C442.34,205.52,440,242.64,440,242.64Z"/>
              <path class="cls-30" d="M435.93,241.51l4.07,1.13h0s2.34-37.11,4.07-46.52c1.29-7,21.31-44,31.61-62.81l-12.27,3.92c-9.42,17.43-22.9,43.15-25.09,51.63C435.39,200.24,435.77,232.63,435.93,241.51Z"/>
              <path class="cls-31" d="M435.93,241.51c-.16-8.88-.54-41.27,2.4-52.66,2.19-8.48,15.67-34.2,25.09-51.63l-2.36.75s-24.65,36.34-27.79,55a121,121,0,0,0-1,18.44l3.36,30Z"/>
              <path class="cls-30" d="M493.31,133.71c-2.66,3.64-38,52.1-41.94,67.32-4.06,15.82-3.76,43.71-3.76,43.71l6.22,1.73c.24-16.06.77-33.23,2-37,4.84-15.25,18.52-38.33,26.93-49a122.72,122.72,0,0,0,13.34-21.22v-3.15Z"/>
              <path class="cls-29" d="M435.93,241.51c0,1.45,0,2.28,0,2.28l1.68,14.59c2.77,1.2,5.95,2.53,8.92,3.67L440,242.64Z"/>
              <path class="cls-29" d="M447.61,244.74l6.07,17.11c0-4.62.07-9.94.15-15.39l-6.22-1.73Z"/>
              <path class="cls-30" d="M435.93,241.51l-.27-.08-3.36-30c.05,14.9,1.26,33.43,2.19,45.56l3.17,1.39L436,243.78S436,243,435.93,241.51Z"/>
              <path class="cls-30" d="M447.61,244.74,440,242.64l6.57,19.4c2.27.87,4.42,1.64,6.18,2.16l.91.26c0-.83,0-1.71,0-2.6l-6.07-17.11Z"/>
            </g>
            <path class="cls-33" d="M434.49,257c.59,7.69,1.07,12.81,1.07,12.81l18.1,7s0-5,0-12.31l-.91-.26C447.75,262.73,439.59,259.24,434.49,257Z"/>
            <g>
              <path class="cls-34" d="M518.38,139.27c-1.07-10.35-7.8-14.66-8.87-21.82s1.85-17.38.45-28c-1.26-9.53-13.79-23.4-42.77-19.31-4.71.67-16.57,8.73-18.17,19.09a49.54,49.54,0,0,0-.08,10.43c.65-6,2.33-12.06,6.47-12.32,0,0,14.91,16.72,21.89,20.56a93.38,93.38,0,0,0,16.6,6.56s19.88,13.49,20.73,25.65-2.78,17.31-2.78,17.31S519.45,149.63,518.38,139.27Z"/>
              <path class="cls-35" d="M514.64,140.11c-.86-12.16-20.73-25.65-20.73-25.65a93.38,93.38,0,0,1-16.6-6.56c-7-3.85-21.89-20.56-21.89-20.56-4.14.26-5.82,6.31-6.47,12.32a219.11,219.11,0,0,0,4.56,28.8c1,3.74,1.92,12.29-1.82,18.92a19.66,19.66,0,0,1-9.94,8.66l4.7.64a20.26,20.26,0,0,0,7.05-3.67,18.79,18.79,0,0,0,5.45-7.66s.21,1.5-1.82,5.24-9.4,6.09-9.4,6.09,7.69-2.14,10.58-6,5.95-12.5,5.95-12.5l25.89-10.63s4.83,3.9,6.54,5.61,3.42,7.05,3.85,7.59,11.33,16.67,11.33,16.67S515.5,152.28,514.64,140.11Z"/>
              <path class="cls-36" d="M514.64,140.11c-.86-12.16-20.73-25.65-20.73-25.65a93.38,93.38,0,0,1-16.6-6.56c-7-3.85-21.89-20.56-21.89-20.56-4.14.26-5.82,6.31-6.47,12.32a219.11,219.11,0,0,0,4.56,28.8c1,3.74,1.92,12.29-1.82,18.92a19.66,19.66,0,0,1-9.94,8.66l4.7.64a20.26,20.26,0,0,0,7.05-3.67,18.79,18.79,0,0,0,5.45-7.66s.21,1.5-1.82,5.24-9.4,6.09-9.4,6.09,7.69-2.14,10.58-6,5.95-12.5,5.95-12.5L485,128.68a70.62,70.62,0,0,1,6.15,4.88c1.71,1.71,8.12,9.6,8.12,9.6.43.53,12.61,14.27,12.61,14.27S515.5,152.28,514.64,140.11Z"/>
            </g>
            <path class="cls-4" d="M465.25,136.37a143.71,143.71,0,0,0-7.58,22.23c-3.42,13.25-4.17,16.78-4.17,16.78s23.62-21.16,31.21-28,7.27-7.91,7.27-9.08-1.49-7.51-1.49-7.51l-4.49-.15Z"/>
            <path class="cls-2" d="M464.27,136.05v6.41s-.36,1.78,6.27-.36,8.26-5,13.75-8.48,6.2-2.85,6.2-2.85-.72-3.14-.93-4.85-.21-7.12-.21-7.12Z"/>
            <path class="cls-4" d="M455.41,87.34a49.36,49.36,0,0,0,11.32,16.23c8.32,8.11,14.63,10.75,14.63,10.75a77.6,77.6,0,0,1,7.76-4.12c5.09-2.42,7.86,4.09,6.12,7.83s-10.66,6.82-10.66,6.82a29.13,29.13,0,0,1-9.77,10.26c-6.36,3.77-13.83,5.3-15,3.26s-9.85-21-9.58-23,4.51-2.84,5-5.62-1.18-11.46-1-15.46A26.88,26.88,0,0,1,455.41,87.34Z"/>
            <path class="cls-4" d="M499.75,264.79l-3,2.09s-13.32-5.42-14.5-5.26-7.84,6.21-8.29,7.38,2.26,3.4,2.26,3.4l1.35.13a2.37,2.37,0,0,0-.25.82c-.07,1.63,2.25,2.87,2.25,2.87l3.09,2.7,1.43-1.22a2.16,2.16,0,0,0-.71,1.44c.13,1.26,2.91,2.73,4.07,2.91a2.19,2.19,0,0,0,2.36-1.45c.25-.8-.79-1.38-.79-1.38s4.94,2,8.91,1.35a15.08,15.08,0,0,0,6.83-3.32Zm-20.62,5.28a2.55,2.55,0,0,1-.14-1,26.85,26.85,0,0,1,3.2-2.76S480.51,268.19,479.12,270.07Z"/>
            <circle class="cls-29" cx="510.58" cy="277.13" r="2.14"/>
            <circle class="cls-31" cx="486.85" cy="125.09" r="2.71"/>
          </g>
          <path class="cls-1" d="M466.3,108.39a7,7,0,0,0-1.74-.78,8.11,8.11,0,0,0-3.68-.38c-1.54.33-3.27,1-3.68,2a4.23,4.23,0,0,0,.07,2.91c.59,1.78,1.19,3.92,3.57,5.68a4.56,4.56,0,0,0,1.35.71,3.44,3.44,0,0,0,3.85-1.38,11.84,11.84,0,0,0,1.44-5C467.56,110.61,467.49,109.2,466.3,108.39Z"/>
          <g>
            <path class="cls-37" d="M452.18,104.1a5.4,5.4,0,0,0-2-1.67,1.67,1.67,0,0,0-1-.18c-.64.15-.63,1.54-.55,3.11a32,32,0,0,0,1,5.93c.38,1.29,1.23,3.12,2.2,3.55a1,1,0,0,0,.73,0c1.28-.45,1.54-2.29,1.82-3.76a8.15,8.15,0,0,0-.05-2.91A12.3,12.3,0,0,0,452.18,104.1Z"/>
            <path class="cls-38" d="M455.25,107.29l-.68-.36a23.77,23.77,0,0,0-3.31-4.8,7.07,7.07,0,0,0-1.81-1.39l-.28-.11-.44-.2c-.54-.24-1.16-.49-1.26-.38s-.21.42-.12,1.22.61,4.42.88,5.88a41,41,0,0,0,1.26,5.09c.47,1.41,1.3,3,2.24,3.4s1.89-.19,2.39-1.59a25.27,25.27,0,0,0,.84-3.71c.07-.29.26-.35.39-.32Zm-.9,3.83c-.28,1.47-.54,3.31-1.82,3.76a1,1,0,0,1-.73,0c-1-.43-1.82-2.27-2.2-3.55a32,32,0,0,1-1-5.93c-.08-1.57-.1-3,.55-3.11a1.67,1.67,0,0,1,1,.18,5.4,5.4,0,0,1,2,1.67,12.3,12.3,0,0,1,2.12,4.1A8.15,8.15,0,0,1,454.36,111.12Z"/>
          </g>
          <g>
            <path class="cls-39" d="M468,108.39a8.67,8.67,0,0,0-2-.78,10.65,10.65,0,0,0-4.23-.38c-1.77.33-3.76,1-4.23,2a3.72,3.72,0,0,0,.08,2.91c.68,1.78,1.37,3.92,4.1,5.68a5.55,5.55,0,0,0,1.55.71,4.26,4.26,0,0,0,4.43-1.38,10.71,10.71,0,0,0,1.66-5C469.4,110.61,469.33,109.2,468,108.39Z"/>
            <path class="cls-38" d="M471.44,107.9a12.26,12.26,0,0,0-2.65-.9l-.92-.25-.59-.17a15.94,15.94,0,0,0-3.75-.42,18,18,0,0,0-6.7,1.51l-1.52-.35-.09,0,.14,2.73h.06l.07,0a1.59,1.59,0,0,1,.78.7,27.91,27.91,0,0,0,2,4.63,9.28,9.28,0,0,0,5.18,4.05,4.55,4.55,0,0,0,4.54-1.18,12.94,12.94,0,0,0,2.32-3.9c.46-1.23,1.33-4.37,1.46-5.1A1.34,1.34,0,0,0,471.44,107.9Zm-2.12,4.22a10.71,10.71,0,0,1-1.66,5,4.26,4.26,0,0,1-4.43,1.38,5.55,5.55,0,0,1-1.55-.71c-2.73-1.75-3.42-3.89-4.1-5.68a3.72,3.72,0,0,1-.08-2.91c.47-1,2.45-1.69,4.23-2a10.65,10.65,0,0,1,4.23.38,8.67,8.67,0,0,1,2,.78C469.33,109.2,469.4,110.61,469.33,112.11Z"/>
          </g>
          <path class="cls-4" d="M455.3,109.76c-.5,2.79-4.74,3.63-5,5.62s8.45,20.93,9.58,23Z"/>
          <polygon class="cls-38" points="484.15 112.71 470.82 109.76 470.29 112.71 481.36 114.32 484.15 112.71"/>
        </g>
        <circle class="cls-32" cx="383.43" cy="240.26" r="2.35"/>
      </g>
    </g>
    <g class="cls-40">
      <path class="cls-29" d="M554.77,111.1c-2.11-1.22-3.82-.24-3.83,2.18a8.5,8.5,0,0,0,2.87,5.91c0,8-1.58,276.51-1.1,280.33a3.54,3.54,0,0,1,0,.49,1.91,1.91,0,0,0,.92,1.57c.46.27.93.19.94-.49,0-9.5,1.3-278.27,1.31-280.76,1.56.34,2.68-.67,2.69-2.64a8.39,8.39,0,0,0-3.81-6.59"/>
      <path class="cls-41" d="M632.29,201.43a6.34,6.34,0,0,1-2.88-5c0-1.83,1.3-2.57,2.9-1.65l25.47,14.71a6.34,6.34,0,0,1,2.88,5c0,1.84-1.3,2.58-2.89,1.66l-25.47-14.71m0-14.22a6.34,6.34,0,0,1-2.88-5c0-1.83,1.3-2.57,2.9-1.65l56.72,32.75a6.34,6.34,0,0,1,2.88,5c0,1.84-1.3,2.58-2.89,1.66l-56.72-32.75m0-14.23a6.34,6.34,0,0,1-2.88-5c0-1.83,1.3-2.58,2.9-1.65l56.72,32.75a6.35,6.35,0,0,1,2.88,5c0,1.83-1.3,2.57-2.89,1.65L632.37,173m-34.48,10.13c-9.19-5.31-16.63-18.18-16.6-28.75s7.51-14.83,16.71-9.52,16.63,18.18,16.6,28.75-7.51,14.83-16.71,9.52m99.36,10.25-118.6-68.48c-5.18-3-9.4-.59-9.41,5.36l-.1,35.87c0,6,4.17,13.2,9.35,16.19l118.6,68.48c5.18,3,9.39.59,9.41-5.36l.1-35.87c0-6-4.17-13.21-9.35-16.2"/>
      <path class="cls-20" d="M591.47,155.53c-1.16-11.33,2-11.5,6.76-8.76.37.21.75.45,1.14.69,5.36,3.39,5.48,11.69,5.61,14.87s-.88,5.33-.76,8.16a44.45,44.45,0,0,0,.62,5.33,76.43,76.43,0,0,1,5.57,6.57c.18.3.36.64.55,1-2.12,1.84-5,2.46-8.4,1.65a17.79,17.79,0,0,1-4.67-1.93l-.26-.16-.24-.14a27.46,27.46,0,0,1-4.18-3.18,38.77,38.77,0,0,1-8.69-12c.75-.23,4.51.07,6.54.25.15-1.37.45-2.74.69-3.89.41-1.94-.16-5.67-.28-8.43M598,144.85c-9.19-5.31-16.68-1.05-16.71,9.52s7.4,23.44,16.6,28.75,16.68,1,16.71-9.52-7.4-23.43-16.6-28.75"/>
      <g class="cls-42">
        <path class="cls-43" d="M598.23,146.77c-4.75-2.74-7.92-2.56-6.76,8.76l.7,2.48,2.1,4.12c-.29-.66-1.07-2.76-1.3-3.38a.3.3,0,0,1-.26,0,.87.87,0,0,1-.39-.68.29.29,0,0,1,.1-.24,6.35,6.35,0,0,1-.4-1.13c-.35-1.35-.28-3.34,0-3.24l0,0a2.49,2.49,0,0,1,.55.79l.07,0a6,6,0,0,1,.87.45l.25.14.19.11a8,8,0,0,1,.8.54,3.55,3.55,0,0,0,1.93.08,20.74,20.74,0,0,0,3.38-2.59s.32,1.51.83,3.17c.34,1.11,1,2.68,1.4,3.61a5.27,5.27,0,0,1,.7.45l0,0a.61.61,0,0,1,.58-.1l.06,0c.32.33.29,1.2.12,2.77-.08.79-.35,1-.59,1a.6.6,0,0,1,0,.22c0,.21-.15.3-.33.19a.72.72,0,0,1-.28-.34,8.66,8.66,0,0,1-1.35,2.37l.08,4.38s0,.24.19.92a14.57,14.57,0,0,0,2.05,2.81l1.24,1.35a44.45,44.45,0,0,1-.62-5.33c-.12-2.83.9-5,.76-8.16s-.26-11.49-5.61-14.87c-.39-.25-.77-.48-1.14-.69"/>
        <path class="cls-32" d="M591.06,167.86c-2-.18-5.79-.48-6.54-.25a38.77,38.77,0,0,0,8.69,12l-.31-4.27a17.81,17.81,0,0,1-1.86-4.75,11.64,11.64,0,0,1,0-2.76m12.54,6.61-1,10.58c3.36.81,6.28.19,8.4-1.65-.18-.37-.37-.71-.55-1a76.43,76.43,0,0,0-5.57-6.57l-1.24-1.35"/>
        <path class="cls-31" d="M593.19,170.43c-.64,1.56.33,6.09.33,6.09s-.27-.46-.63-1.15l.31,4.27a27.46,27.46,0,0,0,4.18,3.18l-4.2-12.38m10.4,4-6,8.49.26.16a17.79,17.79,0,0,0,4.67,1.93l1-10.58"/>
        <path class="cls-4" d="M601.28,166.35l-.2.2a2.52,2.52,0,0,1-3.22.55l-.18-.11c-1.4-.93-2.86-3.87-2.86-3.87a24.48,24.48,0,0,0,3.1,5.23,8.26,8.26,0,0,0,2.16,1.86,4.4,4.4,0,0,0,1.27.53l-.08-4.38"/>
        <path class="cls-44" d="M595.41,159l-.06,0,.06,0m5,2.88-.18-.1.18.1m-.68-.46a3.31,3.31,0,0,0,.38.28,3.31,3.31,0,0,1-.38-.28m1.68.64a1.39,1.39,0,0,1-.35,0,1.39,1.39,0,0,0,.35,0m-7-6.58a3.62,3.62,0,0,0-.63-.3c-.33-.11-.41.08-.41.36,0-.28.08-.46.41-.36a3.62,3.62,0,0,1,.63.3m6.82,3.94a5.66,5.66,0,0,0-1.37-.6c-.58-.14-1.23-.21-1.39,0a.43.43,0,0,0-.09.29.43.43,0,0,1,.09-.29c.16-.2.81-.13,1.39,0a5.67,5.67,0,0,1,1.37.6h0m2.38.65a.61.61,0,0,0-.58.1.35.35,0,0,1,.08.36,7.43,7.43,0,0,1-.53,1.07,2,2,0,0,1-.79.68,1.78,1.78,0,0,1-1.49-.25,4.85,4.85,0,0,1-1.65-1.62A8.51,8.51,0,0,1,598,159a.89.89,0,0,0-.25-.27h0c-.08,0-.23-.1-.29,0a2.11,2.11,0,0,1-.6.68,1.76,1.76,0,0,1-1.6-.26,4.51,4.51,0,0,1-1.44-1.44,9.37,9.37,0,0,1-.76-1.58c-.15-.43-.46-1.45-.51-1.67s0-.21,0-.24a2.49,2.49,0,0,0-.55-.79l0,0c-.29-.1-.36,1.89,0,3.24a6.35,6.35,0,0,0,.4,1.13.27.27,0,0,1,.3,0,.87.87,0,0,1,.4.69.26.26,0,0,1-.14.26c.23.62,1,2.71,1.3,3.38l.3.58v4.72s-.71,1.43-1.36,3h0l4.2,12.38.24.14,6-8.49a14.57,14.57,0,0,1-2.05-2.81c-.16-.68-.19-.92-.19-.92a4.4,4.4,0,0,1-1.27-.53,8.26,8.26,0,0,1-2.16-1.86,24.48,24.48,0,0,1-3.1-5.23s1.45,2.94,2.86,3.87l.18.11a2.52,2.52,0,0,0,3.22-.55l.2-.2a8.66,8.66,0,0,0,1.35-2.37.62.62,0,0,1-.05-.24c0-.21.15-.29.34-.18a.71.71,0,0,1,.28.35c.24,0,.51-.22.59-1,.17-1.56.2-2.44-.12-2.77l-.06,0m-3.52-7.15a20.74,20.74,0,0,1-3.38,2.59,3.55,3.55,0,0,1-1.93-.08l.38.28a18.74,18.74,0,0,1,2.12,2.07l.48.3.5.27a7.54,7.54,0,0,1,2.2.43,8.58,8.58,0,0,1,1.21.55l.2.12.26.15.19.11c-.4-.92-1.06-2.5-1.4-3.61-.51-1.66-.83-3.17-.83-3.17"/>
        <path class="cls-43" d="M591.47,155.53c.12,2.77.68,6.49.28,8.43-.24,1.15-.54,2.52-.69,3.89a11.64,11.64,0,0,0,0,2.76,17.81,17.81,0,0,0,1.86,4.75c.36.69.63,1.15.63,1.15s-1-4.53-.33-6.09h0c.65-1.56,1.36-3,1.36-3v-4.72l-.3-.58-2.1-4.12-.7-2.48"/>
        <path class="cls-45" d="M594.4,155.5a3.62,3.62,0,0,0-.63-.3c-.33-.11-.41.08-.41.36,0,.08,0,.16,0,.25a5.31,5.31,0,0,0,.57,1.71,4.27,4.27,0,0,0,1.4,1.46l.06,0a2,2,0,0,0,.42.17c.85.23,1-.14,1.25-.43a.55.55,0,0,0,.09-.33,1.1,1.1,0,0,0-.09-.4,6.51,6.51,0,0,0-1.35-1.57,7.48,7.48,0,0,0-1.16-.86l-.17-.1"/>
        <path class="cls-45" d="M601.22,159.44a5.67,5.67,0,0,0-1.37-.6c-.58-.14-1.23-.21-1.39,0a.43.43,0,0,0-.09.29,1.13,1.13,0,0,0,.09.43,4.06,4.06,0,0,0,1.28,1.88,3.31,3.31,0,0,0,.38.28l.12.07.18.1a2,2,0,0,0,.65.19,1.39,1.39,0,0,0,.35,0,.84.84,0,0,0,.28-.09,1.58,1.58,0,0,0,.59-1,2.16,2.16,0,0,0,0-.24,1,1,0,0,0-.42-.84,4.86,4.86,0,0,0-.6-.41l0,0"/>
        <path class="cls-38" d="M593.36,155.55c0-.28.08-.46.41-.36a3.62,3.62,0,0,1,.63.3l.17.1a7.48,7.48,0,0,1,1.16.86,6.51,6.51,0,0,1,1.35,1.57,1.1,1.1,0,0,1,.09.4.55.55,0,0,1-.09.33c-.2.29-.4.66-1.25.43a2,2,0,0,1-.42-.17l-.06,0a4.27,4.27,0,0,1-1.4-1.46,5.31,5.31,0,0,1-.57-1.71c0-.09,0-.17,0-.25m5,3.57a.43.43,0,0,1,.09-.29c.16-.2.81-.13,1.39,0a5.66,5.66,0,0,1,1.37.6h0l0,0a4.84,4.84,0,0,1,.6.41,1,1,0,0,1,.42.84,2.16,2.16,0,0,1,0,.24,1.58,1.58,0,0,1-.59,1,.84.84,0,0,1-.28.09,1.39,1.39,0,0,1-.35,0,2,2,0,0,1-.65-.19l-.18-.1-.12-.07a3.31,3.31,0,0,1-.38-.28,4.06,4.06,0,0,1-1.28-1.88,1.13,1.13,0,0,1-.09-.43m3.3.22a8.58,8.58,0,0,0-1.21-.55,7.54,7.54,0,0,0-2.2-.43l-.5-.27-.48-.3a18.74,18.74,0,0,0-2.12-2.07l-.38-.28a8,8,0,0,0-.8-.54l-.19-.11-.25-.14a6,6,0,0,0-.87-.45l-.07,0s-.06.1,0,.24.35,1.24.51,1.67a9.37,9.37,0,0,0,.76,1.58,4.51,4.51,0,0,0,1.44,1.44,1.76,1.76,0,0,0,1.6.26,2.11,2.11,0,0,0,.6-.68c.05-.06.2,0,.29,0h0a.89.89,0,0,1,.25.27,8.51,8.51,0,0,0,.61,1.38A4.85,4.85,0,0,0,600.3,162a1.78,1.78,0,0,0,1.49.25,2,2,0,0,0,.79-.68,7.43,7.43,0,0,0,.53-1.07.35.35,0,0,0-.08-.36l0,0a5.27,5.27,0,0,0-.7-.45l-.19-.11-.26-.15-.2-.12"/>
        <path class="cls-31" d="M592.71,157.8a.27.27,0,0,0-.3,0,.29.29,0,0,0-.1.24.87.87,0,0,0,.39.68.3.3,0,0,0,.26,0,.26.26,0,0,0,.14-.26.87.87,0,0,0-.4-.69"/>
        <path class="cls-31" d="M602.91,163.55c-.18-.11-.33,0-.34.18a.62.62,0,0,0,.05.24.72.72,0,0,0,.28.34c.18.11.33,0,.33-.19a.6.6,0,0,0,0-.22.71.71,0,0,0-.28-.35"/>
      </g>
      <path class="cls-46" d="M689.11,199.1l-56.72-32.75c-1.6-.92-2.89-.18-2.9,1.65a6.34,6.34,0,0,0,2.88,5l56.72,32.75c1.59.92,2.89.18,2.89-1.65a6.35,6.35,0,0,0-2.88-5"/>
      <path class="cls-46" d="M689.07,213.32l-56.72-32.75c-1.6-.92-2.89-.18-2.9,1.65a6.34,6.34,0,0,0,2.88,5L689,220c1.59.92,2.89.18,2.89-1.66a6.34,6.34,0,0,0-2.88-5"/>
      <path class="cls-46" d="M657.78,209.5l-25.47-14.71c-1.6-.92-2.89-.18-2.9,1.65a6.34,6.34,0,0,0,2.88,5l25.47,14.71c1.59.92,2.89.18,2.89-1.66a6.34,6.34,0,0,0-2.88-5"/>
      <path class="cls-47" d="M574.08,198.92l-1.2-.69C570.77,197,569,198,569,200.42v1.38a8.43,8.43,0,0,0,3.82,6.62l1.2.69c2.12,1.22,3.84.24,3.85-2.19v-1.38a8.42,8.42,0,0,0-3.82-6.62"/>
      <path class="cls-48" d="M650.6,244.09l-59.34-34.26c-1-.59-2.38.47-2.38,2.74a7.3,7.3,0,0,0,3,5.85l59.34,34.26c1.67,1,3-.1,3-2.36a7.48,7.48,0,0,0-3.66-6.23"/>
      <path class="cls-49" d="M574,220.25l-1.2-.69c-2.12-1.22-3.84-.24-3.85,2.19v1.38a8.44,8.44,0,0,0,3.82,6.62l1.2.69c2.12,1.22,3.84.24,3.85-2.19v-1.38a8.42,8.42,0,0,0-3.82-6.62"/>
      <path class="cls-46" d="M643.33,261.26,590.92,231c-.9-.52-2.1.63-2.11,2.89s1.18,4.8,2.66,5.65l52.41,30.26c1.48.85,2.67-.3,2.68-2.57a7.05,7.05,0,0,0-3.23-6"/>
      <path class="cls-50" d="M574,241.58l-1.2-.69c-2.12-1.22-3.84-.24-3.85,2.19v1.38a8.43,8.43,0,0,0,3.82,6.62l1.2.69c2.12,1.22,3.84.24,3.85-2.19V248.2a8.43,8.43,0,0,0-3.82-6.62"/>
      <path class="cls-48" d="M650.48,286.75l-59.34-34.26c-1-.59-2.38.47-2.38,2.74a7.29,7.29,0,0,0,3,5.84l59.34,34.26c1.67,1,3-.09,3-2.36a7.48,7.48,0,0,0-3.66-6.23"/>
      <path class="cls-51" d="M573.9,262.91l-1.2-.69c-2.12-1.22-3.84-.24-3.85,2.19v1.38a8.43,8.43,0,0,0,3.82,6.62l1.2.69c2.12,1.22,3.84.24,3.85-2.19v-1.38a8.42,8.42,0,0,0-3.82-6.62"/>
      <path class="cls-46" d="M643.21,303.92,590.8,273.65c-.9-.52-2.1.63-2.11,2.9s1.18,4.8,2.66,5.65l52.41,30.26c1.48.85,2.67-.3,2.68-2.57a7.06,7.06,0,0,0-3.23-6"/>
      <path class="cls-48" d="M584.83,332.84a5.56,5.56,0,0,1-2.52-4.36c0-2.75,2-3.87,4.35-2.48l12.45,7.19a9.53,9.53,0,0,1,4.32,7.49c0,1.6-1.14,2.25-2.54,1.45l-16.06-9.27M620.42,348a18.07,18.07,0,0,0,.86-3.42l1.4.64a12.42,12.42,0,0,1-1.36,3.2l-.9-.42m3.56-9.42v-1.2l5.84,3.37v.95L625.76,349l-1.3-.75,4-7.09v0L624,338.56m-9.8-4.94-.4-1.24a3.06,3.06,0,0,1,2.63.43,5.62,5.62,0,0,1,2.83,4.73c0,2-1.25,2.84-3.21,3.87l-.74.36v0l4.16,2.4v1.2L613.52,342v-.88l1-.53c2.37-1.22,3.44-2,3.46-3.58a3.52,3.52,0,0,0-1.83-3.14,2.25,2.25,0,0,0-2-.23m25,21.18,0,0a28.35,28.35,0,0,1,1-3.14l1.72-4.35,1.58.91.57,11.39-1.21-.7-.23-5c-.07-1.58-.15-3.48-.13-4.84l0,0c-.33,1.11-.73,2.25-1.22,3.49l-1.71,4.37-.94-.54-1.54-6.15c-.45-1.82-.83-3.46-1.1-4.93l0,0c0,1.36-.11,3.17-.2,4.77l-.27,4.59-1.19-.68.71-10.65,1.58.91,1.62,6.28c.4,1.59.72,3,1,4.28m-46.27-28.26a14.4,14.4,0,0,1-6.54-11.32c0-4.17,3-5.84,6.58-3.75a14.4,14.4,0,0,1,6.53,11.32c0,4.16-3,5.84-6.58,3.75m64.29,15.32-80.64-46.56c-4.28-2.47-7.77-.49-7.78,4.43l-.06,21a17,17,0,0,0,7.73,13.39l80.64,46.56c4.28,2.47,7.77.49,7.78-4.44l.06-21c0-4.92-3.45-10.91-7.73-13.39"/>
      <path class="cls-20" d="M599.1,333.18,586.65,326c-2.39-1.38-4.34-.27-4.35,2.48a5.56,5.56,0,0,0,2.52,4.36l16.06,9.27c1.39.8,2.53.15,2.54-1.45a9.53,9.53,0,0,0-4.32-7.49"/>
      <path class="cls-20" d="M592.93,311.47c-3.63-2.09-6.57-.42-6.58,3.75a14.4,14.4,0,0,0,6.54,11.32c3.62,2.09,6.56.41,6.58-3.75a14.4,14.4,0,0,0-6.53-11.32"/>
      <path class="cls-20" d="M616.41,332.81a3.06,3.06,0,0,0-2.63-.43l.4,1.24a2.25,2.25,0,0,1,2,.23A3.52,3.52,0,0,1,618,337c0,1.6-1.09,2.36-3.46,3.58l-1,.53V342l5.91,3.41v-1.2l-4.16-2.4v0l.74-.36c2-1,3.2-1.91,3.21-3.87a5.62,5.62,0,0,0-2.83-4.73"/>
      <path class="cls-20" d="M622.68,345.2l-1.4-.64a18.07,18.07,0,0,1-.86,3.42l.9.42a12.42,12.42,0,0,0,1.36-3.2"/>
      <polyline class="cls-20" points="629.83 340.73 623.98 337.36 623.98 338.56 628.51 341.18 628.51 341.21 624.47 348.3 625.76 349.05 629.82 341.68 629.83 340.73"/>
      <path class="cls-20" d="M643.53,348.25l-1.58-.91-1.72,4.35a28.35,28.35,0,0,0-1,3.14l0,0c-.24-1.29-.56-2.68-1-4.28l-1.62-6.28-1.58-.91L634.29,354l1.19.68.27-4.59c.09-1.6.17-3.41.2-4.77l0,0c.27,1.47.65,3.11,1.1,4.93l1.54,6.15.94.54,1.71-4.37c.49-1.24.89-2.39,1.22-3.49l0,0c0,1.37.06,3.27.13,4.84l.23,5,1.21.7-.57-11.39"/>
      <path class="cls-11" d="M628.39,375.38,569,341.12c-1-.59-2.38.47-2.38,2.74a7.3,7.3,0,0,0,3,5.85L629,384c1.67,1,3-.1,3-2.36a7.48,7.48,0,0,0-3.66-6.23"/>
      <path class="cls-11" d="M628.33,396.71,569,362.45c-1-.59-2.38.47-2.38,2.73a7.29,7.29,0,0,0,3,5.85L629,405.3c1.67,1,3-.09,3-2.36a7.47,7.47,0,0,0-3.66-6.22"/>
      <path class="cls-11" d="M596.31,399.59l-27.67-16c-.9-.52-2.1.63-2.11,2.9s1.18,4.79,2.66,5.64l27.67,16c1.47.85,2.67-.3,2.68-2.56a7.06,7.06,0,0,0-3.23-6"/>
    </g>
    <g>
      <path class="cls-26" d="M161.71,108.31a8.38,8.38,0,0,0-3.8,6.59c0,2.05,1.24,3.06,2.9,2.59v-4.38a1.9,1.9,0,0,1,.92-1.56c.46-.27.93-.19.93.49a3.53,3.53,0,0,0,0,.49,24.25,24.25,0,0,1,.23,3.69,8.48,8.48,0,0,0,2.66-5.72c0-2.43-1.72-3.4-3.83-2.18"/>
      <path class="cls-26" d="M161.72,111.54a1.9,1.9,0,0,0-.92,1.56v4.38l0,24.15q.06,34.06.12,68.11.07,41.18.14,82.36.07,35.74.13,71.48,0,11.68,0,23.37c0,3.56-.49,8,0,11.2a3.54,3.54,0,0,1,0,.49c0,.69.47.76.93.5a1.91,1.91,0,0,0,.92-1.57l0-28.52Q163,335,163,300.93q-.07-41.17-.14-82.35-.07-35.74-.13-71.49,0-11.68,0-23.37c0-2.33.2-5,.21-7.51a24.25,24.25,0,0,0-.23-3.69,3.53,3.53,0,0,1,0-.49c0-.69-.47-.76-.93-.49"/>
      <path class="cls-52" d="M138.08,321.37l-1.2.69a8.42,8.42,0,0,0-3.82,6.62v1.38c0,2.43,1.73,3.41,3.85,2.19l1.2-.69a8.42,8.42,0,0,0,3.82-6.61v-1.38c0-2.43-1.73-3.41-3.84-2.19"/>
      <path class="cls-53" d="M119.71,333,60.37,367.23a7.48,7.48,0,0,0-3.66,6.23c0,2.27,1.36,3.33,3,2.36l59.34-34.26a7.3,7.3,0,0,0,3-5.85c0-2.27-1.36-3.33-2.38-2.74"/>
      <path class="cls-54" d="M138.14,342.7l-1.2.69a8.42,8.42,0,0,0-3.82,6.62v1.38c0,2.43,1.73,3.42,3.85,2.19l1.2-.69a8.43,8.43,0,0,0,3.82-6.62V344.9c0-2.44-1.73-3.42-3.84-2.2"/>
      <path class="cls-55" d="M120,354.14,67.63,384.41a7,7,0,0,0-3.22,6c0,2.27,1.2,3.42,2.68,2.57l52.41-30.26c1.47-.85,2.66-3.38,2.66-5.65s-1.21-3.41-2.11-2.89"/>
      <path class="cls-56" d="M138.2,364l-1.2.69a8.43,8.43,0,0,0-3.82,6.62v1.38c0,2.44,1.73,3.42,3.85,2.19l1.2-.69a8.42,8.42,0,0,0,3.82-6.62v-1.38c0-2.43-1.73-3.42-3.84-2.2"/>
      <path class="cls-53" d="M119.83,375.63,60.49,409.89a7.48,7.48,0,0,0-3.66,6.23c0,2.27,1.36,3.32,3,2.36l59.34-34.26a7.29,7.29,0,0,0,3-5.85c0-2.27-1.36-3.33-2.38-2.74"/>
      <path class="cls-57" d="M138.27,385.36l-1.2.69a8.42,8.42,0,0,0-3.82,6.62v1.38c0,2.43,1.73,3.41,3.85,2.19l1.2-.69a8.42,8.42,0,0,0,3.82-6.61v-1.38c0-2.43-1.73-3.41-3.84-2.19"/>
      <path class="cls-55" d="M120.16,396.8,67.75,427.06a7.06,7.06,0,0,0-3.22,6c0,2.27,1.2,3.42,2.68,2.57l52.41-30.26c1.47-.85,2.66-3.38,2.66-5.65s-1.21-3.42-2.11-2.9"/>
      <path class="cls-26" d="M100.6,144c-22.41,12.94-40.52,44.3-40.44,70,0,12.52,4.37,21.4,11.39,25.73l14-23.59c-3.65-2.26-5.9-6.87-5.92-13.39,0-13.39,9.38-29.71,21-36.44L100.6,144"/>
      <path class="cls-58" d="M116.58,197.57c-3.85,7.25-9.49,13.68-15.78,17.32-6,3.46-11.4,3.71-15.25,1.32l-14,23.59c7.41,4.58,17.81,4.11,29.32-2.54,12.1-7,22.93-19.34,30.34-33.28l-14.62-6.4"/>
      <path class="cls-59" d="M100.6,144l.06,22.37c11.66-6.73,21.14-1.33,21.17,12.07,0,6.16-2,12.94-5.26,19.12L131.2,204c6.31-11.88,10.14-24.92,10.1-36.77-.07-25.75-18.3-36.14-40.71-23.2"/>
      <path class="cls-53" d="M63.29,323.44l-9.81,5.66a8.33,8.33,0,0,0-3.78,6.55l0,11.27c0,2.41,1.71,3.38,3.8,2.17l9.81-5.66a8.33,8.33,0,0,0,3.78-6.55l0-11.27c0-2.41-1.71-3.38-3.8-2.17"/>
      <path class="cls-53" d="M88,283.58l-9.81,5.67a8.33,8.33,0,0,0-3.78,6.55l.1,36.85c0,2.41,1.71,3.38,3.8,2.17l9.81-5.67a8.33,8.33,0,0,0,3.78-6.55l-.1-36.85c0-2.41-1.71-3.38-3.8-2.17"/>
      <path class="cls-53" d="M112.76,284.49,103,290.15a8.33,8.33,0,0,0-3.78,6.55l.06,21.65c0,2.41,1.71,3.38,3.8,2.17l9.81-5.66a8.33,8.33,0,0,0,3.78-6.55l-.06-21.65c0-2.41-1.71-3.38-3.8-2.17"/>
      <path class="cls-53" d="M137.43,239.82l-9.81,5.67a8.33,8.33,0,0,0-3.78,6.55l.15,52c0,2.41,1.71,3.38,3.8,2.17l9.81-5.67a8.32,8.32,0,0,0,3.77-6.54l-.15-52c0-2.41-1.71-3.38-3.8-2.17"/>
    </g>
  </g>
</svg>
