<svg id="Layer_1" data-name="Layer 1" xmlns="http://www.w3.org/2000/svg" viewBox="0 0 153 153">
  <title>BlinkLink logo</title>
  <path d="M68.26,38.74c4.56,0,9.13,0,13.69,0a23.14,23.14,0,0,1,15.84,6.16,22.79,22.79,0,0,1,7.49,14.47A22.54,22.54,0,0,1,101,75.82a1.06,1.06,0,0,0,.05,1.54,22.62,22.62,0,0,1,4.32,16,23.48,23.48,0,0,1-21.19,20.76,71.08,71.08,0,0,1-9.61,0,5.34,5.34,0,0,1-3-1.62c-4.83-4.7-9.56-9.51-14.35-14.26-2.6-2.57-5.26-5.08-7.85-7.65-2.9-2.88-2.64-6.89.67-9.25,1.83-1.3,5-1.57,7.73,1.23,6.31,6.36,12.69,12.66,19,19a3.33,3.33,0,0,0,2.85,1.16c1.64-.14,3.31,0,4.92-.28,4.62-.73,8.58-5.2,9.18-9.49A11.56,11.56,0,0,0,89,81.39c-3.43-2.62-3.37-7.08.09-9.72A11.42,11.42,0,0,0,94,62,11.75,11.75,0,0,0,82.35,50.43c-7.35,0-14.7,0-22,0-1.08,0-1.38.3-1.36,1.36.07,2.83.05,5.65,0,8.48a2.4,2.4,0,0,0,.81,1.89Q69.71,72,79.63,81.8a5.83,5.83,0,0,1-1,9.44,5.66,5.66,0,0,1-6.4-.67L49.15,67.78A5.11,5.11,0,0,1,47.5,64c0-6.58-.06-13.16,0-19.74a5.83,5.83,0,0,1,5.74-5.55Z"/>
</svg>
