<svg id="Layer_1" data-name="Layer 1" xmlns="http://www.w3.org/2000/svg" viewBox="0 0 646 153">
  <defs>
    <style>
      .cls-1 {
        fill: #0070c0;
      }

      .cls-2 {
        fill: #fff;
      }
    </style>
  </defs>
  <title>BlinkLink logo</title>
  <g>
    <g>
      <path class="cls-1" d="M216.91,38.67c4.56,0,9.13,0,13.69,0a23.14,23.14,0,0,1,15.84,6.16,22.79,22.79,0,0,1,7.49,14.47,22.54,22.54,0,0,1-4.23,16.44,1.06,1.06,0,0,0,.05,1.54,22.62,22.62,0,0,1,4.32,16,23.48,23.48,0,0,1-21.19,20.76,71.08,71.08,0,0,1-9.61,0,5.34,5.34,0,0,1-3-1.62c-4.83-4.7-9.56-9.51-14.35-14.26-2.6-2.57-5.26-5.08-7.85-7.65-2.9-2.88-2.64-6.89.67-9.25,1.83-1.3,5-1.57,7.73,1.23,6.31,6.36,12.69,12.66,19,19a3.33,3.33,0,0,0,2.85,1.16c1.64-.14,3.31,0,4.92-.28,4.62-.73,8.58-5.2,9.18-9.49a11.56,11.56,0,0,0-4.8-11.56c-3.43-2.62-3.37-7.08.09-9.72a11.42,11.42,0,0,0,4.88-9.72A11.75,11.75,0,0,0,231,50.36c-7.35,0-14.7,0-22,0-1.08,0-1.38.3-1.36,1.36.07,2.83.05,5.65,0,8.48a2.4,2.4,0,0,0,.81,1.89q9.95,9.81,19.86,19.66a5.83,5.83,0,0,1-1,9.44,5.66,5.66,0,0,1-6.4-.67L197.8,67.71A5.11,5.11,0,0,1,196.15,64c0-6.58-.06-13.16,0-19.74a5.83,5.83,0,0,1,5.74-5.55Z"/>
      <path class="cls-1" d="M399.92,86.44c2.9,3.07,5.77,6.18,8.71,9.22,3.08,3.19,6.34,6.21,9.3,9.52,1.89,2.11,1.42,5.58-.6,7.53a5.67,5.67,0,0,1-7.46.37,15.78,15.78,0,0,1-1.45-1.26c-5.38-5.35-10.78-10.69-16.11-16.08-.9-.91-1.39-.78-2.22.05-5.48,5.54-11,11-16.52,16.53-3.28,3.27-8,2.38-9.76-1.91a7.25,7.25,0,0,1-.45-2.7q0-31.43,0-62.87a5.93,5.93,0,0,1,5.71-6.13c2.34-.24,5.3,2.16,5.7,4.5a16.48,16.48,0,0,1,.24,2.75q0,23.26,0,46.51c0,.52,0,1,0,1.89.55-.43.9-.65,1.18-.93Q379,90.71,381.72,88l27-26.86c1.7-1.69,3.65-2.62,6.1-1.88a5.53,5.53,0,0,1,4,3.79,5.36,5.36,0,0,1-1.39,5.65Q409,77.14,400.56,85.54a8.4,8.4,0,0,1-1.2.84Z"/>
      <path class="cls-1" d="M586.6,86.35l5.59,5.55c4.32,4.3,8.65,8.59,12.94,12.92,2.54,2.57,1.33,7.72-2.07,9a5.57,5.57,0,0,1-6.32-1.19c-4.87-4.84-9.7-9.71-14.57-14.55C581.09,97,580,96,578.75,94.84c-.59.52-1.15,1-1.65,1.46-3.32,3.3-6.61,6.63-9.94,9.93-2.26,2.24-4.53,4.48-6.87,6.63a5.17,5.17,0,0,1-6,.87,5.46,5.46,0,0,1-3.38-5.25c-.05-5.53,0-11.06,0-16.59q0-23.56,0-47.11a5.66,5.66,0,0,1,5.6-6,5.49,5.49,0,0,1,5.84,5.73c.07,10.82,0,21.64,0,32.46q0,7.87,0,15.74c0,.46,0,.92.09,1.58a8.1,8.1,0,0,0,.84-.58c1.53-1.43,3.08-2.84,4.56-4.31Q581.54,75.7,595.24,62c1.65-1.64,3.35-3.21,6-3,2.07.16,5.23,2.15,5.23,5.35a6.43,6.43,0,0,1-2.07,4.92c-3,3-6,6-9,9-2.46,2.44-5,4.84-7.46,7.24A9.64,9.64,0,0,1,586.6,86.35Z"/>
      <path class="cls-1" d="M460.59,102.33c-.3-.32-.58-.65-.89-1q-4.4-4.42-8.81-8.83c-.74-.74-1.56-1.38-2.31-2.11a5.8,5.8,0,1,1,8.19-8.21q10.08,10,20.14,20.11c.79.79,1.62,1.56,2.38,2.38a5.67,5.67,0,0,1-2.64,9.32,8.2,8.2,0,0,1-2.37.28c-14.54,0-29.07,0-43.61,0a6.25,6.25,0,0,1-6.57-6.59c.1-21.08,0-42.15,0-63.23A5.83,5.83,0,0,1,430,38.67a5.92,5.92,0,0,1,5.55,5.24c0,.72,0,1.45,0,2.18q0,27.44,0,54.87c0,1.67,0,1.67,1.63,1.67h23.22Z"/>
      <path class="cls-1" d="M325.73,61.39c2.52-.77,4.77-1.62,7.1-2.15a19.75,19.75,0,0,1,14.69,2.5,20.81,20.81,0,0,1,10.15,13.7,21.32,21.32,0,0,1,.6,4.74c.06,9.41.08,18.82,0,28.22a5.61,5.61,0,0,1-5.52,5.85,5.7,5.7,0,0,1-5.92-5.42q0-13.81,0-27.62a11.62,11.62,0,0,0-1.7-6.28,10.19,10.19,0,0,0-14.83-2.29,9.77,9.77,0,0,0-3.7,7.72c-.06,9.37-.1,18.74,0,28.1a5.88,5.88,0,0,1-5.7,5.8,5.65,5.65,0,0,1-5.78-5.71c0-14.74,0-29.48,0-44.21a5.71,5.71,0,0,1,10-3.57C325.4,61.05,325.65,61.31,325.73,61.39Z"/>
      <path class="cls-1" d="M513.09,61.43c2.52-.77,4.84-1.64,7.23-2.17a19.68,19.68,0,0,1,14.74,2.59,20.82,20.82,0,0,1,9.59,12,20,20,0,0,1,.92,5.65c.09,9.77,0,19.54,0,29.31a5.69,5.69,0,0,1-8.17,4.84,6,6,0,0,1-3.28-5.7q0-13.63,0-27.25c0-4.92-2.69-8.69-7.44-10A9.94,9.94,0,0,0,514.36,78a9.8,9.8,0,0,0-.25,2.26c0,9.37,0,18.73,0,28.1a5.73,5.73,0,0,1-11.45.43c0-12.88,0-25.76,0-38.64,0-1.9.06-3.8,0-5.69a5.66,5.66,0,0,1,10.32-3.19A.68.68,0,0,0,513.09,61.43Z"/>
      <path class="cls-1" d="M259.15,65.7q0-10.42,0-20.83a5.89,5.89,0,0,1,5.49-6.18,5.73,5.73,0,0,1,6,5.34c0,1,.21,1.91.21,2.87,0,13.2,0,26.4,0,39.6,0,5.64,2.55,10,7.09,13.21a15.94,15.94,0,0,0,9.1,2.95c3.18.08,5.44,1.6,6.11,4.55A5.5,5.5,0,0,1,289,114a17.86,17.86,0,0,1-5.72,0,27.27,27.27,0,0,1-12.13-4.9,26.93,26.93,0,0,1-11.51-18.53,68.25,68.25,0,0,1-.48-8.76C259.1,76.44,259.15,71.07,259.15,65.7Z"/>
      <path class="cls-1" d="M309.86,86.6q0,11.15,0,22.29a5.8,5.8,0,0,1-4.41,5.21c-4.16.85-7.09-2.52-7.07-6.09.07-14.42,0-28.83,0-43.25a5.66,5.66,0,0,1,3-5.25,5.52,5.52,0,0,1,6.41.6,5.11,5.11,0,0,1,2,4.19C309.84,71.74,309.86,79.17,309.86,86.6Z"/>
      <path class="cls-1" d="M485.92,86.52c0-7.31.06-14.62,0-21.92a5.74,5.74,0,1,1,11.48,0q0,18,0,36.09c0,2.58,0,5.17,0,7.75A5.76,5.76,0,0,1,486,110a5.15,5.15,0,0,1-.13-1.31q0-11.08,0-22.17Z"/>
      <path class="cls-1" d="M309.85,44.59a5.55,5.55,0,0,1-5.6,5.69,5.78,5.78,0,1,1,5.6-5.69Z"/>
      <path class="cls-1" d="M485.91,44.44c-.27-3,2.75-5.83,5.61-5.73a5.77,5.77,0,1,1-5.61,5.73Z"/>
    </g>
    <g>
      <circle class="cls-1" cx="103.29" cy="76.5" r="63.78"/>
      <path class="cls-2" d="M95.05,38.74c4.56,0,9.13,0,13.69,0a23.14,23.14,0,0,1,15.84,6.16,22.79,22.79,0,0,1,7.49,14.47,22.54,22.54,0,0,1-4.23,16.44,1.06,1.06,0,0,0,.05,1.54,22.62,22.62,0,0,1,4.32,16A23.48,23.48,0,0,1,111,114.13a71.08,71.08,0,0,1-9.61,0,5.34,5.34,0,0,1-3-1.62c-4.83-4.7-9.56-9.51-14.35-14.26-2.6-2.57-5.26-5.08-7.85-7.65-2.9-2.88-2.64-6.89.67-9.25,1.83-1.3,5-1.57,7.73,1.23,6.31,6.36,12.69,12.66,19,19a3.33,3.33,0,0,0,2.85,1.16c1.64-.14,3.31,0,4.92-.28,4.62-.73,8.58-5.2,9.18-9.49a11.56,11.56,0,0,0-4.8-11.56c-3.43-2.62-3.37-7.08.09-9.72A11.42,11.42,0,0,0,120.79,62a11.75,11.75,0,0,0-11.64-11.53c-7.35,0-14.7,0-22,0-1.08,0-1.38.3-1.36,1.36.07,2.83.05,5.65,0,8.48a2.4,2.4,0,0,0,.81,1.89Q96.5,72,106.42,81.8a5.83,5.83,0,0,1-1,9.44,5.66,5.66,0,0,1-6.4-.67L75.94,67.78A5.11,5.11,0,0,1,74.29,64c0-6.58-.06-13.16,0-19.74A5.83,5.83,0,0,1,80,38.74Z"/>
    </g>
  </g>
</svg>
