<svg id="Layer_1" data-name="Layer 1" xmlns="http://www.w3.org/2000/svg" viewBox="0 0 566 127">
  <defs>
    <style>
      .cls-1 {
        fill: #fff;
      }
    </style>
  </defs>
  <title>BlinkLink logo</title>
  <g>
    <g>
      <path d="M176.906,25.672c4.563,0,9.127-.044,13.689.011a23.136,23.136,0,0,1,15.842,6.161,22.788,22.788,0,0,1,7.494,14.469A22.54,22.54,0,0,1,209.7,62.756a1.062,1.062,0,0,0,.053,1.536A22.623,22.623,0,0,1,214.071,80.3a23.478,23.478,0,0,1-21.189,20.762,71.083,71.083,0,0,1-9.611-.039,5.345,5.345,0,0,1-2.964-1.62c-4.829-4.7-9.56-9.511-14.348-14.258-2.6-2.574-5.259-5.08-7.855-7.653-2.9-2.879-2.641-6.889.673-9.246,1.826-1.3,4.953-1.572,7.729,1.227,6.31,6.365,12.688,12.661,19,19.024a3.327,3.327,0,0,0,2.852,1.155c1.638-.142,3.309-.023,4.924-.277,4.618-.726,8.576-5.2,9.179-9.491a11.56,11.56,0,0,0-4.8-11.561c-3.435-2.619-3.368-7.077.093-9.715a11.419,11.419,0,0,0,4.884-9.715A11.749,11.749,0,0,0,191,37.361c-7.349,0-14.7.022-22.048-.024-1.077-.007-1.384.3-1.359,1.365.068,2.825.051,5.653.005,8.479a2.4,2.4,0,0,0,.81,1.895q9.949,9.811,19.862,19.657a5.832,5.832,0,0,1-1.016,9.436,5.658,5.658,0,0,1-6.4-.666Q169.321,66.111,157.8,54.709a5.114,5.114,0,0,1-1.649-3.737c-.013-6.582-.063-13.164-.01-19.745a5.831,5.831,0,0,1,5.745-5.552Q169.395,25.663,176.906,25.672Z"/>
      <path d="M359.922,73.442c2.9,3.075,5.772,6.177,8.708,9.217,3.081,3.19,6.343,6.214,9.3,9.515,1.889,2.111,1.422,5.585-.6,7.526a5.672,5.672,0,0,1-7.463.368,15.777,15.777,0,0,1-1.454-1.258c-5.383-5.349-10.778-10.686-16.113-16.083-.9-.907-1.391-.785-2.217.05-5.48,5.537-11.007,11.027-16.521,16.53-3.281,3.274-7.99,2.378-9.757-1.909a7.25,7.25,0,0,1-.447-2.7q-.036-31.434.011-62.867a5.932,5.932,0,0,1,5.714-6.135c2.339-.237,5.3,2.162,5.7,4.5a16.485,16.485,0,0,1,.237,2.747q.021,23.257.01,46.515c0,.517,0,1.034,0,1.895.554-.431.9-.649,1.182-.927q2.767-2.713,5.512-5.448,13.52-13.428,27.039-26.857c1.7-1.685,3.653-2.619,6.1-1.878a5.527,5.527,0,0,1,3.981,3.787,5.357,5.357,0,0,1-1.39,5.652q-8.412,8.459-16.889,16.852a8.4,8.4,0,0,1-1.2.841Z"/>
      <path d="M546.6,73.353c2.107,2.091,3.852,3.817,5.59,5.549,4.317,4.3,8.653,8.586,12.937,12.922,2.541,2.572,1.333,7.722-2.068,8.994a5.573,5.573,0,0,1-6.325-1.19c-4.869-4.836-9.7-9.706-14.565-14.549-1.08-1.076-2.214-2.1-3.422-3.237-.59.52-1.146.962-1.646,1.46-3.319,3.3-6.614,6.632-9.943,9.926-2.262,2.238-4.528,4.476-6.867,6.632a5.172,5.172,0,0,1-6.029.866,5.46,5.46,0,0,1-3.381-5.25c-.051-5.53-.016-11.061-.016-16.592q0-23.556,0-47.113a5.664,5.664,0,0,1,5.6-6.007,5.488,5.488,0,0,1,5.841,5.73c.072,10.819.024,21.639.023,32.458q0,7.872,0,15.745c0,.46.049.92.086,1.576a8.1,8.1,0,0,0,.839-.576c1.527-1.43,3.077-2.838,4.559-4.314Q541.536,62.7,555.238,49c1.651-1.644,3.351-3.211,6-3,2.075.164,5.234,2.149,5.228,5.346a6.425,6.425,0,0,1-2.068,4.919c-3.038,2.955-5.994,6-9.009,8.975-2.464,2.436-4.959,4.84-7.459,7.24A9.636,9.636,0,0,1,546.6,73.353Z"/>
      <path d="M420.589,89.33c-.3-.318-.582-.645-.888-.953q-4.4-4.421-8.814-8.831c-.739-.735-1.564-1.384-2.314-2.11a5.8,5.8,0,1,1,8.188-8.211Q426.839,79.274,436.9,89.338c.793.793,1.616,1.558,2.376,2.382a5.673,5.673,0,0,1-2.643,9.315,8.2,8.2,0,0,1-2.374.278c-14.536.016-29.072-.018-43.608.031a6.254,6.254,0,0,1-6.572-6.594c.1-21.077.045-42.154.049-63.231a5.825,5.825,0,0,1,5.907-5.846,5.922,5.922,0,0,1,5.553,5.242c.049.724.041,1.453.041,2.179q0,27.437,0,54.873c0,1.668,0,1.67,1.627,1.67h23.22Z"/>
      <path d="M285.734,48.393c2.521-.775,4.774-1.615,7.1-2.151a19.748,19.748,0,0,1,14.687,2.5,20.811,20.811,0,0,1,10.154,13.7,21.316,21.316,0,0,1,.6,4.744c.055,9.408.08,18.816,0,28.224a5.606,5.606,0,0,1-5.522,5.852,5.7,5.7,0,0,1-5.92-5.416q.049-13.809,0-27.618a11.623,11.623,0,0,0-1.7-6.285,10.187,10.187,0,0,0-14.833-2.29,9.771,9.771,0,0,0-3.7,7.72c-.063,9.367-.1,18.736.021,28.1a5.88,5.88,0,0,1-5.7,5.8,5.648,5.648,0,0,1-5.777-5.711c-.042-14.738-.021-29.476-.014-44.214a5.713,5.713,0,0,1,10.036-3.569C285.4,48.052,285.653,48.307,285.734,48.393Z"/>
      <path d="M473.086,48.427c2.516-.767,4.836-1.642,7.232-2.172a19.684,19.684,0,0,1,14.745,2.589,20.82,20.82,0,0,1,9.586,12.022,20.005,20.005,0,0,1,.921,5.65c.087,9.769.035,19.54.034,29.31a5.689,5.689,0,0,1-8.171,4.836,5.961,5.961,0,0,1-3.278-5.7q-.025-13.626-.007-27.251c0-4.919-2.689-8.692-7.441-9.961A9.937,9.937,0,0,0,474.356,65a9.8,9.8,0,0,0-.249,2.258c-.016,9.366.03,18.733-.031,28.1a5.73,5.73,0,0,1-11.452.429c.037-12.879.017-25.757.018-38.636,0-1.9.063-3.8-.015-5.692a5.665,5.665,0,0,1,10.317-3.185A.677.677,0,0,0,473.086,48.427Z"/>
      <path d="M219.149,52.7q0-10.415,0-20.83a5.891,5.891,0,0,1,5.491-6.177,5.731,5.731,0,0,1,5.978,5.339c.03.958.205,1.913.207,2.869.014,13.2-.008,26.4.018,39.6.011,5.643,2.554,9.985,7.087,13.214a15.941,15.941,0,0,0,9.1,2.948c3.183.079,5.438,1.6,6.115,4.549a5.5,5.5,0,0,1-4.141,6.79,17.858,17.858,0,0,1-5.72,0,27.268,27.268,0,0,1-12.125-4.9,26.93,26.93,0,0,1-11.505-18.534,68.25,68.25,0,0,1-.484-8.762C219.1,63.441,219.149,58.071,219.149,52.7Z"/>
      <path d="M269.856,73.6q0,11.145,0,22.29a5.8,5.8,0,0,1-4.412,5.209c-4.157.851-7.093-2.518-7.075-6.085.073-14.416.03-28.832.031-43.248a5.658,5.658,0,0,1,3.035-5.249,5.517,5.517,0,0,1,6.412.6,5.113,5.113,0,0,1,2.018,4.19C269.845,58.742,269.856,66.173,269.856,73.6Z"/>
      <path d="M445.919,73.518c0-7.308.062-14.616-.028-21.923a5.741,5.741,0,1,1,11.482.033q.018,18.047,0,36.094c0,2.584.012,5.168,0,7.752A5.759,5.759,0,0,1,446.046,97a5.148,5.148,0,0,1-.126-1.313q-.011-11.083-.005-22.165Z"/>
      <path d="M269.855,31.593a5.551,5.551,0,0,1-5.6,5.69,5.783,5.783,0,0,1-.175-11.564A5.6,5.6,0,0,1,269.855,31.593Z"/>
      <path d="M445.915,31.445c-.274-3.019,2.747-5.827,5.612-5.727a5.769,5.769,0,1,1-5.612,5.727Z"/>
    </g>
    <g>
      <circle cx="63.292" cy="63.5" r="63.78"/>
      <path class="cls-1" d="M55.05,25.74c4.563,0,9.127-.044,13.689.011a23.136,23.136,0,0,1,15.842,6.161,22.788,22.788,0,0,1,7.494,14.469,22.54,22.54,0,0,1-4.233,16.443,1.062,1.062,0,0,0,.053,1.536,22.623,22.623,0,0,1,4.321,16.009,23.478,23.478,0,0,1-21.189,20.762,71.083,71.083,0,0,1-9.611-.039,5.345,5.345,0,0,1-2.964-1.62c-4.829-4.7-9.56-9.511-14.348-14.258-2.6-2.574-5.259-5.08-7.855-7.653-2.9-2.879-2.641-6.889.673-9.246,1.826-1.3,4.953-1.572,7.729,1.227,6.31,6.365,12.688,12.661,19,19.024A3.327,3.327,0,0,0,66.5,89.721c1.638-.142,3.309-.023,4.924-.277,4.618-.726,8.576-5.2,9.179-9.491a11.56,11.56,0,0,0-4.8-11.561c-3.435-2.619-3.368-7.077.093-9.715a11.419,11.419,0,0,0,4.884-9.715,11.749,11.749,0,0,0-11.64-11.533c-7.349,0-14.7.022-22.048-.024-1.077-.007-1.384.3-1.359,1.365.068,2.825.051,5.653.005,8.479a2.4,2.4,0,0,0,.81,1.895Q56.5,58.954,66.418,68.8A5.832,5.832,0,0,1,65.4,78.236,5.658,5.658,0,0,1,59,77.57Q47.465,66.179,35.943,54.777a5.114,5.114,0,0,1-1.649-3.737c-.013-6.582-.063-13.164-.01-19.745a5.831,5.831,0,0,1,5.745-5.552Q47.539,25.731,55.05,25.74Z"/>
    </g>
  </g>
</svg>
