<svg id="Layer_1" data-name="Layer 1" xmlns="http://www.w3.org/2000/svg" viewBox="0 0 410.391 75.689">
  <defs>
    <style>
      .cls-1 {
        fill: #0070c0;
      }
    </style>
  </defs>
  <title>BlinkLink logo</title>
  <g>
    <path class="cls-1" d="M20.809.017c4.563,0,9.127-.044,13.689.011A23.136,23.136,0,0,1,50.34,6.189a22.788,22.788,0,0,1,7.494,14.469A22.54,22.54,0,0,1,53.6,37.1a1.062,1.062,0,0,0,.053,1.536,22.623,22.623,0,0,1,4.321,16.009,22.268,22.268,0,0,1-6.075,13.3,22.37,22.37,0,0,1-15.114,7.461,71.083,71.083,0,0,1-9.611-.039,5.345,5.345,0,0,1-2.964-1.62c-4.829-4.7-9.56-9.511-14.348-14.258-2.6-2.574-5.259-5.08-7.855-7.653-2.9-2.879-2.641-6.889.673-9.246,1.826-1.3,4.953-1.572,7.729,1.227,6.31,6.365,12.688,12.661,19,19.024A3.327,3.327,0,0,0,32.261,64c1.638-.142,3.309-.023,4.924-.277,4.618-.726,8.576-5.2,9.179-9.491a11.56,11.56,0,0,0-4.8-11.561c-3.435-2.619-3.368-7.077.093-9.715a11.419,11.419,0,0,0,4.884-9.715,11.749,11.749,0,0,0-11.64-11.533c-7.349,0-14.7.022-22.048-.024-1.077-.007-1.384.3-1.359,1.365.068,2.825.051,5.653.005,8.479a2.4,2.4,0,0,0,.81,1.895q9.949,9.811,19.862,19.657a5.832,5.832,0,0,1-1.016,9.436,5.658,5.658,0,0,1-6.4-.666Q13.224,40.456,1.7,29.053A5.114,5.114,0,0,1,.052,25.316C.039,18.735-.011,12.153.043,5.571A5.831,5.831,0,0,1,5.787.019Q13.3.007,20.809.017Z"/>
    <path class="cls-1" d="M203.825,47.787c2.9,3.075,5.772,6.177,8.708,9.217,3.081,3.19,6.343,6.214,9.3,9.515,1.889,2.111,1.422,5.585-.6,7.526a5.672,5.672,0,0,1-7.463.368,15.777,15.777,0,0,1-1.454-1.258c-5.383-5.349-10.778-10.686-16.113-16.083-.9-.907-1.391-.785-2.217.05-5.48,5.537-11.007,11.027-16.521,16.53-3.281,3.274-7.99,2.378-9.757-1.909a7.25,7.25,0,0,1-.447-2.7q-.036-31.434.011-62.867A5.932,5.932,0,0,1,172.98.044c2.339-.237,5.3,2.162,5.7,4.5a16.485,16.485,0,0,1,.237,2.747q.021,23.257.01,46.515c0,.517,0,1.034,0,1.895.554-.431.9-.649,1.182-.927q2.767-2.713,5.512-5.448,13.52-13.428,27.039-26.857c1.7-1.685,3.653-2.619,6.1-1.878a5.527,5.527,0,0,1,3.981,3.787,5.357,5.357,0,0,1-1.39,5.652q-8.412,8.459-16.889,16.852a8.4,8.4,0,0,1-1.2.841Z"/>
    <path class="cls-1" d="M390.5,47.7c2.107,2.091,3.852,3.817,5.59,5.549,4.317,4.3,8.653,8.586,12.937,12.922,2.541,2.572,1.333,7.722-2.068,8.994a5.573,5.573,0,0,1-6.325-1.19c-4.869-4.836-9.7-9.706-14.565-14.549-1.08-1.076-2.214-2.1-3.422-3.237-.59.52-1.146.962-1.646,1.46-3.319,3.3-6.614,6.632-9.943,9.926-2.262,2.238-4.528,4.476-6.867,6.632a5.172,5.172,0,0,1-6.029.866,5.46,5.46,0,0,1-3.381-5.25c-.051-5.53-.016-11.061-.016-16.592q0-23.556,0-47.113a5.664,5.664,0,0,1,5.6-6.007,5.488,5.488,0,0,1,5.841,5.73c.072,10.819.024,21.639.023,32.458q0,7.872,0,15.745c0,.46.049.92.086,1.576a8.1,8.1,0,0,0,.839-.576c1.527-1.43,3.077-2.838,4.559-4.314q13.722-13.679,27.424-27.378c1.651-1.644,3.351-3.211,6-3,2.075.164,5.234,2.149,5.228,5.346a6.425,6.425,0,0,1-2.068,4.919c-3.038,2.955-5.994,6-9.009,8.975-2.464,2.436-4.959,4.84-7.459,7.24A9.636,9.636,0,0,1,390.5,47.7Z"/>
    <path class="cls-1" d="M264.493,63.674c-.3-.318-.582-.645-.888-.953q-4.4-4.421-8.814-8.831c-.739-.735-1.564-1.384-2.314-2.11a5.8,5.8,0,1,1,8.188-8.211Q270.742,53.618,280.8,63.682c.793.793,1.616,1.558,2.376,2.382a5.673,5.673,0,0,1-2.643,9.315,8.2,8.2,0,0,1-2.374.278c-14.536.016-29.072-.018-43.608.031a6.254,6.254,0,0,1-6.572-6.594c.1-21.077.045-42.154.049-63.231A5.825,5.825,0,0,1,233.938.017a5.922,5.922,0,0,1,5.553,5.242c.049.724.041,1.453.041,2.179q0,27.437,0,54.873c0,1.668,0,1.67,1.627,1.67h23.22Z"/>
    <path class="cls-1" d="M129.638,22.737c2.521-.775,4.774-1.615,7.1-2.151a19.748,19.748,0,0,1,14.687,2.5,20.811,20.811,0,0,1,10.154,13.7,21.316,21.316,0,0,1,.6,4.744c.055,9.408.08,18.816,0,28.224a5.606,5.606,0,0,1-5.522,5.852,5.7,5.7,0,0,1-5.92-5.416q.049-13.809,0-27.618a11.623,11.623,0,0,0-1.7-6.285A10.187,10.187,0,0,0,134.2,34a9.771,9.771,0,0,0-3.7,7.72c-.063,9.367-.1,18.736.021,28.1a5.88,5.88,0,0,1-5.7,5.8,5.648,5.648,0,0,1-5.777-5.711c-.042-14.738-.021-29.476-.014-44.214a5.713,5.713,0,0,1,10.036-3.569C129.3,22.4,129.557,22.652,129.638,22.737Z"/>
    <path class="cls-1" d="M316.99,22.771c2.516-.767,4.836-1.642,7.232-2.172a19.684,19.684,0,0,1,14.745,2.589,20.82,20.82,0,0,1,9.586,12.022,20.005,20.005,0,0,1,.921,5.65c.087,9.769.035,19.54.034,29.31a5.689,5.689,0,0,1-8.171,4.836,5.961,5.961,0,0,1-3.278-5.7q-.025-13.626-.007-27.251c0-4.919-2.689-8.692-7.441-9.961a9.937,9.937,0,0,0-12.351,7.252,9.8,9.8,0,0,0-.249,2.258c-.016,9.366.03,18.733-.031,28.1a5.73,5.73,0,0,1-11.452.429c.037-12.879.017-25.757.018-38.636,0-1.9.063-3.8-.015-5.692a5.665,5.665,0,0,1,10.317-3.185A.677.677,0,0,0,316.99,22.771Z"/>
    <path class="cls-1" d="M63.052,27.046q0-10.415,0-20.83A5.891,5.891,0,0,1,68.546.039a5.731,5.731,0,0,1,5.978,5.339c.03.958.205,1.913.207,2.869.014,13.2-.008,26.4.018,39.6.011,5.643,2.554,9.985,7.087,13.214a15.941,15.941,0,0,0,9.1,2.948c3.183.079,5.438,1.6,6.115,4.549a5.5,5.5,0,0,1-4.141,6.79,17.858,17.858,0,0,1-5.72,0,27.268,27.268,0,0,1-12.125-4.9A26.93,26.93,0,0,1,63.557,51.915a68.25,68.25,0,0,1-.484-8.762C63,37.785,63.052,32.415,63.052,27.046Z"/>
    <path class="cls-1" d="M113.76,47.947q0,11.145,0,22.29a5.8,5.8,0,0,1-4.412,5.209c-4.157.851-7.093-2.518-7.075-6.085.073-14.416.03-28.832.031-43.248a5.658,5.658,0,0,1,3.035-5.249,5.517,5.517,0,0,1,6.412.6,5.113,5.113,0,0,1,2.018,4.19C113.748,33.087,113.76,40.517,113.76,47.947Z"/>
    <path class="cls-1" d="M289.823,47.862c0-7.308.062-14.616-.028-21.923a5.741,5.741,0,1,1,11.482.033q.018,18.047,0,36.094c0,2.584.012,5.168,0,7.752A5.759,5.759,0,0,1,289.95,71.34a5.148,5.148,0,0,1-.126-1.313q-.011-11.083-.005-22.165Z"/>
    <path class="cls-1" d="M113.758,5.938a5.551,5.551,0,0,1-5.6,5.69,5.648,5.648,0,0,1-5.83-5.761,5.66,5.66,0,0,1,5.655-5.8A5.6,5.6,0,0,1,113.758,5.938Z"/>
    <path class="cls-1" d="M289.818,5.789c-.274-3.019,2.747-5.827,5.612-5.727a5.649,5.649,0,0,1,5.833,5.78,5.723,5.723,0,1,1-11.445-.053Z"/>
  </g>
</svg>
