<svg id="Layer_1" data-name="Layer 1" xmlns="http://www.w3.org/2000/svg" viewBox="0 0 666 698">
  <defs>
    <style>
      .cls-1, .cls-28 {
        opacity: 0.4;
      }

      .cls-2, .cls-28 {
        fill: #3a273b;
      }

      .cls-3 {
        isolation: isolate;
      }

      .cls-4 {
        fill: #bdd4e5;
      }

      .cls-5 {
        fill: #8eaabc;
      }

      .cls-6 {
        fill: #e5f1fe;
      }

      .cls-7, .cls-8 {
        fill: #fff;
      }

      .cls-7 {
        opacity: 0.2;
      }

      .cls-9 {
        fill: red;
      }

      .cls-10 {
        fill: #fcee21;
      }

      .cls-11 {
        fill: #6582ba;
      }

      .cls-12 {
        fill: #2b4f6f;
      }

      .cls-13 {
        fill: #128fdb;
      }

      .cls-14 {
        opacity: 0.55;
      }

      .cls-15 {
        fill: #d1e2f2;
      }

      .cls-16 {
        fill: #3ab3ef;
      }

      .cls-17 {
        fill: #ff8585;
      }

      .cls-18 {
        fill: #dcf3ff;
      }

      .cls-19 {
        fill: #8cc63f;
      }

      .cls-20 {
        fill: #4c6c89;
      }

      .cls-21 {
        fill: #c46a58;
      }

      .cls-22 {
        fill: #fcb9a9;
      }

      .cls-23 {
        fill: #0070c0;
      }

      .cls-24 {
        fill: #22435b;
      }

      .cls-25 {
        fill: #f0f8ff;
      }

      .cls-26 {
        fill: #b9d4ea;
      }

      .cls-27 {
        fill: #efa89a;
      }

      .cls-29 {
        fill: #843843;
      }

      .cls-30 {
        fill: #682733;
      }
    </style>
  </defs>
  <title>Kaykushal 4</title>
  <g>
    <g>
      <g>
        <g class="cls-1">
          <path class="cls-2" d="M622.66,429.18c7.15,4.13,7.18,10.81.08,14.94L388.4,578.68c-7.1,4.13-18.64,4.13-25.79,0L117.14,437c-7.14-4.12-7.18-10.81-.08-14.94L351.4,287.46c7.1-4.13,18.65-4.13,25.79,0Z"/>
        </g>
        <g>
          <g>
            <g>
              <g>
                <g>
                  <g>
                    <g class="cls-3">
                      <path class="cls-4" d="M111.3,421.8l0-11.25c0,2.72,1.79,5.45,5.38,7.52l0,11.25C113.09,427.25,111.29,424.52,111.3,421.8Z"/>
                      <path class="cls-5" d="M539.44,471.77,388,559.79l0,11.25L539.4,483c3.53-2.05,5.29-4.73,5.3-7.42l0-11.25C544.73,467,543,469.72,539.44,471.77Z"/>
                      <polygon class="cls-4" points="362.18 559.79 362.15 571.04 116.69 429.32 116.72 418.07 362.18 559.79"/>
                      <path class="cls-4" d="M388,559.79l0,11.25c-7.1,4.13-18.64,4.13-25.79,0l0-11.25C369.33,563.92,380.87,563.92,388,559.79Z"/>
                      <path class="cls-6" d="M539.36,456.83c7.15,4.13,7.18,10.81.08,14.94L388,559.79c-7.1,4.13-18.64,4.13-25.79,0L116.72,418.07c-7.14-4.12-7.18-10.81-.08-14.94l151.46-88c7.1-4.13,18.65-4.13,25.79,0Z"/>
                    </g>
                    <path class="cls-7" d="M116.72,415.11,362.18,556.83c7.15,4.13,18.69,4.13,25.79,0l151.46-88c2.88-1.68,4.59-3.78,5.12-6,.76,3.16-.94,6.48-5.12,8.91L388,559.79c-7.1,4.13-18.64,4.13-25.79,0L116.72,418.07c-4.24-2.45-6-5.8-5.2-9C112,411.29,113.78,413.42,116.72,415.11Z"/>
                  </g>
                  <path class="cls-4" d="M514.17,462.21c6.62,3.82,6.66,10,.08,13.85l-80.78,46.53c-6.58,3.82-17.28,3.82-23.91,0L182,391.22c-6.62-3.82-6.66-10-.08-13.85l80.78-46.53c6.58-3.82,12.29-5.82,18.92-2Z"/>
                  <g>
                    <g>
                      <path class="cls-8" d="M473.69,473.74l12.3,7.1a3.26,3.26,0,0,0,2.93-.12l11.78-6.8c.87-.5,1-1.26.21-1.69l-12.3-7.1a3.26,3.26,0,0,0-2.93.12L473.9,472C473,472.54,472.94,473.3,473.69,473.74Z"/>
                      <path class="cls-8" d="M457.05,464.13l12.3,7.1a3.26,3.26,0,0,0,2.93-.12l11.78-6.8c.87-.5,1-1.26.21-1.69l-12.3-7.1a3.26,3.26,0,0,0-2.93.12l-11.78,6.8C456.4,462.94,456.3,463.7,457.05,464.13Z"/>
                      <path class="cls-8" d="M440.42,454.52l12.3,7.1a3.26,3.26,0,0,0,2.93-.12l11.78-6.8c.87-.5,1-1.26.21-1.69l-12.3-7.1a3.26,3.26,0,0,0-2.93.12l-11.78,6.8C439.76,453.33,439.66,454.09,440.42,454.52Z"/>
                      <path class="cls-8" d="M423.78,444.92l12.3,7.1a3.26,3.26,0,0,0,2.93-.12l11.78-6.8c.87-.5,1-1.26.21-1.69l-12.3-7.1a3.26,3.26,0,0,0-2.93.12L424,443.22C423.12,443.73,423,444.48,423.78,444.92Z"/>
                      <path class="cls-8" d="M407.14,435.31l12.3,7.1a3.26,3.26,0,0,0,2.93-.12l11.78-6.8c.87-.5,1-1.26.21-1.69l-12.3-7.1a3.26,3.26,0,0,0-2.93.12l-11.78,6.8C406.48,434.12,406.39,434.88,407.14,435.31Z"/>
                      <path class="cls-8" d="M390.5,425.71l12.3,7.1a3.26,3.26,0,0,0,2.93-.12l11.78-6.8c.87-.5,1-1.26.21-1.69l-12.3-7.1a3.26,3.26,0,0,0-2.93.12L390.71,424C389.84,424.51,389.75,425.27,390.5,425.71Z"/>
                      <path class="cls-8" d="M373.86,416.1l12.3,7.1a3.26,3.26,0,0,0,2.93-.12l11.78-6.8c.87-.5,1-1.26.21-1.69l-12.3-7.1a3.26,3.26,0,0,0-2.93.12l-11.78,6.8C373.2,414.91,373.11,415.66,373.86,416.1Z"/>
                      <path class="cls-8" d="M357.22,406.49l12.3,7.1a3.26,3.26,0,0,0,2.93-.12l11.78-6.8c.87-.5,1-1.26.21-1.69l-12.3-7.1a3.26,3.26,0,0,0-2.93.12l-11.78,6.8C356.56,405.3,356.47,406.06,357.22,406.49Z"/>
                      <path class="cls-8" d="M340.58,396.89l12.3,7.1a3.26,3.26,0,0,0,2.93-.12l11.78-6.8c.87-.5,1-1.26.21-1.69l-12.3-7.1a3.26,3.26,0,0,0-2.93.12l-11.78,6.8C339.93,395.69,339.83,396.45,340.58,396.89Z"/>
                      <path class="cls-8" d="M323.94,387.28l12.3,7.1a3.26,3.26,0,0,0,2.93-.12l11.78-6.8c.87-.5,1-1.26.21-1.69l-12.3-7.1a3.26,3.26,0,0,0-2.93.12l-11.78,6.8C323.29,386.09,323.19,386.85,323.94,387.28Z"/>
                      <path class="cls-8" d="M307.31,377.67l12.3,7.1a3.26,3.26,0,0,0,2.93-.12l11.78-6.8c.87-.5,1-1.26.21-1.69l-12.3-7.1a3.26,3.26,0,0,0-2.93.12L307.52,376C306.65,376.48,306.55,377.24,307.31,377.67Z"/>
                      <path class="cls-8" d="M290.67,368.07l12.3,7.1a3.26,3.26,0,0,0,2.93-.12l11.78-6.8c.87-.5,1-1.26.21-1.69l-12.3-7.1a3.26,3.26,0,0,0-2.93.12l-11.78,6.8C290,366.87,289.91,367.63,290.67,368.07Z"/>
                      <path class="cls-8" d="M274,358.46l12.3,7.1a3.26,3.26,0,0,0,2.93-.12l11.78-6.8c.87-.5,1-1.26.21-1.69l-12.3-7.1A3.26,3.26,0,0,0,286,350l-11.78,6.8C273.37,357.27,273.28,358,274,358.46Z"/>
                      <path class="cls-8" d="M249.87,344.51,269.69,356a3.26,3.26,0,0,0,2.93-.12L284.4,349c.87-.5,1-1.26.21-1.69L264.8,335.9a3.26,3.26,0,0,0-2.93.12l-11.78,6.8C249.21,343.32,249.12,344.08,249.87,344.51Z"/>
                    </g>
                    <g>
                      <path class="cls-8" d="M260.56,352.54l-12.3-7.1a3.26,3.26,0,0,0-2.93.12l-11.78,6.8c-.87.5-1,1.26-.21,1.69l12.3,7.1a3.26,3.26,0,0,0,2.93-.12l11.78-6.8C261.22,353.73,261.31,353,260.56,352.54Z"/>
                      <path class="cls-8" d="M277.2,362.15,264.9,355a3.26,3.26,0,0,0-2.93.12L250.19,362c-.87.5-1,1.26-.21,1.69l12.3,7.1a3.26,3.26,0,0,0,2.93-.12l11.78-6.8C277.86,363.34,277.95,362.58,277.2,362.15Z"/>
                      <path class="cls-8" d="M293.84,371.76l-12.3-7.1a3.26,3.26,0,0,0-2.93.12l-11.78,6.8c-.87.5-1,1.26-.21,1.69l12.3,7.1a3.26,3.26,0,0,0,2.93-.12l11.78-6.8C294.49,372.95,294.59,372.19,293.84,371.76Z"/>
                      <path class="cls-8" d="M310.48,381.36l-12.3-7.1a3.26,3.26,0,0,0-2.93.12l-11.78,6.8c-.87.5-1,1.26-.21,1.69l12.3,7.1a3.26,3.26,0,0,0,2.93-.12l11.78-6.8C311.13,382.55,311.23,381.8,310.48,381.36Z"/>
                      <path class="cls-8" d="M327.11,391l-12.3-7.1a3.26,3.26,0,0,0-2.93.12l-11.78,6.8c-.87.5-1,1.26-.21,1.69l12.3,7.1a3.26,3.26,0,0,0,2.93-.12l11.78-6.8C327.77,392.16,327.87,391.4,327.11,391Z"/>
                      <path class="cls-8" d="M343.75,400.57l-12.3-7.1a3.26,3.26,0,0,0-2.93.12l-11.78,6.8c-.87.5-1,1.26-.21,1.69l12.3,7.1a3.26,3.26,0,0,0,2.93-.12l11.78-6.8C344.41,401.77,344.51,401,343.75,400.57Z"/>
                      <path class="cls-8" d="M360.39,410.18l-12.3-7.1a3.26,3.26,0,0,0-2.93.12L333.38,410c-.87.5-1,1.26-.21,1.69l12.3,7.1a3.26,3.26,0,0,0,2.93-.12l11.78-6.8C361,411.37,361.14,410.61,360.39,410.18Z"/>
                      <path class="cls-8" d="M377,419.79l-12.3-7.1a3.26,3.26,0,0,0-2.93.12L350,419.61c-.87.5-1,1.26-.21,1.69l12.3,7.1a3.26,3.26,0,0,0,2.93-.12l11.78-6.8C377.69,421,377.78,420.22,377,419.79Z"/>
                      <path class="cls-8" d="M393.67,429.39l-12.3-7.1a3.26,3.26,0,0,0-2.93.12l-11.78,6.8c-.87.5-1,1.26-.21,1.69l12.3,7.1a3.26,3.26,0,0,0,2.93-.12l11.78-6.8C394.33,430.59,394.42,429.83,393.67,429.39Z"/>
                      <path class="cls-8" d="M410.31,439,398,431.9a3.26,3.26,0,0,0-2.93.12l-11.78,6.8c-.87.5-1,1.26-.21,1.69l12.3,7.1a3.26,3.26,0,0,0,2.93-.12l11.78-6.8C411,440.19,411.06,439.43,410.31,439Z"/>
                      <path class="cls-8" d="M426.95,448.61l-12.3-7.1a3.26,3.26,0,0,0-2.93.12l-11.78,6.8c-.87.5-1,1.26-.21,1.69l12.3,7.1a3.26,3.26,0,0,0,2.93-.12l11.78-6.8C427.6,449.8,427.7,449,426.95,448.61Z"/>
                      <path class="cls-8" d="M443.59,458.21l-12.3-7.1a3.26,3.26,0,0,0-2.93.12L416.57,458c-.87.5-1,1.26-.21,1.69l12.3,7.1a3.26,3.26,0,0,0,2.93-.12l11.78-6.8C444.24,459.4,444.34,458.65,443.59,458.21Z"/>
                      <path class="cls-8" d="M460.22,467.82l-12.3-7.1a3.26,3.26,0,0,0-2.93.12l-11.78,6.8c-.87.5-1,1.26-.21,1.69l12.3,7.1a3.26,3.26,0,0,0,2.93-.12l11.78-6.8C460.88,469,461,468.25,460.22,467.82Z"/>
                      <path class="cls-8" d="M484.38,481.77l-19.82-11.44a3.26,3.26,0,0,0-2.93.12l-11.78,6.8c-.87.5-1,1.26-.21,1.69l19.82,11.44a3.26,3.26,0,0,0,2.93-.12l11.78-6.8C485,483,485.13,482.2,484.38,481.77Z"/>
                    </g>
                    <g>
                      <path class="cls-8" d="M256,369l-24.31-14a3.26,3.26,0,0,0-2.93.12L217,361.91c-.87.5-1,1.26-.21,1.69l24.31,14a3.26,3.26,0,0,0,2.93-.12l11.78-6.8C256.69,370.22,256.79,369.46,256,369Z"/>
                      <path class="cls-8" d="M467.71,491.23l-24.31-14a3.26,3.26,0,0,0-2.93.12l-11.78,6.8c-.87.5-1,1.26-.21,1.69l24.31,14a3.26,3.26,0,0,0,2.93-.12l11.78-6.8C468.37,492.43,468.46,491.67,467.71,491.23Z"/>
                      <path class="cls-8" d="M272.67,378.63l-12.3-7.1a3.26,3.26,0,0,0-2.93.12l-11.78,6.8c-.87.5-1,1.26-.21,1.69l12.3,7.1a3.26,3.26,0,0,0,2.93-.12l11.78-6.8C273.33,379.82,273.43,379.06,272.67,378.63Z"/>
                      <path class="cls-8" d="M289.31,388.24l-12.3-7.1a3.26,3.26,0,0,0-2.93.12l-11.78,6.8c-.87.5-1,1.26-.21,1.69l12.3,7.1a3.26,3.26,0,0,0,2.93-.12l11.78-6.8C290,389.43,290.06,388.67,289.31,388.24Z"/>
                      <path class="cls-8" d="M306,397.84l-12.3-7.1a3.26,3.26,0,0,0-2.93.12l-11.78,6.8c-.87.5-1,1.26-.21,1.69l12.3,7.1a3.26,3.26,0,0,0,2.93-.12l11.78-6.8C306.61,399,306.7,398.28,306,397.84Z"/>
                      <path class="cls-8" d="M322.59,407.45l-12.3-7.1a3.26,3.26,0,0,0-2.93.12l-11.78,6.8c-.87.5-1,1.26-.21,1.69l12.3,7.1a3.26,3.26,0,0,0,2.93-.12l11.78-6.8C323.25,408.64,323.34,407.88,322.59,407.45Z"/>
                      <path class="cls-8" d="M339.23,417.05l-12.3-7.1a3.26,3.26,0,0,0-2.93.12l-11.78,6.8c-.87.5-1,1.26-.21,1.69l12.3,7.1a3.26,3.26,0,0,0,2.93-.12l11.78-6.8C339.89,418.25,340,417.49,339.23,417.05Z"/>
                      <path class="cls-8" d="M355.87,426.66l-12.3-7.1a3.26,3.26,0,0,0-2.93.12l-11.78,6.8c-.87.5-1,1.26-.21,1.69l12.3,7.1a3.26,3.26,0,0,0,2.93-.12l11.78-6.8C356.52,427.85,356.62,427.1,355.87,426.66Z"/>
                      <path class="cls-8" d="M372.51,436.27l-12.3-7.1a3.26,3.26,0,0,0-2.93.12l-11.78,6.8c-.87.5-1,1.26-.21,1.69l12.3,7.1a3.26,3.26,0,0,0,2.93-.12L372.3,438C373.16,437.46,373.26,436.7,372.51,436.27Z"/>
                      <path class="cls-8" d="M389.14,445.87l-12.3-7.1a3.26,3.26,0,0,0-2.93.12l-11.78,6.8c-.87.5-1,1.26-.21,1.69l12.3,7.1a3.26,3.26,0,0,0,2.93-.12l11.78-6.8C389.8,447.07,389.9,446.31,389.14,445.87Z"/>
                      <path class="cls-8" d="M405.78,455.48l-12.3-7.1a3.26,3.26,0,0,0-2.93.12l-11.78,6.8c-.87.5-1,1.26-.21,1.69l12.3,7.1a3.26,3.26,0,0,0,2.93-.12l11.78-6.8C406.44,456.67,406.54,455.91,405.78,455.48Z"/>
                      <path class="cls-8" d="M422.42,465.09l-12.3-7.1a3.26,3.26,0,0,0-2.93.12l-11.78,6.8c-.87.5-1,1.26-.21,1.69l12.3,7.1a3.26,3.26,0,0,0,2.93-.12l11.78-6.8C423.08,466.28,423.17,465.52,422.42,465.09Z"/>
                      <path class="cls-8" d="M439.06,474.69l-12.3-7.1a3.26,3.26,0,0,0-2.93.12L412,474.52c-.87.5-1,1.26-.21,1.69l12.3,7.1a3.26,3.26,0,0,0,2.93-.12l11.78-6.8C439.72,475.88,439.81,475.13,439.06,474.69Z"/>
                    </g>
                    <g>
                      <path class="cls-8" d="M247.76,383.34l-32.57-18.8a3.26,3.26,0,0,0-2.93.12l-11.78,6.8c-.87.5-1,1.26-.21,1.69L232.83,392a3.26,3.26,0,0,0,2.93-.12l11.78-6.8C248.42,384.53,248.51,383.77,247.76,383.34Z"/>
                      <path class="cls-8" d="M264.4,392.94l-12.3-7.1a3.26,3.26,0,0,0-2.93.12l-11.78,6.8c-.87.5-1,1.26-.21,1.69l12.3,7.1a3.26,3.26,0,0,0,2.93-.12l11.78-6.8C265.06,394.14,265.15,393.38,264.4,392.94Z"/>
                      <path class="cls-8" d="M281,402.55l-12.3-7.1a3.26,3.26,0,0,0-2.93.12L254,402.38c-.87.5-1,1.26-.21,1.69l12.3,7.1A3.26,3.26,0,0,0,269,411l11.78-6.8C281.7,403.74,281.79,403,281,402.55Z"/>
                      <path class="cls-8" d="M297.68,412.16l-12.3-7.1a3.26,3.26,0,0,0-2.93.12L270.66,412c-.87.5-1,1.26-.21,1.69l12.3,7.1a3.26,3.26,0,0,0,2.93-.12l11.78-6.8C298.33,413.35,298.43,412.59,297.68,412.16Z"/>
                      <path class="cls-8" d="M314.32,421.76l-12.3-7.1a3.26,3.26,0,0,0-2.93.12l-11.78,6.8c-.87.5-1,1.26-.21,1.69l12.3,7.1a3.26,3.26,0,0,0,2.93-.12l11.78-6.8C315,423,315.07,422.2,314.32,421.76Z"/>
                      <path class="cls-8" d="M331,431.37l-12.3-7.1a3.26,3.26,0,0,0-2.93.12l-11.78,6.8c-.87.5-1,1.26-.21,1.69L316,440a3.26,3.26,0,0,0,2.93-.12l11.78-6.8C331.61,432.56,331.71,431.8,331,431.37Z"/>
                      <path class="cls-8" d="M347.59,441l-12.3-7.1a3.26,3.26,0,0,0-2.93.12l-11.78,6.8c-.87.5-1,1.26-.21,1.69l12.3,7.1a3.26,3.26,0,0,0,2.93-.12l11.78-6.8C348.25,442.17,348.34,441.41,347.59,441Z"/>
                      <path class="cls-8" d="M364.23,450.58l-12.3-7.1a3.26,3.26,0,0,0-2.93.12l-11.78,6.8c-.87.5-1,1.26-.21,1.69l12.3,7.1a3.26,3.26,0,0,0,2.93-.12l11.78-6.8C364.89,451.77,365,451,364.23,450.58Z"/>
                      <path class="cls-8" d="M380.87,460.19l-12.3-7.1a3.26,3.26,0,0,0-2.93.12L353.86,460c-.87.5-1,1.26-.21,1.69l12.3,7.1a3.26,3.26,0,0,0,2.93-.12l11.78-6.8C381.53,461.38,381.62,460.62,380.87,460.19Z"/>
                      <path class="cls-8" d="M397.51,469.8l-12.3-7.1a3.26,3.26,0,0,0-2.93.12l-11.78,6.8c-.87.5-1,1.26-.21,1.69l12.3,7.1a3.26,3.26,0,0,0,2.93-.12l11.78-6.8C398.17,471,398.26,470.23,397.51,469.8Z"/>
                      <path class="cls-8" d="M414.15,479.4l-12.3-7.1a3.26,3.26,0,0,0-2.93.12l-11.78,6.8c-.87.5-1,1.26-.21,1.69l12.3,7.1a3.26,3.26,0,0,0,2.93-.12l11.78-6.8C414.8,480.59,414.9,479.84,414.15,479.4Z"/>
                      <path class="cls-8" d="M451.18,500.78l-32.69-18.87a3.26,3.26,0,0,0-2.93.12l-11.78,6.8c-.87.5-1,1.26-.21,1.69l32.69,18.87a3.26,3.26,0,0,0,2.93-.12l11.78-6.8C451.83,502,451.93,501.21,451.18,500.78Z"/>
                    </g>
                    <g>
                      <path class="cls-8" d="M364.34,469.74l-78.85-45.52a3.26,3.26,0,0,0-2.93.12l-11.78,6.8c-.87.5-1,1.26-.21,1.69l78.85,45.53a3.26,3.26,0,0,0,2.93-.12l11.78-6.8C365,470.93,365.09,470.17,364.34,469.74Z"/>
                      <path class="cls-8" d="M260.87,410l-12.3-7.1a3.26,3.26,0,0,0-2.93.12l-11.78,6.8c-.87.5-1,1.26-.21,1.69l12.3,7.1a3.26,3.26,0,0,0,2.93-.12l11.78-6.8C261.53,411.19,261.62,410.43,260.87,410Z"/>
                      <path class="cls-8" d="M281.14,421.7l-15.93-9.2a3.26,3.26,0,0,0-2.93.12l-11.78,6.8c-.87.5-1,1.26-.21,1.69l15.93,9.2a3.26,3.26,0,0,0,2.93-.12l11.78-6.8C281.8,422.9,281.89,422.14,281.14,421.7Z"/>
                      <path class="cls-8" d="M388.95,483.94l12.3,7.1c.75.43.66,1.19-.21,1.69l-11.78,6.8a3.26,3.26,0,0,1-2.93.12l-12.3-7.1c-.75-.43-.66-1.19.21-1.69l11.78-6.8A3.26,3.26,0,0,1,388.95,483.94Z"/>
                      <path class="cls-8" d="M368.68,472.24l15.93,9.2c.75.43.66,1.19-.21,1.69l-11.78,6.8a3.26,3.26,0,0,1-2.93.12l-15.93-9.2c-.75-.43-.66-1.19.21-1.69l11.78-6.8A3.26,3.26,0,0,1,368.68,472.24Z"/>
                      <path class="cls-8" d="M211,381.18l-12.3-7.1a3.26,3.26,0,0,0-2.93.12L183.94,381c-.87.5-1,1.26-.21,1.69l12.3,7.1a3.26,3.26,0,0,0,2.93-.12l11.78-6.8C211.61,382.37,211.71,381.62,211,381.18Z"/>
                      <path class="cls-8" d="M227.59,390.79l-12.3-7.1a3.26,3.26,0,0,0-2.93.12l-11.78,6.8c-.87.5-1,1.26-.21,1.69l12.3,7.1a3.26,3.26,0,0,0,2.93-.12l11.78-6.8C228.25,392,228.35,391.22,227.59,390.79Z"/>
                      <path class="cls-8" d="M244.23,400.39l-12.3-7.1a3.26,3.26,0,0,0-2.93.12l-11.78,6.8c-.87.5-1,1.26-.21,1.69l12.3,7.1a3.26,3.26,0,0,0,2.93-.12l11.78-6.8C244.89,401.59,245,400.83,244.23,400.39Z"/>
                      <path class="cls-8" d="M434.64,510.33l-29.05-16.77a3.26,3.26,0,0,0-2.93.12l-11.78,6.8c-.87.5-1,1.26-.21,1.69l29.05,16.77a3.26,3.26,0,0,0,2.93-.12l11.78-6.8C435.3,511.52,435.39,510.76,434.64,510.33Z"/>
                    </g>
                    <g>
                      <path class="cls-8" d="M490.23,464.19l12.3,7.1a3.26,3.26,0,0,0,2.93-.12l5.86-3.38c.87-.5,1-1.26.21-1.69l-12.3-7.1a3.26,3.26,0,0,0-2.93.12l-5.86,3.38C489.57,463,489.48,463.76,490.23,464.19Z"/>
                      <path class="cls-8" d="M473.59,454.58l12.3,7.1a3.26,3.26,0,0,0,2.93-.12l5.86-3.38c.87-.5,1-1.26.21-1.69l-12.3-7.1a3.26,3.26,0,0,0-2.93.12l-5.86,3.38C472.93,453.39,472.84,454.15,473.59,454.58Z"/>
                      <path class="cls-8" d="M456.95,445l12.3,7.1a3.26,3.26,0,0,0,2.93-.12l5.86-3.38c.87-.5,1-1.26.21-1.69l-12.3-7.1a3.26,3.26,0,0,0-2.93.12l-5.86,3.38C456.29,443.79,456.2,444.54,456.95,445Z"/>
                      <path class="cls-8" d="M440.31,435.37l12.3,7.1a3.26,3.26,0,0,0,2.93-.12L461.4,439c.87-.5,1-1.26.21-1.69l-12.3-7.1a3.26,3.26,0,0,0-2.93.12l-5.86,3.38C439.65,434.18,439.56,434.94,440.31,435.37Z"/>
                      <path class="cls-8" d="M423.67,425.77l12.3,7.1a3.26,3.26,0,0,0,2.93-.12l5.86-3.38c.87-.5,1-1.26.21-1.69l-12.3-7.1a3.26,3.26,0,0,0-2.93.12l-5.86,3.38C423,424.57,422.92,425.33,423.67,425.77Z"/>
                      <path class="cls-8" d="M407,416.16l12.3,7.1a3.26,3.26,0,0,0,2.93-.12l5.86-3.38c.87-.5,1-1.26.21-1.69L416,411a3.26,3.26,0,0,0-2.93.12l-5.86,3.38C406.38,415,406.28,415.73,407,416.16Z"/>
                      <path class="cls-8" d="M390.4,406.55l12.3,7.1a3.26,3.26,0,0,0,2.93-.12l5.86-3.38c.87-.5,1-1.26.21-1.69l-12.3-7.1a3.26,3.26,0,0,0-2.93.12l-5.86,3.38C389.74,405.36,389.64,406.12,390.4,406.55Z"/>
                      <path class="cls-8" d="M373.76,396.95l12.3,7.1a3.26,3.26,0,0,0,2.93-.12l5.86-3.38c.87-.5,1-1.26.21-1.69l-12.3-7.1a3.26,3.26,0,0,0-2.93.12L374,395.25C373.1,395.75,373,396.51,373.76,396.95Z"/>
                      <path class="cls-8" d="M357.12,387.34l12.3,7.1a3.26,3.26,0,0,0,2.93-.12l5.86-3.38c.87-.5,1-1.26.21-1.69l-12.3-7.1a3.26,3.26,0,0,0-2.93.12l-5.86,3.38C356.46,386.15,356.37,386.91,357.12,387.34Z"/>
                      <path class="cls-8" d="M340.48,377.73l12.3,7.1a3.26,3.26,0,0,0,2.93-.12l5.86-3.38c.87-.5,1-1.26.21-1.69l-12.3-7.1a3.26,3.26,0,0,0-2.93.12L340.69,376C339.82,376.54,339.73,377.3,340.48,377.73Z"/>
                      <path class="cls-8" d="M323.84,368.13l12.3,7.1a3.26,3.26,0,0,0,2.93-.12l5.86-3.38c.87-.5,1-1.26.21-1.69l-12.3-7.1a3.26,3.26,0,0,0-2.93.12l-5.86,3.38C323.18,366.94,323.09,367.69,323.84,368.13Z"/>
                      <path class="cls-8" d="M307.2,358.52l12.3,7.1a3.26,3.26,0,0,0,2.93-.12l5.86-3.38c.87-.5,1-1.26.21-1.69l-12.3-7.1a3.26,3.26,0,0,0-2.93.12l-5.86,3.38C306.54,357.33,306.45,358.09,307.2,358.52Z"/>
                      <path class="cls-8" d="M290.56,348.91l12.3,7.1a3.26,3.26,0,0,0,2.93-.12l5.86-3.38c.87-.5,1-1.26.21-1.69l-12.3-7.1a3.26,3.26,0,0,0-2.93.12l-5.86,3.38C289.91,347.72,289.81,348.48,290.56,348.91Z"/>
                      <path class="cls-8" d="M266.41,335l19.82,11.44a3.26,3.26,0,0,0,2.93-.12L295,342.9c.87-.5,1-1.26.21-1.69l-19.82-11.44a3.26,3.26,0,0,0-2.93.12l-5.86,3.38C265.75,333.78,265.65,334.53,266.41,335Z"/>
                    </g>
                  </g>
                </g>
                <path class="cls-5" d="M323.56,480.81,268.63,449.1a5.43,5.43,0,0,0-4.91,0L241,462.18l-.94.54h0l-.51.29-1.8,1h0l-10,5.76c-1.35.78-1.34,2,0,2.83l27,15.58.95.55,27,15.58a5.43,5.43,0,0,0,4.91,0L300,497.28l.94-.54,22.68-13.1C324.93,482.86,324.92,481.59,323.56,480.81Z"/>
                <path class="cls-4" d="M227.82,471.18l10-5.76,1.8-1,.51-.29.94-.54,22.68-13.1a5.43,5.43,0,0,1,4.91,0l54.93,31.71a2.25,2.25,0,0,1,.81.74c.45-.71.18-1.54-.81-2.11L268.63,449.1a5.43,5.43,0,0,0-4.91,0L241,462.18l-.94.54-.51.29-1.8,1-10,5.76c-1,.56-1.23,1.38-.79,2.09A2.23,2.23,0,0,1,227.82,471.18Z"/>
                <path class="cls-8" d="M182,391.22,409.56,522.59c6.62,3.82,17.32,3.82,23.91,0l80.78-46.53c2.85-1.65,4.45-3.75,4.83-5.91.49,2.82-1.12,5.73-4.83,7.88l-80.78,46.53c-6.58,3.82-17.28,3.82-23.91,0L182,393.19c-3.76-2.17-5.39-5.1-4.9-7.94C177.51,387.43,179.14,389.55,182,391.22Z"/>
              </g>
              <g class="cls-3">
                <path class="cls-9" d="M283.46,299.94l7.14-2.69c-.47,3.3,1.33,7.25,4,8.8l-7.14,2.69C284.79,307.2,283,303.25,283.46,299.94Z"/>
                <polygon class="cls-9" points="314.17 88.57 321.31 85.88 290.6 297.25 283.46 299.94 314.17 88.57"/>
                <path class="cls-9" d="M316.62,85l7.14-2.69a4.23,4.23,0,0,0-2.45,3.6l-7.14,2.69A4.23,4.23,0,0,1,316.62,85Z"/>
                <path class="cls-10" d="M316.62,85l7.14-2.69a3.79,3.79,0,0,1,3.27.42l-7.14,2.69A3.79,3.79,0,0,0,316.62,85Z"/>
                <path class="cls-6" d="M313.59,76.94l7.14-2.69a8.54,8.54,0,0,1,7.37,1L321,77.9A8.54,8.54,0,0,0,313.59,76.94Z"/>
                <polygon class="cls-9" points="287.47 308.75 294.61 306.05 547.49 452.06 540.35 454.75 287.47 308.75"/>
                <path class="cls-9" d="M550.76,452.48l-7.14,2.69a3.79,3.79,0,0,1-3.27-.42l7.14-2.69A3.79,3.79,0,0,0,550.76,452.48Z"/>
                <path class="cls-10" d="M550.76,452.48l-7.14,2.69a4.23,4.23,0,0,0,2.45-3.61l7.14-2.69A4.23,4.23,0,0,1,550.76,452.48Z"/>
                <path class="cls-5" d="M553.79,460.5l-7.14,2.69c2.8-1.06,4.9-3.91,5.5-8.12l7.14-2.69C558.69,456.59,556.59,459.44,553.79,460.5Z"/>
                <polygon class="cls-10" points="319.89 85.39 327.03 82.7 579.91 228.7 572.78 231.39 319.89 85.39"/>
                <polygon class="cls-10" points="576.79 240.19 583.92 237.5 553.21 448.87 546.07 451.56 576.79 240.19"/>
                <path class="cls-10" d="M583.7,234.15a8.69,8.69,0,0,1,.22,3.35l-7.14,2.69a8.69,8.69,0,0,0-.22-3.35l.58-.22.62-.23.64-.24.65-.25.65-.25.64-.24.62-.23.58-.22.24-.09.26-.1.27-.1.28-.11.28-.11.28-.11.27-.1Z"/>
                <path class="cls-10" d="M583.7,234.15l-7.14,2.69a8.9,8.9,0,0,0-3.79-5.45l7.14-2.69A8.9,8.9,0,0,1,583.7,234.15Z"/>
                <path class="cls-11" d="M572.78,231.39c2.68,1.55,4.48,5.5,4,8.8L546.07,451.56c-.47,3.3-3,4.73-5.72,3.18l-252.88-146c-2.68-1.55-4.48-5.5-4-8.8L314.17,88.57c.47-3.3,3-4.73,5.72-3.18Z"/>
                <polygon class="cls-6" points="320.96 77.9 328.1 75.21 580.98 221.21 573.84 223.9 320.96 77.9"/>
                <polygon class="cls-5" points="582.87 243.7 590 241.01 559.29 452.38 552.15 455.07 582.87 243.7"/>
                <path class="cls-12" d="M573.84,223.9c6,3.49,10.09,12.35,9,19.8L552.15,455.07c-1.06,7.45-6.82,10.65-12.87,7.16l-252.88-146c-6-3.49-10.08-12.36-9-19.8L308.09,85.06c1.06-7.45,6.82-10.65,12.87-7.16ZM546.07,451.56l30.71-211.37c.47-3.3-1.33-7.25-4-8.8l-252.88-146c-2.68-1.55-5.25-.12-5.72,3.18L283.46,299.94c-.47,3.3,1.33,7.25,4,8.8l252.88,146c2.68,1.55,5.25.12,5.72-3.19"/>
                <path class="cls-4" d="M573.84,223.9l7.14-2.69c6,3.49,10.09,12.35,9,19.8l-7.14,2.69C583.93,236.26,579.89,227.39,573.84,223.9Z"/>
              </g>
            </g>
            <path class="cls-13" d="M572.78,231.39,397.2,130,319.89,85.39c-2.68-1.55-5.25-.12-5.72,3.18l-11.29,77.68L283.46,299.95c-.47,3.3,1.33,7.25,4,8.8l109.77,63.37,133.48,77.07,9.64,5.56c2.68,1.55,5.25.12,5.72-3.18l30.71-211.37C577.26,236.89,575.46,232.94,572.78,231.39Z"/>
          </g>
          <g class="cls-14">
            <path class="cls-12" d="M321,77.9c-6-3.49-11.81-.29-12.87,7.16L277.38,296.43c-1.06,7.45,3,16.31,9,19.8l252.88,146h0L561,216.49Z"/>
          </g>
          <g>
            <path class="cls-15" d="M306.39,323.58a6,6,0,0,1-2.71-4.71l.12-47.48c0-1.73,1.23-2.43,2.73-1.57l226.21,130.6a6,6,0,0,1,2.71,4.71l-.12,47.48c0,1.73-1.23,2.43-2.73,1.57L306.39,323.58m83.74-10.71a6,6,0,0,1-2.72-4.71l.12-42.11c0-1.73,1.23-2.43,2.74-1.56l140.81,81.3a6,6,0,0,1,2.71,4.71l-.12,42.11c0,1.73-1.23,2.43-2.73,1.56l-140.81-81.3m-83.59-48.26a6,6,0,0,1-2.71-4.7l.39-137.8c0-1.73,1.23-2.43,2.73-1.56L380.54,163a6,6,0,0,1,2.72,4.71l-.39,137.8c0,1.73-1.24,2.42-2.74,1.55l-73.59-42.49m83.74-5.37a6,6,0,0,1-2.72-4.71l.24-84.17c0-1.73,1.23-2.43,2.74-1.55l140.81,81.3a6,6,0,0,1,2.71,4.7L533.82,339c0,1.73-1.23,2.43-2.73,1.56l-140.81-81.3m152.9-10L297,107.13l-.6,218L532,461.15c5.84,3.37,10.59.66,10.61-6l.57-205.83"/>
            <path class="cls-12" d="M264.65,172.2a3.83,3.83,0,0,1-1.74-3c0-1.11.79-1.55,1.75-1l20.6,11.89a3.83,3.83,0,0,1,1.74,3c0,1.11-.79,1.55-1.75,1l-20.6-11.89m.06-20.88a3.84,3.84,0,0,1-1.74-3c0-1.11.79-1.55,1.75-1l20.6,11.89a3.83,3.83,0,0,1,1.74,3c0,1.1-.79,1.55-1.75,1l-20.6-11.89m.06-20.89a3.83,3.83,0,0,1-1.74-3c0-1.1.79-1.55,1.75-1l20.6,11.89a3.84,3.84,0,0,1,1.74,3c0,1.11-.79,1.55-1.75,1l-20.6-11.89m.06-20.88a3.83,3.83,0,0,1-1.74-3c0-1.1.79-1.55,1.75-1l20.6,11.89a3.84,3.84,0,0,1,1.74,3c0,1.11-.79,1.55-1.75,1l-20.6-11.89M297,107.13,253.38,82l-.57,205.83c0,6.71,4.7,14.88,10.55,18.26l33,19.07.6-218"/>
            <path class="cls-13" d="M500.95,215.91a9.37,9.37,0,0,1-4.25-7.38c0-2.71,1.92-3.8,4.28-2.44a9.38,9.38,0,0,1,4.25,7.37c0,2.72-1.93,3.81-4.28,2.45m12.71,7.34a9.39,9.39,0,0,1-4.25-7.38c0-2.71,1.93-3.8,4.28-2.44A9.39,9.39,0,0,1,518,220.8c0,2.72-1.93,3.81-4.29,2.44m12.72,7.35a9.39,9.39,0,0,1-4.25-7.38c0-2.71,1.93-3.8,4.28-2.44a9.39,9.39,0,0,1,4.26,7.37c0,2.72-1.93,3.81-4.29,2.44m6.3-21.28-235.62-136L264,54.2c-5.85-3.38-10.6-.67-10.61,6l0,21.71L297,107.13,543.18,249.27l0-21.71c0-6.72-4.7-14.89-10.54-18.26"/>
            <path class="cls-8" d="M328.59,192.84c-6.13-3.54-11.12-.7-11.14,6.34s4.94,15.63,11.07,19.17c3.3,1.91,6.27,2,8.31.49,1.74-1.24,2.82-3.59,2.83-6.84,0-7-4.93-15.62-11.07-19.16m24.88,79.35a3.83,3.83,0,0,1-1.74-3c0-1.11.78-1.55,1.75-1L366,275.44a3.82,3.82,0,0,1,1.74,3c0,1.1-.78,1.55-1.75,1l-12.57-7.26m0-7.31a3.82,3.82,0,0,1-1.74-3c0-1.11.78-1.55,1.75-1l20.59,11.89a3.82,3.82,0,0,1,1.74,3c0,1.11-.78,1.55-1.75,1l-20.59-11.89m0-7.31a3.82,3.82,0,0,1-1.74-3c0-1.1.78-1.55,1.75-1l20.59,11.89a3.83,3.83,0,0,1,1.74,3c0,1.11-.78,1.55-1.75,1l-20.59-11.89m-25.13,9.16c-8.24-4.76-14.91-16.3-14.88-25.78s6.74-13.29,15-8.54v4.4c-6.13-3.54-11.12-.7-11.14,6.35s4.94,15.62,11.07,19.16,11.12.71,11.14-6.34a23,23,0,0,0-3.78-11.8l2.44-2c3.17,5,5.19,10.8,5.17,16,0,9.47-6.74,13.29-15,8.54m7.37-22.55a22.17,22.17,0,0,0-7.28-7.37v-4.4a29.61,29.61,0,0,1,9.71,9.77l-2.44,2m17.85-17.93a3.82,3.82,0,0,1-1.74-3c0-1.11.78-1.55,1.75-1l12.57,7.26a3.82,3.82,0,0,1,1.74,3c0,1.11-.78,1.55-1.75,1l-12.57-7.26m0-7.31a3.82,3.82,0,0,1-1.74-3c0-1.1.78-1.55,1.75-1l20.59,11.89a3.83,3.83,0,0,1,1.74,3c0,1.11-.78,1.55-1.75,1l-20.59-11.89m0-7.31a3.82,3.82,0,0,1-1.74-3c0-1.1.78-1.55,1.75-1l20.59,11.89a3.83,3.83,0,0,1,1.74,3c0,1.11-.78,1.55-1.75,1l-20.59-11.89M328.5,222.74c-8.24-4.76-14.91-16.3-14.88-25.78s6.74-13.28,15-8.53,14.91,16.3,14.88,25.77c0,4.28-1.4,7.39-3.66,9.09-2.74,2.07-6.79,2.05-11.32-.56m25.22-43.46a3.82,3.82,0,0,1-1.74-3c0-1.11.78-1.55,1.75-1l12.57,7.26a3.82,3.82,0,0,1,1.74,3c0,1.11-.78,1.55-1.75,1l-12.57-7.26m0-7.31a3.82,3.82,0,0,1-1.74-3c0-1.1.78-1.55,1.75-1l20.59,11.89a3.83,3.83,0,0,1,1.74,3c0,1.11-.78,1.55-1.75,1L353.75,172m0-7.31a3.82,3.82,0,0,1-1.74-3c0-1.1.78-1.55,1.75-1l20.59,11.89a3.83,3.83,0,0,1,1.74,3c0,1.11-.78,1.55-1.75,1l-20.59-11.89m-25.13,9.71c6.13,3.54,11.12.7,11.14-6.35s-4.93-15.63-11.07-19.17v-4.4c8.24,4.76,14.91,16.3,14.88,25.78s-6.74,13.29-15,8.54A30.69,30.69,0,0,1,317.9,167.3,30.05,30.05,0,0,1,313.75,153c0-9.47,6.74-13.29,15-8.54v4.4c-6.13-3.54-11.12-.7-11.14,6.35a22.34,22.34,0,0,0,3.09,10.64,22.74,22.74,0,0,0,8,8.53M380.54,163,307,120.56c-1.5-.87-2.73-.17-2.73,1.56l-.39,137.8a6,6,0,0,0,2.71,4.7l73.59,42.49c1.5.87,2.73.18,2.74-1.55l.39-137.8a6,6,0,0,0-2.72-4.71"/>
            <path class="cls-8" d="M395.67,256.3a3.82,3.82,0,0,1-1.74-3c0-1.11.78-1.55,1.75-1l4.55,2.62a3.81,3.81,0,0,1,1.73,3c0,1.11-.78,1.55-1.74,1l-4.55-2.62m0-10.44a3.82,3.82,0,0,1-1.74-3c0-1.11.78-1.55,1.75-1l4.55,2.62a3.81,3.81,0,0,1,1.73,3c0,1.11-.78,1.55-1.74,1l-4.55-2.62m0-10.44a3.83,3.83,0,0,1-1.74-3c0-1.11.78-1.55,1.75-1l4.55,2.62a3.81,3.81,0,0,1,1.73,3c0,1.1-.78,1.55-1.74,1l-4.55-2.62m0-10.44a3.83,3.83,0,0,1-1.74-3c0-1.11.78-1.55,1.75-1l4.55,2.62a3.81,3.81,0,0,1,1.73,3c0,1.1-.78,1.55-1.74,1L395.76,225m0-10.44a3.83,3.83,0,0,1-1.74-3c0-1.11.78-1.55,1.75-1l4.55,2.62a3.81,3.81,0,0,1,1.73,3c0,1.1-.78,1.55-1.74,1l-4.55-2.62m127.95,47.82c0-.06,0-.12,0-.18,0-1.68,1.19-2.37,2.66-1.52a5.83,5.83,0,0,1,2.64,4.58c0,1.65-1.16,2.34-2.6,1.55l-.18,64.89L405.6,262l.06-21a5.85,5.85,0,0,1-2.64-4.57c0-1.68,1.2-2.36,2.66-1.52a4.89,4.89,0,0,1,1.36,1.22c6-4.41,12.63-7.78,21.17-3.53q.65.32,1.29.69c6,3.44,11.45,9.81,16.77,16a1.91,1.91,0,0,1,1.83.21,5.83,5.83,0,0,1,2.64,4.57,3.14,3.14,0,0,1,0,.36c1.54,1.74,3.11,3.44,4.68,5a57.72,57.72,0,0,0,11.61,9c6.86,4,13.75,5.68,19.47,4.63a21.14,21.14,0,0,0,4.9-1.58,5,5,0,0,1-.5-2.07c0-1.68,1.2-2.36,2.66-1.52a5.14,5.14,0,0,1,1.61,1.57c1.34-.81,2.63-1.69,3.92-2.55,1.71-1.15,3.47-2.33,5.28-3.36,6.58-3.7,13.11-4.1,19.38-1.21m-118-52c-6.61-3.81-11.94-13.06-11.92-20.65s5.39-10.65,12-6.84,11.94,13.06,11.92,20.65-5.39,10.65-12,6.84m125.61,39.76-140.81-81.3c-1.51-.87-2.73-.18-2.74,1.55l-.24,84.17a6,6,0,0,0,2.72,4.71l140.81,81.3c1.5.87,2.73.17,2.73-1.56l.24-84.17a6,6,0,0,0-2.71-4.7"/>
            <path class="cls-8" d="M410,316.35a3.82,3.82,0,0,1-1.74-3c0-1.11.78-1.55,1.75-1l17.82,10.29a3.82,3.82,0,0,1,1.74,3c0,1.11-.78,1.55-1.75,1L410,316.35m48.25,27.86a3.82,3.82,0,0,1-1.74-3c0-1.11.78-1.55,1.75-1l17.82,10.29a3.82,3.82,0,0,1,1.74,3c0,1.11-.78,1.55-1.75,1L458.28,344.2m48.24,27.85a3.83,3.83,0,0,1-1.74-3c0-1.11.79-1.55,1.75-1l17.83,10.3a3.83,3.83,0,0,1,1.74,3c0,1.11-.79,1.55-1.75,1l-17.83-10.3M397,309.84l0-6.09,6.3,3.63,0,6.09-6.3-3.63m48.25,27.86,0-6.09,6.3,3.63,0,6.09-6.3-3.63m48.24,27.85,0-6.09,6.3,3.64,0,6.09-6.3-3.64m-83.37-62.77a3.83,3.83,0,0,1-1.74-3c0-1.11.78-1.55,1.75-1l17.82,10.29a3.82,3.82,0,0,1,1.74,3c0,1.1-.78,1.55-1.75,1l-17.82-10.29m48.25,27.86a3.83,3.83,0,0,1-1.74-3c0-1.11.78-1.55,1.75-1l17.82,10.29a3.82,3.82,0,0,1,1.74,3c0,1.1-.78,1.55-1.75,1l-17.82-10.29m48.24,27.85a3.84,3.84,0,0,1-1.74-3c0-1.11.79-1.55,1.75-1l17.83,10.3a3.83,3.83,0,0,1,1.74,3c0,1.1-.79,1.55-1.75,1l-17.83-10.3M397,296.28l0-6.09,6.3,3.63,0,6.09-6.3-3.63m48.25,27.86,0-6.09,6.3,3.63,0,6.09-6.3-3.63M493.49,352l0-6.09,6.3,3.64,0,6.09-6.3-3.64m-83.37-62.78a3.82,3.82,0,0,1-1.74-3c0-1.1.78-1.55,1.75-1l17.82,10.29a3.83,3.83,0,0,1,1.74,3c0,1.11-.78,1.55-1.75,1l-17.82-10.29m48.25,27.86a3.82,3.82,0,0,1-1.74-3c0-1.1.78-1.55,1.75-1l17.82,10.29a3.83,3.83,0,0,1,1.74,3c0,1.11-.78,1.55-1.75,1l-17.82-10.29m48.24,27.85a3.83,3.83,0,0,1-1.74-3c0-1.1.79-1.55,1.75-1l17.83,10.3a3.84,3.84,0,0,1,1.74,3c0,1.11-.79,1.55-1.75,1l-17.83-10.3M397,282.7l0-6.09,6.3,3.63,0,6.09L397,282.7m48.25,27.86,0-6.09,6.3,3.63,0,6.09-6.3-3.63m48.24,27.85,0-6.09,6.3,3.64,0,6.09-6.3-3.64m37.55,7.39L390.27,264.5c-1.51-.87-2.73-.17-2.74,1.56l-.12,42.11a6,6,0,0,0,2.72,4.71l140.81,81.3c1.5.87,2.73.17,2.73-1.56l.12-42.11a6,6,0,0,0-2.71-4.71"/>
            <path class="cls-16" d="M316.14,318.93a3.83,3.83,0,0,1-1.74-3c0-1.11.79-1.55,1.75-1l12.57,7.26a3.82,3.82,0,0,1,1.74,3c0,1.11-.78,1.55-1.75,1l-12.57-7.26m45.43,26.23a3.82,3.82,0,0,1-1.74-3c0-1.11.78-1.55,1.75-1l12.57,7.26a3.82,3.82,0,0,1,1.74,3c0,1.11-.78,1.55-1.75,1l-12.57-7.26M407,371.38a3.83,3.83,0,0,1-1.74-3c0-1.11.79-1.55,1.75-1l12.57,7.26a3.82,3.82,0,0,1,1.74,3c0,1.11-.78,1.55-1.75,1L407,371.38m45.43,26.23a3.82,3.82,0,0,1-1.74-3c0-1.11.78-1.55,1.75-1L465,400.86a3.82,3.82,0,0,1,1.74,3c0,1.11-.78,1.55-1.75,1l-12.57-7.26m45.43,26.23a3.82,3.82,0,0,1-1.74-3c0-1.11.78-1.55,1.75-1l12.57,7.26a3.83,3.83,0,0,1,1.74,3c0,1.11-.79,1.55-1.75,1l-12.57-7.26M316.16,311.62a3.83,3.83,0,0,1-1.74-3c0-1.1.79-1.55,1.75-1l20.6,11.89a3.84,3.84,0,0,1,1.74,3c0,1.11-.79,1.55-1.75,1l-20.6-11.89m45.43,26.23a3.82,3.82,0,0,1-1.74-3c0-1.1.78-1.55,1.75-1l20.59,11.89a3.83,3.83,0,0,1,1.74,3c0,1.11-.78,1.55-1.75,1l-20.59-11.89M407,364.07a3.83,3.83,0,0,1-1.74-3c0-1.1.79-1.55,1.75-1L427.62,372a3.83,3.83,0,0,1,1.74,3c0,1.11-.78,1.55-1.75,1L407,364.07m45.43,26.23a3.82,3.82,0,0,1-1.74-3c0-1.1.78-1.55,1.75-1L473,398.18a3.83,3.83,0,0,1,1.74,3c0,1.11-.78,1.55-1.75,1l-20.59-11.89m45.43,26.23a3.82,3.82,0,0,1-1.74-3c0-1.1.78-1.55,1.75-1l20.59,11.89a3.83,3.83,0,0,1,1.74,3c0,1.11-.78,1.55-1.75,1l-20.59-11.89M316.18,304.31a3.83,3.83,0,0,1-1.74-3c0-1.1.79-1.55,1.75-1l20.6,11.89a3.84,3.84,0,0,1,1.74,3c0,1.11-.79,1.55-1.75,1l-20.6-11.89m45.43,26.23a3.82,3.82,0,0,1-1.74-3c0-1.1.78-1.55,1.75-1l20.59,11.89a3.83,3.83,0,0,1,1.74,3c0,1.11-.78,1.55-1.75,1l-20.59-11.89M407,356.76a3.83,3.83,0,0,1-1.74-3c0-1.1.79-1.55,1.75-1l20.6,11.89a3.83,3.83,0,0,1,1.74,3c0,1.11-.78,1.55-1.75,1L407,356.76M452.46,383a3.82,3.82,0,0,1-1.74-3c0-1.1.78-1.55,1.75-1l20.59,11.89a3.83,3.83,0,0,1,1.74,3c0,1.11-.78,1.55-1.75,1L452.46,383m45.43,26.23a3.82,3.82,0,0,1-1.74-3c0-1.1.78-1.55,1.75-1l20.59,11.89a3.83,3.83,0,0,1,1.74,3c0,1.11-.78,1.55-1.75,1l-20.59-11.89M316.21,297a3.84,3.84,0,0,1-1.74-3c0-1.11.79-1.55,1.75-1l20.6,11.89a3.83,3.83,0,0,1,1.74,3c0,1.1-.79,1.55-1.75,1L316.21,297m45.43,26.23a3.83,3.83,0,0,1-1.74-3c0-1.11.78-1.55,1.75-1l20.59,11.89a3.82,3.82,0,0,1,1.74,3c0,1.1-.78,1.55-1.75,1l-20.59-11.89m45.42,26.22a3.84,3.84,0,0,1-1.74-3c0-1.11.79-1.55,1.75-1l20.6,11.89a3.82,3.82,0,0,1,1.74,3c0,1.1-.78,1.55-1.75,1l-20.6-11.89m45.43,26.23a3.83,3.83,0,0,1-1.74-3c0-1.11.78-1.55,1.75-1l20.59,11.89a3.82,3.82,0,0,1,1.74,3c0,1.1-.78,1.55-1.75,1l-20.59-11.89m45.43,26.23a3.83,3.83,0,0,1-1.74-3c0-1.11.78-1.55,1.75-1L518.5,409.8a3.82,3.82,0,0,1,1.74,3c0,1.1-.78,1.55-1.75,1l-20.59-11.89m34.83-1.48L306.53,269.83c-1.5-.87-2.73-.16-2.73,1.57l-.12,47.48a6,6,0,0,0,2.71,4.71L532.6,454.19c1.5.87,2.73.16,2.73-1.57l.12-47.48a6,6,0,0,0-2.71-4.71"/>
            <path class="cls-15" d="M374.37,172.54l-20.59-11.89c-1-.56-1.74-.1-1.75,1a3.82,3.82,0,0,0,1.74,3l20.59,11.89c1,.56,1.74.11,1.75-1a3.83,3.83,0,0,0-1.74-3"/>
            <path class="cls-15" d="M374.35,179.85,353.76,168c-1-.56-1.74-.1-1.75,1a3.82,3.82,0,0,0,1.74,3l20.59,11.89c1,.56,1.74.11,1.75-1a3.83,3.83,0,0,0-1.74-3"/>
            <path class="cls-15" d="M366.31,182.53l-12.57-7.26c-1-.56-1.74-.11-1.75,1a3.82,3.82,0,0,0,1.74,3l12.57,7.26c1,.56,1.74.11,1.75-1a3.82,3.82,0,0,0-1.74-3"/>
            <path class="cls-15" d="M374.24,219.52l-20.59-11.89c-1-.56-1.74-.1-1.75,1a3.82,3.82,0,0,0,1.74,3l20.59,11.89c1,.56,1.74.11,1.75-1a3.83,3.83,0,0,0-1.74-3"/>
            <path class="cls-15" d="M374.21,226.83l-20.59-11.89c-1-.56-1.74-.1-1.75,1a3.82,3.82,0,0,0,1.74,3l20.59,11.89c1,.56,1.74.11,1.75-1a3.83,3.83,0,0,0-1.74-3"/>
            <path class="cls-15" d="M366.17,229.51l-12.57-7.26c-1-.56-1.74-.11-1.75,1a3.82,3.82,0,0,0,1.74,3l12.57,7.26c1,.56,1.74.11,1.75-1a3.82,3.82,0,0,0-1.74-3"/>
            <path class="cls-15" d="M374.11,265.45l-20.59-11.89c-1-.56-1.74-.1-1.75,1a3.82,3.82,0,0,0,1.74,3l20.59,11.89c1,.56,1.74.11,1.75-1a3.83,3.83,0,0,0-1.74-3"/>
            <path class="cls-15" d="M374.08,272.76,353.5,260.88c-1-.56-1.74-.11-1.75,1a3.82,3.82,0,0,0,1.74,3l20.59,11.89c1,.56,1.74.11,1.75-1a3.82,3.82,0,0,0-1.74-3"/>
            <path class="cls-15" d="M366,275.44l-12.57-7.26c-1-.56-1.74-.11-1.75,1a3.83,3.83,0,0,0,1.74,3L366,279.44c1,.56,1.74.1,1.75-1a3.82,3.82,0,0,0-1.74-3"/>
            <path class="cls-13" d="M328.73,144.45c-8.24-4.76-15-.93-15,8.54a30.05,30.05,0,0,0,4.15,14.31l2.76-1.46a22.34,22.34,0,0,1-3.09-10.64c0-7,5-9.89,11.14-6.35v-4.4"/>
            <path class="cls-17" d="M328.73,144.45v4.4c6.13,3.54,11.09,12.12,11.07,19.17s-5,9.89-11.14,6.35a22.74,22.74,0,0,1-8-8.53l-2.76,1.46a30.69,30.69,0,0,0,10.73,11.46c8.24,4.76,15,.93,15-8.54s-6.64-21-14.88-25.78"/>
            <path class="cls-17" d="M328.6,188.44v4.4c6.13,3.54,11.09,12.12,11.07,19.16,0,3.25-1.09,5.59-2.83,6.84l3,4.47c2.27-1.7,3.65-4.81,3.66-9.09,0-9.47-6.64-21-14.88-25.77"/>
            <path class="cls-13" d="M328.6,188.44c-8.24-4.76-15-.94-15,8.53s6.64,21,14.88,25.78c4.52,2.61,8.58,2.63,11.32.56l-3-4.47c-2,1.46-5,1.42-8.31-.49-6.13-3.54-11.09-12.12-11.07-19.17s5-9.88,11.14-6.34v-4.4"/>
            <path class="cls-13" d="M328.48,232.42c-8.24-4.76-15-.93-15,8.54s6.64,21,14.88,25.78,15,.93,15-8.54c0-5.2-2-11-5.17-16l-2.44,2a23,23,0,0,1,3.78,11.8c0,7-5,9.88-11.14,6.34s-11.09-12.11-11.07-19.16,5-9.89,11.14-6.35v-4.4"/>
            <path class="cls-17" d="M328.48,232.42v4.4a22.17,22.17,0,0,1,7.28,7.37l2.44-2a29.61,29.61,0,0,0-9.71-9.77"/>
            <path class="cls-15" d="M400.35,213.17l-4.55-2.62c-1-.56-1.74-.11-1.75,1a3.83,3.83,0,0,0,1.74,3l4.55,2.62c1,.55,1.74.1,1.74-1a3.81,3.81,0,0,0-1.73-3"/>
            <path class="cls-15" d="M400.32,223.6,395.77,221c-1-.56-1.74-.11-1.75,1a3.83,3.83,0,0,0,1.74,3l4.55,2.62c1,.55,1.74.1,1.74-1a3.81,3.81,0,0,0-1.73-3"/>
            <path class="cls-15" d="M400.29,234l-4.55-2.62c-1-.56-1.74-.11-1.75,1a3.83,3.83,0,0,0,1.74,3l4.55,2.62c1,.55,1.74.1,1.74-1a3.81,3.81,0,0,0-1.73-3"/>
            <path class="cls-15" d="M400.26,244.48l-4.55-2.62c-1-.56-1.74-.11-1.75,1a3.82,3.82,0,0,0,1.74,3l4.55,2.62c1,.55,1.74.11,1.74-1a3.81,3.81,0,0,0-1.73-3"/>
            <path class="cls-15" d="M400.23,254.92l-4.55-2.62c-1-.56-1.74-.11-1.75,1a3.82,3.82,0,0,0,1.74,3l4.55,2.62c1,.55,1.74.11,1.74-1a3.81,3.81,0,0,0-1.73-3"/>
            <path class="cls-18" d="M476.46,302.94l0-13,6.65,3.84,0,13-6.65-3.84M408.33,263.6l0-17.22,6.65,3.84,0,17.22-6.65-3.84m54.5,31.47.05-18.26,6.66,3.84-.05,18.26-6.66-3.84m-13.62-7.86.06-21.4,6.65,3.84-.06,21.4-6.65-3.84m40.88,23.6.07-23.49,6.65,3.84-.07,23.49-6.65-3.84m-54.51-31.47.08-28.71,6.65,3.84-.08,28.71-6.65-3.84m-13.63-7.87.1-33.93,6.66,3.84-.1,33.93-6.66-3.84m81.76,47.21.13-44.36,6.66,3.84-.13,44.36-6.66-3.84m13.63,7.87.16-54.8,6.65,3.84-.16,54.8-6.65-3.84m6.6-63c-6.13-2.87-12.48-2.47-19,1.17-1.8,1-3.56,2.2-5.26,3.34-1.3.88-2.62,1.76-4,2.59a4.94,4.94,0,0,1,.41,1.89c0,1.67-1.19,2.36-2.66,1.51a5,5,0,0,1-1.49-1.4,21.68,21.68,0,0,1-5.05,1.63c-5.87,1.07-12.93-.69-20-4.75a59.17,59.17,0,0,1-11.92-9.22c-1.57-1.55-3.12-3.23-4.65-5-.44.73-1.34.89-2.36.3a5.82,5.82,0,0,1-2.64-4.57,2.38,2.38,0,0,1,.28-1.19c-5.39-6.31-10.53-12.24-16.19-15.5q-.63-.36-1.26-.68c-8.21-4.08-14.69-.79-20.55,3.53a5.2,5.2,0,0,1,.6,2.29c0,1.67-1.19,2.36-2.66,1.51l-.06,21,120.65,69.66.18-64.89-.06,0a5.88,5.88,0,0,1-2.43-3.24"/>
            <path class="cls-16" d="M491.38,271.51a21.14,21.14,0,0,1-4.9,1.58c-5.72,1-12.61-.67-19.47-4.63a57.72,57.72,0,0,1-11.61-9c-1.57-1.56-3.14-3.26-4.68-5a2.12,2.12,0,0,1-.27.85c1.53,1.72,3.08,3.4,4.65,5A59.17,59.17,0,0,0,467,269.49c7,4.06,14.1,5.82,20,4.75a21.68,21.68,0,0,0,5.05-1.63,6.51,6.51,0,0,1-.65-1.11m-61.88-38.23q-.64-.37-1.29-.69c-8.54-4.25-15.18-.88-21.17,3.53a6.43,6.43,0,0,1,.68,1.08c5.86-4.32,12.34-7.61,20.55-3.53q.64.32,1.26.68c5.65,3.26,10.8,9.2,16.19,15.5a1.35,1.35,0,0,1,.55-.54c-5.32-6.22-10.81-12.59-16.77-16m94.24,29.08c-6.27-2.89-12.8-2.49-19.38,1.21-1.81,1-3.58,2.21-5.28,3.36-1.28.86-2.58,1.74-3.92,2.55a6.47,6.47,0,0,1,.61,1.13c1.36-.83,2.67-1.71,4-2.59,1.7-1.15,3.45-2.32,5.26-3.34,6.47-3.64,12.82-4,19-1.17a4.68,4.68,0,0,1-.21-1.15"/>
            <polyline class="cls-16" points="415.02 250.22 408.38 246.38 408.33 263.6 414.97 267.44 415.02 250.22"/>
            <polyline class="cls-16" points="428.7 241.38 422.05 237.54 421.95 271.47 428.6 275.31 428.7 241.38"/>
            <polyline class="cls-16" points="442.31 254.46 435.66 250.63 435.58 279.34 442.23 283.18 442.31 254.46"/>
            <polyline class="cls-16" points="455.92 269.64 449.27 265.81 449.21 287.21 455.86 291.05 455.92 269.64"/>
            <polyline class="cls-16" points="469.54 280.65 462.88 276.81 462.83 295.07 469.49 298.91 469.54 280.65"/>
            <polyline class="cls-16" points="483.14 293.73 476.5 289.89 476.46 302.94 483.11 306.78 483.14 293.73"/>
            <polyline class="cls-16" points="496.8 291.16 490.16 287.32 490.09 310.81 496.74 314.65 496.8 291.16"/>
            <polyline class="cls-16" points="510.49 278.15 503.84 274.31 503.71 318.67 510.37 322.52 510.49 278.15"/>
            <polyline class="cls-16" points="524.14 275.58 517.5 271.74 517.34 326.54 523.99 330.38 524.14 275.58"/>
            <path class="cls-8" d="M526.39,261.71c-1-.56-1.74-.11-1.75,1a3.81,3.81,0,0,0,1.74,3c1,.55,1.74.11,1.75-1a3.83,3.83,0,0,0-1.74-3"/>
            <path class="cls-16" d="M526.37,265.71a3.81,3.81,0,0,1-1.74-3c0-1.11.78-1.55,1.75-1a3.83,3.83,0,0,1,1.74,3c0,1.1-.79,1.54-1.75,1m0-5c-1.46-.85-2.65-.16-2.66,1.52,0,.06,0,.12,0,.18a4.68,4.68,0,0,0,.21,1.15,5.88,5.88,0,0,0,2.43,3.24l.06,0c1.44.79,2.6.1,2.6-1.55a5.83,5.83,0,0,0-2.64-4.58"/>
            <path class="cls-8" d="M493.53,269c-1-.55-1.74-.11-1.75,1a3.84,3.84,0,0,0,1.74,3c1,.56,1.74.1,1.75-1a3.82,3.82,0,0,0-1.74-3"/>
            <path class="cls-16" d="M493.52,273a3.84,3.84,0,0,1-1.74-3c0-1.11.79-1.55,1.75-1a3.82,3.82,0,0,1,1.74,3c0,1.1-.78,1.55-1.75,1m0-5.05c-1.46-.84-2.65-.16-2.66,1.52a5,5,0,0,0,.5,2.07,6.51,6.51,0,0,0,.65,1.11,5,5,0,0,0,1.49,1.4c1.46.85,2.65.16,2.66-1.51a4.94,4.94,0,0,0-.41-1.89,6.47,6.47,0,0,0-.61-1.13,5.14,5.14,0,0,0-1.61-1.57"/>
            <path class="cls-8" d="M405.67,236c-1-.55-1.74-.11-1.75,1a3.83,3.83,0,0,0,1.74,3c1,.56,1.74.11,1.75-1a3.82,3.82,0,0,0-1.74-3"/>
            <path class="cls-16" d="M405.66,239.95a3.83,3.83,0,0,1-1.74-3c0-1.11.79-1.55,1.75-1a3.82,3.82,0,0,1,1.74,3c0,1.1-.78,1.54-1.75,1m0-5c-1.46-.84-2.65-.16-2.66,1.52a5.85,5.85,0,0,0,2.64,4.57c1.46.84,2.65.16,2.66-1.51a5.2,5.2,0,0,0-.6-2.29,6.43,6.43,0,0,0-.68-1.08,4.89,4.89,0,0,0-1.36-1.22"/>
            <path class="cls-8" d="M448.09,250.58c-1-.56-1.74-.11-1.75,1a3.83,3.83,0,0,0,1.74,3c1,.55,1.74.1,1.75-1a3.83,3.83,0,0,0-1.74-3"/>
            <path class="cls-16" d="M448.08,254.58a3.83,3.83,0,0,1-1.74-3c0-1.11.78-1.55,1.75-1a3.83,3.83,0,0,1,1.74,3c0,1.1-.79,1.55-1.75,1m0-5a1.91,1.91,0,0,0-1.83-.21,1.35,1.35,0,0,0-.55.54,2.38,2.38,0,0,0-.28,1.19,5.82,5.82,0,0,0,2.64,4.57c1,.59,1.92.43,2.36-.3a2.12,2.12,0,0,0,.27-.85,3.14,3.14,0,0,0,0-.36,5.83,5.83,0,0,0-2.64-4.57"/>
            <path class="cls-12" d="M405.82,182.86c-6.61-3.81-12-.75-12,6.84s5.32,16.84,11.92,20.65,12,.75,12-6.84-5.32-16.84-11.92-20.65"/>
            <polyline class="cls-17" points="403.35 280.25 397.05 276.61 397.04 282.7 403.33 286.34 403.35 280.25"/>
            <path class="cls-15" d="M427.95,295.49,410.12,285.2c-1-.56-1.74-.1-1.75,1a3.82,3.82,0,0,0,1.74,3l17.82,10.29c1,.56,1.74.11,1.75-1a3.83,3.83,0,0,0-1.74-3"/>
            <polyline class="cls-19" points="403.31 293.82 397.01 290.19 397 296.28 403.29 299.91 403.31 293.82"/>
            <path class="cls-15" d="M427.91,309.07l-17.82-10.29c-1-.56-1.74-.11-1.75,1a3.83,3.83,0,0,0,1.74,3l17.82,10.29c1,.56,1.74.1,1.75-1a3.82,3.82,0,0,0-1.74-3"/>
            <polyline class="cls-16" points="403.27 307.39 396.98 303.75 396.96 309.84 403.25 313.48 403.27 307.39"/>
            <path class="cls-15" d="M427.87,322.64,410,312.35c-1-.56-1.74-.11-1.75,1a3.82,3.82,0,0,0,1.74,3l17.82,10.29c1,.56,1.74.11,1.75-1a3.82,3.82,0,0,0-1.74-3"/>
            <polyline class="cls-16" points="451.6 308.1 445.3 304.47 445.28 310.56 451.58 314.19 451.6 308.1"/>
            <path class="cls-15" d="M476.2,323.35l-17.82-10.29c-1-.56-1.74-.1-1.75,1a3.82,3.82,0,0,0,1.74,3l17.82,10.29c1,.56,1.74.11,1.75-1a3.83,3.83,0,0,0-1.74-3"/>
            <polyline class="cls-16" points="451.56 321.68 445.26 318.05 445.25 324.13 451.54 327.77 451.56 321.68"/>
            <path class="cls-15" d="M476.16,336.93l-17.82-10.29c-1-.56-1.74-.11-1.75,1a3.83,3.83,0,0,0,1.74,3l17.82,10.29c1,.56,1.74.1,1.75-1a3.82,3.82,0,0,0-1.74-3"/>
            <polyline class="cls-19" points="451.52 335.25 445.23 331.61 445.21 337.7 451.5 341.33 451.52 335.25"/>
            <path class="cls-15" d="M476.12,350.49,458.3,340.2c-1-.56-1.74-.11-1.75,1a3.82,3.82,0,0,0,1.74,3l17.82,10.29c1,.56,1.74.11,1.75-1a3.82,3.82,0,0,0-1.74-3"/>
            <polyline class="cls-17" points="499.85 335.96 493.54 332.32 493.52 338.41 499.83 342.05 499.85 335.96"/>
            <path class="cls-15" d="M524.44,351.21l-17.83-10.3c-1-.55-1.74-.1-1.75,1a3.83,3.83,0,0,0,1.74,3l17.83,10.3c1,.55,1.74.11,1.75-1a3.84,3.84,0,0,0-1.74-3"/>
            <polyline class="cls-16" points="499.81 349.54 493.5 345.9 493.49 351.98 499.79 355.62 499.81 349.54"/>
            <path class="cls-15" d="M524.41,364.78l-17.83-10.3c-1-.55-1.74-.11-1.75,1a3.84,3.84,0,0,0,1.74,3l17.83,10.3c1,.55,1.74.1,1.75-1a3.83,3.83,0,0,0-1.74-3"/>
            <polyline class="cls-17" points="499.77 363.1 493.46 359.46 493.45 365.55 499.75 369.19 499.77 363.1"/>
            <path class="cls-15" d="M524.37,378.35l-17.83-10.3c-1-.55-1.74-.11-1.75,1a3.83,3.83,0,0,0,1.74,3l17.83,10.3c1,.55,1.74.11,1.75-1a3.83,3.83,0,0,0-1.74-3"/>
            <path class="cls-13" d="M336.79,312.2,316.2,300.3c-1-.55-1.74-.1-1.75,1a3.83,3.83,0,0,0,1.74,3l20.6,11.89c1,.55,1.74.11,1.75-1a3.84,3.84,0,0,0-1.74-3"/>
            <path class="cls-13" d="M336.77,319.5l-20.6-11.89c-1-.55-1.74-.1-1.75,1a3.83,3.83,0,0,0,1.74,3l20.6,11.89c1,.55,1.74.11,1.75-1a3.84,3.84,0,0,0-1.74-3"/>
            <path class="cls-13" d="M328.72,322.18l-12.57-7.26c-1-.55-1.74-.11-1.75,1a3.83,3.83,0,0,0,1.74,3l12.57,7.26c1,.56,1.74.11,1.75-1a3.82,3.82,0,0,0-1.74-3"/>
            <path class="cls-13" d="M336.81,304.9,316.22,293c-1-.55-1.74-.11-1.75,1a3.84,3.84,0,0,0,1.74,3l20.6,11.89c1,.55,1.74.1,1.75-1a3.83,3.83,0,0,0-1.74-3"/>
            <path class="cls-13" d="M382.21,338.42l-20.59-11.89c-1-.56-1.74-.1-1.75,1a3.82,3.82,0,0,0,1.74,3l20.59,11.89c1,.56,1.74.11,1.75-1a3.83,3.83,0,0,0-1.74-3"/>
            <path class="cls-13" d="M382.19,345.73,361.6,333.84c-1-.56-1.74-.1-1.75,1a3.82,3.82,0,0,0,1.74,3l20.59,11.89c1,.56,1.74.11,1.75-1a3.83,3.83,0,0,0-1.74-3"/>
            <path class="cls-13" d="M374.15,348.41l-12.57-7.26c-1-.56-1.74-.11-1.75,1a3.82,3.82,0,0,0,1.74,3l12.57,7.26c1,.56,1.74.11,1.75-1a3.82,3.82,0,0,0-1.74-3"/>
            <path class="cls-13" d="M382.23,331.12l-20.59-11.89c-1-.56-1.74-.11-1.75,1a3.83,3.83,0,0,0,1.74,3l20.59,11.89c1,.56,1.74.1,1.75-1a3.82,3.82,0,0,0-1.74-3"/>
            <path class="cls-13" d="M427.64,364.65,407,352.75c-1-.55-1.74-.1-1.75,1a3.83,3.83,0,0,0,1.74,3l20.6,11.89c1,.56,1.74.11,1.75-1a3.83,3.83,0,0,0-1.74-3"/>
            <path class="cls-13" d="M427.62,372,407,360.06c-1-.55-1.74-.1-1.75,1a3.83,3.83,0,0,0,1.74,3L427.61,376c1,.56,1.74.11,1.75-1a3.83,3.83,0,0,0-1.74-3"/>
            <path class="cls-13" d="M419.57,374.63,407,367.37c-1-.55-1.74-.11-1.75,1a3.83,3.83,0,0,0,1.74,3l12.57,7.26c1,.56,1.74.11,1.75-1a3.82,3.82,0,0,0-1.74-3"/>
            <path class="cls-13" d="M427.66,357.35l-20.6-11.89c-1-.55-1.74-.11-1.75,1a3.84,3.84,0,0,0,1.74,3l20.6,11.89c1,.56,1.74.1,1.75-1a3.82,3.82,0,0,0-1.74-3"/>
            <path class="cls-13" d="M473.06,390.87,452.47,379c-1-.56-1.74-.1-1.75,1a3.82,3.82,0,0,0,1.74,3L473,394.87c1,.56,1.74.11,1.75-1a3.83,3.83,0,0,0-1.74-3"/>
            <path class="cls-13" d="M473,398.18l-20.59-11.89c-1-.56-1.74-.1-1.75,1a3.82,3.82,0,0,0,1.74,3L473,402.18c1,.56,1.74.11,1.75-1a3.83,3.83,0,0,0-1.74-3"/>
            <path class="cls-13" d="M465,400.86l-12.57-7.26c-1-.56-1.74-.11-1.75,1a3.82,3.82,0,0,0,1.74,3L465,404.86c1,.56,1.74.11,1.75-1a3.82,3.82,0,0,0-1.74-3"/>
            <path class="cls-13" d="M473.08,383.57l-20.59-11.89c-1-.56-1.74-.11-1.75,1a3.83,3.83,0,0,0,1.74,3l20.59,11.89c1,.56,1.74.1,1.75-1a3.82,3.82,0,0,0-1.74-3"/>
            <path class="cls-13" d="M518.48,417.1,497.9,405.21c-1-.56-1.74-.1-1.75,1a3.82,3.82,0,0,0,1.74,3l20.59,11.89c1,.56,1.74.11,1.75-1a3.83,3.83,0,0,0-1.74-3"/>
            <path class="cls-13" d="M518.46,424.4l-20.59-11.89c-1-.56-1.74-.1-1.75,1a3.82,3.82,0,0,0,1.74,3l20.59,11.89c1,.56,1.74.11,1.75-1a3.83,3.83,0,0,0-1.74-3"/>
            <path class="cls-13" d="M510.42,427.08l-12.57-7.26c-1-.56-1.74-.11-1.75,1a3.82,3.82,0,0,0,1.74,3l12.57,7.26c1,.55,1.74.11,1.75-1a3.83,3.83,0,0,0-1.74-3"/>
            <path class="cls-13" d="M518.5,409.8l-20.59-11.89c-1-.56-1.74-.11-1.75,1a3.83,3.83,0,0,0,1.74,3l20.59,11.89c1,.56,1.74.1,1.75-1a3.82,3.82,0,0,0-1.74-3"/>
            <path class="cls-20" d="M285.43,117.45l-20.6-11.89c-1-.55-1.74-.1-1.75,1a3.83,3.83,0,0,0,1.74,3l20.6,11.89c1,.55,1.74.11,1.75-1a3.84,3.84,0,0,0-1.74-3"/>
            <path class="cls-20" d="M285.37,138.33l-20.6-11.89c-1-.55-1.74-.1-1.75,1a3.83,3.83,0,0,0,1.74,3l20.6,11.89c1,.55,1.74.11,1.75-1a3.84,3.84,0,0,0-1.74-3"/>
            <path class="cls-20" d="M285.31,159.21l-20.6-11.89c-1-.55-1.74-.11-1.75,1a3.84,3.84,0,0,0,1.74,3l20.6,11.89c1,.55,1.74.1,1.75-1a3.83,3.83,0,0,0-1.74-3"/>
            <path class="cls-20" d="M285.25,180.09l-20.6-11.89c-1-.55-1.74-.11-1.75,1a3.83,3.83,0,0,0,1.74,3l20.6,11.89c1,.55,1.74.11,1.75-1a3.83,3.83,0,0,0-1.74-3"/>
            <path class="cls-8" d="M501,206.09c-2.36-1.36-4.27-.27-4.28,2.44a9.37,9.37,0,0,0,4.25,7.38c2.35,1.36,4.27.27,4.28-2.45a9.38,9.38,0,0,0-4.25-7.37"/>
            <path class="cls-8" d="M513.69,213.43c-2.35-1.36-4.27-.27-4.28,2.44a9.39,9.39,0,0,0,4.25,7.38c2.36,1.36,4.28.27,4.29-2.44a9.39,9.39,0,0,0-4.26-7.37"/>
            <path class="cls-8" d="M526.41,220.77c-2.35-1.36-4.27-.27-4.28,2.44a9.39,9.39,0,0,0,4.25,7.38c2.36,1.36,4.28.27,4.29-2.44a9.39,9.39,0,0,0-4.26-7.37"/>
          </g>
        </g>
      </g>
      <g>
        <path class="cls-8" d="M405.27,193.59a2.51,2.51,0,0,0-2.5-.23l-3.13,1.78a1.87,1.87,0,0,0-.87,1.11c-.08.26-.13.56-.19.84v.64a11.35,11.35,0,0,0,.23,1.23,7.8,7.8,0,0,0,2.83,4.22l.16.13.59.34.14,0a2.18,2.18,0,0,0,1.9.08c.79-.42,1.55-.87,2.33-1.31l.42-.25c.08,0,.11-.13.07-.28a.54.54,0,0,0-.24-.32l0,0a7.8,7.8,0,0,1-1.64-1.3l-.11-.09a.17.17,0,0,0-.19,0l-.1,0-1.76,1a1.11,1.11,0,0,1-1.09-.11,3.18,3.18,0,0,1-1.23-1.46c-.41-.92-.32-1.79.22-2.1l3-1.7.25-.13a1.11,1.11,0,0,1,1,.14,3,3,0,0,1,1,1l.16.24a1.93,1.93,0,0,0,.6.58.79.79,0,0,0,.67.1c.33-.13.43-.66.21-1.24a5.06,5.06,0,0,0-.82-1.34,6.55,6.55,0,0,0-1.83-1.66"/>
        <path class="cls-8" d="M410.1,190.83a2.48,2.48,0,0,0-2.32-.3c-.94.47-1.84,1-2.75,1.54-.09,0-.14.14-.08.3a.55.55,0,0,0,.26.32h0a7,7,0,0,1,1.53,1.21.85.85,0,0,0,.18.15.27.27,0,0,0,.3,0l1.78-1a1.12,1.12,0,0,1,1.09.11,2.9,2.9,0,0,1,1,1c.66,1.06.67,2.2,0,2.57L408.86,198c-.32.18-.63.37-1,.53a1,1,0,0,1-1-.12,2.87,2.87,0,0,1-.45-.33,5,5,0,0,1-.74-.95,1.89,1.89,0,0,0-.6-.57.71.71,0,0,0-.72-.08c-.34.22-.39.85-.05,1.48a6.88,6.88,0,0,0,2.35,2.63c1.06.59,1.85.8,2.64.36,1.08-.59,2.14-1.22,3.21-1.83a1.5,1.5,0,0,0,.26-.18c1.09-1,1-3.17-.16-5.36a7.14,7.14,0,0,0-2.56-2.76"/>
      </g>
    </g>
    <g>
      <path class="cls-21" d="M256.62,136.54s2.78,5.13,2.54,7.66-5.08,8.49-5.08,8.49-5.23-2.41-5.23-3.07,1-8.11,1-8.11Z"/>
      <path class="cls-22" d="M228.5,143.6s13.69-12.3,14.87-12.84,12.2,2,12.2,2,14-5.18,15.73-4.35,1.5,4.25-1.6,5.85-12.09,6.85-13.05,8.34-1.93,7.06-1.93,7.06,6-4.49,8.56-5.35,4.71,1.5,3.64,2.67-12,8.66-15.19,9.41-13.87,0-13.87,0l-7.1,3.64Z"/>
      <path class="cls-23" d="M124,116.34a95.33,95.33,0,0,1,18.36,7.75c8.3,4.82,45.09,28.55,45.09,28.55l40.6-11.13s8.3,3.65,9.65,8.76,0,12.06,0,12.06-48.91,19.74-55.64,20.52-34.42-11.1-37.74-11.55l-3.32-.45Z"/>
      <path class="cls-24" d="M105.12,459.81l2.24,22.88s2.92,2.69,11.67,4.49,19.74,10.85,34.32,10.7,20.19-7.33,17.72-10.7a34.47,34.47,0,0,0-14.13-12.11c-8.3-4-20.41-10.1-23.11-13.24s-2.69-4.49-2.69-4.49l-24.9,2.47"/>
      <path class="cls-24" d="M60.05,487.18s.95,15.4,0,25.83-1.9,29.38,15.64,34.83,18.72-18.25,16.82-27.49-6.61-20.1-5.91-24.86S60.05,487.18,60.05,487.18Z"/>
      <g>
        <path class="cls-23" d="M145.5,268.68s2,37.91-3.14,74.7-7.63,56.53-9,69.77,0,44.87,0,44.87-2.92,9.65-12.34,11-17.5-6.51-17.5-6.51-6.23-44-5.58-63.71,3.79-75.38,3.79-75.38l.9-39.48,33.65-15.25Z"/>
        <g>
          <path class="cls-13" d="M124.4,282.71c-10.06,9.45-21.31,18.05-34.37,22.5-10.08,3.43-21.4,4.09-31.42.86.61,22.28,2.46,69-1.95,97.66-4.94,32.08-1.57,84.9-1.57,84.9s.22,6.19,17,8.88,18.4-9.87,18.4-9.87,1.79-43.07,3.81-56.08,4.94-28.27,11.67-55.19,15.93-83.68,17.27-86.15c1.23-2.25,16.05-21.64,18.67-25.05C136.13,271,130.43,277,124.4,282.71Z"/>
          <path class="cls-23" d="M139.44,256.12l-9.65,1.35-71.56,24,.22,17.7c0,1.9.08,4.24.15,6.91,10,3.22,21.35,2.57,31.42-.86,13.06-4.45,24.31-13,34.37-22.5,6-5.66,11.73-11.68,17.55-17.55l.4-.52Z"/>
        </g>
        <path class="cls-23" d="M54.19,262.4l-4.09,23.94a5.08,5.08,0,0,0,2.75,5.42c4.74,2.35,13.67,6.34,21.55,7.36,11.36,1.48,7.17-31.33,7.17-31.33l2.1-17.6Z"/>
        <g>
          <path class="cls-13" d="M144.3,173.59c.3-19.55-.6-38.86-5.08-45.8s-20.51-11-20.51-11l-39,5.54a13.18,13.18,0,0,1-.72,1.59l29.28-4.09s12.79,2.58,18.84,12S139.44,169,139.44,169l-6.21,6.69h6.21l-8.08,53.49-14.9,10.32L94.35,196.92,99,188.81l-9.85,3.26S76.85,161,71.69,147.8a39.9,39.9,0,0,1-2.76-11.23c-.66.64-1.36,1.3-2.1,2-10.76,9.8-24.82,24.67-28.11,35s5.08,83,7.78,88.43,15.66-.82,33.2-2.32l-5.28,39.41s19.64,3.29,30.11,1.79,13.6-3.59,13.6-3.59l-1.33-22.43,16.45-12,1.79,24,11.85-16.75S144,193.14,144.3,173.59Z"/>
          <path class="cls-23" d="M89.19,192.08,99,188.81l-4.69,8.11,22.12,42.59,14.9-10.32,8.08-53.49h-6.21l6.21-6.69s-6.28-27.76-12.34-37.19-18.84-12-18.84-12L79,123.92c-1.14,2.23-3.93,6.71-10,12.65a39.9,39.9,0,0,0,2.76,11.23C76.85,161,89.19,192.08,89.19,192.08Z"/>
        </g>
        <g>
          <path class="cls-25" d="M129.44,166.9a100.57,100.57,0,0,0-7.21-25.39,83.9,83.9,0,0,1,1.43,14.32l-12.42-3-7.42,14.39-8.3-3.4c8.16,14.74,14.22,37.27,15.72,56.18,1.65,20.81,5.54,54.91,5.54,54.91l16.45-12S131.92,186.65,129.44,166.9Z"/>
          <path class="cls-8" d="M115.59,127.89l-1.42-.1a23.53,23.53,0,0,1,2.31,1.67C115.92,128.45,115.59,127.89,115.59,127.89Z"/>
          <path class="cls-8" d="M119.77,133.45a11.82,11.82,0,0,0-3.31-4,132.26,132.26,0,0,1,5.76,12.06A36.82,36.82,0,0,0,119.77,133.45Z"/>
          <path class="cls-26" d="M111.24,152.81l12.42,3a83.9,83.9,0,0,0-1.43-14.32,132.26,132.26,0,0,0-5.76-12.06,23.53,23.53,0,0,0-2.31-1.67l-33.72-2.31a22.64,22.64,0,0,0-5.83,8c-1.79,4.59,9,11.75,18.4,26.12.86,1.32,1.7,2.75,2.52,4.24l8.3,3.4Z"/>
        </g>
        <path class="cls-27" d="M79.69,130.71s1.2,5.94,8.26,13.24,23.29,8.86,23.29,8.86.94-9.36-.18-12.23-7.18-8.41-7.18-8.41l-14.81-8.08L81.57,126Z"/>
        <path class="cls-21" d="M79.88,127.89s5-.2,9.87,7.31A27.84,27.84,0,0,0,105,146.88c3.7,1.11,7.07-2.93,6.06-6.29s-5.94-12.7-5.94-12.7S90,119.94,89.64,119.83s-9.76,4.6-9.76,4.6Z"/>
        <g>
          <path class="cls-27" d="M109.94,127.07a23.33,23.33,0,0,1-2.7-4.11c-1.05-2.68-.1-5.71,1-8.35,2.17-5,5-9.73,7.27-14.71a42.29,42.29,0,0,0,3.14-9.48c-7.66,2-18.16,4.83-18.3,4.92s-10.84,13.86-10.84,13.86-7.18,3.34-7.85,8.27,1.2,7,4.49,8.23a11.73,11.73,0,0,0,5.09,1s4.41,6.13,9.87,8.23c3.56,1.37,10.32,2.63,15.18,3.22a17.93,17.93,0,0,1-3-4.05C112.14,131.83,111.4,129.26,109.94,127.07Z"/>
          <path class="cls-22" d="M121.72,138.49c2.09-.45,8.08-21.84,7.7-22.88s-2.54-1.35-2.84-4.11.37-16.08.22-18.69.07-4.41-.22-4.41c-.11,0-3.54.89-7.87,2a42.29,42.29,0,0,1-3.14,9.48c-2.26,5-5.1,9.69-7.27,14.71-1.14,2.64-2.1,5.67-1,8.35a23.33,23.33,0,0,0,2.7,4.11c1.45,2.18,2.19,4.76,3.42,7.07a17.93,17.93,0,0,0,3,4.05A24.33,24.33,0,0,0,121.72,138.49Z"/>
        </g>
        <g>
          <path class="cls-12" d="M81.46,101.21c3.9-2.92,7.46-6.39,11.83-8.54,9.89-4.88,22.4-2.27,31.91-7.85a12.53,12.53,0,0,0,3.18-2.62,4.85,4.85,0,0,0-2.77-3.68C119.77,75.67,110.5,66.4,91.66,68S70.87,85.4,70.87,85.4s-2.09,1.5-3.89,10c-.51,2.44.31,6.39,1.75,10.77C73.34,106.33,77.73,104,81.46,101.21Z"/>
          <path class="cls-24" d="M125.19,84.82c-9.51,5.58-22,3-31.91,7.85-4.37,2.15-7.92,5.63-11.83,8.54-3.72,2.78-8.11,5.12-12.72,5,3.58,10.9,11,24.52,11,24.52s4-2.09,4.49-4.34-3.14-5.23,0-9.27,11.07,3.74,13.16,4.94,1.79-1.5,1.94-4,5.68-4.19,7.18-6.73.75-5.68,1.2-8.23,2.84-6,2.84-6a15.1,15.1,0,0,0,7.33-1.2,71.08,71.08,0,0,0,8.82-5.68s2.37-4.39,1.72-8A12.53,12.53,0,0,1,125.19,84.82Z"/>
        </g>
        <path class="cls-23" d="M75.73,226.05l-4-26.25s7.4,17.72,11.89,21.09S99,225.38,99,225.38l-22.86,4.49Z"/>
      </g>
      <path class="cls-24" d="M162.37,235.31l-31.05,19.1a.9.9,0,0,1-1.35-1l13.37-54.24a5.67,5.67,0,0,1,2.53-3.47l31.05-19.1a.9.9,0,0,1,1.35,1l-13.37,54.24A5.67,5.67,0,0,1,162.37,235.31Z"/>
      <path class="cls-22" d="M153.24,218.53a4.64,4.64,0,0,0-.11-3.54c-.94-1.64-9.49-6.09-10.77-5.86s-17.15,13.58-17.15,13.58l-6,2.28,1.44,18.34,9.84-4.69s13-.23,16.14-2.93,8.08-13.7,7.85-15.81C154.36,219.41,153.9,219,153.24,218.53Zm-6.67-2.37,2.22.23a6.82,6.82,0,0,1,3.22,1.49A32.55,32.55,0,0,0,146.57,216.15Z"/>
      <path class="cls-13" d="M105.45,223.92,120.89,221A33.1,33.1,0,0,1,124,232.9a40.46,40.46,0,0,1-2.06,13.35l-17.72,5.38Z"/>
    </g>
    <g>
      <g>
        <path class="cls-26" d="M177.14,227.08S171,231.23,169.39,250s.5,60.36,5.61,66.54,29.26,2.22,29.26,2.22l-3.87-40.07Z"/>
        <path class="cls-28" d="M185.63,626.17c2.21,1.72,5.29,2,7.46,3.76,3.33,2.71,3.4,7.9,6.23,11.12s7.54,3.69,11.8,3.9c14.38.69,29.32.6,42.43-5.34,4.63-2.1,9.37-5.53,10-10.57.53-4-1.79-8-4.9-10.53s-6.95-4.09-10.64-5.74-7.43-3.55-10-6.66c-1.91-2.3-3.12-5.19-5.41-7.12s-5.3-2.62-8.25-3a49.59,49.59,0,0,0-27.56,4.48c-3,1.42-6.35,3.07-8.72,5.41-2,2-3,4.7-4.05,7.24C182.33,617.31,181.53,623,185.63,626.17Z"/>
        <path class="cls-24" d="M226.77,607.58S237.24,610.3,239,613s-1.85,5.46-1.85,5.46h-9.77Z"/>
        <path class="cls-24" d="M196.18,591.63a40.1,40.1,0,0,0-5.19,9.89c-1.48,4.82,2.6,25.35,2.6,25.35a11.26,11.26,0,0,0,3.83,1.48l1.61.12,1.24-9.77.74,1.48,2.1,14.35a13.83,13.83,0,0,0,3,1.73c1.36.49,3.71-.62,3.71-.62l2.6-9.28s8.41,9.4,15.34,10.76,17.69-2.1,21.89-6.8,3.59-10.51-3.59-11.87-12.12-2.72-12.12-2.72l-23-18.3L199,590.89Z"/>
        <path class="cls-27" d="M196.18,571.1s1.73,11.87,1.48,15.09a14.52,14.52,0,0,1-1.48,5.44,12.82,12.82,0,0,1,6.18,4.21c2.47,3.22,5.69,6.68,9.89,7.67s5.69-1.15,5.69-1.15l-3.46-27.54Z"/>
        <path class="cls-22" d="M212,584.7s.25,10.88,0,13.11-2.23,6.18-2.23,6.18,3.22,1,6.68,6.18,9.15,9.4,13.11,10.88,9.4,0,9.4,0-4.7-6.43-6.18-9.15-3.46-10.64-3.71-14.35,2-14.59,2-14.59Z"/>
        <path class="cls-24" d="M261.73,358.54l3.79,19L210.28,579.18s-3.48,1.76-5.11,1.48-6.6-16.82-6.6-16.82l-1.48-87.23L188,382.94l3.13-38.42Z"/>
        <path class="cls-12" d="M186,344.52s-6.93,19.13-6.27,38.92,8.9,58.71,9.89,67.94-3.95,33-6.76,48.81,8.74,72.23,8.74,72.23,5.61,6.93,9.56,7.59l4,.66s-7.59-64.31-4.29-81.13,5.94-21.44,6.6-40.57.33-36.94-4.95-48.48-8.8-19.13-8.8-19.13l17.71,21.29s2.49,28.18,3.22,52.59-3.22,38.59-6.52,64,1.65,58.71,1.65,58.71,6.27,5.28,10.88,5.61,12.2-6.93,12.2-6.93,3.63-46.83,9.89-74.87,19.13-55.76,22.76-85.1,0-49.94,0-49.94-35.62,10.73-53.1,0S186,344.52,186,344.52Z"/>
        <g>
          <path class="cls-8" d="M222.24,339.74c2.69.76,5.91,1,7.95-1,1.56-1.46,2-3.75,2.16-5.88.87-9.78-1.29-19.55-2.21-29.33s-.42-20.28,5.06-28.43a18,18,0,0,1,7.44-6.61,18.4,18.4,0,0,1,11.87-.5,24,24,0,0,1,4.46,1.64,83.68,83.68,0,0,0-13.7-14.19L212.35,236l-30-8.91S166,237.17,171.45,252.75,190,300.25,191,311.62a39.19,39.19,0,0,1-1.26,12.5l23.52,11.8A51.43,51.43,0,0,0,222.24,339.74Z"/>
          <path class="cls-26" d="M265.44,284.41c-.36-5-3.11-10.18-6.46-14.75a24,24,0,0,0-4.46-1.64,18.4,18.4,0,0,0-11.87.5,18,18,0,0,0-7.44,6.61c-5.48,8.15-6,18.65-5.06,28.43s3.08,19.55,2.21,29.33c-.19,2.13-.61,4.41-2.16,5.88-2,1.91-5.26,1.72-7.95,1a51.43,51.43,0,0,1-9-3.82l-23.52-11.8c-1.84,7.51-5.06,14.53-6.66,18.67-2.47,6.43,24.24,29.93,39.58,33.39s41.56-11.87,41.56-16.08-8.41-31.91-7.17-42.05S266.43,298.27,265.44,284.41Z"/>
        </g>
        <path class="cls-26" d="M179.61,232s-2.1,8.53,7.79,16,35.74,3.22,45.51,4.21,12.37,3.34,12.37,3.34L229,238Z"/>
        <g>
          <path class="cls-22" d="M239.59,188.57s.12,11.5,0,12.62.74,4.58.74,7.54-3.22,17.93-4.58,18.3-7.42-1.24-7.42-1.24L237,189.68Z"/>
          <g>
            <path class="cls-29" d="M209.19,201.59c6-1.14,12-3.25,16.53-7.3a24,24,0,0,0,6.66-24.95,22,22,0,0,0-1.82-4c-6-3.5-15.18-5.67-29.35-4.88-12.53.7-22.84,12.37-23.33,23-.19,4-1.42,9.58-2.88,15A63,63,0,0,0,209.19,201.59Z"/>
            <path class="cls-30" d="M233.28,216.89c1.73-6.93,8.41-23.5,7.92-33.39-.29-5.76-2.32-13.25-10.64-18.13a22,22,0,0,1,1.82,4,24,24,0,0,1-6.66,24.95c-4.56,4-10.54,6.16-16.53,7.3A63,63,0,0,1,175,198.51c-2.44,9-5.53,17.64-5.53,17.64a24.22,24.22,0,0,0,4.21,15.34c5.19,7.67,12.62,13.6,27.54,14.84S234,239.4,234,239.4,231.55,223.81,233.28,216.89Z"/>
          </g>
        </g>
      </g>
      <g>
        <polygon class="cls-21" points="301.64 276.07 295.24 274.44 288.82 293.63 298.9 293.63 304.15 287.69 301.64 276.07"/>
        <g>
          <g>
            <path class="cls-12" d="M279.19,310.7l-25.93-17a4,4,0,0,1-1.54-4.83l19.52-49.45a4,4,0,0,1,5.93-1.89l25.93,17a4,4,0,0,1,1.54,4.83l-19.52,49.45A4,4,0,0,1,279.19,310.7Z"/>
            <path class="cls-8" d="M301.84,256.45l-25.93-17a1.71,1.71,0,0,0-2.53.8l-19.52,49.45a1.72,1.72,0,0,0,.65,2.06l25.93,17A1.71,1.71,0,0,0,283,308l19.52-49.45A1.72,1.72,0,0,0,301.84,256.45Z"/>
          </g>
          <g>
            <path class="cls-13" d="M278.39,258.14a3.19,3.19,0,0,1-4.37,1.19c-2-1.15-3-4.17-2.2-6.73s3-3.71,5-2.55a4.69,4.69,0,0,1,1.8,2l1.19-.84a6.42,6.42,0,0,0-2.48-2.82c-2.72-1.57-5.78,0-6.85,3.46s.28,7.58,3,9.15c2.19,1.27,4.61.46,6-1.73Z"/>
            <path class="cls-17" d="M279.06,256.77a5.07,5.07,0,0,1-.66,1.37l1.13,1.12a6.91,6.91,0,0,0,.82-1.74,8.87,8.87,0,0,0-.51-6.32l-1.19.84A6.54,6.54,0,0,1,279.06,256.77Z"/>
          </g>
          <g>
            <path class="cls-13" d="M268.74,274.17c-2-1.15-3-4.17-2.2-6.73s2.92-3.63,4.87-2.62l.45-1.69c-2.66-1.37-5.6.16-6.63,3.56s.28,7.58,3,9.15a4.47,4.47,0,0,0,1.31.49l.16-1.79A3.3,3.3,0,0,1,268.74,274.17Z"/>
            <path class="cls-17" d="M272.08,263.22c-.07,0-.14-.06-.21-.09l-.45,1.69.16.07c2,1.15,3,4.17,2.2,6.73-.66,2.15-2.36,3.29-4.07,2.91l-.16,1.79c2.32.5,4.63-1,5.52-4C276.13,268.88,274.78,264.79,272.08,263.22Z"/>
          </g>
          <g>
            <path class="cls-26" d="M296.61,262.11,284,253.79a.55.55,0,0,0-.82.36,1,1,0,0,0,.28,1.08l12.61,8.32a.55.55,0,0,0,.82-.35,1,1,0,0,0-.29-1.09"/>
            <path class="cls-26" d="M295.39,265.4l-12.61-8.32a.55.55,0,0,0-.82.36,1,1,0,0,0,.28,1.08l12.61,8.32a.55.55,0,0,0,.82-.35,1,1,0,0,0-.29-1.09"/>
            <path class="cls-26" d="M287.8,264.49l-6.24-4.12a.55.55,0,0,0-.82.36,1,1,0,0,0,.28,1.08l6.24,4.12a.55.55,0,0,0,.82-.36,1,1,0,0,0-.28-1.09"/>
          </g>
          <g>
            <path class="cls-26" d="M290.92,277.89l-12.61-8.32a.55.55,0,0,0-.82.36,1,1,0,0,0,.28,1.08l12.61,8.32a.55.55,0,0,0,.82-.35,1,1,0,0,0-.29-1.09"/>
            <path class="cls-26" d="M289.69,281.18l-12.61-8.32a.55.55,0,0,0-.82.36,1,1,0,0,0,.28,1.08l12.61,8.32a.55.55,0,0,0,.82-.35,1,1,0,0,0-.29-1.09"/>
            <path class="cls-26" d="M282.1,280.27l-6.24-4.12a.55.55,0,0,0-.82.36,1,1,0,0,0,.28,1.08l6.24,4.12a.55.55,0,0,0,.82-.36,1,1,0,0,0-.28-1.09"/>
          </g>
          <g>
            <path class="cls-26" d="M283.28,291.45l-19.87-13.15a.55.55,0,0,0-.82.36,1,1,0,0,0,.28,1.08l19.87,13.15a.55.55,0,0,0,.82-.35,1,1,0,0,0-.29-1.09"/>
            <path class="cls-26" d="M282.06,294.75,262.19,281.6a.55.55,0,0,0-.82.36,1,1,0,0,0,.28,1.08l19.87,13.15a.55.55,0,0,0,.82-.35,1,1,0,0,0-.29-1.09"/>
            <path class="cls-26" d="M274.46,293.84,261,284.9a.55.55,0,0,0-.82.36,1,1,0,0,0,.28,1.08l13.49,8.94a.55.55,0,0,0,.82-.36,1,1,0,0,0-.28-1.09"/>
          </g>
          <path class="cls-26" d="M293.72,255.56l-13-8.5a2.49,2.49,0,0,1-1-3l1.7-4.31a1.66,1.66,0,0,1,2.45-.78l13,8.5a2.49,2.49,0,0,1,1,3l-1.7,4.31A1.66,1.66,0,0,1,293.72,255.56Z"/>
        </g>
        <path class="cls-22" d="M307.47,284.15c-.34-3.31-5.82-17.22-5.82-17.22l-2.31,5.84,1.72,9-7.85,6.48s-1.41,1.36-1.41-.59a82.6,82.6,0,0,0-.55-8.27c-.32-2.56-2.88-5-3.8-1.67s-1.26,8-1.94,11.16-.69,14.56-.69,14.56-16.34,15.31-20.45,19.31-10.51,11.43-9.94,20.45,9.6,13.83,16.45,8.91,25.48-42.51,25.48-42.51S306,301.49,307,298,307.81,287.46,307.47,284.15Z"/>
      </g>
      <path class="cls-8" d="M249.18,267.3c13.56-3.33,15.82,17.61,18.14,34.43s7.71,28.94,7.61,33.89-2.46,13.65-10.06,17.71-12.91-.39-15.7-3.36-10.87-44-12.89-47.49S232,271.53,249.18,267.3Z"/>
    </g>
  </g>
</svg>
