<svg width="28" height="24" viewBox="0 0 28 24" fill="none" xmlns="http://www.w3.org/2000/svg">
<path d="M25.9998 0C26.3535 0 26.6926 0.140476 26.9426 0.390524C27.1927 0.640573 27.3332 0.979711 27.3332 1.33333V22.6667C27.3332 23.0203 27.1927 23.3594 26.9426 23.6095C26.6926 23.8595 26.3535 24 25.9998 24H1.99984C1.64622 24 1.30708 23.8595 1.05703 23.6095C0.80698 23.3594 0.666504 23.0203 0.666504 22.6667V1.33333C0.666504 0.979711 0.80698 0.640573 1.05703 0.390524C1.30708 0.140476 1.64622 0 1.99984 0H25.9998ZM24.6665 2.66667H3.33317V21.3333H24.6665V2.66667ZM10.5318 6.66667L14.7972 17.3333H11.9238L11.3905 16H7.00384L6.4705 17.3333H3.5985L7.86517 6.66667H10.5318ZM23.3332 6.66667V17.3333H19.3332C18.2723 17.3333 17.2549 16.9119 16.5047 16.1618C15.7546 15.4116 15.3332 14.3942 15.3332 13.3333C15.3332 12.2725 15.7546 11.2551 16.5047 10.5049C17.2549 9.75476 18.2723 9.33333 19.3332 9.33333H20.6652L20.6665 6.66667H23.3332ZM20.6665 12H19.3332C18.9933 12.0004 18.6665 12.1305 18.4193 12.3638C18.1722 12.5971 18.0235 12.9159 18.0036 13.2552C17.9837 13.5944 18.0941 13.9285 18.3122 14.1891C18.5303 14.4497 18.8397 14.6172 19.1772 14.6573L19.3332 14.6667H20.6665V12ZM9.1985 10.5133L8.06917 13.3333H10.3252L9.1985 10.5133Z" fill="black"/>
</svg>
