<svg width="28" height="26" viewBox="0 0 28 26" fill="none" xmlns="http://www.w3.org/2000/svg">
<path d="M11.3332 0H16.6665C19.4955 0 22.2086 1.12381 24.209 3.12419C26.2094 5.12458 27.3332 7.83769 27.3332 10.6667C27.3332 13.4956 26.2094 16.2088 24.209 18.2091C22.2086 20.2095 19.4955 21.3333 16.6665 21.3333V26C9.99984 23.3333 0.666504 19.3333 0.666504 10.6667C0.666504 7.83769 1.79031 5.12458 3.7907 3.12419C5.79109 1.12381 8.50419 0 11.3332 0ZM13.9998 18.6667H16.6665C17.7171 18.6667 18.7574 18.4597 19.728 18.0577C20.6986 17.6557 21.5805 17.0664 22.3234 16.3235C23.0662 15.5807 23.6555 14.6987 24.0575 13.7281C24.4596 12.7575 24.6665 11.7172 24.6665 10.6667C24.6665 9.61609 24.4596 8.5758 24.0575 7.6052C23.6555 6.63459 23.0662 5.75268 22.3234 5.00981C21.5805 4.26694 20.6986 3.67767 19.728 3.27563C18.7574 2.87359 17.7171 2.66667 16.6665 2.66667H11.3332C9.21144 2.66667 7.17661 3.50952 5.67632 5.00981C4.17603 6.5101 3.33317 8.54494 3.33317 10.6667C3.33317 15.48 6.61584 18.6213 13.9998 21.9733V18.6667Z" fill="black"/>
</svg>
