<svg width="36" height="36" viewBox="0 0 36 36" fill="none" xmlns="http://www.w3.org/2000/svg">
<path d="M5.5 0C2.48023 0 0 2.48023 0 5.5V30.5C0 33.5198 2.48023 36 5.5 36H30.5C33.5198 36 36 33.5198 36 30.5V5.5C36 2.48023 33.5198 0 30.5 0H5.5ZM5.5 3H30.5C31.8982 3 33 4.10177 33 5.5V30.5C33 31.8982 31.8982 33 30.5 33H24V23H27.625C28.129 23 28.5552 22.623 28.6172 22.123L28.9922 19.123C29.0282 18.839 28.938 18.5539 28.748 18.3379C28.559 18.1229 28.287 18 28 18H24V14.5C24 13.397 24.897 12.5 26 12.5H28C28.552 12.5 29 12.053 29 11.5V8.125C29 7.607 28.6048 7.17491 28.0898 7.12891C28.0308 7.12391 26.62 7 24.834 7C20.427 7 18 9.61619 18 14.3672V18H14C13.448 18 13 18.447 13 19V22C13 22.553 13.448 23 14 23H18V33H5.5C4.10177 33 3 31.8982 3 30.5V5.5C3 4.10177 4.10177 3 5.5 3Z" fill="black"/>
</svg>
