<svg width="36" height="36" viewBox="0 0 36 36" fill="none" xmlns="http://www.w3.org/2000/svg">
<path d="M10 0C4.486 0 0 4.486 0 10V26C0 31.514 4.486 36 10 36H26C31.514 36 36 31.514 36 26V10C36 4.486 31.514 0 26 0H10ZM10 4H26C29.308 4 32 6.692 32 10V26C32 29.308 29.308 32 26 32H10C6.692 32 4 29.308 4 26V10C4 6.692 6.692 4 10 4ZM28 6C27.4696 6 26.9609 6.21071 26.5858 6.58579C26.2107 6.96086 26 7.46957 26 8C26 8.53043 26.2107 9.03914 26.5858 9.41421C26.9609 9.78929 27.4696 10 28 10C28.5304 10 29.0391 9.78929 29.4142 9.41421C29.7893 9.03914 30 8.53043 30 8C30 7.46957 29.7893 6.96086 29.4142 6.58579C29.0391 6.21071 28.5304 6 28 6ZM18 8C12.486 8 8 12.486 8 18C8 23.514 12.486 28 18 28C23.514 28 28 23.514 28 18C28 12.486 23.514 8 18 8ZM18 12C21.308 12 24 14.692 24 18C24 21.308 21.308 24 18 24C14.692 24 12 21.308 12 18C12 14.692 14.692 12 18 12Z" fill="black"/>
</svg>
