<svg width="28" height="26" viewBox="0 0 28 26" fill="none" xmlns="http://www.w3.org/2000/svg">
<path d="M3.33322 17.3333H24.6666V2.66667H3.33322V17.3333ZM15.3332 20V22.6667H20.6666V25.3333H7.33322V22.6667H12.6666V20H1.98923C1.81414 19.999 1.64098 19.9634 1.47968 19.8953C1.31837 19.8272 1.17209 19.7279 1.04921 19.6032C0.926339 19.4785 0.829289 19.3307 0.763626 19.1684C0.697962 19.0061 0.664976 18.8324 0.666558 18.6573V1.34267C0.666558 0.601333 1.27323 0 1.98923 0H26.0106C26.7412 0 27.3332 0.598667 27.3332 1.34267V18.6573C27.3332 19.3987 26.7266 20 26.0106 20H15.3332Z" fill="black"/>
</svg>
