<svg width="42" height="38" viewBox="0 0 42 38" fill="none" xmlns="http://www.w3.org/2000/svg">
<path d="M21 0C9 0 9 12 9 12V14C9 14 8.955 13.9961 8.875 13.9961C8.195 13.9961 5 14.1371 5 16.7891C5 19.8791 8.39369 20 8.92969 20H9C9 22 5.69535 24.3408 3.52735 24.8828C1.50735 25.6668 1.026 27.0055 1 28.0195C0.984002 28.6255 1.13094 29.1147 1.21094 29.3047C1.96494 31.0747 4.20444 31.9883 6.39844 31.9883C6.47444 34.8663 8.55141 36 9.94141 36C11.5294 36 13.2109 35.2227 13.2109 35.2227C13.2929 35.2907 15.85 38 21 38C26.15 38 28.709 35.2907 28.793 35.2227C28.793 35.2227 30.4686 36 32.0586 36C33.4486 36 35.5256 34.8663 35.6016 31.9883C37.7956 31.9883 40.0351 31.0747 40.7891 29.3047C40.8691 29.1147 41.016 28.6255 41 28.0195C40.974 27.0055 40.4927 25.6668 38.4727 24.8828C36.3047 24.3408 33 22 33 20H33.0703C33.6063 20 37 19.8791 37 16.7891C37 14.1371 33.805 13.9961 33.125 13.9961C33.045 13.9961 33 14 33 14V12C33 12 33 0 21 0ZM21 4C28.306 4 28.97 10.146 29 12V20C29 23.728 32.494 26.5943 35.418 27.9883H31.7031L31.6016 31.8867C31.6016 31.9067 31.5977 31.9253 31.5977 31.9453C31.1937 31.8633 30.7288 31.7097 30.4688 31.5938L28.2109 30.5508L26.2734 32.1172L26.1133 32.25L25.9883 32.3672C25.8163 32.5332 24.198 34 21 34C17.802 34 16.1818 32.5352 16.0078 32.3672L15.8555 32.2188L15.7227 32.1133L13.793 30.5859L11.5547 31.582C11.2787 31.706 10.8083 31.8633 10.4023 31.9453C10.4003 31.9273 10.3984 31.9067 10.3984 31.8867L10.2969 27.9922H6.58203C9.50603 26.5962 13 23.728 13 20V12C13 10.664 13.386 4 21 4Z" fill="black"/>
</svg>
