<svg width="36" height="36" viewBox="0 0 36 36" fill="none" xmlns="http://www.w3.org/2000/svg">
<path d="M4 0C1.794 0 0 1.794 0 4V32C0 34.206 1.794 36 4 36H32C34.206 36 36 34.206 36 32V4C36 1.794 34.206 0 32 0H4ZM4 4H32L32.0039 32H4V4ZM23.1328 8.22656C20.3888 8.22656 18.1602 10.4572 18.1602 13.1992C18.1602 13.7132 18.332 14.0564 18.332 14.3984C14.218 14.2284 10.6187 12.1718 8.21875 9.25781C7.70475 9.94381 7.53125 10.7983 7.53125 11.6562C7.53125 13.3702 8.38972 14.7453 9.76172 15.9453C8.90572 15.7733 8.21725 15.5998 7.53125 15.2578C7.53125 17.6578 9.24466 19.5446 11.4727 20.0586C10.9587 20.2306 10.6156 20.2305 10.1016 20.2305C9.92956 20.2305 9.58419 20.0586 9.24219 20.0586C9.92819 21.9446 11.6431 23.4844 13.8711 23.4844C12.1571 24.6844 9.92722 25.543 7.69922 25.543H6.5C8.728 26.913 11.301 27.7734 14.043 27.7734C23.129 27.7734 28.1016 20.2288 28.1016 13.7148V13.0273C28.9596 12.3413 29.8139 11.4851 30.5039 10.4531C29.4759 10.9691 28.6178 11.1405 27.5898 11.3125C28.6178 10.6285 29.4744 9.77031 29.8164 8.57031C28.9584 9.08431 27.9305 9.59753 26.7305 9.76953C25.8725 8.74153 24.5048 8.22656 23.1328 8.22656Z" fill="black"/>
</svg>
