<svg width="40" height="40" viewBox="0 0 40 40" fill="none" xmlns="http://www.w3.org/2000/svg">
<path d="M20.0234 0C9.01144 0 0.0469688 8.95675 0.0429688 19.9688C0.0409687 23.4888 0.962937 26.9251 2.71094 29.9531L0 40L10.4648 37.5273C13.3828 39.1193 16.6677 39.955 20.0117 39.957H20.0195C31.0295 39.957 39.9901 30.9983 39.9961 19.9883C40.0001 14.6503 37.9243 9.63147 34.1523 5.85547C30.3803 2.08147 25.3674 0.002 20.0234 0ZM20.0195 4C24.2915 4.002 28.3062 5.66759 31.3242 8.68359C34.3422 11.7036 36.0001 15.7164 35.9961 19.9844C35.9921 28.7924 28.8276 35.957 20.0156 35.957C17.3496 35.955 14.7088 35.2856 12.3828 34.0156L11.0352 33.2812L9.54688 33.6328L5.60938 34.5625L6.57031 30.9922L7.00391 29.3906L6.17578 27.9531C4.77978 25.5371 4.04097 22.7747 4.04297 19.9688C4.04697 11.1648 11.2135 4 20.0195 4ZM12.9531 10.75C12.6191 10.75 12.0791 10.875 11.6211 11.375C11.1631 11.873 9.87109 13.0792 9.87109 15.5352C9.87109 17.9912 11.6602 20.3652 11.9102 20.6992C12.1582 21.0312 15.3635 26.2305 20.4375 28.2305C24.6535 29.8925 25.5098 29.5645 26.4258 29.4805C27.3418 29.3985 29.3809 28.2754 29.7969 27.1094C30.2129 25.9434 30.2138 24.9404 30.0898 24.7344C29.9658 24.5264 29.6328 24.4023 29.1328 24.1523C28.6348 23.9023 26.1807 22.6973 25.7227 22.5312C25.2647 22.3652 24.9297 22.2812 24.5977 22.7812C24.2657 23.2812 23.3115 24.4024 23.0195 24.7344C22.7275 25.0684 22.4375 25.1133 21.9375 24.8633C21.4375 24.6113 19.8299 24.0828 17.9219 22.3828C16.4379 21.0608 15.4365 19.4297 15.1445 18.9297C14.8545 18.4317 15.1172 18.1582 15.3672 17.9102C15.5912 17.6862 15.8633 17.3272 16.1133 17.0352C16.3613 16.7432 16.4473 16.5351 16.6133 16.2031C16.7793 15.8711 16.6943 15.5781 16.5703 15.3281C16.4463 15.0781 15.4753 12.613 15.0312 11.625C14.6573 10.795 14.2622 10.7757 13.9062 10.7617C13.6163 10.7497 13.2851 10.75 12.9531 10.75Z" fill="black"/>
</svg>
