<svg width="48" height="34" viewBox="0 0 48 34" fill="none" xmlns="http://www.w3.org/2000/svg">
<path d="M18.1635 23.9426L18.8093 25.2966C17.4638 25.9382 15.9098 24.9571 15.9098 23.467V10.5556C15.9098 9.04408 17.5046 8.06426 18.8529 8.74756L18.1635 23.9426ZM18.1635 23.9426L18.8093 25.2965L31.9346 19.0365C31.9347 19.0365 31.9347 19.0365 31.9348 19.0365C33.4535 18.3122 33.4795 16.1595 31.9784 15.3989C31.9784 15.3989 31.9784 15.3989 31.9784 15.3989L18.853 8.74761L18.1635 23.9426ZM30.6435 16.3286L30.6433 16.3287L30.6435 16.3286ZM9.96899 1.51704H38.031C42.7083 1.51704 46.5 5.30873 46.5 9.98603V24.0141C46.5 28.6914 42.7083 32.4831 38.031 32.4831H9.96899C5.29169 32.4831 1.5 28.6914 1.5 24.0141V9.98603C1.5 5.30873 5.29169 1.51704 9.96899 1.51704Z" stroke="black" stroke-width="3"/>
</svg>
