<svg id="Layer_1" data-name="Layer 1" xmlns="http://www.w3.org/2000/svg" xmlns:xlink="http://www.w3.org/1999/xlink" viewBox="0 0 906 738">
  <defs>
    <style>
      .cls-1 {
        fill: none;
      }

      .cls-2 {
        fill: #3a273b;
        opacity: 0.3;
      }

      .cls-3 {
        isolation: isolate;
      }

      .cls-4 {
        fill: #a6c8e3;
      }

      .cls-5 {
        fill: #d4eeff;
      }

      .cls-6 {
        fill: #e6f4ff;
      }

      .cls-7 {
        fill: #ff92a2;
      }

      .cls-8 {
        fill: #cd2546;
      }

      .cls-9 {
        fill: #ff4558;
      }

      .cls-10, .cls-13 {
        fill: #fff;
      }

      .cls-10 {
        opacity: 0.31;
      }

      .cls-11 {
        fill: #c1d8ea;
      }

      .cls-12 {
        fill: url(#linear-gradient);
      }

      .cls-14, .cls-19 {
        fill: #2b4f6f;
      }

      .cls-14 {
        opacity: 0.85;
      }

      .cls-15 {
        fill: #febc5b;
      }

      .cls-16 {
        fill: #ffd69f;
      }

      .cls-17 {
        clip-path: url(#clip-path);
      }

      .cls-18 {
        fill: #996a7d;
      }

      .cls-20, .cls-37 {
        fill: #664057;
      }

      .cls-21 {
        clip-path: url(#clip-path-2);
      }

      .cls-22 {
        clip-path: url(#clip-path-3);
      }

      .cls-23 {
        clip-path: url(#clip-path-4);
      }

      .cls-24 {
        fill: url(#linear-gradient-2);
      }

      .cls-25 {
        fill: #4f2e43;
      }

      .cls-26 {
        fill: #825667;
      }

      .cls-27 {
        opacity: 0.51;
      }

      .cls-28 {
        fill: url(#radial-gradient);
      }

      .cls-29 {
        fill: #d1e2f2;
      }

      .cls-30 {
        fill: #55aced;
      }

      .cls-31 {
        fill: #22435b;
      }

      .cls-32 {
        fill: #ff4557;
      }

      .cls-33 {
        fill: #fefdfd;
      }

      .cls-34 {
        fill: #ec1e52;
      }

      .cls-35 {
        fill: #66c6cd;
      }

      .cls-36 {
        fill: #68c8cf;
      }

      .cls-37 {
        opacity: 0.84;
      }

      .cls-38 {
        fill: #e5f6fd;
      }

      .cls-39 {
        fill: #333;
      }

      .cls-40 {
        fill: #3f6383;
      }

      .cls-41 {
        fill: #c56a58;
      }

      .cls-42 {
        fill: #3b4a51;
      }

      .cls-43 {
        fill: #fcb9a9;
      }

      .cls-44 {
        fill: #eea99a;
      }

      .cls-45 {
        fill: #52789d;
      }

      .cls-46 {
        fill: #8bb3d7;
      }

      .cls-47 {
        fill: #e2988a;
      }

      .cls-48 {
        fill: #e5826e;
      }

      .cls-49 {
        fill: #ff8194;
      }

      .cls-50 {
        fill: #ffaebe;
      }

      .cls-51 {
        fill: #fff1ee;
      }

      .cls-52 {
        fill: url(#linear-gradient-3);
      }

      .cls-53 {
        fill: #ff7b8e;
      }

      .cls-54 {
        fill: #ffb8c6;
      }
    </style>
    <linearGradient id="linear-gradient" x1="137.401" y1="500.591" x2="506.383" y2="190.106" gradientUnits="userSpaceOnUse">
      <stop offset="0" stop-color="#96ea8b"/>
      <stop offset="1" stop-color="#1cb1c8"/>
    </linearGradient>
    <clipPath id="clip-path">
      <path class="cls-1" d="M196.5,228.557l-27.581-51.114s-43.212-2.366-44.258-2.13S110.6,205.13,110.6,205.13l6.723,38.5,31.938-18.439,15.143,20.09a7.064,7.064,0,0,0,.122,2.917l3.751,12.308c.751,2.8,3.139,4.042,5.329,2.777l6.577-3.8c2.007-1.159,3.135-4.015,2.739-6.636l4.823.544Z"/>
    </clipPath>
    <clipPath id="clip-path-2">
      <path class="cls-1" d="M426.248,97.034,398.667,45.92s-43.212-2.366-44.258-2.13-14.061,29.817-14.061,29.817l6.723,38.5,31.938-18.439,15.143,20.09a7.064,7.064,0,0,0,.122,2.917l3.751,12.308c.751,2.8,3.139,4.042,5.329,2.777l6.577-3.8c2.007-1.159,3.135-4.015,2.739-6.636l4.823.544Z"/>
    </clipPath>
    <clipPath id="clip-path-3">
      <path class="cls-1" d="M273.622,184.314,246.041,133.2s-43.212-2.366-44.258-2.13-14.061,29.817-14.061,29.817l6.723,38.5,31.938-18.439,15.143,20.09a7.064,7.064,0,0,0,.122,2.917l3.751,12.308c.751,2.8,3.139,4.042,5.329,2.777l6.577-3.8c2.007-1.159,3.135-4.015,2.739-6.636l4.823.544Z"/>
    </clipPath>
    <clipPath id="clip-path-4">
      <path class="cls-1" d="M348.038,141.277,320.457,90.163S277.245,87.8,276.2,88.033s-14.061,29.817-14.061,29.817l6.723,38.5L300.8,137.914,315.942,158a7.064,7.064,0,0,0,.122,2.917l3.751,12.308c.751,2.8,3.139,4.042,5.329,2.777l6.577-3.8c2.007-1.159,3.135-4.015,2.739-6.636l4.823.544Z"/>
    </clipPath>
    <linearGradient id="linear-gradient-2" x1="812.865" y1="521.754" x2="538.364" y2="-93.508" gradientUnits="userSpaceOnUse">
      <stop offset="0" stop-color="#ff4557"/>
      <stop offset="1" stop-color="#f0b851"/>
    </linearGradient>
    <radialGradient id="radial-gradient" cx="730.347" cy="254.922" r="45.104" gradientUnits="userSpaceOnUse">
      <stop offset="0" stop-color="#fdc666"/>
      <stop offset="0.177" stop-color="#f57431"/>
      <stop offset="0.413" stop-color="#e84656"/>
      <stop offset="0.592" stop-color="#b93395"/>
      <stop offset="0.823" stop-color="#8542b6"/>
      <stop offset="1" stop-color="#5b57c9"/>
    </radialGradient>
    <linearGradient id="linear-gradient-3" x1="493.707" y1="615.339" x2="794.381" y2="603.313" xlink:href="#linear-gradient"/>
  </defs>
  <title>Kaykushal 6</title>
  <g>
    <g>
      <g>
        <g>
          <path class="cls-2" d="M35,509.9s151.43,78.845,152.613,79.082c.83.166,43.422.1,68.806.044a68.857,68.857,0,0,0,34.5-9.352L603.112,397.9a8.362,8.362,0,0,0-.2-14.566l-74.542-40.7L145.257,419.785Z"/>
          <g class="cls-3">
            <path class="cls-4" d="M448.079,57.742l7.74,6.89c-2.152-1.916-6.323-1.528-11.705,1.58l-7.74-6.89C441.756,56.214,445.926,55.825,448.079,57.742Z"/>
            <path class="cls-5" d="M35,509.9l-7.74-6.89c-1.774-1.58-2.289-4.6-1.163-8.855l7.74,6.89C32.706,505.3,33.221,508.321,35,509.9Z"/>
            <polygon class="cls-5" points="33.832 501.045 26.093 494.155 70.478 326.307 78.218 333.197 33.832 501.045"/>
            <polygon class="cls-5" points="78.218 333.197 70.478 326.307 83.524 276.973 91.263 283.864 78.218 333.197"/>
            <polygon class="cls-4" points="112.733 257.534 104.994 250.644 436.374 59.321 444.113 66.211 112.733 257.534"/>
            <path class="cls-6" d="M91.263,283.864l-7.74-6.89c2.4-9.085,12.012-20.869,21.47-26.33l7.74,6.89C103.275,262.995,93.666,274.779,91.263,283.864Z"/>
            <path class="cls-4" d="M444.113,66.211c9.458-5.461,15.175-2.525,12.772,6.56L443.84,122.105,399.455,289.953c-2.613,9.879-13.072,22.711-23.364,28.653L47.732,508.184c-10.292,5.942-16.512,2.741-13.9-7.139L78.218,333.2l13.046-49.334c2.4-9.085,12.012-20.869,21.47-26.33Z"/>
          </g>
          <g>
            <g class="cls-3">
              <path class="cls-5" d="M193.46,587.388l-7.514-1.2c-6.522-1.046-12.167-6.532-14.489-15.183l7.514,1.2C181.293,580.857,186.938,586.343,193.46,587.388Z"/>
              <polygon class="cls-5" points="178.971 572.206 171.457 571.001 111.544 347.806 119.058 349.011 178.971 572.206"/>
              <polygon class="cls-6" points="119.058 349.011 111.544 347.806 477.166 136.714 484.68 137.919 119.058 349.011"/>
              <path class="cls-6" d="M484.68,137.919l59.913,223.194c3.529,13.145-1.952,28.612-12.244,34.554L203.991,585.246c-10.292,5.942-21.491.105-25.02-13.04L119.058,349.011Z"/>
            </g>
            <g class="cls-3">
              <path class="cls-7" d="M446.237,57.151l7.514,1.2a14.567,14.567,0,0,0-9.674,1.968l-7.514-1.2A14.567,14.567,0,0,1,446.237,57.151Z"/>
              <polygon class="cls-7" points="112.696 251.647 105.182 250.442 436.563 59.119 444.077 60.324 112.696 251.647"/>
              <polygon class="cls-8" points="119.058 349.011 111.544 347.806 93.931 282.195 101.445 283.4 119.058 349.011"/>
              <path class="cls-7" d="M101.445,283.4l-7.514-1.2c-3.241-12.072,1.793-26.292,11.251-31.753l7.514,1.2C103.238,257.108,98.2,271.328,101.445,283.4Z"/>
              <path class="cls-9" d="M444.077,60.324c9.458-5.461,19.751-.089,22.991,11.983l17.612,65.611L119.058,349.011,101.445,283.4c-3.241-12.072,1.793-26.292,11.251-31.753Z"/>
            </g>
          </g>
        </g>
        <path class="cls-10" d="M183.7,573.152,123.79,349.958l-17.612-65.612c-3.241-12.072,1.793-26.292,11.251-31.753L448.809,61.271a15.008,15.008,0,0,1,7.771-2.129,14.111,14.111,0,0,0-12.5,1.182L112.7,251.647c-9.458,5.461-14.492,19.68-11.251,31.753l17.612,65.612,59.913,223.194c2.54,9.464,9.057,15.138,16.348,15.358C190.049,585.565,185.677,580.5,183.7,573.152Z"/>
      </g>
      <g>
        <path class="cls-7" d="M336.026,181.745,257.467,227.1c-4.176,2.411-6.394,8.684-4.964,14.01s5.968,7.7,10.144,5.287l78.559-45.356c4.17-2.408,6.4-8.676,4.964-14.01s-5.974-7.695-10.144-5.287"/>
        <path class="cls-11" d="M198.193,385.745,179.615,396.47c-6.195,3.576-9.489,12.887-7.367,20.791l3.1,11.54c2.124,7.912,8.86,11.423,15.054,7.846l18.578-10.726c6.188-3.573,9.491-12.879,7.367-20.791l-3.1-11.54c-2.122-7.9-8.866-11.419-15.054-7.847"/>
        <path class="cls-11" d="M213.3,442.016,194.72,452.742c-6.195,3.576-9.489,12.887-7.367,20.791l3.1,11.54c2.124,7.912,8.86,11.423,15.054,7.846l18.578-10.726c6.188-3.573,9.491-12.879,7.367-20.791l-3.1-11.54c-2.122-7.9-8.866-11.419-15.054-7.846"/>
        <path class="cls-11" d="M228.4,498.287l-18.578,10.726c-6.195,3.576-9.491,12.879-7.367,20.791l3.1,11.54c2.122,7.9,8.86,11.423,15.054,7.846l18.578-10.726c6.188-3.573,9.489-12.887,7.367-20.791l-3.1-11.54c-2.124-7.912-8.866-11.419-15.054-7.846"/>
        <path class="cls-11" d="M251.907,354.733l-18.572,10.722c-6.195,3.576-9.489,12.887-7.367,20.791l3.1,11.54c2.124,7.912,8.86,11.423,15.054,7.846l18.572-10.722c6.195-3.576,9.5-12.883,7.373-20.794l-3.1-11.54c-2.122-7.9-8.866-11.419-15.06-7.843"/>
        <path class="cls-11" d="M267.012,411l-18.572,10.722c-6.195,3.576-9.489,12.887-7.367,20.791l3.1,11.54c2.124,7.912,8.86,11.423,15.054,7.846L277.8,451.181c6.195-3.576,9.5-12.882,7.373-20.794l-3.1-11.54c-2.122-7.9-8.866-11.419-15.06-7.843"/>
        <path class="cls-11" d="M282.117,467.276,263.546,478c-6.195,3.576-9.491,12.879-7.367,20.791l3.1,11.54c2.122,7.9,8.86,11.423,15.054,7.846L292.9,507.453c6.195-3.576,9.495-12.89,7.373-20.794l-3.1-11.54c-2.124-7.912-8.866-11.419-15.06-7.843"/>
        <path class="cls-11" d="M320.732,379.989l-18.578,10.726c-6.188,3.573-9.489,12.887-7.367,20.791l3.1,11.54c2.124,7.912,8.866,11.419,15.054,7.846l18.578-10.726c6.195-3.576,9.491-12.879,7.367-20.791l-3.1-11.54c-2.122-7.9-8.86-11.423-15.054-7.846"/>
        <path class="cls-11" d="M335.838,436.26,317.26,446.986c-6.188,3.573-9.491,12.879-7.367,20.791l3.1,11.54c2.122,7.9,8.866,11.419,15.054,7.846l18.578-10.726c6.195-3.576,9.489-12.887,7.367-20.791l-3.1-11.54c-2.124-7.912-8.86-11.423-15.054-7.846"/>
        <path class="cls-11" d="M344.244,236.439l-18.578,10.726c-6.188,3.573-9.491,12.879-7.367,20.791l3.1,11.54c2.122,7.9,8.866,11.419,15.054,7.846l18.578-10.726c6.195-3.576,9.489-12.887,7.367-20.791l-3.1-11.54c-2.124-7.912-8.86-11.423-15.054-7.846"/>
        <path class="cls-11" d="M374.453,348.974,355.875,359.7c-6.188,3.573-9.489,12.887-7.367,20.791l3.1,11.54c2.124,7.912,8.866,11.419,15.054,7.846l18.578-10.726c6.195-3.576,9.491-12.879,7.367-20.791l-3.1-11.54c-2.122-7.9-8.86-11.423-15.054-7.846"/>
        <path class="cls-11" d="M389.558,405.245,370.98,415.971c-6.188,3.573-9.491,12.879-7.367,20.791l3.1,11.54c2.122,7.9,8.866,11.419,15.054,7.846l18.578-10.726c6.195-3.576,9.489-12.887,7.367-20.791l-3.1-11.54c-2.124-7.912-8.86-11.423-15.054-7.846"/>
        <path class="cls-11" d="M397.964,205.423l-18.578,10.726c-6.188,3.573-9.491,12.879-7.367,20.791l3.1,11.54c2.122,7.9,8.866,11.419,15.054,7.846L408.749,245.6c6.195-3.576,9.489-12.887,7.367-20.791l-3.1-11.54c-2.124-7.912-8.86-11.423-15.054-7.846"/>
        <path class="cls-11" d="M428.173,317.958,409.6,328.684c-6.188,3.573-9.489,12.887-7.367,20.791l3.1,11.54c2.124,7.912,8.866,11.419,15.054,7.846l18.578-10.726c6.195-3.576,9.491-12.879,7.367-20.791l-3.1-11.54c-2.122-7.9-8.86-11.423-15.054-7.846"/>
        <path class="cls-11" d="M451.685,174.408l-18.578,10.726c-6.188,3.573-9.491,12.879-7.367,20.791l3.1,11.54c2.122,7.9,8.866,11.419,15.054,7.846l18.578-10.726c6.195-3.576,9.489-12.887,7.367-20.791l-3.1-11.54c-2.124-7.912-8.86-11.423-15.054-7.846"/>
        <path class="cls-11" d="M466.788,230.671,448.21,241.4c-6.188,3.573-9.489,12.887-7.367,20.791l3.1,11.54c2.124,7.912,8.866,11.419,15.054,7.846l18.578-10.726c6.195-3.576,9.491-12.879,7.367-20.791l-3.1-11.54c-2.122-7.9-8.86-11.423-15.054-7.847"/>
        <path class="cls-11" d="M481.893,286.943l-18.578,10.726c-6.188,3.573-9.489,12.887-7.367,20.791l3.1,11.54c2.124,7.912,8.866,11.419,15.054,7.846l18.578-10.726c6.195-3.576,9.491-12.879,7.367-20.791l-3.1-11.54c-2.122-7.9-8.86-11.423-15.054-7.846"/>
        <path class="cls-12" d="M297.835,374.621c-6.188,3.573-12.93.066-15.054-7.846l-3.1-11.54c-2.122-7.9,1.178-17.218,7.367-20.791l18.578-10.726c6.195-3.576,12.932-.058,15.054,7.847l3.1,11.54c2.124,7.912-1.172,17.215-7.367,20.791l-18.578,10.726m53.72-31.015c-6.188,3.573-12.93.066-15.054-7.846l-3.1-11.54c-2.122-7.9,1.178-17.218,7.367-20.791L359.347,292.7c6.195-3.576,12.932-.058,15.054,7.847l3.1,11.54c2.124,7.912-1.172,17.215-7.367,20.791l-18.578,10.726m53.72-31.015c-6.188,3.573-12.93.066-15.054-7.846l-3.1-11.54c-2.122-7.9,1.178-17.218,7.367-20.791l18.578-10.726c6.195-3.576,12.932-.058,15.054,7.847l3.1,11.54c2.124,7.912-1.172,17.215-7.367,20.791L405.275,312.59m9.024-62.776-133.4,77.02c-8.038,4.641-12.319,16.723-9.565,26.982l5.526,20.586c2.754,10.259,11.5,14.818,19.54,10.178l133.4-77.02c8.038-4.641,12.313-16.719,9.559-26.978l-5.526-20.586c-2.754-10.258-11.5-14.822-19.534-10.181"/>
        <path class="cls-13" d="M305.627,323.717,287.05,334.443c-6.188,3.573-9.489,12.887-7.367,20.791l3.1,11.54c2.124,7.912,8.866,11.419,15.054,7.846l18.578-10.726c6.195-3.576,9.491-12.879,7.367-20.791l-3.1-11.54c-2.122-7.9-8.86-11.423-15.054-7.847"/>
        <path class="cls-13" d="M359.347,292.7,340.77,303.428c-6.188,3.573-9.489,12.887-7.367,20.791l3.1,11.54c2.124,7.912,8.866,11.419,15.054,7.846l18.578-10.726c6.195-3.576,9.491-12.879,7.367-20.791l-3.1-11.54c-2.122-7.9-8.86-11.423-15.054-7.847"/>
        <path class="cls-13" d="M413.067,261.687,394.49,272.412C388.3,275.985,385,285.3,387.123,293.2l3.1,11.54c2.124,7.912,8.866,11.419,15.054,7.846l18.578-10.726c6.195-3.576,9.491-12.879,7.367-20.791l-3.1-11.54c-2.122-7.9-8.86-11.423-15.054-7.847"/>
      </g>
      <path class="cls-14" d="M469.741,195.6c-8.771,5.064-13.437,18.247-10.432,29.442l1.969,7.336-11.934,20.88,17.249-1.082,1.969,7.336c3.007,11.2,12.547,16.175,21.318,11.111l26.829-15.49-20.139-75.023Z"/>
      <g>
        <path class="cls-15" d="M500.694,257.215c-2,1.154-4.179.018-4.864-2.535s.382-5.563,2.38-6.717l45.065-26.018c2-1.154,4.177-.025,4.864,2.535s-.382,5.563-2.38,6.717l-45.065,26.018m-4.082-15.206c-2,1.154-4.179.018-4.866-2.542s.382-5.563,2.38-6.717l67.128-38.756c2-1.157,4.179-.018,4.864,2.535s-.374,5.567-2.378,6.724l-67.128,38.756M492.528,226.8c-2,1.154-4.177.025-4.864-2.535s.382-5.563,2.38-6.717l67.128-38.756c2-1.157,4.179-.018,4.864,2.535s-.376,5.56-2.38,6.717L492.528,226.8m63.608-68.49L480.65,201.889c-8.771,5.064-13.437,18.247-10.432,29.442l1.969,7.336L454.8,260.179l22.7-1.715,1.969,7.336c3.007,11.2,12.547,16.175,21.318,11.111l75.486-43.582c8.771-5.064,13.439-18.24,10.432-29.442l-9.253-34.469c-3.005-11.2-12.547-16.175-21.318-11.111"/>
        <path class="cls-16" d="M557.173,178.788l-67.128,38.756c-2,1.154-3.065,4.165-2.38,6.717s2.865,3.689,4.864,2.535l67.128-38.756c2-1.157,3.067-4.158,2.38-6.717s-2.86-3.692-4.864-2.535"/>
        <path class="cls-16" d="M561.255,193.993,494.126,232.75c-2,1.154-3.065,4.165-2.38,6.717s2.867,3.7,4.866,2.542l67.128-38.756c2-1.157,3.065-4.165,2.378-6.724s-2.86-3.692-4.864-2.535"/>
        <path class="cls-16" d="M543.275,221.945,498.21,247.963c-2,1.154-3.067,4.158-2.38,6.717s2.865,3.689,4.864,2.535L545.758,231.2c2-1.154,3.065-4.165,2.38-6.717s-2.865-3.689-4.864-2.535"/>
      </g>
      <g>
        <path class="cls-8" d="M173.708,237.044l-6.577,3.8c-2.191,1.265-3.36,4.559-2.608,7.36l3.751,12.308c.751,2.8,3.139,4.042,5.329,2.778l6.577-3.8c2.193-1.266,3.359-4.562,2.608-7.36l-3.751-12.308c-.752-2.8-3.136-4.044-5.329-2.778"/>
        <g class="cls-17">
          <g class="cls-3">
            <path class="cls-18" d="M136.439,199.987l5.159-3c-4.053,2.355-6.569,7.358-6.589,14.46-.041,14.3,10.048,31.768,22.491,38.951l-5.159,3c-12.442-7.183-22.531-24.654-22.491-38.951C129.87,207.344,132.386,202.342,136.439,199.987Z"/>
            <path class="cls-19" d="M173.55,251.961l-5.159,3c-4.105,2.386-9.788,2.055-16.05-1.56l5.159-3C163.762,254.015,169.444,254.346,173.55,251.961Z"/>
            <path class="cls-18" d="M132.763,193.663l5.159-3c5.05-2.935,12.04-2.528,19.741,1.918l-5.159,3C144.8,191.135,137.814,190.728,132.763,193.663Z"/>
            <path class="cls-18" d="M177.223,258.287l-5.159,3c4.985-2.9,8.08-9.051,8.105-17.787.05-17.588-12.358-39.08-27.665-47.918l5.159-3c15.306,8.837,27.715,30.329,27.665,47.918C185.3,249.237,182.209,255.39,177.223,258.287Z"/>
            <path class="cls-20" d="M152.5,195.581c15.306,8.837,27.715,30.329,27.665,47.918S167.63,268.2,152.323,259.367s-27.715-30.333-27.665-47.917S137.2,186.746,152.5,195.581ZM152.34,253.4c12.442,7.183,22.6,1.4,22.638-12.9s-10.049-31.772-22.491-38.955-22.6-1.4-22.638,12.9S139.9,246.215,152.34,253.4"/>
          </g>
        </g>
      </g>
      <g>
        <path class="cls-8" d="M403.458,105.521l-6.577,3.8c-2.191,1.265-3.36,4.559-2.608,7.36l3.751,12.308c.751,2.8,3.139,4.042,5.329,2.778l6.577-3.8c2.193-1.266,3.359-4.562,2.608-7.36L408.787,108.3c-.752-2.8-3.136-4.044-5.329-2.778"/>
        <g class="cls-21">
          <g class="cls-3">
            <path class="cls-18" d="M366.189,68.464l5.159-3c-4.053,2.355-6.569,7.358-6.589,14.46-.041,14.3,10.048,31.768,22.491,38.951l-5.159,3c-12.442-7.183-22.531-24.654-22.491-38.951C359.62,75.822,362.137,70.82,366.189,68.464Z"/>
            <path class="cls-19" d="M403.3,120.438l-5.159,3c-4.105,2.386-9.788,2.055-16.05-1.56l5.159-3C393.512,122.493,399.195,122.824,403.3,120.438Z"/>
            <path class="cls-18" d="M362.514,62.14l5.159-3c5.05-2.935,12.04-2.528,19.741,1.918l-5.159,3C374.554,59.612,367.564,59.206,362.514,62.14Z"/>
            <path class="cls-18" d="M406.974,126.765l-5.159,3c4.985-2.9,8.08-9.051,8.105-17.787.05-17.588-12.358-39.08-27.665-47.918l5.159-3c15.306,8.837,27.715,30.329,27.665,47.918C415.054,117.714,411.959,123.868,406.974,126.765Z"/>
            <path class="cls-20" d="M382.255,64.059c15.306,8.837,27.715,30.329,27.665,47.918s-12.539,24.705-27.846,15.868-27.715-30.333-27.665-47.917S366.952,55.223,382.255,64.059Zm-.164,57.817c12.442,7.183,22.6,1.4,22.638-12.9S394.68,77.207,382.238,70.024s-22.6-1.4-22.638,12.9,10.048,31.768,22.491,38.951"/>
          </g>
        </g>
      </g>
      <g>
        <path class="cls-8" d="M250.832,192.8l-6.577,3.8c-2.191,1.265-3.36,4.559-2.608,7.36l3.751,12.308c.751,2.8,3.139,4.042,5.329,2.778l6.577-3.8c2.193-1.266,3.359-4.562,2.608-7.36l-3.751-12.308c-.752-2.8-3.136-4.044-5.329-2.778"/>
        <g class="cls-22">
          <g class="cls-3">
            <path class="cls-18" d="M213.563,155.744l5.159-3c-4.053,2.355-6.569,7.358-6.589,14.46-.041,14.3,10.048,31.768,22.491,38.951l-5.159,3c-12.442-7.183-22.531-24.654-22.491-38.951C206.994,163.1,209.51,158.1,213.563,155.744Z"/>
            <path class="cls-19" d="M250.674,207.718l-5.159,3c-4.105,2.386-9.788,2.055-16.05-1.56l5.159-3C240.886,209.773,246.569,210.1,250.674,207.718Z"/>
            <path class="cls-18" d="M209.888,149.42l5.159-3c5.05-2.935,12.04-2.528,19.741,1.918l-5.159,3C221.927,146.892,214.938,146.486,209.888,149.42Z"/>
            <path class="cls-18" d="M254.348,214.045l-5.159,3c4.985-2.9,8.08-9.051,8.105-17.787.05-17.588-12.358-39.08-27.665-47.918l5.159-3c15.306,8.837,27.715,30.329,27.665,47.918C262.428,204.994,259.333,211.147,254.348,214.045Z"/>
            <path class="cls-20" d="M229.629,151.339c15.306,8.837,27.715,30.329,27.665,47.918s-12.539,24.705-27.846,15.868-27.715-30.333-27.665-47.917S214.325,142.5,229.629,151.339Zm-.164,57.817c12.442,7.183,22.6,1.4,22.638-12.9s-10.049-31.772-22.491-38.955-22.6-1.4-22.638,12.9,10.048,31.768,22.491,38.951"/>
          </g>
        </g>
      </g>
      <g>
        <path class="cls-8" d="M325.248,149.764l-6.577,3.8c-2.191,1.265-3.36,4.559-2.608,7.36l3.751,12.308c.751,2.8,3.139,4.042,5.329,2.778l6.577-3.8c2.193-1.266,3.359-4.562,2.608-7.36l-3.751-12.308c-.752-2.8-3.136-4.044-5.329-2.778"/>
        <g class="cls-23">
          <g class="cls-3">
            <path class="cls-18" d="M287.98,112.707l5.159-3c-4.053,2.355-6.569,7.358-6.589,14.46-.041,14.3,10.048,31.768,22.491,38.951l-5.159,3c-12.442-7.183-22.531-24.654-22.491-38.951C281.411,120.065,283.927,115.062,287.98,112.707Z"/>
            <path class="cls-19" d="M325.091,164.681l-5.159,3c-4.105,2.386-9.788,2.055-16.05-1.56l5.159-3C315.3,166.736,320.985,167.067,325.091,164.681Z"/>
            <path class="cls-18" d="M284.3,106.383l5.159-3c5.05-2.935,12.04-2.528,19.741,1.918l-5.159,3C296.344,103.855,289.354,103.448,284.3,106.383Z"/>
            <path class="cls-18" d="M328.764,171.008l-5.159,3c4.985-2.9,8.08-9.051,8.105-17.787.05-17.588-12.358-39.08-27.665-47.918l5.159-3c15.306,8.837,27.715,30.329,27.665,47.918C336.844,161.957,333.749,168.11,328.764,171.008Z"/>
            <path class="cls-20" d="M304.045,108.3c15.306,8.837,27.715,30.329,27.665,47.918s-12.539,24.705-27.846,15.868S276.149,141.754,276.2,124.17,288.742,99.466,304.045,108.3Zm-.164,57.817c12.442,7.183,22.6,1.4,22.638-12.9s-10.049-31.772-22.491-38.955-22.6-1.4-22.638,12.9,10.048,31.768,22.491,38.951"/>
          </g>
        </g>
      </g>
      <path d="M579.028,377.854l.353-.012-.015-.025Z"/>
      <g>
        <g>
          <path class="cls-2" d="M876.586,529.081,730.5,444.74c-5.911-3.413-23.779-9.465-29.645-5.975L632.235,479.7a7.785,7.785,0,0,0-3.746,7.838l-.081-.04s-24.289,9.049-18.124,18.249,12.643,9.018,12.643,9.018-33.984,27.557-22.282,37.849c12.8,11.257,25.834,1.681,29.18-5.372,2.578-5.434,26.3-25.262,37.053-34.079l102.552,59.206a57.371,57.371,0,0,0,58.022-.382L876.675,542.6A7.834,7.834,0,0,0,876.586,529.081Z"/>
          <path class="cls-24" d="M795.325,123.039,655.554,42.347c-6.948-4.011-13.243-4.384-17.788-1.742l-15.985,9.29.046-.024c-4.512,2.6-7.313,8.147-7.336,16.049l-.113,43.087-.886,337.971c-.045,15.863,11.111,35.177,24.916,43.147l139.771,80.693c7.147,4.126,13.6,4.4,18.17,1.5-.127.08-.25.167-.38.243l15.985-9.29c4.485-2.607,7.266-8.149,7.288-16.027l.837-319.48.161-61.577C820.285,150.331,809.13,131.01,795.325,123.039Z"/>
          <g>
            <path class="cls-20" d="M779.339,132.329c13.805,7.971,24.961,27.292,24.916,43.148l-1,381.057c-.045,15.863-11.273,22.254-25.078,14.283L638.407,490.124c-13.8-7.97-24.961-27.284-24.916-43.147l1-381.057c.045-15.856,11.274-22.254,25.078-14.284Zm18.2,412.965.976-373.134c.035-12.195-8.571-27.1-19.183-33.226l-14.922-8.615-.007,2.3c-.028,10.008-7.12,14.048-15.836,9.016L670.192,96.388c-8.716-5.032-15.761-17.234-15.733-27.242l.007-2.3L639.55,58.236c-10.619-6.131-19.281-1.2-19.315,11l-.976,373.134c-.035,12.194,8.571,27.1,19.19,33.231l139.778,80.7c10.612,6.127,19.274,1.19,19.308-11"/>
            <path class="cls-25" d="M811.954,563.271l-15.985,9.29c4.485-2.606,7.266-8.148,7.288-16.027l15.985-9.29C819.22,555.123,816.439,560.664,811.954,563.271Z"/>
            <path class="cls-18" d="M621.78,49.894l15.985-9.29c4.545-2.641,10.841-2.27,17.788,1.742l-15.985,9.29C632.621,47.624,626.326,47.253,621.78,49.894Z"/>
            <polygon class="cls-25" points="804.255 175.476 820.241 166.187 819.242 547.244 803.257 556.534 804.255 175.476"/>
            <polygon class="cls-18" points="639.569 51.636 655.554 42.346 795.325 123.039 779.339 132.329 639.569 51.636"/>
            <path class="cls-26" d="M779.339,132.329l15.985-9.29c13.805,7.971,24.961,27.292,24.916,43.148l-15.985,9.29C804.3,159.621,793.145,140.3,779.339,132.329Z"/>
          </g>
          <path class="cls-26" d="M812.518,187.581h0a2.369,2.369,0,0,1,3.559,2.065l-.444,61.956a9.354,9.354,0,0,1-4.654,8.02h0a2.369,2.369,0,0,1-3.559-2.065l.444-61.956A9.354,9.354,0,0,1,812.518,187.581Z"/>
          <path class="cls-26" d="M812.518,270.334h0a2.369,2.369,0,0,1,3.559,2.065l-.444,20.58a9.354,9.354,0,0,1-4.654,8.02h0a2.369,2.369,0,0,1-3.559-2.065l.444-20.58A9.354,9.354,0,0,1,812.518,270.334Z"/>
          <g class="cls-27">
            <path class="cls-26" d="M779.339,132.329,639.569,51.636c-6.82-3.937-13.008-4.363-17.532-1.879,3.878-.591,8.47.416,13.395,3.258L775.2,133.708c13.805,7.971,24.961,27.292,24.916,43.148l-1,381.057c-.023,8.025-2.911,13.62-7.543,16.164,6.992-1.064,11.652-7.34,11.681-17.543l1-381.057C804.3,159.621,793.145,140.3,779.339,132.329Z"/>
          </g>
          <g>
            <path class="cls-25" d="M679.586,84.726c-1.769-1.021-3.206-.2-3.212,1.83a7.032,7.032,0,0,0,3.191,5.527c1.764,1.018,3.2.2,3.207-1.833a7.03,7.03,0,0,0-3.186-5.524"/>
            <path class="cls-25" d="M734,116.938l-43.14-24.9c-1.388-.8-2.509-.157-2.513,1.432a5.5,5.5,0,0,0,2.5,4.325l43.14,24.9c1.383.8,2.509.157,2.513-1.432a5.506,5.506,0,0,0-2.5-4.325"/>
          </g>
        </g>
        <path class="cls-20" d="M722.795,205.248l-.025,8.952-.032,11.167-.079,27.823,15.107-1.592c.06.035.118.072.179.107l66.6,38.45.145-55.19L738.1,196.522C729.673,191.657,722.822,195.564,722.795,205.248Z"/>
        <path class="cls-20" d="M722.576,282.5l-.025,8.952-.032,11.167-.079,27.827,15.107-1.595c.06.035.118.075.179.11l66.615,38.46.145-55.194-66.6-38.453C729.454,268.906,722.6,272.814,722.576,282.5Z"/>
        <path class="cls-20" d="M722.357,359.747l-.025,8.952-.032,11.167-.079,27.826,15.107-1.594c.06.038.118.075.179.11l66.631,38.469.145-55.19-66.619-38.463C729.235,346.159,722.384,350.066,722.357,359.747Z"/>
        <path class="cls-20" d="M722.148,433.318l-.025,8.952-.032,11.171-.079,27.823,15.107-1.591c.06.035.118.072.179.107l66.647,38.478.145-55.19L737.454,424.6C729.026,419.73,722.176,423.637,722.148,433.318Z"/>
        <g>
          <path class="cls-6" d="M770.215,277.525a5.64,5.64,0,0,1-2.559-4.432c0-1.629,1.158-2.286,2.576-1.468l38.4,22.172a5.64,5.64,0,0,1,2.559,4.432c0,1.629-1.158,2.286-2.576,1.468l-38.4-22.172m.039-13.882a5.64,5.64,0,0,1-2.559-4.432c0-1.629,1.158-2.286,2.576-1.468l62.093,35.849a5.635,5.635,0,0,1,2.559,4.432c0,1.629-1.155,2.288-2.576,1.468l-62.093-35.849M728.432,253.4a8.792,8.792,0,0,1-3.989-6.909l.069-24.463c.007-2.539,1.805-3.564,4.015-2.288l21.289,12.291a8.793,8.793,0,0,1,3.989,6.909l-.069,24.463c-.007,2.539-1.805,3.564-4.015,2.288L728.432,253.4m41.862-3.637a5.64,5.64,0,0,1-2.559-4.432c0-1.629,1.158-2.286,2.576-1.468L832.4,279.714a5.635,5.635,0,0,1,2.559,4.432c0,1.629-1.155,2.288-2.576,1.468l-62.093-35.849m66.154,21.355L723.11,205.683c-8.428-4.866-15.278-.958-15.306,8.726l-.025,8.952-.032,11.167-.079,27.823,15.107-1.591c.061.035.118.071.179.106L836.292,326.3c8.428,4.866,15.281.963,15.309-8.721l.057-20.119c.027-9.684-6.782-21.478-15.209-26.343"/>
          <path class="cls-28" d="M749.817,232.033l-21.289-12.291c-2.21-1.276-4.008-.251-4.015,2.288l-.069,24.463a8.792,8.792,0,0,0,3.989,6.909l21.289,12.291c2.21,1.276,4.008.251,4.015-2.288l.069-24.463a8.793,8.793,0,0,0-3.989-6.909"/>
          <path class="cls-29" d="M832.4,279.714l-62.093-35.849c-1.418-.818-2.571-.161-2.576,1.468a5.64,5.64,0,0,0,2.559,4.432l62.093,35.849c1.42.82,2.571.161,2.576-1.468a5.635,5.635,0,0,0-2.559-4.432"/>
          <path class="cls-29" d="M832.364,293.593l-62.093-35.849c-1.418-.818-2.571-.161-2.576,1.468a5.64,5.64,0,0,0,2.559,4.432l62.093,35.849c1.42.82,2.571.161,2.576-1.468a5.635,5.635,0,0,0-2.559-4.432"/>
          <path class="cls-29" d="M808.636,293.8l-38.4-22.172c-1.418-.818-2.571-.161-2.576,1.468a5.64,5.64,0,0,0,2.559,4.432l38.4,22.172c1.418.818,2.571.161,2.576-1.468a5.64,5.64,0,0,0-2.559-4.432"/>
          <path class="cls-6" d="M770,354.774a5.64,5.64,0,0,1-2.559-4.432c0-1.629,1.158-2.286,2.576-1.468l38.4,22.172a5.64,5.64,0,0,1,2.559,4.432c0,1.629-1.158,2.286-2.576,1.468L770,354.774m.039-13.882a5.634,5.634,0,0,1-2.559-4.429c0-1.629,1.158-2.286,2.576-1.468l62.093,35.849a5.635,5.635,0,0,1,2.559,4.432c0,1.629-1.155,2.285-2.576,1.464l-62.093-35.849m-41.823-10.242a8.793,8.793,0,0,1-3.989-6.909l.069-24.463c.007-2.539,1.805-3.564,4.015-2.288L749.6,309.282a8.793,8.793,0,0,1,3.989,6.909l-.069,24.463c-.007,2.539-1.805,3.564-4.015,2.288l-21.289-12.291m41.862-3.637a5.64,5.64,0,0,1-2.559-4.432c0-1.629,1.158-2.286,2.576-1.468l62.093,35.849a5.635,5.635,0,0,1,2.559,4.432c0,1.629-1.155,2.288-2.576,1.468l-62.093-35.849m66.154,21.355L722.891,282.933c-8.428-4.866-15.278-.958-15.306,8.726l-.025,8.952-.032,11.167-.079,27.827,15.107-1.595c.061.035.118.075.179.11l113.338,65.436c8.428,4.866,15.281.96,15.309-8.724l.057-20.119c.027-9.684-6.782-21.478-15.209-26.343"/>
          <path class="cls-30" d="M749.6,309.282l-21.289-12.291c-2.21-1.276-4.008-.251-4.015,2.288l-.069,24.463a8.793,8.793,0,0,0,3.989,6.909L749.5,342.942c2.21,1.276,4.008.251,4.015-2.288l.069-24.463a8.793,8.793,0,0,0-3.989-6.909"/>
          <path class="cls-29" d="M832.185,356.964l-62.093-35.849c-1.418-.818-2.571-.161-2.576,1.468a5.64,5.64,0,0,0,2.559,4.432l62.093,35.849c1.42.82,2.571.161,2.576-1.468a5.635,5.635,0,0,0-2.559-4.432"/>
          <path class="cls-29" d="M832.145,370.846,770.052,335c-1.418-.818-2.571-.161-2.576,1.468a5.634,5.634,0,0,0,2.559,4.429l62.093,35.849c1.42.82,2.571.164,2.576-1.464a5.635,5.635,0,0,0-2.559-4.432"/>
          <path class="cls-29" d="M808.417,371.047l-38.4-22.172c-1.418-.818-2.571-.161-2.576,1.468A5.64,5.64,0,0,0,770,354.774l38.4,22.172c1.418.818,2.571.161,2.576-1.468a5.64,5.64,0,0,0-2.559-4.432"/>
          <path class="cls-6" d="M769.777,432.024a5.64,5.64,0,0,1-2.559-4.432c0-1.629,1.158-2.286,2.576-1.468L808.2,448.3a5.64,5.64,0,0,1,2.559,4.432c0,1.629-1.158,2.286-2.576,1.468l-38.4-22.172m.039-13.879a5.64,5.64,0,0,1-2.559-4.432c0-1.629,1.158-2.286,2.576-1.468l62.093,35.849a5.635,5.635,0,0,1,2.559,4.432c0,1.629-1.155,2.288-2.576,1.468l-62.093-35.849M727.994,407.9A8.793,8.793,0,0,1,724,400.991l.069-24.463c.007-2.539,1.805-3.561,4.015-2.285l21.289,12.291a8.787,8.787,0,0,1,3.989,6.906L753.3,417.9c-.007,2.539-1.805,3.564-4.015,2.288L727.994,407.9m41.862-3.637a5.64,5.64,0,0,1-2.559-4.432c0-1.629,1.158-2.283,2.576-1.464l62.093,35.849a5.629,5.629,0,0,1,2.559,4.429c0,1.629-1.155,2.288-2.576,1.468l-62.093-35.849m66.154,21.358L722.672,360.185c-8.428-4.866-15.278-.958-15.306,8.722l-.025,8.952-.032,11.167-.079,27.827,15.107-1.595c.06.038.118.075.179.11L835.854,480.8c8.428,4.866,15.281.96,15.309-8.724l.057-20.119c.027-9.681-6.782-21.474-15.209-26.34"/>
          <path class="cls-31" d="M749.379,386.535l-21.289-12.291c-2.21-1.276-4.008-.255-4.015,2.285L724,400.991a8.793,8.793,0,0,0,3.989,6.909l21.289,12.291c2.21,1.276,4.008.251,4.015-2.288l.069-24.463a8.787,8.787,0,0,0-3.989-6.906"/>
          <path class="cls-29" d="M831.966,434.216l-62.093-35.849c-1.418-.818-2.571-.164-2.576,1.464a5.64,5.64,0,0,0,2.559,4.432l62.093,35.849c1.42.82,2.571.161,2.576-1.468a5.629,5.629,0,0,0-2.559-4.429"/>
          <path class="cls-29" d="M831.926,448.095l-62.093-35.849c-1.418-.818-2.571-.161-2.576,1.468a5.64,5.64,0,0,0,2.559,4.432l62.093,35.849c1.42.82,2.571.161,2.576-1.468a5.635,5.635,0,0,0-2.559-4.432"/>
          <path class="cls-29" d="M808.2,448.3l-38.4-22.172c-1.418-.818-2.571-.161-2.576,1.468a5.64,5.64,0,0,0,2.559,4.432l38.4,22.172c1.418.818,2.571.161,2.576-1.468A5.64,5.64,0,0,0,808.2,448.3"/>
          <path class="cls-6" d="M769.569,505.595a5.634,5.634,0,0,1-2.559-4.429c0-1.629,1.158-2.286,2.576-1.468l38.4,22.172a5.64,5.64,0,0,1,2.559,4.432c0,1.629-1.158,2.283-2.576,1.464l-38.4-22.172m.039-13.879a5.64,5.64,0,0,1-2.559-4.432c0-1.629,1.158-2.286,2.576-1.468l62.093,35.849a5.635,5.635,0,0,1,2.559,4.432c0,1.629-1.155,2.288-2.576,1.468l-62.093-35.849m-41.823-10.245a8.787,8.787,0,0,1-3.989-6.906l.069-24.463c.007-2.539,1.805-3.564,4.015-2.288l21.289,12.291a8.793,8.793,0,0,1,3.989,6.909l-.069,24.463c-.007,2.539-1.805,3.561-4.015,2.285l-21.289-12.291m41.862-3.634a5.64,5.64,0,0,1-2.559-4.432c0-1.629,1.158-2.286,2.576-1.468l62.093,35.849a5.635,5.635,0,0,1,2.559,4.432c0,1.629-1.155,2.288-2.576,1.468l-62.093-35.849M835.8,499.192,722.463,433.757c-8.428-4.866-15.278-.958-15.306,8.722l-.025,8.952L707.1,462.6l-.079,27.823,15.107-1.591c.061.035.118.072.179.106l113.338,65.436c8.428,4.866,15.281.96,15.309-8.721l.057-20.123c.027-9.681-6.782-21.474-15.209-26.34"/>
          <path class="cls-32" d="M749.17,460.106l-21.289-12.291c-2.21-1.276-4.008-.251-4.015,2.288l-.069,24.463a8.787,8.787,0,0,0,3.989,6.906l21.289,12.291c2.21,1.276,4.008.255,4.015-2.285l.069-24.463a8.793,8.793,0,0,0-3.989-6.909"/>
          <path class="cls-29" d="M831.757,507.787l-62.093-35.849c-1.418-.818-2.571-.161-2.576,1.468a5.64,5.64,0,0,0,2.559,4.432l62.093,35.849c1.42.82,2.571.161,2.576-1.468a5.635,5.635,0,0,0-2.559-4.432"/>
          <path class="cls-29" d="M831.718,521.666l-62.093-35.849c-1.418-.818-2.571-.161-2.576,1.468a5.64,5.64,0,0,0,2.559,4.432L831.7,527.566c1.42.82,2.571.161,2.576-1.468a5.635,5.635,0,0,0-2.559-4.432"/>
          <path class="cls-29" d="M807.989,521.871l-38.4-22.172c-1.418-.818-2.571-.161-2.576,1.468a5.634,5.634,0,0,0,2.559,4.429l38.4,22.172c1.418.818,2.571.164,2.576-1.464a5.64,5.64,0,0,0-2.559-4.432"/>
        </g>
        <g>
          <path class="cls-33" d="M735.359,400.3h0m4.341-11.577-.014-.008c-.142-.078-.165-.028-.165.134q-.014,6.111-.032,12.22c0,1.348-.859,1.968-2.024,1.469l-.047-.02a3.055,3.055,0,0,1-.281-.144h0l-.057-.033a4.787,4.787,0,0,1-1.546-1.651.9.9,0,0,1-.176-.389h-.009l-.01,0h0a.122.122,0,0,1-.041-.073l-.026-.048a4.783,4.783,0,0,1-.978-1.7l-.018-.052c-.025-.075-.048-.15-.069-.223-.571-2,.467-3.256,2.036-2.44q.059.031.119.065h0l.053.031a2.9,2.9,0,0,1,.535.406l.012.011a.4.4,0,0,0,.066.053c.026.015.044.014.054,0a.106.106,0,0,0,.011-.04.414.414,0,0,0,0-.047c0-.006,0-.012,0-.019q0-.42,0-.837c0-.464,0-.926.005-1.39a.644.644,0,0,1,.009-.094l-.011-.016a9.018,9.018,0,0,0-1.161-.466c-2.056-.487-3.316.348-3.7,2.548a5.823,5.823,0,0,0-.087.994,9.787,9.787,0,0,0,1.185,4.346c.033.066.089.135.086.2a.111.111,0,0,1-.005.029.087.087,0,0,1,.028.01.062.062,0,0,1,.028.062v.013l.007.009.016.006h0a.065.065,0,0,1,.027.051v.01c.066.1.13.195.194.291l.021.01h0a.057.057,0,0,1,.031.046v.018a.092.092,0,0,1,.034.012h0a.135.135,0,0,1,.026.019,1.407,1.407,0,0,1,.095.124l.081.1a9.08,9.08,0,0,0,2.311,2.016l.038.022.135.076c2.133,1.165,4.116.657,4.712-1.563.011-.042.022-.084.032-.127q.032-.134.057-.274a6.132,6.132,0,0,0,.1-1.091q0-.76,0-1.519.006-2.277.014-4.553v-.231a1.389,1.389,0,0,1,.239.28,13.548,13.548,0,0,0,3.366,3.149l.039.024c.11.064.159.058.175-.03a.619.619,0,0,0,.006-.116c-.006-.365-.006-.726,0-1.087,0-.27,0-.54,0-.811q0-.135,0-.271a8.318,8.318,0,0,1-1.861-2.236.343.343,0,0,1-.07-.145.1.1,0,0,1,0-.022l0-.008a.035.035,0,0,1-.016,0,.078.078,0,0,1-.028-.046c-.035-.056-.071-.112-.108-.17-.018-.016-.04-.029-.041-.052a.044.044,0,0,1,0-.015h0a.076.076,0,0,1-.021-.008h0a.085.085,0,0,1-.037-.077,4.773,4.773,0,0,1-.618-.958,8.5,8.5,0,0,1-.968-2.72l-.475-.273-.356-.2-.119-.068h0c-.264-.152-.528-.307-.793-.465l-.01-.006"/>
          <path class="cls-34" d="M745.254,396.2l-.024,0,0,.005q0,.136,0,.271c0,.271,0,.541,0,.811,0,.36,0,.722,0,1.087a.619.619,0,0,1-.006.116c-.016.088-.065.094-.175.03h0l-.039-.024a13.548,13.548,0,0,1-3.366-3.149,1.389,1.389,0,0,0-.239-.28v.231q-.006,2.278-.014,4.553,0,.759,0,1.519a6.132,6.132,0,0,1-.1,1.091q-.025.141-.057.274c-.01.043-.021.086-.032.127-.6,2.221-2.578,2.728-4.712,1.563l-.135-.076h0l-.038-.022A9.08,9.08,0,0,1,734,402.307l-.081-.1a1.407,1.407,0,0,0-.095-.124.135.135,0,0,0-.026-.019h0a.092.092,0,0,0-.034-.012c0,.081.064.144.106.209a9.721,9.721,0,0,0,3.194,3.255,6.272,6.272,0,0,0,.7.35c1.86.781,3.177.366,3.975-1.125a5.017,5.017,0,0,0,.448-2.3c.012-1.953.013-3.911.019-5.868a.425.425,0,0,1,.021-.212c.168.214.331.426.5.627a12.313,12.313,0,0,0,3.125,2.821c.1.058.162.093.16-.063,0-.96,0-1.918.008-2.872a.22.22,0,0,0-.13-.231l-.014-.008-.081-.045a3.74,3.74,0,0,1-.545-.393"/>
          <path class="cls-35" d="M741.3,388.84c-.861-.492-1.722-.989-2.584-1.484q-.018,6.22-.037,12.438c0,.036.01.084.01.123s-.013.079-.068.073c-.176,1.231-.847,1.664-1.964,1.269-.022.044-.048.051-.077.035a.35.35,0,0,1-.091-.1l-.317-.185-.02.009a.067.067,0,0,1-.057,0h0a.18.18,0,0,1-.065-.112,8.783,8.783,0,0,1-.669-.6h0a.9.9,0,0,0,.176.389,4.787,4.787,0,0,0,1.546,1.651l.057.033h0a3.055,3.055,0,0,0,.281.144l.047.02c1.165.5,2.02-.12,2.024-1.469q.017-6.109.032-12.22c0-.162.023-.212.165-.134l.014.008.01.006c.265.159.529.313.793.465h0l.119.068.356.2.475.273.013-.025a3.877,3.877,0,0,1-.045-.668.191.191,0,0,0-.124-.2"/>
          <path class="cls-36" d="M736.37,392.721a5.11,5.11,0,0,0-1.26-.535c-3.565-.93-4.943,3.221-2.606,7.855a8.277,8.277,0,0,0,.909,1.488.111.111,0,0,0,.005-.029c0-.068-.054-.138-.086-.2a9.787,9.787,0,0,1-1.185-4.346,5.823,5.823,0,0,1,.087-.994c.388-2.2,1.647-3.034,3.7-2.548a9.018,9.018,0,0,1,1.161.466c0-.179,0-.363.01-.539a.207.207,0,0,0-.115-.211q-.314-.223-.624-.4"/>
          <path class="cls-34" d="M737.257,393.969c-.049-.028-.1-.055-.148-.078a.644.644,0,0,0-.009.094c0,.464,0,.927-.005,1.39q0,.417,0,.837c0,.007,0,.013,0,.019a.414.414,0,0,1,0,.047.106.106,0,0,1-.011.04c-.011.018-.028.019-.054,0h0a.4.4,0,0,1-.066-.053l-.012-.011a2.9,2.9,0,0,0-.535-.406l-.053-.031q-.06-.035-.119-.065c-1.568-.816-2.607.44-2.036,2.44.021.073.044.148.069.223l.018.052a4.783,4.783,0,0,0,.978,1.7c-.024-.062-.046-.121-.07-.181-.546-1.347-.436-2.581.3-3.024a1.545,1.545,0,0,1,1.643.125,4.474,4.474,0,0,1,.617.438.924.924,0,0,0,.1.085c.031.018.053.007.053-.083,0-1,0-2,.008-2.994a.209.209,0,0,0-.1-.205c-.185-.121-.369-.256-.554-.362"/>
          <path class="cls-34" d="M742.076,390.064l-.013-.007q-.126-.07-.253-.143l-.345-.2-.013.025a8.5,8.5,0,0,0,.968,2.72,4.773,4.773,0,0,0,.618.958c.047-.057-.028-.131-.057-.193a7.282,7.282,0,0,1-.783-2.944.21.21,0,0,0-.122-.213"/>
          <path class="cls-36" d="M743.3,393.8a.1.1,0,0,0,0,.022.343.343,0,0,0,.07.145,8.318,8.318,0,0,0,1.861,2.236l0-.005.013-.043c0-.2,0-.4,0-.607l-.029-.055c-.232-.144-.465-.289-.7-.466A9.026,9.026,0,0,1,743.3,393.8"/>
          <path class="cls-36" d="M738.713,387.356c-.111-.021-.054.119-.054.193q-.024,6.216-.042,12.441c.055.006.068-.028.068-.073s-.01-.087-.01-.123q.021-6.218.037-12.438"/>
          <path class="cls-36" d="M736.027,400.9a.18.18,0,0,0,.065.112h0a.067.067,0,0,0,.057,0l.02-.009c-.046-.035-.1-.07-.142-.107"/>
          <path class="cls-36" d="M736.654,401.259l-.168-.069a.35.35,0,0,0,.091.1c.029.016.055.01.077-.035"/>
          <path class="cls-34" d="M743.072,393.42a.052.052,0,0,0-.033-.005.085.085,0,0,0,.037.077.076.076,0,0,0,.021.008h0v0h0c0-.035-.011-.066-.033-.079"/>
          <path class="cls-36" d="M733.442,401.538a.087.087,0,0,0-.028-.01.1.1,0,0,0,.055.085V401.6a.062.062,0,0,0-.028-.062"/>
          <path class="cls-35" d="M735.308,400.224l-.01-.005a.122.122,0,0,0,.041.073h0l.01,0h.011a.1.1,0,0,0-.052-.074"/>
          <path class="cls-36" d="M733.491,401.629l-.016-.006.044.066v-.01a.066.066,0,0,0-.027-.051"/>
          <path class="cls-34" d="M743.1,393.5v0a.044.044,0,0,0,0,.015c0,.023.023.036.041.052a.077.077,0,0,0-.036-.069h0"/>
          <polyline class="cls-35" points="745.243 396.151 745.23 396.194 745.254 396.198 745.243 396.151"/>
          <path class="cls-35" d="M745.225,395.492l-.006,0,.029.055a.043.043,0,0,0-.023-.052"/>
          <path class="cls-36" d="M743.259,393.743l-.011-.005a.078.078,0,0,0,.028.046.035.035,0,0,0,.016,0,.065.065,0,0,0-.033-.045"/>
          <path class="cls-34" d="M733.735,401.99l-.021-.01a.112.112,0,0,0,.042.069l.011.005v-.018a.057.057,0,0,0-.031-.046h0"/>
        </g>
        <path class="cls-13" d="M735.377,463.025c-.519-.3-1-.1-1,.572l-.029,10.242a2.2,2.2,0,0,0,1,1.73.815.815,0,0,0,.552.124l6.687-1.268c.592-.114.6-1.114.005-1.911l-6.658-8.973a1.877,1.877,0,0,0-.553-.516"/>
        <g>
          <path class="cls-33" d="M747.146,243.715a12.453,12.453,0,0,0-.168-1.769,9.524,9.524,0,0,0-2.288-4.67,9.8,9.8,0,0,0-2.13-1.786c-.885-.565-1.772-1.085-2.659-1.6l-.746-.429-.821-.476-.41-.235a31.555,31.555,0,0,0-2.794-1.485,3.715,3.715,0,0,0-1.981-.372,1.99,1.99,0,0,0-1.072.5,2.531,2.531,0,0,0-.664,1.1,7.682,7.682,0,0,0-.3,2.261q-.086,3.287-.019,6.665a12.779,12.779,0,0,0,.154,1.947,9.626,9.626,0,0,0,1.959,4.392,9.4,9.4,0,0,0,2.227,2.045c.515.344,1.032.655,1.548.952l.155.089c.8.464,1.607.937,2.411,1.4.922.532,1.844,1.052,2.765,1.531a8.564,8.564,0,0,0,1.291.58c1.657.531,2.765.045,3.277-1.538a8.081,8.081,0,0,0,.266-2.161c.022-.629.035-1.264.034-1.906C747.176,247.078,747.217,245.429,747.146,243.715Zm-1.421,2.814c-.006,1.217,0,2.446-.048,3.636a4.361,4.361,0,0,1-.338,1.747,1.364,1.364,0,0,1-1.63.743,5.694,5.694,0,0,1-1.539-.619c-.781-.418-1.562-.86-2.343-1.311-.863-.5-1.725-1.007-2.587-1.507-.631-.364-1.264-.745-1.893-1.187a6.394,6.394,0,0,1-2.159-2.526,6.27,6.27,0,0,1-.553-1.9,17.187,17.187,0,0,1-.111-2.283q-.019-2.656.022-5.277a9.909,9.909,0,0,1,.167-1.962,1.691,1.691,0,0,1,.757-1.178,1.828,1.828,0,0,1,1.512,0,10.14,10.14,0,0,1,1.335.638c.8.429,1.6.88,2.4,1.342,1.021.59,2.043,1.2,3.064,1.8a10.7,10.7,0,0,1,1.757,1.226,6.314,6.314,0,0,1,2.1,4.193c.1,1.034.079,2.01.085,2.995C745.733,245.577,745.727,246.05,745.726,246.528Z"/>
          <path class="cls-33" d="M739.146,237.975l-.024-.014c-2.278-1.315-4.124-.231-4.131,2.362a9.069,9.069,0,0,0,4.111,7.144l.016.009c2.281,1.318,4.132.262,4.141-2.361A9.065,9.065,0,0,0,739.146,237.975Zm-.018,7.84-.008,0a5.9,5.9,0,0,1-2.682-4.637c0-1.7,1.211-2.392,2.69-1.54l0,0a5.909,5.909,0,0,1,2.679,4.633C741.809,245.964,740.6,246.657,739.128,245.815Z"/>
          <path class="cls-33" d="M743.442,239.153c-.536-.307-.967-.061-.971.55a2.145,2.145,0,0,0,.966,1.674c.531.307.964.058.966-.558A2.1,2.1,0,0,0,743.442,239.153Z"/>
        </g>
        <path class="cls-13" d="M746.569,320.635a2.431,2.431,0,0,1-.346-.059c-.122-.032-.242-.058-.363-.093s-.241-.078-.363-.12a2.2,2.2,0,0,1-.363-.157,1.636,1.636,0,0,0,.837-.383,1.953,1.953,0,0,0,.535-.843h-.051a3.879,3.879,0,0,1-.634,0,5.242,5.242,0,0,1-1.3-.268l-.024-.011a.164.164,0,0,1-.06-.065c-.082-.142-.163-.285-.252-.42a7.966,7.966,0,0,0-.683-.893,6.168,6.168,0,0,0-1-.9,4.379,4.379,0,0,0-.37-.24,3.5,3.5,0,0,0-.345-.176,1.976,1.976,0,0,0-2.007.008c-.74.505-.986,1.461-.791,2.81.009.065,0,.061-.036.043l-.015-.009c-.2-.128-.405-.27-.609-.415-.3-.213-.6-.448-.889-.692-.33-.272-.653-.568-.971-.879-.429-.421-.845-.872-1.247-1.349-.219-.259-.435-.527-.645-.8-.369-.491-.724-.994-1.053-1.52-.188-.3-.371-.6-.545-.908q-.278-.486-.529-.986a.112.112,0,0,0-.029-.042c-.009,0-.017,0-.029.014a2.67,2.67,0,0,0-.412,1.368,4,4,0,0,0,.005.513,5.778,5.778,0,0,0,.137.892,6.967,6.967,0,0,0,.566,1.54,7.5,7.5,0,0,0,.41.719c.084.133.172.257.258.394a5.832,5.832,0,0,1-1.409-1.262,5.629,5.629,0,0,0,.514,2.366,7.306,7.306,0,0,0,2.023,2.758,3.637,3.637,0,0,1-.834-.358,5.116,5.116,0,0,1-.6-.408,7.4,7.4,0,0,0,1.131,2.48,6.346,6.346,0,0,0,1.846,1.807,5.111,5.111,0,0,1-4.021-.751q-.337-.195-.683-.431c.2.277.411.535.623.788.407.482.827.939,1.262,1.363.343.333.69.65,1.044.939.261.214.524.42.788.612.212.156.427.31.64.441.193.118.385.235.578.346s.384.216.576.307c.153.076.3.147.456.22a9.069,9.069,0,0,0,.957.377,5.135,5.135,0,0,0,4.493-.29,5.278,5.278,0,0,0,2.11-2.83,8.054,8.054,0,0,0,.363-1.485,8.674,8.674,0,0,0,.11-1.2l0-.045a4.415,4.415,0,0,0,0-.618c0-.072-.024-.157.049-.173a3.029,3.029,0,0,0,.668-.264,3.423,3.423,0,0,0,.569-.388,2.664,2.664,0,0,0,.311-.317Z"/>
        <g>
          <path class="cls-13" d="M652.065,107.339c-.9-.519-1.8-1.032-2.7-1.551l-3.157-1.824-1.578-.91c-.945-.545-1.807-.119-1.816.966-.024,2.373-.016,4.764-.017,7.154a3.317,3.317,0,0,0,.515,1.653q3.622,6.225,7.245,12.45a3.359,3.359,0,0,0,1.171,1.172,1.406,1.406,0,0,0,.846.234c1.109-.15,1.261-1.626.33-3.231q-3.113-5.368-6.241-10.735a1.561,1.561,0,0,1-.253-.835c.017-1.015.026-2.036.009-3.071-.007-.384.087-.443.415-.253l.014.008q1.579.923,3.158,1.833l3.79,2.185a8.166,8.166,0,0,1,3.659,6.3c.03,1.49-.544,2.328-1.55,2.628-1.092.326-1.119,1.93-.038,3.5a7.193,7.193,0,0,1,1.5,5.059,2.064,2.064,0,0,1-2.9,1.769c-.511-.2-1.036-.549-1.552-.795-.036-.017-.071-.036-.1-.055a2.23,2.23,0,0,1-.793-.885c-1.985-3.454-3.987-6.893-5.969-10.349a4.339,4.339,0,0,0-1.48-1.641,1.342,1.342,0,0,0-.956-.209c-1.046.251-1.133,1.658-.222,3.225.817,1.406,1.654,2.8,2.469,4.2,1.5,2.589,2.989,5.19,4.507,7.774a3.723,3.723,0,0,0,.932,1.126c.555.362,1.114.709,1.672,1.031.454.262.908.508,1.358.731a4.575,4.575,0,0,0,4.774.049,4.651,4.651,0,0,0,1.929-3.712,12.873,12.873,0,0,0-1.348-6.584c-.13-.287-.158-.418-.013-.566,1.106-1.151,1.588-2.841,1.35-5.186a15.506,15.506,0,0,0-2.348-6.606,14.659,14.659,0,0,0-4.987-5.113q-.809-.478-1.618-.944"/>
          <path class="cls-13" d="M697.441,133.547c-.035-.02-.071-.039-.105-.055-1.044-.482-1.8-.113-1.808,1.18q-.058,11.374-.067,22.772a3.7,3.7,0,0,0,.139,1.057,4.071,4.071,0,0,0,1.672,2.376,1.377,1.377,0,0,0,1.4.09c1.742-.989,3.489-1.972,5.223-2.98a.332.332,0,0,1,.359-.041,1.139,1.139,0,0,1,.342.426c1.674,2.926,3.371,5.842,5.062,8.757.141.245.3.485.458.722a3.545,3.545,0,0,0,1.111,1.085,1.291,1.291,0,0,0,1.241.139c.64-.336.791-1.509.2-2.615-.927-1.734-1.954-3.424-2.921-5.141-.922-1.633-1.824-3.28-2.737-4.924-.06-.041-.116-.084-.176-.124a1.556,1.556,0,0,0,.378-.085c1.785-1,3.566-2.009,5.339-3.033.5-.285.648-.9.446-1.793a4.064,4.064,0,0,0-1.253-2.1,2.934,2.934,0,0,0-.519-.392,1.318,1.318,0,0,0-1.4-.035q-4.278,2.4-8.553,4.806-.867.489-1.742.97a2.719,2.719,0,0,1-.373.124l0-.688q.024-8.425.045-16.849a8.33,8.33,0,0,0-.074-1.042,4.4,4.4,0,0,0-1.686-2.609"/>
          <path class="cls-13" d="M756.491,167.666l-.087-.048c-1.087-.572-1.767-.057-1.771,1.156l-.048,17.066c-.006,2-.023,4-.011,6.015a3.752,3.752,0,0,0,1.058,2.515,3.458,3.458,0,0,0,.8.673,1.143,1.143,0,0,0,1.105.111c.74-.357,1.457-.755,2.171-1.153,1.053-.587,2.095-1.194,3.145-1.786.159-.088.333-.147.521-.228.379.63.735,1.208,1.075,1.793,1.527,2.642,3.045,5.285,4.578,7.923a3.453,3.453,0,0,0,1.215,1.308,2.173,2.173,0,0,0,.775.272c1.074.159,1.459-1.486.662-2.88-1.346-2.351-2.709-4.692-4.063-7.035-.549-.944-1.094-1.886-1.759-3.03a1.494,1.494,0,0,0,.421-.07c.791-.415,1.579-.832,2.359-1.266.953-.53,1.887-1.092,2.849-1.611a1.414,1.414,0,0,0,.655-1.4,4.108,4.108,0,0,0-1.64-2.886c-.052-.035-.1-.067-.153-.1a1.529,1.529,0,0,0-1.742.089c-2.895,1.636-5.781,3.288-8.672,4.926-.47.264-.959.491-1.443.731a1.074,1.074,0,0,1-.264.056c-.011-.244-.024-.419-.024-.585q0-2.853.013-5.7c.011-3.918.039-7.827.028-11.762a3.756,3.756,0,0,0-1.748-3.088"/>
          <path class="cls-13" d="M716.524,144.561c-1.012-.584-1.838-.12-1.841,1.056-.024,7.633-.029,15.278-.082,22.894a4.276,4.276,0,0,0,2.061,3.583l.006,0q4.294,2.464,8.59,4.95,2.575,1.486,5.155,2.973a2.843,2.843,0,0,0,.749.331c1.255.281,1.777-1.182.841-2.894-.237-.434-.495-.86-.747-1.293q-3.16-5.473-6.326-10.95a4.058,4.058,0,0,0-1.385-1.488,1.232,1.232,0,0,0-1.17-.144c-.876.447-.781,1.851-.034,3.115.235.4.5.785.727,1.187q1.391,2.395,2.768,4.8c.1.168.187.336.28.508-.011.029-.023.059-.034.091l-.409-.236-6.911-3.99c-.511-.295-.513-.3-.512-.9l.056-19.876c0-.264,0-.526-.012-.8a4.185,4.185,0,0,0-1.745-2.908l-.026-.015"/>
          <path class="cls-13" d="M687.232,134.932a6.679,6.679,0,0,0-1.342-.6c-.732-.227-1.445-.335-2.241-.513-.025-.044-.1-.184-.181-.326a3.933,3.933,0,0,0-1.385-1.516,1.693,1.693,0,0,0-.574-.216c-.69-.1-1.206.394-1.208,1.2q-.027,8.007-.04,16.019a3.894,3.894,0,0,0,1.788,3.1l.027.016a1.116,1.116,0,0,0,1.8-1.063c-.027-3.415-.006-6.8.023-10.184a2.021,2.021,0,0,1,1.177-2.119,2.41,2.41,0,0,1,2.01.351,6.927,6.927,0,0,1,3.193,5.761q0,5.012-.028,10a4.009,4.009,0,0,0,1.736,2.974c.041.023.082.045.123.065,1,.482,1.736.166,1.748-1.113.035-3.395.036-6.807.029-10.223a10.7,10.7,0,0,0-.185-1.828,15.149,15.149,0,0,0-3.186-6.812,12.207,12.207,0,0,0-3.286-2.982"/>
          <path class="cls-13" d="M746.327,169.063a6.93,6.93,0,0,0-1.338-.6c-.758-.248-1.488-.35-2.283-.531h0s-.026-.042-.046-.083a3.713,3.713,0,0,0-1.417-1.721,1.814,1.814,0,0,0-.538-.211c-.77-.16-1.33.211-1.3,1.206.024.7,0,1.379,0,2.067q-.02,7-.045,13.991a4,4,0,0,0,1.736,2.993l.068.037c1.007.533,1.792.209,1.8-1.1.029-3.379.025-6.781.04-10.171a3.5,3.5,0,0,1,.079-.774c.358-1.482,1.647-1.809,3.058-.994a5.212,5.212,0,0,1,.841.614,6.738,6.738,0,0,1,2.336,4.963q-.014,4.934-.025,9.873a4.034,4.034,0,0,0,1.027,2.663,2.905,2.905,0,0,0,.764.66c.916.529,1.814.2,1.817-.926.01-3.537.037-7.067.019-10.621a10.228,10.228,0,0,0-.284-2.214,15.382,15.382,0,0,0-3.009-6.1,12.052,12.052,0,0,0-3.307-3.018"/>
          <path class="cls-13" d="M664.542,114.548c-.043-.025-.086-.047-.127-.065-.934-.422-1.73-.127-1.737,1.237q-.015,3.773-.021,7.547c-.006,1.943-.028,3.879-.011,5.839a30.5,30.5,0,0,0,.144,3.26,19,19,0,0,0,3.607,8.805,17.687,17.687,0,0,0,3.816,3.983,9.658,9.658,0,0,0,.945.629,5.717,5.717,0,0,0,.859.413c.971.355,1.53-.468,1.312-1.708a4.021,4.021,0,0,0-1.922-2.759A9.675,9.675,0,0,1,668.543,139a10.5,10.5,0,0,1-2.222-6.076q.012-7.174.035-14.347c0-.346-.052-.722-.059-1.076a4.037,4.037,0,0,0-1.754-2.957"/>
          <path class="cls-13" d="M676.859,128.946a1.518,1.518,0,0,0-.867-.224c-.639.045-.959.5-.961,1.349-.015,5.222-.015,10.453-.053,15.662a4.133,4.133,0,0,0,1.821,3.307,2.3,2.3,0,0,0,.4.185,1.041,1.041,0,0,0,1.4-1.085l.023-8.075q.011-4.034.026-8.073a3.383,3.383,0,0,0-.631-1.883,3.8,3.8,0,0,0-1.155-1.162"/>
          <path class="cls-13" d="M735.982,163.093l-.019-.011c-.95-.532-1.841-.165-1.833,1.048.021,2.663,0,5.3-.011,7.948l0,0q-.011,4.015-.02,8.031a2.317,2.317,0,0,0,.038.5,4.136,4.136,0,0,0,1.727,2.561c.051.029.1.056.152.079,1,.459,1.682-.041,1.691-1.13.008-.932.008-1.87.011-2.805q.019-6.538.034-13.074a4.023,4.023,0,0,0-1.768-3.14"/>
          <path class="cls-13" d="M676.862,121.678l-.015-.009c-1.016-.577-1.813-.083-1.788,1.074a3.888,3.888,0,0,0,1.832,3.148l.032.019a1.074,1.074,0,0,0,1.739-1.063,3.844,3.844,0,0,0-1.8-3.168"/>
          <path class="cls-13" d="M735.884,155.754a1.083,1.083,0,0,0-1.725,1.082,3.883,3.883,0,0,0,1.77,3.128l.034.019c1.024.572,1.827.1,1.8-1.045a3.88,3.88,0,0,0-1.832-3.154l-.051-.03"/>
        </g>
        <path class="cls-37" d="M689.411,240.265c-4.5-8.86-15.421-17.353-15.421-17.353a4.561,4.561,0,0,0,.13-1.892c-.374-2.243-2.771-4.45-5.168-4.96-.226-.153-.443-.309-.6-.432-.266-.881-.795-3.062-1.2-4.885-.194-1.266-1.056-6.181-2.88-7.867,0,0,7.542-13.27,2.069-25.847s-23.327-17.78-23.327-17.78-11.348-.916-13.241,9.931,3.062,32.072,3.062,32.072l5.723-15.535L602.481,399.991l7.3,40.169L641.1,491.68l5.665,3.141,25.369,14.066s3.786-135.053,4.26-145.67,7.809-54.222,12.069-70.944S693.907,249.125,689.411,240.265Z"/>
        <g>
          <path class="cls-38" d="M652.942,462.832a10.259,10.259,0,0,1,3.946,5.422c1.416,3.986-.506,7.628-1.973,10.157s-8.347,6.475-9.865,8.5-13.085,13.962-16.964,16.39-9.038,3.44-11.264,1.214l-2.226-2.226s-2.732-7.386,3.035-12.849S623.9,483.4,623.9,483.4Z"/>
          <path class="cls-39" d="M651.321,460.463a10.259,10.259,0,0,1,3.946,5.422c1.416,3.986-.506,7.628-1.973,10.157s-8.347,6.475-9.865,8.5-13.085,13.962-16.964,16.39-9.038,3.44-11.264,1.214l-2.226-2.226s-2.732-7.386,3.035-12.849,6.273-6.035,6.273-6.035Z"/>
          <path class="cls-38" d="M615.2,521.369a52.7,52.7,0,0,1-8.7,13.962c-5.868,6.678-8.364,12.546-2.563,17.807s19.763-1.214,23.405-9.106,7.622-14.406,8.364-15.9.944-6.759.944-6.759Z"/>
          <path class="cls-39" d="M615.2,518.941a52.7,52.7,0,0,1-8.7,13.962c-5.868,6.678-8.364,12.546-2.563,17.807S623.7,549.5,627.342,541.6s7.622-14.406,8.364-15.9.944-6.759.944-6.759Z"/>
          <g>
            <path class="cls-19" d="M626.465,375.34s-12.681,35.883-13.085,38.177,5.464,6.017,10.354,13.666-1.569,33.281-1.569,33.281l-5.547-5.8-12.681-43.438L607.31,345.8l13.49,10.657Z"/>
            <path class="cls-19" d="M665.856,334.466s1.889,11.6-1.754,33.86-10.927,58.007-11.062,63,.4,21.179-1.079,30.352-11.094,44.073-11.094,44.073L635.5,429.165l-4.182-71.092-18.481-18.481Z"/>
            <path class="cls-40" d="M599.486,328.665s-16.188,68.394-16.862,77.3,1.619,18.346,5.936,23.068,28.059,25.631,28.059,25.631,2.158-14.434,0-23.068-9.308-17.942-9.308-21.314,9.373-28.734,10.554-33.05-4.349-21.584-4.349-21.584,10.387,11.721,11.6,21.037-2.023,57.61-2.023,66.513-1.754,28.734-3.507,41.279-6.475,34.939-6.475,34.939,1.484,4.721,8.768,6.07,15.244-4.047,15.244-4.047,10.387-41.954,12.006-57.332.4-41.549,2.293-54.365,7.554-43.033,5.531-49.1-19.021-8.2-30.218-12.736A57.376,57.376,0,0,1,608,335.14Z"/>
            <path class="cls-8" d="M606.989,207.907a27.935,27.935,0,0,0-8.718,11.185c-3.507,7.724-10.522,26-14.569,34.061s-12.411,17.235-10.927,26.273,2.968,12.546,11.062,14.03,17.672-8.634,19.83-12.95S606.989,207.907,606.989,207.907Z"/>
            <path class="cls-8" d="M598.09,319.949l-.291,3.927,12.546,12.546,22.36,10.911s13.76,1.837,23.169-1.1,12.748-10.826,12.748-13.456v-4.958s1.922-2.226,1.72-6.576a63.594,63.594,0,0,0-1.922-10.725l5.666-21.247s-9-36.018-9.308-36.119-21.651,4.958-21.651,4.958l-25.5,19.931Z"/>
            <path class="cls-9" d="M617.832,204.961s-8.7-.032-12.242,4.251-6.779,21.078-6.374,28.261,3.845,39.458,1.821,51.8-6.07,22.663-5.666,25.7,9.915,14.164,9.915,14.164l-7.487-5.261a14.834,14.834,0,0,0,5.463,11.332c5.868,5.059,18.009,10.117,27.115,11.939s-5.261-10.32-5.261-10.32,10.445,3.845,19.691,3.035S635,303.778,630.546,293.6l-4-7.118a60.713,60.713,0,0,0,14.5-1.258c6.942-1.619,12.405-10.32,13.822-14.974l1.416-4.654-2.372,21.449s5.2-.809,9.05,1.619,5.666,11.129,5.666,11.129-7.148-7.892-11.061-9.51a12.027,12.027,0,0,0-7.353-.607l-5.4,20.64s5.335,8.5,12.754,9.713a11.233,11.233,0,0,0,11.061-4.249,17.045,17.045,0,0,0,8.3-12.141c1.416-8.7,8.094-50.385,5.868-60.3a33.936,33.936,0,0,0-8.7-15.986Z"/>
            <path class="cls-8" d="M664.372,211.3s1.147,5.194,1.518,5.834a8.4,8.4,0,0,0,2.057,1.653l2.761,4.673,3.377,3.893s-1.012,2.125-4.856,3.339-43.505,5.43-43.505,5.43-8.7-14.637-9.915-20.1a10.28,10.28,0,0,1,1.922-8.875h28.127Z"/>
            <path class="cls-9" d="M653.378,201.252s8.094,2.9,8.971,3.709,1.889,4.858,2.023,6.341-3.17,7.015-5.5,9.376l-2.327,2.361s10.117-4.249,11.4-4.249a4.136,4.136,0,0,1,3.372,2.7c.2,1.214-1.619,3.461-1.619,3.461s-30.555,10.029-36.355,10.569-7.622.607-7.622.607-7.217-15.176-8.094-20.1a16.753,16.753,0,0,1,.472-8.364Z"/>
            <path class="cls-8" d="M653.378,214.81s6.138-2.538,6.34-4.962-2.145-3.163-4.958-4.144S636.448,205,636.448,205L622.319,219.31l4.773,13.913,19.473-16.087Z"/>
            <path class="cls-41" d="M627.093,219.868a54.019,54.019,0,0,0-.762,7.15,34.538,34.538,0,0,0,.762,6.205s5.713-3.98,11.581-7.757,14.7-10.657,14.7-10.657a8.164,8.164,0,0,1-.742-2.226,44.98,44.98,0,0,1,.4-6.205l-1.349-4.384Z"/>
            <g>
              <path class="cls-39" d="M649.877,193.05a20.014,20.014,0,0,1-12.518,1.356l3.284,2.8a27.77,27.77,0,0,1-18.719-9.746c-1.49-1.784-2.755-3.758-4.37-5.429a9.72,9.72,0,0,0-6-3.238,5.747,5.747,0,0,0-2.047.235,16.289,16.289,0,0,0-1.319,7.859,22.734,22.734,0,0,0,5.092,12.04l28.7,10.286,5.059-2.062,4.047-5.695s-1.686.809-.4,1.889a12.755,12.755,0,0,1,2.361,3.035s3.44-7.487,3.777-11.4a48.251,48.251,0,0,1,.743-5.232,10.975,10.975,0,0,0-2.468.689C653.29,191.167,651.644,192.237,649.877,193.05Z"/>
              <path class="cls-42" d="M659.718,188.5a16.359,16.359,0,0,1-1.349-3.575c-.675-2.428-.742-6.475-2.158-10.86s-6.61-10.859-15.986-12.546S624.1,164.02,618.439,168a26.46,26.46,0,0,0-8.933,11.027,5.747,5.747,0,0,1,2.047-.235,9.72,9.72,0,0,1,6,3.238c1.615,1.671,2.88,3.645,4.37,5.429a27.77,27.77,0,0,0,18.719,9.746l-3.284-2.8a20.014,20.014,0,0,0,12.518-1.356c1.768-.812,3.413-1.882,5.216-2.613a10.975,10.975,0,0,1,2.468-.689c.191-.957.336-1.513.336-1.513Z"/>
            </g>
            <g>
              <path class="cls-43" d="M635.256,220.174c.854-1.941,1.087-4.265,2.621-5.729.91-.869,2.215-1.356,2.832-2.453.769-1.369.107-3.166-1.026-4.253a17.436,17.436,0,0,0-4.021-2.421,18.743,18.743,0,0,1-4.472-3.376c-.927-.326-1.937-.717-3.037-1.2-6.273-2.732-13.823-11.4-13.823-11.4s-1.656,8.664-1.049,9.575a42.561,42.561,0,0,1,3.339,10.117c.708,3.946,8.6,15.379,11.534,15.783a9.668,9.668,0,0,0,3.07,0A11.326,11.326,0,0,0,635.256,220.174Z"/>
              <path class="cls-44" d="M651.22,195.182c-1.922-2.125-3.44,7.285-3.541,9a2.737,2.737,0,0,1-.911,2.226,8.152,8.152,0,0,0-1.619-3.743c-1.214-1.214-2.226-.506-4.755-.809a36.626,36.626,0,0,1-6.678-1.922l4.249,3.541a23.089,23.089,0,0,1-6.777-1.537,18.743,18.743,0,0,0,4.472,3.376,17.436,17.436,0,0,1,4.021,2.421c1.133,1.088,1.8,2.884,1.026,4.253-.616,1.1-1.922,1.584-2.832,2.453-1.534,1.465-1.767,3.788-2.621,5.729a11.326,11.326,0,0,1-4.034,4.651c1.72-.3,3.635-1.156,6.744-2.933,4.958-2.833,8.9-12.546,8.9-12.546s6.273-4.856,6.88-7.386S653.142,197.306,651.22,195.182Z"/>
            </g>
            <path class="cls-8" d="M608.832,326.434c-.2-4.247,1.132-8.454,2.421-12.523l.451-1.429a148.16,148.16,0,0,0,5.431-24.681c.626-4.751,1.026-9.6,1.413-14.3.374-4.541.762-9.236,1.353-13.825,1.446-11.226,3.932-19.749,7.825-26.822l-.709-.39c-3.943,7.165-6.459,15.779-7.919,27.108-.593,4.608-.981,9.313-1.356,13.863-.386,4.682-.786,9.525-1.409,14.257a147.324,147.324,0,0,1-5.4,24.546l-.449,1.426c-1.311,4.137-2.666,8.414-2.458,12.807a39.873,39.873,0,0,0,1.459,7.847,51.461,51.461,0,0,1,1.242,5.742q.425.223.859.442a46.518,46.518,0,0,0-1.317-6.384A39.27,39.27,0,0,1,608.832,326.434Z"/>
            <path class="cls-8" d="M602.492,256.3l.6,10.587a13.549,13.549,0,0,0,8.248,11.713l22.949,9.71a6.284,6.284,0,0,0,8.733-5.787V272.192a13.549,13.549,0,0,0-8.452-12.554l-23.437-9.515A6.284,6.284,0,0,0,602.492,256.3Z"/>
            <polygon class="cls-13" points="615.707 262.463 615.707 273.39 624.712 269.849 615.707 262.463"/>
            <path class="cls-45" d="M625.367,381.146a38.67,38.67,0,0,0,10.575,5.391,51.916,51.916,0,0,0,12.647,2.428l-3.912.809,4.856.674a9.176,9.176,0,0,1-5.261,1.889c-2.968,0-9.443.4-13.355-1.754s-5.55-3.1-5.55-3.1Z"/>
            <path class="cls-45" d="M641.911,452.166s-7.554-.708-9.848-1.72c-2.209-.975-7.346-3.164-7.72-3.323a32.647,32.647,0,0,0,8.766,1.806,57.428,57.428,0,0,0,10.219.2l-2.833-1.416,3.541-1.012-4.443-2.327,4.443-.506s-7.993.607-12.242-1.113a56,56,0,0,1-8.549-4.977c-.1,2.37-.152,4.239-.152,5.416,0,1.637-.06,3.646-.167,5.908a18.515,18.515,0,0,0,7.654,3.063A30.062,30.062,0,0,0,641.911,452.166Z"/>
            <path class="cls-45" d="M622.472,456.5s7.2,3.458,11.852,3.963l4.654.5-3.946,1.012,5.362,1.416s-2.023,1.012-6.374,1.012a64.381,64.381,0,0,1-10.589-1.315s2.582,2.125,8,3.035A75.228,75.228,0,0,0,641,467.139l-2.833,1.518,4.047,1.113s-2.494,1.821-8.734,2.226l-6.24.4s10.742,3.339,12.352,3.642l1.61.3-7.722.708,6.112,3.035a14.755,14.755,0,0,1-7.8.708c-4.249-.809-11.3-3.46-11.266-3.748S622.472,456.5,622.472,456.5Z"/>
            <path class="cls-46" d="M625.622,384.277a30.827,30.827,0,0,0,10.084,4.452c6.509,1.72,9.24,2.529,9.24,2.529s-7.892.708-12.444-1.518a60.587,60.587,0,0,0-6.88-2.984Z"/>
            <g>
              <path class="cls-45" d="M647.274,405.929l-7.681-1.416,8.389-1.382s-20.915-3.777-22.852-7.015v0c-.047,1.392-.1,2.823-.156,4.274a32.008,32.008,0,0,0,7.225,2.2c5.194,1.012,5.531,1.012,5.531,1.012H634l8.721,2.091-7.436,1.079s6.829,1.686,8.043,1.889-12.478,1.282-16.862-1.012l-1.755-.918c-.117,2.665-.241,5.35-.368,8a60.155,60.155,0,0,0,8.733,2.361c4.114.675,8.026,1.349,8.026,1.349s-6.88,1.147-11.4.4c-2.858-.47-4.607-.83-5.509-1.032-.2,4.105-.4,8.053-.569,11.6a54.877,54.877,0,0,0,6.6,1.911c4.856,1.113,10.37,1.872,10.37,1.872a45.53,45.53,0,0,1-7.115.3c-2.294-.253-4.064-.556-4.064-.556l4.7,1.669a42.836,42.836,0,0,1-7.032-1.164,15.375,15.375,0,0,1-3.588-1.439c-.024.513-.048,1.024-.071,1.514a58.659,58.659,0,0,0,7.25,2.859c5.463,1.72,13.355.3,13.355.3l-4.443-1.214,6.77-1.416-4.755-1.619,2.833-.2-1.113-1.012,1.214-22.36,2.327-.809-8.2-1.315s3.541-.2,6.07-.506Z"/>
              <path class="cls-46" d="M643.328,408.66c-1.214-.2-8.043-1.889-8.043-1.889l7.436-1.079L634,403.6h3.73s-.337,0-5.531-1.012a32.008,32.008,0,0,1-7.225-2.2c-.081,2.076-.169,4.2-.263,6.339l1.755.918C630.85,409.942,644.542,408.863,643.328,408.66Z"/>
              <path class="cls-44" d="M641.1,418.441s-3.912-.675-8.026-1.349a60.155,60.155,0,0,1-8.733-2.361q-.074,1.551-.148,3.082c.9.2,2.651.563,5.509,1.032C634.222,419.587,641.1,418.441,641.1,418.441Z"/>
              <path class="cls-46" d="M634.121,434.612l-4.7-1.669s1.771.3,4.064.556a45.53,45.53,0,0,0,7.115-.3s-5.514-.759-10.37-1.872a54.877,54.877,0,0,1-6.6-1.911c-.043.9-.084,1.758-.124,2.6a15.375,15.375,0,0,0,3.588,1.439A42.836,42.836,0,0,0,634.121,434.612Z"/>
            </g>
            <path class="cls-46" d="M621.586,465.885a17.108,17.108,0,0,0,4.879,2.064c2.951.759,11.9,1.416,11.9,1.416l-6.526,1.113,1.062.3a26.966,26.966,0,0,1-7.133,0c-3.288-.556-4.5-1.614-4.5-1.614Z"/>
            <path class="cls-44" d="M644.036,446.7s-3.642-.658-3.845-.708-5.666-.708-10.067-1.821a48.282,48.282,0,0,1-7.014-2.342c-.011.521-.018.983-.018,1.364,0,.928-.021,1.987-.057,3.133a40.253,40.253,0,0,0,8.336,2.044,94,94,0,0,0,11.957.759L636.5,446.7Z"/>
            <path class="cls-45" d="M586.771,415.338c4.654.3,14.164-1.315,14.164-1.315s-8.3-.708-12.546-2.023a31.977,31.977,0,0,1-5.876-2.44,42.323,42.323,0,0,0,.42,5.449C583.776,415.107,585,415.223,586.771,415.338Z"/>
            <path class="cls-45" d="M615.2,443.363c-.451,1.241-3.136,3.489-5.424,5.235,1,.89,1.927,1.714,2.761,2.455,3.1-2.934,3.472-9.915,3.472-9.915Z"/>
            <path class="cls-45" d="M582.583,406.689a50.837,50.837,0,0,0,12.08,2.882c7.79.911,8.094,0,8.094,0l-3.743-1.315,7.79-26.305h3.845l-4.452-1.72,6.644-1.113-3.609-1.72,4.351-.716s-10.117-1.914-14.974-3.837a19.712,19.712,0,0,1-7.9-6.241c-3.932,17.4-7.768,35.121-8.089,39.359C582.6,406.2,582.6,406.447,582.583,406.689Z"/>
            <path class="cls-45" d="M598.26,438.238c.636-.633,1.388-1.354,2.271-2.159a33.081,33.081,0,0,0,5.969-8.094l-9.106,2.327,7.689-5.261s-1.518.607-6.779,2.631a30.1,30.1,0,0,1-9.392,1.725C590.6,431.175,594.194,434.53,598.26,438.238Z"/>
            <path class="cls-46" d="M589.561,371.722a39.266,39.266,0,0,0,10.869,4.959l5.868,1.525s-9,0-11.534-.911l-2.529-.911s7.285,4.158,9.612,4.76l2.327.6s-6.576.1-10.725-1.012-5.565-1.461-5.565-1.461Z"/>
            <polygon class="cls-44" points="586.935 383.618 602.15 389.235 586.259 386.757 586.935 383.618"/>
            <path class="cls-46" d="M584.909,393.172s8.54,2.234,12.182,3.347l3.642,1.113h-9.009l6.985,2.759L583.94,398Z"/>
            <path class="cls-44" d="M583.444,417.887a42.021,42.021,0,0,0,7.678.689,49.267,49.267,0,0,0,10.421-1.662,25.617,25.617,0,0,1-4.958,3.194c-3.44,1.807-6.475,3.021-6.475,3.021l6.374-.708a67.376,67.376,0,0,1-7.082,2.631l-3.051.861A20.477,20.477,0,0,1,583.444,417.887Z"/>
          </g>
          <path class="cls-38" d="M613.946,529.341a8.427,8.427,0,0,1,10.094,4.293c.733,1.381,2.83.155,2.1-1.226A10.874,10.874,0,0,0,613.3,527a1.215,1.215,0,0,0,.646,2.341Z"/>
          <path class="cls-38" d="M611.452,532.84a10.2,10.2,0,0,1,10.118,6.012c.672,1.41,2.766.179,2.1-1.226a12.57,12.57,0,0,0-12.215-7.214c-1.554.083-1.564,2.511,0,2.428Z"/>
          <path class="cls-38" d="M608.423,536.986a13.65,13.65,0,0,1,10.536,5.323c.939,1.222,3.049.014,2.1-1.226a16.27,16.27,0,0,0-12.633-6.525c-1.563-.046-1.562,2.382,0,2.428Z"/>
          <path class="cls-47" d="M576.837,286.637a9.279,9.279,0,0,0,7.492,6.5c8.408,1.1,14.095-10.04,13.856-13.028-.294-3.677-4.281-12.509-6.335-13.432s-12.938-1.585-16.222,7.425C574.372,277.547,575.693,283.05,576.837,286.637Z"/>
          <path class="cls-48" d="M580.309,266.4a13.288,13.288,0,0,0,4.662-1.565c1.484-1.1,1.086,3.286,1.086,3.286h-3.925Z"/>
          <g class="cls-3">
            <path class="cls-45" d="M608.636,291.409l-1.341,1.27c.267-.253.238-.816-.147-1.606l1.341-1.27C608.875,290.593,608.9,291.156,608.636,291.409Z"/>
            <path class="cls-45" d="M581.663,256.717c.264.123.453.127.55.035l-1.341,1.27c-.1.092-.286.088-.55-.035Z"/>
            <path class="cls-45" d="M580.072,255.107a3.948,3.948,0,0,0,1.591,1.61l-1.184,1.121-.157.148a3.948,3.948,0,0,1-1.591-1.61h0l1.341-1.27-1.341,1.27c-.163-.336-.175-.574-.062-.682l1.341-1.27C579.9,254.533,579.908,254.771,580.072,255.107Z"/>
            <path class="cls-45" d="M578.669,255.7l1.341-1.27c.1-.092.288-.087.555.037l-1.341,1.27C578.957,255.608,578.766,255.6,578.669,255.7Z"/>
            <path class="cls-45" d="M582.212,256.752l-1.341,1.27c.113-.107.1-.344-.06-.677a3.95,3.95,0,0,0-1.588-1.614l1.341-1.27a3.95,3.95,0,0,1,1.588,1.614C582.314,256.408,582.325,256.645,582.212,256.752Z"/>
            <path class="cls-19" d="M589.657,259.05a9.274,9.274,0,0,1,3.745,3.8l13.746,28.221c.715,1.468.2,2.151-1.153,1.52l-11.889-5.536a9.312,9.312,0,0,1-3.751-3.8L576.61,255.032c-.718-1.474-.2-2.148,1.159-1.518Zm-9.336-1.063c.57.266.791-.023.49-.641a3.95,3.95,0,0,0-1.588-1.614c-.576-.268-.8.02-.492.645a3.948,3.948,0,0,0,1.591,1.61"/>
            <path class="cls-45" d="M579.224,255.732a3.95,3.95,0,0,1,1.588,1.614c.3.618.081.907-.49.641a3.948,3.948,0,0,1-1.591-1.61C578.427,255.752,578.647,255.464,579.224,255.732Z"/>
            <path class="cls-45" d="M576.463,253.427l1.341-1.27c.23-.218.679-.205,1.306.087l-1.341,1.27C577.142,253.222,576.693,253.21,576.463,253.427Z"/>
            <polygon class="cls-45" points="577.769 253.514 579.109 252.244 590.998 257.78 589.657 259.05 577.769 253.514"/>
            <polygon class="cls-45" points="593.403 262.851 594.743 261.582 608.49 289.803 607.149 291.072 593.403 262.851"/>
            <path class="cls-45" d="M589.657,259.05,591,257.78a9.274,9.274,0,0,1,3.745,3.8l-1.341,1.27A9.274,9.274,0,0,0,589.657,259.05Z"/>
          </g>
          <path class="cls-43" d="M596.871,284.389l-4.244-11.428a4.4,4.4,0,0,0-1.966-2.291,2.808,2.808,0,0,0-2.3-4.553l-9.355.332a2.815,2.815,0,0,0-2.692,3.173l.075.584a2.815,2.815,0,0,0,3.069,2.442l1.586-.157a4.419,4.419,0,0,0-1.484,5.732l6.1,11.671a4.429,4.429,0,0,0,6.229,1.731l3.14-1.913A4.429,4.429,0,0,0,596.871,284.389Z"/>
          <g>
            <path class="cls-47" d="M607.245,261.041s-1.821,4.317-1.821,5.4a76.134,76.134,0,0,0,2.9,10.927c.472.674,3.575,1.956,4.047,1.349s-.4-2.428-.4-2.428l3.238-12.343-1.889-3.507Z"/>
            <path class="cls-43" d="M600.2,262.76c.419,1.815,7.723-1.079,8.532-1.349s4.62,1.484,4.62,1.484a28.969,28.969,0,0,0-5.43-.438c-1.214.236-1.113,1.585-.877,3s1.484,8.161,1.821,9.376a4.607,4.607,0,0,0,3.17,2.7,26.78,26.78,0,0,1,5.632,1.484,17.581,17.581,0,0,1,3.609,1.754,62.465,62.465,0,0,1,5.868,6.441c3.575,4.384,12.681,21.651,21.314,24.956s12.546-.337,13.625-5.6-5.6-14.906-8.9-17.132S630.92,275,629.369,273.249s-11.264-14.3-11.264-14.3l-8.3-2.091S599.691,260.568,600.2,262.76Z"/>
          </g>
        </g>
      </g>
    </g>
    <g>
      <path class="cls-2" d="M338.437,668.517h48.524a11.918,11.918,0,0,0,6.07-1.661L578.425,557.141a6.717,6.717,0,0,0-.514-11.836l-41.127-23.071-49.4,29.324L357.617,634.04Z"/>
      <g>
        <g class="cls-3">
          <polygon class="cls-49" points="547.7 408.69 547.447 548.443 515.101 567.241 515.355 427.487 547.7 408.69"/>
          <polygon class="cls-50" points="515.355 427.487 515.101 567.241 482.542 548.442 482.795 408.689 515.355 427.487"/>
          <polygon class="cls-51" points="547.7 408.69 515.355 427.487 482.795 408.689 515.141 389.892 547.7 408.69"/>
        </g>
        <g class="cls-3">
          <polygon class="cls-49" points="504.239 470.087 503.985 571.978 471.64 590.775 471.893 488.884 504.239 470.087"/>
          <polygon class="cls-50" points="471.893 488.884 471.64 590.775 439.08 571.977 439.333 470.086 471.893 488.884"/>
          <polygon class="cls-51" points="504.239 470.087 471.893 488.884 439.333 470.086 471.679 451.288 504.239 470.087"/>
        </g>
        <g class="cls-3">
          <polygon class="cls-49" points="460.08 525.385 459.911 597.489 427.563 616.288 427.732 544.184 460.08 525.385"/>
          <polygon class="cls-50" points="427.732 544.184 427.563 616.288 395.005 597.491 395.174 525.387 427.732 544.184"/>
          <polygon class="cls-51" points="460.08 525.385 427.732 544.184 395.174 525.387 427.522 506.588 460.08 525.385"/>
        </g>
        <g class="cls-3">
          <polygon class="cls-49" points="416.478 580.964 416.394 622.983 384.048 641.781 384.132 599.761 416.478 580.964"/>
          <polygon class="cls-50" points="384.132 599.761 384.048 641.781 351.489 622.982 351.572 580.963 384.132 599.761"/>
          <polygon class="cls-51" points="416.478 580.964 384.132 599.761 351.572 580.963 383.918 562.166 416.478 580.964"/>
        </g>
        <g class="cls-3">
          <polygon class="cls-49" points="371.42 623.256 371.337 649.72 338.991 668.517 339.075 642.053 371.42 623.256"/>
          <polygon class="cls-50" points="339.075 642.053 338.991 668.517 306.431 649.719 306.515 623.255 339.075 642.053"/>
          <polygon class="cls-51" points="371.42 623.256 339.075 642.053 306.515 623.255 338.861 604.458 371.42 623.256"/>
        </g>
      </g>
    </g>
    <g>
      <path class="cls-2" d="M518.425,656.042c-16.478-9.846-43.106-9.842-59.477,0s-16.284,25.805.194,35.651a52.027,52.027,0,0,0,16.361,6.045l-1.242,1.341h16.979l-.051-.065c9.993-.321,19.82-2.741,27.43-7.318C534.99,681.854,534.9,665.888,518.425,656.042Z"/>
      <g>
        <path class="cls-52" d="M593.908,621.095l-1.029-15.887a1.506,1.506,0,0,1,.9-1.322,4.461,4.461,0,0,1,2.285-.517l34.587.817c2.656.064,3.9,1.929,2.018,3.016l-24.641,14.227-13.593,7.848-8.649,4.994c-1.887,1.09-5.1.362-5.2-1.176l-.67-10.414a1.5,1.5,0,0,1,.9-1.32,4.446,4.446,0,0,1,2.282-.516l10.814.253m-14.17-9.1a13.816,13.816,0,0,1-12.538,0c-3.451-2.005-3.433-5.257.041-7.262a13.816,13.816,0,0,1,12.538,0c3.451,2.005,3.433,5.257-.041,7.262m15.184-39.349-71.542,41.3c-4.183,2.415-4.2,6.332-.049,8.746l47.5,27.6a16.641,16.641,0,0,0,15.1,0l71.542-41.3c4.183-2.415,4.205-6.331.049-8.746l-47.5-27.6a16.642,16.642,0,0,0-15.1,0"/>
        <path class="cls-13" d="M593.78,603.886a1.506,1.506,0,0,0-.9,1.322l1.029,15.887-10.814-.253a4.446,4.446,0,0,0-2.282.516,1.5,1.5,0,0,0-.9,1.32l.67,10.414c.1,1.539,3.317,2.266,5.2,1.176l8.649-4.994,13.593-7.848L632.67,607.2c1.883-1.087.638-2.951-2.018-3.016l-34.587-.817a4.461,4.461,0,0,0-2.285.517"/>
        <path class="cls-13" d="M567.241,604.731c-3.474,2.005-3.492,5.257-.041,7.262a13.816,13.816,0,0,0,12.538,0c3.473-2.005,3.492-5.257.041-7.262a13.816,13.816,0,0,0-12.538,0"/>
      </g>
      <g class="cls-3">
        <path class="cls-9" d="M520.229,657.881,520.184,674c-.018,6.412-4.089,12.813-12.221,17.7-16.371,9.846-43,9.842-59.477,0-8.292-4.954-12.433-11.457-12.415-17.95l.044-16.115c-.018,6.493,4.124,13,12.415,17.95,16.478,9.846,43.106,9.85,59.477,0C516.14,670.694,520.211,664.292,520.229,657.881Z"/>
        <path class="cls-53" d="M507.813,639.927c16.478,9.846,16.565,25.813.194,35.659s-43,9.842-59.477,0-16.565-25.8-.194-35.651S491.335,630.081,507.813,639.927Z"/>
      </g>
      <path class="cls-54" d="M508.007,673.463c-16.371,9.846-43,9.842-59.477,0-7.849-4.69-11.97-10.767-12.374-16.909-.507,6.847,3.621,13.8,12.374,19.032,16.478,9.846,43.106,9.85,59.477,0,8.573-5.156,12.624-11.99,12.18-18.746C519.74,662.885,515.683,668.847,508.007,673.463Z"/>
      <path class="cls-13" d="M460.387,653.407l24.318,14.505a1.154,1.154,0,0,0,1.685-.624l5.531-16.479a.8.8,0,0,0-.812-1.048l-30.371,2.167A.8.8,0,0,0,460.387,653.407Z"/>
    </g>
  </g>
</svg>
