<svg id="Layer_1" data-name="Layer 1" xmlns="http://www.w3.org/2000/svg" xmlns:xlink="http://www.w3.org/1999/xlink" viewBox="0 0 922 738">
  <defs>
    <style>
      .cls-1, .cls-7 {
        fill: none;
      }

      .cls-2, .cls-20, .cls-39 {
        fill: #3a273b;
      }

      .cls-19, .cls-2 {
        opacity: 0.25;
      }

      .cls-3 {
        isolation: isolate;
      }

      .cls-4 {
        fill: #4f2e43;
      }

      .cls-5 {
        fill: #996a7d;
      }

      .cls-6 {
        fill: #664057;
      }

      .cls-7 {
        stroke: #3a273b;
        stroke-miterlimit: 10;
        stroke-width: 5px;
      }

      .cls-8 {
        fill: #825667;
      }

      .cls-18, .cls-9 {
        fill: #fff;
      }

      .cls-9 {
        opacity: 0.33;
      }

      .cls-10 {
        fill: #fb9e3e;
      }

      .cls-11 {
        fill: #febc5a;
      }

      .cls-12 {
        fill: #ffdb56;
      }

      .cls-13 {
        clip-path: url(#clip-path);
      }

      .cls-14 {
        fill: #ff4558;
      }

      .cls-15 {
        fill: #cd2546;
      }

      .cls-16 {
        fill: #ff7b8e;
      }

      .cls-17, .cls-39 {
        opacity: 0.3;
      }

      .cls-21 {
        fill: url(#linear-gradient);
      }

      .cls-22 {
        fill: #ff4557;
      }

      .cls-23 {
        fill: url(#linear-gradient-2);
      }

      .cls-24 {
        opacity: 0.72;
      }

      .cls-25 {
        fill: #fff1ee;
      }

      .cls-26 {
        fill: #ffaebe;
      }

      .cls-27 {
        clip-path: url(#clip-path-2);
      }

      .cls-28 {
        clip-path: url(#clip-path-3);
      }

      .cls-29 {
        fill: #cc2545;
      }

      .cls-30 {
        fill: #fcb9a9;
      }

      .cls-31 {
        fill: #3b4a51;
      }

      .cls-32 {
        opacity: 0.6;
      }

      .cls-33 {
        fill: url(#linear-gradient-3);
      }

      .cls-34 {
        fill: url(#linear-gradient-4);
      }

      .cls-35 {
        opacity: 0.71;
      }

      .cls-36 {
        fill: #b7bde8;
        opacity: 0.65;
      }

      .cls-37 {
        fill: url(#linear-gradient-5);
      }

      .cls-38 {
        fill: #e5f1fe;
      }

      .cls-40 {
        fill: #e6f4ff;
      }

      .cls-41 {
        fill: #333;
      }

      .cls-42 {
        fill: #3f6383;
      }

      .cls-43 {
        fill: #2b4f6f;
      }

      .cls-44 {
        fill: #ea9686;
      }

      .cls-45 {
        fill: #c56a58;
      }

      .cls-46 {
        fill: #eea99a;
      }

      .cls-47 {
        fill: #ff5a72;
      }

      .cls-48 {
        fill: #52789d;
      }

      .cls-49 {
        fill: #8bb3d7;
      }

      .cls-50 {
        fill: #f0a89a;
      }
    </style>
    <clipPath id="clip-path">
      <path class="cls-1" d="M247.355,188.572a17.641,17.641,0,0,0-6.4-7.1c-4.664-2.693-8.457-.531-8.472,4.829l-.022,14.632-110.688,91.3-2.045-1.188a3.543,3.543,0,0,0-3.658.2,6.536,6.536,0,0,0-.694.465c-2.987,2.273-4.906,7.38-4.287,11.409a5.134,5.134,0,0,0,2.174,3.832l8.3,4.825c-.01-.006-.019-.014-.029-.02a3.546,3.546,0,0,0,3.7-.186,6.557,6.557,0,0,0,.693-.464,11.127,11.127,0,0,0,3.3-4.564l108.89-78.588,7.307,4.219c2.145,1.238,3.889.245,3.9-2.22l.016-10.542.036-23.36A16.62,16.62,0,0,0,247.355,188.572Z"/>
    </clipPath>
    <linearGradient id="linear-gradient" x1="849.39" y1="253.851" x2="515.456" y2="43.903" gradientUnits="userSpaceOnUse">
      <stop offset="0" stop-color="#ff4557"/>
      <stop offset="1" stop-color="#f0b851"/>
    </linearGradient>
    <linearGradient id="linear-gradient-2" x1="845.657" y1="259.789" x2="511.723" y2="49.84" xlink:href="#linear-gradient"/>
    <clipPath id="clip-path-2">
      <path class="cls-1" d="M534.635,151.036c-16.571-9.567-30.045-1.882-30.1,17.159s13.333,42.229,29.9,51.8,30.046,1.889,30.1-17.153-13.333-42.235-29.9-51.8"/>
    </clipPath>
    <clipPath id="clip-path-3">
      <path class="cls-1" d="M562.6,235.067l-60.066-34.679a3.71,3.71,0,0,1-1.684-2.914l.18-63.522c0-1.069.762-1.5,1.7-.963l60.066,34.679a3.71,3.71,0,0,1,1.684,2.914L564.3,234.1c0,1.069-.762,1.5-1.7.963"/>
    </clipPath>
    <linearGradient id="linear-gradient-3" x1="561.306" y1="453.921" x2="992.104" y2="319.984" gradientUnits="userSpaceOnUse">
      <stop offset="0" stop-color="#96ea8b"/>
      <stop offset="1" stop-color="#1cb1c8"/>
    </linearGradient>
    <linearGradient id="linear-gradient-4" x1="214.648" y1="551.231" x2="734.551" y2="389.59" xlink:href="#linear-gradient-3"/>
    <linearGradient id="linear-gradient-5" x1="373.329" y1="548.761" x2="637.903" y2="438.991" xlink:href="#linear-gradient"/>
  </defs>
  <title>Kaykushal 6</title>
  <g>
    <g>
      <g>
        <g>
          <path class="cls-2" d="M519.81,399.577l-4.6-7.254c-.133.085-2.909,1.844-7.78,4.935L480.8,372.988c.07-15.258-9.373-30.544-28.32-42.185-37.595-23.1-98.344-23.1-135.695,0s-37.152,60.546.442,83.644,98.344,23.1,135.695,0q1.626-1.005,3.153-2.048l35.569-5.115c-25.509,16.2-68.242,43.39-110.613,70.518q-18.741,12-35,22.452A47.4,47.4,0,0,0,335.962,487.7a80.113,80.113,0,0,0-49.827-20.925L261.159,465.3l5.921,15.987a66.313,66.313,0,0,0-19.045,7.747c-22.023,13.62-21.906,35.7.261,49.319.44.27.9.518,1.353.778l-1.714,5.687,25.552,2.521c-6.06,4-11.108,7.373-15.082,10.072q-3.888,2.64-6.5,4.485l-29.534-26.915c.176-15.341-9.265-30.731-28.317-42.437-37.595-23.1-98.344-23.1-135.695,0s-37.152,60.546.442,83.644,98.344,23.1,135.695,0c.07-.043.137-.088.207-.131l50.394-7.248c-.019.175,4.137.32,7.218.481a10.27,10.27,0,0,0,6.279-1.733c4.7-3.162,14.689-9.849,28.667-19.006A90.07,90.07,0,0,0,305.07,547c19.73-2.556,43.137-9.452,44.028-32.183a31.658,31.658,0,0,0-.339-6.1C399.445,476.1,461.45,436.587,512.352,404.305l2.429-.349-.771-.7ZM202.467,570.6c11.257-8.967,17.736-19.478,19.45-30.23l26,23.693ZM500.474,401.676l-37.414,5.381c9.993-8.621,15.766-18.53,17.317-28.647l23.3,21.233Z"/>
          <g>
            <g class="cls-3">
              <path class="cls-4" d="M480.628,299.189c-.04,14.423-9.356,28.824-27.965,39.829-37.455,22.15-98.385,22.153-136.085,0-18.973-11.147-28.448-25.778-28.407-40.387.066,1.946.28,4.537.533,6.466a32.855,32.855,0,0,0,.79,3.638,43.383,43.383,0,0,0,3.8,9.455c.937,1.688,2.34,3.85,3.439,5.434a43.278,43.278,0,0,0,2.714,3.44c1.32,1.508,3.16,3.45,4.611,4.827,1.408,1.337,3.379,3.018,4.908,4.209a84.444,84.444,0,0,0,10.167,6.8,103.359,103.359,0,0,0,11.613,5.694c1.816.705,4.226,1.682,6.063,2.329,1.939.682,4.536,1.572,6.521,2.1,3.949,1.048,9.252,2.306,13.248,3.151,2.075.439,4.882.8,6.976,1.129,3.232.511,10.9,1.2,14.04,1.273,2.13.048,4.97.159,7.1.159s4.96-.112,7.086-.16,4.939-.332,7.055-.479c.059,0,6.472-.522,13.929-1.924a135.787,135.787,0,0,0,13.488-3.232,118.881,118.881,0,0,0,12.823-4.583,97.941,97.941,0,0,0,11.919-6,82.558,82.558,0,0,0,10.067-6.971c1.61-1.317,3.659-3.193,5.155-4.643,1.012-.981,2.266-2.386,3.193-3.45,1.3-1.5,2.861-3.656,3.994-5.293.711-1.027,1.5-2.5,2.144-3.574a44.719,44.719,0,0,0,2.631-5.806,35.437,35.437,0,0,0,1.717-6.1A63.549,63.549,0,0,0,480.628,299.189Z"/>
              <path class="cls-4" d="M480.634,297.249l-.005,1.94c-.04,14.423-9.356,28.824-27.965,39.829-37.455,22.15-98.385,22.153-136.085,0-18.973-11.147-28.448-25.778-28.407-40.387l.005-1.94c-.041,14.609,9.434,29.241,28.407,40.387,37.7,22.15,98.63,22.147,136.085,0C471.278,326.073,480.593,311.672,480.634,297.249Z"/>
              <path class="cls-5" d="M450.573,253.509c1.451.915,3.425,2.075,4.837,3.051A68.711,68.711,0,0,1,461,260.713c2.2,1.922,5.075,4.574,7.1,6.688a43.048,43.048,0,0,1,3.965,4.856,46.385,46.385,0,0,1,6.56,12.609,40.033,40.033,0,0,1,1.471,5.917,57.117,57.117,0,0,1,.533,6.466c-.04,14.423-9.356,28.824-27.965,39.829-37.455,22.15-98.385,22.153-136.085,0-18.973-11.147-28.448-25.778-28.407-40.387h0c.056-1.1.043-2.582.188-3.676a54.754,54.754,0,0,1,1.109-6.112,34.746,34.746,0,0,1,1.15-3.646c.711-1.777,1.755-4.108,2.631-5.806a35.846,35.846,0,0,1,2.144-3.574c1.133-1.637,2.728-3.76,3.994-5.293a75.2,75.2,0,0,1,6.771-6.771,53.5,53.5,0,0,1,5.877-4.574c1.717-1.135,4-2.66,5.765-3.717,1.567-.938,3.69-2.139,5.335-2.929,1.965-.944,4.584-2.207,6.586-3.068,1.78-.766,4.192-1.7,6.013-2.356,2.022-.733,4.751-1.614,6.81-2.227,1.942-.579,4.567-1.225,6.525-1.746a135.854,135.854,0,0,1,13.833-2.6c6.637-.924,12.065-1.191,14.115-1.287,3.6-.167,8.549-.255,14.186,0,4.482.2,5.959.293,14.04,1.273.061.007,6.29.787,13.67,2.548,1.978.472,4.6,1.161,6.554,1.733,1.972.578,4.569,1.456,6.522,2.1,1.85.609,4.266,1.575,6.064,2.329,1.882.789,4.342,1.96,6.2,2.813a68.976,68.976,0,0,1,6.319,3.4c-1.747-1.026-4.709-.628-8.072,1.36-32.268-18.965-84.468-18.965-116.526,0s-31.9,49.727.38,68.685c32.263,18.963,84.468,18.961,116.522,0,32.071-18.958,31.9-49.728-.376-68.683C445.864,252.88,448.826,252.483,450.573,253.509Z"/>
            </g>
            <g>
              <path class="cls-4" d="M325.974,259.766c32.058-18.966,84.259-18.966,116.526,0,15.137,8.89,23.213,20.379,24.212,32.029,1.12-13.278-6.955-26.79-24.212-36.925-32.268-18.965-84.468-18.965-116.526,0-17.027,10.066-24.966,23.462-23.834,36.653C303.115,279.966,311.053,268.587,325.974,259.766Z"/>
              <path class="cls-6" d="M326.354,323.555c32.263,18.963,84.468,18.96,116.522,0,14.924-8.822,22.862-20.2,23.836-31.758-1-11.65-9.075-23.139-24.212-32.029-32.268-18.965-84.468-18.965-116.526,0-14.922,8.821-22.86,20.2-23.834,31.757C303.14,303.174,311.215,314.664,326.354,323.555Z"/>
            </g>
          </g>
          <line class="cls-7" x1="380.213" y1="114.244" x2="442.438" y2="252.601"/>
          <circle class="cls-4" cx="440.828" cy="251.407" r="4.68"/>
          <line class="cls-7" x1="317.932" y1="333.898" x2="378.797" y2="113.95"/>
          <circle class="cls-4" cx="319.147" cy="330.843" r="4.68"/>
          <g>
            <g>
              <path class="cls-5" d="M296.526,471.21c21.527,13.167,21.64,34.514.253,47.682s-56.172,13.168-77.7,0-21.64-34.514-.253-47.682S275,458.043,296.526,471.21Z"/>
              <g>
                <path class="cls-6" d="M202.861,494.885l-.044,16.612c-.019,7.014,3.512,14.036,10.577,19.969V514.815C206.359,508.89,202.842,501.884,202.861,494.885Z"/>
                <path class="cls-6" d="M227.941,523.3v16.629c16.671,6.657,37.89,7.216,55.265,1.675V525C265.824,530.533,244.6,529.965,227.941,523.3Z"/>
                <path class="cls-8" d="M219.08,518.892a46.348,46.348,0,0,1-5.687-4.077v16.652a46.471,46.471,0,0,0,5.642,4.038,59.008,59.008,0,0,0,8.906,4.421V523.3A58.931,58.931,0,0,1,219.08,518.892Z"/>
                <path class="cls-4" d="M312.7,511.83l.044-16.612c-.023,8.573-5.341,17.133-15.966,23.674A61.39,61.39,0,0,1,283.206,525v16.6a61.375,61.375,0,0,0,13.528-6.1C307.359,528.963,312.678,520.4,312.7,511.83Z"/>
              </g>
              <path class="cls-9" d="M304.639,477.52c11.365,12.782,8.308,29.1-9.246,39.9-21.387,13.168-56.172,13.168-77.7,0a43.476,43.476,0,0,1-8.113-6.31,41.794,41.794,0,0,0,9.5,7.778c21.527,13.167,56.312,13.167,77.7,0C315.012,507.666,317.605,490.5,304.639,477.52Z"/>
            </g>
            <g>
              <path class="cls-10" d="M271.01,423.606c.312,1.6.7,3.747,1.059,5.338.683,3.006,1.274,5.6,2.013,8.177.849,2.955,1.316,4.582,2.359,7.626,1.347,3.931,2.636,6.96,2.648,6.99,1,2.322,1.6,3.724,2.863,6.256,1.3,2.592,2.583,4.78,2.97,5.4A53.043,53.043,0,0,0,289,469.333a28.368,28.368,0,0,0,3.028,3.307,3.1,3.1,0,0,1-.285-.185c-.55-.368-1.464-.892-1.82-1.088q1.457.791,2.83,1.666c7.664,4.887,12.046,10.975,13.178,17.241C289.246,477.68,276.428,453.573,271.01,423.606Z"/>
              <path class="cls-11" d="M225.594,471.571a18.975,18.975,0,0,0-2.212,1.385c.127-.114.3-.261.425-.381.268-.262.624-.611.876-.89.651-.721,1.484-1.719,2.09-2.484.013-.017,1.367-1.738,2.908-4.19,1.115-1.774,2.128-3.554,3.188-5.6,1.475-2.851,2.644-5.578,2.864-6.1a118.4,118.4,0,0,0,4.982-14.11c1.053-3.656,1.74-6.652,2.07-8.092.3-1.3.654-3.042.915-4.35.184-.919.4-2.151.569-3.073-5.258,30-17.946,54.185-34.564,66.881,1.176-6.709,6.061-13.217,14.613-18.27Q224.948,471.927,225.594,471.571Z"/>
              <path class="cls-12" d="M209.7,490.569c16.618-12.7,29.306-36.881,34.564-66.881-.41,2.341.8,4.769,3.667,6.594-3.794,32.633-12.984,63.108-25.035,84.016C212.6,507.73,208.228,498.991,209.7,490.569Z"/>
              <path class="cls-12" d="M247.935,430.282c-5.143-3.279-4.967-8.5.394-11.672s13.875-3.075,19.018.2,4.967,8.5-.394,11.672S253.078,433.562,247.935,430.282Z"/>
              <g>
                <path class="cls-10" d="M305.931,490.273c-16.686-12.593-29.5-36.7-34.921-66.668.445,2.463-.916,5.025-4.056,6.88a14.125,14.125,0,0,1-1.269.655c5.217,35.131,13.849,64.438,24.67,84.441.327-.183.66-.361.981-.551C302.636,508.356,307.534,499.137,305.931,490.273Z"/>
                <path class="cls-11" d="M265.684,431.141c-5.362,2.474-12.994,2.173-17.749-.859-2.8,24.126-8.562,47.069-16.242,65.842A151.075,151.075,0,0,1,222.9,514.3a48.407,48.407,0,0,0,5.141,2.836c18.319,8.763,44.7,8.3,62.313-1.552C279.534,495.579,270.9,466.272,265.684,431.141Z"/>
              </g>
            </g>
          </g>
          <g>
            <path class="cls-5" d="M267.386,216.949c5.016,2.9,5.042,7.589.059,10.485s-13.082,2.894-18.1,0-5.038-7.587-.059-10.481S262.374,214.055,267.386,216.949Z"/>
            <g>
              <path class="cls-11" d="M249.347,227.432c-2.522-1.456-3.782-3.368-3.776-5.277l-.726,211.069c-.005,1.909,1.254,3.821,3.776,5.277,4.683,2.7,12.054,2.881,17.064.539l.1-210.8C260.8,230.289,253.838,230.025,249.347,227.432Z"/>
              <path class="cls-10" d="M267.445,227.434a13.7,13.7,0,0,1-1.664.805l-.1,210.8c.357-.167.7-.344,1.034-.537,2.476-1.438,3.715-3.321,3.72-5.206l.726-211.069C271.159,224.113,269.92,226,267.445,227.434Z"/>
            </g>
          </g>
          <g>
            <g class="cls-3">
              <path class="cls-4" d="M223.644,495.2c-.04,14.423-9.356,28.824-27.965,39.829-37.455,22.15-98.385,22.153-136.085,0C40.621,523.88,31.146,509.249,31.186,494.64c.066,1.946.28,4.537.533,6.466a32.855,32.855,0,0,0,.79,3.638,43.383,43.383,0,0,0,3.8,9.455c.937,1.688,2.34,3.85,3.439,5.434a43.278,43.278,0,0,0,2.714,3.44c1.32,1.508,3.16,3.45,4.611,4.827,1.408,1.337,3.379,3.018,4.908,4.209a84.444,84.444,0,0,0,10.167,6.8A103.359,103.359,0,0,0,73.764,544.6c1.816.705,4.226,1.682,6.063,2.329,1.939.682,4.536,1.572,6.521,2.1,3.949,1.048,9.252,2.306,13.248,3.151,2.075.439,4.882.8,6.976,1.129,3.232.511,10.9,1.2,14.04,1.273,2.13.048,4.97.159,7.1.159s4.96-.112,7.086-.16,4.939-.332,7.055-.479c.059,0,6.472-.522,13.929-1.924a135.787,135.787,0,0,0,13.488-3.232,118.881,118.881,0,0,0,12.823-4.583,97.941,97.941,0,0,0,11.919-6,82.558,82.558,0,0,0,10.067-6.971c1.61-1.317,3.659-3.193,5.155-4.643,1.012-.981,2.266-2.386,3.193-3.45,1.3-1.5,2.861-3.656,3.994-5.293.711-1.027,1.5-2.5,2.144-3.574a44.719,44.719,0,0,0,2.631-5.806,35.437,35.437,0,0,0,1.717-6.1A63.549,63.549,0,0,0,223.644,495.2Z"/>
              <path class="cls-4" d="M223.649,493.255l-.005,1.94c-.04,14.423-9.356,28.824-27.965,39.829-37.455,22.15-98.385,22.153-136.085,0C40.621,523.88,31.146,509.249,31.186,494.64l.005-1.94c-.041,14.609,9.434,29.241,28.407,40.387,37.7,22.15,98.63,22.147,136.085,0C214.294,522.079,223.609,507.678,223.649,493.255Z"/>
              <path class="cls-5" d="M193.588,449.515c1.451.915,3.425,2.075,4.837,3.051a68.711,68.711,0,0,1,5.592,4.153c2.2,1.922,5.075,4.574,7.1,6.688a43.048,43.048,0,0,1,3.965,4.856,46.385,46.385,0,0,1,6.56,12.609,40.033,40.033,0,0,1,1.471,5.917,57.117,57.117,0,0,1,.533,6.466c-.04,14.423-9.356,28.824-27.965,39.829-37.455,22.15-98.385,22.153-136.085,0C40.626,521.941,31.151,507.309,31.192,492.7h0c.056-1.1.043-2.582.188-3.676a54.754,54.754,0,0,1,1.109-6.112,34.746,34.746,0,0,1,1.15-3.646c.711-1.777,1.755-4.108,2.631-5.806a35.846,35.846,0,0,1,2.144-3.574c1.133-1.637,2.728-3.76,3.994-5.293a75.2,75.2,0,0,1,6.771-6.771,53.5,53.5,0,0,1,5.877-4.574c1.717-1.135,4-2.66,5.765-3.717,1.567-.938,3.69-2.139,5.335-2.929,1.965-.944,4.584-2.207,6.586-3.068,1.78-.766,4.192-1.7,6.013-2.356,2.022-.733,4.751-1.614,6.81-2.227,1.942-.579,4.567-1.225,6.525-1.746a135.854,135.854,0,0,1,13.833-2.6c6.637-.924,12.065-1.191,14.115-1.287,3.6-.167,8.549-.255,14.186,0,4.482.2,5.959.293,14.04,1.273.061.007,6.29.787,13.67,2.548,1.978.472,4.6,1.161,6.554,1.733,1.972.578,4.569,1.456,6.522,2.1,1.85.609,4.266,1.575,6.064,2.329,1.882.789,4.342,1.96,6.2,2.813a68.976,68.976,0,0,1,6.319,3.4c-1.747-1.026-4.709-.628-8.072,1.36-32.268-18.965-84.468-18.965-116.526,0s-31.9,49.727.38,68.685c32.263,18.963,84.468,18.961,116.522,0,32.071-18.958,31.9-49.728-.376-68.683C188.879,448.887,191.841,448.489,193.588,449.515Z"/>
            </g>
            <g>
              <path class="cls-4" d="M68.99,455.772c32.058-18.966,84.259-18.966,116.526,0,15.137,8.89,23.213,20.379,24.212,32.029,1.12-13.278-6.955-26.79-24.212-36.925-32.268-18.965-84.468-18.965-116.526,0-17.027,10.066-24.966,23.462-23.834,36.653C46.13,475.973,54.068,464.593,68.99,455.772Z"/>
              <path class="cls-6" d="M69.37,519.561c32.263,18.963,84.468,18.96,116.522,0,14.924-8.822,22.862-20.2,23.836-31.758-1-11.65-9.075-23.139-24.212-32.029-32.268-18.965-84.468-18.965-116.526,0-14.922,8.821-22.86,20.2-23.834,31.757C46.155,499.18,54.23,510.67,69.37,519.561Z"/>
            </g>
          </g>
          <line class="cls-7" x1="123.229" y1="302.088" x2="185.454" y2="448.728"/>
          <circle class="cls-4" cx="183.844" cy="447.413" r="4.68"/>
          <circle class="cls-4" cx="62.162" cy="526.849" r="4.68"/>
          <g class="cls-3">
            <path class="cls-5" d="M376.389,98.121l8.3,4.825a3.556,3.556,0,0,0-3.671.207l-8.3-4.825A3.556,3.556,0,0,1,376.389,98.121Z"/>
            <path class="cls-5" d="M375.983,112.352l-8.3-4.825c.307-3.392,1.994-6.946,4.35-8.739a6.562,6.562,0,0,1,.687-.46l8.3,4.825a6.562,6.562,0,0,0-.687.46C377.977,105.406,376.29,108.96,375.983,112.352Z"/>
            <polygon class="cls-5" points="252.494 197.534 244.191 192.709 367.68 107.527 375.983 112.352 252.494 197.534"/>
            <polygon class="cls-12" points="255.431 216.575 247.128 211.75 244.191 192.709 252.494 197.534 255.431 216.575"/>
            <path class="cls-4" d="M381.02,103.154c2.736-1.58,5.27-.086,5.846,3.631.619,4.023-1.3,9.128-4.287,11.409a6.47,6.47,0,0,1-.682.457,3.717,3.717,0,0,1-3.183.43l-123.283,97.5-2.937-19.041,123.489-85.183c.307-3.392,1.994-6.946,4.35-8.739A6.562,6.562,0,0,1,381.02,103.154Z"/>
          </g>
          <g class="cls-3">
            <path class="cls-10" d="M283.222,228.273l-26.186,15.217c1.456-.846,2.359-2.646,2.366-5.2l26.186-15.217C285.58,225.628,284.678,227.427,283.222,228.273Z"/>
            <polygon class="cls-10" points="259.51 200.281 285.695 185.064 285.588 223.07 259.402 238.288 259.51 200.281"/>
            <path class="cls-12" d="M229.374,168.6l26.186-15.217c3.207-1.864,7.649-1.6,12.551,1.229l-26.186,15.217C237.023,166.994,232.582,166.732,229.374,168.6Z"/>
            <path class="cls-12" d="M241.926,169.825l26.186-15.217c9.743,5.625,17.616,19.261,17.584,30.456L259.51,200.281C259.541,189.086,251.669,175.45,241.926,169.825Z"/>
            <path class="cls-11" d="M241.926,169.825c9.743,5.625,17.616,19.261,17.584,30.456l-.108,38.007c-.015,5.148-3.658,7.224-8.138,4.638l-19.06-11c-4.479-2.586-8.1-8.855-8.084-14l.108-38.007C224.26,168.716,232.183,164.2,241.926,169.825Z"/>
          </g>
          <path class="cls-6" d="M240.952,181.469c4.664,2.693,8.433,9.221,8.418,14.58l-.052,33.9c-.007,2.464-1.751,3.458-3.9,2.22L236.3,226.9a8.529,8.529,0,0,1-3.87-6.7l.052-33.9C232.495,180.938,236.288,178.776,240.952,181.469Z"/>
          <g>
            <path class="cls-10" d="M265.692,153.229c0,7.918-6.419,11.98-14.336,11.98s-14.336-4.062-14.336-11.98,6.419-16.692,14.336-16.692S265.692,145.312,265.692,153.229Z"/>
            <ellipse class="cls-11" cx="248.057" cy="148.223" rx="9.493" ry="8.238" transform="translate(-32.155 218.816) rotate(-45)"/>
            <ellipse class="cls-12" cx="245.42" cy="145.585" rx="5.195" ry="4.508" transform="translate(-31.063 216.179) rotate(-45)"/>
          </g>
          <g class="cls-13">
            <g class="cls-3">
              <polygon class="cls-5" points="129.52 297.51 121.217 292.684 248.568 187.566 256.871 192.391 129.52 297.51"/>
              <path class="cls-5" d="M121.563,311.774l-8.3-4.825a5.134,5.134,0,0,1-2.174-3.832c-.619-4.029,1.3-9.136,4.287-11.409a6.5,6.5,0,0,1,.694-.465,3.542,3.542,0,0,1,3.658-.2l8.3,4.825a3.542,3.542,0,0,0-3.658.2,6.5,6.5,0,0,0-.694.465c-2.987,2.273-4.906,7.38-4.287,11.409A5.134,5.134,0,0,0,121.563,311.774Z"/>
              <path class="cls-4" d="M256.871,192.391l2.937,19.041L129.224,306.54a11.126,11.126,0,0,1-3.3,4.564,6.53,6.53,0,0,1-.693.464c-2.734,1.579-5.27.082-5.846-3.626-.619-4.029,1.3-9.136,4.287-11.409a6.5,6.5,0,0,1,.694-.465,3.43,3.43,0,0,1,5.151,1.442Z"/>
            </g>
          </g>
          <path class="cls-4" d="M429.929,285.939c-16.876-9.743-44.147-9.743-60.913,0s-16.683,25.543.193,35.286,44.147,9.743,60.918,0S446.805,295.682,429.929,285.939Z"/>
          <g>
            <g>
              <g>
                <path class="cls-11" d="M410.784,276.795c14.417,8.324,14.493,21.818.175,30.138s-37.619,8.324-52.037,0-14.493-21.817-.17-30.142S396.366,268.471,410.784,276.795Z"/>
                <g>
                  <path class="cls-14" d="M354.493,309.507c-.308-.178-.6-.362-.895-.544v12.577c.285.174.563.351.859.522,10.272,5.93,24.394,8.244,37.656,6.954V316.465C378.862,317.747,364.756,315.432,354.493,309.507Z"/>
                  <path class="cls-14" d="M341.779,291.744l-.036,12.555a16.227,16.227,0,0,0,3.01,9.213V300.9A16.2,16.2,0,0,1,341.779,291.744Z"/>
                  <path class="cls-15" d="M415.411,309.5c-6.572,3.819-14.758,6.135-23.3,6.961v12.552c8.527-.829,16.7-3.144,23.262-6.958,8.329-4.84,12.5-11.175,12.517-17.518l.036-12.555C427.91,298.329,423.741,304.663,415.411,309.5Z"/>
                  <path class="cls-16" d="M344.753,300.9v12.61a28.43,28.43,0,0,0,8.846,8.028V308.964A28.338,28.338,0,0,1,344.753,300.9Z"/>
                </g>
                <path class="cls-16" d="M415.213,274.221c-16.876-9.743-44.147-9.743-60.913,0s-16.683,25.543.193,35.286,44.147,9.743,60.918,0S432.089,283.964,415.213,274.221Z"/>
                <g class="cls-17">
                  <path class="cls-18" d="M415.411,307.792c-16.772,9.746-44.042,9.747-60.918,0-8.111-4.683-12.333-10.765-12.68-16.9-.411,6.7,3.814,13.494,12.68,18.612,16.876,9.743,44.147,9.743,60.918,0,8.706-5.059,12.856-11.751,12.482-18.38C427.522,297.18,423.369,303.168,415.411,307.792Z"/>
                </g>
              </g>
              <g>
                <path class="cls-18" d="M380.784,278.809c-4.408-2.545-11.529-2.545-15.907,0-2.354,1.368-3.433,3.192-3.246,4.982.161,1.541,1.26,3.056,3.3,4.233,4.408,2.545,11.53,2.545,15.909,0,2.009-1.168,3.088-2.668,3.245-4.2C384.267,282.025,383.169,280.186,380.784,278.809Z"/>
                <path class="cls-18" d="M421.574,292.239a12.841,12.841,0,0,0-.945-6.225c-10.877-4.068-25.514-3.354-34.99,2.153-5.862,3.406-8.552,7.95-8.086,12.408.4,3.837,3.137,7.611,8.215,10.543.624.36,1.276.694,1.941,1.013,8.484-.364,16.783-2.408,23.251-6.167C417.531,302.145,421.061,297.237,421.574,292.239Z"/>
              </g>
            </g>
            <g>
              <g>
                <path class="cls-11" d="M415.078,262.482c14.417,8.324,14.493,21.818.175,30.138s-37.619,8.324-52.037,0-14.493-21.817-.17-30.142S400.66,254.158,415.078,262.482Z"/>
                <g>
                  <path class="cls-14" d="M358.787,295.194c-.308-.178-.6-.362-.895-.544v12.577c.285.174.563.351.859.522,10.272,5.93,24.394,8.244,37.656,6.954V302.152C383.155,303.434,369.05,301.12,358.787,295.194Z"/>
                  <path class="cls-14" d="M346.073,277.431l-.036,12.555a16.227,16.227,0,0,0,3.01,9.213V286.59A16.2,16.2,0,0,1,346.073,277.431Z"/>
                  <path class="cls-15" d="M419.705,295.191c-6.572,3.819-14.758,6.135-23.3,6.961V314.7c8.527-.829,16.7-3.144,23.262-6.958,8.329-4.84,12.5-11.175,12.517-17.518l.036-12.555C432.2,284.016,428.034,290.351,419.705,295.191Z"/>
                  <path class="cls-16" d="M349.047,286.59V299.2a28.43,28.43,0,0,0,8.846,8.028V294.651A28.338,28.338,0,0,1,349.047,286.59Z"/>
                </g>
                <path class="cls-16" d="M419.507,259.908c-16.876-9.743-44.147-9.743-60.913,0s-16.683,25.543.193,35.286,44.147,9.743,60.918,0S436.382,269.651,419.507,259.908Z"/>
                <g class="cls-17">
                  <path class="cls-18" d="M419.705,293.479c-16.772,9.746-44.042,9.747-60.918,0-8.111-4.683-12.333-10.765-12.68-16.9-.411,6.7,3.814,13.494,12.68,18.612,16.876,9.743,44.147,9.743,60.918,0,8.706-5.059,12.856-11.751,12.482-18.38C431.816,282.868,427.662,288.855,419.705,293.479Z"/>
                </g>
              </g>
              <g>
                <path class="cls-18" d="M385.078,264.5c-4.408-2.545-11.529-2.545-15.907,0-2.354,1.368-3.433,3.192-3.246,4.982.161,1.541,1.26,3.056,3.3,4.233,4.408,2.545,11.53,2.545,15.909,0,2.009-1.168,3.088-2.668,3.245-4.2C388.561,267.712,387.463,265.873,385.078,264.5Z"/>
                <path class="cls-18" d="M425.868,277.927a12.841,12.841,0,0,0-.945-6.225c-10.877-4.068-25.514-3.354-34.99,2.153-5.862,3.406-8.552,7.95-8.086,12.408.4,3.837,3.137,7.611,8.215,10.543.624.36,1.276.694,1.941,1.013,8.484-.364,16.783-2.408,23.251-6.167C421.825,287.833,425.355,282.924,425.868,277.927Z"/>
              </g>
            </g>
            <g>
              <g>
                <path class="cls-11" d="M415.078,248.169c14.417,8.324,14.493,21.818.175,30.138s-37.619,8.324-52.037,0-14.493-21.817-.17-30.142S400.66,239.845,415.078,248.169Z"/>
                <g>
                  <path class="cls-14" d="M358.787,280.882c-.308-.178-.6-.362-.895-.544v12.577c.285.174.563.351.859.522,10.272,5.93,24.394,8.244,37.656,6.954V287.839C383.155,289.121,369.05,286.807,358.787,280.882Z"/>
                  <path class="cls-14" d="M346.073,263.118l-.036,12.555a16.227,16.227,0,0,0,3.01,9.213v-12.61A16.2,16.2,0,0,1,346.073,263.118Z"/>
                  <path class="cls-15" d="M419.705,280.878c-6.572,3.819-14.758,6.135-23.3,6.961v12.552c8.527-.829,16.7-3.144,23.262-6.958,8.329-4.84,12.5-11.175,12.517-17.518l.036-12.555C432.2,269.7,428.034,276.038,419.705,280.878Z"/>
                  <path class="cls-16" d="M349.047,272.277v12.61a28.43,28.43,0,0,0,8.846,8.028V280.338A28.338,28.338,0,0,1,349.047,272.277Z"/>
                </g>
                <path class="cls-16" d="M419.507,245.6c-16.876-9.743-44.147-9.743-60.913,0s-16.683,25.543.193,35.286,44.147,9.743,60.918,0S436.382,255.338,419.507,245.6Z"/>
                <g class="cls-17">
                  <path class="cls-18" d="M419.705,279.167c-16.772,9.746-44.042,9.747-60.918,0-8.111-4.683-12.333-10.765-12.68-16.9-.411,6.7,3.814,13.494,12.68,18.612,16.876,9.743,44.147,9.743,60.918,0,8.706-5.059,12.856-11.751,12.482-18.38C431.816,268.555,427.662,274.543,419.705,279.167Z"/>
                </g>
              </g>
              <g>
                <path class="cls-18" d="M385.078,250.183c-4.408-2.545-11.529-2.545-15.907,0-2.354,1.368-3.433,3.192-3.246,4.982.161,1.541,1.26,3.056,3.3,4.233,4.408,2.545,11.53,2.545,15.909,0,2.009-1.168,3.088-2.668,3.245-4.2C388.561,253.4,387.463,251.56,385.078,250.183Z"/>
                <path class="cls-18" d="M425.868,263.614a12.841,12.841,0,0,0-.945-6.225c-10.877-4.068-25.514-3.354-34.99,2.153-5.862,3.406-8.552,7.95-8.086,12.408.4,3.837,3.137,7.611,8.215,10.543.624.36,1.276.694,1.941,1.013,8.484-.364,16.783-2.408,23.251-6.167C421.825,273.52,425.355,268.612,425.868,263.614Z"/>
              </g>
            </g>
          </g>
          <path class="cls-2" d="M169.252,443.991c-14.527,0-27.454,4.5-35.786,11.508-8.978.716-17.633,3.07-24.516,7.07-13.292,7.725-15.982,19.247-8.131,28.546a50.965,50.965,0,0,0-12.533,5.056c-16.772,9.747-16.683,25.543.193,35.286s44.147,9.743,60.918,0c13.169-7.653,15.922-19.037,8.326-28.292a67.866,67.866,0,0,0,11.528.976c25.133,0,45.507-13.464,45.507-30.073S194.385,443.991,169.252,443.991Z"/>
          <g>
            <g>
              <g>
                <path class="cls-11" d="M133,431.592c14.417,8.324,14.493,21.818.175,30.138s-37.619,8.324-52.037,0-14.493-21.817-.17-30.142S118.582,423.268,133,431.592Z"/>
                <g>
                  <path class="cls-14" d="M76.709,464.3c-.308-.178-.6-.362-.895-.544v12.577c.285.174.563.351.859.522,10.272,5.93,24.394,8.244,37.656,6.954V471.262C101.077,472.544,86.972,470.229,76.709,464.3Z"/>
                  <path class="cls-14" d="M63.995,446.541,63.959,459.1a16.227,16.227,0,0,0,3.01,9.213V455.7A16.2,16.2,0,0,1,63.995,446.541Z"/>
                  <path class="cls-15" d="M137.627,464.3c-6.572,3.819-14.758,6.135-23.3,6.961v12.552c8.527-.829,16.7-3.144,23.262-6.958,8.329-4.84,12.5-11.175,12.517-17.518l.036-12.555C150.126,453.126,145.956,459.46,137.627,464.3Z"/>
                  <path class="cls-16" d="M66.969,455.7v12.61a28.43,28.43,0,0,0,8.846,8.028V463.761A28.338,28.338,0,0,1,66.969,455.7Z"/>
                </g>
                <path class="cls-16" d="M137.428,429.018c-16.876-9.743-44.147-9.743-60.913,0s-16.683,25.543.193,35.286,44.147,9.743,60.918,0S154.3,438.761,137.428,429.018Z"/>
                <g class="cls-17">
                  <path class="cls-18" d="M137.627,462.589c-16.772,9.746-44.042,9.747-60.918,0-8.111-4.683-12.333-10.765-12.68-16.9-.411,6.7,3.814,13.494,12.68,18.612,16.876,9.743,44.147,9.743,60.918,0,8.706-5.059,12.856-11.751,12.482-18.38C149.737,451.977,145.584,457.965,137.627,462.589Z"/>
                </g>
              </g>
              <g>
                <path class="cls-18" d="M103,433.606c-4.408-2.545-11.529-2.545-15.907,0-2.354,1.368-3.433,3.192-3.246,4.982.161,1.541,1.26,3.056,3.3,4.233,4.408,2.545,11.53,2.545,15.909,0,2.009-1.168,3.088-2.668,3.245-4.2C106.483,436.822,105.385,434.983,103,433.606Z"/>
                <path class="cls-18" d="M143.79,447.036a12.841,12.841,0,0,0-.945-6.225c-10.877-4.068-25.514-3.354-34.99,2.153-5.862,3.406-8.552,7.95-8.086,12.408.4,3.837,3.137,7.611,8.215,10.543.624.36,1.276.694,1.941,1.013,8.484-.364,16.783-2.408,23.251-6.167C139.747,456.942,143.277,452.034,143.79,447.036Z"/>
              </g>
            </g>
            <g>
              <g>
                <path class="cls-11" d="M133,417.279c14.417,8.324,14.493,21.818.175,30.138s-37.619,8.324-52.037,0-14.493-21.817-.17-30.142S118.582,408.955,133,417.279Z"/>
                <g>
                  <path class="cls-14" d="M76.709,449.991c-.308-.178-.6-.362-.895-.544v12.577c.285.174.563.351.859.522,10.272,5.93,24.394,8.244,37.656,6.954V456.949C101.077,458.231,86.972,455.917,76.709,449.991Z"/>
                  <path class="cls-14" d="M63.995,432.228l-.036,12.555A16.227,16.227,0,0,0,66.969,454v-12.61A16.2,16.2,0,0,1,63.995,432.228Z"/>
                  <path class="cls-15" d="M137.627,449.988c-6.572,3.819-14.758,6.135-23.3,6.961V469.5c8.527-.829,16.7-3.144,23.262-6.958,8.329-4.84,12.5-11.175,12.517-17.518l.036-12.555C150.126,438.813,145.956,445.147,137.627,449.988Z"/>
                  <path class="cls-16" d="M66.969,441.387V454a28.43,28.43,0,0,0,8.846,8.028V449.448A28.338,28.338,0,0,1,66.969,441.387Z"/>
                </g>
                <path class="cls-16" d="M137.428,414.7c-16.876-9.743-44.147-9.743-60.913,0s-16.683,25.543.193,35.286,44.147,9.743,60.918,0S154.3,424.448,137.428,414.7Z"/>
                <g class="cls-17">
                  <path class="cls-18" d="M137.627,448.276c-16.772,9.746-44.042,9.747-60.918,0-8.111-4.683-12.333-10.765-12.68-16.9-.411,6.7,3.814,13.494,12.68,18.612,16.876,9.743,44.147,9.743,60.918,0,8.706-5.059,12.856-11.751,12.482-18.38C149.737,437.665,145.584,443.652,137.627,448.276Z"/>
                </g>
              </g>
              <g>
                <path class="cls-18" d="M103,419.293c-4.408-2.545-11.529-2.545-15.907,0-2.354,1.368-3.433,3.192-3.246,4.982.161,1.541,1.26,3.056,3.3,4.233,4.408,2.545,11.53,2.545,15.909,0,2.009-1.168,3.088-2.668,3.245-4.2C106.483,422.509,105.385,420.67,103,419.293Z"/>
                <path class="cls-18" d="M143.79,432.724a12.841,12.841,0,0,0-.945-6.225c-10.877-4.068-25.514-3.354-34.99,2.153-5.862,3.406-8.552,7.95-8.086,12.408.4,3.837,3.137,7.611,8.215,10.543.624.36,1.276.694,1.941,1.013,8.484-.364,16.783-2.408,23.251-6.167C139.747,442.63,143.277,437.721,143.79,432.724Z"/>
              </g>
            </g>
            <g>
              <g>
                <path class="cls-11" d="M127.99,402.966c14.417,8.324,14.493,21.818.175,30.138s-37.619,8.324-52.037,0-14.493-21.817-.17-30.142S113.573,394.642,127.99,402.966Z"/>
                <g>
                  <path class="cls-14" d="M71.7,435.679c-.308-.178-.6-.362-.895-.544v12.577c.285.174.563.351.859.522,10.272,5.93,24.394,8.244,37.656,6.954V442.636C96.068,443.918,81.962,441.6,71.7,435.679Z"/>
                  <path class="cls-14" d="M58.985,417.915l-.036,12.555a16.227,16.227,0,0,0,3.01,9.213v-12.61A16.2,16.2,0,0,1,58.985,417.915Z"/>
                  <path class="cls-15" d="M132.618,435.675c-6.572,3.819-14.758,6.135-23.3,6.961v12.552c8.527-.829,16.7-3.144,23.262-6.958,8.329-4.84,12.5-11.175,12.517-17.518l.036-12.555C145.116,424.5,140.947,430.835,132.618,435.675Z"/>
                  <path class="cls-16" d="M61.959,427.074v12.61a28.43,28.43,0,0,0,8.846,8.028V435.135A28.338,28.338,0,0,1,61.959,427.074Z"/>
                </g>
                <path class="cls-16" d="M132.419,400.392c-16.876-9.743-44.147-9.743-60.913,0s-16.683,25.543.193,35.286,44.147,9.743,60.918,0S149.295,410.135,132.419,400.392Z"/>
                <g class="cls-17">
                  <path class="cls-18" d="M132.618,433.964c-16.772,9.746-44.042,9.747-60.918,0-8.111-4.683-12.333-10.765-12.68-16.9-.411,6.7,3.814,13.494,12.68,18.612,16.876,9.743,44.147,9.743,60.918,0,8.706-5.059,12.856-11.751,12.482-18.38C144.728,423.352,140.575,429.34,132.618,433.964Z"/>
                </g>
              </g>
              <g>
                <path class="cls-18" d="M97.99,404.98c-4.408-2.545-11.529-2.545-15.907,0-2.354,1.368-3.433,3.192-3.246,4.982.161,1.541,1.26,3.056,3.3,4.233,4.408,2.545,11.53,2.545,15.909,0,2.009-1.168,3.088-2.668,3.245-4.2C101.474,408.2,100.375,406.357,97.99,404.98Z"/>
                <path class="cls-18" d="M138.781,418.411a12.841,12.841,0,0,0-.945-6.225c-10.877-4.068-25.514-3.354-34.99,2.153-5.862,3.406-8.552,7.95-8.086,12.408.4,3.837,3.137,7.611,8.215,10.543.624.36,1.276.694,1.941,1.013,8.484-.364,16.783-2.408,23.251-6.167C134.737,428.317,138.268,423.409,138.781,418.411Z"/>
              </g>
            </g>
            <g>
              <g>
                <path class="cls-11" d="M132.284,388.653c14.417,8.324,14.493,21.818.175,30.138s-37.619,8.324-52.037,0-14.493-21.817-.17-30.142S117.867,380.329,132.284,388.653Z"/>
                <g>
                  <path class="cls-14" d="M75.993,421.366c-.308-.178-.6-.362-.895-.544V433.4c.285.174.563.351.859.522,10.272,5.93,24.394,8.244,37.656,6.954V428.323C100.362,429.606,86.256,427.291,75.993,421.366Z"/>
                  <path class="cls-14" d="M63.279,403.6l-.036,12.555a16.227,16.227,0,0,0,3.01,9.213v-12.61A16.2,16.2,0,0,1,63.279,403.6Z"/>
                  <path class="cls-15" d="M136.912,421.362c-6.572,3.819-14.758,6.135-23.3,6.961v12.552c8.527-.829,16.7-3.144,23.262-6.958,8.329-4.84,12.5-11.175,12.517-17.518l.036-12.555C149.41,410.188,145.241,416.522,136.912,421.362Z"/>
                  <path class="cls-16" d="M66.253,412.761v12.61A28.43,28.43,0,0,0,75.1,433.4V420.822A28.338,28.338,0,0,1,66.253,412.761Z"/>
                </g>
                <path class="cls-16" d="M136.713,386.079c-16.876-9.743-44.147-9.743-60.913,0s-16.683,25.543.193,35.286,44.147,9.743,60.918,0S153.589,395.823,136.713,386.079Z"/>
                <g class="cls-17">
                  <path class="cls-18" d="M136.912,419.651c-16.772,9.746-44.042,9.747-60.918,0-8.111-4.683-12.333-10.765-12.68-16.9-.411,6.7,3.814,13.494,12.68,18.612,16.876,9.743,44.147,9.743,60.918,0,8.706-5.059,12.856-11.751,12.482-18.38C149.022,409.039,144.869,415.027,136.912,419.651Z"/>
                </g>
              </g>
              <g>
                <path class="cls-18" d="M102.284,390.667c-4.408-2.545-11.529-2.545-15.907,0-2.354,1.368-3.433,3.192-3.246,4.982.161,1.541,1.26,3.056,3.3,4.233,4.408,2.545,11.53,2.545,15.909,0,2.009-1.168,3.088-2.668,3.245-4.2C105.767,393.884,104.669,392.044,102.284,390.667Z"/>
                <path class="cls-18" d="M143.074,404.1a12.841,12.841,0,0,0-.945-6.225c-10.877-4.068-25.514-3.354-34.99,2.153-5.862,3.406-8.552,7.95-8.086,12.408.4,3.837,3.137,7.611,8.215,10.543.624.36,1.276.694,1.941,1.013,8.484-.364,16.783-2.408,23.251-6.167C139.031,414,142.561,409.1,143.074,404.1Z"/>
              </g>
            </g>
            <g>
              <g>
                <path class="cls-11" d="M132.284,374.34c14.417,8.324,14.493,21.818.175,30.138s-37.619,8.324-52.037,0-14.493-21.817-.17-30.142S117.867,366.016,132.284,374.34Z"/>
                <g>
                  <path class="cls-14" d="M75.993,407.053c-.308-.178-.6-.362-.895-.544v12.577c.285.174.563.351.859.522,10.272,5.93,24.394,8.244,37.656,6.954V414.01C100.362,415.293,86.256,412.978,75.993,407.053Z"/>
                  <path class="cls-14" d="M63.279,389.29l-.036,12.555a16.227,16.227,0,0,0,3.01,9.213v-12.61A16.2,16.2,0,0,1,63.279,389.29Z"/>
                  <path class="cls-15" d="M136.912,407.049c-6.572,3.819-14.758,6.135-23.3,6.961v12.552c8.527-.829,16.7-3.144,23.262-6.958,8.329-4.84,12.5-11.175,12.517-17.518l.036-12.555C149.41,395.875,145.241,402.209,136.912,407.049Z"/>
                  <path class="cls-16" d="M66.253,398.448v12.61a28.43,28.43,0,0,0,8.846,8.028V406.509A28.338,28.338,0,0,1,66.253,398.448Z"/>
                </g>
                <path class="cls-16" d="M136.713,371.766c-16.876-9.743-44.147-9.743-60.913,0s-16.683,25.543.193,35.286,44.147,9.743,60.918,0S153.589,381.51,136.713,371.766Z"/>
                <g class="cls-17">
                  <path class="cls-18" d="M136.912,405.338c-16.772,9.746-44.042,9.747-60.918,0-8.111-4.683-12.333-10.765-12.68-16.9-.411,6.7,3.814,13.494,12.68,18.612,16.876,9.743,44.147,9.743,60.918,0,8.706-5.059,12.856-11.751,12.482-18.38C149.022,394.726,144.869,400.714,136.912,405.338Z"/>
                </g>
              </g>
              <g>
                <path class="cls-18" d="M102.284,376.354c-4.408-2.545-11.529-2.545-15.907,0-2.354,1.368-3.433,3.192-3.246,4.982.161,1.541,1.26,3.056,3.3,4.233,4.408,2.545,11.53,2.545,15.909,0,2.009-1.168,3.088-2.668,3.245-4.2C105.767,379.571,104.669,377.731,102.284,376.354Z"/>
                <path class="cls-18" d="M143.074,389.785a12.841,12.841,0,0,0-.945-6.225c-10.877-4.068-25.514-3.354-34.99,2.153-5.862,3.406-8.552,7.95-8.086,12.408.4,3.837,3.137,7.611,8.215,10.543.624.36,1.276.694,1.941,1.013,8.484-.364,16.783-2.408,23.251-6.167C139.031,399.691,142.561,394.783,143.074,389.785Z"/>
              </g>
            </g>
          </g>
          <g>
            <g>
              <g>
                <path class="cls-11" d="M179.816,448.881c14.417,8.324,14.493,21.818.175,30.138s-37.619,8.324-52.037,0-14.493-21.817-.17-30.142S165.4,440.557,179.816,448.881Z"/>
                <g>
                  <path class="cls-14" d="M123.525,481.593c-.308-.178-.6-.362-.895-.544v12.577c.285.174.563.351.859.522,10.272,5.93,24.394,8.244,37.656,6.954V488.551C147.894,489.833,133.788,487.518,123.525,481.593Z"/>
                  <path class="cls-14" d="M110.811,463.83l-.036,12.555a16.227,16.227,0,0,0,3.01,9.213v-12.61A16.2,16.2,0,0,1,110.811,463.83Z"/>
                  <path class="cls-15" d="M184.444,481.59c-6.572,3.819-14.758,6.135-23.3,6.961V501.1c8.527-.829,16.7-3.144,23.262-6.958,8.329-4.84,12.5-11.175,12.517-17.518l.036-12.555C196.942,470.415,192.773,476.749,184.444,481.59Z"/>
                  <path class="cls-16" d="M113.785,472.988V485.6a28.43,28.43,0,0,0,8.846,8.028V481.05A28.338,28.338,0,0,1,113.785,472.988Z"/>
                </g>
                <path class="cls-16" d="M184.245,446.307c-16.876-9.743-44.147-9.743-60.913,0s-16.683,25.543.193,35.286,44.147,9.743,60.918,0S201.121,456.05,184.245,446.307Z"/>
                <g class="cls-17">
                  <path class="cls-18" d="M184.444,479.878c-16.772,9.746-44.042,9.747-60.918,0-8.111-4.683-12.333-10.765-12.68-16.9-.411,6.7,3.814,13.494,12.68,18.612,16.876,9.743,44.147,9.743,60.918,0,8.706-5.059,12.856-11.751,12.482-18.38C196.554,469.266,192.4,475.254,184.444,479.878Z"/>
                </g>
              </g>
              <g>
                <path class="cls-18" d="M149.816,450.895c-4.408-2.545-11.529-2.545-15.907,0-2.354,1.368-3.433,3.192-3.246,4.982.161,1.541,1.26,3.056,3.3,4.233,4.408,2.545,11.53,2.545,15.909,0,2.009-1.168,3.088-2.668,3.245-4.2C153.3,454.111,152.2,452.272,149.816,450.895Z"/>
                <path class="cls-18" d="M190.607,464.325a12.841,12.841,0,0,0-.945-6.225c-10.877-4.068-25.514-3.354-34.99,2.153-5.862,3.406-8.552,7.95-8.086,12.408.4,3.837,3.137,7.611,8.215,10.543.624.36,1.276.694,1.941,1.013,8.484-.364,16.783-2.408,23.251-6.167C186.563,474.231,190.094,469.323,190.607,464.325Z"/>
              </g>
            </g>
            <g>
              <g>
                <path class="cls-11" d="M184.11,434.568c14.417,8.324,14.493,21.818.175,30.138s-37.619,8.324-52.037,0-14.493-21.817-.17-30.142S169.693,426.244,184.11,434.568Z"/>
                <g>
                  <path class="cls-14" d="M127.819,467.28c-.308-.178-.6-.362-.895-.544v12.577c.285.174.563.351.859.522,10.272,5.93,24.394,8.244,37.656,6.954V474.238C152.188,475.52,138.082,473.206,127.819,467.28Z"/>
                  <path class="cls-14" d="M115.1,449.517l-.036,12.555a16.227,16.227,0,0,0,3.01,9.213v-12.61A16.2,16.2,0,0,1,115.1,449.517Z"/>
                  <path class="cls-15" d="M188.738,467.277c-6.572,3.819-14.758,6.135-23.3,6.961V486.79c8.527-.829,16.7-3.144,23.262-6.958,8.329-4.84,12.5-11.175,12.517-17.518l.036-12.555C201.236,456.1,197.067,462.436,188.738,467.277Z"/>
                  <path class="cls-16" d="M118.079,458.676v12.61a28.43,28.43,0,0,0,8.846,8.028V466.737A28.338,28.338,0,0,1,118.079,458.676Z"/>
                </g>
                <path class="cls-16" d="M188.539,431.994c-16.876-9.743-44.147-9.743-60.913,0s-16.683,25.543.193,35.286,44.147,9.743,60.918,0S205.415,441.737,188.539,431.994Z"/>
                <g class="cls-17">
                  <path class="cls-18" d="M188.738,465.565c-16.772,9.746-44.042,9.747-60.918,0-8.111-4.683-12.333-10.765-12.68-16.9-.411,6.7,3.814,13.494,12.68,18.612,16.876,9.743,44.147,9.743,60.918,0,8.706-5.059,12.856-11.751,12.482-18.38C200.848,454.954,196.695,460.941,188.738,465.565Z"/>
                </g>
              </g>
              <g>
                <path class="cls-18" d="M154.11,436.582c-4.408-2.545-11.529-2.545-15.907,0-2.354,1.368-3.433,3.192-3.246,4.982.161,1.541,1.26,3.056,3.3,4.233,4.408,2.545,11.53,2.545,15.909,0,2.009-1.168,3.088-2.668,3.245-4.2C157.594,439.8,156.5,437.959,154.11,436.582Z"/>
                <path class="cls-18" d="M194.9,450.013a12.841,12.841,0,0,0-.945-6.225c-10.877-4.068-25.514-3.354-34.99,2.153-5.862,3.406-8.552,7.95-8.086,12.408.4,3.837,3.137,7.611,8.215,10.543.624.36,1.276.694,1.941,1.013,8.484-.364,16.783-2.408,23.251-6.167C190.857,459.919,194.387,455.01,194.9,450.013Z"/>
              </g>
            </g>
            <g>
              <g>
                <path class="cls-11" d="M184.11,420.255c14.417,8.324,14.493,21.818.175,30.138s-37.619,8.324-52.037,0-14.493-21.817-.17-30.142S169.693,411.931,184.11,420.255Z"/>
                <g>
                  <path class="cls-14" d="M127.819,452.968c-.308-.178-.6-.362-.895-.544V465c.285.174.563.351.859.522,10.272,5.93,24.394,8.244,37.656,6.954V459.925C152.188,461.207,138.082,458.893,127.819,452.968Z"/>
                  <path class="cls-14" d="M115.1,435.2l-.036,12.555a16.227,16.227,0,0,0,3.01,9.213v-12.61A16.2,16.2,0,0,1,115.1,435.2Z"/>
                  <path class="cls-15" d="M188.738,452.964c-6.572,3.819-14.758,6.135-23.3,6.961v12.552c8.527-.829,16.7-3.144,23.262-6.958,8.329-4.84,12.5-11.175,12.517-17.518l.036-12.555C201.236,441.789,197.067,448.124,188.738,452.964Z"/>
                  <path class="cls-16" d="M118.079,444.363v12.61A28.43,28.43,0,0,0,126.925,465V452.424A28.338,28.338,0,0,1,118.079,444.363Z"/>
                </g>
                <path class="cls-16" d="M188.539,417.681c-16.876-9.743-44.147-9.743-60.913,0s-16.683,25.543.193,35.286,44.147,9.743,60.918,0S205.415,427.424,188.539,417.681Z"/>
                <g class="cls-17">
                  <path class="cls-18" d="M188.738,451.253c-16.772,9.746-44.042,9.747-60.918,0-8.111-4.683-12.333-10.765-12.68-16.9-.411,6.7,3.814,13.494,12.68,18.612,16.876,9.743,44.147,9.743,60.918,0,8.706-5.059,12.856-11.751,12.482-18.38C200.848,440.641,196.695,446.629,188.738,451.253Z"/>
                </g>
              </g>
              <g>
                <path class="cls-18" d="M163.975,421.686c4.408-2.545,11.529-2.545,15.907,0,2.354,1.368,3.433,3.192,3.246,4.982-.161,1.541-1.26,3.056-3.3,4.233-4.408,2.545-11.53,2.545-15.909,0-2.009-1.168-3.088-2.668-3.245-4.2C160.492,424.9,161.59,423.063,163.975,421.686Z"/>
                <path class="cls-18" d="M123.185,435.116a12.841,12.841,0,0,1,.945-6.225c10.877-4.068,25.514-3.354,34.99,2.153,5.862,3.406,8.552,7.95,8.086,12.408-.4,3.837-3.137,7.611-8.215,10.543-.624.36-1.276.694-1.941,1.013-8.484-.364-16.783-2.408-23.251-6.167C127.228,445.022,123.7,440.114,123.185,435.116Z"/>
              </g>
            </g>
          </g>
          <g>
            <g>
              <path class="cls-11" d="M129.4,484.03c14.417,8.324,14.493,21.818.175,30.138s-37.619,8.324-52.037,0-14.493-21.817-.17-30.142S114.987,475.707,129.4,484.03Z"/>
              <g>
                <path class="cls-14" d="M73.113,516.743c-.308-.178-.6-.362-.895-.544v12.577c.285.174.563.351.859.522,10.272,5.93,24.394,8.244,37.656,6.954V523.7C97.482,524.983,83.376,522.668,73.113,516.743Z"/>
                <path class="cls-14" d="M60.4,498.98l-.036,12.555a16.227,16.227,0,0,0,3.01,9.213v-12.61A16.2,16.2,0,0,1,60.4,498.98Z"/>
                <path class="cls-15" d="M134.032,516.74c-6.572,3.819-14.758,6.135-23.3,6.961v12.552c8.527-.829,16.7-3.144,23.262-6.958,8.329-4.84,12.5-11.175,12.517-17.518l.036-12.555C146.53,505.565,142.361,511.9,134.032,516.74Z"/>
                <path class="cls-16" d="M63.373,508.138v12.61a28.43,28.43,0,0,0,8.846,8.028V516.2A28.338,28.338,0,0,1,63.373,508.138Z"/>
              </g>
              <path class="cls-16" d="M133.833,481.457c-16.876-9.743-44.147-9.743-60.913,0S56.238,507,73.113,516.743s44.147,9.743,60.918,0S150.709,491.2,133.833,481.457Z"/>
              <g class="cls-17">
                <path class="cls-18" d="M134.032,515.028c-16.772,9.746-44.042,9.747-60.918,0-8.111-4.683-12.333-10.765-12.68-16.9-.411,6.7,3.814,13.494,12.68,18.612,16.876,9.743,44.147,9.743,60.918,0,8.706-5.059,12.856-11.751,12.482-18.38C146.142,504.416,141.989,510.4,134.032,515.028Z"/>
              </g>
            </g>
            <g>
              <path class="cls-18" d="M99.4,486.045C95,483.5,87.875,483.5,83.5,486.044c-2.354,1.368-3.433,3.192-3.246,4.982.161,1.541,1.26,3.056,3.3,4.233,4.408,2.545,11.53,2.545,15.909,0,2.009-1.168,3.088-2.668,3.245-4.2C102.888,489.261,101.789,487.421,99.4,486.045Z"/>
              <path class="cls-18" d="M140.194,499.475a12.841,12.841,0,0,0-.945-6.225c-10.877-4.068-25.514-3.354-34.99,2.153-5.862,3.406-8.552,7.95-8.086,12.408.4,3.837,3.137,7.611,8.215,10.543.624.36,1.276.694,1.941,1.013,8.484-.364,16.783-2.408,23.251-6.167C136.151,509.381,139.681,504.473,140.194,499.475Z"/>
            </g>
          </g>
          <line class="cls-7" x1="60.947" y1="528.087" x2="121.812" y2="301.795"/>
        </g>
        <g>
          <g class="cls-19">
            <path class="cls-20" d="M520.92,530.343l-16.012,9.305a4.294,4.294,0,0,0,.017,7.436l212.2,122A11.756,11.756,0,0,0,729,668.994l15.742-9.379a4.294,4.294,0,0,0-.058-7.412l-212-121.887A11.756,11.756,0,0,0,520.92,530.343Z"/>
          </g>
          <g>
            <path class="cls-21" d="M767.178,238.508c-14.085-8.132-25.468-27.848-25.422-44.04s11.5-22.714,25.589-14.582,25.474,27.851,25.428,44.036-11.5,22.721-25.594,14.585M873.983,189.3,661,66.332c-9.716-5.609-17.615-1.108-17.647,10.056l-.362,127.734L891.158,347.4l.362-127.734c.032-11.164-7.822-24.761-17.537-30.37"/>
            <path class="cls-6" d="M664.134,251.06l.048-16.846,11.7,15.194-11.75,1.653M752.3,289.142c1.259-2.255,3.918-2.779,6.986-1.008a17.055,17.055,0,0,1,6.958,9.059l97.388,56.227a8.365,8.365,0,0,1,3.8,6.578c-.007,2.419-1.717,3.394-3.823,2.178l-97.9-56.524c-1.391,1.606-3.77,1.821-6.468.263a16.671,16.671,0,0,1-6.444-7.718l-64.7-37.357a8.376,8.376,0,0,1-3.8-6.581c.007-2.42,1.722-3.391,3.828-2.175L752.3,289.142M891.158,347.4,642.991,204.122l-.092,32.291c-.032,11.164,7.817,24.758,17.532,30.367L873.415,389.746c9.716,5.609,17.62,1.111,17.652-10.053l.092-32.291"/>
            <polyline class="cls-18" points="664.182 234.214 664.134 251.06 675.884 249.407 664.182 234.214"/>
            <path class="cls-18" d="M863.633,353.419l-97.388-56.227a13.543,13.543,0,0,1,.754,4.3,6.275,6.275,0,0,1-1.294,4.161l97.9,56.524c2.106,1.216,3.816.241,3.823-2.178a8.365,8.365,0,0,0-3.8-6.578"/>
            <path class="cls-22" d="M752.3,289.142l-64.189-37.059c-2.106-1.216-3.821-.244-3.828,2.175a8.376,8.376,0,0,0,3.8,6.581l64.7,37.357a14.459,14.459,0,0,1-1.267-5.639,7.018,7.018,0,0,1,.776-3.415"/>
            <path class="cls-18" d="M759.25,301.408a8.376,8.376,0,0,1-3.8-6.584c.007-2.414,1.717-3.394,3.823-2.178a8.375,8.375,0,0,1,3.8,6.578c-.007,2.42-1.717,3.4-3.823,2.185m.038-13.274c-3.067-1.771-5.726-1.246-6.986,1.008a7.018,7.018,0,0,0-.776,3.415,14.459,14.459,0,0,0,1.267,5.639,16.671,16.671,0,0,0,6.444,7.718c2.7,1.558,5.077,1.343,6.468-.263A6.275,6.275,0,0,0,767,301.49a13.543,13.543,0,0,0-.754-4.3,17.055,17.055,0,0,0-6.958-9.059"/>
            <path class="cls-22" d="M759.275,292.645c-2.106-1.216-3.816-.235-3.823,2.178a8.376,8.376,0,0,0,3.8,6.584c2.106,1.216,3.816.235,3.823-2.185a8.375,8.375,0,0,0-3.8-6.578"/>
            <path class="cls-18" d="M761.555,220.32a4.546,4.546,0,0,1-2.065-3.573l.062-22.013c0-1.39,1-1.8,2.078-1.181a3.835,3.835,0,0,1,1.089.993L778.014,214.4c1.29,1.674,1.284,3.845-.011,4.027l-15.357,2.158a1.731,1.731,0,0,1-1.091-.265m5.789-40.433c-14.085-8.132-25.543-1.6-25.589,14.582s11.337,35.907,25.422,44.04,25.548,1.606,25.594-14.585-11.337-35.9-25.428-44.036"/>
            <path class="cls-23" d="M761.631,193.553c-1.077-.622-2.074-.209-2.078,1.181l-.062,22.013a4.546,4.546,0,0,0,2.065,3.573,1.731,1.731,0,0,0,1.091.265L778,218.427c1.3-.181,1.3-2.352.011-4.027l-15.294-19.854a3.835,3.835,0,0,0-1.089-.993"/>
          </g>
          <g class="cls-24">
            <path class="cls-6" d="M757.669,170.567c.032-11.164-7.816-24.764-17.532-30.373l-96.9-55.945-.246,86.811L642.9,203.35c-.032,11.164,7.816,24.757,17.532,63.429l96.9,55.946.164-90.912Z"/>
          </g>
          <g>
            <g>
              <path class="cls-25" d="M588.5,506.536a9.293,9.293,0,0,1-4.213-7.3c.008-2.686,1.908-3.77,4.241-2.423l87.878,50.737a9.3,9.3,0,0,1,4.213,7.3c-.008,2.68-1.908,3.764-4.241,2.417L588.5,506.536m.07-24.548a9.293,9.293,0,0,1-4.213-7.3c.008-2.686,1.908-3.763,4.241-2.417l110.107,63.57a9.274,9.274,0,0,1,4.213,7.3c-.008,2.68-1.9,3.767-4.241,2.417l-110.107-63.57m-71.6-3.664a10.41,10.41,0,0,1-4.724-8.182l.1-36.973c.009-3.008,2.137-4.221,4.755-2.709l49.713,28.7a10.41,10.41,0,0,1,4.724,8.182l-.1,36.973c-.009,3.008-2.137,4.221-4.755,2.709l-49.713-28.7m71.709-33.158a9.293,9.293,0,0,1-4.213-7.3c.008-2.686,1.908-3.763,4.241-2.417l87.878,50.737a9.284,9.284,0,0,1,4.213,7.3c-.008,2.68-1.908,3.764-4.241,2.417l-87.878-50.737m.07-24.548a9.293,9.293,0,0,1-4.213-7.3c.008-2.686,1.908-3.763,4.241-2.417l110.107,63.57a9.275,9.275,0,0,1,4.213,7.3c-.008,2.68-1.9,3.767-4.241,2.417L588.745,420.62m-71.6-3.657a10.421,10.421,0,0,1-4.724-8.188l.1-36.973c.009-3.008,2.137-4.221,4.755-2.709l49.713,28.7a10.41,10.41,0,0,1,4.724,8.182l-.1,36.973c-.009,3.008-2.137,4.227-4.755,2.716l-49.713-28.7M588.849,383.8a9.293,9.293,0,0,1-4.213-7.3c.008-2.687,1.908-3.763,4.241-2.417l87.878,50.737a9.283,9.283,0,0,1,4.213,7.3c-.008,2.68-1.908,3.764-4.241,2.417L588.849,383.8m.07-24.548a9.293,9.293,0,0,1-4.213-7.3c.008-2.687,1.908-3.763,4.241-2.417l110.107,63.57a9.274,9.274,0,0,1,4.213,7.3c-.008,2.68-1.9,3.767-4.241,2.417l-110.107-63.57m-71.6-3.658a10.41,10.41,0,0,1-4.724-8.182l.1-36.979c.009-3.008,2.137-4.221,4.755-2.709l49.713,28.7a10.409,10.409,0,0,1,4.724,8.182l-.1,36.979c-.009,3.008-2.137,4.221-4.755,2.709l-49.713-28.7m71.709-33.163a9.293,9.293,0,0,1-4.213-7.3c.008-2.68,1.908-3.763,4.241-2.417l87.878,50.737a9.293,9.293,0,0,1,4.213,7.3c-.008,2.68-1.908,3.764-4.241,2.417l-87.878-50.737m.07-24.548a9.293,9.293,0,0,1-4.213-7.3c.008-2.68,1.908-3.763,4.241-2.417l110.107,63.57a9.284,9.284,0,0,1,4.213,7.3c-.008,2.68-1.9,3.767-4.241,2.417l-110.107-63.57m-71.6-3.658a10.409,10.409,0,0,1-4.724-8.182l.1-36.979c.009-3.008,2.137-4.221,4.755-2.709l49.713,28.7a10.41,10.41,0,0,1,4.724,8.182l-.1,36.979c-.009,3.008-2.137,4.221-4.755,2.709l-49.713-28.7m70.7-60.931a10.2,10.2,0,0,1-4.629-8.018c.008-2.941,2.094-4.13,4.659-2.649l84.538,48.808a10.2,10.2,0,0,1,4.624,8.009c-.008,2.947-2.094,4.136-4.654,2.658l-84.538-48.808m.665-23.827a14.941,14.941,0,0,1-6.78-11.744c.012-4.318,3.067-6.065,6.825-3.9l116.566,67.3a14.954,14.954,0,0,1,6.786,11.753c-.012,4.317-3.067,6.058-6.83,3.886l-116.566-67.3M534.44,219.99c-16.571-9.567-29.958-32.754-29.9-51.8s13.529-26.726,30.1-17.159,29.958,32.761,29.9,51.8-13.529,26.72-30.1,17.153M732.6,247.111,484.436,103.831l-1.045,368.581c-.033,11.776,7.819,25.87,17.534,31.48L713.908,626.858c9.716,5.609,17.616.61,17.65-11.166l.756-266.614L484.147,205.8l0-1.546,248.168,143.28.285-100.421"/>
              <path class="cls-14" d="M575.695,125.713a3.018,3.018,0,0,1-1.259-1.863,1.7,1.7,0,0,1-.025-.361c0-1.956.006-3.9.011-5.855.005-1.929.027-3.848.011-5.788-.008-.885.643-1.154,1.334-.767l.009.005a2.935,2.935,0,0,1,1.3,2.291l-.027,9.527c0,.685,0,1.367-.006,2.05-.008.791-.5,1.157-1.234.818q-.055-.025-.11-.057m4.989-11.1c.576.132,1.109.2,1.664.384a5.093,5.093,0,0,1,.971.437,8.74,8.74,0,0,1,2.41,2.2,11.256,11.256,0,0,1,2.2,4.445,7.755,7.755,0,0,1,.207,1.614c.009,2.587-.009,5.164-.017,7.741,0,.816-.656,1.058-1.32.674a2.105,2.105,0,0,1-.557-.482,2.906,2.906,0,0,1-.75-1.94c0-2.4.014-4.8.015-7.2a4.89,4.89,0,0,0-1.7-3.61,3.827,3.827,0,0,0-.615-.448c-1.03-.594-1.966-.356-2.229.719a2.4,2.4,0,0,0-.06.567c-.007,2.468,0,4.948-.026,7.407-.008.961-.585,1.193-1.318.806l-.05-.028a2.914,2.914,0,0,1-1.26-2.181c.015-3.393.019-6.8.029-10.194,0-.5.019-1,0-1.5-.024-.731.383-1,.943-.883a1.333,1.333,0,0,1,.4.155,2.709,2.709,0,0,1,1.032,1.253l.032.061M532.656,100.85a3.032,3.032,0,0,1-1.329-2.412c.032-3.8.032-7.6.043-11.412,0-.613.235-.945.7-.981a1.107,1.107,0,0,1,.632.164,2.764,2.764,0,0,1,.84.844A2.462,2.462,0,0,1,534,88.431q-.016,2.934-.022,5.879l-.017,5.882a.76.76,0,0,1-1.017.792,1.655,1.655,0,0,1-.292-.134m5-11.09c.576.132,1.094.206,1.627.375a4.9,4.9,0,0,1,.979.436,8.884,8.884,0,0,1,2.4,2.175,11.064,11.064,0,0,1,2.322,4.961,7.473,7.473,0,0,1,.134,1.335c0,2.486,0,4.976-.021,7.447-.008.937-.548,1.16-1.271.815-.03-.015-.06-.031-.09-.048a2.917,2.917,0,0,1-1.268-2.169c.012-2.429.019-4.854.021-7.289a4.942,4.942,0,0,0-.386-1.887,4.856,4.856,0,0,0-1.94-2.313,1.755,1.755,0,0,0-1.468-.255,1.478,1.478,0,0,0-.855,1.547c-.023,2.459-.035,4.93-.016,7.42a.813.813,0,0,1-1.313.773l-.021-.012a2.837,2.837,0,0,1-1.305-2.26c0-3.9.017-7.783.033-11.673,0-.588.373-.951.88-.871a1.225,1.225,0,0,1,.421.158,2.832,2.832,0,0,1,1,1.1c.058.106.116.207.137.237m53.033,44.613a2.524,2.524,0,0,1-.584-.495,2.73,2.73,0,0,1-.772-1.83c-.006-1.468,0-2.926.007-4.381l.035-12.437c0-.885.5-1.26,1.292-.839l.064.036A2.733,2.733,0,0,1,592,116.674c.008,2.865-.011,5.715-.019,8.571l-.012,4.154c0,.121.01.249.02.431a.943.943,0,0,0,.19-.048c.355-.172.709-.338,1.053-.527,2.107-1.195,4.209-2.4,6.316-3.593a1.128,1.128,0,0,1,1.278-.063c.035.02.07.042.107.066a3.02,3.02,0,0,1,1.194,2.1,1.022,1.022,0,0,1-.479,1.023c-.7.38-1.382.788-2.075,1.177-.567.317-1.144.621-1.721.92a1.193,1.193,0,0,1-.3.057c.479.829.878,1.515,1.278,2.2.989,1.713,1.978,3.413,2.961,5.129.579,1.014.3,2.214-.482,2.1a1.6,1.6,0,0,1-.567-.2,2.5,2.5,0,0,1-.883-.954c-1.115-1.919-2.225-3.848-3.335-5.77-.247-.428-.51-.847-.784-1.309a4.052,4.052,0,0,0-.381.169c-.762.434-1.525.875-2.293,1.3-.519.29-1.043.583-1.578.845a.84.84,0,0,1-.8-.082M532.752,84l-.025-.015a2.835,2.835,0,0,1-1.336-2.3c-.019-.843.564-1.2,1.3-.779l.019.011a2.779,2.779,0,0,1,1.3,2.3.78.78,0,0,1-1.261.778m43,24.819a2.833,2.833,0,0,1-1.3-2.285.788.788,0,0,1,1.253-.79l.039.024a2.818,2.818,0,0,1,1.336,2.3c.019.837-.564,1.181-1.313.766l-.018-.011m-28.175.658a2.972,2.972,0,0,1-1.22-1.733,2.823,2.823,0,0,1-.1-.768q.016-8.3.047-16.591c.008-.943.558-1.214,1.319-.86.026.012.053.025.079.041a3.2,3.2,0,0,1,1.226,1.9,5.281,5.281,0,0,1,.051.752q-.01,6.144-.03,12.283v.5a1.88,1.88,0,0,0,.27-.087l1.271-.706q3.113-1.756,6.232-3.5a.954.954,0,0,1,1.02.024,2.144,2.144,0,0,1,.38.287,2.968,2.968,0,0,1,.915,1.531c.146.649.034,1.095-.326,1.306q-1.938,1.114-3.891,2.206a1.018,1.018,0,0,1-.275.066l.127.091c.668,1.2,1.325,2.4,1.993,3.587.71,1.254,1.457,2.481,2.13,3.744.431.808.323,1.662-.143,1.91a.955.955,0,0,1-.906-.106,2.588,2.588,0,0,1-.809-.787c-.116-.17-.232-.346-.332-.526-1.236-2.129-2.467-4.249-3.693-6.384a.821.821,0,0,0-.247-.31.243.243,0,0,0-.26.029c-1.265.733-2.536,1.451-3.807,2.169a1,1,0,0,1-1.022-.065m-19.034-11a6.482,6.482,0,0,1-.68-.457,12.885,12.885,0,0,1-2.783-2.9,13.844,13.844,0,0,1-2.63-6.42,22.77,22.77,0,0,1-.1-2.375c-.012-1.428,0-2.835.007-4.254q.008-2.747.021-5.5c0-.994.585-1.2,1.266-.9a.992.992,0,0,1,.092.047,2.936,2.936,0,0,1,1.276,2.152c0,.258.046.531.045.785-.01,3.481-.025,6.964-.024,10.451a7.65,7.65,0,0,0,1.616,4.431,7.1,7.1,0,0,0,2.088,1.983,2.927,2.927,0,0,1,1.4,2.011c.161.9-.247,1.5-.955,1.24a4.054,4.054,0,0,1-.634-.3M561.7,117.644a3.1,3.1,0,0,1-1.493-2.605c.037-5.549.042-11.122.058-16.682,0-.86.606-1.193,1.341-.769l.019.011a3.038,3.038,0,0,1,1.273,2.12c.01.194.01.388.009.582l-.041,14.481c0,.437,0,.443.373.659l5.035,2.907.3.171.027-.07c-.068-.125-.132-.246-.205-.368-.668-1.163-1.341-2.335-2.015-3.5-.168-.292-.358-.571-.531-.859-.542-.921-.613-1.946.028-2.268a.889.889,0,0,1,.853.1,2.938,2.938,0,0,1,1,1.08q2.312,4,4.613,7.984c.179.31.368.62.542.939.684,1.251.305,2.314-.614,2.112a2.076,2.076,0,0,1-.544-.241l-5.008-2.893q-2.5-1.445-5.008-2.884l-.011-.006M512.671,69.336c.7.4,1.4.8,2.1,1.2q.525.3,1.05.611a10.719,10.719,0,0,1,3.632,3.725,11.3,11.3,0,0,1,1.71,4.814,4.524,4.524,0,0,1-.983,3.781c-.106.109-.085.2.009.406a9.344,9.344,0,0,1,.98,4.8,3.381,3.381,0,0,1-1.4,2.707,3.326,3.326,0,0,1-3.478-.034c-.32-.158-.64-.332-.961-.517-.415-.24-.831-.5-1.245-.769a2.715,2.715,0,0,1-.68-.817c-1.1-1.883-2.188-3.778-3.288-5.67-.594-1.023-1.2-2.035-1.794-3.058-.668-1.145-.6-2.169.16-2.349a.958.958,0,0,1,.7.149,3.161,3.161,0,0,1,1.077,1.2c1.446,2.517,2.9,5.023,4.35,7.541a1.6,1.6,0,0,0,.567.636q.042.024.086.045c.38.183.76.433,1.135.582a1.5,1.5,0,0,0,2.113-1.289,5.227,5.227,0,0,0-1.094-3.687c-.784-1.145-.765-2.313.028-2.553.735-.219,1.155-.827,1.131-1.916a5.944,5.944,0,0,0-2.667-4.589l-2.531-1.46q-1.265-.73-2.531-1.469c-.248-.143-.317-.1-.312.184.014.755.006,1.5-.006,2.238a1.093,1.093,0,0,0,.183.6q2.28,3.913,4.55,7.826c.679,1.169.564,2.239-.245,2.349a1.028,1.028,0,0,1-.616-.171,2.434,2.434,0,0,1-.851-.853Q510.9,79,508.258,74.46a2.48,2.48,0,0,1-.377-1.2c0-1.74,0-3.481.015-5.215.008-.785.637-1.1,1.323-.7q.575.329,1.15.662l2.3,1.331M683.2,163.02a11.587,11.587,0,0,1-5.255-9.108c.009-3.347,2.376-4.7,5.289-3.014a11.587,11.587,0,0,1,5.26,9.1c-.009,3.348-2.381,4.7-5.295,3.017m14.66,8.464a11.6,11.6,0,0,1-5.26-9.111c.009-3.347,2.381-4.693,5.295-3.011a11.587,11.587,0,0,1,5.26,9.1c-.009,3.348-2.381,4.7-5.295,3.017m14.661,8.464a11.6,11.6,0,0,1-5.26-9.111c.009-3.347,2.381-4.693,5.295-3.011a11.576,11.576,0,0,1,5.255,9.1c-.009,3.348-2.376,4.7-5.289,3.02m2.728-24.458L502.261,32.525c-9.716-5.609-17.62-1.1-17.652,10.059l-.174,61.247L732.6,247.111l.174-61.247c.032-11.164-7.816-24.764-17.532-30.373"/>
              <path class="cls-26" d="M534.635,151.036c-16.571-9.567-30.045-1.882-30.1,17.159s13.333,42.229,29.9,51.8,30.046,1.889,30.1-17.153-13.333-42.235-29.9-51.8"/>
              <path class="cls-26" d="M705.468,261.128,588.9,193.828c-3.758-2.169-6.812-.422-6.825,3.9a14.941,14.941,0,0,0,6.78,11.744l116.566,67.3c3.763,2.172,6.818.432,6.83-3.886a14.954,14.954,0,0,0-6.786-11.753"/>
              <path class="cls-18" d="M672.76,271.436l-84.538-48.808c-2.565-1.481-4.651-.292-4.659,2.649a10.2,10.2,0,0,0,4.629,8.018L672.73,282.1c2.56,1.478,4.646.289,4.654-2.658a10.2,10.2,0,0,0-4.624-8.009"/>
              <polyline class="cls-18" points="732.319 347.532 484.151 204.252 484.147 205.799 732.314 349.078 732.319 347.532"/>
              <path class="cls-26" d="M567.337,275.057l-49.713-28.7c-2.618-1.511-4.746-.3-4.755,2.709l-.1,36.979a10.409,10.409,0,0,0,4.724,8.182l49.713,28.7c2.618,1.511,4.746.3,4.755-2.709l.1-36.979a10.41,10.41,0,0,0-4.724-8.182"/>
              <path class="cls-26" d="M699.227,351.739,589.12,288.168c-2.333-1.347-4.233-.264-4.241,2.417a9.293,9.293,0,0,0,4.213,7.3L699.2,361.453c2.338,1.35,4.233.264,4.241-2.417a9.284,9.284,0,0,0-4.213-7.3"/>
              <path class="cls-18" d="M676.929,363.453l-87.878-50.737c-2.333-1.347-4.233-.264-4.241,2.417a9.293,9.293,0,0,0,4.213,7.3L676.9,373.167c2.333,1.347,4.233.264,4.241-2.417a9.293,9.293,0,0,0-4.213-7.3"/>
              <path class="cls-26" d="M567.163,336.426l-49.713-28.7c-2.618-1.511-4.746-.3-4.755,2.709l-.1,36.979a10.41,10.41,0,0,0,4.724,8.182l49.713,28.7c2.618,1.511,4.746.3,4.755-2.709l.1-36.979a10.409,10.409,0,0,0-4.724-8.182"/>
              <path class="cls-26" d="M699.053,413.107l-110.107-63.57c-2.333-1.347-4.233-.27-4.241,2.417a9.293,9.293,0,0,0,4.213,7.3l110.107,63.57c2.338,1.35,4.233.264,4.241-2.417a9.274,9.274,0,0,0-4.213-7.3"/>
              <path class="cls-18" d="M676.755,424.821l-87.878-50.737c-2.333-1.347-4.233-.27-4.241,2.417a9.293,9.293,0,0,0,4.213,7.3l87.878,50.737c2.333,1.347,4.233.264,4.241-2.417a9.283,9.283,0,0,0-4.213-7.3"/>
              <path class="cls-26" d="M566.989,397.794l-49.713-28.7c-2.618-1.511-4.746-.3-4.755,2.709l-.1,36.973a10.421,10.421,0,0,0,4.724,8.188l49.713,28.7c2.618,1.511,4.746.292,4.755-2.716l.1-36.973a10.41,10.41,0,0,0-4.724-8.182"/>
              <path class="cls-26" d="M698.879,474.476l-110.107-63.57c-2.333-1.347-4.233-.27-4.241,2.417a9.293,9.293,0,0,0,4.213,7.3l110.107,63.57c2.338,1.35,4.233.264,4.241-2.417a9.275,9.275,0,0,0-4.213-7.3"/>
              <path class="cls-18" d="M676.581,486.19,588.7,435.453c-2.333-1.347-4.233-.27-4.241,2.417a9.293,9.293,0,0,0,4.213,7.3L676.554,495.9c2.333,1.347,4.233.264,4.241-2.417a9.284,9.284,0,0,0-4.213-7.3"/>
              <path class="cls-26" d="M566.815,459.163l-49.713-28.7c-2.618-1.511-4.746-.3-4.755,2.709l-.1,36.973a10.41,10.41,0,0,0,4.724,8.182l49.713,28.7c2.618,1.511,4.746.3,4.755-2.709l.1-36.973a10.41,10.41,0,0,0-4.724-8.182"/>
              <path class="cls-26" d="M698.705,535.844,588.6,472.274c-2.333-1.347-4.233-.27-4.241,2.417a9.293,9.293,0,0,0,4.213,7.3l110.107,63.57c2.338,1.35,4.233.264,4.241-2.417a9.274,9.274,0,0,0-4.213-7.3"/>
              <path class="cls-18" d="M676.407,547.552l-87.878-50.737c-2.333-1.347-4.233-.264-4.241,2.423a9.293,9.293,0,0,0,4.213,7.3l87.878,50.737c2.333,1.347,4.233.263,4.241-2.417a9.3,9.3,0,0,0-4.213-7.3"/>
              <path class="cls-18" d="M514.766,70.54c-.7-.4-1.4-.8-2.1-1.2L510.37,68q-.575-.332-1.15-.662c-.686-.4-1.316-.086-1.323.7-.015,1.734-.01,3.475-.015,5.215a2.48,2.48,0,0,0,.377,1.2Q510.9,79,513.54,83.534a2.434,2.434,0,0,0,.851.853,1.028,1.028,0,0,0,.616.171c.809-.11.923-1.18.245-2.349q-2.272-3.918-4.55-7.826a1.093,1.093,0,0,1-.183-.6c.013-.74.02-1.483.006-2.238,0-.288.064-.327.312-.184q1.267.741,2.531,1.469l2.531,1.46a5.944,5.944,0,0,1,2.667,4.589c.023,1.088-.4,1.7-1.131,1.916-.794.24-.813,1.408-.028,2.553a5.227,5.227,0,0,1,1.094,3.687,1.5,1.5,0,0,1-2.113,1.289c-.375-.15-.755-.4-1.135-.582q-.044-.021-.086-.045a1.6,1.6,0,0,1-.567-.636c-1.447-2.517-2.9-5.023-4.35-7.541a3.161,3.161,0,0,0-1.077-1.2.958.958,0,0,0-.7-.149c-.762.18-.828,1.2-.16,2.349.594,1.024,1.2,2.035,1.794,3.058,1.1,1.892,2.183,3.787,3.288,5.67a2.715,2.715,0,0,0,.68.817c.414.27.829.529,1.245.769.321.185.641.359.961.517a3.326,3.326,0,0,0,3.478.034,3.381,3.381,0,0,0,1.4-2.707,9.344,9.344,0,0,0-.98-4.8c-.095-.207-.115-.3-.009-.406a4.524,4.524,0,0,0,.983-3.781,11.3,11.3,0,0,0-1.71-4.814,10.719,10.719,0,0,0-3.632-3.725q-.525-.309-1.05-.611"/>
              <path class="cls-18" d="M547.7,89.562c-.027-.015-.053-.029-.079-.041-.76-.354-1.311-.083-1.319.86q-.039,8.287-.047,16.591a2.823,2.823,0,0,0,.1.768,2.972,2.972,0,0,0,1.22,1.733,1,1,0,0,0,1.022.065c1.271-.718,2.541-1.436,3.807-2.169a.243.243,0,0,1,.26-.029.821.821,0,0,1,.247.31c1.226,2.135,2.456,4.255,3.693,6.384.1.179.216.356.332.526a2.588,2.588,0,0,0,.809.787.955.955,0,0,0,.906.106c.466-.247.574-1.1.143-1.91-.673-1.263-1.42-2.49-2.13-3.744-.668-1.187-1.325-2.387-1.993-3.587l-.127-.091a1.018,1.018,0,0,0,.275-.066q1.954-1.095,3.891-2.206c.36-.211.472-.657.326-1.306a2.968,2.968,0,0,0-.915-1.531,2.144,2.144,0,0,0-.38-.287.954.954,0,0,0-1.02-.024q-3.121,1.742-6.232,3.5l-1.271.706a1.88,1.88,0,0,1-.27.087v-.5q.017-6.14.03-12.283a5.281,5.281,0,0,0-.051-.752,3.2,3.2,0,0,0-1.226-1.9"/>
              <path class="cls-18" d="M590.729,114.425l-.064-.036c-.792-.421-1.29-.046-1.292.839l-.035,12.437c0,1.455-.014,2.914-.007,4.381a2.73,2.73,0,0,0,.772,1.83,2.524,2.524,0,0,0,.584.495.84.84,0,0,0,.8.082c.535-.262,1.059-.555,1.578-.845.768-.425,1.53-.866,2.293-1.3a4.052,4.052,0,0,1,.381-.169c.274.462.537.881.784,1.309,1.11,1.922,2.22,3.851,3.335,5.77a2.5,2.5,0,0,0,.883.954,1.6,1.6,0,0,0,.567.2c.782.117,1.06-1.083.482-2.1-.984-1.716-1.973-3.417-2.961-5.129-.4-.687-.8-1.373-1.278-2.2a1.193,1.193,0,0,0,.3-.057c.577-.3,1.154-.6,1.721-.92.694-.389,1.377-.8,2.075-1.177a1.022,1.022,0,0,0,.479-1.023,3.02,3.02,0,0,0-1.194-2.1c-.036-.024-.072-.046-.107-.066a1.128,1.128,0,0,0-1.278.063c-2.107,1.195-4.209,2.4-6.316,3.593-.344.19-.7.356-1.053.527a.943.943,0,0,1-.19.048c-.01-.182-.02-.309-.02-.431l.012-4.154c.008-2.856.027-5.706.019-8.571a2.733,2.733,0,0,0-1.272-2.248"/>
              <path class="cls-18" d="M561.6,97.587c-.735-.425-1.339-.091-1.341.769-.016,5.561-.021,11.134-.058,16.682a3.1,3.1,0,0,0,1.493,2.605l.011.006q2.505,1.437,5.008,2.884l5.008,2.893a2.076,2.076,0,0,0,.544.241c.919.2,1.3-.86.614-2.112-.174-.319-.363-.629-.542-.939q-2.3-3.99-4.613-7.984a2.938,2.938,0,0,0-1-1.08.889.889,0,0,0-.853-.1c-.641.323-.569,1.348-.028,2.268.174.288.363.568.531.859.673,1.166,1.347,2.338,2.015,3.5.074.122.137.243.205.368l-.027.07-.3-.171-5.035-2.907c-.375-.216-.375-.222-.373-.659l.041-14.481c0-.194,0-.388-.009-.582a3.038,3.038,0,0,0-1.273-2.12l-.019-.011"/>
              <path class="cls-18" d="M540.259,90.571a4.9,4.9,0,0,0-.979-.436c-.533-.168-1.051-.242-1.627-.375-.021-.03-.079-.131-.137-.237a2.832,2.832,0,0,0-1-1.1,1.225,1.225,0,0,0-.421-.158c-.507-.08-.878.283-.88.871-.016,3.89-.033,7.774-.033,11.673a2.837,2.837,0,0,0,1.305,2.26l.021.012a.813.813,0,0,0,1.313-.773c-.019-2.49-.007-4.961.016-7.42a1.478,1.478,0,0,1,.855-1.547,1.755,1.755,0,0,1,1.468.255,4.856,4.856,0,0,1,1.94,2.313,4.942,4.942,0,0,1,.386,1.887c0,2.435-.008,4.86-.021,7.289a2.917,2.917,0,0,0,1.268,2.169c.03.017.06.033.09.048.723.344,1.263.122,1.271-.815.023-2.471.025-4.96.021-7.447a7.473,7.473,0,0,0-.134-1.335,11.064,11.064,0,0,0-2.322-4.961,8.884,8.884,0,0,0-2.4-2.175"/>
              <path class="cls-18" d="M583.319,115.437a5.093,5.093,0,0,0-.971-.437c-.554-.18-1.088-.252-1.664-.384l-.032-.061a2.709,2.709,0,0,0-1.032-1.253,1.333,1.333,0,0,0-.4-.155c-.56-.117-.968.152-.943.883.014.506,0,1,0,1.5-.01,3.4-.014,6.8-.029,10.194a2.914,2.914,0,0,0,1.26,2.181l.05.028c.734.387,1.311.155,1.318-.806.023-2.459.019-4.939.026-7.407a2.4,2.4,0,0,1,.06-.567c.264-1.076,1.2-1.314,2.229-.719a3.827,3.827,0,0,1,.615.448,4.89,4.89,0,0,1,1.7,3.61c0,2.4-.014,4.8-.015,7.2a2.906,2.906,0,0,0,.75,1.94,2.105,2.105,0,0,0,.557.482c.665.384,1.318.142,1.32-.674.007-2.577.025-5.154.017-7.741a7.755,7.755,0,0,0-.207-1.614,11.256,11.256,0,0,0-2.2-4.445,8.74,8.74,0,0,0-2.41-2.2"/>
              <path class="cls-18" d="M523.729,75.721a.992.992,0,0,0-.092-.047c-.681-.308-1.263-.1-1.266.9q-.016,2.752-.021,5.5c0,1.419-.019,2.826-.007,4.254a22.77,22.77,0,0,0,.1,2.375,13.844,13.844,0,0,0,2.63,6.42,12.885,12.885,0,0,0,2.783,2.9,6.482,6.482,0,0,0,.68.457,4.054,4.054,0,0,0,.634.3c.708.263,1.116-.34.955-1.24a2.927,2.927,0,0,0-1.4-2.011,7.1,7.1,0,0,1-2.088-1.983,7.65,7.65,0,0,1-1.616-4.431c0-3.487.014-6.971.024-10.451,0-.255-.041-.528-.045-.785a2.936,2.936,0,0,0-1.276-2.152"/>
              <path class="cls-18" d="M532.7,86.209a1.107,1.107,0,0,0-.632-.164c-.465.035-.7.368-.7.981-.011,3.808-.011,7.616-.043,11.412a3.032,3.032,0,0,0,1.329,2.412,1.655,1.655,0,0,0,.292.134.76.76,0,0,0,1.017-.792l.017-5.882q.008-2.947.022-5.879a2.462,2.462,0,0,0-.461-1.378,2.764,2.764,0,0,0-.84-.844"/>
              <path class="cls-18" d="M575.777,111.085l-.009-.005c-.691-.387-1.342-.119-1.334.767.016,1.94-.006,3.86-.011,5.788-.006,1.953-.011,3.9-.011,5.855a1.7,1.7,0,0,0,.025.361,3.018,3.018,0,0,0,1.259,1.863q.056.032.11.057c.734.338,1.226-.027,1.234-.818.007-.682,0-1.365.006-2.05l.027-9.527a2.935,2.935,0,0,0-1.3-2.291"/>
              <path class="cls-18" d="M532.712,80.919l-.019-.011c-.739-.42-1.321-.064-1.3.779a2.835,2.835,0,0,0,1.336,2.3l.025.015a.78.78,0,0,0,1.261-.778,2.779,2.779,0,0,0-1.3-2.3"/>
              <path class="cls-18" d="M575.707,105.741a.788.788,0,0,0-1.253.79,2.833,2.833,0,0,0,1.3,2.285l.018.011c.749.415,1.332.07,1.313-.766a2.818,2.818,0,0,0-1.336-2.3l-.039-.024"/>
              <path class="cls-18" d="M697.89,159.362c-2.913-1.682-5.285-.336-5.295,3.011a11.6,11.6,0,0,0,5.26,9.111c2.913,1.682,5.285.33,5.295-3.017a11.587,11.587,0,0,0-5.26-9.1"/>
              <path class="cls-18" d="M712.551,167.827c-2.913-1.682-5.285-.336-5.295,3.011a11.6,11.6,0,0,0,5.26,9.111c2.913,1.682,5.28.327,5.289-3.02a11.576,11.576,0,0,0-5.255-9.1"/>
              <path class="cls-18" d="M683.23,150.9c-2.913-1.682-5.28-.333-5.289,3.014a11.587,11.587,0,0,0,5.255,9.108c2.913,1.682,5.285.33,5.295-3.017a11.587,11.587,0,0,0-5.26-9.1"/>
            </g>
            <g class="cls-27">
              <g class="cls-28">
                <polyline class="cls-29" points="517.561 190.299 516.938 191.451 533.537 208.67 550.728 211.756 548.416 209.624 548.111 208.071 533.54 207.783 517.561 190.299"/>
                <path class="cls-22" d="M525.76,187.261a64.554,64.554,0,0,0-6.722-.905c-.693.135-1.477,3.943-1.477,3.943l15.979,17.485,14.571.287s-2.22-6.476-3.223-7.59a43.123,43.123,0,0,0-3.45-3l-.01,3.669,1.287,2.519-9.206,3.385-10.7-14.434,2.941-1.234.012-4.125"/>
                <path class="cls-22" d="M516.938,191.451s-8.88-2.2-11.278-1.1c-1.365.626-2.928,5.3-4.023,9.214a3.162,3.162,0,0,0,.9.819L562.6,235.067a1.365,1.365,0,0,0,.969.209c-.812-4.791-1.871-10.169-2.752-11.742-1.693-3.021-10.092-11.778-10.092-11.778l-17.191-3.086-16.6-17.219"/>
                <path class="cls-30" d="M541.448,193.449c-1.272,1.4-4.039,3.227-7.147,1.432a7.153,7.153,0,0,1-.757-.506,18.508,18.508,0,0,1-5.467-6.8,22.645,22.645,0,0,0,3.655,6.462c2.814,3.668,10.981,9.628,10.981,9.628l-1.287-2.519.01-3.669.011-4.032h0"/>
                <path class="cls-18" d="M526.936,159.078c-1.061-.612-2.726,2.737-2.726,2.737l-.1,8.552a2.247,2.247,0,0,1-.613-1.062,15.278,15.278,0,0,0-1.694-2.666l-.01-.006c-.119-.069-1.281-.66-.924,2.663.376,3.5.908,6.208,1.987,7.543a5.67,5.67,0,0,0,1.383,1.35.611.611,0,0,0,.159.072l1.378,5.059-.011,3.942-.012,4.125-2.941,1.234,10.7,14.434,9.206-3.385s-8.168-5.959-10.981-9.628a22.645,22.645,0,0,1-3.655-6.462,18.508,18.508,0,0,0,5.467,6.8,7.153,7.153,0,0,0,.757.506c3.108,1.794,5.875-.034,7.147-1.432a5.435,5.435,0,0,0,.447-.556,15.558,15.558,0,0,0,1.638-4.382,5.216,5.216,0,0,0,2.792-3.726c.548-2.781-.686-3.669-.686-3.669a.742.742,0,0,0-.082-.055c-.9-.517-1.71,1.786-2.009,2.044a.088.088,0,0,1-.111.014c-.264-.153-.5-1.525-.5-1.525a38.608,38.608,0,0,0-3.158-4.575,85.1,85.1,0,0,1-5.693-9.326l.633,1.7c.633,1.7,3.6,6.784,3.6,6.784a30.256,30.256,0,0,1-5.394-6.4c-2.613-4.081-5.61-10.251-5.61-10.251a1.007,1.007,0,0,0-.371-.442"/>
                <path class="cls-31" d="M535.432,154.629a12.366,12.366,0,0,0-6.1-1.666,9.572,9.572,0,0,0-.814-.519,7.9,7.9,0,0,0-4.514-1.225c-2.552.3-2.8,6.2-2.8,7.705s.594,7.715.594,7.715a15.278,15.278,0,0,1,1.694,2.666,2.247,2.247,0,0,0,.613,1.062l.1-8.552s1.665-3.35,2.726-2.737a1.007,1.007,0,0,1,.371.442s3,6.17,5.61,10.251a30.256,30.256,0,0,0,5.394,6.4s-2.963-5.086-3.6-6.784l-.633-1.7a85.1,85.1,0,0,0,5.693,9.326,38.608,38.608,0,0,1,3.158,4.575s.24,1.372.5,1.525a.088.088,0,0,0,.111-.014c.3-.259,1.113-2.561,2.009-2.044a.742.742,0,0,1,.082.055,46.071,46.071,0,0,0,1.1-7.446c.008-2.659-3.147-8.3-6.916-14.649a12.119,12.119,0,0,0-4.394-4.391"/>
              </g>
            </g>
          </g>
          <g class="cls-32">
            <path class="cls-6" d="M665.173,267.264c-9-5.2-16.316-1.025-16.346,9.315l-.36,127.131c-.029,10.341,7.241,22.933,16.24,28.128l67.516,38.98.295-164.673Z"/>
          </g>
          <path class="cls-26" d="M655.754,536.514c8.127-9.015,12.906-22.788,12.956-40.54.134-47.176-33.158-104.83-74.206-128.53s-74.557-4.612-74.691,42.564,33.15,104.827,74.206,128.531c14.2,8.2,27.49,11.271,38.814,9.839l46.185,58.337,34.89,20.144c5.577,3.22,10.552,2.938,13.788-.108Zm-61.693-12.787c-33.944-19.6-61.476-67.276-61.365-106.28s27.822-54.8,61.766-35.2,61.469,67.281,61.358,106.285S628.005,543.324,594.062,523.727Z"/>
          <path class="cls-33" d="M807.1,371.2,636.186,272.52c-9-5.2-16.316-1.025-16.346,9.315l-.36,127.131c-.029,10.341,7.241,22.933,16.24,28.128l170.91,98.675c9,5.2,16.316,1.026,16.346-9.315l.36-127.131c.029-10.34-7.24-22.932-16.24-28.128"/>
          <g>
            <path class="cls-18" d="M734.678,402.006a3.328,3.328,0,0,0-3.619-.228l-19.838,13.995L697.6,390.314A10.012,10.012,0,0,0,694,386.37a3.312,3.312,0,0,0-3.613-.224l-23.82,16.813c-2.8,1.974-.6,8.941,3.588,11.358l23.726,13.7,34.562,19.954,35.926,20.742c4.187,2.417,6.414-1.991,3.641-7.184L738.28,405.947a9.98,9.98,0,0,0-3.6-3.941"/>
            <path class="cls-18" d="M712.277,364.43c-6.978-4.029-12.65-.788-12.673,7.222s5.612,17.778,12.59,21.807,12.65.8,12.673-7.222-5.612-17.778-12.59-21.807"/>
          </g>
          <path class="cls-34" d="M619.571,376.84l-.043,15.284-.048,16.842c-.029,10.341,7.241,22.933,16.24,28.128l21.512,12.42,14.2,8.2C662.436,427.171,643.16,396.778,619.571,376.84Z"/>
          <g>
            <g>
              <g>
                <g>
                  <path class="cls-4" d="M522.721,421.677c.055-19.377,6.922-33.025,17.98-39.451l-19.207,11.162c-11.058,6.427-17.925,20.074-17.98,39.451a105.687,105.687,0,0,0,5.126,31.426l18.9-12.117A104.98,104.98,0,0,1,522.721,421.677Z"/>
                  <path class="cls-5" d="M527.542,452.148l-18.9,12.117c9.475,30.4,31.091,60.335,56.239,74.854l19.207-11.162C558.674,513.286,536.858,482.875,527.542,452.148Z"/>
                </g>
                <g class="cls-3">
                  <path class="cls-5" d="M627.868,532.211l-19.207,11.162c-11.2,6.509-26.7,5.608-43.782-4.254l19.207-11.162C601.167,537.819,616.668,538.72,627.868,532.211Z"/>
                  <path class="cls-5" d="M512.37,377.689l19.207-11.162c13.545-7.871,32.292-6.78,52.952,5.148l-19.207,11.162C544.661,370.909,525.914,369.818,512.37,377.689Z"/>
                </g>
                <g>
                  <path class="cls-5" d="M584.529,371.675l-19.207,11.162c32.512,18.771,60.14,58.843,70.165,98.138l18.96-12.154C644.212,429.845,616.768,390.288,584.529,371.675Z"/>
                  <path class="cls-4" d="M635.487,480.975a122.348,122.348,0,0,1,4.041,30.392c-.066,23.432-8.37,39.936-21.742,47.708l19.207-11.162c13.372-7.771,21.675-24.275,21.742-47.708a123.043,123.043,0,0,0-4.288-31.383Z"/>
                </g>
                <g class="cls-35">
                  <path class="cls-36" d="M580.126,405.164c13.618,7.862,26.2,20.25,36.378,34.779-11.134-19.475-26.625-36.526-43.758-46.418-33.944-19.6-61.655-3.805-61.766,35.2-.066,23.353,9.783,49.811,24.978,71.494-10.923-19.1-17.652-40.542-17.6-59.855C518.471,401.359,546.182,385.567,580.126,405.164Z"/>
                  <path class="cls-36" d="M572.344,535c33.944,19.6,61.649,3.809,61.759-35.2.055-19.316-6.675-40.758-17.6-59.867-10.181-14.529-22.76-26.917-36.378-34.779-33.944-19.6-61.656-3.805-61.766,35.2-.055,19.314,6.675,40.75,17.6,59.855C546.142,514.75,558.724,527.141,572.344,535Z"/>
                </g>
                <path class="cls-6" d="M565.321,382.837c41.049,23.7,74.34,81.354,74.206,128.53s-33.643,66.264-74.691,42.564S490.5,472.569,490.63,425.4,524.266,359.133,565.321,382.837Zm-.443,156.283c33.944,19.6,61.648,3.809,61.759-35.195s-27.414-86.687-61.358-106.285-61.656-3.805-61.766,35.2,27.421,86.683,61.365,106.281"/>
                <path class="cls-37" d="M567.175,429.393c-18.712-10.8-33.981-2.1-34.042,19.4s15.109,47.777,33.821,58.58,33.981,2.1,34.042-19.4S585.883,440.195,567.175,429.393Z"/>
              </g>
              <g>
                <g class="cls-3">
                  <path class="cls-5" d="M644.459,540.016l37.949,47.305c-.406-.507-1.914-.118-4.253,1.232l-37.949-47.305C642.546,539.9,644.053,539.51,644.459,540.016Z"/>
                  <path class="cls-38" d="M678.156,588.554c3.876-2.238,5.468-1.834,3.552.906s-6.608,6.771-10.484,9.008-5.468,1.834-3.553-.9S674.28,590.791,678.156,588.554Z"/>
                </g>
                <g>
                  <path class="cls-6" d="M629.722,550.259c-.759,1.085-.967,1.8-.7,2.136L666.971,599.7c-.267-.333-.059-1.051.7-2.136a26.57,26.57,0,0,1,3.962-4.214l-38.573-46.739A24.554,24.554,0,0,0,629.722,550.259Z"/>
                  <path class="cls-5" d="M640.207,541.249a42.658,42.658,0,0,0-7.148,5.362l38.573,46.739a42.085,42.085,0,0,1,6.524-4.8Z"/>
                </g>
                <g>
                  <path class="cls-15" d="M717.811,655.261c-.353-.029-51.064-63.04-61.365-75.843a33.805,33.805,0,0,0-4,4.538c-1.167,1.67-1.487,2.775-1.077,3.287,0,0,58.758,73.058,59.126,73.088a15.124,15.124,0,0,0,21.529-1.236,16.155,16.155,0,0,1-14.213-3.833Z"/>
                  <path class="cls-14" d="M733.588,641.166a.714.714,0,0,0-.091-.15c-.017-.027-.032-.054-.049-.081a.219.219,0,0,1,.052.037L675.119,568.2c-.625-.779-2.944-.182-6.542,1.9a66.134,66.134,0,0,0-12.13,9.324c10.3,12.8,61.011,75.814,61.365,75.843a16.155,16.155,0,0,0,14.213,3.833,15.1,15.1,0,0,0,1.564-17.929Z"/>
                </g>
              </g>
            </g>
            <path class="cls-18" d="M567.915,481.3l.02-7.1c1.924,1.884,3.22,3.611,3.215,5.411,0,1.647-1,2.416-3.235,1.687m-4.432-18.529c-1.966-1.857-3.307-3.61-3.3-5.413,0-1.7.948-2.645,3.322-1.893l-.021,7.306m4.533-17.274-4.477-2.585-.016,5.711c-7.074-3.157-10.536-.468-10.551,4.986-.021,7.358,5.526,12.466,10.49,16.721l-.024,8.594a36.4,36.4,0,0,1-8.673-8.668l-2.482,4.855a41.323,41.323,0,0,0,11.136,10.552l-.016,5.605,4.477,2.585.016-5.762c7.033,3.082,10.45.419,10.465-4.934.021-7.252-5.438-12.309-10.4-16.517l.025-8.744a35.978,35.978,0,0,1,6.844,6.63l2.256-5.037A38.619,38.619,0,0,0,568,451.1l.016-5.609"/>
          </g>
        </g>
      </g>
      <g>
        <path class="cls-39" d="M299.51,683.565c.69,7.992,2.29,16.894,8.825,21.546,7.744,5.512,19.022,2.168,25.937-4.354s10.879-15.481,16.033-23.467a87.7,87.7,0,0,1,96.123-37.222c4.274,1.131,8.512,2.594,12.926,2.861s9.17-.863,12.13-4.148c4.109-4.56,3.456-11.955.166-17.137s-8.613-8.666-13.777-11.985c-12.636-8.122-26.765-16.569-41.627-14.386-12.916,1.9-23.193,11.41-34.836,17.315-12.958,6.573-27.639,8.655-41.892,11.477-10.789,2.136-22.186-3.934-31.866,1.455-3.528,1.964-7.785,12.774-8.407,17.1-.9,6.258-.7,12.921-.69,19.232Q298.576,672.724,299.51,683.565Z"/>
        <path class="cls-40" d="M397.9,599.853l1.353,15.4s1.874,3.059,11.657,4.7,14.155,9.831,26.646,15.293,29.04,1.966,30.5-5.462-16.237-17.805-24.98-24.8-10.825-11.8-10.825-11.8Z"/>
        <path class="cls-41" d="M397.9,596.358l1.353,15.4s1.874,3.059,11.657,4.7,14.155,9.831,26.646,15.293,29.04,1.966,30.5-5.462-16.237-17.805-24.98-24.8-10.825-11.8-10.825-11.8Z"/>
        <path class="cls-40" d="M306.416,631.931s-3.932,43.548-1.165,52.141,11.506,14.273,18.351,14.273,15.438-10.05,15.584-22.721-4.515-26.944-4.224-32.333.291-10.2.291-10.2Z"/>
        <path class="cls-41" d="M306.416,626.688s-3.932,43.548-1.165,52.141S316.757,693.1,323.6,693.1s15.438-10.05,15.584-22.721-4.515-26.944-4.224-32.333.291-10.2.291-10.2Z"/>
        <g>
          <path class="cls-42" d="M312.679,635.281a15.1,15.1,0,0,0,13.108,4.005c7.865-1.529,12.89-9.394,12.89-9.394s7.865-50.9,20.1-78.43,33.605-71.892,39.613-86.117c6.282-14.875,9.834-21.442,9.834-21.442l4.952,17.113-8.739,35.829L397.008,529.4l-2.185,35.1,2.4,36.12s9.831,6.336,20.318,4.588,15.73-11.142,15.73-11.142-.437-47.626,7.865-73.842,21.847-62.7,26.435-87.824,3.714-55.273,3.714-55.273L370.234,402.767l-9.929,17.177-22.284,76.682L322.51,529.178l-7.646,38.232-5.462,57.02Z"/>
          <path class="cls-43" d="M356.081,383.606s-13.4,87.1-19.808,103.117-17.477,30.294-21.264,57.093-10.778,82.435-10.778,82.435,3.2,4.952,5.826,6.991l2.622,2.039s2.622-89.135,20.682-115.643,30.586-91.757,34.955-99.33c4.273-7.407,30.275,2.738,52.671-1.715q.758-.151,1.51-.324L408.223,443.9a146.839,146.839,0,0,1-4.078,38.159c-4.952,19.517-8.739,32.916-9.03,57.676l-.291,24.76s1.165-35.538,11.652-59.715,16.173-47.189,20.612-64.667,6.6-24.468,6.6-24.468,27.26-11.943,35.707-31.168S356.081,383.606,356.081,383.606Z"/>
          <g>
            <path class="cls-14" d="M469.394,294l3.408,39.824,3.51,19.49-3.459,13.982s3.823,9.9-3.459,17.186-29.42,37.577-83.018,23.886l-13.108-36.411,15.438-85.348L445.1,273.779l15.265,11.662Z"/>
            <path class="cls-15" d="M491.714,234.683l6.226,9.1s15.957,18.476,9.872,29.993S468.653,287.4,468.653,287.4l.741,6.6s-9.9-1.711-14.128.619-38.742,35.538-38.742,35.538-18.5,39.179-24.323,44.859l-5.826,5.68s12.671,13.982,31.314,14.128,40.053-11.8,40.053-11.8-25.634,18.788-45.3,18.206-26.071,7.137-26.071,7.137-27.673-8.156-30.731-14.273-3.5-18.06-3.5-18.06a20.8,20.8,0,0,1-5.1-14.273c.291-8.739,11.943-37.14,9.03-51.559s-11.1-43.864-11.1-43.864l14.453-33.255L452.5,198.49l17.619,16.374Z"/>
            <path class="cls-30" d="M489.25,244.506l-2.4-5.764a1.973,1.973,0,0,0-.879-.973,1.971,1.971,0,0,0-.953-3.612l-15.381-1.072a1.98,1.98,0,0,0-1.756.835L454.924,252.3a1.982,1.982,0,0,1-.81.667L442.6,258.112l11.943-.27c.046,0,.093,0,.139,0l23.738,1.13a1.979,1.979,0,0,0,1.207-.341l6.8-4.622A7.844,7.844,0,0,0,489.25,244.506ZM472.6,240.072l1.973-1.691a1.98,1.98,0,0,1,1.334-.476l6.377.148Z"/>
            <path class="cls-44" d="M441.648,258.314l12.466-5.349a40.816,40.816,0,0,0,10.037,3.419c5.971,1.238,18.788-.073,18.788-.073l-4.661,3.5-27.818.947Z"/>
            <polygon class="cls-44" points="427.022 311.363 448.458 286.351 436.878 274.772 419.829 276.739 423.88 291.922 427.022 311.363"/>
            <path class="cls-45" d="M422.568,316.5s6.554-3.932,7.537-15.948S425.19,281.5,425.19,281.5s.655-1.046,6.336-.718,16.932,5.571,16.932,5.571l4.045-5.635-25.674-9.221L414.7,276.957l-1.2,3.5a2.748,2.748,0,0,1,2.512,1.046c1.2,1.343,5.025,10.533,5.025,10.533l1.639,12.016Z"/>
            <path class="cls-44" d="M398.524,258.278s-7.453,1.436-8.4,2.4-1.42,7.974-1.42,7.974l16.931,17.15h3.932s5.134-5.789,8.63-8.083,6.226-3.277,13.217-.983,39.87,13.654,54.4,12.453,24.55-13.982,22-21.41-34.013,1.706-34.013,1.706l-68.053-5.092Z"/>
            <path class="cls-14" d="M350.113,199.427s-20.393,15.812-23.889,29.357,2.592,30.8,8.016,38.45,42.668,48.282,52.718,53.743,27.745,1.966,32.333-1.529,11.142-10.7,7.209-20.973A54.612,54.612,0,0,0,416.015,281.5a33.3,33.3,0,0,1,3.168,9.55,39.879,39.879,0,0,1,.437,11.033s-3.168-10.923-6.008-14.091-7.756-5.025-7.756-5.025l-29.821-38.123s7.756,4.042,26.216,6.882,37.467,2.949,45.332,1.311S462,233.044,462,233.044l-6.336-23.287,11.688,19.027,24.359,5.9s-27.309-52.214-34.19-56.583a24.579,24.579,0,0,0-13.435-3.958Z"/>
            <path class="cls-15" d="M367.212,171.165s-2.019,9.143-2.672,10.272-3.622,2.909-3.622,2.909l-4.861,8.228-5.945,6.853s1.781,3.74,8.55,5.878,76.591,9.559,76.591,9.559,9.282-22.977,11.419-32.6-9.493-23.831-9.493-23.831l-37.372,5.416Z"/>
            <path class="cls-14" d="M386.568,153.472s-14.25,5.1-15.793,6.529-3.325,8.552-3.562,11.164,5.581,12.35,9.678,16.506l4.1,4.156s-17.812-7.481-20.068-7.481-5.581,2.612-5.937,4.75,2.85,6.093,2.85,6.093,53.792,17.656,64,18.606,13.418,1.069,13.418,1.069,8.128-23.927,9.672-32.6S437.181,160,437.181,160Z"/>
            <path class="cls-15" d="M386.568,177.34s-10.806-4.468-11.162-8.735,3.777-5.568,8.728-7.3,32.24-1.247,32.24-1.247L430.134,174a24.442,24.442,0,0,1,6.1,23.894l-3.394,11.86-34.282-28.321Z"/>
            <path class="cls-45" d="M423.025,167.832c2.385,1.733,10.132,20.147,10.513,23.07a66.975,66.975,0,0,1,.646,7.932,60.8,60.8,0,0,1-1.342,10.925s-10.058-7.006-20.389-13.656-25.887-18.762-25.887-18.762a14.372,14.372,0,0,0,1.306-3.919c.356-2.137-8.212-21.757-8.212-21.757l9.874,3.113Z"/>
            <g>
              <path class="cls-41" d="M382.887,139.447a32.124,32.124,0,0,0,19.925-3.376l-3.849,5.758A44.573,44.573,0,0,0,423.615,118.6c1.522-3.406,2.613-7.007,4.377-10.295s4.353-6.334,7.854-7.623a9.224,9.224,0,0,1,3.264-.532,26.145,26.145,0,0,1,5.471,11.561,36.489,36.489,0,0,1-2.6,20.82l-39.83,28.429-8.714-.974-8.739-7.026s2.958.513,1.45,2.74a20.473,20.473,0,0,0-2.32,5.719s-8.585-10.06-10.815-15.954a77.446,77.446,0,0,0-3.434-7.756,17.615,17.615,0,0,1,4.113-.014C376.793,138.031,379.8,138.965,382.887,139.447Z"/>
              <path class="cls-31" d="M365.7,136.728a26.258,26.258,0,0,0,.521-6.11c-.019-4.045-1.684-10.325-1.412-17.715s5.463-19.66,19.206-26.362,25.988-3.19,36.478.48a42.47,42.47,0,0,1,18.616,13.127,9.224,9.224,0,0,0-3.264.532c-3.5,1.289-6.09,4.336-7.854,7.623s-2.855,6.889-4.377,10.295a44.573,44.573,0,0,1-24.651,23.232l3.849-5.758a32.124,32.124,0,0,1-19.925,3.376c-3.085-.482-6.094-1.416-9.2-1.756a17.615,17.615,0,0,0-4.113.014c-.713-1.394-1.181-2.19-1.181-2.19Z"/>
            </g>
            <g>
              <path class="cls-30" d="M417.322,174.949c-2.167-2.625-3.542-6.112-6.552-7.7-1.785-.944-4.014-1.126-5.445-2.551-1.787-1.779-1.548-4.843-.273-7.018s3.342-3.743,5.153-5.5a30.085,30.085,0,0,0,5.431-7.168c1.29-.908,2.679-1.953,4.168-3.173,8.494-6.96,16.369-23.641,16.369-23.641s6.345,12.658,5.8,14.329-1.366,10.681-.735,17.085-6.561,27.51-10.916,29.417a15.518,15.518,0,0,1-4.742,1.34A18.179,18.179,0,0,1,417.322,174.949Z"/>
              <path class="cls-46" d="M381.745,143.327c2.04-4.122,8.5,9.747,9.4,12.36s2.379,3.04,2.379,3.04-.48-4.083.864-6.489,3.217-1.754,6.99-3.328,9.473-5.887,9.473-5.887l-5.015,7.326s3.726-1.062,9.8-5.335a30.085,30.085,0,0,1-5.431,7.168c-1.811,1.754-3.878,3.322-5.153,5.5s-1.513,5.239.273,7.018c1.431,1.424,3.66,1.607,5.445,2.551,3.009,1.592,4.384,5.078,6.552,7.7a18.179,18.179,0,0,0,8.263,5.42c-2.785.3-6.119-.2-11.7-1.582-8.895-2.209-19.233-15.485-19.233-15.485s-11.81-4.759-13.853-8.4S379.7,147.448,381.745,143.327Z"/>
            </g>
            <path class="cls-30" d="M397.226,261.008s-.354-2.185,1.3-2.731,30.053,0,30.053,0,45.66.328,52.979-.983,10.7-4.151,17.368,0,9.613,8.52,8.739,12.671-5.025,9.831-14.965,12.78-37.03-.765-44.021-2.294-21.3-7.646-24.687-8.52-11.36,3.168-13,5.352-4.916-1.529-6.554-3.059-3.714-5.68-5.462-8.083A9.648,9.648,0,0,1,397.226,261.008Z"/>
            <path class="cls-47" d="M404.654,335.178s.483,22.308-13.959,41.3c0,0,4.128,8.508,32.966,5.013s49.811-23.595,52.651-28.182-11.8-44.131-11.8-44.131l-54.321,21.191S404.727,332.574,404.654,335.178Z"/>
            <path class="cls-15" d="M447.809,402.9l-1.748.966V387.921l.062-.156c.052-.131,5.22-13.167,5.507-20.216.288-7.092-8.606-49.675-8.7-50.1l-.023-.113,1.316-23.384,1.745.1-1.3,23.154c.617,2.951,9,43.229,8.708,50.42-.284,7-4.942,19.046-5.567,20.635Z"/>
            <path class="cls-15" d="M442.883,256.905l-1.745-.091c.006-.125.642-12.592-.358-21.156-.992-8.509-7.333-23.2-7.4-23.348l1.6-.7c.265.611,6.507,15.075,7.529,23.841C443.533,244.167,442.89,256.779,442.883,256.905Z"/>
          </g>
          <path class="cls-48" d="M408.223,443.9s-16.167,3.2-26.362,2.622-14.565-1.275-14.565-1.275l7.137,3.9h-9.321a36.664,36.664,0,0,0,12.234,3.35c6.408.437,18.06,1.165,18.06,1.165a177.088,177.088,0,0,1-19.662,2.185c-8.593.291-12.962,0-12.962,0l12.962,3.932H363.509l5.389,2.913L351.13,508.339l11.8,2.852s-8.3,1.748-13.108.874l-4.806-.874a57.034,57.034,0,0,0,11.215,4.952,76.485,76.485,0,0,0,11.215,2.039s-16.021,1.311-19.953,0l-3.932-1.311a72.266,72.266,0,0,0,12.817,5.68c6.845,2.185,15.257,1.141,15.257,1.141Z"/>
          <path class="cls-48" d="M366.329,534.8s-9.373,2.755-17.675,2.61-13.4.006-13.4.006,8.593,3.2,11.215,3.49,16.607,1.008,16.607,1.008Z"/>
          <path class="cls-48" d="M358.776,551.462a108.014,108.014,0,0,1-15.22-.51c-8.156-.874-11.36-2.039-11.36-2.039l5.826,4.369-7.719-.728a41.455,41.455,0,0,0,10.486,3.787,92.323,92.323,0,0,0,9.321,1.311,44.985,44.985,0,0,1-7.865.728c-4.224,0-11.943-1.02-11.943-1.02A86.37,86.37,0,0,0,343.556,561c7.574,1.456,11.119.942,11.119.942Z"/>
          <path class="cls-48" d="M351.438,572.017s-9.484.82-16.184,0-7.282-.966-7.282-.966,3.35,2.33,10.05,3.787a38.843,38.843,0,0,0,12.413.633Z"/>
          <path class="cls-48" d="M468.26,428.347s-13.576,7.109-20.858,7.837l-7.282.728s5.389,2.039,9.467,1.6l4.078-.437-13.545,3.787,11.36.874s-11.652,6.263-15.293,6.554S449,451.04,449,451.04l-10.632,2.622,5.535,1.748-5.243,3.641s-10.778,39.761-11.36,40.781-7.719,3.641-7.719,3.641l16.6,3.787-17.477,2.185s10.05,1.893,14.419,2.476,10.86-.507,10.86-.507S465.024,449.146,468.26,428.347Z"/>
          <path class="cls-48" d="M442.389,516.316s-12.174,2.3-19.019,2.157l-6.845-.146,9.9,3.059-11.506,2.555a143.073,143.073,0,0,0,14.71,1.377,48.164,48.164,0,0,0,10.422-1.377Z"/>
          <path class="cls-48" d="M437.434,536.161s-9.7,1.829-15.084,2.193-9.9,1.092-9.9,1.092l9.176,2.464-9.176,1.468a108.683,108.683,0,0,0,11.36,1.456c4.078.146,12.578-1.846,12.578-1.846Z"/>
          <path class="cls-48" d="M435.232,552.736a37.971,37.971,0,0,1-12.445,1.857c-6.263-.291-12.089-.915-12.089-.915a28.166,28.166,0,0,0,12.267,3.1,43.28,43.28,0,0,0,12-1.305Z"/>
        </g>
        <path class="cls-40" d="M312.106,648.9a15.569,15.569,0,0,1,19.336-.293c1.372.987,2.682-1.286,1.323-2.264a18.047,18.047,0,0,0-21.982.293c-1.317,1.016-.013,3.294,1.323,2.264Z"/>
        <path class="cls-40" d="M312.531,656.374a12.8,12.8,0,0,1,18.561-.21c1.211,1.176,3.067-.676,1.854-1.854a15.466,15.466,0,0,0-22.268.21c-1.188,1.2.665,3.056,1.854,1.854Z"/>
        <path class="cls-40" d="M312.584,664.316c5.522-5.191,13.146-5.416,19.116-.874,1.343,1.021,2.65-1.254,1.323-2.264a16.915,16.915,0,0,0-22.293,1.284c-1.232,1.158.625,3.009,1.854,1.854Z"/>
        <path class="cls-40" d="M440.727,597.809c-6.333.65-9.449,6.149-11.374,11.611-.562,1.594,1.97,2.28,2.528.7,1.472-4.178,3.847-9.174,8.846-9.687,1.662-.171,1.679-2.794,0-2.622Z"/>
        <path class="cls-40" d="M444.442,601.154a14.882,14.882,0,0,0-9.264,11.131c-.3,1.649,2.225,2.357,2.528.7a12.264,12.264,0,0,1,7.433-9.3c1.547-.62.872-3.157-.7-2.528Z"/>
        <path class="cls-40" d="M449.833,604.646c-5.313,1.384-8.746,8.126-10.229,12.941-.5,1.616,2.032,2.307,2.528.7,1.2-3.888,4.06-9.981,8.4-11.11a1.312,1.312,0,0,0-.7-2.528Z"/>
      </g>
    </g>
    <path class="cls-49" d="M400.836,459.647s-13.46,3.36-21.71,3.334l-8.25-.026s7.045,3.378,13.523,3.064,13.99-.673,13.99-.673Z"/>
    <path class="cls-49" d="M396.483,469.5s-10.606,2.193-18.356,1.448l-7.75-.745,5.513,4.509h-6.513A86.626,86.626,0,0,0,381.03,477.8l5.347.9-15.5,2.345,18.992,2.873Z"/>
    <path class="cls-50" d="M387.586,488.9a45.827,45.827,0,0,1-14.319-1.1c-7.141-1.846-12.717-3.664-12.717-3.664s10.839,4.963,16.333,6.516a71.749,71.749,0,0,0,8.973,2.02Z"/>
    <path class="cls-50" d="M364.7,538.354s-3.071,3.017-13.071,1.35-16.373-2.292-16.373-2.292a16.085,16.085,0,0,0,4.956,3.625c3.25,1.583,10.581,2.333,10.581,2.333l-8.081,1.472s5.417,1.445,9.417,2.028a38.282,38.282,0,0,0,8.7,0Z"/>
    <path class="cls-49" d="M380.534,504.277s-3.741-.458-11.158-1.656-12.917-2.667-12.917-2.667,7.917,4.583,8.25,4.583h-5s6.917,3.667,10.25,4.583,7.57,1.706,7.57,1.706Z"/>
    <path class="cls-50" d="M356.233,557.963a108.1,108.1,0,0,1-13.526.413c-6.075-.316-11.848-.944-11.848-.944s11.851,2.523,17.268,3.023,7.075,0,7.075,0Z"/>
    <path class="cls-49" d="M327.972,571.052a110.249,110.249,0,0,0,13.238,2.326c7.333.827,9.716.4,9.716.4l1.591-5.3s-3.557.94-9.89,0-11.768-1.773-11.768-1.773l4.4,2.167,1.623,1.425Z"/>
    <path class="cls-49" d="M448,499.3s-12.957-.428-14.457-.928l-1.5-.5,6.75-.833-6.75-1.583,7.978-.667-4.312-1.667,14.333.5Z"/>
    <path class="cls-49" d="M462.919,452.148l-18.292,1.347,10.167,1.46-10.167,1.5s5.833,1,10.25,1.75,6.073.865,6.073.865Z"/>
    <path class="cls-49" d="M458.479,466.039s-1.852.751-7.519,0-9.167-1-9.167-1l9.25,3.344-10.333.362a44.277,44.277,0,0,0,9.833,2.961,52.309,52.309,0,0,0,6.364.567l1.947-6.232Z"/>
    <path class="cls-49" d="M439.327,526.816s-8.2,1.9-12.284,1.935-8.334,0-8.334,0,7.084,2.12,11.084,2.037,8.735-.4,8.735-.4Z"/>
    <path class="cls-49" d="M436.635,541.36s-7.675,1.616-12.425,2.064-8.914.43-8.914.43a18.485,18.485,0,0,0,6.081,1.6c3.583.333,8.917.5,8.917.5l-6.583,1.583s9.24,1.405,12.2-.922Z"/>
    <path class="cls-50" d="M452.377,486.038l-18.333-.833,5.333,2.833-5.333.366s14.114,2.638,16.849,1.969Z"/>
    <path class="cls-50" d="M441.46,518.788s-1.417.917-7.917,1.583-20.583.446-20.583.446l8.083,2.554-6.121.57s9.954,2.013,15.288,2.263a50.965,50.965,0,0,0,9.361-.389Z"/>
    <path class="cls-50" d="M436.029,545.774s-4.485,1.847-12.319,1.763-8.414-.333-8.414-.333,9.53,1.75,13.722,1.833,6.609,0,6.609,0Z"/>
  </g>
</svg>
